<svg width="44" height="44" viewBox="0 0 44 44" fill="none" xmlns="http://www.w3.org/2000/svg">
<g clip-path="url(#clip0_1815_60996)">
<path d="M22.3724 8.12407e-06C19.7989 -0.00222245 17.2456 0.454888 14.8328 1.34984C17.5995 5.45153 18.9792 9.29967 19.2104 11.701C19.2836 12.2719 19.4767 12.8209 19.7772 13.3119C20.8734 14.9153 21.2687 18.3756 21.1643 19.6061C21.1633 19.6196 21.1584 19.6324 21.15 19.643C21.1416 19.6536 21.1302 19.6614 21.1173 19.6655C21.1045 19.6695 21.0907 19.6695 21.0777 19.6656C21.0648 19.6617 21.0534 19.6539 21.045 19.6434C20.2556 18.7104 19.2836 17.949 18.1887 17.4061C18.1791 17.4001 18.1678 17.3974 18.1565 17.3984C18.1452 17.3994 18.1346 17.404 18.1261 17.4116C18.1177 17.4192 18.112 17.4293 18.1098 17.4404C18.1077 17.4515 18.1092 17.463 18.1141 17.4732C18.7107 18.48 19.2775 20.4563 20.4334 22.1864C20.4409 22.2002 20.4443 22.2159 20.4432 22.2316C20.442 22.2472 20.4364 22.2623 20.427 22.2748C20.4176 22.2874 20.4047 22.297 20.39 22.3025C20.3753 22.308 20.3593 22.3091 20.3439 22.3058C19.4629 22.014 18.6856 21.4725 18.1067 20.7471C16.9656 19.4346 15.7351 14.8556 15.3846 14.3634C14.8999 13.6848 13.0802 12.499 11.9839 11.6041C10.1256 10.0173 8.61717 8.06191 7.55411 5.8617C7.2931 6.13018 7.00971 6.40611 6.7114 6.71187C7.39005 8.42712 8.15818 10.3288 8.94869 12.3051C10.6258 13.5137 12.1051 14.9754 13.3338 16.638C14.4556 18.3515 15.1746 20.2969 15.4368 22.3281C15.6819 24.6797 15.7094 27.0488 15.5189 29.4054C15.5213 29.4172 15.5214 29.4293 15.5192 29.4411C15.5169 29.4529 15.5124 29.4641 15.5058 29.4742C15.4993 29.4842 15.4908 29.4929 15.4808 29.4996C15.4709 29.5064 15.4598 29.5111 15.448 29.5136C15.4363 29.516 15.4241 29.5161 15.4123 29.5139C15.4006 29.5117 15.3893 29.5071 15.3793 29.5005C15.3692 29.494 15.3606 29.4855 15.3538 29.4755C15.3471 29.4656 15.3423 29.4545 15.3399 29.4427C13.6465 23.5718 11.5099 17.8378 8.94869 12.2902L8.06123 11.619C6.98051 10.7107 5.96617 9.72629 5.02598 8.67323C1.6613 13.1861 0.188778 18.8331 0.921255 24.4144C1.65373 29.9957 4.53348 35.0715 8.94869 38.5634C10.4835 36.9991 12.1669 35.588 13.9751 34.3498C16.8269 32.3248 20.2728 31.3092 23.767 31.4637C23.8087 31.4662 23.8485 31.4815 23.8811 31.5076C23.9137 31.5337 23.9373 31.5693 23.9488 31.6094C23.9602 31.6495 23.959 31.6922 23.9451 31.7316C23.9312 31.771 23.9055 31.8051 23.8714 31.8292L11.1114 40.0922C14.1977 41.9759 17.7071 43.0557 21.3185 43.2328C24.9299 43.41 28.5281 42.6789 31.7839 41.1064L31.7243 41.017C29.6809 36.7959 29.487 33.2759 30.6429 30.6285C30.7324 30.4346 31.0904 30.442 31.1426 31.2251C31.1426 31.2251 31.4856 36.2217 31.8884 41.0393C36.2718 38.8865 39.7975 35.3134 41.8918 30.9017C43.9861 26.49 44.5256 21.4993 43.4225 16.742C42.3194 11.9846 39.6386 7.74065 35.8165 4.70078C31.9944 1.66091 27.256 0.00410182 22.3724 8.12407e-06ZM36.1243 28.0556C35.4949 28.4922 34.7292 28.6873 33.9676 28.6051C33.206 28.5229 32.4996 28.169 31.9778 27.6081C31.9688 27.6029 31.9585 27.6001 31.948 27.6001C31.9375 27.6001 31.9273 27.6029 31.9182 27.6081C29.9523 28.8802 27.6433 29.518 25.3033 29.4353C23.1128 29.2596 21.0808 28.2248 19.6504 26.5566C19.6442 26.5525 19.6392 26.547 19.6357 26.5405C19.6322 26.534 19.6304 26.5267 19.6304 26.5193C19.6304 26.5119 19.6322 26.5047 19.6357 26.4982C19.6392 26.4917 19.6442 26.4861 19.6504 26.482L31.6497 27.3919C31.6545 27.3877 31.6583 27.3825 31.6609 27.3767C31.6635 27.3709 31.6649 27.3647 31.6649 27.3583C31.6649 27.352 31.6635 27.3457 31.6609 27.3399C31.6583 27.3341 31.6545 27.3289 31.6497 27.3247C31.4764 27.0915 31.3265 26.8417 31.2023 26.579C31.1995 26.5704 31.199 26.5612 31.2009 26.5523C31.2028 26.5434 31.207 26.5352 31.213 26.5284C31.219 26.5217 31.2267 26.5166 31.2352 26.5137C31.2438 26.5108 31.253 26.5101 31.2619 26.5119L36.0348 27.9512C36.0486 27.9393 36.0666 27.9334 36.0848 27.9348C36.103 27.9362 36.1199 27.9448 36.1317 27.9586C36.1436 27.9725 36.1495 27.9905 36.1481 28.0087C36.1467 28.0268 36.1381 28.0437 36.1243 28.0556ZM39.525 23.4542C39.3833 23.3648 39.0328 23.5586 39.085 23.9241C39.1602 24.4806 39.0633 25.0469 38.8074 25.5468C38.5514 26.0467 38.1486 26.4563 37.6531 26.7207C37.0277 27.0046 36.336 27.1103 35.6544 27.0261C34.9727 26.9419 34.3275 26.671 33.7901 26.2434C33.7676 26.2231 33.7507 26.1975 33.7409 26.1689C33.7311 26.1403 33.7286 26.1096 33.7339 26.0798C33.7391 26.05 33.7517 26.0221 33.7707 25.9985C33.7897 25.9749 33.8143 25.9566 33.8423 25.9451L38.3616 24.0807C38.3881 24.0668 38.4104 24.0459 38.4259 24.0203C38.4415 23.9946 38.4497 23.9652 38.4497 23.9353C38.4497 23.9053 38.4415 23.8759 38.4259 23.8502C38.4104 23.8246 38.3881 23.8037 38.3616 23.7898C38.0197 23.4804 37.7301 23.1178 37.5039 22.7159C37.3907 22.6099 37.2656 22.5173 37.1311 22.44C34.8695 20.9759 32.5237 19.6462 30.106 18.4576C30.0882 18.4502 30.0687 18.4483 30.0499 18.452C30.031 18.4557 30.0137 18.465 30.0001 18.4786C29.9866 18.4922 29.9773 18.5095 29.9736 18.5283C29.9699 18.5472 29.9718 18.5667 29.9792 18.5844C30.0823 18.7826 30.1672 18.9898 30.2328 19.2034C30.2395 19.2254 30.2388 19.2491 30.2307 19.2707C30.2226 19.2923 30.2076 19.3106 30.188 19.3227C29.2638 19.8321 28.1823 19.9769 27.1566 19.7284C26.131 19.4799 25.2356 18.8563 24.647 17.9803C24.6375 17.9719 24.6299 17.9616 24.6246 17.95C24.6194 17.9385 24.6167 17.9259 24.6167 17.9132C24.6167 17.9005 24.6194 17.888 24.6246 17.8764C24.6299 17.8648 24.6375 17.8545 24.647 17.8461C25.3013 17.4342 26.0123 17.1202 26.7575 16.9139C26.7752 16.9065 26.7903 16.8941 26.8009 16.8782C26.8115 16.8623 26.8172 16.8436 26.8172 16.8244C26.8172 16.8053 26.8115 16.7866 26.8009 16.7706C26.7903 16.7547 26.7752 16.7423 26.7575 16.7349C24.647 15.6386 23.1033 14.8556 20.9182 13.9607C20.8975 13.9521 20.8804 13.9365 20.8699 13.9168C20.8594 13.897 20.856 13.8742 20.8604 13.8522C20.8648 13.8302 20.8767 13.8104 20.894 13.7962C20.9113 13.782 20.9331 13.7742 20.9555 13.7742C23.0361 13.7742 28.3161 14.52 30.7026 15.5864C33.2904 16.7722 34.7595 18.4353 36.1168 19.181C37.4741 19.9268 40.226 20.3817 39.7039 23.5885L39.525 23.4542Z" fill="#E21B25"/>
</g>
<defs>
<clipPath id="clip0_1815_60996">
<rect width="44" height="44" fill="white"/>
</clipPath>
</defs>
</svg>
