<svg width="256" height="44" viewBox="0 0 256 44" fill="none" xmlns="http://www.w3.org/2000/svg">
<g clip-path="url(#clip0_1815_85135)">
<path d="M49.8405 29.3821C49.9641 29.3821 50.0804 29.2693 50.1894 29.0366C50.3225 28.6729 50.3793 28.287 50.3566 27.9017V16.0232C50.3731 15.6374 50.3037 15.2526 50.153 14.8952C50.0367 14.6696 49.9132 14.5568 49.7969 14.5357H58.1848C59.4042 14.4916 60.6209 14.6759 61.7683 15.0785C62.586 15.3791 63.2715 15.9444 63.709 16.6788C64.1356 17.4843 64.3432 18.382 64.3123 19.2871C64.3227 19.9694 64.1788 20.6456 63.8907 21.268C63.6282 21.8235 63.2288 22.3077 62.7277 22.6779C62.2293 23.045 61.6612 23.3133 61.0559 23.4675V23.545C61.8887 23.9018 62.6324 24.4284 63.2365 25.0889C63.9902 25.8751 64.6576 26.735 65.2281 27.6549C65.5186 28.1407 65.8811 28.5825 66.3039 28.9662C66.5042 29.1643 66.755 29.3078 67.0307 29.3821H60.6125C60.7172 29.3722 60.8175 29.3366 60.904 29.2786C60.9905 29.2206 61.0603 29.1422 61.1068 29.0507C61.2376 28.8463 61.1868 28.5009 60.9687 28.0215C60.6415 27.2793 60.2031 26.5881 59.6676 25.9701C59.1796 25.4118 58.5752 24.9601 57.8941 24.6448C57.1676 24.3294 56.3785 24.1729 55.5827 24.1866H55.3065C54.9926 24.1475 54.6737 24.1914 54.3834 24.3134C54.2727 24.5013 54.2292 24.7195 54.2598 24.9338V27.9017C54.2306 28.2971 54.2901 28.6939 54.4342 29.0648C54.5578 29.2975 54.6741 29.4103 54.7904 29.4103L49.8405 29.3821ZM55.3065 21.691H57.4216C58.2388 21.7559 59.0555 21.5604 59.7476 21.1341C60.0058 20.9003 60.2055 20.6123 60.3315 20.2922C60.4575 19.9721 60.5064 19.6283 60.4744 19.2871C60.4785 18.9334 60.391 18.5844 60.22 18.272C60.0271 17.9476 59.7239 17.6984 59.3623 17.567C58.8289 17.3821 58.2639 17.2983 57.6978 17.3203H55.3065C54.9969 17.2958 54.6852 17.3196 54.3834 17.3908C54.2961 17.4401 54.2598 17.6305 54.2598 17.9618V21.0072C54.2598 21.3385 54.2598 21.5289 54.3834 21.5853C54.6805 21.6808 54.9946 21.7167 55.3065 21.691Z" fill="white"/>
<path d="M67.54 29.3821C67.6345 29.3821 67.729 29.2976 67.8235 29.1143C67.9311 28.8254 67.978 28.5186 67.9616 28.2119V18.836C67.9791 18.5339 67.9321 18.2315 67.8235 17.9478C67.729 17.7715 67.6345 17.6728 67.54 17.6658H79.3006V18.2509L79.7077 20.5138C79.1322 20.3087 78.5385 20.1553 77.9341 20.0556C76.9246 19.8787 75.8999 19.7961 74.8741 19.8088H71.8867C71.6403 19.7825 71.391 19.8139 71.1598 19.9005C71.0871 19.9569 71.0508 20.1261 71.0508 20.401V21.8462C71.0508 22.1281 71.0871 22.2973 71.1598 22.3537C71.3934 22.4304 71.6414 22.4568 71.8867 22.4313H74.7941C75.4242 22.4418 76.0541 22.3994 76.6767 22.3044C77.0018 22.2636 77.3183 22.1732 77.6143 22.0365C77.5562 22.2903 77.498 22.5723 77.4326 22.8965C77.3672 23.2208 77.309 23.5381 77.2727 23.8341C77.2336 24.0815 77.2118 24.3312 77.2073 24.5814H71.8721C71.6279 24.5591 71.3815 24.5806 71.1453 24.6448C71.0726 24.6942 71.0362 24.8634 71.0362 25.1665V26.6117C71.0362 26.9078 71.0362 27.084 71.138 27.1404C71.3714 27.2179 71.6196 27.2444 71.8649 27.2179H77.3018C77.9553 27.2426 78.6079 27.1519 79.2279 26.95C79.5771 26.8506 79.8979 26.6745 80.1656 26.4354L79.7586 28.7829V29.3821H67.54Z" fill="white"/>
<path d="M81.5391 29.382C81.6336 29.382 81.728 29.2974 81.8225 29.1141C81.9337 28.8261 81.9808 28.5186 81.9606 28.2118V18.8358C81.9807 18.5336 81.9336 18.2307 81.8225 17.9476C81.728 17.7714 81.6336 17.6727 81.5391 17.6656H87.8627C88.8671 17.6424 89.87 17.7539 90.8429 17.9969C91.5497 18.1706 92.2126 18.4825 92.7909 18.9134C93.2563 19.2791 93.6376 19.7354 93.9102 20.2528C94.1643 20.7549 94.336 21.2925 94.419 21.846C94.5067 22.4083 94.5505 22.9762 94.5499 23.5449C94.5485 24.0832 94.5047 24.6205 94.419 25.1522C94.3333 25.7047 94.1566 26.2403 93.8957 26.7384C93.6186 27.257 93.2353 27.7152 92.769 28.0849C92.2051 28.5312 91.5553 28.8643 90.8574 29.0648C89.8886 29.3171 88.8874 29.4334 87.8845 29.4102L81.5391 29.382ZM85.9002 27.2178H86.7216C87.6581 27.2393 88.5937 27.1445 89.5054 26.9358C90.1356 26.7912 90.683 26.4145 91.0318 25.8854C91.3993 25.207 91.5678 24.4438 91.5188 23.6789V23.3264C91.5719 22.5501 91.4192 21.7735 91.0755 21.0705C90.9118 20.8164 90.6943 20.5988 90.4375 20.4323C90.1806 20.2658 89.8901 20.1542 89.5854 20.1048C88.6421 19.9279 87.682 19.85 86.7216 19.8721H85.9002C85.656 19.8498 85.4096 19.8713 85.1734 19.9356C85.1007 19.9849 85.0643 20.1471 85.0643 20.4149V26.6327C85.0643 26.9146 85.1007 27.0838 85.1734 27.1402C85.3979 27.2129 85.6355 27.2393 85.8711 27.2178H85.9002Z" fill="white"/>
<path d="M96.0693 29.382C96.1856 29.382 96.3092 29.2692 96.4255 29.0366C96.5686 28.6751 96.6306 28.2882 96.6072 27.9016V16.0231C96.6307 15.6388 96.5687 15.2542 96.4255 14.8952C96.3092 14.6696 96.1856 14.5568 96.0693 14.5356H101.07C100.954 14.5356 100.83 14.6555 100.714 14.8811C100.567 15.2514 100.505 15.6483 100.532 16.0443V19.8299C100.532 20.1964 100.583 20.4079 100.678 20.4784C100.968 20.5722 101.275 20.6059 101.579 20.5771H108.121C108.422 20.6071 108.726 20.5759 109.015 20.4855C109.102 20.4291 109.146 20.2105 109.146 19.8299V16.0231C109.173 15.6387 109.111 15.2532 108.964 14.8952C108.848 14.6696 108.724 14.5568 108.608 14.5356H113.608C113.492 14.5356 113.369 14.6555 113.252 14.8811C113.108 15.2521 113.046 15.6484 113.071 16.0443V27.9016C113.047 28.2882 113.109 28.6751 113.252 29.0366C113.369 29.2692 113.492 29.382 113.608 29.382H108.608C108.724 29.382 108.848 29.2692 108.964 29.0366C109.111 28.6761 109.173 28.2883 109.146 27.9016V24.0385C109.146 23.6578 109.095 23.4392 109 23.3828C108.715 23.3016 108.417 23.2729 108.121 23.2983H101.579C101.275 23.2695 100.968 23.3031 100.678 23.3969C100.583 23.4604 100.532 23.6789 100.532 24.0385V27.9016C100.505 28.2883 100.567 28.6761 100.714 29.0366C100.83 29.2692 100.954 29.382 101.07 29.382H96.0693Z" fill="white"/>
<path d="M114.35 29.3821C114.415 29.3821 114.517 29.2976 114.662 29.1143C114.859 28.8239 115.025 28.5144 115.156 28.1908C115.251 28.0004 115.396 27.6621 115.607 27.1897L116.334 25.526C116.61 24.8986 116.894 24.236 117.199 23.5451C117.504 22.8543 117.788 22.1916 118.064 21.5501C118.34 20.9086 118.58 20.3517 118.791 19.8723C119.002 19.3929 119.147 19.0404 119.227 18.836C119.365 18.5502 119.458 18.2461 119.503 17.9337C119.503 17.7574 119.503 17.6658 119.423 17.6658H123.784C123.726 17.6658 123.704 17.7504 123.719 17.9266C123.774 18.24 123.869 18.5455 124.002 18.836C124.082 19.0404 124.228 19.3859 124.424 19.8582L125.151 21.5219C125.42 22.1563 125.703 22.812 126.001 23.5028L126.844 25.4908C127.113 26.1182 127.353 26.6751 127.571 27.1615C127.789 27.648 127.942 27.9863 128.036 28.1908C128.174 28.5289 128.37 28.8414 128.618 29.1143C128.807 29.2976 128.945 29.3821 129.039 29.3821H124.467C124.577 29.3821 124.664 29.2694 124.736 29.079C124.818 28.7883 124.818 28.4815 124.736 28.1908C124.736 28.1062 124.736 28.0286 124.693 27.9652C124.674 27.8761 124.648 27.7888 124.613 27.7044C124.582 27.553 124.52 27.4091 124.431 27.2814C124.39 27.2368 124.34 27.2011 124.283 27.1768C124.227 27.1525 124.166 27.1401 124.104 27.1404C123.944 27.1404 123.697 27.1404 123.377 27.1404H119.91C119.641 27.1261 119.372 27.1261 119.103 27.1404C118.968 27.146 118.839 27.1985 118.74 27.2884C118.658 27.4049 118.604 27.5372 118.58 27.6762C118.58 27.7466 118.58 27.8312 118.529 27.9299C118.478 28.0286 118.529 28.1203 118.478 28.1837C118.39 28.4764 118.367 28.7842 118.413 29.0861C118.456 29.2694 118.522 29.368 118.602 29.3751L114.35 29.3821ZM120.412 24.9691H122.767C123.159 24.9691 123.377 24.9691 123.414 24.8704C123.45 24.7717 123.414 24.666 123.355 24.4404C123.181 24.0245 123.007 23.6015 122.832 23.1644C122.658 22.7274 122.49 22.2973 122.338 21.8814C122.185 21.4655 122.047 21.0778 121.931 20.7182C121.814 20.3587 121.72 20.0626 121.64 19.8088L121.015 21.3104C120.819 21.8391 120.63 22.3396 120.455 22.7908L119.866 24.3558C119.788 24.4934 119.753 24.6502 119.765 24.807C119.794 24.9268 120.012 24.9691 120.412 24.9691Z" fill="white"/>
<path d="M129.716 29.382C129.81 29.382 129.905 29.2974 129.992 29.1141C130.096 28.8246 130.141 28.5179 130.123 28.2117V18.8358C130.14 18.5337 130.093 18.2313 129.985 17.9476C129.89 17.7713 129.796 17.6726 129.701 17.6656H136.308C137.271 17.6293 138.231 17.7753 139.136 18.0956C139.78 18.3309 140.322 18.7739 140.669 19.3504C141.005 19.989 141.167 20.6997 141.142 21.416C141.154 21.9532 141.04 22.4861 140.808 22.9739C140.606 23.4151 140.29 23.7986 139.892 24.0877C139.502 24.3769 139.057 24.5899 138.583 24.7152V24.7715C139.233 25.0601 139.812 25.478 140.284 25.9982C140.883 26.6165 141.417 27.292 141.876 28.0143C142.096 28.4049 142.378 28.7594 142.712 29.0647C142.87 29.2256 143.072 29.3404 143.293 29.3961H138.205C138.288 29.3888 138.368 29.361 138.437 29.3153C138.505 29.2696 138.561 29.2076 138.598 29.1352C138.7 28.9731 138.663 28.7052 138.489 28.3245C138.231 27.7368 137.883 27.1901 137.457 26.7031C137.076 26.2604 136.6 25.9042 136.061 25.6598C135.489 25.406 134.866 25.2807 134.237 25.2932H134.019C133.772 25.263 133.521 25.297 133.292 25.3919C133.205 25.5418 133.169 25.7146 133.19 25.8854V28.2258C133.17 28.5327 133.217 28.8402 133.328 29.1282C133.423 29.3115 133.517 29.3961 133.612 29.3961L129.716 29.382ZM134.033 23.3123H135.683C136.328 23.366 136.972 23.2097 137.515 22.8682C137.718 22.6848 137.875 22.4584 137.974 22.2065C138.072 21.9546 138.109 21.684 138.082 21.416C138.085 21.1357 138.015 20.8592 137.878 20.6123C137.722 20.3616 137.484 20.1682 137.202 20.0624C136.79 19.9327 136.356 19.8777 135.923 19.9003H134.033C133.789 19.8831 133.544 19.9021 133.306 19.9567C133.241 19.999 133.205 20.147 133.205 20.4079V22.8118C133.205 23.0726 133.241 23.2206 133.306 23.27C133.544 23.3275 133.79 23.3418 134.033 23.3123Z" fill="white"/>
<path d="M143.918 29.3821C144.005 29.3821 144.1 29.2976 144.194 29.1143C144.308 28.827 144.358 28.5193 144.34 28.2119V18.836C144.359 18.5331 144.31 18.2298 144.194 17.9478C144.1 17.7715 144.005 17.6728 143.918 17.6658H155.679V18.2509L156.078 20.5138C155.506 20.3074 154.914 20.154 154.312 20.0556C153.3 19.8784 152.273 19.7958 151.245 19.8088H148.279C148.033 19.7825 147.783 19.8139 147.552 19.9005C147.48 19.9569 147.443 20.1261 147.443 20.401V21.8462C147.443 22.1281 147.48 22.2973 147.552 22.3537C147.786 22.4311 148.034 22.4575 148.279 22.4313H151.187C151.819 22.4422 152.451 22.3998 153.076 22.3044C153.381 22.2525 153.675 22.155 153.949 22.0154L153.774 22.8754C153.701 23.2067 153.651 23.5169 153.607 23.813C153.573 24.0609 153.554 24.3103 153.549 24.5602H148.228C147.984 24.5375 147.738 24.559 147.501 24.6237C147.429 24.673 147.392 24.8422 147.392 25.1454V26.5905C147.392 26.8866 147.392 27.0628 147.487 27.1192C147.721 27.1952 147.968 27.2217 148.214 27.1968H153.658C154.298 27.2241 154.938 27.1405 155.548 26.95C155.895 26.8468 156.215 26.6712 156.485 26.4354L156.078 28.7829V29.3821H143.918Z" fill="white"/>
<path d="M163.543 29.3822C163.659 29.3822 163.783 29.2694 163.899 29.0368C164.039 28.6746 164.099 28.2878 164.074 27.9018V16.0233C164.099 15.6395 164.039 15.255 163.899 14.8953C163.783 14.6697 163.659 14.5569 163.543 14.5358H169.561C169.46 14.5358 169.416 14.6838 169.423 14.9235C169.487 15.3292 169.63 15.7193 169.845 16.0726C169.961 16.2841 170.136 16.6225 170.368 17.0877C170.594 17.546 170.862 18.0817 171.16 18.695L172.105 20.6478C172.432 21.3527 172.767 22.0577 173.108 22.7626C173.45 23.4676 173.763 24.1091 174.053 24.7154L175.049 22.7203C175.398 22.0154 175.74 21.3104 176.081 20.6548C176.423 19.9992 176.743 19.3013 177.048 18.688C177.353 18.0747 177.622 17.5248 177.84 17.0525C178.058 16.5802 178.226 16.2347 178.327 16.0021C178.511 15.6411 178.641 15.2566 178.713 14.8601C178.713 14.6345 178.713 14.5146 178.604 14.5146H184.622C184.506 14.5146 184.382 14.6345 184.266 14.8601C184.119 15.2304 184.057 15.6273 184.084 16.0233V27.9018C184.057 28.2885 184.119 28.6762 184.266 29.0368C184.382 29.2694 184.506 29.3822 184.622 29.3822H179.694C179.817 29.3822 179.934 29.2694 180.043 29.0368C180.176 28.673 180.233 28.2871 180.21 27.9018V19.9005H180.159C179.883 20.401 179.592 20.9439 179.287 21.536L178.356 23.3407C178.044 23.954 177.739 24.5462 177.455 25.1242C177.172 25.7023 176.895 26.231 176.663 26.7104C176.43 27.1898 176.227 27.5916 176.074 27.9229C175.885 28.2704 175.759 28.6474 175.703 29.0368C175.703 29.2694 175.703 29.3892 175.82 29.4033H172.265C172.353 29.4033 172.389 29.2694 172.382 29.0368C172.326 28.6474 172.2 28.2704 172.011 27.9229C171.88 27.6268 171.691 27.218 171.466 26.7597L170.739 25.1877C170.455 24.6167 170.165 24.0245 169.852 23.4041L168.951 21.5713L168.071 19.9005H167.991V27.9018C167.964 28.2885 168.026 28.6762 168.173 29.0368C168.289 29.2694 168.406 29.3822 168.529 29.3822H163.543Z" fill="white"/>
<path d="M185.35 29.3821C185.415 29.3821 185.517 29.2976 185.662 29.1143C185.859 28.8239 186.025 28.5144 186.156 28.1908C186.251 28.0004 186.396 27.6621 186.607 27.1897L187.334 25.526C187.61 24.8986 187.894 24.236 188.199 23.5451L189.064 21.5501C189.34 20.9156 189.58 20.3517 189.791 19.8723C190.001 19.3929 190.14 19.0404 190.22 18.836C190.355 18.5489 190.451 18.2454 190.503 17.9337C190.503 17.7574 190.503 17.6658 190.423 17.6658H194.784C194.733 17.6658 194.712 17.7504 194.726 17.9266C194.781 18.24 194.876 18.5455 195.01 18.836C195.09 19.0404 195.228 19.3859 195.431 19.8582L196.158 21.5219C196.427 22.1563 196.71 22.812 197.001 23.5028L197.852 25.4908L198.578 27.1615L199.044 28.1908C199.186 28.5281 199.385 28.8402 199.632 29.1143C199.821 29.2976 199.959 29.3821 200.054 29.3821H195.526C195.627 29.3821 195.722 29.2694 195.795 29.079C195.873 28.7878 195.873 28.482 195.795 28.1908C195.795 28.1062 195.795 28.0286 195.751 27.9652C195.729 27.877 195.702 27.7899 195.671 27.7044C195.637 27.5539 195.576 27.4107 195.489 27.2814C195.447 27.2359 195.396 27.1997 195.338 27.1754C195.28 27.151 195.218 27.1391 195.155 27.1404C195.002 27.1404 194.755 27.1404 194.428 27.1404H190.961C190.692 27.1261 190.423 27.1261 190.154 27.1404C190.018 27.144 189.889 27.1968 189.791 27.2884C189.706 27.4034 189.651 27.5364 189.631 27.6762C189.631 27.7466 189.631 27.8312 189.58 27.9299C189.529 28.0286 189.544 28.1203 189.529 28.1837C189.443 28.4769 189.419 28.7836 189.456 29.0861C189.507 29.2694 189.573 29.368 189.653 29.3751L185.35 29.3821ZM191.412 24.9691H193.767C194.159 24.9691 194.37 24.9691 194.414 24.8704C194.457 24.7717 194.414 24.666 194.355 24.4404L193.825 23.1644C193.65 22.7274 193.49 22.2973 193.338 21.8814C193.185 21.4655 193.047 21.0778 192.931 20.7182C192.814 20.3587 192.72 20.0626 192.64 19.8088H192.618C192.436 20.2953 192.24 20.8028 192.037 21.3386L191.47 22.819C191.295 23.2772 191.106 23.7989 190.888 24.384C190.807 24.5204 190.771 24.6782 190.787 24.8352C190.801 24.9268 191.012 24.9691 191.419 24.9691H191.412Z" fill="white"/>
<path d="M200.722 29.3821C200.816 29.3821 200.911 29.2975 200.998 29.1142C201.103 28.8248 201.147 28.5181 201.129 28.2119V18.836C201.149 18.5331 201.099 18.2298 200.984 17.9477C200.889 17.7715 200.795 17.6728 200.7 17.6657H207.307C208.272 17.6289 209.235 17.7749 210.142 18.0958C210.787 18.331 211.328 18.7741 211.676 19.3506C212.011 19.9892 212.174 20.6999 212.148 21.4161C212.157 21.953 212.043 22.485 211.814 22.9741C211.606 23.4119 211.292 23.7942 210.898 24.0879C210.508 24.377 210.064 24.5901 209.59 24.7153V24.7717C210.235 25.0603 210.81 25.4784 211.276 25.9983C211.88 26.613 212.413 27.289 212.868 28.0145C213.088 28.4033 213.367 28.7575 213.696 29.0649C213.855 29.2258 214.056 29.3405 214.278 29.3962H209.19C209.273 29.3889 209.353 29.3611 209.421 29.3155C209.49 29.2698 209.545 29.2078 209.582 29.1354C209.684 28.9732 209.648 28.7054 209.473 28.3247C209.215 27.7369 208.867 27.1903 208.441 26.7033C208.061 26.2605 207.584 25.9043 207.046 25.6599C206.474 25.4062 205.85 25.2809 205.221 25.2934H204.996C204.749 25.2624 204.498 25.2965 204.269 25.3921C204.178 25.5406 204.143 25.7146 204.167 25.8855V28.226C204.147 28.5328 204.194 28.8404 204.305 29.1283C204.4 29.3116 204.494 29.3962 204.589 29.3962L200.722 29.3821ZM205.032 23.3124H206.69C207.334 23.3661 207.979 23.2099 208.521 22.8683C208.724 22.6846 208.88 22.4579 208.977 22.206C209.074 21.954 209.11 21.6836 209.081 21.4161C209.087 21.1364 209.019 20.8599 208.885 20.6125C208.727 20.3631 208.489 20.1702 208.209 20.0626C207.784 19.919 207.335 19.8545 206.886 19.8723H205.032C204.788 19.8546 204.543 19.8736 204.305 19.9286C204.233 19.9709 204.204 20.119 204.204 20.3798V22.7837C204.204 23.0446 204.204 23.1926 204.305 23.2419C204.541 23.3094 204.788 23.3333 205.032 23.3124Z" fill="white"/>
<path d="M214.903 29.3821C214.998 29.3821 215.092 29.2976 215.187 29.1143C215.301 28.827 215.351 28.5193 215.332 28.2119V18.836C215.352 18.5331 215.302 18.2298 215.187 17.9478C215.092 17.7715 214.998 17.6728 214.903 17.6658H218.85C218.763 17.6658 218.668 17.7574 218.574 17.9337C218.459 18.228 218.409 18.5428 218.429 18.8571V21.8462C218.429 22.1281 218.472 22.2973 218.552 22.3537C218.786 22.4283 219.034 22.4547 219.279 22.4313H219.483C219.942 22.4094 220.387 22.2734 220.776 22.0365C221.296 21.7437 221.74 21.3413 222.077 20.8592C222.499 20.2595 222.775 19.575 222.884 18.8571C222.956 18.5532 222.956 18.2376 222.884 17.9337C222.826 17.7574 222.746 17.6658 222.652 17.6658H227.791C227.569 17.7024 227.361 17.7947 227.187 17.9337C226.854 18.1884 226.573 18.5017 226.359 18.8571C226.01 19.3859 225.704 19.837 225.436 20.1966C225.167 20.5561 224.912 20.8592 224.709 21.1201C224.505 21.3809 224.214 21.6417 223.931 21.9026C223.622 22.1861 223.289 22.4432 222.935 22.671C222.686 22.8348 222.417 22.9697 222.136 23.0728V23.1362C222.503 23.215 222.861 23.3308 223.204 23.4817C223.682 23.7082 224.129 23.9925 224.534 24.3276C225.168 24.8043 225.722 25.3725 226.177 26.0125C226.599 26.6187 227.042 27.2884 227.5 28.0145C227.721 28.4008 227.997 28.7545 228.321 29.0649C228.477 29.2263 228.68 29.337 228.903 29.3821H223.815C223.894 29.3772 223.97 29.3508 224.034 29.3059C224.098 29.261 224.148 29.1995 224.178 29.1284C224.222 28.9938 224.237 28.8521 224.223 28.7117C224.21 28.5712 224.167 28.4349 224.098 28.3106C223.898 27.7596 223.635 27.2322 223.313 26.7386C223.031 26.2922 222.684 25.8884 222.281 25.5401C221.891 25.2278 221.445 24.9888 220.965 24.8352C220.48 24.669 219.968 24.5855 219.453 24.5884H219.235C218.989 24.5627 218.74 24.5941 218.509 24.6801C218.443 24.7365 218.407 24.9268 218.407 25.237V28.2049C218.388 28.5123 218.438 28.8199 218.552 29.1072C218.647 29.2905 218.741 29.3751 218.828 29.3751L214.903 29.3821Z" fill="white"/>
<path d="M229.514 29.3821C229.601 29.3821 229.695 29.2976 229.79 29.1143C229.904 28.827 229.954 28.5193 229.935 28.2119V18.836C229.955 18.5331 229.905 18.2298 229.79 17.9478C229.695 17.7715 229.601 17.6728 229.514 17.6658H241.274V18.2509L241.681 20.5138C241.106 20.3087 240.512 20.1553 239.908 20.0556C238.896 19.8784 237.869 19.7958 236.84 19.8088H233.86C233.614 19.7825 233.365 19.8139 233.133 19.9005C233.061 19.9569 233.024 20.1261 233.024 20.401V21.8462C233.024 22.1281 233.061 22.2973 233.133 22.3537C233.355 22.426 233.591 22.4524 233.824 22.4313H236.731C237.362 22.4418 237.991 22.3994 238.614 22.3044C238.937 22.265 239.251 22.1745 239.544 22.0365L239.37 22.8965C239.297 23.2279 239.246 23.5381 239.203 23.8341C239.169 24.082 239.15 24.3315 239.145 24.5814H233.824C233.592 24.5629 233.358 24.5844 233.133 24.6448C233.061 24.6942 233.024 24.8634 233.024 25.1665V26.6117C233.024 26.9078 233.024 27.084 233.119 27.1404C233.353 27.2164 233.601 27.2428 233.846 27.2179H239.29C239.929 27.2375 240.566 27.1468 241.172 26.95C241.52 26.8468 241.84 26.6712 242.11 26.4354L241.703 28.7829V29.3821H229.514Z" fill="white"/>
<path d="M247.379 29.3821C247.474 29.3821 247.568 29.2976 247.663 29.1143C247.774 28.8263 247.821 28.5188 247.801 28.2119V20.401C247.801 20.112 247.764 19.9428 247.699 19.8934C247.468 19.8076 247.218 19.7786 246.972 19.8088H245.518C244.881 19.7904 244.245 19.8738 243.636 20.0556C243.295 20.1473 242.977 20.3029 242.698 20.5138L243.098 18.2509V17.6658H255.593V18.2509L255.993 20.5138C255.714 20.3029 255.395 20.1473 255.055 20.0556C254.446 19.8738 253.81 19.7904 253.172 19.8088H251.719C251.473 19.7816 251.224 19.8106 250.992 19.8934C250.919 19.9428 250.89 20.112 250.89 20.401V28.2119C250.87 28.5188 250.917 28.8263 251.028 29.1143C251.123 29.2976 251.217 29.3821 251.312 29.3821H247.379Z" fill="white"/>
<path d="M21.0789 1.57154C18.5706 1.56943 16.0821 2.00153 13.7304 2.84751C16.427 6.72477 17.7717 10.3623 17.997 12.6323C18.0683 13.172 18.2566 13.6909 18.5494 14.155C19.6179 15.6707 20.0032 18.9417 19.9014 20.1048C19.9005 20.1176 19.8956 20.1297 19.8875 20.1398C19.8793 20.1498 19.8682 20.1572 19.8557 20.161C19.8431 20.1648 19.8296 20.1648 19.8171 20.1611C19.8045 20.1574 19.7933 20.1501 19.7851 20.1401C19.0158 19.2582 18.0683 18.5384 17.0012 18.0252C16.9919 18.0196 16.9808 18.017 16.9699 18.0179C16.9589 18.0189 16.9485 18.0233 16.9403 18.0304C16.9321 18.0376 16.9265 18.0471 16.9244 18.0576C16.9222 18.0682 16.9237 18.079 16.9285 18.0887C17.51 19.0404 18.0624 20.9085 19.1891 22.544C19.1964 22.557 19.1997 22.5719 19.1986 22.5867C19.1974 22.6015 19.192 22.6157 19.1828 22.6275C19.1736 22.6394 19.1611 22.6485 19.1467 22.6537C19.1324 22.6589 19.1168 22.6599 19.1019 22.6568C18.2431 22.381 17.4855 21.8692 16.9213 21.1834C15.8092 19.9427 14.6099 15.6143 14.2682 15.149C13.7958 14.5075 12.0222 13.3866 10.9538 12.5407C9.14256 11.0407 7.67232 9.19232 6.63621 7.1125C6.38181 7.36628 6.1056 7.62712 5.81486 7.91615C6.4763 9.53755 7.22497 11.3352 7.99544 13.2033C9.63006 14.3458 11.0719 15.7275 12.2694 17.2991C13.3627 18.9189 14.0635 20.7579 14.3191 22.6779C14.558 24.9008 14.5847 27.1403 14.3991 29.368C14.4015 29.3791 14.4016 29.3905 14.3994 29.4017C14.3972 29.4128 14.3928 29.4235 14.3864 29.433C14.38 29.4424 14.3717 29.4506 14.362 29.457C14.3523 29.4634 14.3415 29.4679 14.33 29.4702C14.3186 29.4725 14.3068 29.4726 14.2953 29.4705C14.2838 29.4684 14.2728 29.4641 14.263 29.4579C14.2532 29.4517 14.2448 29.4436 14.2382 29.4343C14.2316 29.4249 14.227 29.4143 14.2246 29.4032C12.5741 23.8535 10.4918 18.4333 7.99544 13.1892L7.13048 12.5548C6.07715 11.6962 5.08852 10.7656 4.17215 9.77018C0.892762 14.0362 -0.542435 19.3741 0.171475 24.6501C0.885385 29.926 3.69214 34.724 7.99544 38.0248C9.49135 36.5462 11.1321 35.2122 12.8945 34.0418C15.674 32.1276 19.0325 31.1675 22.4381 31.3137C22.4787 31.316 22.5176 31.3305 22.5493 31.3551C22.5811 31.3798 22.6041 31.4134 22.6153 31.4514C22.6265 31.4893 22.6252 31.5297 22.6117 31.5669C22.5982 31.6041 22.5731 31.6363 22.5399 31.6591L10.1033 39.47C13.1114 41.2506 16.5318 42.2713 20.0517 42.4388C23.5715 42.6063 27.0785 41.9152 30.2519 40.4287L30.1937 40.3441C28.2021 36.3541 28.0132 33.0267 29.1398 30.5241C29.227 30.3408 29.5759 30.3479 29.6268 31.0881C29.6268 31.0881 29.9611 35.8113 30.3536 40.3653C34.626 38.3302 38.0624 34.9527 40.1035 30.7824C42.1447 26.612 42.6705 21.8945 41.5954 17.3974C40.5202 12.9004 37.9074 8.88863 34.1822 6.0151C30.457 3.14156 25.8387 1.57541 21.0789 1.57154ZM34.4822 28.092C33.8688 28.5047 33.1225 28.6891 32.3802 28.6114C31.6379 28.5337 30.9494 28.1992 30.4409 27.669C30.432 27.6641 30.422 27.6615 30.4118 27.6615C30.4016 27.6615 30.3916 27.6641 30.3827 27.669C28.4667 28.8715 26.2162 29.4744 23.9355 29.3962C21.8006 29.2301 19.82 28.252 18.4259 26.675C18.4199 26.6712 18.415 26.6659 18.4116 26.6598C18.4081 26.6536 18.4064 26.6468 18.4064 26.6398C18.4064 26.6328 18.4081 26.6259 18.4116 26.6198C18.415 26.6136 18.4199 26.6084 18.4259 26.6045L30.121 27.4646C30.1257 27.4606 30.1294 27.4557 30.132 27.4503C30.1345 27.4448 30.1358 27.4389 30.1358 27.4329C30.1358 27.4269 30.1345 27.4209 30.132 27.4155C30.1294 27.41 30.1257 27.4051 30.121 27.4011C29.9521 27.1807 29.806 26.9445 29.6849 26.6962C29.6822 26.688 29.6818 26.6793 29.6836 26.671C29.6855 26.6626 29.6895 26.6548 29.6954 26.6484C29.7012 26.642 29.7087 26.6372 29.7171 26.6344C29.7255 26.6317 29.7344 26.6311 29.7431 26.6327L34.395 27.9933C34.4085 27.9821 34.426 27.9765 34.4437 27.9779C34.4615 27.9792 34.4779 27.9873 34.4895 28.0004C34.501 28.0134 34.5068 28.0305 34.5054 28.0476C34.504 28.0648 34.4957 28.0808 34.4822 28.092ZM37.7967 23.7424C37.6586 23.6578 37.317 23.8411 37.3678 24.1865C37.4412 24.7127 37.3467 25.2479 37.0973 25.7205C36.8478 26.193 36.4552 26.5803 35.9723 26.8301C35.3627 27.0985 34.6886 27.1985 34.0242 27.1188C33.3598 27.0392 32.731 26.7832 32.2071 26.379C32.1853 26.3598 32.1688 26.3355 32.1592 26.3085C32.1496 26.2815 32.1473 26.2525 32.1524 26.2244C32.1574 26.1962 32.1698 26.1697 32.1883 26.1475C32.2067 26.1252 32.2307 26.1078 32.258 26.097L36.6628 24.3346C36.6887 24.3215 36.7104 24.3017 36.7255 24.2775C36.7407 24.2533 36.7487 24.2255 36.7487 24.1971C36.7487 24.1688 36.7407 24.141 36.7255 24.1168C36.7104 24.0925 36.6887 24.0728 36.6628 24.0597C36.3296 23.7671 36.0473 23.4243 35.8269 23.0445C35.7165 22.9443 35.5946 22.8568 35.4635 22.7837C33.2592 21.3997 30.9729 20.1427 28.6164 19.0192C28.5992 19.0122 28.5801 19.0104 28.5618 19.0139C28.5434 19.0174 28.5265 19.0262 28.5133 19.039C28.5001 19.0518 28.491 19.0682 28.4874 19.086C28.4838 19.1038 28.4857 19.1223 28.4929 19.1391C28.5934 19.3264 28.6761 19.5223 28.74 19.7242C28.7466 19.745 28.7459 19.7674 28.738 19.7878C28.7301 19.8082 28.7155 19.8255 28.6964 19.837C27.7956 20.3185 26.7415 20.4553 25.7418 20.2204C24.7422 19.9856 23.8695 19.396 23.2958 18.568C23.2866 18.5601 23.2791 18.5503 23.274 18.5394C23.2689 18.5285 23.2663 18.5166 23.2663 18.5046C23.2663 18.4926 23.2689 18.4807 23.274 18.4698C23.2791 18.4589 23.2866 18.4491 23.2958 18.4412C23.9336 18.0518 24.6266 17.7549 25.3528 17.56C25.3701 17.553 25.3848 17.5412 25.3951 17.5262C25.4055 17.5111 25.411 17.4935 25.411 17.4754C25.411 17.4573 25.4055 17.4396 25.3951 17.4245C25.3848 17.4095 25.3701 17.3977 25.3528 17.3908C23.2958 16.3545 21.7912 15.6143 19.6615 14.7683C19.6414 14.7602 19.6247 14.7455 19.6145 14.7268C19.6042 14.7081 19.6009 14.6865 19.6052 14.6658C19.6095 14.645 19.6211 14.6263 19.638 14.6129C19.6549 14.5994 19.676 14.5921 19.6979 14.5921C21.7258 14.5921 26.872 15.297 29.1979 16.3051C31.7201 17.426 33.1521 18.9981 34.4749 19.703C35.7978 20.408 38.4799 20.838 37.9711 23.8693L37.7967 23.7424Z" fill="white"/>
</g>
<defs>
<clipPath id="clip0_1815_85135">
<rect width="256" height="40.8875" fill="white" transform="translate(0 1.57153)"/>
</clipPath>
</defs>
</svg>
