<svg width="41" height="41" viewBox="0 0 41 41" fill="none" xmlns="http://www.w3.org/2000/svg">
<g clip-path="url(#clip0_1815_78053)">
<path d="M20.8392 0.156257C18.4996 0.15423 16.1785 0.569785 13.9849 1.38338C16.5002 5.11219 17.7544 8.61049 17.9646 10.7935C18.0311 11.3126 18.2067 11.8116 18.4799 12.2579C19.4765 13.7156 19.8358 16.8613 19.7409 17.98C19.74 17.9922 19.7355 18.0039 19.7279 18.0136C19.7203 18.0232 19.7099 18.0303 19.6982 18.034C19.6865 18.0376 19.674 18.0377 19.6622 18.0341C19.6505 18.0305 19.6401 18.0235 19.6324 18.0139C18.9148 17.1657 18.0311 16.4735 17.0358 15.98C17.0271 15.9745 17.0168 15.9721 17.0065 15.973C16.9963 15.9739 16.9866 15.9781 16.9789 15.985C16.9713 15.9919 16.9661 16.0011 16.9641 16.0112C16.9621 16.0213 16.9635 16.0317 16.968 16.041C17.5104 16.9563 18.0256 18.7529 19.0765 20.3257C19.0833 20.3383 19.0864 20.3525 19.0853 20.3668C19.0843 20.381 19.0792 20.3947 19.0706 20.4061C19.062 20.4175 19.0504 20.4262 19.037 20.4312C19.0236 20.4362 19.0091 20.4372 18.9951 20.4342C18.1941 20.169 17.4875 19.6767 16.9612 19.0173C15.9239 17.824 14.8053 13.6613 14.4866 13.2139C14.046 12.5969 12.3917 11.519 11.3951 10.7054C9.70575 9.26292 8.33442 7.48526 7.368 5.48507C7.13071 5.72914 6.87308 5.97998 6.6019 6.25795C7.21885 7.81727 7.91715 9.54609 8.6358 11.3427C10.1605 12.4415 11.5053 13.7703 12.6222 15.2817C13.6421 16.8394 14.2957 18.608 14.5341 20.4546C14.7569 22.5923 14.7819 24.7461 14.6087 26.8885C14.6109 26.8991 14.611 26.9102 14.609 26.9209C14.6069 26.9316 14.6028 26.9418 14.5968 26.9509C14.5909 26.9601 14.5831 26.9679 14.5741 26.9741C14.5651 26.9802 14.555 26.9845 14.5443 26.9868C14.5336 26.989 14.5226 26.9891 14.5118 26.9871C14.5011 26.985 14.4909 26.9809 14.4818 26.9749C14.4726 26.9689 14.4648 26.9612 14.4586 26.9522C14.4525 26.9432 14.4482 26.933 14.446 26.9224C12.9065 21.5851 10.9642 16.3724 8.6358 11.3291L7.82902 10.719C6.84654 9.89327 5.92441 8.99833 5.06969 8.041C2.01089 12.1436 0.672238 17.2773 1.33813 22.3512C2.00401 27.4251 4.62197 32.0394 8.6358 35.2139C10.0311 33.7918 11.5615 32.5089 13.2053 31.3834C15.7978 29.5425 18.9304 28.6191 22.107 28.7596C22.1449 28.7619 22.1811 28.7758 22.2107 28.7995C22.2403 28.8233 22.2618 28.8556 22.2722 28.8921C22.2827 28.9286 22.2815 28.9674 22.2689 29.0032C22.2563 29.039 22.2329 29.0699 22.2019 29.0918L10.6019 36.6037C13.4076 38.3161 16.598 39.2978 19.881 39.4588C23.1641 39.6199 26.4352 38.9553 29.3951 37.5257L29.3409 37.4444C27.4833 33.6071 27.307 30.4071 28.3578 28.0003C28.4392 27.824 28.7646 27.8308 28.8121 28.5427C28.8121 28.5427 29.1239 33.0851 29.49 37.4647C33.475 35.5076 36.6802 32.2593 38.5841 28.2487C40.488 24.238 40.9784 19.7011 39.9756 15.3762C38.9728 11.0514 36.5357 7.1932 33.0611 4.42968C29.5865 1.66617 25.2788 0.159979 20.8392 0.156257ZM33.3409 25.6613C32.7687 26.0582 32.0726 26.2356 31.3803 26.1609C30.6879 26.0862 30.0457 25.7644 29.5714 25.2546C29.5631 25.2498 29.5538 25.2473 29.5443 25.2473C29.5347 25.2473 29.5254 25.2498 29.5172 25.2546C27.73 26.411 25.6309 26.9908 23.5036 26.9156C21.5123 26.7559 19.665 25.8152 18.3646 24.2986C18.359 24.2949 18.3544 24.2899 18.3513 24.284C18.3481 24.278 18.3464 24.2714 18.3464 24.2647C18.3464 24.258 18.3481 24.2514 18.3513 24.2455C18.3544 24.2396 18.359 24.2345 18.3646 24.2308L29.2731 25.0579C29.2774 25.0541 29.2809 25.0494 29.2833 25.0442C29.2856 25.0389 29.2869 25.0332 29.2869 25.0274C29.2869 25.0217 29.2856 25.016 29.2833 25.0107C29.2809 25.0054 29.2774 25.0007 29.2731 24.9969C29.1155 24.7849 28.9793 24.5578 28.8663 24.319C28.8638 24.3111 28.8634 24.3028 28.8651 24.2947C28.8668 24.2866 28.8706 24.2792 28.876 24.273C28.8815 24.2669 28.8885 24.2622 28.8963 24.2596C28.9041 24.2569 28.9125 24.2564 28.9205 24.2579L33.2595 25.5664C33.2721 25.5556 33.2885 25.5503 33.305 25.5516C33.3215 25.5528 33.3369 25.5606 33.3477 25.5732C33.3584 25.5858 33.3638 25.6021 33.3625 25.6187C33.3613 25.6352 33.3535 25.6505 33.3409 25.6613ZM36.4324 21.4783C36.3036 21.3969 35.9849 21.5732 36.0324 21.9054C36.1008 22.4114 36.0127 22.9262 35.78 23.3806C35.5474 23.8351 35.1812 24.2075 34.7307 24.4478C34.1622 24.7059 33.5334 24.802 32.9137 24.7254C32.294 24.6489 31.7075 24.4026 31.2188 24.0139C31.1985 23.9954 31.1831 23.9721 31.1742 23.9461C31.1652 23.9201 31.163 23.8923 31.1678 23.8652C31.1725 23.8381 31.184 23.8127 31.2013 23.7913C31.2185 23.7698 31.2409 23.7531 31.2663 23.7427L35.3748 22.0478C35.3989 22.0352 35.4192 22.0162 35.4333 21.9929C35.4474 21.9696 35.4549 21.9428 35.4549 21.9156C35.4549 21.8883 35.4474 21.8616 35.4333 21.8383C35.4192 21.815 35.3989 21.796 35.3748 21.7834C35.064 21.5021 34.8007 21.1724 34.5951 20.8071C34.4922 20.7107 34.3784 20.6265 34.2561 20.5563C32.2002 19.2253 30.0677 18.0164 27.8697 16.9359C27.8536 16.9292 27.8358 16.9274 27.8187 16.9308C27.8016 16.9342 27.7858 16.9426 27.7735 16.955C27.7611 16.9673 27.7527 16.983 27.7493 17.0002C27.7459 17.0173 27.7477 17.035 27.7544 17.0512C27.8482 17.2314 27.9253 17.4197 27.9849 17.6139C27.9911 17.6339 27.9904 17.6554 27.9831 17.675C27.9757 17.6947 27.9621 17.7113 27.9443 17.7224C27.1041 18.1855 26.1209 18.317 25.1885 18.0912C24.2561 17.8653 23.4421 17.2983 22.907 16.502C22.8983 16.4944 22.8914 16.485 22.8866 16.4745C22.8819 16.464 22.8794 16.4525 22.8794 16.441C22.8794 16.4295 22.8819 16.418 22.8866 16.4075C22.8914 16.397 22.8983 16.3876 22.907 16.38C23.5018 16.0055 24.1482 15.72 24.8256 15.5325C24.8417 15.5258 24.8554 15.5145 24.8651 15.5001C24.8747 15.4856 24.8799 15.4686 24.8799 15.4512C24.8799 15.4338 24.8747 15.4168 24.8651 15.4023C24.8554 15.3878 24.8417 15.3765 24.8256 15.3698C22.907 14.3732 21.5036 13.6613 19.5172 12.8478C19.4983 12.8399 19.4828 12.8258 19.4733 12.8078C19.4637 12.7899 19.4606 12.7691 19.4646 12.7491C19.4686 12.7292 19.4794 12.7112 19.4952 12.6983C19.5109 12.6853 19.5307 12.6783 19.551 12.6783C21.4426 12.6783 26.2426 13.3563 28.4121 14.3257C30.7646 15.4037 32.1002 16.9156 33.3341 17.5935C34.568 18.2715 37.0697 18.6851 36.5951 21.6003L36.4324 21.4783Z" fill="#E21B25"/>
</g>
<defs>
<clipPath id="clip0_1815_78053">
<rect width="40" height="40" fill="white" transform="translate(0.5 0.15625)"/>
</clipPath>
</defs>
</svg>
