<svg width="242" height="45" viewBox="0 0 242 45" fill="none" xmlns="http://www.w3.org/2000/svg">
<g clip-path="url(#clip0_1815_77876)">
<path d="M47.1154 29.72C47.2323 29.72 47.3422 29.6072 47.4453 29.3745C47.5711 29.0108 47.6248 28.6249 47.6033 28.2396V16.361C47.6189 15.9752 47.5533 15.5905 47.4109 15.2331C47.301 15.0075 47.1842 14.8947 47.0742 14.8736H55.0035C56.1561 14.8295 57.3063 15.0138 58.3909 15.4164C59.1639 15.717 59.812 16.2823 60.2255 17.0167C60.6288 17.8222 60.8251 18.7199 60.7958 19.625C60.8057 20.3073 60.6697 20.9834 60.3973 21.6059C60.1492 22.1613 59.7716 22.6456 59.2979 23.0158C58.8267 23.3829 58.2897 23.6512 57.7175 23.8054V23.8829C58.5047 24.2397 59.2078 24.7663 59.7789 25.4268C60.4913 26.213 61.1222 27.0729 61.6616 27.9928C61.9362 28.4786 62.2788 28.9204 62.6785 29.304C62.8679 29.5022 63.1049 29.6457 63.3656 29.72H57.2984C57.3973 29.7101 57.4922 29.6745 57.5739 29.6165C57.6557 29.5585 57.7217 29.4801 57.7656 29.3886C57.8893 29.1842 57.8412 28.8388 57.6351 28.3594C57.3258 27.6172 56.9113 26.9259 56.4052 26.308C55.9438 25.7497 55.3724 25.298 54.7286 24.9827C54.0419 24.6672 53.2959 24.5108 52.5436 24.5244H52.2825C51.9858 24.4854 51.6843 24.5293 51.4099 24.6513C51.3052 24.8392 51.2642 25.0573 51.2931 25.2717V28.2396C51.2655 28.635 51.3217 29.0318 51.458 29.4027C51.5748 29.6354 51.6847 29.7482 51.7947 29.7482L47.1154 29.72ZM52.2825 22.0289H54.282C55.0545 22.0938 55.8265 21.8983 56.4807 21.472C56.7248 21.2382 56.9137 20.9502 57.0327 20.6301C57.1518 20.31 57.198 19.9662 57.1679 19.625C57.1717 19.2713 57.089 18.9223 56.9274 18.6099C56.745 18.2855 56.4584 18.0363 56.1166 17.9049C55.6123 17.7199 55.0782 17.6362 54.5431 17.6582H52.2825C51.9898 17.6337 51.6952 17.6575 51.4099 17.7287C51.3274 17.778 51.2931 17.9683 51.2931 18.2997V21.3451C51.2931 21.6764 51.2931 21.8668 51.4099 21.9231C51.6908 22.0187 51.9877 22.0546 52.2825 22.0289Z" fill="white"/>
<path d="M63.8467 29.7203C63.936 29.7203 64.0253 29.6357 64.1147 29.4524C64.2163 29.1635 64.2607 28.8568 64.2452 28.5501V19.1741C64.2617 18.872 64.2173 18.5696 64.1147 18.2859C64.0253 18.1096 63.936 18.011 63.8467 18.0039H74.9641V18.589L75.3489 20.8519C74.8049 20.6468 74.2437 20.4934 73.6723 20.3937C72.718 20.2168 71.7493 20.1342 70.7796 20.147H67.9556C67.7227 20.1207 67.4871 20.1521 67.2685 20.2386C67.1998 20.295 67.1654 20.4642 67.1654 20.7391V22.1843C67.1654 22.4663 67.1998 22.6355 67.2685 22.6919C67.4893 22.7685 67.7238 22.795 67.9556 22.7694H70.704C71.2997 22.78 71.8951 22.7375 72.4836 22.6425C72.791 22.6017 73.0902 22.5113 73.37 22.3746C73.3151 22.6284 73.2601 22.9104 73.1982 23.2347C73.1364 23.559 73.0814 23.8762 73.0471 24.1723C73.0102 24.4197 72.9895 24.6693 72.9852 24.9195H67.9419C67.711 24.8972 67.478 24.9187 67.2547 24.983C67.186 25.0323 67.1517 25.2015 67.1517 25.5046V26.9498C67.1517 27.2459 67.1517 27.4221 67.2479 27.4785C67.4685 27.5561 67.7032 27.5826 67.935 27.5561H73.0746C73.6923 27.5808 74.3093 27.49 74.8954 27.2882C75.2255 27.1887 75.5288 27.0127 75.7818 26.7736L75.397 29.1211V29.7203H63.8467Z" fill="white"/>
<path d="M77.0801 29.7194C77.1694 29.7194 77.2587 29.6348 77.3481 29.4515C77.4532 29.1635 77.4976 28.856 77.4786 28.5492V19.1732C77.4976 18.871 77.4531 18.5681 77.3481 18.285C77.2587 18.1088 77.1694 18.0101 77.0801 18.003H83.0579C84.0074 17.9798 84.9554 18.0913 85.8751 18.3343C86.5433 18.508 87.1699 18.8199 87.7165 19.2508C88.1566 19.6165 88.517 20.0728 88.7747 20.5902C89.0149 21.0923 89.1771 21.6299 89.2556 22.1834C89.3386 22.7457 89.3799 23.3136 89.3793 23.8823C89.378 24.4206 89.3367 24.9579 89.2556 25.4896C89.1746 26.0421 89.0076 26.5777 88.7609 27.0758C88.499 27.5944 88.1366 28.0526 87.6959 28.4223C87.1628 28.8686 86.5486 29.2017 85.8888 29.4022C84.973 29.6545 84.0266 29.7708 83.0785 29.7476L77.0801 29.7194ZM81.2027 27.5552H81.9792C82.8645 27.5767 83.7489 27.482 84.6108 27.2732C85.2065 27.1286 85.724 26.7519 86.0537 26.2228C86.4011 25.5444 86.5603 24.7812 86.5141 24.0163V23.6638C86.5642 22.8875 86.4199 22.1109 86.095 21.408C85.9403 21.1538 85.7347 20.9362 85.4918 20.7697C85.249 20.6032 84.9745 20.4916 84.6864 20.4422C83.7947 20.2654 82.8871 20.1874 81.9792 20.2095H81.2027C80.9718 20.1872 80.7389 20.2087 80.5156 20.273C80.4469 20.3223 80.4126 20.4845 80.4126 20.7523V26.9701C80.4126 27.252 80.4469 27.4212 80.5156 27.4776C80.7278 27.5503 80.9525 27.5767 81.1752 27.5552H81.2027Z" fill="white"/>
<path d="M90.8154 29.7214C90.9254 29.7214 91.0422 29.6086 91.1521 29.376C91.2874 29.0145 91.346 28.6275 91.3239 28.241V16.3625C91.3461 15.9782 91.2875 15.5935 91.1521 15.2345C91.0422 15.0089 90.9254 14.8961 90.8154 14.875H95.5427C95.4328 14.875 95.316 14.9948 95.2061 15.2204C95.0672 15.5908 95.0086 15.9877 95.0343 16.3836V20.1692C95.0343 20.5358 95.0824 20.7473 95.1717 20.8178C95.4458 20.9116 95.7361 20.9452 96.0237 20.9165H102.208C102.493 20.9465 102.78 20.9153 103.053 20.8248C103.135 20.7684 103.177 20.5499 103.177 20.1692V16.3625C103.202 15.978 103.144 15.5926 103.005 15.2345C102.895 15.0089 102.778 14.8961 102.668 14.875H107.395C107.285 14.875 107.169 14.9948 107.059 15.2204C106.922 15.5915 106.864 15.9878 106.887 16.3836V28.241C106.865 28.6275 106.923 29.0145 107.059 29.376C107.169 29.6086 107.285 29.7214 107.395 29.7214H102.668C102.778 29.7214 102.895 29.6086 103.005 29.376C103.144 29.0154 103.202 28.6277 103.177 28.241V24.3778C103.177 23.9971 103.128 23.7786 103.039 23.7222C102.77 23.6409 102.488 23.6122 102.208 23.6376H96.0237C95.7361 23.6089 95.4458 23.6425 95.1717 23.7363C95.0824 23.7997 95.0343 24.0183 95.0343 24.3778V28.241C95.0086 28.6277 95.0673 29.0154 95.2061 29.376C95.316 29.6086 95.4328 29.7214 95.5427 29.7214H90.8154Z" fill="white"/>
<path d="M108.096 29.7203C108.158 29.7203 108.254 29.6357 108.391 29.4524C108.578 29.162 108.734 28.8525 108.858 28.5289C108.948 28.3386 109.085 28.0002 109.284 27.5279L109.972 25.8642C110.233 25.2368 110.501 24.5741 110.789 23.8832C111.078 23.1924 111.346 22.5297 111.607 21.8882C111.868 21.2467 112.095 20.6898 112.294 20.2104C112.493 19.731 112.631 19.3786 112.706 19.1741C112.836 18.8883 112.924 18.5842 112.967 18.2718C112.967 18.0956 112.967 18.0039 112.892 18.0039H117.014C116.959 18.0039 116.939 18.0885 116.953 18.2647C117.005 18.5781 117.095 18.8836 117.221 19.1741C117.296 19.3786 117.434 19.724 117.619 20.1963L118.306 21.86C118.56 22.4945 118.828 23.1501 119.11 23.8409L119.907 25.8289C120.161 26.4563 120.388 27.0132 120.594 27.4997C120.8 27.9861 120.945 28.3245 121.034 28.5289C121.164 28.8671 121.35 29.1796 121.584 29.4524C121.762 29.6357 121.893 29.7203 121.982 29.7203H117.66C117.763 29.7203 117.846 29.6075 117.914 29.4172C117.992 29.1264 117.992 28.8197 117.914 28.5289C117.914 28.4443 117.914 28.3668 117.873 28.3033C117.856 28.2142 117.83 28.1269 117.798 28.0425C117.769 27.8911 117.71 27.7472 117.626 27.6195C117.587 27.5749 117.539 27.5393 117.486 27.515C117.433 27.4907 117.375 27.4782 117.317 27.4785C117.166 27.4785 116.932 27.4785 116.63 27.4785H113.352C113.098 27.4642 112.843 27.4642 112.589 27.4785C112.461 27.4841 112.339 27.5366 112.246 27.6266C112.169 27.7431 112.117 27.8753 112.095 28.0143C112.095 28.0848 112.095 28.1694 112.047 28.2681C111.998 28.3668 112.047 28.4584 111.998 28.5219C111.915 28.8145 111.894 29.1224 111.937 29.4242C111.978 29.6075 112.04 29.7062 112.115 29.7132L108.096 29.7203ZM113.826 25.3073H116.052C116.423 25.3073 116.63 25.3073 116.664 25.2086C116.698 25.1099 116.664 25.0041 116.609 24.7785C116.444 24.3626 116.279 23.9396 116.114 23.5026C115.949 23.0655 115.791 22.6355 115.647 22.2195C115.503 21.8036 115.372 21.4159 115.262 21.0564C115.152 20.6968 115.063 20.4008 114.987 20.147L114.396 21.6485C114.211 22.1772 114.032 22.6778 113.867 23.1289L113.311 24.6939C113.237 24.8316 113.203 24.9883 113.215 25.1451C113.242 25.265 113.448 25.3073 113.826 25.3073Z" fill="white"/>
<path d="M122.621 29.7218C122.71 29.7218 122.8 29.6372 122.882 29.4539C122.981 29.1644 123.023 28.8578 123.006 28.5516V19.1757C123.022 18.8735 122.978 18.5711 122.875 18.2874C122.786 18.1112 122.697 18.0125 122.607 18.0054H128.853C129.763 17.9691 130.671 18.1152 131.526 18.4355C132.135 18.6707 132.647 19.1138 132.976 19.6903C133.293 20.3288 133.447 21.0396 133.423 21.7558C133.434 22.293 133.326 22.8259 133.106 23.3138C132.916 23.7549 132.617 24.1385 132.241 24.4276C131.872 24.7167 131.452 24.9298 131.004 25.055V25.1114C131.618 25.3999 132.166 25.8179 132.612 26.338C133.178 26.9564 133.682 27.6319 134.117 28.3542C134.324 28.7448 134.591 29.0993 134.907 29.4046C135.056 29.5655 135.247 29.6802 135.456 29.7359H130.647C130.725 29.7286 130.8 29.7008 130.865 29.6551C130.93 29.6095 130.983 29.5475 131.018 29.4751C131.114 29.3129 131.079 29.045 130.915 28.6644C130.671 28.0766 130.342 27.53 129.939 27.043C129.579 26.6002 129.129 26.244 128.62 25.9996C128.079 25.7459 127.489 25.6206 126.895 25.6331H126.689C126.455 25.6028 126.218 25.6369 126.002 25.7318C125.919 25.8816 125.886 26.0544 125.906 26.2252V28.5657C125.887 28.8725 125.931 29.1801 126.036 29.468C126.125 29.6513 126.215 29.7359 126.304 29.7359L122.621 29.7218ZM126.703 23.6521H128.262C128.872 23.7058 129.481 23.5496 129.994 23.208C130.186 23.0247 130.335 22.7982 130.428 22.5463C130.521 22.2944 130.556 22.0239 130.53 21.7558C130.533 21.4755 130.467 21.199 130.337 20.9521C130.19 20.7014 129.965 20.508 129.698 20.4023C129.308 20.2725 128.898 20.2176 128.489 20.2401H126.703C126.472 20.2229 126.24 20.2419 126.015 20.2965C125.954 20.3388 125.919 20.4869 125.919 20.7477V23.1516C125.919 23.4124 125.954 23.5605 126.015 23.6098C126.24 23.6673 126.473 23.6816 126.703 23.6521Z" fill="white"/>
<path d="M136.048 29.7203C136.13 29.7203 136.22 29.6357 136.309 29.4524C136.417 29.1651 136.464 28.8575 136.446 28.5501V19.1741C136.465 18.8713 136.418 18.568 136.309 18.2859C136.22 18.1096 136.13 18.011 136.048 18.0039H147.165V18.589L147.543 20.8519C147.002 20.6456 146.443 20.4922 145.874 20.3937C144.917 20.2166 143.946 20.1339 142.974 20.147H140.171C139.938 20.1207 139.702 20.1521 139.483 20.2386C139.415 20.295 139.38 20.4642 139.38 20.7391V22.1843C139.38 22.4663 139.415 22.6355 139.483 22.6919C139.704 22.7692 139.939 22.7957 140.171 22.7694H142.919C143.517 22.7804 144.115 22.7379 144.705 22.6425C144.993 22.5906 145.271 22.4931 145.53 22.3535L145.365 23.2135C145.296 23.5449 145.248 23.855 145.207 24.1511C145.175 24.399 145.157 24.6484 145.152 24.8984H140.122C139.892 24.8756 139.659 24.8971 139.435 24.9618C139.367 25.0112 139.332 25.1804 139.332 25.4835V26.9287C139.332 27.2247 139.332 27.401 139.422 27.4574C139.643 27.5334 139.877 27.5598 140.109 27.5349H145.255C145.86 27.5622 146.465 27.4786 147.042 27.2882C147.37 27.185 147.673 27.0093 147.928 26.7736L147.543 29.1211V29.7203H136.048Z" fill="white"/>
<path d="M154.6 29.7191C154.71 29.7191 154.826 29.6063 154.936 29.3737C155.069 29.0115 155.125 28.6247 155.101 28.2387V16.3602C155.125 15.9764 155.069 15.5919 154.936 15.2322C154.826 15.0067 154.71 14.8939 154.6 14.8727H160.289C160.193 14.8727 160.151 15.0208 160.158 15.2604C160.218 15.6661 160.353 16.0562 160.557 16.4095C160.667 16.621 160.832 16.9594 161.052 17.4247C161.265 17.8829 161.519 18.4186 161.801 19.032L162.694 20.9847C163.003 21.6896 163.319 22.3946 163.642 23.0996C163.965 23.8045 164.26 24.446 164.535 25.0523L165.477 23.0573C165.806 22.3523 166.129 21.6473 166.452 20.9917C166.775 20.3361 167.078 19.6382 167.366 19.0249C167.655 18.4116 167.909 17.8617 168.115 17.3894C168.321 16.9171 168.479 16.5717 168.575 16.339C168.749 15.9781 168.872 15.5935 168.94 15.197C168.94 14.9714 168.94 14.8516 168.837 14.8516H174.526C174.416 14.8516 174.299 14.9714 174.189 15.197C174.05 15.5673 173.992 15.9642 174.017 16.3602V28.2387C173.992 28.6254 174.05 29.0131 174.189 29.3737C174.299 29.6063 174.416 29.7191 174.526 29.7191H169.867C169.984 29.7191 170.094 29.6063 170.197 29.3737C170.323 29.0099 170.377 28.624 170.355 28.2387V20.2374H170.307C170.046 20.7379 169.771 21.2808 169.482 21.8729L168.603 23.6776C168.307 24.2909 168.019 24.8831 167.751 25.4612C167.483 26.0392 167.222 26.5679 167.002 27.0473C166.782 27.5267 166.59 27.9285 166.445 28.2598C166.266 28.6074 166.148 28.9843 166.095 29.3737C166.095 29.6063 166.095 29.7261 166.205 29.7402H162.845C162.927 29.7402 162.962 29.6063 162.955 29.3737C162.902 28.9843 162.784 28.6074 162.604 28.2598C162.481 27.9638 162.302 27.5549 162.089 27.0967L161.402 25.5246C161.134 24.9536 160.859 24.3614 160.564 23.7411L159.712 21.9082L158.88 20.2374H158.805V28.2387C158.779 28.6254 158.838 29.0131 158.976 29.3737C159.086 29.6063 159.196 29.7191 159.313 29.7191H154.6Z" fill="white"/>
<path d="M175.213 29.7203C175.275 29.7203 175.371 29.6357 175.508 29.4524C175.695 29.162 175.851 28.8525 175.976 28.5289C176.065 28.3386 176.202 28.0002 176.402 27.5279L177.089 25.8642C177.35 25.2368 177.618 24.5741 177.906 23.8832L178.724 21.8882C178.985 21.2538 179.212 20.6898 179.411 20.2104C179.61 19.731 179.741 19.3786 179.817 19.1741C179.945 18.887 180.035 18.5835 180.084 18.2718C180.084 18.0956 180.085 18.0039 180.009 18.0039H184.132C184.083 18.0039 184.063 18.0885 184.077 18.2647C184.129 18.5781 184.219 18.8836 184.345 19.1741C184.42 19.3786 184.551 19.724 184.743 20.1963L185.43 21.86C185.684 22.4945 185.952 23.1501 186.227 23.8409L187.031 25.8289L187.718 27.4997L188.158 28.5289C188.292 28.8663 188.48 29.1784 188.715 29.4524C188.893 29.6357 189.024 29.7203 189.113 29.7203H184.832C184.929 29.7203 185.018 29.6075 185.087 29.4172C185.161 29.1259 185.161 28.8201 185.087 28.5289C185.087 28.4443 185.087 28.3668 185.045 28.3033C185.025 28.2151 184.999 28.128 184.97 28.0425C184.938 27.8921 184.88 27.7488 184.798 27.6195C184.758 27.574 184.71 27.5378 184.655 27.5135C184.601 27.4892 184.541 27.4772 184.482 27.4785C184.338 27.4785 184.104 27.4785 183.795 27.4785H180.517C180.263 27.4642 180.009 27.4642 179.755 27.4785C179.626 27.4822 179.504 27.535 179.411 27.6266C179.331 27.7415 179.279 27.8745 179.26 28.0143C179.26 28.0848 179.26 28.1694 179.212 28.2681C179.164 28.3668 179.178 28.4584 179.164 28.5219C179.083 28.815 179.059 29.1217 179.095 29.4242C179.143 29.6075 179.205 29.7062 179.281 29.7132L175.213 29.7203ZM180.943 25.3073H183.17C183.541 25.3073 183.74 25.3073 183.781 25.2086C183.822 25.1099 183.781 25.0041 183.726 24.7785L183.225 23.5026C183.06 23.0655 182.909 22.6355 182.764 22.2195C182.62 21.8036 182.489 21.4159 182.379 21.0564C182.27 20.6968 182.18 20.4008 182.105 20.147H182.084C181.912 20.6334 181.727 21.141 181.534 21.6767L180.998 23.1571C180.833 23.6154 180.655 24.137 180.449 24.7221C180.371 24.8585 180.338 25.0163 180.352 25.1733C180.366 25.265 180.565 25.3073 180.95 25.3073H180.943Z" fill="white"/>
<path d="M189.745 29.722C189.835 29.722 189.924 29.6374 190.006 29.4541C190.105 29.1646 190.147 28.8579 190.13 28.5517V19.1758C190.149 18.873 190.102 18.5696 189.993 18.2876C189.903 18.1113 189.814 18.0126 189.725 18.0056H195.97C196.882 17.9687 197.793 18.1148 198.65 18.4356C199.259 18.6709 199.771 19.1139 200.1 19.6904C200.417 20.329 200.571 21.0397 200.547 21.7559C200.555 22.2928 200.447 22.8249 200.231 23.3139C200.034 23.7518 199.737 24.1341 199.365 24.4277C198.996 24.7169 198.576 24.9299 198.128 25.0551V25.1115C198.738 25.4001 199.281 25.8182 199.722 26.3382C200.293 26.9529 200.797 27.6288 201.227 28.3543C201.435 28.7431 201.699 29.0973 202.01 29.4047C202.16 29.5656 202.35 29.6804 202.56 29.7361H197.75C197.828 29.7288 197.904 29.701 197.969 29.6553C198.034 29.6096 198.086 29.5476 198.121 29.4752C198.217 29.3131 198.183 29.0452 198.018 28.6645C197.774 28.0767 197.445 27.5301 197.042 27.0431C196.682 26.6004 196.232 26.2442 195.723 25.9998C195.182 25.746 194.593 25.6207 193.998 25.6332H193.785C193.552 25.6023 193.315 25.6364 193.098 25.7319C193.013 25.8805 192.979 26.0545 193.002 26.2254V28.5658C192.983 28.8727 193.028 29.1802 193.133 29.4682C193.222 29.6515 193.311 29.7361 193.401 29.7361L189.745 29.722ZM193.82 23.6523H195.386C195.996 23.706 196.605 23.5497 197.118 23.2082C197.309 23.0245 197.457 22.7978 197.549 22.5458C197.64 22.2938 197.674 22.0235 197.647 21.7559C197.653 21.4763 197.589 21.1997 197.461 20.9523C197.312 20.7029 197.088 20.51 196.822 20.4024C196.421 20.2589 195.997 20.1943 195.572 20.2121H193.82C193.589 20.1944 193.357 20.2134 193.133 20.2685C193.064 20.3108 193.036 20.4588 193.036 20.7197V23.1236C193.036 23.3844 193.036 23.5324 193.133 23.5818C193.355 23.6492 193.588 23.6731 193.82 23.6523Z" fill="white"/>
<path d="M203.15 29.7203C203.24 29.7203 203.329 29.6357 203.418 29.4524C203.526 29.1651 203.573 28.8575 203.556 28.5501V19.1741C203.574 18.8713 203.527 18.568 203.418 18.2859C203.329 18.1096 203.24 18.011 203.15 18.0039H206.881C206.799 18.0039 206.71 18.0956 206.62 18.2718C206.511 18.5661 206.464 18.8809 206.483 19.1953V22.1843C206.483 22.4663 206.524 22.6355 206.6 22.6919C206.821 22.7664 207.055 22.7928 207.287 22.7694H207.479C207.913 22.7475 208.334 22.6116 208.702 22.3746C209.193 22.0818 209.613 21.6794 209.932 21.1974C210.33 20.5976 210.591 19.9131 210.695 19.1953C210.763 18.8914 210.763 18.5757 210.695 18.2718C210.64 18.0956 210.564 18.0039 210.475 18.0039H215.333C215.123 18.0405 214.927 18.1329 214.763 18.2718C214.447 18.5265 214.182 18.8398 213.979 19.1953C213.649 19.724 213.361 20.1752 213.107 20.5347C212.852 20.8942 212.612 21.1974 212.419 21.4582C212.227 21.719 211.952 21.9799 211.684 22.2407C211.393 22.5242 211.078 22.7813 210.743 23.0091C210.507 23.1729 210.254 23.3078 209.987 23.4109V23.4744C210.335 23.5531 210.673 23.6689 210.997 23.8198C211.449 24.0464 211.872 24.3306 212.255 24.6657C212.853 25.1424 213.377 25.7106 213.807 26.3506C214.206 26.9569 214.625 27.6266 215.058 28.3527C215.267 28.7389 215.528 29.0926 215.834 29.4031C215.981 29.5644 216.173 29.6752 216.384 29.7203H211.574C211.649 29.7154 211.721 29.6889 211.782 29.6441C211.842 29.5992 211.89 29.5376 211.918 29.4665C211.959 29.3319 211.974 29.1902 211.961 29.0498C211.948 28.9093 211.907 28.773 211.842 28.6487C211.653 28.0977 211.405 27.5704 211.1 27.0767C210.834 26.6304 210.505 26.2266 210.125 25.8783C209.756 25.566 209.335 25.3269 208.881 25.1733C208.422 25.0071 207.938 24.9236 207.452 24.9266H207.246C207.013 24.9008 206.777 24.9322 206.558 25.0182C206.497 25.0746 206.462 25.265 206.462 25.5751V28.543C206.445 28.8504 206.492 29.1581 206.6 29.4454C206.689 29.6286 206.778 29.7132 206.861 29.7132L203.15 29.7203Z" fill="white"/>
<path d="M216.962 29.7203C217.044 29.7203 217.134 29.6357 217.223 29.4524C217.331 29.1651 217.378 28.8575 217.36 28.5501V19.1741C217.379 18.8713 217.332 18.568 217.223 18.2859C217.134 18.1096 217.044 18.011 216.962 18.0039H228.079V18.589L228.464 20.8519C227.92 20.6468 227.359 20.4934 226.788 20.3937C225.831 20.2166 224.86 20.1339 223.888 20.147H221.071C220.838 20.1207 220.602 20.1521 220.384 20.2386C220.315 20.295 220.281 20.4642 220.281 20.7391V22.1843C220.281 22.4663 220.315 22.6355 220.384 22.6919C220.594 22.7641 220.816 22.7906 221.036 22.7694H223.785C224.381 22.78 224.976 22.7375 225.565 22.6425C225.87 22.6031 226.167 22.5126 226.444 22.3746L226.279 23.2347C226.21 23.566 226.162 23.8762 226.121 24.1723C226.089 24.4201 226.071 24.6696 226.066 24.9195H221.036C220.817 24.901 220.596 24.9225 220.384 24.983C220.315 25.0323 220.281 25.2015 220.281 25.5046V26.9498C220.281 27.2459 220.281 27.4221 220.37 27.4785C220.591 27.5545 220.825 27.581 221.057 27.5561H226.204C226.808 27.5757 227.41 27.485 227.983 27.2882C228.312 27.185 228.614 27.0093 228.87 26.7736L228.485 29.1211V29.7203H216.962Z" fill="white"/>
<path d="M233.851 29.7203C233.94 29.7203 234.029 29.6357 234.119 29.4524C234.224 29.1644 234.268 28.8569 234.249 28.5501V20.7391C234.249 20.4501 234.215 20.2809 234.153 20.2316C233.934 20.1458 233.698 20.1167 233.466 20.147H232.092C231.489 20.1286 230.888 20.2119 230.312 20.3937C229.99 20.4854 229.689 20.6411 229.426 20.8519L229.804 18.589V18.0039H241.615V18.589L241.993 20.8519C241.73 20.6411 241.429 20.4854 241.107 20.3937C240.531 20.2119 239.929 20.1286 239.327 20.147H237.953C237.72 20.1198 237.485 20.1487 237.266 20.2316C237.197 20.2809 237.17 20.4501 237.17 20.7391V28.5501C237.15 28.8569 237.195 29.1644 237.3 29.4524C237.389 29.6357 237.479 29.7203 237.568 29.7203H233.851Z" fill="white"/>
<path d="M19.9257 1.91016C17.5546 1.90806 15.2022 2.34015 12.9791 3.18614C15.5282 7.0634 16.7994 10.701 17.0124 12.9709C17.0798 13.5106 17.2578 14.0296 17.5346 14.4936C18.5446 16.0093 18.9088 19.2803 18.8126 20.4435C18.8117 20.4562 18.8072 20.4684 18.7994 20.4784C18.7917 20.4884 18.7812 20.4958 18.7694 20.4996C18.7575 20.5034 18.7448 20.5034 18.7329 20.4997C18.721 20.496 18.7105 20.4887 18.7027 20.4787C17.9754 19.5968 17.0798 18.8771 16.071 18.3638C16.0622 18.3582 16.0518 18.3556 16.0414 18.3566C16.031 18.3575 16.0212 18.3619 16.0134 18.369C16.0057 18.3762 16.0004 18.3858 15.9984 18.3963C15.9964 18.4068 15.9978 18.4177 16.0023 18.4273C16.552 19.379 17.0742 21.2471 18.1392 22.8826C18.1462 22.8957 18.1493 22.9105 18.1482 22.9253C18.1472 22.9401 18.142 22.9543 18.1333 22.9662C18.1246 22.978 18.1128 22.9871 18.0992 22.9923C18.0857 22.9975 18.0709 22.9986 18.0568 22.9954C17.245 22.7197 16.5289 22.2078 15.9955 21.5221C14.9442 20.2813 13.8105 15.9529 13.4875 15.4876C13.0409 14.8461 11.3643 13.7252 10.3543 12.8793C8.64215 11.3794 7.25232 9.53094 6.27287 7.45112C6.03238 7.70491 5.77128 7.96574 5.49643 8.25477C6.1217 9.87617 6.82942 11.6738 7.55776 13.5419C9.10299 14.6845 10.466 16.0662 11.598 17.6377C12.6315 19.2575 13.294 21.0965 13.5356 23.0166C13.7614 25.2394 13.7867 27.479 13.6112 29.7066C13.6135 29.7177 13.6136 29.7292 13.6115 29.7403C13.6094 29.7515 13.6053 29.7621 13.5992 29.7716C13.5931 29.7811 13.5853 29.7892 13.5762 29.7956C13.567 29.802 13.5567 29.8065 13.5459 29.8088C13.5351 29.8111 13.5239 29.8112 13.5131 29.8091C13.5022 29.807 13.4918 29.8027 13.4826 29.7965C13.4733 29.7903 13.4654 29.7823 13.4591 29.7729C13.4529 29.7635 13.4485 29.753 13.4463 29.7418C11.8861 24.1921 9.91757 18.7719 7.55776 13.5278L6.7401 12.8934C5.74438 12.0348 4.80981 11.1042 3.94356 10.1088C0.843512 14.3748 -0.513198 19.7128 0.16167 24.9887C0.836538 30.2646 3.4898 35.0626 7.55776 38.3635C8.97187 36.8848 10.5229 35.5508 12.1889 34.3805C14.8164 32.4663 17.9912 31.5062 21.2106 31.6523C21.249 31.6546 21.2857 31.6691 21.3157 31.6938C21.3458 31.7184 21.3675 31.7521 21.3781 31.79C21.3887 31.8279 21.3875 31.8683 21.3747 31.9055C21.3619 31.9427 21.3382 31.9749 21.3068 31.9977L9.55038 39.8086C12.394 41.5892 15.6273 42.6099 18.9547 42.7774C22.282 42.9449 25.5972 42.2538 28.5971 40.7674L28.5421 40.6828C26.6594 36.6927 26.4808 33.3653 27.5458 30.8627C27.6282 30.6794 27.958 30.6865 28.0061 31.4267C28.0061 31.4267 28.3222 36.1499 28.6933 40.7039C32.7319 38.6689 35.9804 35.2913 37.91 31.121C39.8395 26.9507 40.3366 22.2331 39.3202 17.736C38.3039 13.239 35.834 9.22726 32.3125 6.35372C28.791 3.48018 24.4252 1.91403 19.9257 1.91016ZM32.596 28.4306C32.0161 28.8433 31.3107 29.0277 30.609 28.9501C29.9073 28.8724 29.2564 28.5378 28.7757 28.0077C28.7673 28.0027 28.7579 28.0001 28.7482 28.0001C28.7386 28.0001 28.7291 28.0027 28.7207 28.0077C26.9095 29.2101 24.7821 29.813 22.6261 29.7348C20.6079 29.5688 18.7357 28.5906 17.4178 27.0137C17.4121 27.0098 17.4075 27.0046 17.4042 26.9984C17.401 26.9923 17.3993 26.9854 17.3993 26.9784C17.3993 26.9714 17.401 26.9646 17.4042 26.9584C17.4075 26.9523 17.4121 26.947 17.4178 26.9432L28.4734 27.8032C28.4778 27.7992 28.4813 27.7944 28.4837 27.7889C28.4861 27.7834 28.4873 27.7775 28.4873 27.7715C28.4873 27.7655 28.4861 27.7596 28.4837 27.7541C28.4813 27.7486 28.4778 27.7437 28.4734 27.7398C28.3137 27.5193 28.1756 27.2831 28.0611 27.0348C28.0586 27.0267 28.0582 27.018 28.0599 27.0096C28.0616 27.0012 28.0654 26.9934 28.071 26.987C28.0765 26.9806 28.0836 26.9758 28.0915 26.9731C28.0994 26.9703 28.1079 26.9697 28.1161 26.9714L32.5136 28.3319C32.5263 28.3207 32.5429 28.3152 32.5597 28.3165C32.5764 28.3178 32.592 28.3259 32.6029 28.339C32.6138 28.3521 32.6193 28.3691 32.618 28.3863C32.6167 28.4035 32.6088 28.4194 32.596 28.4306ZM35.7293 24.081C35.5987 23.9965 35.2758 24.1797 35.3239 24.5252C35.3932 25.0513 35.3039 25.5866 35.0681 26.0591C34.8323 26.5317 34.4612 26.9189 34.0046 27.1688C33.4284 27.4372 32.7911 27.5371 32.1631 27.4575C31.535 27.3778 30.9406 27.1218 30.4454 26.7176C30.4247 26.6984 30.4091 26.6742 30.4001 26.6471C30.391 26.6201 30.3888 26.5911 30.3936 26.563C30.3984 26.5348 30.4101 26.5084 30.4276 26.4861C30.445 26.4638 30.4677 26.4464 30.4935 26.4356L34.6574 24.6732C34.6818 24.6601 34.7024 24.6403 34.7167 24.6161C34.731 24.5919 34.7385 24.5641 34.7385 24.5357C34.7385 24.5074 34.731 24.4796 34.7167 24.4554C34.7024 24.4311 34.6818 24.4114 34.6574 24.3983C34.3424 24.1058 34.0756 23.763 33.8672 23.3831C33.7628 23.2829 33.6476 23.1954 33.5236 23.1223C31.4399 21.7383 29.2787 20.4813 27.0511 19.3578C27.0347 19.3509 27.0167 19.349 26.9994 19.3525C26.982 19.3561 26.9661 19.3648 26.9535 19.3776C26.941 19.3905 26.9325 19.4068 26.9291 19.4246C26.9256 19.4425 26.9274 19.4609 26.9343 19.4777C27.0293 19.665 27.1075 19.8609 27.1679 20.0628C27.1741 20.0836 27.1734 20.106 27.166 20.1264C27.1585 20.1468 27.1447 20.1641 27.1266 20.1756C26.2751 20.6571 25.2786 20.7939 24.3337 20.5591C23.3887 20.3242 22.5637 19.7347 22.0214 18.9067C22.0126 18.8987 22.0056 18.889 22.0008 18.878C21.996 18.8671 21.9935 18.8552 21.9935 18.8432C21.9935 18.8312 21.996 18.8194 22.0008 18.8084C22.0056 18.7975 22.0126 18.7877 22.0214 18.7798C22.6243 18.3904 23.2794 18.0935 23.9659 17.8986C23.9822 17.8916 23.9961 17.8799 24.0059 17.8648C24.0157 17.8498 24.0209 17.8321 24.0209 17.814C24.0209 17.7959 24.0157 17.7782 24.0059 17.7631C23.9961 17.7481 23.9822 17.7363 23.9659 17.7294C22.0214 16.6931 20.5991 15.9529 18.5859 15.1069C18.5668 15.0988 18.5511 15.0841 18.5414 15.0654C18.5317 15.0467 18.5286 15.0252 18.5326 15.0044C18.5367 14.9836 18.5476 14.9649 18.5636 14.9515C18.5796 14.9381 18.5996 14.9307 18.6202 14.9307C20.5373 14.9307 25.402 15.6357 27.6007 16.6438C29.985 17.7646 31.3386 19.3367 32.5892 20.0416C33.8397 20.7466 36.3751 21.1766 35.8942 24.2079L35.7293 24.081Z" fill="white"/>
</g>
<defs>
<clipPath id="clip0_1815_77876">
<rect width="242" height="40.8875" fill="white" transform="translate(0 1.91016)"/>
</clipPath>
</defs>
</svg>
