<svg width="297" height="52" viewBox="0 0 297 52" fill="none" xmlns="http://www.w3.org/2000/svg">
<g clip-path="url(#clip0_1812_99333)">
<path d="M57.8231 34.7242C57.9664 34.7242 58.1013 34.5909 58.2278 34.316C58.3823 33.8861 58.4482 33.43 58.4218 32.9746V18.9364C58.441 18.4804 58.3604 18.0258 58.1857 17.6034C58.0507 17.3368 57.9074 17.2035 57.7725 17.1785H67.5038C68.9184 17.1263 70.33 17.3441 71.6611 17.82C72.6098 18.1752 73.4052 18.8433 73.9127 19.7112C74.4076 20.6631 74.6485 21.7241 74.6126 22.7938C74.6247 23.6001 74.4578 24.3992 74.1235 25.1349C73.819 25.7913 73.3556 26.3635 72.7742 26.8011C72.196 27.2349 71.5369 27.5519 70.8347 27.7342V27.8259C71.8008 28.2475 72.6637 28.8698 73.3645 29.6504C74.2389 30.5796 75.0132 31.5959 75.6751 32.683C76.0121 33.2571 76.4326 33.7792 76.9231 34.2326C77.1556 34.4669 77.4465 34.6364 77.7664 34.7242H70.3203C70.4417 34.7125 70.5581 34.6704 70.6585 34.6019C70.7588 34.5334 70.8398 34.4407 70.8938 34.3326C71.0455 34.091 70.9865 33.6828 70.7335 33.1162C70.3539 32.2391 69.8453 31.4222 69.2241 30.6918C68.6579 30.032 67.9566 29.4982 67.1665 29.1255C66.3237 28.7528 65.4082 28.5679 64.4849 28.584H64.1644C63.8003 28.5379 63.4303 28.5897 63.0935 28.734C62.9651 28.956 62.9147 29.2138 62.9501 29.4671V32.9746C62.9162 33.4419 62.9853 33.9109 63.1525 34.3493C63.2959 34.6242 63.4308 34.7575 63.5657 34.7575L57.8231 34.7242ZM64.1644 25.6347H66.6184C67.5664 25.7115 68.5139 25.4804 69.3168 24.9766C69.6164 24.7002 69.8481 24.3599 69.9943 23.9816C70.1404 23.6033 70.1971 23.197 70.1601 22.7938C70.1648 22.3758 70.0633 21.9633 69.865 21.5941C69.6411 21.2107 69.2894 20.9162 68.8699 20.7609C68.2511 20.5423 67.5955 20.4433 66.9388 20.4693H64.1644C63.8053 20.4404 63.4437 20.4685 63.0935 20.5526C62.9923 20.611 62.9501 20.8359 62.9501 21.2275V24.8266C62.9501 25.2182 62.9501 25.4431 63.0935 25.5098C63.4382 25.6226 63.8026 25.6652 64.1644 25.6347Z" fill="currentColor"/>
<path d="M78.3564 34.7246C78.4661 34.7246 78.5757 34.6246 78.6853 34.408C78.8101 34.0666 78.8646 33.704 78.8455 33.3416V22.2609C78.8658 21.9038 78.8113 21.5465 78.6853 21.2112C78.5757 21.0029 78.4661 20.8863 78.3564 20.8779H92.0006V21.5694L92.4728 24.2438C91.8052 24.0013 91.1164 23.8201 90.4152 23.7022C89.244 23.4932 88.0552 23.3956 86.865 23.4106H83.3992C83.1134 23.3795 82.8242 23.4167 82.5559 23.519C82.4716 23.5856 82.4294 23.7856 82.4294 24.1105V25.8184C82.4294 26.1516 82.4716 26.3516 82.5559 26.4182C82.827 26.5088 83.1147 26.5401 83.3992 26.5099H86.7723C87.5033 26.5224 88.2341 26.4722 88.9564 26.3599C89.3336 26.3117 89.7007 26.2048 90.0442 26.0433C89.9767 26.3433 89.9093 26.6765 89.8334 27.0598C89.7575 27.443 89.69 27.8179 89.6478 28.1678C89.6025 28.4602 89.5772 28.7552 89.5719 29.0509H83.3823C83.099 29.0246 82.8131 29.05 82.5391 29.1259C82.4547 29.1842 82.4126 29.3842 82.4126 29.7424V31.4504C82.4126 31.8003 82.4126 32.0086 82.5306 32.0752C82.8014 32.1669 83.0894 32.1982 83.3739 32.1669H89.6816C90.4397 32.1961 91.1969 32.0888 91.9162 31.8503C92.3213 31.7327 92.6935 31.5246 93.0041 31.2421L92.5318 34.0164V34.7246H78.3564Z" fill="currentColor"/>
<path d="M94.5977 34.7242C94.7073 34.7242 94.8169 34.6242 94.9265 34.4076C95.0555 34.0673 95.1101 33.7039 95.0868 33.3412V22.2606C95.11 21.9034 95.0554 21.5454 94.9265 21.2108C94.8169 21.0026 94.7073 20.8859 94.5977 20.8776H101.934C103.099 20.8501 104.263 20.9819 105.392 21.2692C106.212 21.4744 106.981 21.843 107.651 22.3522C108.192 22.7845 108.634 23.3237 108.95 23.9352C109.245 24.5286 109.444 25.1639 109.54 25.818C109.642 26.4826 109.693 27.1538 109.692 27.8259C109.691 28.462 109.64 29.097 109.54 29.7254C109.441 30.3784 109.236 31.0113 108.933 31.6C108.612 32.2128 108.167 32.7543 107.626 33.1912C106.972 33.7188 106.218 34.1124 105.408 34.3493C104.284 34.6475 103.123 34.785 101.959 34.7575L94.5977 34.7242ZM99.6573 32.1665H100.61C101.697 32.192 102.782 32.08 103.84 31.8332C104.571 31.6624 105.206 31.2172 105.611 30.5919C106.037 29.7901 106.233 28.8881 106.176 27.9842V27.5676C106.237 26.6501 106.06 25.7324 105.661 24.9016C105.472 24.6012 105.219 24.3441 104.921 24.1473C104.623 23.9506 104.286 23.8186 103.933 23.7602C102.838 23.5513 101.724 23.4591 100.61 23.4853H99.6573C99.3739 23.4589 99.0881 23.4844 98.814 23.5603C98.7297 23.6186 98.6875 23.8102 98.6875 24.1268V31.475C98.6875 31.8083 98.7297 32.0082 98.814 32.0749C99.0745 32.1607 99.3502 32.1919 99.6235 32.1665H99.6573Z" fill="currentColor"/>
<path d="M111.455 34.7244C111.59 34.7244 111.733 34.5911 111.868 34.3162C112.034 33.889 112.106 33.4317 112.079 32.9749V18.9366C112.106 18.4825 112.034 18.0279 111.868 17.6036C111.733 17.337 111.59 17.2037 111.455 17.1787H117.257C117.122 17.1787 116.979 17.3203 116.844 17.5869C116.673 18.0246 116.601 18.4937 116.633 18.9616V23.4355C116.633 23.8687 116.692 24.1187 116.801 24.202C117.138 24.3129 117.494 24.3526 117.847 24.3186H125.437C125.786 24.3541 126.139 24.3172 126.474 24.2103C126.575 24.1437 126.626 23.8854 126.626 23.4355V18.9366C126.657 18.4823 126.585 18.0267 126.415 17.6036C126.28 17.337 126.136 17.2037 126.002 17.1787H131.803C131.668 17.1787 131.525 17.3203 131.39 17.5869C131.223 18.0254 131.151 18.4938 131.179 18.9616V32.9749C131.152 33.4317 131.224 33.889 131.39 34.3162C131.525 34.5911 131.668 34.7244 131.803 34.7244H126.002C126.136 34.7244 126.28 34.5911 126.415 34.3162C126.585 33.8901 126.657 33.4319 126.626 32.9749V28.4093C126.626 27.9594 126.566 27.7011 126.457 27.6345C126.126 27.5384 125.78 27.5045 125.437 27.5345H117.847C117.494 27.5006 117.138 27.5403 116.801 27.6512C116.692 27.7261 116.633 27.9844 116.633 28.4093V32.9749C116.601 33.4319 116.673 33.8901 116.844 34.3162C116.979 34.5911 117.122 34.7244 117.257 34.7244H111.455Z" fill="currentColor"/>
<path d="M132.663 34.7246C132.739 34.7246 132.857 34.6246 133.026 34.408C133.255 34.0648 133.447 33.699 133.599 33.3166C133.709 33.0916 133.877 32.6917 134.122 32.1335L134.965 30.1673C135.286 29.4258 135.615 28.6427 135.969 27.8262C136.323 27.0098 136.652 26.2266 136.972 25.4685C137.293 24.7103 137.571 24.0522 137.815 23.4856C138.06 22.9191 138.229 22.5025 138.321 22.2609C138.481 21.9231 138.589 21.5637 138.642 21.1945C138.642 20.9862 138.642 20.8779 138.549 20.8779H143.609C143.541 20.8779 143.516 20.9779 143.533 21.1862C143.597 21.5566 143.707 21.9176 143.862 22.2609C143.954 22.5025 144.123 22.9108 144.351 23.469L145.194 25.4352C145.506 26.185 145.835 26.9598 146.181 27.7763L147.159 30.1257C147.471 30.8672 147.749 31.5253 148.002 32.1002C148.255 32.6751 148.432 33.075 148.542 33.3166C148.701 33.7162 148.929 34.0855 149.216 34.408C149.436 34.6246 149.596 34.7246 149.706 34.7246H144.401C144.528 34.7246 144.629 34.5913 144.713 34.3663C144.808 34.0227 144.808 33.6602 144.713 33.3166C144.713 33.2166 144.713 33.1249 144.663 33.05C144.641 32.9447 144.61 32.8415 144.57 32.7417C144.534 32.5628 144.463 32.3928 144.359 32.2418C144.312 32.1891 144.253 32.147 144.188 32.1183C144.122 32.0896 144.051 32.0749 143.98 32.0752C143.794 32.0752 143.508 32.0752 143.137 32.0752H139.114C138.802 32.0583 138.49 32.0583 138.178 32.0752C138.021 32.0818 137.871 32.1439 137.756 32.2502C137.662 32.3878 137.598 32.5442 137.571 32.7084C137.571 32.7917 137.571 32.8917 137.512 33.0083C137.453 33.1249 137.512 33.2333 137.453 33.3082C137.35 33.6541 137.324 34.0179 137.377 34.3746C137.428 34.5913 137.503 34.7079 137.596 34.7162L132.663 34.7246ZM139.696 29.5092H142.428C142.884 29.5092 143.136 29.5092 143.179 29.3925C143.221 29.2759 143.179 29.1509 143.111 28.8843C142.909 28.3928 142.706 27.8929 142.504 27.3763C142.302 26.8598 142.108 26.3516 141.931 25.8601C141.754 25.3685 141.593 24.9103 141.458 24.4854C141.323 24.0605 141.214 23.7106 141.121 23.4106L140.396 25.1852C140.168 25.8101 139.949 26.4016 139.747 26.9348L139.064 28.7843C138.973 28.947 138.932 29.1323 138.945 29.3175C138.979 29.4592 139.232 29.5092 139.696 29.5092Z" fill="currentColor"/>
<path d="M150.491 34.7241C150.6 34.7241 150.71 34.6242 150.811 34.4076C150.932 34.0654 150.984 33.703 150.963 33.3411V22.2605C150.983 21.9034 150.928 21.5461 150.803 21.2108C150.693 21.0025 150.583 20.8858 150.474 20.8775H158.139C159.255 20.8346 160.37 21.0072 161.419 21.3857C162.167 21.6638 162.795 22.1874 163.199 22.8687C163.588 23.6234 163.776 24.4633 163.747 25.3098C163.761 25.9447 163.628 26.5745 163.359 27.151C163.125 27.6724 162.759 28.1256 162.296 28.4673C161.844 28.809 161.328 29.0608 160.778 29.2088V29.2755C161.532 29.6165 162.204 30.1104 162.752 30.7251C163.447 31.4559 164.066 32.2542 164.598 33.1079C164.854 33.5695 165.181 33.9884 165.568 34.3492C165.752 34.5394 165.985 34.675 166.243 34.7408H160.34C160.436 34.7322 160.529 34.6993 160.608 34.6454C160.688 34.5914 160.752 34.5181 160.795 34.4325C160.913 34.2409 160.871 33.9243 160.669 33.4744C160.37 32.7798 159.966 32.1338 159.471 31.5582C159.03 31.035 158.477 30.614 157.852 30.3252C157.189 30.0253 156.465 29.8772 155.736 29.892H155.483C155.196 29.8562 154.905 29.8965 154.639 30.0086C154.538 30.1857 154.497 30.39 154.521 30.5918V33.3578C154.498 33.7205 154.553 34.0839 154.682 34.4242C154.791 34.6408 154.901 34.7408 155.01 34.7408L150.491 34.7241ZM155.5 27.5509H157.414C158.161 27.6144 158.909 27.4297 159.539 27.026C159.775 26.8093 159.957 26.5417 160.071 26.244C160.185 25.9463 160.228 25.6266 160.197 25.3098C160.2 24.9785 160.119 24.6518 159.96 24.36C159.779 24.0637 159.503 23.8351 159.176 23.7102C158.698 23.5568 158.194 23.4919 157.692 23.5185H155.5C155.217 23.4982 154.932 23.5206 154.656 23.5852C154.58 23.6352 154.538 23.8101 154.538 24.1184V26.9594C154.538 27.2676 154.58 27.4426 154.656 27.5009C154.932 27.5688 155.218 27.5858 155.5 27.5509Z" fill="currentColor"/>
<path d="M166.968 34.7246C167.069 34.7246 167.179 34.6246 167.288 34.408C167.421 34.0685 167.478 33.7049 167.457 33.3416V22.2609C167.48 21.903 167.422 21.5445 167.288 21.2112C167.179 21.0029 167.069 20.8863 166.968 20.8779H180.612V21.5694L181.076 24.2438C180.411 23.9999 179.725 23.8186 179.027 23.7022C177.853 23.4929 176.661 23.3952 175.468 23.4106H172.027C171.742 23.3795 171.452 23.4167 171.184 23.519C171.1 23.5856 171.058 23.7856 171.058 24.1105V25.8184C171.058 26.1516 171.1 26.3516 171.184 26.4182C171.455 26.5096 171.743 26.5409 172.027 26.5099H175.4C176.134 26.5228 176.868 26.4727 177.593 26.3599C177.946 26.2986 178.288 26.1834 178.605 26.0183L178.403 27.0348C178.318 27.4263 178.259 27.7929 178.209 28.1428C178.17 28.4358 178.147 28.7306 178.141 29.0259H171.968C171.685 28.999 171.399 29.0245 171.125 29.1009C171.041 29.1592 170.999 29.3592 170.999 29.7174V31.4254C170.999 31.7753 170.999 31.9836 171.108 32.0502C171.379 32.14 171.667 32.1713 171.952 32.1419H178.268C179.01 32.1741 179.753 32.0753 180.46 31.8503C180.863 31.7283 181.235 31.5207 181.548 31.2421L181.076 34.0164V34.7246H166.968Z" fill="currentColor"/>
<path d="M189.736 34.724C189.871 34.724 190.015 34.5907 190.15 34.3158C190.312 33.8878 190.381 33.4307 190.352 32.9745V18.9362C190.381 18.4827 190.312 18.0283 190.15 17.6032C190.015 17.3366 189.871 17.2033 189.736 17.1783H196.719C196.601 17.1783 196.55 17.3533 196.558 17.6365C196.632 18.116 196.798 18.577 197.047 18.9945C197.182 19.2445 197.385 19.6444 197.655 20.1942C197.916 20.7358 198.228 21.369 198.574 22.0938L199.67 24.4016C200.05 25.2347 200.437 26.0678 200.834 26.9009C201.23 27.7341 201.593 28.4922 201.93 29.2087L203.085 26.851C203.49 26.0178 203.886 25.1847 204.283 24.4099C204.679 23.6351 205.05 22.8103 205.404 22.0855C205.758 21.3606 206.07 20.7108 206.323 20.1526C206.576 19.5944 206.77 19.1862 206.888 18.9112C207.102 18.4846 207.252 18.0302 207.335 17.5616C207.335 17.295 207.335 17.1533 207.209 17.1533H214.191C214.056 17.1533 213.913 17.295 213.778 17.5616C213.608 17.9992 213.536 18.4683 213.567 18.9362V32.9745C213.536 33.4315 213.608 33.8897 213.778 34.3158C213.913 34.5907 214.056 34.724 214.191 34.724H208.474C208.617 34.724 208.752 34.5907 208.879 34.3158C209.033 33.8859 209.099 33.4299 209.073 32.9745V23.5184H209.013C208.693 24.11 208.356 24.7515 208.002 25.4513L206.922 27.5841C206.56 28.3089 206.205 29.0088 205.877 29.6919C205.548 30.3751 205.227 30.9999 204.957 31.5665C204.688 32.133 204.451 32.6079 204.274 32.9995C204.054 33.4102 203.909 33.8556 203.844 34.3158C203.844 34.5907 203.844 34.7324 203.979 34.749H199.856C199.957 34.749 199.999 34.5907 199.991 34.3158C199.926 33.8556 199.78 33.4102 199.56 32.9995C199.409 32.6495 199.189 32.1663 198.928 31.6248L198.085 29.7669C197.756 29.0921 197.419 28.3922 197.056 27.6591L196.01 25.493L194.99 23.5184H194.897V32.9745C194.866 33.4315 194.938 33.8897 195.108 34.3158C195.243 34.5907 195.378 34.724 195.521 34.724H189.736Z" fill="currentColor"/>
<path d="M215.034 34.7246C215.11 34.7246 215.228 34.6246 215.397 34.408C215.626 34.0648 215.818 33.699 215.97 33.3166C216.08 33.0916 216.248 32.6917 216.493 32.1335L217.336 30.1673C217.657 29.4258 217.986 28.6427 218.34 27.8262L219.343 25.4685C219.664 24.7187 219.942 24.0522 220.187 23.4856C220.431 22.9191 220.591 22.5025 220.684 22.2609C220.842 21.9216 220.952 21.5629 221.013 21.1945C221.013 20.9862 221.013 20.8779 220.92 20.8779H225.98C225.921 20.8779 225.896 20.9779 225.912 21.1862C225.976 21.5566 226.087 21.9176 226.241 22.2609C226.334 22.5025 226.494 22.9108 226.73 23.469L227.574 25.4352C227.886 26.185 228.215 26.9598 228.552 27.7763L229.538 30.1257L230.382 32.1002L230.921 33.3166C231.086 33.7153 231.317 34.0841 231.604 34.408C231.824 34.6246 231.984 34.7246 232.094 34.7246H226.84C226.958 34.7246 227.068 34.5913 227.152 34.3663C227.243 34.0221 227.243 33.6607 227.152 33.3166C227.152 33.2166 227.152 33.1249 227.101 33.05C227.076 32.9457 227.045 32.8428 227.009 32.7417C226.969 32.5639 226.898 32.3946 226.798 32.2418C226.749 32.1881 226.689 32.1453 226.622 32.1166C226.555 32.0878 226.483 32.0737 226.41 32.0752C226.233 32.0752 225.946 32.0752 225.567 32.0752H221.544C221.232 32.0583 220.92 32.0583 220.608 32.0752C220.45 32.0795 220.3 32.1419 220.187 32.2502C220.088 32.386 220.025 32.5432 220.001 32.7084C220.001 32.7917 220.001 32.8917 219.942 33.0083C219.883 33.1249 219.9 33.2333 219.883 33.3082C219.784 33.6547 219.755 34.0172 219.799 34.3746C219.858 34.5913 219.934 34.7079 220.026 34.7162L215.034 34.7246ZM222.067 29.5092H224.799C225.255 29.5092 225.499 29.5092 225.55 29.3925C225.6 29.2759 225.55 29.1509 225.482 28.8843L224.867 27.3763C224.664 26.8598 224.479 26.3516 224.302 25.8601C224.125 25.3685 223.964 24.9103 223.829 24.4854C223.695 24.0605 223.585 23.7106 223.492 23.4106H223.467C223.256 23.9855 223.028 24.5854 222.792 25.2185L222.135 26.9681C221.932 27.5096 221.713 28.1262 221.46 28.8177C221.365 28.9788 221.324 29.1653 221.342 29.3509C221.359 29.4592 221.603 29.5092 222.076 29.5092H222.067Z" fill="currentColor"/>
<path d="M232.869 34.7243C232.979 34.7243 233.088 34.6243 233.189 34.4077C233.311 34.0656 233.362 33.7032 233.341 33.3413V22.2607C233.364 21.9028 233.306 21.5443 233.173 21.2109C233.063 21.0027 232.953 20.886 232.844 20.8777H240.509C241.628 20.8341 242.745 21.0067 243.798 21.3859C244.546 21.664 245.174 22.1875 245.577 22.8689C245.966 23.6235 246.155 24.4635 246.125 25.3099C246.135 25.9444 246.003 26.5732 245.737 27.1512C245.497 27.6687 245.132 28.1205 244.675 28.4675C244.222 28.8092 243.707 29.061 243.157 29.209V29.2756C243.906 29.6167 244.572 30.1108 245.113 30.7253C245.814 31.4518 246.433 32.2506 246.96 33.108C247.215 33.5675 247.539 33.9861 247.921 34.3494C248.105 34.5396 248.339 34.6752 248.596 34.741H242.693C242.789 34.7324 242.882 34.6995 242.962 34.6455C243.041 34.5916 243.106 34.5183 243.149 34.4327C243.267 34.2411 243.224 33.9245 243.022 33.4746C242.723 32.78 242.319 32.134 241.825 31.5584C241.383 31.0352 240.83 30.6142 240.206 30.3254C239.542 30.0255 238.818 29.8774 238.089 29.8922H237.827C237.541 29.8556 237.25 29.8959 236.984 30.0088C236.879 30.1844 236.837 30.39 236.866 30.592V33.358C236.843 33.7206 236.897 34.0841 237.026 34.4244C237.136 34.641 237.246 34.741 237.355 34.741L232.869 34.7243ZM237.87 27.5511H239.792C240.54 27.6145 241.288 27.4298 241.917 27.0262C242.152 26.8091 242.333 26.5412 242.446 26.2434C242.559 25.9456 242.6 25.6261 242.567 25.3099C242.574 24.9794 242.495 24.6526 242.339 24.3602C242.156 24.0655 241.88 23.8375 241.555 23.7103C241.062 23.5407 240.541 23.4644 240.02 23.4854H237.87C237.587 23.4645 237.302 23.487 237.026 23.552C236.942 23.602 236.908 23.777 236.908 24.0852V26.9262C236.908 27.2345 236.908 27.4094 237.026 27.4678C237.3 27.5474 237.586 27.5757 237.87 27.5511Z" fill="currentColor"/>
<path d="M249.321 34.7246C249.431 34.7246 249.541 34.6246 249.65 34.408C249.783 34.0685 249.84 33.7049 249.819 33.3416V22.2609C249.842 21.903 249.784 21.5445 249.65 21.2112C249.541 21.0029 249.431 20.8863 249.321 20.8779H253.9C253.799 20.8779 253.689 20.9862 253.58 21.1945C253.446 21.5424 253.388 21.9144 253.411 22.2859V25.8184C253.411 26.1516 253.462 26.3516 253.554 26.4182C253.826 26.5063 254.113 26.5375 254.398 26.5099H254.634C255.166 26.484 255.683 26.3233 256.135 26.0433C256.737 25.6973 257.253 25.2217 257.644 24.652C258.133 23.9432 258.453 23.1343 258.58 22.2859C258.663 21.9268 258.663 21.5537 258.58 21.1945C258.513 20.9862 258.42 20.8779 258.311 20.8779H264.272C264.015 20.9212 263.774 21.0303 263.573 21.1945C263.186 21.4956 262.86 21.8658 262.611 22.2859C262.206 22.9108 261.852 23.444 261.54 23.8689C261.228 24.2938 260.933 24.652 260.697 24.9603C260.461 25.2685 260.124 25.5768 259.795 25.885C259.437 26.2202 259.05 26.524 258.639 26.7932C258.35 26.9868 258.039 27.1462 257.712 27.268V27.343C258.138 27.4361 258.554 27.5729 258.951 27.7513C259.506 28.019 260.025 28.3549 260.495 28.751C261.229 29.3143 261.872 29.9859 262.4 30.7422C262.89 31.4587 263.404 32.2502 263.935 33.1083C264.191 33.5648 264.512 33.9828 264.888 34.3497C265.068 34.5403 265.304 34.6713 265.563 34.7246H259.66C259.751 34.7187 259.84 34.6875 259.914 34.6345C259.989 34.5814 260.047 34.5087 260.081 34.4246C260.132 34.2656 260.15 34.0981 260.134 33.9322C260.118 33.7662 260.069 33.605 259.989 33.4582C259.757 32.807 259.451 32.1838 259.078 31.6003C258.751 31.0728 258.348 30.5956 257.88 30.184C257.429 29.8149 256.911 29.5324 256.354 29.3509C255.791 29.1544 255.197 29.0558 254.6 29.0593H254.347C254.061 29.0288 253.772 29.0659 253.504 29.1676C253.428 29.2342 253.386 29.4592 253.386 29.8258V33.3332C253.364 33.6965 253.422 34.0601 253.554 34.3996C253.664 34.6163 253.774 34.7162 253.875 34.7162L249.321 34.7246Z" fill="currentColor"/>
<path d="M266.271 34.7246C266.373 34.7246 266.482 34.6246 266.592 34.408C266.725 34.0685 266.782 33.7049 266.761 33.3416V22.2609C266.783 21.903 266.726 21.5445 266.592 21.2112C266.482 21.0029 266.373 20.8863 266.271 20.8779H279.916V21.5694L280.388 24.2438C279.72 24.0013 279.031 23.8201 278.33 23.7022C277.156 23.4929 275.965 23.3952 274.772 23.4106H271.314C271.028 23.3795 270.739 23.4167 270.471 23.519C270.387 23.5856 270.344 23.7856 270.344 24.1105V25.8184C270.344 26.1516 270.387 26.3516 270.471 26.4182C270.729 26.5037 271.001 26.5349 271.272 26.5099H274.645C275.376 26.5224 276.107 26.4722 276.829 26.3599C277.204 26.3134 277.569 26.2064 277.909 26.0433L277.706 27.0598C277.622 27.4513 277.563 27.8179 277.512 28.1678C277.473 28.4607 277.451 28.7556 277.445 29.0509H271.272C271.003 29.0291 270.731 29.0545 270.471 29.1259C270.387 29.1842 270.344 29.3842 270.344 29.7424V31.4504C270.344 31.8003 270.344 32.0086 270.454 32.0752C270.725 32.165 271.013 32.1963 271.297 32.1669H277.613C278.355 32.19 279.094 32.0828 279.798 31.8503C280.201 31.7283 280.572 31.5207 280.885 31.2421L280.413 34.0164V34.7246H266.271Z" fill="currentColor"/>
<path d="M286.999 34.7246C287.109 34.7246 287.218 34.6246 287.328 34.408C287.457 34.0677 287.512 33.7042 287.488 33.3416V24.1105C287.488 23.7689 287.446 23.5689 287.37 23.5106C287.102 23.4092 286.812 23.3749 286.527 23.4106H284.84C284.101 23.3889 283.363 23.4874 282.656 23.7022C282.261 23.8106 281.892 23.9946 281.568 24.2438L282.032 21.5694V20.8779H296.528V21.5694L296.992 24.2438C296.669 23.9946 296.299 23.8106 295.904 23.7022C295.197 23.4874 294.459 23.3889 293.72 23.4106H292.033C291.748 23.3785 291.459 23.4127 291.19 23.5106C291.106 23.5689 291.072 23.7689 291.072 24.1105V33.3416C291.049 33.7042 291.103 34.0677 291.232 34.408C291.342 34.6246 291.451 34.7246 291.561 34.7246H286.999Z" fill="currentColor"/>
<path d="M24.4551 1.85743C21.5451 1.85494 18.658 2.3656 15.9296 3.3654C19.0582 7.94761 20.6182 12.2466 20.8796 14.9292C20.9624 15.5671 21.1808 16.1803 21.5205 16.7288C22.7601 18.52 23.2071 22.3858 23.089 23.7604C23.0879 23.7755 23.0823 23.7899 23.0728 23.8017C23.0634 23.8135 23.0505 23.8223 23.0359 23.8268C23.0214 23.8313 23.0058 23.8313 22.9912 23.8269C22.9766 23.8225 22.9636 23.8139 22.9541 23.8021C22.0615 22.7598 20.9624 21.9092 19.7244 21.3027C19.7135 21.296 19.7007 21.293 19.688 21.2941C19.6752 21.2952 19.6631 21.3004 19.6536 21.3088C19.6441 21.3173 19.6376 21.3286 19.6352 21.341C19.6327 21.3534 19.6344 21.3663 19.64 21.3777C20.3146 22.5024 20.9555 24.7102 22.2626 26.6431C22.2711 26.6585 22.2749 26.676 22.2736 26.6935C22.2723 26.711 22.266 26.7278 22.2553 26.7418C22.2446 26.7558 22.2301 26.7666 22.2135 26.7727C22.1968 26.7788 22.1788 26.7801 22.1614 26.7764C21.1651 26.4505 20.2862 25.8455 19.6316 25.0351C18.3414 23.5688 16.95 18.4534 16.5537 17.9035C16.0055 17.1454 13.948 15.8207 12.7083 14.8209C10.6071 13.0483 8.90137 10.8638 7.69932 8.40584C7.40417 8.70576 7.08373 9.01402 6.74642 9.3556C7.5138 11.2718 8.38236 13.3963 9.27623 15.6041C11.1727 16.9543 12.8454 18.5873 14.2347 20.4446C15.5031 22.3588 16.3162 24.5322 16.6127 26.8014C16.8898 29.4284 16.9209 32.0751 16.7054 34.7078C16.7082 34.7209 16.7083 34.7344 16.7058 34.7476C16.7033 34.7608 16.6982 34.7733 16.6907 34.7846C16.6833 34.7958 16.6737 34.8054 16.6625 34.813C16.6512 34.8205 16.6386 34.8258 16.6253 34.8286C16.612 34.8313 16.5983 34.8314 16.585 34.8289C16.5717 34.8264 16.559 34.8214 16.5476 34.814C16.5363 34.8067 16.5265 34.7972 16.5188 34.7861C16.5112 34.775 16.5058 34.7626 16.5031 34.7494C14.5882 28.1907 12.1724 21.7849 9.27623 15.5874L8.27274 14.8376C7.05071 13.8229 5.90375 12.7232 4.84063 11.5467C1.03602 16.5883 -0.629035 22.8969 0.199212 29.132C1.02746 35.3672 4.28374 41.0376 9.27623 44.9386C11.0117 43.1911 12.9152 41.6146 14.9599 40.2314C18.1845 37.9692 22.081 36.8345 26.032 37.0072C26.0791 37.0099 26.1242 37.0271 26.161 37.0562C26.1979 37.0854 26.2246 37.1251 26.2376 37.17C26.2505 37.2148 26.2491 37.2625 26.2334 37.3065C26.2177 37.3504 26.1886 37.3885 26.1501 37.4154L11.7217 46.6465C15.2116 48.7509 19.1798 49.9571 23.2633 50.1551C27.3469 50.353 31.4156 49.5363 35.0972 47.7796L35.0297 47.6796C32.7192 42.9641 32.4999 39.0317 33.807 36.0741C33.9082 35.8575 34.3129 35.8658 34.372 36.7406C34.372 36.7406 34.7599 42.3226 35.2152 47.7046C40.1718 45.2995 44.1585 41.3079 46.5266 36.3793C48.8947 31.4508 49.5048 25.8754 48.2574 20.5607C47.0101 15.2461 43.9788 10.5049 39.657 7.10891C35.3352 3.71291 29.9772 1.862 24.4551 1.85743ZM40.005 33.1998C39.2933 33.6875 38.4275 33.9055 37.5664 33.8137C36.7052 33.7219 35.9064 33.3264 35.3164 32.6999C35.3062 32.6941 35.2945 32.691 35.2827 32.691C35.2709 32.691 35.2592 32.6941 35.249 32.6999C33.0261 34.121 30.4152 34.8335 27.7692 34.7411C25.2923 34.5449 22.9946 33.3888 21.3772 31.5252C21.3702 31.5206 21.3645 31.5145 21.3606 31.5072C21.3566 31.4999 21.3545 31.4918 21.3545 31.4836C21.3545 31.4753 21.3566 31.4672 21.3606 31.4599C21.3645 31.4526 21.3702 31.4465 21.3772 31.4419L34.9454 32.4583C34.9508 32.4536 34.9551 32.4479 34.958 32.4414C34.961 32.4349 34.9625 32.4279 34.9625 32.4208C34.9625 32.4137 34.961 32.4067 34.958 32.4003C34.9551 32.3938 34.9508 32.388 34.9454 32.3833C34.7494 32.1227 34.5799 31.8437 34.4394 31.5502C34.4363 31.5406 34.4358 31.5303 34.4379 31.5204C34.44 31.5105 34.4447 31.5013 34.4515 31.4937C34.4584 31.4862 34.467 31.4805 34.4767 31.4772C34.4864 31.474 34.4968 31.4733 34.5069 31.4752L39.9038 33.0832C39.9195 33.0699 39.9398 33.0633 39.9604 33.0649C39.9809 33.0665 40 33.076 40.0135 33.0915C40.0269 33.107 40.0335 33.1271 40.0319 33.1474C40.0304 33.1677 40.0207 33.1865 40.005 33.1998ZM43.8503 28.0594C43.6901 27.9594 43.2938 28.176 43.3528 28.5843C43.4379 29.206 43.3283 29.8386 43.0389 30.3971C42.7495 30.9556 42.294 31.4132 41.7337 31.7085C41.0266 32.0257 40.2444 32.1438 39.4736 32.0497C38.7029 31.9556 37.9733 31.653 37.3656 31.1753C37.3402 31.1526 37.3211 31.124 37.31 31.092C37.2989 31.0601 37.2961 31.0259 37.302 30.9926C37.3079 30.9593 37.3223 30.928 37.3437 30.9017C37.3651 30.8754 37.393 30.8549 37.4246 30.842L42.5348 28.7592C42.5649 28.7437 42.59 28.7204 42.6076 28.6917C42.6252 28.6631 42.6345 28.6302 42.6345 28.5968C42.6345 28.5633 42.6252 28.5304 42.6076 28.5018C42.59 28.4731 42.5649 28.4498 42.5348 28.4343C42.1483 28.0886 41.8208 27.6835 41.5651 27.2346C41.437 27.1161 41.2955 27.0127 41.1434 26.9263C38.5862 25.2907 35.9337 23.8052 33.1998 22.4774C33.1798 22.4692 33.1577 22.467 33.1364 22.4711C33.1151 22.4753 33.0955 22.4856 33.0801 22.5008C33.0648 22.516 33.0543 22.5353 33.0501 22.5564C33.0459 22.5774 33.0481 22.5992 33.0565 22.619C33.1731 22.8405 33.269 23.0719 33.3432 23.3105C33.3508 23.3352 33.35 23.3616 33.3409 23.3857C33.3317 23.4098 33.3147 23.4303 33.2926 23.4438C32.2475 24.0129 31.0246 24.1746 29.8648 23.897C28.7051 23.6195 27.6927 22.9227 27.0271 21.9442C27.0163 21.9348 27.0077 21.9233 27.0018 21.9104C26.9959 21.8974 26.9928 21.8834 26.9928 21.8692C26.9928 21.855 26.9959 21.841 27.0018 21.8281C27.0077 21.8152 27.0163 21.8036 27.0271 21.7942C27.767 21.3341 28.5709 20.9832 29.4135 20.7528C29.4335 20.7446 29.4506 20.7307 29.4626 20.7129C29.4746 20.6951 29.481 20.6742 29.481 20.6529C29.481 20.6315 29.4746 20.6106 29.4626 20.5928C29.4506 20.575 29.4335 20.5611 29.4135 20.5529C27.0271 19.3282 25.2815 18.4534 22.8107 17.4536C22.7873 17.444 22.768 17.4267 22.7561 17.4046C22.7442 17.3825 22.7404 17.357 22.7454 17.3324C22.7504 17.3079 22.7638 17.2858 22.7834 17.2699C22.803 17.254 22.8275 17.2453 22.8529 17.2453C25.2056 17.2453 31.176 18.0785 33.8744 19.2699C36.8006 20.5945 38.4618 22.4524 39.9966 23.2855C41.5313 24.1187 44.643 24.6269 44.0527 28.2093L43.8503 28.0594Z" fill="#E21B25"/>
</g>
<defs>
<clipPath id="clip0_1812_99333">
<rect width="297" height="48.3216" fill="white" transform="translate(0 1.85742)"/>
</clipPath>
</defs>
</svg>
