<svg width="64" height="30" viewBox="0 0 64 30" fill="none" xmlns="http://www.w3.org/2000/svg">
<path d="M14.1534 21.8598C13.4232 22.415 12.5879 22.7351 11.6476 22.8202C10.7159 22.8988 9.79425 22.7352 8.88278 22.3294C7.97335 21.9086 7.19263 21.2694 6.54063 20.4118C5.88862 19.5542 5.48475 18.6352 5.32903 17.6549C5.17533 16.6596 5.26096 15.7235 5.58592 14.8467C5.91937 13.9635 6.45122 13.2442 7.18149 12.6891C7.91175 12.1339 8.74701 11.8138 9.68728 11.7287C10.6275 11.6436 11.5524 11.8115 12.4618 12.2322C13.3733 12.638 14.155 13.2697 14.807 14.1274C15.459 14.985 15.8619 15.9115 16.0156 16.9068C16.1713 17.8871 16.0824 18.8189 15.749 19.7022C15.4155 20.5854 14.8837 21.3046 14.1534 21.8598ZM13.524 21.0319C14.1014 20.5929 14.517 20.0291 14.7706 19.3405C15.0263 18.637 15.0865 17.8878 14.9512 17.0929C14.8094 16.2895 14.4641 15.527 13.9154 14.8052C13.3667 14.0834 12.7275 13.5511 11.9978 13.2081C11.2616 12.8566 10.5236 12.7142 9.78374 12.7809C9.04593 12.8326 8.38831 13.078 7.8109 13.517C7.24197 13.9495 6.82967 14.5175 6.57398 15.2211C6.32033 15.9097 6.2644 16.6557 6.40617 17.459C6.54149 18.2539 6.88351 19.0122 7.43223 19.734C7.98095 20.4558 8.62339 20.9924 9.35957 21.3438C10.0893 21.6868 10.823 21.8324 11.5609 21.7807C12.3007 21.714 12.9551 21.4644 13.524 21.0319Z" fill="#112233"/>
<path d="M21.3074 17.7064L20.3387 18.0848L17.7832 11.5422L15.3837 12.4794L15.0286 11.5703L20.7962 9.31747L21.1513 10.2266L18.7519 11.1638L21.3074 17.7064Z" fill="#112233"/>
<path d="M30.649 16.0603C29.9665 16.0744 29.3337 15.9115 28.7505 15.5715C28.1671 15.2209 27.6983 14.7345 27.344 14.1123C27.0001 13.4793 26.82 12.7682 26.8037 11.9791C26.7873 11.1899 26.9379 10.4773 27.2555 9.84125C27.5835 9.19432 28.0318 8.68892 28.6004 8.32507C29.1687 7.95055 29.7942 7.75622 30.4767 7.74208C31.0739 7.7297 31.6206 7.85707 32.117 8.12418C32.613 8.38063 33.0258 8.73482 33.3552 9.18676C33.6847 9.6387 33.9082 10.1302 34.0259 10.6612L32.9861 10.6827C32.792 10.0679 32.4833 9.58358 32.0598 9.2296C31.6364 8.87563 31.1154 8.70505 30.4969 8.71787C30.0063 8.72803 29.5559 8.87073 29.1455 9.14595C28.7351 9.42118 28.4123 9.80661 28.1772 10.3023C27.9419 10.7872 27.8306 11.339 27.8434 11.9575C27.8563 12.5761 27.9904 13.1281 28.2458 13.6135C28.5011 14.0884 28.8394 14.4548 29.2608 14.7128C29.6822 14.9708 30.1382 15.0947 30.6288 15.0845C31.258 15.0715 31.7716 14.8848 32.1695 14.5245C32.5779 14.1533 32.8663 13.6512 33.0345 13.0182L34.0743 12.9967C33.9787 13.5321 33.7757 14.0324 33.4653 14.4976C33.1546 14.9522 32.7515 15.3232 32.2561 15.6109C31.7712 15.8983 31.2356 16.0481 30.649 16.0603Z" fill="#112233"/>
<path d="M34.0768 15.8912C33.9109 15.8513 33.7421 15.7777 33.5704 15.6706L33.7838 14.7839L34.0483 14.8475C34.4838 14.9524 34.8546 14.8935 35.1605 14.6709C35.4664 14.4483 35.7214 14.027 35.9255 13.4068L37.6042 8.34717L42.6909 9.57152L40.8188 17.3494L39.8077 17.106L41.4514 10.277L38.3091 9.52072L36.9179 13.728C36.6257 14.6231 36.2288 15.2462 35.7274 15.5973C35.2389 15.9405 34.6887 16.0385 34.0768 15.8912Z" fill="#112233"/>
<path d="M44.8332 19.4601C44.2346 19.1319 43.7674 18.675 43.4315 18.0895C43.1008 17.4946 42.937 16.8392 42.9402 16.1232C42.9579 15.4031 43.1565 14.6969 43.5359 14.0048C43.9154 13.3126 44.4014 12.7701 44.9938 12.3772C45.6008 11.9801 46.2414 11.7657 46.9157 11.7339C47.5951 11.6928 48.2342 11.8363 48.8328 12.1644C49.4314 12.4926 49.8961 12.9541 50.2268 13.5491C50.5627 14.1346 50.7218 14.7875 50.7041 15.5076C50.7008 16.2236 50.5095 16.9276 50.1301 17.6197C49.7506 18.3119 49.2574 18.8565 48.6505 19.2536C48.058 19.6465 47.422 19.8635 46.7426 19.9047C46.0683 19.9364 45.4319 19.7882 44.8332 19.4601ZM45.3024 18.6042C45.7327 18.8401 46.1943 18.9411 46.6873 18.9073C47.1802 18.8734 47.6497 18.705 48.0955 18.402C48.5465 18.0897 48.9207 17.6623 49.2181 17.1198C49.5155 16.5773 49.672 16.0366 49.6876 15.4978C49.7084 14.9496 49.6005 14.4586 49.3639 14.0248C49.1273 13.591 48.7939 13.2562 48.3636 13.0203C47.9333 12.7844 47.4717 12.6834 46.9788 12.7173C46.4858 12.7511 46.0138 12.9242 45.5628 13.2365C45.1169 13.5395 44.7453 13.9622 44.4479 14.5047C44.1505 15.0472 43.9914 15.5926 43.9707 16.1408C43.9551 16.6796 44.0656 17.1659 44.3022 17.5997C44.5387 18.0335 44.8722 18.3684 45.3024 18.6042Z" fill="#112233"/>
<path d="M54.7642 21.4754C54.9443 21.8306 55.0239 22.2238 55.0031 22.6549C54.9824 23.0859 54.7946 23.4934 54.4398 23.8772C53.9909 24.3629 53.4608 24.6064 52.8495 24.6078C52.2381 24.6092 51.6739 24.371 51.1569 23.8932L48.572 21.504L54.002 15.629L56.3637 17.8119C56.7005 18.1232 56.937 18.4725 57.073 18.8596C57.2162 19.239 57.25 19.6188 57.1744 19.9992C57.1061 20.3718 56.9416 20.699 56.6809 20.981C56.413 21.2709 56.103 21.4491 55.7509 21.5158C55.3987 21.5825 55.0699 21.5691 54.7642 21.4754ZM54.1033 17.0517L52.4525 18.8377L53.98 20.2495C54.309 20.5536 54.6435 20.7102 54.9836 20.7195C55.3236 20.7288 55.6167 20.6002 55.8629 20.3339C56.1163 20.0597 56.2214 19.7574 56.1782 19.427C56.1422 19.0887 55.9598 18.7676 55.6308 18.4635L54.1033 17.0517ZM51.7724 23.133C52.0701 23.4081 52.4037 23.5422 52.7733 23.5352C53.1507 23.5354 53.4697 23.3946 53.7304 23.1126C53.9838 22.8384 54.0955 22.5132 54.0656 22.137C54.0436 21.768 53.8837 21.4459 53.586 21.1708L51.8118 19.5309L49.9982 21.4931L51.7724 23.133Z" fill="#112233"/>
</svg>
