<svg width="30" height="45" viewBox="0 0 30 45" fill="none" xmlns="http://www.w3.org/2000/svg">
<path fill-rule="evenodd" clip-rule="evenodd" d="M9.08649 10.3658L15.0596 1.36093L20.9484 10.3125C24.107 15.114 26.8442 20.8114 27.6666 26.1083C28.4845 31.3761 27.4025 36.1061 23.119 39.3108C20.746 41.0862 17.9864 42.1467 15.0604 42.1467C11.9915 42.1467 9.10539 40.984 6.65757 39.054C2.51186 35.7852 1.50706 31.089 2.36157 25.8967C3.22077 20.676 5.95194 15.0913 9.08649 10.3658ZM13.6329 0.0688477L15.0577 1.0139L16.4896 0.0718742L22.5384 9.2666C25.7733 14.1841 28.6665 20.1437 29.5472 25.8163C30.4325 31.5182 29.2906 37.0702 24.2591 40.8346C21.6116 42.8154 18.4608 44.0498 15.0604 44.0498C11.495 44.0498 8.20425 42.697 5.47922 40.5484C0.613066 36.7116 -0.441414 31.2089 0.483689 25.5877C1.4041 19.995 4.29141 14.1518 7.50055 9.31381L13.6329 0.0688477ZM22.9897 27.8621C22.9639 30.1141 22.0501 32.4429 20.5759 34.2029C19.1022 35.9623 17.1436 37.0715 15.0599 37.0715V38.9746C17.8461 38.9746 20.2997 37.4965 22.0349 35.4249C23.7697 33.3537 24.8615 30.6075 24.8927 27.8838L22.9897 27.8621Z" fill="#8712FC"/>
</svg>
