<svg width="56" height="34" viewBox="0 0 56 34" fill="none" xmlns="http://www.w3.org/2000/svg">
<path d="M4.07342 19.3559L10.0008 9.853L10.9511 10.4457L5.02371 19.9487L4.07342 19.3559ZM16.1506 13.6889L9.20397 15.7863L10.4404 23.3273L9.21859 22.5652L8.02974 15.1293L15.0102 12.9776L16.1506 13.6889Z" fill="#112233"/>
<path d="M23.7348 26.0198L24.9459 26.2462L24.3902 29.2187L23.3679 29.0276L23.7442 27.0145L17.5318 25.8532L17.1555 27.8663L16.1332 27.6752L16.6889 24.7027L17.3023 24.8174C17.918 24.5418 18.341 23.9915 18.5712 23.1664L19.9455 18.1658L25.0255 19.1154L23.7348 26.0198ZM22.7125 25.8287L23.8238 19.8837L20.7098 19.3016L19.5935 23.3575C19.3594 24.2036 19.0151 24.7686 18.5605 25.0526L22.7125 25.8287Z" fill="#112233"/>
<path d="M34.4707 22.5506C34.4953 22.8803 34.4927 23.1319 34.4629 23.3053L28.2722 23.7683C28.4186 24.581 28.7543 25.2084 29.2794 25.6504C29.8152 26.0917 30.45 26.2849 31.1839 26.23C32.1625 26.1568 32.8704 25.6814 33.3075 24.8036L34.3446 24.7261C34.1485 25.3932 33.7685 25.9618 33.2046 26.4318C32.64 26.8912 31.9801 27.1492 31.2248 27.2057C30.5228 27.2582 29.8714 27.1304 29.2708 26.8224C28.6808 26.5135 28.1974 26.0576 27.8207 25.4547C27.4441 24.8518 27.2255 24.1461 27.165 23.3377C27.1061 22.5506 27.2181 21.8309 27.5009 21.1786C27.7936 20.515 28.214 19.9861 28.7621 19.5922C29.3094 19.1875 29.9235 18.9598 30.6043 18.9088C31.2744 18.8587 31.8938 18.9889 32.4626 19.2993C33.0411 19.5983 33.5069 20.0341 33.86 20.6067C34.213 21.1793 34.4166 21.8273 34.4707 22.5506ZM30.6771 19.8821C30.2303 19.9155 29.8189 20.064 29.4428 20.3274C29.0766 20.5794 28.7764 20.9281 28.5423 21.3735C28.3181 21.8074 28.1993 22.2923 28.1859 22.8281L33.4033 22.4379C33.2904 21.6441 32.9809 21.0094 32.4747 20.5339C31.9677 20.0477 31.3685 19.8304 30.6771 19.8821Z" fill="#112233"/>
<path d="M37.9823 26.356C37.821 26.4117 37.6392 26.4407 37.4368 26.4428L37.139 25.5808L37.3961 25.492C37.8196 25.3458 38.1003 25.0965 38.2381 24.7441C38.376 24.3918 38.3639 23.8995 38.2019 23.267L36.8911 18.0998L41.8364 16.3917L44.4482 23.9534L43.4652 24.2929L41.1721 17.6538L38.1172 18.7089L39.211 23.0031C39.4469 23.9147 39.4481 24.6535 39.2148 25.2193C38.988 25.7716 38.5772 26.1505 37.9823 26.356Z" fill="#112233"/>
<path d="M48.2937 12.5178L49.2051 11.9236L51.0494 21.2263C51.2179 22.1097 51.2407 22.7697 51.1179 23.2063C51.0099 23.646 50.7771 23.9824 50.4197 24.2154C50.2678 24.3145 50.0703 24.3923 49.8271 24.449L49.3115 23.6583C49.4984 23.6128 49.6544 23.5493 49.7794 23.4678C49.9939 23.328 50.1378 23.1386 50.2113 22.8997C50.2937 22.655 50.2941 22.3236 50.2126 21.9057L49.9802 20.7583L43.0398 15.9434L43.978 15.3317L49.7106 19.3488L48.2937 12.5178Z" fill="#112233"/>
</svg>
