<svg width="26" height="47" viewBox="0 0 26 47" fill="none" xmlns="http://www.w3.org/2000/svg">
<path fill-rule="evenodd" clip-rule="evenodd" d="M8.56818 0.623047V2.10032H7.09091L7.09091 18.9412L1.47727 18.9412L1.47727 20.4185H7.09091V18.9412H8.56818L8.56818 2.10032L17.4318 2.10032V18.9412H18.9088V20.4185H24.5225V18.9412L18.9091 18.9412L18.9091 2.10032L17.4318 2.10032V0.623047H8.56818ZM2.40377e-06 45.2367H1.12286L1.12286 46.6252L24.8184 46.6252V45.2368H25.9997L25.9997 20.4186H24.5225V26.032L8.56836 26.032V27.5093L24.5225 27.5093L24.5225 39.6228L8.56836 39.6228V41.1001L24.5225 41.1001V45.1479L1.47728 45.1479L1.47727 20.4185H0L2.40377e-06 45.2367ZM8.56818 27.5094H7.09091L7.09091 39.9185H8.56818L8.56818 27.5094Z" fill="#8712FC"/>
</svg>
