<svg width="24" height="24" viewBox="0 0 24 24" fill="none" xmlns="http://www.w3.org/2000/svg">
<path d="M5.00325 11.3412L2.40894 8.72864" stroke="#E21B25" stroke-miterlimit="10" stroke-linecap="round"/>
<path d="M6.01225 10.3253L3.41794 7.71277" stroke="#E21B25" stroke-miterlimit="10" stroke-linecap="round"/>
<path d="M7.02195 9.31027L4.42764 6.69775" stroke="#E21B25" stroke-miterlimit="10" stroke-linecap="round"/>
<path d="M8.03132 8.29489L5.43701 5.68237" stroke="#E21B25" stroke-miterlimit="10" stroke-linecap="round"/>
<path d="M9.04078 7.27975L6.44647 4.66724" stroke="#E21B25" stroke-miterlimit="10" stroke-linecap="round"/>
<path d="M10.0504 6.26425L7.45609 3.65173" stroke="#E21B25" stroke-miterlimit="10" stroke-linecap="round"/>
<path d="M11.0594 5.2485L8.46509 2.63599" stroke="#E21B25" stroke-miterlimit="10" stroke-linecap="round"/>
<path d="M4.82828 11.5182L5.64467 12.3403C6.18893 12.8884 10.054 12.65 10.054 12.65L20.1429 21.7213C20.4888 22.0307 21.033 21.9942 21.3813 21.6435C21.7296 21.2928 21.7658 20.7447 21.4586 20.3964L12.3964 10.2547C12.3964 10.2547 12.615 6.34419 12.107 5.83264L11.2906 5.01052L4.82828 11.5182Z" stroke="currentColor" stroke-miterlimit="10"/>
</svg>
