<svg width="100" height="100" viewBox="0 0 100 100" fill="none" xmlns="http://www.w3.org/2000/svg">
<path d="M16.1116 39.7288L6 29.6172" stroke="#E21B25" stroke-width="2" stroke-miterlimit="10" stroke-linecap="round"/>
<path d="M19.5042 36.3343L9.39258 26.2227" stroke="#E21B25" stroke-width="2" stroke-miterlimit="10" stroke-linecap="round"/>
<path d="M22.8284 33.012L12.7168 22.9004" stroke="#E21B25" stroke-width="2" stroke-miterlimit="10" stroke-linecap="round"/>
<path d="M26.223 29.6175L16.1113 19.5059" stroke="#E21B25" stroke-width="2" stroke-miterlimit="10" stroke-linecap="round"/>
<path d="M29.6175 26.223L19.5059 16.1113" stroke="#E21B25" stroke-width="2" stroke-miterlimit="10" stroke-linecap="round"/>
<path d="M32.9417 22.8987L22.8301 12.7871" stroke="#E21B25" stroke-width="2" stroke-miterlimit="10" stroke-linecap="round"/>
<path d="M36.3343 19.5062L26.2227 9.39453" stroke="#E21B25" stroke-width="2" stroke-miterlimit="10" stroke-linecap="round"/>
<path d="M39.7288 16.1116L29.6172 6" stroke="#E21B25" stroke-width="2" stroke-miterlimit="10" stroke-linecap="round"/>
<path d="M16.1113 39.7285L19.2933 42.9105C21.4146 45.0318 29.5464 44.9611 35.981 44.6076C36.0517 44.6783 36.1225 44.749 36.2639 44.8904L78.266 83.0742C79.6095 84.2762 81.6601 84.2055 82.9329 82.9327C84.2057 81.6599 84.2764 79.6093 83.0743 78.2658L44.8906 36.2637C44.7492 36.1223 44.6784 36.0516 44.537 35.9101C44.8906 29.4755 44.8906 21.273 42.9107 19.2931L39.7287 16.1111L16.1113 39.7285Z" stroke="currentColor" stroke-width="2" stroke-miterlimit="10"/>
<path d="M26.8594 37.041L36.971 26.9294" stroke="currentColor" stroke-width="2" stroke-miterlimit="10" stroke-linecap="round"/>
</svg>
