<svg width="16" height="16" viewBox="0 0 16 16" fill="none" xmlns="http://www.w3.org/2000/svg">
<path d="M4.34754 7.77697C3.50031 7.77697 2.81122 7.50343 2.28029 6.95634C1.74935 6.39735 1.48389 5.69565 1.48389 4.85123C1.48389 3.99491 1.74935 3.28132 2.28029 2.71044C2.81122 2.13956 3.50031 1.85413 4.34754 1.85413C5.20607 1.85413 5.90081 2.13956 6.43174 2.71044C6.96268 3.28132 7.22814 3.99491 7.22814 4.85123C7.22814 5.69565 6.96268 6.39735 6.43174 6.95634C5.90081 7.50343 5.20607 7.77697 4.34754 7.77697ZM5.8779 13.4511C5.69642 13.7495 5.37241 13.9317 5.02311 13.9317C4.24332 13.9317 3.76334 13.0792 4.16778 12.4125L10.1707 2.51696C10.3532 2.2162 10.6794 2.03252 11.0312 2.03252C11.8161 2.03252 12.2989 2.89115 11.8911 3.56184L5.8779 13.4511ZM13.7021 13.3073C13.1712 13.8663 12.4821 14.1458 11.6349 14.1458C10.7877 14.1458 10.0986 13.8663 9.56764 13.3073C9.03671 12.7484 8.77124 12.0467 8.77124 11.2022C8.77124 10.3459 9.03671 9.63232 9.56764 9.06145C10.0986 8.49057 10.7877 8.20513 11.6349 8.20513C12.4821 8.20513 13.1712 8.49057 13.7021 9.06145C14.2444 9.63232 14.5155 10.3459 14.5155 11.2022C14.5155 12.0467 14.2444 12.7484 13.7021 13.3073ZM4.34754 6.38546C4.74292 6.38546 5.06487 6.24869 5.31339 5.97514C5.56191 5.6897 5.68617 5.31507 5.68617 4.85123C5.68617 4.36361 5.56191 3.97707 5.31339 3.69164C5.06487 3.4062 4.74292 3.26348 4.34754 3.26348C3.95217 3.26348 3.63022 3.4062 3.38169 3.69164C3.13317 3.97707 3.00891 4.36361 3.00891 4.85123C3.00891 5.30317 3.13317 5.67186 3.38169 5.9573C3.64151 6.24274 3.96346 6.38546 4.34754 6.38546ZM10.669 12.344C10.9176 12.6175 11.2395 12.7543 11.6349 12.7543C12.0303 12.7543 12.3522 12.6175 12.6007 12.344C12.8606 12.0585 12.9905 11.678 12.9905 11.2022C12.9905 10.7146 12.8606 10.3281 12.6007 10.0426C12.3522 9.7572 12.0303 9.61448 11.6349 9.61448C11.2395 9.61448 10.9176 9.7572 10.669 10.0426C10.4205 10.3281 10.2963 10.7146 10.2963 11.2022C10.2963 11.678 10.4205 12.0585 10.669 12.344Z" fill="currentColor"/>
</svg>
