<svg width="16" height="16" viewBox="0 0 16 16" fill="none" xmlns="http://www.w3.org/2000/svg">
<g clip-path="url(#clip0_213_5409)">
<path fill-rule="evenodd" clip-rule="evenodd" d="M11.1347 1.53511C9.7226 2.56157 8.16111 4.05716 6.88982 5.3122C5.80081 6.38729 5.04127 7.40072 4.5752 8.29411C3.43414 8.11797 2.22739 8.46938 1.34842 9.34835C0.917378 9.77939 0.657576 10.4135 0.487408 11.0048C0.310619 11.6191 0.200195 12.2995 0.129913 12.9191C0.0592259 13.5424 0.0269555 14.1245 0.0122345 14.5495C0.0048531 14.7626 0.00183854 14.9375 0.000675054 15.0601C9.23595e-05 15.1214 -2.68498e-05 15.1697 4.62144e-06 15.2032L0.000125738 15.2422L0.000198217 15.2529L0.00022492 15.2561L0.000238272 15.2574C0.00442013 15.6656 0.334579 15.9958 0.74279 15.9999L0.744132 15.9999L0.747257 16L0.758012 16L0.796965 16.0002C0.830462 16.0002 0.878759 16.0001 0.940078 15.9995C1.06265 15.9983 1.23761 15.9953 1.45068 15.9879C1.87568 15.9732 2.45776 15.9409 3.08099 15.8702C3.70065 15.7999 4.38101 15.6895 4.99532 15.5127C5.58662 15.3425 6.22069 15.0827 6.65172 14.6517C7.52817 13.7752 7.88008 12.5729 7.70746 11.4347C8.61567 10.9741 9.64947 10.2194 10.7478 9.13515C12.0266 7.8727 13.512 6.30941 14.5226 4.88584C15.0237 4.18003 15.4456 3.45747 15.6475 2.78985C15.8469 2.13072 15.8831 1.32087 15.2796 0.718928C14.6731 0.112373 13.8595 0.170263 13.2109 0.379806C12.5508 0.593092 11.835 1.02606 11.1347 1.53511ZM7.18321 10.016C7.03508 9.77878 6.85792 9.55455 6.65172 9.34835C6.44846 9.14509 6.22768 8.97005 5.99423 8.82321C6.25865 8.35131 6.63806 7.81012 7.15548 7.21602L8.81373 8.87427C8.21071 9.38353 7.66164 9.75666 7.18321 10.016ZM12.0167 2.74843C10.7925 3.63831 9.41177 4.93785 8.19398 6.1332L9.9121 7.85132C11.1215 6.64618 12.4221 5.25345 13.2995 4.01749C13.769 3.35618 14.0802 2.79063 14.2118 2.35555C14.346 1.91196 14.2439 1.80452 14.2203 1.78096L14.2189 1.77956C14.2052 1.76559 14.1079 1.66636 13.6721 1.80716C13.2396 1.94689 12.6769 2.26852 12.0167 2.74843ZM1.62036 13.0882C1.5615 13.6071 1.53118 14.0997 1.51571 14.4844C1.90044 14.469 2.39303 14.4386 2.91192 14.3798C3.48861 14.3143 4.07783 14.2158 4.58045 14.0712C5.10608 13.9199 5.43631 13.7457 5.59106 13.591C6.46974 12.7123 6.46974 11.2877 5.59106 10.409C4.71238 9.53033 3.28776 9.53033 2.40908 10.409C2.25433 10.5638 2.08017 10.894 1.9289 11.4196C1.78426 11.9223 1.68577 12.5115 1.62036 13.0882Z" fill="currentColor"/>
</g>
<defs>
<clipPath id="clip0_213_5409">
<rect width="16" height="16" fill="white" transform="matrix(-1 0 0 1 16 0)"/>
</clipPath>
</defs>
</svg>
