<svg width="24" height="24" viewBox="0 0 24 24" fill="none" xmlns="http://www.w3.org/2000/svg">
<path fill-rule="evenodd" clip-rule="evenodd" d="M10 6.00049C10 5.47006 10.2107 4.96135 10.5858 4.58627C10.9609 4.2112 11.4696 4.00049 12 4.00049C12.5304 4.00049 13.0391 4.2112 13.4142 4.58627C13.7893 4.96135 14 5.47006 14 6.00049H13C12.7348 6.00049 12.4804 6.10585 12.2929 6.29338C12.1054 6.48092 12 6.73527 12 7.00049C12 7.2657 12.1054 7.52006 12.2929 7.70759C12.4804 7.89513 12.7348 8.00049 13 8.00049H14V10.0005H13C12.7348 10.0005 12.4804 10.1058 12.2929 10.2934C12.1054 10.4809 12 10.7353 12 11.0005C12 11.2657 12.1054 11.5201 12.2929 11.7076C12.4804 11.8951 12.7348 12.0005 13 12.0005H14V13.0005C14 13.5309 13.7893 14.0396 13.4142 14.4147C13.0391 14.7898 12.5304 15.0005 12 15.0005C11.4696 15.0005 10.9609 14.7898 10.5858 14.4147C10.2107 14.0396 10 13.5309 10 13.0005V6.00049ZM12 2.00049C10.9391 2.00049 9.92172 2.42192 9.17157 3.17206C8.42143 3.92221 8 4.93962 8 6.00049V13.0005C8 14.0614 8.42143 15.0788 9.17157 15.8289C9.92172 16.5791 10.9391 17.0005 12 17.0005C13.0609 17.0005 14.0783 16.5791 14.8284 15.8289C15.5786 15.0788 16 14.0614 16 13.0005V6.00049C16 4.93962 15.5786 3.92221 14.8284 3.17206C14.0783 2.42192 13.0609 2.00049 12 2.00049ZM7 11.0005C7 10.7353 6.89464 10.4809 6.70711 10.2934C6.51957 10.1058 6.26522 10.0005 6 10.0005C5.73478 10.0005 5.48043 10.1058 5.29289 10.2934C5.10536 10.4809 5 10.7353 5 11.0005V13.0005C4.99978 14.684 5.6062 16.3112 6.70815 17.584C7.81011 18.8567 9.33379 19.6898 11 19.9305V21.0005H8C7.73478 21.0005 7.48043 21.1058 7.29289 21.2934C7.10536 21.4809 7 21.7353 7 22.0005C7 22.2657 7.10536 22.5201 7.29289 22.7076C7.48043 22.8951 7.73478 23.0005 8 23.0005H16C16.2652 23.0005 16.5196 22.8951 16.7071 22.7076C16.8946 22.5201 17 22.2657 17 22.0005C17 21.7353 16.8946 21.4809 16.7071 21.2934C16.5196 21.1058 16.2652 21.0005 16 21.0005H13V19.9305C14.6662 19.6898 16.1899 18.8567 17.2918 17.584C18.3938 16.3112 19.0002 14.684 19 13.0005V11.0005C19 10.7353 18.8946 10.4809 18.7071 10.2934C18.5196 10.1058 18.2652 10.0005 18 10.0005C17.7348 10.0005 17.4804 10.1058 17.2929 10.2934C17.1054 10.4809 17 10.7353 17 11.0005V13.0005C17 14.3266 16.4732 15.5983 15.5355 16.536C14.5979 17.4737 13.3261 18.0005 12 18.0005C10.6739 18.0005 9.40215 17.4737 8.46447 16.536C7.52678 15.5983 7 14.3266 7 13.0005V11.0005Z" fill="currentColor"/>
</svg>
