<svg width="34" height="34" viewBox="0 0 34 34" fill="none" xmlns="http://www.w3.org/2000/svg">
<path d="M11.8817 4.90903L4.35181 12.439L21.1097 29.1968C22.8563 30.9434 25.9709 30.6611 28.0657 28.5663C30.1605 26.4715 30.4428 23.3569 28.6962 21.6103L11.9384 4.85242L11.8817 4.90903Z" stroke="currentColor" stroke-miterlimit="10"/>
<path d="M8.9043 16.8091L16.3114 9.40193" stroke="currentColor" stroke-miterlimit="10"/>
<path d="M4.10885 12.1958L3.21191 11.2988" stroke="currentColor" stroke-miterlimit="10" stroke-linecap="round"/>
<path d="M9.66258 6.36522L8.9043 5.60693" stroke="currentColor" stroke-miterlimit="10" stroke-linecap="round"/>
<path d="M7.76512 8.26268L7.00684 7.50439" stroke="currentColor" stroke-miterlimit="10" stroke-linecap="round"/>
<path d="M5.8679 10.1601L5.10962 9.40186" stroke="currentColor" stroke-miterlimit="10" stroke-linecap="round"/>
<path d="M11.6985 4.6069L10.8015 3.70996" stroke="currentColor" stroke-miterlimit="10" stroke-linecap="round"/>
<path d="M19.7674 20.2651C19.3098 20.7227 18.4571 20.7853 17.9715 20.2996L15.3617 17.6899C14.9019 17.2301 14.8623 16.4277 15.3962 15.8938C15.8538 15.4362 16.6612 15.3284 17.1922 15.8594L19.8019 18.4691C20.2617 18.9289 20.3013 19.7312 19.7674 20.2651Z" stroke="#E21B25" stroke-miterlimit="10"/>
</svg>
