<svg width="24" height="24" viewBox="0 0 24 24" fill="none" xmlns="http://www.w3.org/2000/svg">
<path fill-rule="evenodd" clip-rule="evenodd" d="M2 6.00049C2 4.93962 2.42143 3.92221 3.17157 3.17206C3.92172 2.42192 4.93913 2.00049 6 2.00049H18C19.0609 2.00049 20.0783 2.42192 20.8284 3.17206C21.5786 3.92221 22 4.93962 22 6.00049V18.0005C22 19.0614 21.5786 20.0788 20.8284 20.8289C20.0783 21.5791 19.0609 22.0005 18 22.0005H6C4.93913 22.0005 3.92172 21.5791 3.17157 20.8289C2.42143 20.0788 2 19.0614 2 18.0005V6.00049ZM6 4.00049C5.46957 4.00049 4.96086 4.2112 4.58579 4.58627C4.21071 4.96135 4 5.47006 4 6.00049V18.0005C4 18.5309 4.21071 19.0396 4.58579 19.4147C4.96086 19.7898 5.46957 20.0005 6 20.0005H18C18.5304 20.0005 19.0391 19.7898 19.4142 19.4147C19.7893 19.0396 20 18.5309 20 18.0005V6.00049C20 5.47006 19.7893 4.96135 19.4142 4.58627C19.0391 4.2112 18.5304 4.00049 18 4.00049H6ZM12 12.5005C12 13.4287 11.6313 14.319 10.9749 14.9754C10.3185 15.6317 9.42826 16.0005 8.5 16.0005C7.57174 16.0005 6.6815 15.6317 6.02513 14.9754C5.36875 14.319 5 13.4287 5 12.5005C5 11.5722 5.36875 10.682 6.02513 10.0256C6.6815 9.36924 7.57174 9.00049 8.5 9.00049C9.42826 9.00049 10.3185 9.36924 10.9749 10.0256C11.6313 10.682 12 11.5722 12 12.5005ZM12 12.5005C12 12.9601 12.0905 13.4152 12.2664 13.8399C12.4423 14.2645 12.7001 14.6504 13.0251 14.9754C13.3501 15.3004 13.736 15.5582 14.1606 15.7341C14.5852 15.91 15.0404 16.0005 15.5 16.0005C15.9596 16.0005 16.4148 15.91 16.8394 15.7341C17.264 15.5582 17.6499 15.3004 17.9749 14.9754C18.2999 14.6504 18.5577 14.2645 18.7336 13.8399C18.9095 13.4152 19 12.9601 19 12.5005C19 11.5722 18.6313 10.682 17.9749 10.0256C17.3185 9.36924 16.4283 9.00049 15.5 9.00049C14.5717 9.00049 13.6815 9.36924 13.0251 10.0256C12.3687 10.682 12 11.5722 12 12.5005ZM14 12.5005C14 12.1027 14.158 11.7211 14.4393 11.4398C14.7206 11.1585 15.1022 11.0005 15.5 11.0005C15.8978 11.0005 16.2794 11.1585 16.5607 11.4398C16.842 11.7211 17 12.1027 17 12.5005C17 12.8983 16.842 13.2798 16.5607 13.5611C16.2794 13.8425 15.8978 14.0005 15.5 14.0005C15.1022 14.0005 14.7206 13.8425 14.4393 13.5611C14.158 13.2798 14 12.8983 14 12.5005Z" fill="currentColor"/>
</svg>
