<svg width="24" height="24" viewBox="0 0 24 24" fill="none" xmlns="http://www.w3.org/2000/svg">
<path d="M8.38712 3.46515L3.07187 8.7804L14.9009 20.6095C16.1338 21.8424 18.3324 21.6431 19.8111 20.1644C21.2898 18.6857 21.489 16.4871 20.2562 15.2543L8.42708 3.42518L8.38712 3.46515Z" stroke="currentColor" stroke-miterlimit="10"/>
<path d="M6.2854 11.8652L11.514 6.63666" stroke="currentColor" stroke-miterlimit="10"/>
<path d="M2.90047 8.60872L2.26733 7.97559" stroke="currentColor" stroke-miterlimit="10" stroke-linecap="round"/>
<path d="M6.82066 4.49315L6.2854 3.95789" stroke="currentColor" stroke-miterlimit="10" stroke-linecap="round"/>
<path d="M5.48127 5.8325L4.94601 5.29724" stroke="currentColor" stroke-miterlimit="10" stroke-linecap="round"/>
<path d="M4.14195 7.17186L3.60669 6.6366" stroke="currentColor" stroke-miterlimit="10" stroke-linecap="round"/>
<path d="M8.25774 3.25191L7.6246 2.61877" stroke="currentColor" stroke-miterlimit="10" stroke-linecap="round"/>
<path d="M13.9535 14.3048C13.6304 14.6278 13.0286 14.672 12.6857 14.3291L10.8436 12.487C10.519 12.1624 10.491 11.5961 10.8679 11.2192C11.1909 10.8962 11.7608 10.82 12.1357 11.1949L13.9778 13.037C14.3024 13.3616 14.3303 13.9279 13.9535 14.3048Z" stroke="#E21B25" stroke-miterlimit="10"/>
</svg>
