<svg width="24" height="24" viewBox="0 0 24 24" fill="none" xmlns="http://www.w3.org/2000/svg">
<path fill-rule="evenodd" clip-rule="evenodd" d="M3 5.00049C2.20435 5.00049 1.44129 5.31656 0.87868 5.87917C0.31607 6.44178 0 7.20484 0 8.00049L0 16.0005C0 16.7961 0.31607 17.5592 0.87868 18.1218C1.44129 18.6844 2.20435 19.0005 3 19.0005H21C21.7956 19.0005 22.5587 18.6844 23.1213 18.1218C23.6839 17.5592 24 16.7961 24 16.0005V8.00049C24 7.20484 23.6839 6.44178 23.1213 5.87917C22.5587 5.31656 21.7956 5.00049 21 5.00049H3ZM2 8.00049C2 7.73527 2.10536 7.48092 2.29289 7.29338C2.48043 7.10585 2.73478 7.00049 3 7.00049H21C21.2652 7.00049 21.5196 7.10585 21.7071 7.29338C21.8946 7.48092 22 7.73527 22 8.00049V16.0005C22 16.2657 21.8946 16.5201 21.7071 16.7076C21.5196 16.8951 21.2652 17.0005 21 17.0005H3C2.73478 17.0005 2.48043 16.8951 2.29289 16.7076C2.10536 16.5201 2 16.2657 2 16.0005V8.00049ZM8 10.0005C8 9.73527 7.89464 9.48092 7.70711 9.29338C7.51957 9.10585 7.26522 9.00049 7 9.00049C6.73478 9.00049 6.48043 9.10585 6.29289 9.29338C6.10536 9.48092 6 9.73527 6 10.0005V11.0005H5C4.73478 11.0005 4.48043 11.1058 4.29289 11.2934C4.10536 11.4809 4 11.7353 4 12.0005C4 12.2657 4.10536 12.5201 4.29289 12.7076C4.48043 12.8951 4.73478 13.0005 5 13.0005H6V14.0005C6 14.2657 6.10536 14.5201 6.29289 14.7076C6.48043 14.8951 6.73478 15.0005 7 15.0005C7.26522 15.0005 7.51957 14.8951 7.70711 14.7076C7.89464 14.5201 8 14.2657 8 14.0005V13.0005H9C9.26522 13.0005 9.51957 12.8951 9.70711 12.7076C9.89464 12.5201 10 12.2657 10 12.0005C10 11.7353 9.89464 11.4809 9.70711 11.2934C9.51957 11.1058 9.26522 11.0005 9 11.0005H8V10.0005ZM16 11.5005C16 11.8983 15.842 12.2798 15.5607 12.5611C15.2794 12.8425 14.8978 13.0005 14.5 13.0005C14.1022 13.0005 13.7206 12.8425 13.4393 12.5611C13.158 12.2798 13 11.8983 13 11.5005C13 11.1027 13.158 10.7211 13.4393 10.4398C13.7206 10.1585 14.1022 10.0005 14.5 10.0005C14.8978 10.0005 15.2794 10.1585 15.5607 10.4398C15.842 10.7211 16 11.1027 16 11.5005ZM18.5 13.0005C18.8978 13.0005 19.2794 12.8425 19.5607 12.5611C19.842 12.2798 20 11.8983 20 11.5005C20 11.1027 19.842 10.7211 19.5607 10.4398C19.2794 10.1585 18.8978 10.0005 18.5 10.0005C18.1022 10.0005 17.7206 10.1585 17.4393 10.4398C17.158 10.7211 17 11.1027 17 11.5005C17 11.8983 17.158 12.2798 17.4393 12.5611C17.7206 12.8425 18.1022 13.0005 18.5 13.0005Z" fill="currentColor"/>
</svg>
