
<svg width="24" height="24" viewBox="0 0 24 24" fill="none" xmlns="http://www.w3.org/2000/svg">
<path fill-rule="evenodd" clip-rule="evenodd" d="M12 5.0005C11.0354 5.00027 10.085 5.2326 9.2293 5.6778C8.3736 6.123 7.63785 6.76794 7.08441 7.55796C6.53098 8.34798 6.17617 9.25979 6.05006 10.2161C5.92396 11.1724 6.03028 12.145 6.36001 13.0515C6.57164 13.0175 6.78565 13.0004 7.00001 13.0005H8.00001C8.26522 13.0005 8.51958 13.1059 8.70711 13.2934C8.89465 13.4809 9.00001 13.7353 9.00001 14.0005V20.0005C9.00001 20.2657 8.89465 20.5201 8.70711 20.7076C8.51958 20.8951 8.26522 21.0005 8.00001 21.0005H7.00001C6.16848 21.0005 5.35763 20.7413 4.68025 20.259C4.00286 19.7767 3.49261 19.0953 3.22047 18.3096C2.94833 17.5239 2.92783 16.6729 3.16181 15.8749C3.39579 15.077 3.87263 14.3718 4.52601 13.8575C4.06386 12.6462 3.90305 11.3406 4.05741 10.0534C4.21178 8.76607 4.6767 7.53559 5.41214 6.46786C6.14758 5.40013 7.13152 4.52714 8.27922 3.92405C9.42692 3.32097 10.704 3.00586 12.0005 3.00586C13.297 3.00586 14.5741 3.32097 15.7218 3.92405C16.8695 4.52714 17.8534 5.40013 18.5889 6.46786C19.3243 7.53559 19.7892 8.76607 19.9436 10.0534C20.098 11.3406 19.9372 12.6462 19.475 13.8575C20.1284 14.3719 20.6053 15.0772 20.8393 15.8752C21.0732 16.6732 21.0526 17.5243 20.7804 18.3101C20.5081 19.0959 19.9977 19.7773 19.3202 20.2594C18.6426 20.7416 17.8316 21.0007 17 21.0005H15.999C15.7338 21.0005 15.4794 20.8951 15.2919 20.7076C15.1044 20.5201 14.999 20.2657 14.999 20.0005V14.0005C14.999 13.7353 15.1044 13.4809 15.2919 13.2934C15.4794 13.1059 15.7338 13.0005 15.999 13.0005H16.999C17.217 13.0005 17.431 13.0185 17.639 13.0515C17.9687 12.1451 18.075 11.1726 17.949 10.2163C17.8229 9.26012 17.4682 8.34837 16.9149 7.55837C16.3616 6.76838 15.6259 6.12341 14.7704 5.67815C13.9148 5.23288 12.9645 5.00043 12 5.0005ZM7.00001 15.0005C6.46957 15.0005 5.96087 15.2112 5.58579 15.5863C5.21072 15.9614 5.00001 16.4701 5.00001 17.0005C5.00001 17.5309 5.21072 18.0396 5.58579 18.4147C5.96087 18.7898 6.46957 19.0005 7.00001 19.0005V15.0005ZM17 15.0005V19.0005C17.5304 19.0005 18.0391 18.7898 18.4142 18.4147C18.7893 18.0396 19 17.5309 19 17.0005C19 16.4701 18.7893 15.9614 18.4142 15.5863C18.0391 15.2112 17.5304 15.0005 17 15.0005Z" fill="currentColor"/>
</svg>
