<svg width="16" height="16" viewBox="0 0 16 16" fill="none" xmlns="http://www.w3.org/2000/svg">
<path fill-rule="evenodd" clip-rule="evenodd" d="M5.00003 3.25398V3.24998V3.25498C4.99937 3.45367 4.91988 3.64399 4.77903 3.78413C4.63818 3.92428 4.44748 4.00281 4.24878 4.00248C4.05009 4.00215 3.85964 3.92298 3.71926 3.78237C3.57888 3.64175 3.50003 3.45117 3.50003 3.25248C3.50003 3.05378 3.57888 2.86321 3.71926 2.72259C3.85964 2.58197 4.05009 2.50281 4.24878 2.50248C4.44748 2.50215 4.63818 2.58068 4.77903 2.72082C4.91988 2.86097 4.99937 3.05128 5.00003 3.24998V3.25398ZM5.45003 5.15398C5.88082 4.88238 6.20673 4.47267 6.37448 3.99184C6.54224 3.511 6.54191 2.98748 6.37356 2.50685C6.2052 2.02622 5.87878 1.61692 5.44765 1.34586C5.01652 1.07481 4.50619 0.958024 4.00008 1.0146C3.49397 1.07118 3.02203 1.29778 2.6614 1.65735C2.30077 2.01693 2.07279 2.4882 2.01473 2.99414C1.95667 3.50008 2.07196 4.01075 2.34176 4.44268C2.61155 4.8746 3.0199 5.20222 3.50003 5.37198V10.628C2.99934 10.8049 2.57732 11.1532 2.30858 11.6112C2.03983 12.0692 1.94166 12.6075 2.03142 13.1309C2.12117 13.6542 2.39308 14.1291 2.79907 14.4713C3.20506 14.8136 3.719 15.0014 4.25003 15.0014C4.78106 15.0014 5.29499 14.8136 5.70098 14.4713C6.10698 14.1291 6.37888 13.6542 6.46864 13.1309C6.5584 12.6075 6.46023 12.0692 6.19148 11.6112C5.92273 11.1532 5.50072 10.8049 5.00003 10.628V7.12298C5.5383 7.71501 6.1945 8.18786 6.92644 8.51112C7.65839 8.83438 8.44988 9.00091 9.25003 8.99998H10.628C10.8049 9.50067 11.1532 9.92268 11.6112 10.1915C12.0692 10.4602 12.6075 10.5584 13.1309 10.4686C13.6542 10.3789 14.1291 10.1069 14.4713 9.70094C14.8136 9.29494 15.0014 8.78101 15.0014 8.24998C15.0014 7.71895 14.8136 7.20501 14.4713 6.79902C14.1291 6.39303 13.6542 6.12112 13.1309 6.03137C12.6075 5.94161 12.0692 6.03978 11.6112 6.30853C11.1532 6.57727 10.8049 6.99929 10.628 7.49998H9.25003C8.46133 7.50004 7.68816 7.28064 7.01705 6.86632C6.34595 6.452 5.80337 5.8591 5.45003 5.15398ZM12.75 8.99998C12.9489 8.99998 13.1397 8.92096 13.2803 8.78031C13.421 8.63966 13.5 8.44889 13.5 8.24998C13.5 8.05107 13.421 7.8603 13.2803 7.71965C13.1397 7.579 12.9489 7.49998 12.75 7.49998C12.5511 7.49998 12.3603 7.579 12.2197 7.71965C12.079 7.8603 12 8.05107 12 8.24998C12 8.44889 12.079 8.63966 12.2197 8.78031C12.3603 8.92096 12.5511 8.99998 12.75 8.99998ZM4.25003 13.5C4.44894 13.5 4.63971 13.421 4.78036 13.2803C4.92101 13.1397 5.00003 12.9489 5.00003 12.75C5.00003 12.5511 4.92101 12.3603 4.78036 12.2197C4.63971 12.079 4.44894 12 4.25003 12C4.05112 12 3.86035 12.079 3.7197 12.2197C3.57905 12.3603 3.50003 12.5511 3.50003 12.75C3.50003 12.9489 3.57905 13.1397 3.7197 13.2803C3.86035 13.421 4.05112 13.5 4.25003 13.5Z" fill="currentColor"/>
</svg>
