<svg width="24" height="24" viewBox="0 0 24 24" fill="none" xmlns="http://www.w3.org/2000/svg">
<path fill-rule="evenodd" clip-rule="evenodd" d="M3.04169 7C3.26741 10.5872 4.29458 13.3273 5.93176 15.1591C7.44394 16.8511 9.55375 17.8557 12.2805 17.9856V15.4634C12.2805 14.3541 13.311 13.1976 14.6656 13.6249C16.745 14.2807 18.2991 15.9254 19.1261 17.9231C19.1405 17.9579 19.1618 17.981 19.1778 17.9925C19.1848 17.9975 19.1891 17.9994 19.1911 18H20.6112C19.9008 16.2817 18.809 15.0561 17.792 14.2523C17.2118 13.7938 16.9451 13.1079 16.9161 12.478C16.887 11.8482 17.0895 11.1408 17.6245 10.6308C18.5535 9.74504 19.468 8.49851 19.9708 7H18.7925C18.7924 7.00002 18.7923 7.00005 18.7922 7.00008C18.7909 7.00055 18.7859 7.00249 18.7783 7.00813C18.7617 7.02043 18.7407 7.04456 18.7274 7.07979C17.9748 9.07726 16.4902 10.9215 14.7743 11.7298C14.1352 12.0309 13.4653 11.9021 12.991 11.5262C12.54 11.1689 12.2805 10.6097 12.2805 10.0218L12.2805 7H11.0574V13.7112C11.0574 14.3552 10.7492 14.9498 10.2417 15.298C9.70731 15.6648 8.97854 15.7295 8.34268 15.3239C6.4222 14.099 4.76504 11.4605 4.46702 7.04917C4.4657 7.02974 4.45738 7.01441 4.4477 7.00503C4.44555 7.00295 4.44373 7.00156 4.44245 7.00072L4.44127 7H3.04169ZM19.1924 18.0003C19.1923 18.0003 19.1919 18.0002 19.1912 18L19.1924 18.0003ZM1.04296 7.08248C0.972055 5.92333 1.90899 5 3.02018 5H4.44153C5.5454 5 6.39253 5.87913 6.46247 6.91436C6.70576 10.5155 7.91797 12.4574 9.05738 13.3775V7C9.05738 5.89543 9.95282 5 11.0574 5H12.2805C13.3851 5 14.2805 5.89543 14.2805 7V9.72492C15.2939 9.09748 16.3005 7.84862 16.8559 6.37463C17.1422 5.61457 17.8715 5 18.792 5H20.0669C21.2562 5 22.3452 6.11763 21.9277 7.44892C21.316 9.39968 20.1574 10.9792 19.0046 12.0783C18.9659 12.1152 18.9063 12.2187 18.914 12.3859C18.9217 12.5531 18.9905 12.6503 19.0322 12.6833C20.306 13.69 21.6677 15.232 22.5255 17.3989C23.0609 18.7515 21.9684 20 20.7022 20H19.1903C18.2945 20 17.5797 19.4164 17.2782 18.6881C16.667 17.2118 15.597 16.0984 14.2805 15.6067V18.6126C14.2805 19.3788 13.6593 20 12.8931 20C9.37669 20 6.49276 18.7881 4.44055 16.4919C2.40796 14.2177 1.28151 10.982 1.04296 7.08248Z" fill="currentColor"/>
</svg>
