<svg viewBox="0 0 200 200" fill="none" xmlns="http://www.w3.org/2000/svg">
<path d="M50.7972 124.019L169.145 32.2136L172.152 36.0733L50.7972 140.286L50.7972 124.019Z" fill="#4C5A66"/>
<path d="M86.7304 145.554L111.102 1.26959L115.177 1.71169L100.569 147.143L86.7304 145.554Z" fill="#4C5A66"/>
<path d="M40.2229 143.294L41.5012 151.85L46.0097 150.64L44.4232 142.979L40.2229 143.294Z" fill="#4C5A66"/>
<path fill-rule="evenodd" clip-rule="evenodd" d="M55.6913 130.16C55.8133 137.31 49.3962 143.217 41.3584 143.354C33.3206 143.491 26.7057 137.806 26.5837 130.657C26.4618 123.507 32.8788 117.601 40.9166 117.463C48.9545 117.326 55.5693 123.011 55.6913 130.16ZM45.842 126.123C47.6158 129.635 45.8423 134.107 41.8809 136.111C37.9194 138.115 33.2701 136.893 31.4964 133.381C29.7227 129.869 31.4961 125.398 35.4576 123.394C39.419 121.39 44.0683 122.612 45.842 126.123Z" fill="#4C5A66"/>
<path fill-rule="evenodd" clip-rule="evenodd" d="M104.76 151.405C107.503 159.582 103.548 168.284 95.926 170.84C88.3043 173.396 79.9022 168.839 77.1594 160.662C74.4167 152.484 78.3719 143.783 85.9936 141.226C93.6153 138.67 102.017 143.227 104.76 151.405ZM100.622 153.561C102.071 157.883 99.5658 162.621 95.0253 164.144C90.4849 165.667 85.629 163.398 84.1795 159.076C82.7299 154.754 85.2356 150.016 89.7761 148.493C94.3165 146.97 99.1724 149.239 100.622 153.561Z" fill="#4C5A66"/>
<path d="M124.245 42.4769C120.181 32.3113 110.94 26.4742 99.9292 24.5723L96.0622 37.2301L95.0791 26.0151C83.2162 25.2937 69.9768 28.4418 58.9659 35.197C62.9639 37.6236 68.3383 42.2801 73.3194 51.1341C65.7822 43.5262 59.2936 39.5912 55.2956 37.6892C50.0523 41.5587 45.4644 46.2808 42.0563 51.9867C45.9887 53.4951 51.2976 56.1841 54.1159 60.2503C48.4793 57.8237 43.1049 57.4302 39.238 57.5614C36.0265 65.1692 34.7812 74.0887 36.2886 84.3855C60.0146 79.2043 93.6372 102.159 100.978 120.851L117.953 110.357C108.646 92.8459 105.238 62.1523 124.245 42.4769Z" fill="#FFB6B6"/>
<path d="M96.3893 54.2148C96.3893 54.2148 95.9305 73.4311 102.747 90.9423" stroke="#E28888" stroke-miterlimit="10"/>
<path d="M88.4612 47.7227C88.4612 47.7227 88.3301 52.1168 93.7701 69.0377" stroke="#E28888" stroke-miterlimit="10"/>
<path d="M60.9961 52.6426C60.9961 52.6426 68.4023 57.0368 82.1659 74.9414" stroke="#E28888" stroke-miterlimit="10"/>
<path d="M96.3906 101.174C96.3906 101.174 104.19 109.241 109.892 122.882" stroke="#E28888" stroke-miterlimit="10"/>
<path d="M95.668 97.1738C95.668 97.1738 101.108 103.142 102.419 105.7" stroke="#E28888" stroke-miterlimit="10"/>
<path d="M136.02 97.3984L139.455 104.325" stroke="#E28888" stroke-width="2" stroke-miterlimit="10"/>
<path d="M143.983 101.392C146.079 100.979 147.444 98.9454 147.033 96.8486C146.622 94.7518 144.589 93.3863 142.494 93.7985C140.398 94.2107 139.033 96.2447 139.444 98.3415C139.855 100.438 141.888 101.804 143.983 101.392Z" stroke="#E28888" stroke-width="2" stroke-miterlimit="10"/>
<path d="M45.0344 98.7266C46.4869 98.073 47.1349 96.3649 46.4818 94.9114C45.8286 93.4579 44.1216 92.8095 42.6691 93.463C41.2166 94.1166 40.5686 95.8248 41.2217 97.2783C41.8749 98.7318 43.5819 99.3802 45.0344 98.7266Z" stroke="#4C5A66" stroke-width="2" stroke-miterlimit="10"/>
<path d="M52.7063 104.516C54.1588 103.862 54.8068 102.154 54.1537 100.7C53.5005 99.247 51.7935 98.5985 50.341 99.2521C48.8884 99.9057 48.2404 101.614 48.8936 103.067C49.5467 104.521 51.2537 105.169 52.7063 104.516Z" stroke="#4C5A66" stroke-width="2" stroke-miterlimit="10"/>
<path d="M152.222 96.6513C154.317 96.2391 155.683 94.2051 155.271 92.1084C154.86 90.0116 152.828 88.646 150.732 89.0583C148.636 89.4705 147.271 91.5045 147.682 93.6012C148.094 95.698 150.126 97.0636 152.222 96.6513Z" stroke="#E28888" stroke-width="2" stroke-miterlimit="10"/>
<path d="M45.4844 102.731L49.8756 95.3203" stroke="#4C5A66" stroke-width="2" stroke-miterlimit="10"/>
<path d="M100.715 120.981L108.973 141.181L130.864 125.572L119.394 109.504L100.715 120.981Z" fill="#FF7B89"/>
<path d="M91.4226 168.728C91.4226 168.728 93.6608 187.608 111.979 191.109L112.91 183.712C112.91 183.712 98.7687 184.273 96.8656 166.647L91.4226 168.728Z" fill="#4C5A66"/>
<path d="M164.907 77.797C161.14 79.9497 156.9 76.3917 147.777 76.3917C148.45 74.7098 151.747 70.9424 159.55 69.3278C169.305 67.3095 169.617 75.106 164.907 77.797Z" fill="#E3E7EB"/>
<path d="M43.2263 11.89C47.4762 12.6552 50.7139 17.5919 51.7717 20.5145C48.4191 18.953 47.3567 18.7617 43.3065 18.1057C36.8402 17.0582 39.716 11.258 43.2263 11.89Z" fill="#E3E7EB"/>
</svg>
