<svg width="16" height="16" viewBox="0 0 16 16" fill="none" xmlns="http://www.w3.org/2000/svg">
<g clip-path="url(#clip0_213_5333)">
<path d="M8.75 5.00001L8.75 0.75C8.75 0.335786 8.41421 0 8 0C7.58579 0 7.25 0.335786 7.25 0.75L7.25 5.00001H5.10355C4.88083 5.00001 4.76928 5.26929 4.92677 5.42678L7.82322 8.32323C7.92085 8.42086 8.07914 8.42086 8.17677 8.32323L11.0732 5.42678C11.2307 5.26929 11.1192 5.00001 10.8964 5.00001H8.75Z" fill="currentColor"/>
<path fill-rule="evenodd" clip-rule="evenodd" d="M1.5 2.75C1.5 2.61193 1.61193 2.5 1.75 2.5H4.75C5.16421 2.5 5.5 2.16421 5.5 1.75C5.5 1.33579 5.16421 1 4.75 1H1.75C0.783502 1 0 1.7835 0 2.75V10.25C0 11.2165 0.783501 12 1.75 12H5.47702C5.37792 13.041 4.95683 13.8724 4.18493 14.7568C3.99154 14.9784 3.94552 15.2926 4.06722 15.5604C4.18892 15.8281 4.45589 16 4.75 16H11.25C11.5441 16 11.8111 15.8281 11.9328 15.5604C12.0545 15.2926 12.0085 14.9784 11.8151 14.7568C11.0432 13.8724 10.6221 13.041 10.523 12H14.25C15.2165 12 16 11.2165 16 10.25V2.75C16 1.7835 15.2165 1 14.25 1H11.25C10.8358 1 10.5 1.33579 10.5 1.75C10.5 2.16421 10.8358 2.5 11.25 2.5H14.25C14.3881 2.5 14.5 2.61193 14.5 2.75V10.25C14.5 10.3881 14.3881 10.5 14.25 10.5H1.75C1.61193 10.5 1.5 10.3881 1.5 10.25V2.75ZM9.01783 12H6.98217C6.9139 12.9377 6.65098 13.7473 6.21732 14.5H9.78268C9.34901 13.7473 9.08609 12.9377 9.01783 12Z" fill="currentColor"/>
</g>
<defs>
<clipPath id="clip0_213_5333">
<rect width="16" height="16" fill="white"/>
</clipPath>
</defs>
</svg>
