<svg width="24" height="24" viewBox="0 0 24 24" fill="none" xmlns="http://www.w3.org/2000/svg">
<path fill-rule="evenodd" clip-rule="evenodd" d="M12 4.99995C10.6583 5.00029 9.34499 5.38622 8.2164 6.11177C7.08781 6.83731 6.19151 7.87192 5.63422 9.0924C5.07693 10.3129 4.88213 11.6678 5.07301 12.9958C5.26389 14.3239 5.83242 15.5691 6.71089 16.5832C7.58936 17.5973 8.74077 18.3376 10.028 18.7159C11.3153 19.0942 12.6841 19.0946 13.9716 18.7171C15.2591 18.3395 16.4109 17.5999 17.29 16.5863C18.1691 15.5728 18.7383 14.3279 18.93 12.9999H13C12.7348 12.9999 12.4804 12.8946 12.2929 12.7071C12.1054 12.5195 12 12.2652 12 11.9999C12 11.7347 12.1054 11.4804 12.2929 11.2928C12.4804 11.1053 12.7348 10.9999 13 10.9999H20C20.2652 10.9999 20.5196 11.1053 20.7071 11.2928C20.8947 11.4804 21 11.7347 21 11.9999C20.9998 14.0414 20.3056 16.022 19.0313 17.6169C17.7571 19.2118 15.9785 20.326 13.9875 20.7768C11.9964 21.2276 9.91133 20.9882 8.07436 20.0977C6.23738 19.2073 4.7577 17.7188 3.87817 15.8766C2.99864 14.0344 2.77154 11.9479 3.23412 9.95961C3.69671 7.9713 4.8215 6.19933 6.42389 4.93454C8.02627 3.66975 10.011 2.98729 12.0524 2.99918C14.0938 3.01106 16.0705 3.71659 17.658 4.99995C17.8642 5.16677 17.9957 5.40867 18.0236 5.67244C18.0514 5.93621 17.9733 6.20024 17.8065 6.40645C17.6397 6.61266 17.3978 6.74415 17.134 6.772C16.8702 6.79984 16.6062 6.72177 16.4 6.55495C15.1557 5.54622 13.6018 4.99706 12 4.99995Z" fill="currentColor"/>
</svg>
