<svg width="16" height="16" viewBox="0 0 16 16" fill="none" xmlns="http://www.w3.org/2000/svg">
<g clip-path="url(#clip0_927_24007)">
<path d="M6.64347 9.52494L5.36942 8.93777C4.10207 8.35369 3.46839 8.06166 3.39157 7.52248C3.31474 6.9833 3.84163 6.5259 4.89542 5.61109L9.97946 1.19757C10.6658 0.601738 11.009 0.30382 11.1705 0.425027C11.332 0.546234 11.1418 0.958964 10.7613 1.78442L8.85218 5.92698C8.75353 6.14104 8.7042 6.24807 8.74005 6.34522C8.77591 6.44237 8.88294 6.4917 9.097 6.59035L10.371 7.17751C11.6384 7.76159 12.2721 8.05363 12.3489 8.59281C12.4257 9.13199 11.8988 9.58939 10.8451 10.5042L5.76101 14.9177C5.07465 15.5135 4.73147 15.8115 4.56998 15.6903C4.4085 15.5691 4.59871 15.1563 4.97914 14.3309L6.88829 10.1883C6.98694 9.97425 7.03627 9.86721 7.00042 9.77007C6.96456 9.67292 6.85753 9.62359 6.64347 9.52494Z" fill="#112233"/>
</g>
<defs>
<clipPath id="clip0_927_24007">
<rect width="16" height="16" fill="white"/>
</clipPath>
</defs>
</svg>
