<svg width="16" height="16" viewBox="0 0 16 16" fill="none" xmlns="http://www.w3.org/2000/svg">
<path fill-rule="evenodd" clip-rule="evenodd" d="M10.6036 0.5H14.75C14.8881 0.5 15 0.61193 15 0.75V4.89645C15 5.11917 14.7307 5.23072 14.5732 5.07322L13.0303 3.53033L9.28033 7.28033C8.98744 7.57322 8.51256 7.57322 8.21967 7.28033C7.92678 6.98744 7.92678 6.51256 8.21967 6.21967L11.9697 2.46967L10.4268 0.92678C10.2693 0.76929 10.3808 0.5 10.6036 0.5ZM3.75 1.5C2.7835 1.5 2 2.2835 2 3.25V11.75C2 12.7165 2.7835 13.5 3.75 13.5H12.25C13.2165 13.5 14 12.7165 14 11.75V8.25C14 7.83579 13.6642 7.5 13.25 7.5C12.8358 7.5 12.5 7.83579 12.5 8.25V11.75C12.5 11.8881 12.3881 12 12.25 12H3.75C3.61193 12 3.5 11.8881 3.5 11.75V3.25C3.5 3.11193 3.61193 3 3.75 3H7.25C7.66421 3 8 2.66421 8 2.25C8 1.83579 7.66421 1.5 7.25 1.5H3.75Z" fill="currentColor"/>
</svg>
