<svg width="24" height="24" viewBox="0 0 24 24" fill="none" xmlns="http://www.w3.org/2000/svg">
<path fill-rule="evenodd" clip-rule="evenodd" d="M16.372 2.15048C17.649 2.38448 18.931 2.95948 19.552 4.14248C20.192 5.36248 20.125 6.54848 19.593 7.54748C19.09 8.49148 18.213 9.19748 17.331 9.67148C16.441 10.1495 15.438 10.4495 14.559 10.5085C14.122 10.5385 13.662 10.5105 13.243 10.3755C12.823 10.2395 12.36 9.96348 12.103 9.44348C11.9874 9.21333 11.965 8.94745 12.0406 8.70124C12.1161 8.45502 12.2838 8.24745 12.5086 8.12177C12.7334 7.99609 12.998 7.96199 13.2474 8.02658C13.4967 8.09117 13.7115 8.24946 13.847 8.46848C13.8503 8.46984 13.8536 8.47118 13.857 8.47248C13.957 8.50448 14.144 8.53248 14.426 8.51248C14.986 8.47548 15.714 8.26948 16.384 7.90948C17.061 7.54648 17.574 7.08348 17.828 6.60648C18.053 6.18548 18.11 5.69848 17.782 5.07248C17.582 4.69048 17.044 4.30648 16.012 4.11748C15.014 3.93448 13.747 3.97748 12.447 4.24748C11.15 4.51748 9.88397 5.00048 8.87997 5.64448C7.86597 6.29448 7.20497 7.05048 6.95097 7.83448C6.67697 8.68148 6.77397 9.27848 7.02097 9.76848C7.29297 10.3055 7.78897 10.8035 8.47397 11.3365C8.80597 11.5945 9.15797 11.8435 9.52897 12.1065L9.54897 12.1205C9.91997 12.3825 10.312 12.6595 10.677 12.9485C10.986 13.1915 11.3 13.4615 11.589 13.7655C12.882 13.5155 14.002 13.5425 14.921 13.9625C16.103 14.5035 16.695 15.5695 16.974 16.7755C17.0075 16.9048 17.0147 17.0394 16.9953 17.1716C16.9759 17.3037 16.9302 17.4306 16.861 17.5448C16.7917 17.659 16.7003 17.7581 16.5921 17.8364C16.4839 17.9147 16.3611 17.9705 16.231 18.0006C16.1009 18.0306 15.9661 18.0343 15.8345 18.0114C15.7029 17.9885 15.5773 17.9395 15.4649 17.8673C15.3526 17.795 15.2559 17.701 15.1805 17.5908C15.1051 17.4806 15.0526 17.3564 15.026 17.2255C14.826 16.3595 14.499 15.9695 14.089 15.7815C13.789 15.6445 13.339 15.5655 12.671 15.6265C13.287 17.7915 12.211 19.7525 10.895 20.8635C10.185 21.4625 9.31797 21.8985 8.44897 21.9845C7.54197 22.0755 6.57197 21.7705 6.00197 20.8235C5.49997 19.9865 5.49597 19.0965 5.75797 18.3035C6.00997 17.5415 6.50797 16.8555 7.05397 16.2875C7.74827 15.5769 8.54635 14.9757 9.42097 14.5045C9.08533 14.2456 8.74322 13.9952 8.39497 13.7535L8.35897 13.7275C7.98182 13.4653 7.61072 13.1946 7.24597 12.9155C6.49597 12.3305 5.71097 11.6115 5.23597 10.6695C4.73597 9.67948 4.62197 8.53548 5.04897 7.21748C5.49597 5.83548 6.56397 4.75348 7.79997 3.96048C9.04597 3.16248 10.55 2.59948 12.04 2.29048C13.526 1.98048 15.06 1.91048 16.372 2.15048ZM10.722 16.0905C9.89186 16.4818 9.13808 17.0178 8.49597 17.6735C8.06597 18.1205 7.78097 18.5555 7.65597 18.9325C7.54197 19.2785 7.56797 19.5455 7.71597 19.7935C7.79897 19.9305 7.92597 20.0275 8.25097 19.9945C8.61597 19.9585 9.11697 19.7475 9.60597 19.3345C10.541 18.5465 11.107 17.3245 10.722 16.0905ZM13.812 8.45448H13.814H13.812Z" fill="currentColor"/>
</svg>
