<svg width="24" height="24" viewBox="0 0 24 24" fill="none" xmlns="http://www.w3.org/2000/svg">
<path fill-rule="evenodd" clip-rule="evenodd" d="M6 2.00049C4.93913 2.00049 3.92172 2.42192 3.17157 3.17206C2.42143 3.92221 2 4.93962 2 6.00049V18.0005C2 19.0614 2.42143 20.0788 3.17157 20.8289C3.92172 21.5791 4.93913 22.0005 6 22.0005H18C19.0609 22.0005 20.0783 21.5791 20.8284 20.8289C21.5786 20.0788 22 19.0614 22 18.0005V6.00049C22 4.93962 21.5786 3.92221 20.8284 3.17206C20.0783 2.42192 19.0609 2.00049 18 2.00049H6ZM4 6.00049C4 5.47006 4.21071 4.96135 4.58579 4.58627C4.96086 4.2112 5.46957 4.00049 6 4.00049H18C18.5304 4.00049 19.0391 4.2112 19.4142 4.58627C19.7893 4.96135 20 5.47006 20 6.00049V18.0005C20 18.5309 19.7893 19.0396 19.4142 19.4147C19.0391 19.7898 18.5304 20.0005 18 20.0005H6C5.46957 20.0005 4.96086 19.7898 4.58579 19.4147C4.21071 19.0396 4 18.5309 4 18.0005V6.00049ZM9.857 7.48649C9.7915 7.36986 9.70328 7.26755 9.59754 7.18563C9.4918 7.1037 9.3707 7.04383 9.2414 7.00954C9.11211 6.97525 8.97725 6.96725 8.84481 6.98601C8.71237 7.00478 8.58504 7.04992 8.47036 7.11877C8.35568 7.18762 8.25597 7.27878 8.17715 7.38685C8.09832 7.49492 8.04198 7.6177 8.01146 7.74794C7.98094 7.87817 7.97685 8.0132 7.99944 8.14504C8.02204 8.27688 8.07085 8.40285 8.143 8.51549L11 13.2765V16.0005C11 16.2657 11.1054 16.5201 11.2929 16.7076C11.4804 16.8951 11.7348 17.0005 12 17.0005C12.2652 17.0005 12.5196 16.8951 12.7071 16.7076C12.8946 16.5201 13 16.2657 13 16.0005V13.2775L15.857 8.51549C15.9879 8.28844 16.0245 8.01907 15.9588 7.76534C15.8931 7.51162 15.7304 7.29382 15.5058 7.15882C15.2811 7.02383 15.0125 6.98242 14.7576 7.04351C14.5027 7.1046 14.282 7.26332 14.143 7.48549L12 11.0565L9.857 7.48649Z" fill="currentColor"/>
</svg>
