<svg width="24" height="24" viewBox="0 0 24 24" fill="none" xmlns="http://www.w3.org/2000/svg">
<path fill-rule="evenodd" clip-rule="evenodd" d="M11.5 8.50049C11.5 9.39649 11.163 10.2145 10.609 10.8335C11.3866 11.3866 11.9682 12.1725 12.2699 13.0778C12.5716 13.9831 12.5777 14.9609 12.2873 15.8699C11.9969 16.7788 11.4251 17.572 10.6545 18.1347C9.88382 18.6975 8.95424 19.0006 8 19.0005H3.5C3.10218 19.0005 2.72064 18.8425 2.43934 18.5611C2.15804 18.2798 2 17.8983 2 17.5005V5.50049C2 5.10266 2.15804 4.72113 2.43934 4.43983C2.72064 4.15852 3.10218 4.00049 3.5 4.00049H7.5C8.56087 4.00049 9.57828 4.42192 10.3284 5.17206C11.0786 5.92221 11.5 6.93962 11.5 8.00049V8.50049ZM4 10.0005V6.00049H7.5C8.03043 6.00049 8.53914 6.2112 8.91421 6.58627C9.28929 6.96135 9.5 7.47006 9.5 8.00049V8.50049C9.5 8.89831 9.34196 9.27984 9.06066 9.56115C8.77936 9.84245 8.39782 10.0005 8 10.0005H4ZM4 12.0005H8C8.66304 12.0005 9.29893 12.2639 9.76777 12.7327C10.2366 13.2016 10.5 13.8374 10.5 14.5005C10.5 15.1635 10.2366 15.7994 9.76777 16.2683C9.29893 16.7371 8.66304 17.0005 8 17.0005H4V12.0005Z" fill="currentColor"/>
<path d="M15 6.00049C15 5.73527 15.1054 5.48092 15.2929 5.29338C15.4804 5.10585 15.7348 5.00049 16 5.00049H19.5C19.7652 5.00049 20.0196 5.10585 20.2071 5.29338C20.3946 5.48092 20.5 5.73527 20.5 6.00049C20.5 6.2657 20.3946 6.52006 20.2071 6.70759C20.0196 6.89513 19.7652 7.00049 19.5 7.00049H16C15.7348 7.00049 15.4804 6.89513 15.2929 6.70759C15.1054 6.52006 15 6.2657 15 6.00049Z" fill="currentColor"/>
<path fill-rule="evenodd" clip-rule="evenodd" d="M17.75 8.00049C14.909 8.00049 12.5 10.1825 12.5 13.0005V14.0005C12.5 16.8185 14.909 19.0005 17.75 19.0005C19.265 19.0005 20.362 18.5645 21.097 18.0905C21.539 17.8065 21.886 17.4605 22.22 17.0625C22.3653 16.8442 22.4191 16.5776 22.3698 16.3201C22.3204 16.0626 22.1719 15.8347 21.9562 15.6856C21.7405 15.5366 21.4749 15.4782 21.2165 15.523C20.9582 15.5679 20.7278 15.7124 20.575 15.9255C20.4163 16.1166 20.2271 16.2801 20.015 16.4095C19.584 16.6865 18.859 17.0005 17.75 17.0005C15.897 17.0005 14.5 15.6005 14.5 14.0005H22C22.2652 14.0005 22.5196 13.8951 22.7071 13.7076C22.8946 13.5201 23 13.2657 23 13.0005C23 10.1825 20.591 8.00049 17.75 8.00049ZM20.813 12.0005C20.373 10.8595 19.201 10.0005 17.75 10.0005C16.299 10.0005 15.127 10.8595 14.687 12.0005H20.813Z" fill="currentColor"/>
</svg>
