<svg width="24" height="24" viewBox="0 0 24 24" fill="none" xmlns="http://www.w3.org/2000/svg">
<path fill-rule="evenodd" clip-rule="evenodd" d="M6 5.00051C5.73479 5.00051 5.48043 5.10587 5.2929 5.2934C5.10536 5.48094 5 5.73529 5 6.00051C5 6.26573 5.10536 6.52008 5.2929 6.70762C5.48043 6.89515 5.73479 7.00051 6 7.00051C6.26522 7.00051 6.51957 6.89515 6.70711 6.70762C6.89465 6.52008 7 6.26573 7 6.00051C7 5.73529 6.89465 5.48094 6.70711 5.2934C6.51957 5.10587 6.26522 5.00051 6 5.00051ZM3 6.00051C2.99895 5.29203 3.24866 4.60604 3.70493 4.06404C4.16119 3.52203 4.79455 3.15899 5.49283 3.03922C6.19111 2.91945 6.90925 3.05067 7.52005 3.40964C8.13085 3.76862 8.5949 4.33218 8.83 5.00051H15.17C15.3722 4.42812 15.7433 3.93052 16.2342 3.57339C16.7251 3.21627 17.3127 3.01642 17.9196 3.00023C18.5264 2.98403 19.1239 3.15226 19.6331 3.4827C20.1424 3.81313 20.5394 4.29024 20.7719 4.85103C21.0043 5.41182 21.0613 6.02991 20.9351 6.62372C20.809 7.21753 20.5057 7.75912 20.0654 8.17699C19.625 8.59487 19.0683 8.86937 18.4687 8.96427C17.8691 9.05916 17.2549 8.96998 16.707 8.70851L8.707 16.7075C8.753 16.8025 8.794 16.9005 8.829 17.0005H15.171C15.4069 16.333 15.8712 15.7704 16.4818 15.4121C17.0924 15.0539 17.81 14.923 18.5078 15.0427C19.2056 15.1624 19.8385 15.5249 20.2949 16.0661C20.7512 16.6074 21.0015 17.2926 21.0015 18.0005C21.0015 18.7085 20.7512 19.3936 20.2949 19.9349C19.8385 20.4761 19.2056 20.8386 18.5078 20.9583C17.81 21.078 17.0924 20.9471 16.4818 20.5889C15.8712 20.2306 15.4069 19.668 15.171 19.0005H8.829C8.6267 19.5729 8.25556 20.0705 7.76458 20.4275C7.27361 20.7846 6.68589 20.9843 6.07903 21.0004C5.47216 21.0165 4.87469 20.8481 4.36549 20.5176C3.8563 20.187 3.45933 19.7098 3.227 19.1489C2.99467 18.5881 2.9379 17.9699 3.06419 17.3761C3.19048 16.7824 3.49389 16.2408 3.93436 15.8231C4.37483 15.4053 4.93165 15.1309 5.53129 15.0362C6.13094 14.9415 6.74521 15.0309 7.293 15.2925L15.293 7.29351C15.2468 7.19811 15.2057 7.1003 15.17 7.00051H8.829C8.59236 7.66695 8.12795 8.22841 7.51771 8.58583C6.90747 8.94326 6.1906 9.07369 5.49357 8.95411C4.79655 8.83453 4.16414 8.47262 3.70793 7.93224C3.25171 7.39186 3.00099 6.70772 3 6.00051ZM18 5.00051C17.7348 5.00051 17.4804 5.10587 17.2929 5.2934C17.1054 5.48094 17 5.73529 17 6.00051C17 6.26573 17.1054 6.52008 17.2929 6.70762C17.4804 6.89515 17.7348 7.00051 18 7.00051C18.2652 7.00051 18.5196 6.89515 18.7071 6.70762C18.8946 6.52008 19 6.26573 19 6.00051C19 5.73529 18.8946 5.48094 18.7071 5.2934C18.5196 5.10587 18.2652 5.00051 18 5.00051ZM5 18.0005C5 17.7353 5.10536 17.4809 5.2929 17.2934C5.48043 17.1059 5.73479 17.0005 6 17.0005C6.26522 17.0005 6.51957 17.1059 6.70711 17.2934C6.89465 17.4809 7 17.7353 7 18.0005C7 18.2657 6.89465 18.5201 6.70711 18.7076C6.51957 18.8952 6.26522 19.0005 6 19.0005C5.73479 19.0005 5.48043 18.8952 5.2929 18.7076C5.10536 18.5201 5 18.2657 5 18.0005ZM18 17.0005C17.7348 17.0005 17.4804 17.1059 17.2929 17.2934C17.1054 17.4809 17 17.7353 17 18.0005C17 18.2657 17.1054 18.5201 17.2929 18.7076C17.4804 18.8952 17.7348 19.0005 18 19.0005C18.2652 19.0005 18.5196 18.8952 18.7071 18.7076C18.8946 18.5201 19 18.2657 19 18.0005C19 17.7353 18.8946 17.4809 18.7071 17.2934C18.5196 17.1059 18.2652 17.0005 18 17.0005Z" fill="currentColor"/>
</svg>
