<svg width="24" height="24" viewBox="0 0 24 24" fill="none" xmlns="http://www.w3.org/2000/svg">
<path fill-rule="evenodd" clip-rule="evenodd" d="M13.4139 3.828C13.0389 3.45306 12.5303 3.24243 11.9999 3.24243C11.4696 3.24243 10.961 3.45306 10.5859 3.828L9.91394 4.5L11.4819 6.068C11.8211 5.97763 12.178 5.978 12.5169 6.06907C12.8559 6.16013 13.1649 6.3387 13.4131 6.58687C13.6612 6.83503 13.8398 7.14408 13.9309 7.48302C14.0219 7.82196 14.0223 8.17888 13.9319 8.518L15.9819 10.568C16.4072 10.454 16.8582 10.4835 17.265 10.652C17.6718 10.8205 18.0116 11.1184 18.2318 11.4997C18.4519 11.881 18.5401 12.3243 18.4826 12.7608C18.4252 13.1973 18.2253 13.6027 17.914 13.914C17.6026 14.2254 17.1973 14.4252 16.7608 14.4827C16.3242 14.5402 15.881 14.452 15.4997 14.2318C15.1184 14.0117 14.8204 13.6718 14.6519 13.2651C14.4835 12.8583 14.454 12.4073 14.5679 11.982L12.9999 10.414V15.268C13.3812 15.4881 13.6792 15.8279 13.8476 16.2347C14.0161 16.6414 14.0457 17.0924 13.9317 17.5176C13.8178 17.9429 13.5667 18.3187 13.2174 18.5867C12.8681 18.8547 12.4402 19 11.9999 19C11.5597 19 11.1317 18.8547 10.7825 18.5867C10.4332 18.3187 10.1821 17.9429 10.0682 17.5176C9.95424 17.0924 9.98379 16.6414 10.1523 16.2347C10.3207 15.8279 10.6187 15.4881 10.9999 15.268V9.73201C10.6186 9.51188 10.3205 9.17204 10.152 8.76522C9.98347 8.3584 9.95393 7.90733 10.0679 7.482L8.49994 5.914L3.82794 10.586C3.453 10.9611 3.24237 11.4697 3.24237 12C3.24237 12.5303 3.453 13.0389 3.82794 13.414L10.5859 20.172C10.961 20.5469 11.4696 20.7576 11.9999 20.7576C12.5303 20.7576 13.0389 20.5469 13.4139 20.172L20.1719 13.414C20.5469 13.0389 20.7575 12.5303 20.7575 12C20.7575 11.4697 20.5469 10.9611 20.1719 10.586L13.4139 3.828ZM9.17194 2.414C9.92205 1.66412 10.9393 1.24286 11.9999 1.24286C13.0606 1.24286 14.0778 1.66412 14.8279 2.414L21.5859 9.172C22.3358 9.92212 22.7571 10.9393 22.7571 12C22.7571 13.0607 22.3358 14.0779 21.5859 14.828L14.8279 21.586C14.0778 22.3359 13.0606 22.7571 11.9999 22.7571C10.9393 22.7571 9.92205 22.3359 9.17194 21.586L2.41394 14.828C1.66406 14.0779 1.2428 13.0607 1.2428 12C1.2428 10.9393 1.66406 9.92212 2.41394 9.172L9.17194 2.414Z" fill="currentColor"/>
</svg>
