<svg width="24" height="24" viewBox="0 0 24 24" fill="none" xmlns="http://www.w3.org/2000/svg">
<path fill-rule="evenodd" clip-rule="evenodd" d="M4 12C4 9.556 4.692 7.434 5.993 5.939C7.277 4.464 9.24 3.5 12 3.5C14.761 3.5 16.723 4.464 18.007 5.939C19.308 7.434 20 9.556 20 12C20 14.444 19.308 16.566 18.007 18.061C16.723 19.536 14.76 20.5 12 20.5C9.239 20.5 7.277 19.536 5.993 18.061C4.692 16.566 4 14.444 4 12ZM12 1.5C8.732 1.5 6.193 2.663 4.485 4.626C2.794 6.569 2 9.197 2 12C2 14.803 2.794 17.431 4.485 19.374C6.193 21.337 8.732 22.5 12 22.5C15.268 22.5 17.807 21.337 19.515 19.374C21.206 17.431 22 14.803 22 12C22 9.197 21.206 6.569 19.515 4.626C17.807 2.663 15.268 1.5 12 1.5ZM10 12C10 9.695 10.253 8.26 10.651 7.43C10.841 7.035 11.045 6.82 11.233 6.696C11.418 6.576 11.658 6.5 12 6.5C12.342 6.5 12.582 6.576 12.767 6.696C12.955 6.819 13.159 7.036 13.349 7.431C13.747 8.26 14 9.695 14 12C14 14.305 13.747 15.74 13.349 16.57C13.159 16.965 12.955 17.18 12.767 17.304C12.582 17.424 12.342 17.5 12 17.5C11.658 17.5 11.418 17.424 11.233 17.304C11.045 17.181 10.841 16.964 10.651 16.569C10.253 15.74 10 14.305 10 12ZM12 4.5C11.342 4.5 10.707 4.652 10.142 5.02C9.58 5.386 9.159 5.919 8.849 6.565C8.247 7.817 8 9.63 8 12C8 14.369 8.247 16.183 8.849 17.436C9.159 18.081 9.58 18.614 10.142 18.979C10.707 19.348 11.342 19.5 12 19.5C12.658 19.5 13.293 19.348 13.858 18.98C14.42 18.614 14.841 18.081 15.151 17.436C15.753 16.183 16 14.369 16 12C16 9.631 15.753 7.817 15.151 6.565C14.841 5.919 14.42 5.386 13.858 5.021C13.293 4.652 12.658 4.5 12 4.5Z" fill="currentColor"/>
</svg>
