<svg width="16" height="16" viewBox="0 0 16 20" fill="none" xmlns="http://www.w3.org/2000/svg">
<path fill-rule="evenodd" clip-rule="evenodd" d="M8 0C5.23858 0 3 2.23858 3 5V7.94722C3 7.99658 2.98539 8.04483 2.95801 8.0859L1.25488 10.6406C1.08868 10.8899 1 11.1828 1 11.4824C1 12.3206 1.67945 13 2.51759 13H13.4824C14.3206 13 15 12.3206 15 11.4824C15 11.1828 14.9113 10.8899 14.7451 10.6406L13.042 8.0859C13.0146 8.04483 13 7.99658 13 7.94722V5C13 2.23858 10.7614 0 8 0Z" fill="currentColor"/>
<path d="M9.98458 14.2495C9.86177 15.2363 9.02007 16 7.99999 16C6.97991 16 6.13821 15.2363 6.0154 14.2495C5.99835 14.1125 6.11192 14 6.24999 14H9.74999C9.88806 14 10.0016 14.1125 9.98458 14.2495Z" fill="currentColor"/>
</svg>
