<svg viewBox="0 0 16 16" fill="none" xmlns="http://www.w3.org/2000/svg">
<path fill-rule="evenodd" clip-rule="evenodd" d="M13.7801 4.22C13.9205 4.36062 13.9994 4.55125 13.9994 4.75C13.9994 4.94875 13.9205 5.13937 13.7801 5.28L6.5301 12.53C6.38947 12.6704 6.19884 12.7493 6.0001 12.7493C5.80135 12.7493 5.61071 12.6704 5.47009 12.53L2.2201 9.28C2.08762 9.13782 2.0155 8.94978 2.01892 8.75547C2.02235 8.56117 2.10106 8.37579 2.23848 8.23837C2.37589 8.10096 2.56128 8.02225 2.75558 8.01882C2.94988 8.01539 3.13792 8.08752 3.2801 8.22L6.0001 10.94L12.7201 4.22C12.8607 4.07955 13.0513 4.00066 13.2501 4.00066C13.4488 4.00066 13.6395 4.07955 13.7801 4.22Z" fill="#FFFFFF"/>
</svg>
