<svg width="17" height="16" viewBox="0 0 17 16" fill="none" xmlns="http://www.w3.org/2000/svg">
<path fill-rule="evenodd" clip-rule="evenodd" d="M15 11.28V13.28C15.0015 13.6554 14.8447 14.0141 14.568 14.2679C14.2914 14.5217 13.9205 14.6471 13.5466 14.6133C11.4952 14.3904 9.52463 13.6894 7.79329 12.5667C6.18251 11.5431 4.81685 10.1774 3.79329 8.56667C2.66661 6.82747 1.96546 4.84733 1.74663 2.78667C1.71294 2.41391 1.83747 2.04417 2.0898 1.76775C2.34213 1.49133 2.69902 1.33369 3.07329 1.33333H5.07329C5.74254 1.32675 6.31296 1.81731 6.40663 2.48C6.49104 3.12004 6.64759 3.74848 6.87329 4.35333C7.05645 4.84058 6.9393 5.38987 6.57329 5.76L5.72663 6.60667C6.67566 8.2757 8.0576 9.65763 9.72663 10.6067L10.5733 9.76C10.9434 9.39399 11.4927 9.27684 11.98 9.46C12.5848 9.6857 13.2132 9.84225 13.8533 9.92667C14.5237 10.0212 15.0168 10.6032 15 11.28Z" stroke="currentColor" stroke-width="1.5" stroke-linecap="round" stroke-linejoin="round"/>
</svg>
