<svg viewBox="0 0 16 16" fill="none" xmlns="http://www.w3.org/2000/svg">
<path fill-rule="evenodd" clip-rule="evenodd" d="M10.5001 4.99998C10.5001 5.66302 10.2367 6.2989 9.76783 6.76774C9.29899 7.23659 8.6631 7.49998 8.00006 7.49998C7.33702 7.49998 6.70114 7.23659 6.2323 6.76774C5.76345 6.2989 5.50006 5.66302 5.50006 4.99998C5.50006 4.33694 5.76345 3.70105 6.2323 3.23221C6.70114 2.76337 7.33702 2.49998 8.00006 2.49998C8.6631 2.49998 9.29899 2.76337 9.76783 3.23221C10.2367 3.70105 10.5001 4.33694 10.5001 4.99998ZM10.5611 8.07298C11.1924 7.54662 11.6462 6.83856 11.8609 6.04512C12.0755 5.25167 12.0404 4.41138 11.7605 3.63856C11.4806 2.86574 10.9694 2.19791 10.2965 1.72592C9.62351 1.25394 8.82151 1.00073 7.99956 1.00073C7.17761 1.00073 6.37561 1.25394 5.70268 1.72592C5.02975 2.19791 4.51855 2.86574 4.23865 3.63856C3.95874 4.41138 3.9237 5.25167 4.13831 6.04512C4.35292 6.83856 4.80675 7.54662 5.43806 8.07298C4.45365 8.53838 3.61433 9.26273 3.00996 10.1685C2.40559 11.0743 2.05892 12.1273 2.00706 13.215C2.00224 13.411 2.07434 13.6011 2.20794 13.7445C2.34153 13.888 2.52599 13.9735 2.72183 13.9826C2.91766 13.9918 3.10929 13.9239 3.25568 13.7935C3.40207 13.6631 3.49159 13.4806 3.50506 13.285C3.55958 12.1295 4.05696 11.0394 4.89397 10.241C5.73097 9.44251 6.8433 8.99705 8.00006 8.99705C9.15682 8.99705 10.2692 9.44251 11.1062 10.241C11.9432 11.0394 12.4406 12.1295 12.4951 13.285C12.4976 13.3849 12.5199 13.4832 12.5609 13.5743C12.6019 13.6654 12.6607 13.7474 12.7338 13.8154C12.8069 13.8835 12.8929 13.9363 12.9866 13.9707C13.0804 14.0051 13.1801 14.0204 13.2799 14.0157C13.3797 14.0111 13.4775 13.9865 13.5677 13.9435C13.6578 13.9005 13.7385 13.84 13.8049 13.7654C13.8714 13.6908 13.9222 13.6037 13.9545 13.5092C13.9869 13.4147 14 13.3146 13.9931 13.215C13.9411 12.1272 13.5943 11.0741 12.9898 10.1683C12.3852 9.26253 11.5457 8.53824 10.5611 8.07298Z" fill="currentColor"/>
</svg>
