<svg width="16" height="16" viewBox="0 0 16 16" fill="none" xmlns="http://www.w3.org/2000/svg">
<g clip-path="url(#clip0_213_5417)">
<path fill-rule="evenodd" clip-rule="evenodd" d="M0 0.25C-0.414214 0.25 -0.75 0.585786 -0.75 1C-0.75 1.41421 -0.414214 1.75 0 1.75L1.4848 1.75C1.87636 1.76654 2.14395 1.83184 2.3292 1.94802C2.4841 2.04516 2.65516 2.22364 2.76292 2.64379L3.75698 9.60884C3.8957 10.6491 4.78668 11.4238 5.83621 11.4167H12.8736C13.879 11.4321 14.7526 10.7263 14.949 9.73945L16.0687 4.14726C16.1129 3.92691 16.0558 3.69838 15.9134 3.52458C15.7709 3.35077 15.5581 3.25 15.3333 3.25H4.36464L4.24248 2.39403C4.23911 2.37043 4.23462 2.34701 4.22902 2.32383C4.04588 1.56599 3.67042 1.01858 3.12617 0.677254C2.61056 0.353886 2.02746 0.269994 1.52922 0.250569C1.51948 0.25019 1.50974 0.25 1.5 0.25H0ZM5.24369 9.40919L4.57872 4.75H14.4183L13.4777 9.44722C13.4227 9.72437 13.1769 9.92222 12.8944 9.9168L12.88 9.91667L5.83333 9.91664L5.82697 9.91669C5.53224 9.91919 5.28199 9.70143 5.24369 9.40919ZM3.25 13.9998C3.25 12.8492 4.18274 11.9165 5.33333 11.9165C6.48393 11.9165 7.41667 12.8492 7.41667 13.9998C7.41667 15.1504 6.48393 16.0832 5.33333 16.0832C4.18274 16.0832 3.25 15.1504 3.25 13.9998ZM5.33333 13.4165C5.01117 13.4165 4.75 13.6777 4.75 13.9998C4.75 14.322 5.01117 14.5832 5.33333 14.5832C5.6555 14.5832 5.91667 14.322 5.91667 13.9998C5.91667 13.6777 5.6555 13.4165 5.33333 13.4165ZM11.25 13.9998C11.25 12.8492 12.1827 11.9165 13.3333 11.9165C14.4839 11.9165 15.4167 12.8492 15.4167 13.9998C15.4167 15.1504 14.4839 16.0832 13.3333 16.0832C12.1827 16.0832 11.25 15.1504 11.25 13.9998ZM13.3333 13.4165C13.0112 13.4165 12.75 13.6777 12.75 13.9998C12.75 14.322 13.0112 14.5832 13.3333 14.5832C13.6555 14.5832 13.9167 14.322 13.9167 13.9998C13.9167 13.6777 13.6555 13.4165 13.3333 13.4165Z" fill="currentColor"/>
</g>
<defs>
<clipPath id="clip0_213_5417">
<rect width="16" height="16" fill="white"/>
</clipPath>
</defs>
</svg>
