<svg width="24" height="24" viewBox="0 0 24 24" fill="none" xmlns="http://www.w3.org/2000/svg">
<path fill-rule="evenodd" clip-rule="evenodd" d="M3.5 12.0005C3.50061 10.192 4.07801 8.43086 5.14826 6.97307C6.21851 5.51528 7.72583 4.43684 9.45108 3.89452C11.1763 3.35221 13.0296 3.37429 14.7414 3.95756C16.4533 4.54083 17.9344 5.65489 18.9697 7.13777C20.0049 8.62065 20.5401 10.3951 20.4977 12.203C20.4552 14.011 19.8371 15.7583 18.7334 17.1909C17.6297 18.6236 16.0978 19.6668 14.3605 20.169C12.6231 20.6712 10.7709 20.6062 9.073 19.9835C9.64991 18.4371 10.2096 16.8843 10.752 15.3255C11.326 15.7355 12.067 16.0005 13 16.0005C14.935 16.0005 16.975 14.7255 17.48 12.1965C18.117 9.02149 15.574 6.00049 12 6.00049C10.497 6.00049 9.019 6.60449 7.913 7.56249C6.805 8.52349 6 9.90749 6 11.5005C6 12.2755 6.234 13.1385 6.791 13.7065C6.97976 13.8923 7.23394 13.9965 7.4988 13.9967C7.76365 13.9969 8.01798 13.893 8.207 13.7075C8.39081 13.5238 8.4959 13.2758 8.50001 13.0159C8.50411 12.7561 8.40692 12.5049 8.229 12.3155C7.443 11.3355 8.479 9.71949 9.223 9.07449C9.996 8.40449 11.017 8.00049 12 8.00049C14.427 8.00049 15.884 9.97949 15.52 11.8045C15.216 13.3185 14.064 14.0005 13 14.0005C12.182 14.0005 11.742 13.6555 11.46 13.2085C11.614 12.7245 11.745 12.2845 11.839 11.9265C12.031 11.1895 12.147 10.3005 11.484 9.74749C10.991 9.33749 10.409 9.42749 10.053 9.60649C9.39 9.93649 9 10.7105 9 11.5005C9 11.9415 9.069 12.6255 9.317 13.3325C8.6717 15.2571 7.99226 17.17 7.279 19.0705C6.11564 18.2943 5.16198 17.2429 4.50273 16.0095C3.84347 14.7761 3.49903 13.399 3.5 12.0005ZM12 1.50049C6.201 1.50049 1.5 6.20149 1.5 12.0005C1.5 17.7995 6.201 22.5005 12 22.5005C17.799 22.5005 22.5 17.7995 22.5 12.0005C22.5 6.20149 17.799 1.50049 12 1.50049Z" fill="currentColor"/>
</svg>
