<svg width="24" height="24" viewBox="0 0 24 24" fill="none" xmlns="http://www.w3.org/2000/svg">
<path fill-rule="evenodd" clip-rule="evenodd" d="M4 12.0005C4 9.87876 4.84285 7.84392 6.34315 6.34363C7.84344 4.84334 9.87827 4.00049 12 4.00049C14.1217 4.00049 16.1566 4.84334 17.6569 6.34363C19.1571 7.84392 20 9.87876 20 12.0005C20 14.1222 19.1571 16.1571 17.6569 17.6573C16.1566 19.1576 14.1217 20.0005 12 20.0005C9.87827 20.0005 7.84344 19.1576 6.34315 17.6573C4.84285 16.1571 4 14.1222 4 12.0005ZM12 2.00049C6.477 2.00049 2 6.47749 2 12.0005C2 17.5235 6.477 22.0005 12 22.0005C17.523 22.0005 22 17.5235 22 12.0005C22 6.47749 17.523 2.00049 12 2.00049ZM9.967 14.7445C9.90041 14.4882 9.73491 14.2688 9.50679 14.1344C9.27868 14 9.00657 13.9616 8.75015 14.0275C8.49372 14.0934 8.2739 14.2584 8.1389 14.4861C8.0039 14.7139 7.96474 14.9859 8.03 15.2425C8.469 17.0005 10.283 18.0005 12 18.0005C13.785 18.0005 15.452 16.9885 15.97 15.2405C16.0291 14.9859 15.9863 14.7184 15.8506 14.495C15.7149 14.2717 15.4972 14.1103 15.244 14.0455C14.9908 13.9807 14.7224 14.0175 14.496 14.1482C14.2697 14.2788 14.1035 14.4928 14.033 14.7445C13.773 15.6145 12.84 16.0005 12 16.0005C11.16 16.0005 10.228 15.6155 9.967 14.7445ZM10.5 10.0005C10.5 10.3983 10.342 10.7798 10.0607 11.0611C9.77936 11.3425 9.39782 11.5005 9 11.5005C8.60218 11.5005 8.22064 11.3425 7.93934 11.0611C7.65804 10.7798 7.5 10.3983 7.5 10.0005C7.5 9.60266 7.65804 9.22113 7.93934 8.93983C8.22064 8.65852 8.60218 8.50049 9 8.50049C9.39782 8.50049 9.77936 8.65852 10.0607 8.93983C10.342 9.22113 10.5 9.60266 10.5 10.0005ZM15 11.5005C15.3978 11.5005 15.7794 11.3425 16.0607 11.0611C16.342 10.7798 16.5 10.3983 16.5 10.0005C16.5 9.60266 16.342 9.22113 16.0607 8.93983C15.7794 8.65852 15.3978 8.50049 15 8.50049C14.6022 8.50049 14.2206 8.65852 13.9393 8.93983C13.658 9.22113 13.5 9.60266 13.5 10.0005C13.5 10.3983 13.658 10.7798 13.9393 11.0611C14.2206 11.3425 14.6022 11.5005 15 11.5005Z" fill="currentColor"/>
</svg>
