<svg viewBox="0 0 24 24" fill="none" xmlns="http://www.w3.org/2000/svg">
<path fill-rule="evenodd" clip-rule="evenodd" d="M3.40589 3.40589C2 4.81177 2 7.0745 2 11.6V12.4C2 16.9255 2 19.1882 3.40589 20.5941C4.81177 22 7.0745 22 11.6 22H12.4C16.9255 22 19.1882 22 20.5941 20.5941C22 19.1882 22 16.9255 22 12.4V11.6C22 7.0745 22 4.81177 20.5941 3.40589C19.1882 2 16.9255 2 12.4 2H11.6C7.0745 2 4.81177 2 3.40589 3.40589ZM5 8C5.11368 12.997 7.84193 16 12.6252 16H12.8964V13.1411C14.654 13.3013 15.983 14.4785 16.5165 16H19C18.3179 13.7257 16.5252 12.4685 15.4059 11.988C16.5252 11.3954 18.0992 9.95395 18.4752 8H16.2191C15.7294 9.58559 14.278 11.027 12.8964 11.1632V8H10.6402V13.5415C9.24106 13.2212 7.4747 11.6677 7.396 8H5Z" fill="currentColor"/>
</svg>
