
<svg width="16" height="16" viewBox="0 0 16 16" fill="none" xmlns="http://www.w3.org/2000/svg">
<path fill-rule="evenodd" clip-rule="evenodd" d="M2.00168 2.72518C2.02888 2.31186 2.386 1.99886 2.79932 2.02606C8.79035 2.42039 13.5795 7.20954 13.9739 13.2006C14.0011 13.6139 13.6881 13.971 13.2748 13.9982C12.8614 14.0254 12.5043 13.7124 12.4771 13.2991C12.1322 8.05887 7.94103 3.86774 2.7008 3.52282C2.28748 3.49562 1.97447 3.1385 2.00168 2.72518ZM2.00006 12.9998C2.00006 12.4475 2.44778 11.9998 3.00006 11.9998C3.55234 11.9998 4.00006 12.4475 4.00006 12.9998C4.00006 13.552 3.55234 13.9998 3.00006 13.9998C2.44778 13.9998 2.00006 13.552 2.00006 12.9998ZM2.83913 7.04957C2.42785 7.00038 2.05457 7.29392 2.00538 7.7052C1.95619 8.11649 2.24973 8.48977 2.66101 8.53896C5.16965 8.83897 7.16083 10.8302 7.46084 13.3388C7.51003 13.7501 7.88331 14.0436 8.29459 13.9944C8.70588 13.9452 8.99941 13.5719 8.95023 13.1607C8.56802 9.96475 6.03504 7.43178 2.83913 7.04957Z" fill="currentColor"/>
</svg>
