<svg width="16" height="16" viewBox="0 0 16 16" fill="none" xmlns="http://www.w3.org/2000/svg">
<path fill-rule="evenodd" clip-rule="evenodd" d="M7.8232 0.17677L4.92675 3.07322C4.76926 3.23071 4.88081 3.49999 5.10353 3.49999H7.24999C7.24999 3.5 7.24999 3.5 7.24999 3.5V9.24998C7.24999 9.66419 7.58578 9.99998 7.99999 9.99998C8.41421 9.99998 8.74999 9.66419 8.74999 9.24998V3.5C8.74999 3.5 8.74999 3.5 8.74999 3.49999H10.8964C11.1192 3.49999 11.2307 3.23071 11.0732 3.07322L8.17675 0.176769C8.07912 0.0791382 7.92083 0.0791385 7.8232 0.17677ZM3.75 6.50005C3.61193 6.50005 3.5 6.61197 3.5 6.75005V13.25C3.5 13.3881 3.61193 13.5 3.75 13.5H12.25C12.3881 13.5 12.5 13.3881 12.5 13.25V6.75005C12.5 6.61197 12.3881 6.50005 12.25 6.50005H11.25C10.8358 6.50005 10.5 6.16426 10.5 5.75005C10.5 5.33583 10.8358 5.00005 11.25 5.00005H12.25C13.2165 5.00005 14 5.78355 14 6.75005V13.25C14 14.2165 13.2165 15 12.25 15H3.75C2.7835 15 2 14.2165 2 13.25V6.75005C2 5.78355 2.7835 5.00005 3.75 5.00005H4.75C5.16422 5.00005 5.5 5.33583 5.5 5.75005C5.5 6.16426 5.16422 6.50005 4.75 6.50005H3.75Z" fill="currentColor"/>
</svg>
