<svg width="24" height="24" viewBox="0 0 24 24" fill="none" xmlns="http://www.w3.org/2000/svg">
<path fill-rule="evenodd" clip-rule="evenodd" d="M4 4.00049C3.20435 4.00049 2.44129 4.31656 1.87868 4.87917C1.31607 5.44178 1 6.20484 1 7.00049V17.0005C1 17.7961 1.31607 18.5592 1.87868 19.1218C2.44129 19.6844 3.20435 20.0005 4 20.0005H20C20.7956 20.0005 21.5587 19.6844 22.1213 19.1218C22.6839 18.5592 23 17.7961 23 17.0005V7.00049C23 6.20484 22.6839 5.44178 22.1213 4.87917C21.5587 4.31656 20.7956 4.00049 20 4.00049H4ZM3 7.00049C3 6.73527 3.10536 6.48092 3.29289 6.29338C3.48043 6.10585 3.73478 6.00049 4 6.00049H18C18.2652 6.00049 18.5196 6.10585 18.7071 6.29338C18.8946 6.48092 19 6.73527 19 7.00049V17.0005C19 17.2657 18.8946 17.5201 18.7071 17.7076C18.5196 17.8951 18.2652 18.0005 18 18.0005H4C3.73478 18.0005 3.48043 17.8951 3.29289 17.7076C3.10536 17.5201 3 17.2657 3 17.0005V7.00049ZM21 13.0005C21.2652 13.0005 21.5196 12.8951 21.7071 12.7076C21.8946 12.5201 22 12.2657 22 12.0005C22 11.7353 21.8946 11.4809 21.7071 11.2934C21.5196 11.1058 21.2652 11.0005 21 11.0005C20.7348 11.0005 20.4804 11.1058 20.2929 11.2934C20.1054 11.4809 20 11.7353 20 12.0005C20 12.2657 20.1054 12.5201 20.2929 12.7076C20.4804 12.8951 20.7348 13.0005 21 13.0005Z" fill="currentColor/>
</svg>
