<svg width="16" height="16" viewBox="0 0 16 16" fill="none" xmlns="http://www.w3.org/2000/svg">
<g clip-path="url(#clip0_213_5331)">
<path fill-rule="evenodd" clip-rule="evenodd" d="M2.06401 6.73883C2.06401 6.73883 7.11426 8.4867 7.23406 8.54494C7.35385 8.60318 7.41128 8.6767 7.45451 8.78418C7.49773 8.89166 9.20123 14.0313 9.20123 14.0313L14.1477 1.84977L2.06401 6.73883ZM6.08437 9.91311L0.581939 7.8931C0.224995 7.64192 0.012603 7.23275 0.0126023 6.79628C0.0126058 6.24787 0.34649 5.7547 0.855678 5.55103L14.3941 0.135646C14.8134 -0.0320591 15.2925 0.0662425 15.6118 0.385636C15.9312 0.705022 16.0295 1.18404 15.8618 1.60337L10.4464 15.1418C10.2428 15.651 9.74958 15.9848 9.20123 15.9849C8.76471 15.9849 8.35555 15.7725 8.10437 15.4155L6.08437 9.91311Z" fill="currentColor"/>
</g>
<defs>
<clipPath id="clip0_213_5331">
<rect width="16" height="16" fill="white"/>
</clipPath>
</defs>
</svg>
