<svg width="16" height="16" viewBox="0 0 16 16" fill="none" xmlns="http://www.w3.org/2000/svg">
<path fill-rule="evenodd" clip-rule="evenodd" d="M8.73732 4.80658C9.19265 4.54908 9.5 4.06043 9.5 3.5C9.5 2.67157 8.82843 2 8 2C7.17157 2 6.5 2.67157 6.5 3.5C6.5 4.06218 6.80927 4.55213 7.26696 4.80899L5.64279 7.9604C5.62104 8.00259 5.59428 8.04262 5.55764 8.0728C5.33068 8.25975 4.99868 8.24348 4.79 8.02401L2.86776 6.19175C2.95189 6.04527 3 5.87547 3 5.69443C3 5.14214 2.55228 4.69443 2 4.69443C1.44772 4.69443 1 5.14214 1 5.69443C1 6.10281 1.2448 6.45402 1.59567 6.60931C3.47293 13.4209 3.88715 13.3556 5.57952 13.089C5.77198 13.0586 5.98097 13.0257 6.21053 13C7.64151 12.9077 8.36181 12.913 9.78947 13C10.0712 13.0172 10.3212 13.0494 10.5469 13.0785C12.1582 13.2862 12.5345 13.3347 14.4036 6.60962C14.7549 6.45449 15 6.10309 15 5.69443C15 5.14214 14.5523 4.69443 14 4.69443C13.4477 4.69443 13 5.14214 13 5.69443C13 5.87691 13.0489 6.04797 13.1343 6.19524L11.24 8.02401C11.031 8.24386 10.6982 8.25981 10.4712 8.07183C10.4354 8.0422 10.4091 8.00313 10.3875 7.96195L8.73732 4.80658Z" fill="currentColor"/>
</svg>
