
<svg width="24" height="24" viewBox="0 0 24 24" fill="none" xmlns="http://www.w3.org/2000/svg">
<path fill-rule="evenodd" clip-rule="evenodd" d="M19 8.00049H5V16.0005H19V8.00049ZM1 9.00049C1 8.20484 1.31607 7.44178 1.87868 6.87917C2.44129 6.31656 3.20435 6.00049 4 6.00049H20C20.7956 6.00049 21.5587 6.31656 22.1213 6.87917C22.6839 7.44178 23 8.20484 23 9.00049V15.0005C23 15.7961 22.6839 16.5592 22.1213 17.1218C21.5587 17.6844 20.7956 18.0005 20 18.0005H4C3.20435 18.0005 2.44129 17.6844 1.87868 17.1218C1.31607 16.5592 1 15.7961 1 15.0005V9.00049Z" fill="currentColor"/>
</svg>
