<svg width="24" height="24" viewBox="0 0 24 24" fill="none" xmlns="http://www.w3.org/2000/svg">
<path fill-rule="evenodd" clip-rule="evenodd" d="M3.5 12.0005C3.5 9.74615 4.39553 7.58414 5.98959 5.99008C7.58365 4.39602 9.74566 3.50049 12 3.50049C14.2543 3.50049 16.4163 4.39602 18.0104 5.99008C19.6045 7.58414 20.5 9.74615 20.5 12.0005C20.5 14.2548 19.6045 16.4168 18.0104 18.0109C16.4163 19.605 14.2543 20.5005 12 20.5005C9.74566 20.5005 7.58365 19.605 5.98959 18.0109C4.39553 16.4168 3.5 14.2548 3.5 12.0005ZM12 1.50049C6.201 1.50049 1.5 6.20149 1.5 12.0005C1.5 17.7995 6.201 22.5005 12 22.5005C17.799 22.5005 22.5 17.7995 22.5 12.0005C22.5 6.20149 17.799 1.50049 12 1.50049ZM9.957 8.71149C9.9161 8.57632 9.84704 8.45134 9.75436 8.34479C9.66168 8.23824 9.54748 8.15252 9.41929 8.09329C9.29109 8.03405 9.1518 8.00265 9.01059 8.00113C8.86937 7.99961 8.72944 8.02802 8.6 8.08449L7.6 8.52149C7.35917 8.62613 7.16916 8.82131 7.07101 9.06486C6.97286 9.30841 6.97444 9.5808 7.07542 9.82319C7.17639 10.0656 7.36866 10.2585 7.61069 10.3604C7.85272 10.4622 8.1251 10.4648 8.369 10.3675L10.154 16.2895C10.2161 16.495 10.3426 16.6752 10.515 16.8032C10.6873 16.9312 10.8963 17.0004 11.111 17.0005C11.646 16.9805 12.155 16.7455 12.603 16.4675C13.363 15.9975 14.344 15.1255 15.483 13.5155C16.373 12.2555 16.761 11.1375 16.919 10.2995C17.01 9.81549 17.045 9.32449 16.985 8.83449C16.9457 8.60118 16.825 8.38936 16.6443 8.23666C16.4636 8.08396 16.2346 8.00028 15.998 8.00049H15.109C14.8582 8.00017 14.6164 8.09414 14.4316 8.26376C14.2468 8.43337 14.1324 8.66625 14.1113 8.9162C14.0902 9.16615 14.1637 9.41491 14.3174 9.61316C14.4711 9.81141 14.6937 9.94466 14.941 9.98649C14.828 10.5475 14.545 11.3745 13.848 12.3605C12.951 13.6305 12.229 14.2945 11.744 14.6385L9.957 8.71049V8.71149Z" fill="currentColor"/>
</svg>
