
<svg width="16" height="16" viewBox="0 0 16 16" fill="none" xmlns="http://www.w3.org/2000/svg">
<path fill-rule="evenodd" clip-rule="evenodd" d="M8.156 1.55471C8.1117 1.51933 8.05669 1.50006 8 1.50006C7.94331 1.50006 7.8883 1.51933 7.844 1.55471L2.594 5.75471C2.56459 5.77819 2.54086 5.80802 2.52458 5.84195C2.50831 5.87589 2.4999 5.91307 2.5 5.95071V12.9697C2.5 13.1077 2.612 13.2197 2.75 13.2197H5.5V7.96971C5.5 7.77079 5.57902 7.58003 5.71967 7.43938C5.86032 7.29872 6.05109 7.21971 6.25 7.21971H9.75C9.94891 7.21971 10.1397 7.29872 10.2803 7.43938C10.421 7.58003 10.5 7.77079 10.5 7.96971V13.2197H13.25C13.3163 13.2197 13.3799 13.1934 13.4268 13.1465C13.4737 13.0996 13.5 13.036 13.5 12.9697V5.94971C13.4999 5.91224 13.4915 5.87526 13.4752 5.8415C13.4589 5.80775 13.4353 5.77809 13.406 5.75471L8.156 1.55471ZM6.906 0.383706C7.21634 0.135326 7.602 0 7.9995 0C8.397 0 8.78266 0.135326 9.093 0.383706L14.343 4.58371C14.758 4.9157 15 5.41871 15 5.95071V12.9697C15 13.4338 14.8156 13.8789 14.4874 14.2071C14.1592 14.5353 13.7141 14.7197 13.25 14.7197H9.75C9.55109 14.7197 9.36032 14.6407 9.21967 14.5C9.07902 14.3594 9 14.1686 9 13.9697V8.71971H7V13.9697C7 14.1686 6.92098 14.3594 6.78033 14.5C6.63968 14.6407 6.44891 14.7197 6.25 14.7197H2.75C2.28587 14.7197 1.84075 14.5353 1.51256 14.2071C1.18437 13.8789 1 13.4338 1 12.9697V5.94971C1 5.41871 1.242 4.9157 1.657 4.58371L6.906 0.383706Z" fill="currentColor"/>
</svg>
