<svg width="24" height="24" viewBox="0 0 24 24" fill="none" xmlns="http://www.w3.org/2000/svg">
<path d="M7.98745 10.9999C9.27611 10.9999 10.3208 9.95525 10.3208 8.66659C10.3208 7.37792 9.27611 6.33325 7.98745 6.33325C6.69878 6.33325 5.65411 7.37792 5.65411 8.66659C5.65411 9.95525 6.69878 10.9999 7.98745 10.9999Z" stroke="#E21B25" stroke-miterlimit="10"/>
<path d="M8.35887 4.0008C8.30833 4.0008 8.30833 4.0008 8.35887 4.0008H8.30833C8.15673 4.0008 8.00513 4.0008 7.85352 4.0008C5.3268 3.94924 3.25488 6.06321 3.25488 8.64123C3.25488 11.2192 5.3268 13.3332 7.85352 13.3332C8.05566 13.3332 8.20726 13.3332 8.4094 13.2817L20.5882 11.5802V5.70229L8.35887 4.0008Z" stroke="currentColor" stroke-miterlimit="10"/>
<path d="M17.9216 5.33337V12" stroke="currentColor" stroke-miterlimit="10"/>
<path d="M5.96375 12.8467L7.61627 21.3333H11.2549L10.258 16.2073L9.68314 12.994" stroke="currentColor" stroke-miterlimit="10"/>
</svg>
