<svg width="16" height="16" viewBox="0 0 16 16" fill="none" xmlns="http://www.w3.org/2000/svg">
<g clip-path="url(#clip0_213_5602)">
<path d="M6.74198 12.4537C7.00658 10.8344 6.75621 9.17471 6.02475 7.69929C4.94889 5.84841 2.19647 4.27825 2.32199 1.81333C2.32199 1.81333 0.932366 3.21684 3.92685 7.20806C5.09863 8.82684 6.04527 10.5908 6.74198 12.4537Z" fill="currentColor"/>
<path d="M3.62219 0.008772C2.9946 0.22807 2.80633 1.2456 3.62219 2.71051C4.43805 4.17543 6.31183 5.67544 6.63459 6.7807C6.95735 7.88596 7.53119 9.25439 8.14084 9.20176C8.7505 9.14913 8.43666 7.5614 8.25735 7.05263C8.07804 6.54386 7.69252 5.50001 7.63872 5.20177C7.4661 4.25352 7.08029 3.35466 6.50911 2.57019C5.51394 1.18422 3.97184 -0.105263 3.62219 0.008772Z" fill="currentColor"/>
<path d="M9.40506 12.5088C9.45885 12.5088 5.46024 16.1228 3.3623 16.0175C4.16408 15.0195 5.10228 14.134 6.15057 13.386C7.1078 12.7525 8.25128 12.4443 9.40506 12.5088Z" fill="currentColor"/>
<path d="M11.6563 12.0877C12.0404 12.8034 12.298 13.5775 12.4184 14.3772C12.4064 14.9271 12.319 15.4729 12.1584 16C11.8544 15.822 11.5945 15.5801 11.3976 15.2919C11.2007 15.0037 11.0717 14.6763 11.0198 14.3333C11.0419 13.5452 11.2605 12.7744 11.6563 12.0877Z" fill="currentColor"/>
<path d="M8.63501 11.0965C9.69617 11.141 10.7503 11.2879 11.7819 11.5351C12.8667 11.8772 13.2253 11.921 14.2295 10.921C15.2336 9.92105 15.0543 9.31578 14.7764 8.9649C14.4984 8.61402 13.7095 8.29824 13.3329 8.00876C12.9564 7.71929 11.6474 6.33332 8.47363 6.69297C9.03603 7.08355 9.63668 7.41854 10.2667 7.69299L9.62119 7.99123C9.62119 7.99123 10.0515 9.02631 11.4143 8.45614L11.3605 8.24559C12.0816 8.77869 12.8395 9.26232 13.6288 9.69298C13.6288 9.69298 13.315 10.6228 12.6695 10.7895C12.024 10.9561 11.226 10.4737 8.63501 11.0965Z" fill="currentColor"/>
</g>
<defs>
<clipPath id="clip0_213_5602">
<rect width="13" height="16" fill="white" transform="translate(2)"/>
</clipPath>
</defs>
</svg>
