
<svg width="24" height="24" viewBox="0 0 24 24" fill="none" xmlns="http://www.w3.org/2000/svg">
<path fill-rule="evenodd" clip-rule="evenodd" d="M3.596 10.7185C6.188 10.9335 8.67 10.4135 10.725 9.2385C9.69114 7.70282 8.47977 6.29443 7.116 5.0425C6.17638 5.70186 5.38006 6.54472 4.77508 7.52024C4.17011 8.49577 3.76902 9.58373 3.596 10.7185ZM6.694 2.9385C5.11246 3.86408 3.80084 5.18762 2.8896 6.77746C1.97836 8.36731 1.49927 10.168 1.5 12.0005C1.5 17.7995 6.201 22.5005 12 22.5005C17.799 22.5005 22.5 17.7995 22.5 12.0005C22.5 6.2015 17.799 1.5005 12 1.5005C10.1348 1.49748 8.30276 1.99364 6.694 2.9375V2.9385ZM8.98 4.0515C10.2409 5.27647 11.3728 6.62754 12.358 8.0835C13.6051 7.00755 14.5727 5.64531 15.178 4.1135C14.1679 3.70693 13.0889 3.49881 12 3.5005C10.9685 3.49935 9.94538 3.68641 8.981 4.0525L8.98 4.0515ZM16.941 5.0835C16.1758 6.92083 14.9691 8.54102 13.428 9.8005C13.776 10.4095 14.099 11.0325 14.396 11.6675C16.279 10.9345 18.316 10.5965 20.411 10.7695C20.2454 9.63713 19.8528 8.54988 19.2567 7.57297C18.6606 6.59607 17.8733 5.74965 16.942 5.0845L16.941 5.0835ZM20.464 12.7815C18.642 12.5955 16.844 12.8715 15.172 13.5125C15.8632 15.34 16.3211 17.2474 16.535 19.1895C17.6373 18.4941 18.5648 17.5545 19.246 16.4434C19.9271 15.3322 20.3435 14.0793 20.463 12.7815H20.464ZM14.608 20.0915C14.4608 18.1375 14.0404 16.2138 13.359 14.3765C11.241 15.5935 9.423 17.4125 8.16 19.5855C9.34999 20.1889 10.6658 20.5024 12 20.5005C12.91 20.5005 13.787 20.3575 14.609 20.0925L14.608 20.0915ZM6.493 18.4755C7.957 16.0015 10.083 13.9035 12.585 12.5165C12.3345 11.981 12.0643 11.455 11.775 10.9395C9.361 12.3315 6.475 12.9435 3.529 12.7185C3.71692 14.9539 4.78265 17.0239 6.493 18.4755Z" fill="currentColor"/>
</svg>
