<svg width="24" height="24" viewBox="0 0 24 24" fill="none" xmlns="http://www.w3.org/2000/svg">
<path fill-rule="evenodd" clip-rule="evenodd" d="M3.5 12.0005C3.5 9.74615 4.39553 7.58414 5.98959 5.99008C7.58365 4.39602 9.74566 3.50049 12 3.50049C14.2543 3.50049 16.4163 4.39602 18.0104 5.99008C19.6045 7.58414 20.5 9.74615 20.5 12.0005C20.5 14.2548 19.6045 16.4168 18.0104 18.0109C16.4163 19.605 14.2543 20.5005 12 20.5005C9.74566 20.5005 7.58365 19.605 5.98959 18.0109C4.39553 16.4168 3.5 14.2548 3.5 12.0005ZM12 1.50049C6.201 1.50049 1.5 6.20149 1.5 12.0005C1.5 17.7995 6.201 22.5005 12 22.5005C17.799 22.5005 22.5 17.7995 22.5 12.0005C22.5 6.20149 17.799 1.50049 12 1.50049ZM11 6.00049C11 5.73527 10.8946 5.48092 10.7071 5.29338C10.5196 5.10585 10.2652 5.00049 10 5.00049C9.73478 5.00049 9.48043 5.10585 9.29289 5.29338C9.10536 5.48092 9 5.73527 9 6.00049V7.00049H8C7.73478 7.00049 7.48043 7.10585 7.29289 7.29338C7.10536 7.48092 7 7.73527 7 8.00049C7 8.2657 7.10536 8.52006 7.29289 8.70759C7.48043 8.89513 7.73478 9.00049 8 9.00049V15.0005C7.73478 15.0005 7.48043 15.1058 7.29289 15.2934C7.10536 15.4809 7 15.7353 7 16.0005C7 16.2657 7.10536 16.5201 7.29289 16.7076C7.48043 16.8951 7.73478 17.0005 8 17.0005H9V18.0005C9 18.2657 9.10536 18.5201 9.29289 18.7076C9.48043 18.8951 9.73478 19.0005 10 19.0005C10.2652 19.0005 10.5196 18.8951 10.7071 18.7076C10.8946 18.5201 11 18.2657 11 18.0005V17.0005H12V18.0005C12 18.2657 12.1054 18.5201 12.2929 18.7076C12.4804 18.8951 12.7348 19.0005 13 19.0005C13.2652 19.0005 13.5196 18.8951 13.7071 18.7076C13.8946 18.5201 14 18.2657 14 18.0005V17.0005H14.5C15.1126 17.0004 15.7104 16.8127 16.2132 16.4628C16.7159 16.1129 17.0995 15.6174 17.3124 15.043C17.5253 14.4687 17.5572 13.8429 17.404 13.2498C17.2507 12.6567 16.9195 12.1248 16.455 11.7255C16.7709 11.2761 16.9573 10.7486 16.9939 10.2005C17.0305 9.65238 16.9159 9.10476 16.6627 8.61732C16.4094 8.12988 16.0272 7.72133 15.5576 7.43622C15.0881 7.15111 14.5493 7.00039 14 7.00049V6.00049C14 5.73527 13.8946 5.48092 13.7071 5.29338C13.5196 5.10585 13.2652 5.00049 13 5.00049C12.7348 5.00049 12.4804 5.10585 12.2929 5.29338C12.1054 5.48092 12 5.73527 12 6.00049V7.00049H11V6.00049ZM13 15.0005H10V13.0005H14.5C14.7652 13.0005 15.0196 13.1058 15.2071 13.2934C15.3946 13.4809 15.5 13.7353 15.5 14.0005C15.5 14.2657 15.3946 14.5201 15.2071 14.7076C15.0196 14.8951 14.7652 15.0005 14.5 15.0005H13ZM13 9.00049H10V11.0005H14C14.2652 11.0005 14.5196 10.8951 14.7071 10.7076C14.8946 10.5201 15 10.2657 15 10.0005C15 9.73527 14.8946 9.48092 14.7071 9.29338C14.5196 9.10585 14.2652 9.00049 14 9.00049H13Z" fill="currentColor"/>
</svg>
