<svg width="24" height="24" viewBox="0 0 24 24" fill="none" xmlns="http://www.w3.org/2000/svg">
<path fill-rule="evenodd" clip-rule="evenodd" d="M4.76005 2.41298C5.21205 1.27698 6.83905 1.33598 7.20705 2.50198L8.94305 7.99998H15.0571L16.7931 2.50198C17.1611 1.33598 18.7881 1.27698 19.2411 2.41198L21.7151 8.62998L22.6711 11.034C22.8225 11.4147 22.8534 11.8328 22.7595 12.2316C22.6656 12.6304 22.4515 12.9908 22.1461 13.264L12.6661 21.745C12.4827 21.9089 12.2455 21.9995 11.9996 21.9995C11.7537 21.9995 11.5164 21.9089 11.3331 21.745L1.85305 13.264C1.54782 12.9907 1.33388 12.6303 1.24016 12.2314C1.14645 11.8326 1.17747 11.4146 1.32905 11.034L2.28605 8.62998L4.76005 2.41298ZM14.4251 9.99998H9.57505L12.0001 17.68L14.4251 9.99998ZM9.94805 17.822L7.47805 9.99998H3.89305L3.18705 11.773L9.94705 17.822H9.94805ZM4.68805 7.99998H6.84605L5.89205 4.97698L4.68905 7.99998H4.68805ZM14.0521 17.822L16.5221 9.99998H20.1071L20.8131 11.773L14.0531 17.822H14.0521ZM19.3121 7.99998H17.1541L18.1081 4.97698L19.3111 7.99998H19.3121Z" fill="currentColor"/>
</svg>
