
<svg width="16" height="16" viewBox="0 0 16 16" fill="none" xmlns="http://www.w3.org/2000/svg">
<path d="M13.9999 2.66667C14.1632 2.66669 14.3208 2.72664 14.4428 2.83514C14.5649 2.94365 14.6428 3.09317 14.6619 3.25533L14.6666 3.33333V7.66667C14.6666 8.26338 14.4381 8.83743 14.0279 9.2708C13.6177 9.70418 13.0571 9.96393 12.4613 9.99667L12.3333 10H3.60992L5.80458 12.1953C5.91937 12.3101 5.98832 12.4629 5.99851 12.6249C6.0087 12.7869 5.95942 12.9471 5.85992 13.0753L5.80458 13.138C5.68979 13.2528 5.53706 13.3217 5.37504 13.3319C5.21302 13.3421 5.05285 13.2928 4.92459 13.1933L4.86192 13.138L1.52859 9.80467C1.50523 9.78139 1.48362 9.75644 1.46392 9.73L1.41659 9.65667L1.38059 9.58067L1.35725 9.51067L1.34059 9.43267L1.33592 9.39267L1.33325 9.33333L1.33525 9.28333L1.34659 9.19933L1.36659 9.12533L1.39592 9.05133L1.43059 8.986L1.47325 8.92467L1.52859 8.862L4.86192 5.52867C4.98189 5.4091 5.14287 5.33969 5.31217 5.33452C5.48147 5.32935 5.64639 5.38881 5.77344 5.50083C5.90048 5.61286 5.98012 5.76904 5.99618 5.93765C6.01225 6.10627 5.96353 6.27467 5.85992 6.40867L5.80458 6.47133L3.60992 8.66667H12.3333C12.5817 8.66667 12.8213 8.57416 13.0053 8.40717C13.1893 8.24017 13.3046 8.01065 13.3286 7.76333L13.3333 7.66667V3.33333C13.3333 3.15652 13.4035 2.98695 13.5285 2.86193C13.6535 2.73691 13.8231 2.66667 13.9999 2.66667Z" fill="currentColor"/>
</svg>
