
<svg width="24" height="24" viewBox="0 0 24 24" fill="none" xmlns="http://www.w3.org/2000/svg">
<path fill-rule="evenodd" clip-rule="evenodd" d="M9.207 14.7935C11.525 17.1115 13.678 18.4035 15.28 19.1215C16.679 19.7485 18.33 19.2565 19.617 17.9695L19.911 17.6745L16.375 15.4245C15.703 16.4045 14.432 16.9795 13.163 16.4445C12.202 16.0385 10.93 15.3445 9.793 14.2075C8.656 13.0705 7.963 11.7985 7.557 10.8375C7.021 9.56851 7.595 8.29751 8.576 7.62551L6.326 4.08951L6.031 4.38351C4.744 5.67051 4.253 7.32151 4.879 8.72051C5.597 10.3225 6.889 12.4755 9.207 14.7935ZM14.463 20.9465C12.648 20.1335 10.291 18.7055 7.793 16.2075C5.295 13.7105 3.867 11.3525 3.053 9.53751C1.978 7.13751 2.96 4.62751 4.617 2.96951L4.911 2.67451C5.12275 2.46262 5.37938 2.30101 5.66195 2.2016C5.94453 2.10219 6.24582 2.06753 6.54359 2.10016C6.84135 2.1328 7.12799 2.23191 7.38232 2.39016C7.63665 2.54842 7.85218 2.76179 8.013 3.01451L10.843 7.46451C10.918 7.58255 10.9673 7.71499 10.9879 7.8533C11.0085 7.9916 10.9999 8.13269 10.9626 8.26744C10.9252 8.4022 10.8601 8.52763 10.7713 8.63564C10.6825 8.74365 10.572 8.83184 10.447 8.89451L9.814 9.21151C9.382 9.42751 9.294 9.80851 9.399 10.0595C9.738 10.8625 10.305 11.8905 11.207 12.7935C12.11 13.6955 13.138 14.2625 13.941 14.6015C14.192 14.7075 14.573 14.6185 14.789 14.1865L15.106 13.5535C15.1686 13.4284 15.2567 13.3179 15.3647 13.229C15.4726 13.1401 15.5981 13.0748 15.7328 13.0374C15.8676 13 16.0087 12.9912 16.147 13.0118C16.2854 13.0323 16.4179 13.0816 16.536 13.1565L20.986 15.9875C21.2387 16.1483 21.4521 16.3639 21.6103 16.6182C21.7686 16.8725 21.8677 17.1592 21.9003 17.4569C21.933 17.7547 21.8983 18.056 21.7989 18.3386C21.6995 18.6211 21.5379 18.8778 21.326 19.0895L21.031 19.3835C19.374 21.0415 16.864 22.0225 14.463 20.9465Z" fill="currentColor"/>
</svg>
