<svg width="12" height="12" viewBox="0 0 12 12" fill="none" xmlns="http://www.w3.org/2000/svg">
<g clip-path="url(#clip0_1825_59807)">
<path fill-rule="evenodd" clip-rule="evenodd" d="M1.54801 5.05458C1.54801 5.05458 5.3357 6.36548 5.42554 6.40916C5.51539 6.45284 5.55846 6.50798 5.59088 6.58859C5.6233 6.6692 6.90092 10.5239 6.90092 10.5239L10.6108 1.38779L1.54801 5.05458ZM4.56328 7.43529L0.436454 5.92028C0.168747 5.73189 0.00945222 5.42502 0.00945171 5.09767C0.00945438 4.68636 0.259868 4.31649 0.641758 4.16373L10.7956 0.102193C11.1101 -0.023586 11.4693 0.0501403 11.7089 0.289685C11.9484 0.529225 12.0222 0.888486 11.8964 1.20299L7.83482 11.3568C7.6821 11.7387 7.31218 11.9891 6.90092 11.9891C6.57353 11.9891 6.26666 11.8298 6.07828 11.5621L4.56328 7.43529Z" fill="currentColor"/>
</g>
<defs>
<clipPath id="clip0_1825_59807">
<rect width="12" height="12" fill="white"/>
</clipPath>
</defs>
</svg>
