<svg width="24" height="24" viewBox="0 0 24 24" fill="none" xmlns="http://www.w3.org/2000/svg">
<path fill-rule="evenodd" clip-rule="evenodd" d="M8 3.00049C7.73478 3.00049 7.48043 3.10584 7.29289 3.29338C7.10536 3.48092 7 3.73527 7 4.00049V20.0005C7 20.2657 7.10536 20.5201 7.29289 20.7076C7.48043 20.8951 7.73478 21.0005 8 21.0005H16C16.2652 21.0005 16.5196 20.8951 16.7071 20.7076C16.8946 20.5201 17 20.2657 17 20.0005V4.00049C17 3.73527 16.8946 3.48092 16.7071 3.29338C16.5196 3.10584 16.2652 3.00049 16 3.00049H8ZM5 4.00049C5 3.20484 5.31607 2.44178 5.87868 1.87917C6.44129 1.31656 7.20435 1.00049 8 1.00049H16C16.7956 1.00049 17.5587 1.31656 18.1213 1.87917C18.6839 2.44178 19 3.20484 19 4.00049V20.0005C19 20.7961 18.6839 21.5592 18.1213 22.1218C17.5587 22.6844 16.7956 23.0005 16 23.0005H8C7.20435 23.0005 6.44129 22.6844 5.87868 22.1218C5.31607 21.5592 5 20.7961 5 20.0005V4.00049ZM8 4.50049C8 4.36788 8.05268 4.2407 8.14645 4.14693C8.24021 4.05317 8.36739 4.00049 8.5 4.00049H15.5C15.6326 4.00049 15.7598 4.05317 15.8536 4.14693C15.9473 4.2407 16 4.36788 16 4.50049V10.5005C16 10.6331 15.9473 10.7603 15.8536 10.854C15.7598 10.9478 15.6326 11.0005 15.5 11.0005H8.5C8.36739 11.0005 8.24021 10.9478 8.14645 10.854C8.05268 10.7603 8 10.6331 8 10.5005V4.50049ZM11 16.0005C11 15.7353 11.1054 15.4809 11.2929 15.2934C11.4804 15.1058 11.7348 15.0005 12 15.0005C12.2652 15.0005 12.5196 15.1058 12.7071 15.2934C12.8946 15.4809 13 15.7353 13 16.0005C13 16.2657 12.8946 16.5201 12.7071 16.7076C12.5196 16.8951 12.2652 17.0005 12 17.0005C11.7348 17.0005 11.4804 16.8951 11.2929 16.7076C11.1054 16.5201 11 16.2657 11 16.0005ZM12 13.0005C11.2044 13.0005 10.4413 13.3166 9.87868 13.8792C9.31607 14.4418 9 15.2048 9 16.0005C9 16.7961 9.31607 17.5592 9.87868 18.1218C10.4413 18.6844 11.2044 19.0005 12 19.0005C12.7956 19.0005 13.5587 18.6844 14.1213 18.1218C14.6839 17.5592 15 16.7961 15 16.0005C15 15.2048 14.6839 14.4418 14.1213 13.8792C13.5587 13.3166 12.7956 13.0005 12 13.0005Z" fill="currentColor"/>
</svg>
