<svg width="24" height="24" viewBox="0 0 24 24" fill="none" xmlns="http://www.w3.org/2000/svg">
<path fill-rule="evenodd" clip-rule="evenodd" d="M16 8.00049C16 7.20484 15.6839 6.44178 15.1213 5.87917C14.5587 5.31656 13.7956 5.00049 13 5.00049H4C3.20435 5.00049 2.44129 5.31656 1.87868 5.87917C1.31607 6.44178 1 7.20484 1 8.00049V16.0005C1 16.7961 1.31607 17.5592 1.87868 18.1218C2.44129 18.6844 3.20435 19.0005 4 19.0005H13C13.7956 19.0005 14.5587 18.6844 15.1213 18.1218C15.6839 17.5592 16 16.7961 16 16.0005V13.9435L21.419 17.8135C21.5685 17.9202 21.7444 17.9837 21.9276 17.997C22.1107 18.0103 22.294 17.9729 22.4573 17.8889C22.6206 17.8049 22.7577 17.6776 22.8534 17.5209C22.9491 17.3642 22.9998 17.1841 23 17.0005V7.00049C23 6.81677 22.9494 6.63659 22.8538 6.47974C22.7581 6.32288 22.6211 6.19541 22.4578 6.11131C22.2944 6.02721 22.1111 5.98974 21.9278 6.003C21.7446 6.01626 21.5685 6.07975 21.419 6.18649L16 10.0565V8.00049ZM16.72 12.0005L21 8.94349V15.0575L16.72 12.0005ZM13 7.00049C13.2652 7.00049 13.5196 7.10585 13.7071 7.29338C13.8946 7.48092 14 7.73527 14 8.00049V16.0005C14 16.2657 13.8946 16.5201 13.7071 16.7076C13.5196 16.8951 13.2652 17.0005 13 17.0005H4C3.73478 17.0005 3.48043 16.8951 3.29289 16.7076C3.10536 16.5201 3 16.2657 3 16.0005V8.00049C3 7.73527 3.10536 7.48092 3.29289 7.29338C3.48043 7.10585 3.73478 7.00049 4 7.00049H13Z" fill="currentColor"/>
</svg>
