<svg width="16" height="16" viewBox="0 0 16 16" fill="none" xmlns="http://www.w3.org/2000/svg">
<g clip-path="url(#clip0_213_5301)">
<path fill-rule="evenodd" clip-rule="evenodd" d="M5.5 3.99998C5.49991 3.45918 5.67518 2.93293 5.99953 2.50018C6.32387 2.06744 6.7798 1.75153 7.2989 1.59987C7.818 1.44821 8.37229 1.46896 8.87859 1.65902C9.3849 1.84908 9.81593 2.19819 10.107 2.65398C10.2141 2.8216 10.3835 2.93979 10.5778 2.98254C10.7721 3.0253 10.9754 2.98913 11.143 2.88198C11.3106 2.77483 11.4288 2.60549 11.4716 2.4112C11.5143 2.21691 11.4781 2.0136 11.371 1.84598C10.9052 1.11678 10.2156 0.558281 9.40547 0.254256C8.59538 -0.0497684 7.70855 -0.0829164 6.87802 0.159785C6.04749 0.402487 5.31806 0.907951 4.79915 1.60034C4.28024 2.29273 3.99983 3.13472 4 3.99998V5.99998H3.499C3.10135 6.00025 2.72007 6.1584 2.43899 6.43968C2.1579 6.72095 2 7.10233 2 7.49998V13.5C2 13.8978 2.15804 14.2794 2.43934 14.5607C2.72064 14.842 3.10218 15 3.5 15H12.5C12.8978 15 13.2794 14.842 13.5607 14.5607C13.842 14.2794 14 13.8978 14 13.5V7.49998C14 7.10216 13.842 6.72063 13.5607 6.43932C13.2794 6.15802 12.8978 5.99998 12.5 5.99998H5.5V3.99998ZM4.75 7.49998H3.5V13.5H12.5V7.49998H4.75Z" fill="currentColor"/>
</g>
<defs>
<clipPath id="clip0_213_5301">
<rect width="16" height="16" fill="white"/>
</clipPath>
</defs>
</svg>
