<svg width="24" height="24" viewBox="0 0 24 24" fill="none" xmlns="http://www.w3.org/2000/svg">
<path fill-rule="evenodd" clip-rule="evenodd" d="M10.001 1.00049C9.73578 1.00054 9.48147 1.10594 9.29398 1.29349L3.29398 7.29349C3.10643 7.48098 3.00103 7.73529 3.00098 8.00049V20.0005C3.00098 20.7961 3.31705 21.5592 3.87966 22.1218C4.44227 22.6844 5.20533 23.0005 6.00098 23.0005H7.00098C7.26619 23.0005 7.52055 22.8951 7.70808 22.7076C7.89562 22.5201 8.00098 22.2657 8.00098 22.0005C8.00098 21.7353 7.89562 21.4809 7.70808 21.2934C7.52055 21.1058 7.26619 21.0005 7.00098 21.0005H6.00098C5.73576 21.0005 5.48141 20.8951 5.29387 20.7076C5.10633 20.5201 5.00098 20.2657 5.00098 20.0005V9.00049H10.001C10.2662 9.00049 10.5205 8.89513 10.7081 8.70759C10.8956 8.52006 11.001 8.2657 11.001 8.00049V3.00049H18.001C18.2662 3.00049 18.5205 3.10584 18.7081 3.29338C18.8956 3.48092 19.001 3.73527 19.001 4.00049V11.0005C19.001 11.2657 19.1063 11.5201 19.2939 11.7076C19.4814 11.8951 19.7358 12.0005 20.001 12.0005C20.2662 12.0005 20.5205 11.8951 20.7081 11.7076C20.8956 11.5201 21.001 11.2657 21.001 11.0005V4.00049C21.001 3.20484 20.6849 2.44178 20.1223 1.87917C19.5597 1.31656 18.7966 1.00049 18.001 1.00049H10.001ZM9.00098 7.00049H6.41498L9.00098 4.41449V7.00049ZM10.309 23.5635C10.467 23.7585 10.696 23.9175 10.986 23.9765C11.256 24.0325 11.493 23.9815 11.657 23.9215C11.959 23.8115 12.197 23.6045 12.351 23.4515C12.595 23.2115 12.851 22.8855 13.104 22.5175C14.214 22.1345 15.772 21.7825 17.288 21.5605C18.131 21.4375 18.918 21.3605 19.58 21.3345C19.842 21.6445 20.081 21.9095 20.28 22.1105C20.404 22.2365 20.542 22.3675 20.678 22.4675C20.738 22.5125 20.853 22.5925 21 22.6495C21.077 22.6795 21.58 22.8715 22.043 22.4975C22.317 22.2775 22.569 22.0305 22.745 21.7535C22.922 21.4735 23.089 21.0475 22.95 20.5635C22.814 20.0885 22.46 19.8235 22.199 19.6855C21.9342 19.5543 21.6509 19.4646 21.359 19.4195C21.0827 19.3734 20.8038 19.345 20.524 19.3345C19.8196 18.4509 19.1426 17.5458 18.494 16.6205C17.9279 15.8215 17.3935 15.0005 16.892 14.1595C16.937 13.9665 16.974 13.7825 17.004 13.6065C17.054 13.3065 17.084 13.0045 17.077 12.7215C17.0769 12.4099 17.01 12.102 16.881 11.8185C16.7937 11.6322 16.6669 11.4671 16.5094 11.3346C16.3519 11.2022 16.1675 11.1056 15.969 11.0515C15.567 10.9435 15.184 11.0245 14.89 11.1335C14.437 11.3005 14.188 11.6735 14.102 12.0365C14.046 12.3065 14.0505 12.5854 14.115 12.8535C14.209 13.2915 14.428 13.7965 14.681 14.2895C14.703 14.3335 14.726 14.3785 14.75 14.4225C14.511 15.2075 14.159 16.1325 13.74 17.0905C13.127 18.4935 12.406 19.8845 11.786 20.8785C11.363 21.0555 10.972 21.2585 10.676 21.4925C10.474 21.6515 10.203 21.9095 10.073 22.2875C9.91398 22.7515 10.027 23.2155 10.309 23.5635ZM11.877 23.0955L11.883 23.0885C11.8812 23.091 11.8792 23.0933 11.877 23.0955ZM16.998 19.5815C16.184 19.7015 15.346 19.8575 14.551 20.0395C14.905 19.3525 15.254 18.6205 15.573 17.8915C15.753 17.4785 15.928 17.0585 16.09 16.6435C16.337 17.0175 16.595 17.3965 16.857 17.7685C17.2538 18.3342 17.6605 18.893 18.077 19.4445C17.72 19.4825 17.357 19.5295 16.998 19.5815ZM16.062 12.3845V12.3825V12.3845Z" fill="currentColor"/>
</svg>
