<svg width="24" height="24" viewBox="0 0 24 24" fill="none" xmlns="http://www.w3.org/2000/svg">
<path fill-rule="evenodd" clip-rule="evenodd" d="M15.939 0.186007C16.1947 0.145739 16.456 0.206184 16.6681 0.354634C16.8801 0.503083 17.0263 0.72797 17.076 0.982007C17.273 2.31401 17.326 3.70301 16.896 4.99801C17.232 5.03601 17.587 5.11601 17.961 5.24901C19.666 5.85701 20.677 7.22301 21.249 8.61101C21.3158 8.77272 21.339 8.94912 21.3163 9.12261C21.2936 9.29609 21.2258 9.46058 21.1196 9.59965C21.0134 9.73871 20.8726 9.84749 20.7113 9.91511C20.5499 9.98274 20.3736 10.0068 20.2 9.98501C18.84 9.81401 18 11.289 18 12.472C18 13.666 18.862 15.158 20.234 14.955C20.4047 14.9297 20.5791 14.949 20.7401 15.011C20.9012 15.073 21.0434 15.1757 21.153 15.3089C21.2627 15.4422 21.3359 15.6016 21.3657 15.7716C21.3955 15.9416 21.3808 16.1164 21.323 16.279C20.404 18.869 18.613 21.369 16.513 22.624C16.2436 22.7895 15.9436 22.8993 15.631 22.9467C15.3184 22.9941 14.9994 22.9782 14.693 22.9C14.228 22.788 13.805 22.56 13.39 22.333C12.799 22.009 12.418 21.822 12 21.822C11.582 21.822 11.201 22.009 10.61 22.332C10.195 22.561 9.772 22.788 9.307 22.9C9.00062 22.9783 8.68163 22.9942 8.36898 22.9468C8.05633 22.8994 7.7564 22.7896 7.487 22.624C5.948 21.704 4.587 20.124 3.616 18.362C2.64 16.595 2 14.543 2 12.615C2 11.485 2.184 9.98101 2.755 8.60101C3.328 7.21601 4.338 5.85501 6.039 5.24801C8.011 4.54401 9.447 5.33001 10.439 5.95701C10.452 5.00501 10.611 3.69201 11.336 2.65701C12.34 1.22301 14.251 0.451007 15.94 0.185007L15.939 0.186007ZM6.71 7.13301C7.867 6.72001 8.608 7.16001 9.62 7.80901C10.342 8.27301 11.11 8.74101 11.999 8.74101C12.888 8.74101 13.656 8.27301 14.378 7.80901C15.39 7.15901 16.131 6.72001 17.288 7.13301C17.872 7.34101 18.348 7.71001 18.73 8.19801C17.078 8.81001 16 10.585 16 12.472C16 14.435 17.167 16.278 18.934 16.815C18.071 18.597 16 20.792 15.487 20.907C15.089 20.997 14.643 20.739 14.351 20.579C13.617 20.176 12.855 19.821 12 19.821C11.028 19.821 10.232 20.258 9.706 20.548C9.394 20.718 8.883 21.128 8.513 20.908C7.362 20.218 6.222 18.945 5.367 17.395C4.514 15.85 4 14.13 4 12.615C4 11.668 4.159 10.439 4.603 9.36601C5.045 8.30001 5.72 7.48601 6.71 7.13301ZM14.688 5.00501C14.178 5.73401 13.265 6.12201 12.443 6.38701C12.411 5.52401 12.463 4.53301 12.973 3.80401C13.483 3.07601 14.397 2.68701 15.219 2.42201C15.251 3.28501 15.199 4.27601 14.689 5.00501H14.688Z" fill="currentColor"/>
</svg>
