
<svg width="24" height="24" viewBox="0 0 24 24" fill="none" xmlns="http://www.w3.org/2000/svg">
<path fill-rule="evenodd" clip-rule="evenodd" d="M18.5185 8.50198L3.66178 11.688L5.43145 19.9401L20.2882 16.754L18.5185 8.50198ZM3.51376 10.9979C3.13258 11.0796 2.88984 11.4549 2.97159 11.8361L4.74126 20.0881C4.823 20.4693 5.19828 20.712 5.57946 20.6303L20.4362 17.4442C20.8174 17.3625 21.0601 16.9872 20.9784 16.606L19.2087 8.35396C19.127 7.97278 18.7517 7.73004 18.3705 7.81179L3.51376 10.9979Z" fill="currentColor"/>
<path fill-rule="evenodd" clip-rule="evenodd" d="M12.3493 5.07038C12.7748 5.07038 13.1198 4.72541 13.1198 4.29987C13.1198 3.87434 12.7748 3.52937 12.3493 3.52937C11.9237 3.52937 11.5788 3.87434 11.5788 4.29987C11.5788 4.72541 11.9237 5.07038 12.3493 5.07038ZM12.3493 5.77626C13.1647 5.77626 13.8257 5.11526 13.8257 4.29987C13.8257 3.48449 13.1647 2.82349 12.3493 2.82349C11.5339 2.82349 10.8729 3.48449 10.8729 4.29987C10.8729 5.11526 11.5339 5.77626 12.3493 5.77626Z" fill="currentColor"/>
<path fill-rule="evenodd" clip-rule="evenodd" d="M13.6829 4.0093L17.2124 8.2446L16.6701 8.69649L13.1407 4.4612L13.6829 4.0093ZM11.674 4.72838L6.33181 11.0534L5.79254 10.5979L11.1347 4.27291L11.674 4.72838Z" fill="currentColor"/>
<path d="M8.76974 15.0125C8.84151 15.3474 8.84524 15.6538 8.78092 15.9315C8.71661 16.2092 8.58854 16.4403 8.39672 16.6248C8.20645 16.8089 7.96879 16.9315 7.68372 16.9926C7.40177 17.053 7.13568 17.0392 6.88544 16.9511C6.63521 16.8629 6.42247 16.7065 6.24722 16.4817C6.07164 16.2554 5.94803 15.9789 5.87637 15.6521L5.84032 15.4838C5.76856 15.1489 5.76544 14.8417 5.83098 14.5621C5.89774 14.2806 6.02642 14.0485 6.21702 13.8659C6.40884 13.6814 6.64651 13.5588 6.93002 13.4981C7.21352 13.4373 7.47978 13.452 7.7288 13.542C7.97903 13.6301 8.1915 13.789 8.36618 14.0188C8.54209 14.2467 8.66577 14.5273 8.7372 14.8607L8.76974 15.0125ZM8.02637 15.0105C7.94993 14.6538 7.82799 14.3964 7.66053 14.2384C7.49308 14.0804 7.29096 14.0268 7.05419 14.0776C6.81897 14.128 6.65719 14.2587 6.56884 14.4699C6.48016 14.6796 6.47293 14.9613 6.54714 15.3153L6.58269 15.4812C6.65713 15.8285 6.77874 16.0844 6.94753 16.2486C7.11632 16.4128 7.32066 16.4692 7.56055 16.4178C7.79577 16.3674 7.95677 16.2368 8.04356 16.0259C8.13002 15.8135 8.13614 15.5304 8.06192 15.1764L8.02637 15.0105Z" fill="#E21B25"/>
<path d="M10.0712 15.1784L10.3281 16.3771L9.6271 16.5273L8.89809 13.1252L10.2253 12.8408C10.4807 12.7861 10.7151 12.7848 10.9283 12.8368C11.143 12.8886 11.3211 12.9897 11.4625 13.1403C11.6036 13.2892 11.6977 13.4736 11.7447 13.6932C11.8162 14.0266 11.7581 14.3143 11.5705 14.5566C11.3841 14.7969 11.0892 14.9603 10.6857 15.0467L10.0712 15.1784ZM9.94956 14.6106L10.5758 14.4765C10.7611 14.4367 10.8928 14.3629 10.9706 14.255C11.0501 14.1467 11.0725 14.0116 11.0377 13.8496C11.002 13.6829 10.9241 13.5587 10.8039 13.4769C10.6837 13.3951 10.5369 13.3712 10.3633 13.4051L9.72074 13.5428L9.94956 14.6106Z" fill="#E21B25"/>
<path d="M14.447 13.9524L13.1011 14.2408L13.2964 15.1521L14.8759 14.8136L14.9966 15.3767L12.7161 15.8654L11.9871 12.4633L14.2629 11.9756L14.3846 12.5434L12.8097 12.8809L12.9835 13.6917L14.3293 13.4033L14.447 13.9524Z" fill="#E21B25"/>
<path d="M18.1744 14.6958L17.4734 14.846L15.6291 12.8999L16.1088 15.1384L15.4078 15.2886L14.6788 11.8865L15.3798 11.7363L17.2274 13.6865L16.7467 11.4434L17.4454 11.2937L18.1744 14.6958Z" fill="#E21B25"/>
</svg>
