<svg width="24" height="24" viewBox="0 0 24 24" fill="none" xmlns="http://www.w3.org/2000/svg">
<path fill-rule="evenodd" clip-rule="evenodd" d="M3.5 11.9985C3.48781 10.8748 3.6986 9.7599 4.12017 8.71824C4.54175 7.67659 5.16573 6.72889 5.956 5.92999C6.74628 5.1311 7.68715 4.49687 8.72418 4.06402C9.7612 3.63118 10.8738 3.4083 11.9975 3.4083C13.1212 3.4083 14.2338 3.63118 15.2708 4.06402C16.3078 4.49687 17.2487 5.1311 18.039 5.92999C18.8293 6.72889 19.4533 7.67659 19.8748 8.71824C20.2964 9.7599 20.5072 10.8748 20.495 11.9985C20.4707 14.2362 19.5648 16.374 17.9738 17.9478C16.3829 19.5216 14.2353 20.4043 11.9975 20.4043C9.75966 20.4043 7.61214 19.5216 6.02119 17.9478C4.43023 16.374 3.52428 14.2362 3.5 11.9985ZM11.998 1.50049C6.2 1.50049 1.5 6.20049 1.5 11.9985C1.5 17.7955 6.2 22.4955 11.998 22.4955C17.795 22.4955 22.495 17.7955 22.495 11.9985C22.495 6.20049 17.795 1.50049 11.998 1.50049ZM6.588 7.81249C6.56353 7.68332 6.56476 7.5506 6.59163 7.42191C6.6185 7.29322 6.67049 7.1711 6.7446 7.06252C6.81872 6.95394 6.91352 6.86105 7.02358 6.78914C7.13364 6.71724 7.25679 6.66775 7.386 6.64349C7.986 6.54349 8.593 6.49349 9.201 6.47749C10.272 6.44949 11.739 6.52249 13.294 6.93949C14.849 7.35549 16.156 8.02649 17.07 8.58649C17.585 8.90249 18.097 9.24249 18.558 9.63649C18.971 9.99249 19.02 10.6345 18.665 11.0475C18.4922 11.2486 18.2466 11.3729 17.9822 11.393C17.7177 11.413 17.4562 11.3272 17.255 11.1545C16.877 10.8295 16.449 10.5515 16.025 10.2915C15.221 9.79849 14.093 9.22349 12.776 8.87149C11.46 8.51849 10.196 8.45149 9.253 8.47749C8.754 8.49049 8.249 8.52249 7.757 8.60949C7.49643 8.65865 7.227 8.6023 7.00797 8.45284C6.78894 8.30338 6.63823 8.07304 6.589 7.81249H6.588ZM7.571 12.3415C7.32073 12.4223 7.04869 12.4013 6.8138 12.283C6.57891 12.1647 6.40007 11.9586 6.31604 11.7094C6.232 11.4602 6.24953 11.1879 6.36482 10.9515C6.48011 10.7152 6.68388 10.5337 6.932 10.4465C7.434 10.2765 7.979 10.2045 8.505 10.1605C9.449 10.0825 10.77 10.1145 12.331 10.5325C13.892 10.9515 15.052 11.5845 15.831 12.1235C16.27 12.4275 16.686 12.7665 17.051 13.1575C17.2255 13.3572 17.3135 13.618 17.2957 13.8827C17.2779 14.1473 17.1557 14.394 16.956 14.5685C16.7554 14.7401 16.4957 14.8265 16.2323 14.8093C15.9689 14.7921 15.7226 14.6727 15.546 14.4765C15.2863 14.2117 15.0001 13.9741 14.692 13.7675C14.076 13.3415 13.123 12.8155 11.813 12.4645C10.503 12.1145 9.416 12.0925 8.669 12.1545C8.29837 12.1856 7.93105 12.2482 7.571 12.3415ZM6.471 14.1805C6.24198 14.3105 6.07346 14.5255 6.00204 14.779C5.93061 15.0324 5.96204 15.3038 6.08949 15.5342C6.21695 15.7647 6.43015 15.9355 6.68281 16.0097C6.93547 16.0839 7.2072 16.0554 7.439 15.9305C7.639 15.8385 7.871 15.8015 8.087 15.7745C8.624 15.7065 9.529 15.7045 10.851 16.0585C12.172 16.4125 12.955 16.8665 13.386 17.1945C13.711 17.4415 13.846 17.6205 13.868 17.6515C14.178 18.0885 14.738 18.2725 15.223 17.9895C15.3365 17.9233 15.4358 17.8355 15.5153 17.7309C15.5949 17.6263 15.653 17.5071 15.6864 17.3801C15.7199 17.253 15.7279 17.1207 15.7102 16.9905C15.6924 16.8603 15.6492 16.7349 15.583 16.6215C15.3144 16.2275 14.9803 15.8825 14.595 15.6015C13.94 15.1035 12.918 14.5415 11.368 14.1265C9.819 13.7115 8.653 13.6865 7.837 13.7905C7.36271 13.8414 6.90068 13.9733 6.471 14.1805Z" fill="currentColor"/>
</svg>
