
<svg width="16" height="16" viewBox="0 0 16 16" fill="none" xmlns="http://www.w3.org/2000/svg">
<path fill-rule="evenodd" clip-rule="evenodd" d="M9.59784 1.59115C9.80363 1.38536 10.1099 1.3172 10.3835 1.4163C13.0749 2.39093 14.9999 4.96959 14.9999 7.99976C14.9999 11.8658 11.8659 14.9998 7.99988 14.9998C4.96971 14.9998 2.39105 13.0748 1.41642 10.3834C1.31732 10.1098 1.38548 9.8035 1.59127 9.59771C1.79706 9.39192 2.10333 9.32376 2.37697 9.42286C2.96056 9.6342 3.5909 9.74976 4.24988 9.74976C7.28745 9.74976 9.74988 7.28733 9.74988 4.24976C9.74988 3.59077 9.63432 2.96044 9.42298 2.37685C9.32389 2.10321 9.39205 1.79694 9.59784 1.59115ZM11.2139 3.53583C11.2377 3.77069 11.2499 4.00887 11.2499 4.24976C11.2499 8.11576 8.11588 11.2498 4.24988 11.2498C4.009 11.2498 3.77082 11.2376 3.53596 11.2137C4.5351 12.5989 6.16286 13.4998 7.99988 13.4998C11.0375 13.4998 13.4999 11.0373 13.4999 7.99976C13.4999 6.16273 12.599 4.53497 11.2139 3.53583Z" fill="currentColor"/>
</svg>
