
<svg width="24" height="24" viewBox="0 0 24 24" fill="none" xmlns="http://www.w3.org/2000/svg">
<path fill-rule="evenodd" clip-rule="evenodd" d="M6 4.00049C6 3.73527 6.10536 3.48092 6.29289 3.29338C6.48043 3.10584 6.73478 3.00049 7 3.00049H17C17.2652 3.00049 17.5196 3.10584 17.7071 3.29338C17.8946 3.48092 18 3.73527 18 4.00049V18.0005C18 18.2657 17.8946 18.5201 17.7071 18.7076C17.5196 18.8951 17.2652 19.0005 17 19.0005H7C6.73478 19.0005 6.48043 18.8951 6.29289 18.7076C6.10536 18.5201 6 18.2657 6 18.0005V4.00049ZM7 1.00049C6.20435 1.00049 5.44129 1.31656 4.87868 1.87917C4.31607 2.44178 4 3.20484 4 4.00049V20.0005C4 20.7961 4.31607 21.5592 4.87868 22.1218C5.44129 22.6844 6.20435 23.0005 7 23.0005H17C17.7956 23.0005 18.5587 22.6844 19.1213 22.1218C19.6839 21.5592 20 20.7961 20 20.0005V4.00049C20 3.20484 19.6839 2.44178 19.1213 1.87917C18.5587 1.31656 17.7956 1.00049 17 1.00049H7ZM12 22.0005C12.2652 22.0005 12.5196 21.8951 12.7071 21.7076C12.8946 21.5201 13 21.2657 13 21.0005C13 20.7353 12.8946 20.4809 12.7071 20.2934C12.5196 20.1058 12.2652 20.0005 12 20.0005C11.7348 20.0005 11.4804 20.1058 11.2929 20.2934C11.1054 20.4809 11 20.7353 11 21.0005C11 21.2657 11.1054 21.5201 11.2929 21.7076C11.4804 21.8951 11.7348 22.0005 12 22.0005Z" fill="currentColor"/>
</svg>
