<svg width="24" height="24" viewBox="0 0 24 24" fill="none" xmlns="http://www.w3.org/2000/svg">
<path fill-rule="evenodd" clip-rule="evenodd" d="M5.07 8.00049C5.77207 6.78387 6.7822 5.77363 7.99875 5.07143C9.2153 4.36924 10.5953 3.99987 12 4.00049C13.4047 3.99987 14.7847 4.36924 16.0013 5.07143C17.2178 5.77363 18.2279 6.78387 18.93 8.00049H5.07ZM4.159 10.4065C3.92429 11.568 3.95054 12.7671 4.23584 13.9172C4.52114 15.0673 5.05837 16.1397 5.80871 17.0568C6.55905 17.9739 7.50375 18.7129 8.57456 19.2204C9.64537 19.7278 10.8155 19.9911 12.0005 19.9911C13.1855 19.9911 14.3556 19.7278 15.4264 19.2204C16.4972 18.7129 17.442 17.9739 18.1923 17.0568C18.9426 16.1397 19.4799 15.0673 19.7652 13.9172C20.0505 12.7671 20.0767 11.568 19.842 10.4065C19.412 12.2935 18.121 14.0005 16 14.0005C13.732 14.0005 12.41 12.0335 12.09 10.0005H11.91C11.59 12.0335 10.268 14.0005 8 14.0005C5.877 14.0005 4.587 12.2925 4.159 10.4065ZM12 2.00049C6.477 2.00049 2 6.47749 2 12.0005C2 17.5235 6.477 22.0005 12 22.0005C17.523 22.0005 22 17.5235 22 12.0005C22 6.47749 17.523 2.00049 12 2.00049ZM8.757 15.0305C9.01205 14.9665 9.28204 15.0056 9.50851 15.1392C9.73498 15.2728 9.8997 15.4903 9.967 15.7445C10.227 16.6145 11.16 17.0005 12 17.0005C12.84 17.0005 13.772 16.6155 14.033 15.7445C14.1035 15.4928 14.2697 15.2788 14.496 15.1482C14.7224 15.0175 14.9908 14.9807 15.244 15.0455C15.4972 15.1103 15.7149 15.2717 15.8506 15.495C15.9863 15.7184 16.0291 15.9859 15.97 16.2405C15.452 17.9885 13.785 19.0005 12 19.0005C10.283 19.0005 8.469 17.9995 8.03 16.2425C7.96586 15.9854 8.0064 15.7133 8.14271 15.4861C8.27902 15.2588 8.49996 15.095 8.757 15.0305Z" fill="currentColor"/>
</svg>
