<svg width="24" height="24" viewBox="0 0 24 24" fill="none" xmlns="http://www.w3.org/2000/svg">
<path d="M9.44145 19.1937C7.27653 17.8583 5.7702 14.887 5.7702 11.4359C5.7702 6.73597 8.56397 2.9259 12.0102 2.9259C15.4565 2.9259 18.2503 6.73597 18.2503 11.4359C18.2503 14.8583 16.7689 17.8089 14.633 19.16" stroke="#E21B25" stroke-miterlimit="10"/>
<path d="M9.42383 15.7415V21.0531H14.5965V15.7415" stroke="currentColor" stroke-miterlimit="10"/>
<path d="M16.0313 12.5229C15.5547 15.2092 13.9343 17.4238 12.0088 17.4238C10.0372 17.4238 8.38583 15.1317 7.94769 12.3529" stroke="currentColor" stroke-miterlimit="10"/>
<path d="M6.82379 12.4326C12.3394 11.0868 14.347 6.34326 14.347 6.34326C14.347 6.34326 13.9587 9.78931 16.7298 13.6239" stroke="#E21B25" stroke-miterlimit="10" stroke-linejoin="round"/>
</svg>
