<svg width="34" height="34" viewBox="0 0 34 34" fill="none" xmlns="http://www.w3.org/2000/svg">
<path d="M17.5841 8.80265C21.088 8.80265 23.9284 8.09872 23.9284 7.23037C23.9284 6.36202 21.088 5.65808 17.5841 5.65808C14.0802 5.65808 11.2398 6.36202 11.2398 7.23037C11.2398 8.09872 14.0802 8.80265 17.5841 8.80265Z" stroke="currentColor" stroke-miterlimit="10"/>
<path d="M23.9284 7.22986V27.4512C23.9284 28.4994 21.0844 29.3729 17.5841 29.3729C14.0838 29.3729 11.2398 28.4994 11.2398 27.4512V20.638" stroke="currentColor" stroke-miterlimit="10"/>
<path d="M11.2402 7.36121C10.6276 9.76331 8.57122 11.2919 4.41461 11.7287C8.965 18.8913 14.2155 24.569 21.7848 28.9365C15.7468 20.7256 12.334 14.0871 11.2402 7.36121Z" stroke="#E21B25" stroke-miterlimit="10" stroke-linejoin="round"/>
<path d="M16.321 7.22998L18.8471 7.22998" stroke="currentColor" stroke-linecap="round"/>
</svg>
