<svg width="16" height="16" viewBox="0 0 16 16" fill="none" xmlns="http://www.w3.org/2000/svg">
<path d="M15 11.4378V14.188C15.0001 14.3849 14.9255 14.5745 14.7912 14.7186C14.657 14.8627 14.4731 14.9504 14.2767 14.9642C13.9368 14.9876 13.6591 15 13.4444 15C6.57122 15 1 9.42878 1 2.55556C1 2.34089 1.01167 2.06322 1.03578 1.72333C1.04956 1.5269 1.13734 1.34301 1.2814 1.20876C1.42546 1.07452 1.61508 0.999911 1.812 1H4.56222C4.6587 0.999903 4.75176 1.03567 4.82334 1.10035C4.89492 1.16503 4.93991 1.25401 4.94956 1.35C4.96744 1.52889 4.98378 1.67122 4.99933 1.77933C5.1539 2.85805 5.47067 3.9072 5.93889 4.89122C6.01278 5.04678 5.96456 5.23267 5.82456 5.33222L4.80122 6.06345C4.41876 6.33673 4.27364 6.84225 4.49267 7.25816C5.4475 9.07129 6.92966 10.5534 8.74281 11.5082C9.15864 11.7272 9.66405 11.5822 9.93738 11.1999L10.667 10.1793C10.716 10.1109 10.7874 10.0618 10.8688 10.0406C10.9503 10.0194 11.0366 10.0275 11.1127 10.0634C12.0966 10.5308 13.1455 10.8468 14.2238 11.0007C14.3319 11.0162 14.4742 11.0333 14.6516 11.0504C14.7474 11.0603 14.8362 11.1053 14.9007 11.1769C14.9652 11.2485 15.0001 11.3414 15 11.4378Z" fill="currentColor"/>
</svg>
