<svg width="24" height="24" viewBox="0 0 24 24" fill="none" xmlns="http://www.w3.org/2000/svg">
<path fill-rule="evenodd" clip-rule="evenodd" d="M14.001 5C13.7358 5 13.4815 5.10535 13.2939 5.29289C13.1064 5.48043 13.001 5.73478 13.001 6C13.001 6.26521 13.1064 6.51957 13.2939 6.7071C13.4815 6.89464 13.7358 7 14.001 7C14.2662 7 14.5206 6.89464 14.7081 6.7071C14.8957 6.51957 15.001 6.26521 15.001 6C15.001 5.73478 14.8957 5.48043 14.7081 5.29289C14.5206 5.10535 14.2662 5 14.001 5ZM11.001 6C11.001 5.3496 11.2124 4.71682 11.6032 4.19699C11.9941 3.67715 12.5433 3.29842 13.1682 3.11786C13.793 2.9373 14.4596 2.96469 15.0675 3.1959C15.6754 3.42711 16.1917 3.84961 16.5386 4.39976C16.8855 4.94991 17.0443 5.59789 16.9909 6.24609C16.9375 6.89429 16.675 7.5076 16.2427 7.9936C15.8105 8.4796 15.2321 8.81197 14.5945 8.94064C13.957 9.06932 13.2949 8.98731 12.708 8.707L10.708 10.707C10.896 11.098 11.001 11.537 11.001 12C11.001 12.463 10.896 12.902 10.708 13.293L12.708 15.293C13.3466 14.988 14.0725 14.9185 14.7573 15.0969C15.4422 15.2753 16.0419 15.6901 16.4505 16.2679C16.8591 16.8457 17.0503 17.5494 16.9902 18.2546C16.9302 18.9597 16.6228 19.6209 16.1224 20.1214C15.622 20.6218 14.9607 20.9292 14.2556 20.9892C13.5504 21.0493 12.8468 20.8581 12.2689 20.4495C11.6911 20.0409 11.2764 19.4411 11.0979 18.7563C10.9195 18.0715 10.989 17.3456 11.294 16.707L9.29402 14.707C8.83673 14.9252 8.33161 15.0241 7.82579 14.9943C7.31996 14.9646 6.82992 14.8072 6.40136 14.5368C5.97281 14.2665 5.61971 13.892 5.375 13.4483C5.13029 13.0046 5.00195 12.5062 5.00195 11.9995C5.00195 11.4928 5.13029 10.9944 5.375 10.5507C5.61971 10.107 5.97281 9.73249 6.40136 9.46215C6.82992 9.19181 7.31996 9.03443 7.82579 9.00467C8.33161 8.97492 8.83673 9.07377 9.29402 9.292L11.294 7.293C11.1008 6.88935 11.0007 6.44749 11.001 6ZM8.00102 11C7.73581 11 7.48145 11.1054 7.29392 11.2929C7.10638 11.4804 7.00102 11.7348 7.00102 12C7.00102 12.2652 7.10638 12.5196 7.29392 12.7071C7.48145 12.8946 7.73581 13 8.00102 13C8.26624 13 8.52059 12.8946 8.70813 12.7071C8.89567 12.5196 9.00102 12.2652 9.00102 12C9.00102 11.7348 8.89567 11.4804 8.70813 11.2929C8.52059 11.1054 8.26624 11 8.00102 11ZM14.001 17C13.8697 16.9997 13.7395 17.0254 13.6182 17.0757C13.4968 17.126 13.3867 17.1999 13.294 17.293C13.1305 17.4566 13.0287 17.6719 13.006 17.9021C12.9834 18.1324 13.0413 18.3634 13.1699 18.5557C13.2984 18.748 13.4897 18.8899 13.7111 18.957C13.9325 19.0241 14.1704 19.0124 14.3841 18.9238C14.5978 18.8352 14.7742 18.6753 14.8832 18.4712C14.9923 18.2672 15.0272 18.0316 14.982 17.8047C14.9368 17.5778 14.8143 17.3736 14.6355 17.2269C14.4566 17.0801 14.2324 16.9999 14.001 17Z" fill="currentColor"/>
</svg>
