<svg width="16" height="16" viewBox="0 0 16 16" fill="none" xmlns="http://www.w3.org/2000/svg">
<g clip-path="url(#clip0_213_5319)">
<path fill-rule="evenodd" clip-rule="evenodd" d="M14.0641 0C11.7435 9.77766e-05 9.51798 0.922034 7.87711 2.563L7.41811 3.021C7.10411 3.335 6.80211 3.662 6.51411 4H3.31011C3.01129 4.00009 2.71748 4.07669 2.45665 4.2225C2.19583 4.36832 1.97669 4.57849 1.82011 4.833L0.110112 7.607C0.0500859 7.7045 0.0131795 7.81445 0.0022219 7.92842C-0.00873566 8.04239 0.00654649 8.15736 0.046897 8.26451C0.0872476 8.37166 0.151595 8.46815 0.235008 8.54658C0.31842 8.62502 0.418683 8.68331 0.528112 8.717L3.63011 9.671C3.66711 9.722 3.70911 9.771 3.75411 9.816L6.18311 12.244C6.22911 12.29 6.27711 12.332 6.32811 12.369L7.28211 15.471C7.3158 15.5804 7.37409 15.6807 7.45253 15.7641C7.53096 15.8475 7.62745 15.9119 7.7346 15.9522C7.84175 15.9926 7.95672 16.0078 8.07069 15.9969C8.18466 15.9859 8.29461 15.949 8.39211 15.889L11.1661 14.182C11.4206 14.0254 11.6308 13.8063 11.7766 13.5455C11.9224 13.2846 11.999 12.9908 11.9991 12.692V9.485C12.3371 9.197 12.6641 8.895 12.9781 8.581L13.4361 8.122C15.0772 6.48154 15.9995 4.2564 16.0001 1.936V1.75C16.0001 1.28587 15.8157 0.840752 15.4875 0.512563C15.1593 0.184374 14.7142 0 14.2501 0H14.0641ZM10.5001 10.625C10.4121 10.685 10.3231 10.743 10.2341 10.8L7.88411 12.321L8.43211 14.104L10.3811 12.904C10.4175 12.8816 10.4475 12.8503 10.4683 12.813C10.4892 12.7757 10.5001 12.7337 10.5001 12.691V10.625ZM3.67811 8.116L5.20011 5.766C5.25811 5.676 5.31711 5.588 5.37611 5.5H3.30911C3.2664 5.49999 3.22439 5.51092 3.18711 5.53175C3.14982 5.55258 3.11849 5.58262 3.09611 5.619L1.89611 7.569L3.67811 8.116ZM8.93811 3.623C10.2974 2.26391 12.1409 1.50028 14.0631 1.5H14.2491C14.3154 1.5 14.379 1.52634 14.4259 1.57322C14.4728 1.62011 14.4991 1.6837 14.4991 1.75V1.936C14.4992 2.88813 14.3118 3.83096 13.9475 4.71066C13.5833 5.59035 13.0493 6.38968 12.3761 7.063L11.9171 7.521C11.1571 8.281 10.3201 8.958 9.41811 9.541L7.10111 11.041L4.95811 8.898L6.45811 6.581C7.0415 5.67884 7.71859 4.84085 8.47811 4.081L8.93611 3.623H8.93811ZM12.0001 5C12.0001 5.26522 11.8947 5.51957 11.7072 5.70711C11.5197 5.89464 11.2653 6 11.0001 6C10.7349 6 10.4805 5.89464 10.293 5.70711C10.1054 5.51957 10.0001 5.26522 10.0001 5C10.0001 4.73478 10.1054 4.48043 10.293 4.29289C10.4805 4.10536 10.7349 4 11.0001 4C11.2653 4 11.5197 4.10536 11.7072 4.29289C11.8947 4.48043 12.0001 4.73478 12.0001 5ZM3.56011 14.56C3.70748 14.4227 3.82569 14.2571 3.90767 14.0731C3.98966 13.8891 4.03374 13.6905 4.03729 13.489C4.04085 13.2876 4.0038 13.0876 3.92836 12.9008C3.85291 12.714 3.74062 12.5444 3.59819 12.4019C3.45575 12.2595 3.28608 12.1472 3.09931 12.0718C2.91253 11.9963 2.71247 11.9593 2.51107 11.9628C2.30966 11.9664 2.11103 12.0105 1.92703 12.0924C1.74304 12.1744 1.57743 12.2926 1.44011 12.44C0.706112 13.17 0.393112 14.772 0.290112 15.443C0.284022 15.4792 0.286669 15.5163 0.297832 15.5512C0.308995 15.5861 0.328351 15.6179 0.354284 15.6438C0.380218 15.6698 0.411977 15.6891 0.446912 15.7003C0.481848 15.7114 0.518946 15.7141 0.555112 15.708C1.22611 15.605 2.82811 15.292 3.56011 14.56Z" fill="currentColor"/>
</g>
<defs>
<clipPath id="clip0_213_5319">
<rect width="16" height="16" fill="white"/>
</clipPath>
</defs>
</svg>
