<svg width="24" height="24" viewBox="0 0 24 24" fill="none" xmlns="http://www.w3.org/2000/svg">
<path fill-rule="evenodd" clip-rule="evenodd" d="M12 1.00049C12.1498 1.00058 12.2976 1.03433 12.4327 1.09924C12.5677 1.16414 12.6864 1.25855 12.78 1.37549L20.78 11.3755C20.922 11.5529 20.9994 11.7733 20.9994 12.0005C20.9994 12.2277 20.922 12.4481 20.78 12.6255L12.78 22.6255C12.6863 22.7423 12.5676 22.8365 12.4325 22.9013C12.2975 22.9661 12.1497 22.9997 12 22.9997C11.8503 22.9997 11.7024 22.9661 11.5674 22.9013C11.4324 22.8365 11.3137 22.7423 11.22 22.6255L3.21999 12.6255C3.07798 12.4481 3.00061 12.2277 3.00061 12.0005C3.00061 11.7733 3.07798 11.5529 3.21999 11.3755L11.22 1.37549C11.3136 1.25855 11.4323 1.16414 11.5673 1.09924C11.7023 1.03433 11.8502 1.00058 12 1.00049ZM6.65799 12.0715L12 14.4085L17.342 12.0715L12 10.0685L6.65799 12.0715ZM16.686 14.5415L12.401 16.4165C12.2745 16.4718 12.138 16.5004 12 16.5004C11.862 16.5004 11.7254 16.4718 11.599 16.4165L7.31399 14.5415L12 20.4005L16.686 14.5425V14.5415ZM16.95 9.78849L12.351 8.06449C12.1247 7.97966 11.8753 7.97966 11.649 8.06449L7.04999 9.78849L12 3.60149L16.95 9.78849Z" fill="currentColor"/>
</svg>
