<svg width="24" height="24" viewBox="0 0 24 24" fill="none" xmlns="http://www.w3.org/2000/svg">
<path fill-rule="evenodd" clip-rule="evenodd" d="M15.79 2.013C15.9187 1.78209 16.1336 1.61155 16.3877 1.53865C16.6418 1.46575 16.9144 1.49644 17.146 1.624L21.983 4.29C22.0983 4.35365 22.1999 4.43946 22.282 4.5425C22.3641 4.64555 22.425 4.76379 22.4612 4.89045C22.4975 5.0171 22.5083 5.14967 22.4932 5.28053C22.4781 5.41139 22.4372 5.53798 22.373 5.653L20.765 8.538C19.7176 10.421 18.0085 11.8481 15.969 12.543L21.886 15.804C22.0014 15.8676 22.1031 15.9533 22.1853 16.0563C22.2675 16.1593 22.3285 16.2776 22.3648 16.4042C22.4012 16.5309 22.4121 16.6635 22.397 16.7944C22.382 16.9253 22.3412 17.0519 22.277 17.167L19.597 21.977C19.4681 22.208 19.2529 22.3785 18.9986 22.4512C18.7443 22.524 18.4715 22.493 18.24 22.365L11.47 18.633C11.1885 18.4771 10.8568 18.439 10.5473 18.5268C10.2377 18.6147 9.97556 18.8215 9.81798 19.102L8.20998 21.986C8.08127 22.2169 7.86636 22.3875 7.61226 22.4604C7.35815 22.5332 7.08552 22.5026 6.85398 22.375L2.01698 19.71C1.90164 19.6464 1.80001 19.5605 1.71793 19.4575C1.63585 19.3545 1.57494 19.2362 1.5387 19.1096C1.50246 18.9829 1.49161 18.8503 1.50676 18.7195C1.5219 18.5886 1.56276 18.462 1.62698 18.347L3.23498 15.462C4.2824 13.579 5.99143 12.1519 8.03098 11.457L2.11398 8.196C1.99855 8.13244 1.89683 8.04669 1.81465 7.94368C1.73247 7.84068 1.67146 7.72245 1.63513 7.59578C1.59879 7.46912 1.58785 7.33653 1.60292 7.20563C1.618 7.07472 1.6588 6.94809 1.72298 6.833L4.40298 2.023C4.53186 1.792 4.74702 1.62147 5.00135 1.54875C5.25568 1.47603 5.52846 1.50705 5.75998 1.635L12.531 5.367C13.12 5.692 13.859 5.477 14.181 4.899L15.791 2.013H15.79ZM17.053 3.856L15.929 5.872C15.5138 6.61387 14.822 7.16138 14.0046 7.39501C13.1871 7.62863 12.3105 7.52941 11.566 7.119L5.66598 3.867L3.95998 6.929L9.85098 10.176C13.111 11.973 17.216 10.799 19.019 7.564L20.139 5.556L17.054 3.856H17.053ZM14.15 13.824C10.89 12.027 6.78498 13.201 4.98198 16.436L3.86198 18.444L6.94798 20.144L8.07198 18.128C8.48697 17.3859 9.17878 16.8383 9.99627 16.6046C10.8138 16.371 11.6905 16.4703 12.435 16.881L18.334 20.133L20.041 17.071L14.15 13.824Z" fill="currentColor"/>
</svg>
