<svg width="21" height="20" viewBox="0 0 21 20" fill="none" xmlns="http://www.w3.org/2000/svg">
<path fill-rule="evenodd" clip-rule="evenodd" d="M6.88724 0.441257C7.49809 0.0869638 8.25191 0.086964 8.86276 0.441257L14.769 3.86688C15.3763 4.21907 15.75 4.86794 15.75 5.56992V12.1563C15.75 12.6222 15.3722 13 14.9062 13C14.4403 13 14.0625 12.6222 14.0625 12.1563V6.38668L8.71875 9.48605V16.3125V16.668C8.71875 17.5351 7.77932 18.0762 7.02931 17.6412L0.980993 14.1332C0.373767 13.7809 0 13.132 0 12.4302V5.56992C0 4.86794 0.373765 4.21907 0.980992 3.86688L6.88724 0.441257ZM8.01611 1.901L13.2246 4.92189L7.87501 8.02463L2.52546 4.92189L7.73389 1.901C7.82116 1.85039 7.92884 1.85039 8.01611 1.901ZM1.6875 12.4302V6.38668L7.03125 9.48605V15.6915L1.82764 12.6734C1.74089 12.6231 1.6875 12.5304 1.6875 12.4302Z" fill="currentColor"/>
<path d="M19.7833 14.2897C20.0304 14.0151 20.1446 13.5739 19.7833 13.2125C19.4219 12.8512 18.8407 13.0648 18.5936 13.3394L14.964 17.0981L13.3377 15.7877C13.0906 15.5131 12.5265 15.5131 12.2794 15.7877C12.0323 16.0622 12.0316 16.6585 12.2788 16.9331L14.5384 18.9731C14.7856 19.2477 15.1862 19.2477 15.4334 18.9731L19.7833 14.2897Z" fill="currentColor"/>
</svg>
