<svg width="16" height="16" viewBox="0 0 16 16" fill="none" xmlns="http://www.w3.org/2000/svg">
<g clip-path="url(#clip0_213_5315)">
<path fill-rule="evenodd" clip-rule="evenodd" d="M10.332 1.75C10.332 1.33579 10.6678 1 11.082 1H15.2522C15.6664 1 16.0022 1.33579 16.0022 1.75C16.0022 2.16421 15.6664 2.5 15.2522 2.5H11.082C10.6678 2.5 10.332 2.16421 10.332 1.75ZM11.7969 4.75C11.7969 4.33579 12.1327 4 12.5469 4H15.2522C15.6664 4 16.0022 4.33579 16.0022 4.75C16.0022 5.16421 15.6664 5.5 15.2522 5.5H12.5469C12.1327 5.5 11.7969 5.16421 11.7969 4.75ZM12.0016 7.75C12.0016 7.3358 12.3374 7 12.7516 7H15.2522C15.6664 7 16.0022 7.3358 16.0022 7.75C16.0022 8.1642 15.6664 8.5 15.2522 8.5H12.7516C12.3374 8.5 12.0016 8.1642 12.0016 7.75ZM9.41913 8.16067C9.6289 7.65437 9.73685 7.1117 9.73685 6.56368C9.73685 5.45688 9.29718 4.39542 8.51457 3.6128C7.73192 2.83018 6.67046 2.39051 5.56367 2.39051C4.45688 2.39051 3.39542 2.83018 2.6128 3.6128C1.83018 4.39542 1.39051 5.45688 1.39051 6.56368C1.39051 7.1117 1.49845 7.65437 1.70817 8.16067C1.9179 8.66699 2.22528 9.12703 2.6128 9.51457C3.00031 9.90203 3.46036 10.2094 3.96667 10.4192C4.47299 10.6289 5.01564 10.7368 5.56367 10.7368C6.1117 10.7368 6.65436 10.6289 7.16067 10.4192C7.66699 10.2094 8.12702 9.90203 8.51457 9.51457C8.90203 9.12703 9.20945 8.66699 9.41913 8.16067ZM5.04231 12.1039C6.45151 12.2367 7.85834 11.8274 8.9764 10.9594L11.7956 13.7786C11.8593 13.847 11.9361 13.9018 12.0214 13.9398C12.1066 13.9778 12.1988 13.9982 12.2922 13.9999C12.3856 14.0016 12.4783 13.9843 12.565 13.9493C12.6516 13.9144 12.7302 13.8624 12.7962 13.7962C12.8623 13.7302 12.9144 13.6516 12.9493 13.565C12.9843 13.4783 13.0016 13.3856 12.9999 13.2922C12.9982 13.1988 12.9778 13.1067 12.9398 13.0214C12.9018 12.9361 12.847 12.8593 12.7786 12.7956L9.95941 9.9764C10.8274 8.85834 11.2367 7.45151 11.1039 6.04231C10.9712 4.63311 10.3063 3.32747 9.24478 2.39121C8.18322 1.45493 6.80477 0.958418 5.39002 1.00273C3.97527 1.04705 2.6306 1.62886 1.62973 2.62973C0.628862 3.63059 0.0470487 4.97528 0.00272971 6.39003C-0.04158 7.80477 0.454934 9.18323 1.39121 10.2448C2.32747 11.3063 3.6331 11.9712 5.04231 12.1039Z" fill="currentColor"/>
</g>
<defs>
<clipPath id="clip0_213_5315">
<rect width="16" height="16" fill="white"/>
</clipPath>
</defs>
</svg>
