<svg width="16" height="16" viewBox="0 0 16 16" fill="none" xmlns="http://www.w3.org/2000/svg">
<g clip-path="url(#clip0_213_5411)">
<path fill-rule="evenodd" clip-rule="evenodd" d="M3.499 0.75C3.499 0.551088 3.57802 0.360322 3.71867 0.21967C3.85932 0.0790176 4.05009 0 4.249 0C4.44791 0 4.63868 0.0790176 4.77933 0.21967C4.91998 0.360322 4.999 0.551088 4.999 0.75V1.746C5.9 2.903 6.793 3.65 7.662 4.376L7.902 4.578C7.866 3.884 7.957 3.156 8.328 2.415C9.1 0.873 10.794 -0.045 12.622 0.26C14.408 0.558 16 1.94 16 4.25C16 5.528 15.046 6.825 13.56 6.984L13.706 7.492L13.771 7.712C13.974 8.413 14.183 9.167 14.247 9.938C14.389 11.645 13.847 12.968 12.76 13.836C11.714 14.671 10.27 15 8.75 15H2.75C2.55109 15 2.36032 14.921 2.21967 14.7803C2.07902 14.6397 2 14.4489 2 14.25C2 14.0511 2.07902 13.8603 2.21967 13.7197C2.36032 13.579 2.55109 13.5 2.75 13.5H4.126C3.88078 13.1328 3.69108 12.7315 3.563 12.309C3.35805 11.6388 3.34076 10.9253 3.513 10.246C2.8246 10.3004 2.13275 10.2003 1.488 9.953C1.39568 9.91853 1.31106 9.86621 1.23896 9.79903C1.16686 9.73186 1.10869 9.65114 1.06779 9.56148C0.985179 9.38041 0.977881 9.17395 1.0475 8.9875C1.11712 8.80105 1.25795 8.6499 1.43902 8.56729C1.62009 8.48468 1.82655 8.47738 2.013 8.547C3.37 9.054 4.389 8.541 4.711 8.229L4.72 8.219C4.7895 8.14922 4.87209 8.09384 4.96304 8.05606C5.054 8.01828 5.15151 7.99883 5.25 7.99883C5.34849 7.99883 5.446 8.01828 5.53696 8.05606C5.62791 8.09384 5.7105 8.14922 5.78 8.219C5.85089 8.28967 5.90691 8.37381 5.94477 8.46648C5.98263 8.55914 6.00156 8.65844 6.00044 8.75853C5.99933 8.85862 5.97818 8.95748 5.93826 9.04927C5.89834 9.14106 5.84045 9.22393 5.768 9.293C4.856 10.213 4.776 11.128 5 11.879C5.221 12.619 5.745 13.216 6.196 13.5H8.75C10.093 13.5 11.148 13.204 11.824 12.664C12.459 12.157 12.86 11.354 12.752 10.062C12.702 9.459 12.536 8.838 12.33 8.132L12.266 7.911C12.146 7.504 12.02 7.071 11.913 6.621C11.7242 6.49846 11.5535 6.35001 11.406 6.18C11.1015 5.81842 10.8849 5.39127 10.773 4.932C10.728 4.7402 10.7602 4.53838 10.8628 4.37017C10.9654 4.20195 11.13 4.08085 11.3211 4.03304C11.5123 3.98522 11.7145 4.01453 11.8842 4.11464C12.0539 4.21474 12.1774 4.37759 12.228 4.568C12.274 4.753 12.372 5.004 12.538 5.195C12.684 5.363 12.891 5.5 13.25 5.5C13.988 5.5 14.5 4.885 14.5 4.25C14.5 2.78 13.55 1.935 12.377 1.74C11.205 1.544 10.15 2.127 9.671 3.085C9.211 4.005 9.401 4.859 9.69 6.147L9.732 6.337C9.7359 6.35355 9.73923 6.37023 9.742 6.387C10.09 6.83 10.408 7.336 10.682 7.94C10.7265 8.03014 10.7525 8.12832 10.7583 8.22869C10.7641 8.32907 10.7497 8.42959 10.7159 8.52428C10.6821 8.61897 10.6297 8.7059 10.5616 8.7799C10.4935 8.85391 10.4113 8.91347 10.3197 8.95505C10.2282 8.99662 10.1292 9.01937 10.0287 9.02194C9.92821 9.02451 9.82821 9.00684 9.73467 8.96999C9.64112 8.93313 9.55594 8.87785 9.48419 8.80742C9.41244 8.73698 9.35558 8.65285 9.317 8.56C8.764 7.343 7.997 6.62 7.017 5.792C6.91155 5.70341 6.80588 5.61508 6.7 5.527C5.886 4.847 4.95 4.065 4.008 2.908C3.61646 3.13688 3.26982 3.43507 2.985 3.788C2.579 4.283 2.322 4.824 2.263 5.296C2.379 5.418 2.569 5.506 2.854 5.535C3.242 5.573 3.651 5.475 3.886 5.345C4.05891 5.25815 4.25869 5.24148 4.4436 5.29848C4.62851 5.35549 4.78423 5.48175 4.87822 5.65088C4.97221 5.82001 4.9972 6.01893 4.94796 6.20606C4.89872 6.39318 4.77906 6.55403 4.614 6.655C4.099 6.942 3.384 7.094 2.708 7.028C2.026 6.961 1.235 6.648 0.829 5.835L0.75 5.677V5.5C0.75 4.516 1.23 3.56 1.827 2.836C2.287 2.277 2.877 1.781 3.5 1.483V0.75H3.499Z" fill="currentColor"/>
</g>
<defs>
<clipPath id="clip0_213_5411">
<rect width="16" height="16" fill="white"/>
</clipPath>
</defs>
</svg>
