<svg width="16" height="16" viewBox="0 0 16 16" fill="none" xmlns="http://www.w3.org/2000/svg">
<path fill-rule="evenodd" clip-rule="evenodd" d="M11.9999 2.66667C11.9999 3.40304 12.5969 4 13.3333 4C14.0696 4 14.6666 3.40304 14.6666 2.66667C14.6666 1.93029 14.0696 1.33333 13.3333 1.33333C12.5969 1.33333 11.9999 1.93029 11.9999 2.66667ZM13.3333 9.33333C12.5969 9.33333 11.9999 8.73638 11.9999 8C11.9999 7.26362 12.5969 6.66666 13.3333 6.66666C14.0696 6.66666 14.6666 7.26362 14.6666 8C14.6666 8.73638 14.0696 9.33333 13.3333 9.33333ZM13.3333 14.6667C12.5969 14.6667 11.9999 14.0697 11.9999 13.3333C11.9999 12.597 12.5969 12 13.3333 12C14.0696 12 14.6666 12.597 14.6666 13.3333C14.6666 14.0697 14.0696 14.6667 13.3333 14.6667ZM7.99992 14.6667C7.26354 14.6667 6.66658 14.0697 6.66658 13.3333C6.66658 12.597 7.26354 12 7.99992 12C8.7363 12 9.33325 12.597 9.33325 13.3333C9.33325 14.0697 8.7363 14.6667 7.99992 14.6667ZM6.66658 8C6.66658 8.73638 7.26354 9.33333 7.99992 9.33333C8.7363 9.33333 9.33325 8.73638 9.33325 8C9.33325 7.26362 8.7363 6.66666 7.99992 6.66666C7.26354 6.66666 6.66658 7.26362 6.66658 8ZM7.99992 4C7.26354 4 6.66658 3.40304 6.66658 2.66667C6.66658 1.93029 7.26354 1.33333 7.99992 1.33333C8.7363 1.33333 9.33325 1.93029 9.33325 2.66667C9.33325 3.40304 8.7363 4 7.99992 4ZM1.33325 13.3333C1.33325 14.0697 1.93021 14.6667 2.66659 14.6667C3.40296 14.6667 3.99992 14.0697 3.99992 13.3333C3.99992 12.597 3.40296 12 2.66659 12C1.93021 12 1.33325 12.597 1.33325 13.3333ZM2.66659 9.33333C1.93021 9.33333 1.33325 8.73638 1.33325 8C1.33325 7.26362 1.93021 6.66666 2.66659 6.66666C3.40296 6.66666 3.99992 7.26362 3.99992 8C3.99992 8.73638 3.40296 9.33333 2.66659 9.33333ZM1.33325 2.66667C1.33325 3.40304 1.93021 4 2.66659 4C3.40296 4 3.99992 3.40304 3.99992 2.66667C3.99992 1.93029 3.40296 1.33333 2.66659 1.33333C1.93021 1.33333 1.33325 1.93029 1.33325 2.66667Z" fill="currentColor"/>
</svg>
