<svg width="16" height="16" viewBox="0 0 16 16" fill="none" xmlns="http://www.w3.org/2000/svg">
<path fill-rule="evenodd" clip-rule="evenodd" d="M5.49993 3.49994C4.9695 3.49994 4.46079 3.71065 4.08572 4.08572C3.71065 4.4608 3.49993 4.9695 3.49993 5.49994C3.49993 6.03037 3.71065 6.53908 4.08572 6.91415C4.46079 7.28922 4.9695 7.49994 5.49993 7.49994C6.03036 7.49994 6.53907 7.28922 6.91415 6.91415C7.28922 6.53908 7.49993 6.03037 7.49993 5.49994C7.49993 4.9695 7.28922 4.4608 6.91415 4.08572C6.53907 3.71065 6.03036 3.49994 5.49993 3.49994ZM1.99993 5.49994C1.99986 4.91981 2.14399 4.34876 2.41936 3.83815C2.69473 3.32755 3.0927 2.8934 3.57748 2.57475C4.06226 2.2561 4.61865 2.06295 5.19659 2.01268C5.77454 1.9624 6.35592 2.05657 6.88844 2.28671C7.42096 2.51686 7.88793 2.87576 8.24733 3.33115C8.60674 3.78653 8.84732 4.32411 8.94743 4.89553C9.04754 5.46696 9.00404 6.05431 8.82084 6.60475C8.63765 7.15519 8.3205 7.65147 7.89793 8.04894C8.69479 8.43552 9.38665 9.00861 9.91482 9.71957C10.443 10.4305 10.7919 11.2584 10.9319 12.1329C10.9631 12.3294 10.9149 12.5303 10.7979 12.6913C10.681 12.8523 10.5049 12.9602 10.3084 12.9914C10.1119 13.0226 9.91105 12.9744 9.75005 12.8574C9.58905 12.7405 9.48109 12.5644 9.44993 12.3679C9.29861 11.4293 8.81798 10.5752 8.09418 9.95876C7.37037 9.34229 6.45068 9.00373 5.49993 9.00373C4.54918 9.00373 3.6295 9.34229 2.90569 9.95876C2.18188 10.5752 1.70125 11.4293 1.54993 12.3679C1.53444 12.4652 1.49992 12.5585 1.44837 12.6425C1.39681 12.7265 1.32922 12.7995 1.24946 12.8573C1.16969 12.9152 1.07931 12.9567 0.983481 12.9796C0.887649 13.0026 0.78824 13.0064 0.69093 12.9909C0.593621 12.9754 0.500316 12.9409 0.416344 12.8893C0.332372 12.8378 0.259377 12.7702 0.201526 12.6904C0.143675 12.6107 0.102101 12.5203 0.079179 12.4244C0.0562567 12.3286 0.0524344 12.2292 0.0679304 12.1319C0.208265 11.2577 0.557305 10.4303 1.08546 9.7197C1.61362 9.00911 2.30532 8.43634 3.10193 8.04994C2.75346 7.72298 2.47584 7.32794 2.28629 6.88931C2.09673 6.45067 1.99926 5.97778 1.99993 5.49994ZM10.9999 3.99994C10.801 3.99994 10.6102 4.07895 10.4696 4.21961C10.3289 4.36026 10.2499 4.55102 10.2499 4.74994C10.2499 4.94885 10.3289 5.13961 10.4696 5.28027C10.6102 5.42092 10.801 5.49994 10.9999 5.49994C11.3382 5.49996 11.6666 5.61437 11.9318 5.82459C12.1969 6.03481 12.3832 6.32848 12.4603 6.65792C12.5374 6.98736 12.5009 7.33321 12.3567 7.63928C12.2125 7.94536 11.9691 8.19369 11.6659 8.34394C11.5409 8.40612 11.4357 8.50197 11.3622 8.62069C11.2887 8.73942 11.2498 8.8763 11.2499 9.01594V9.36794C11.2497 9.5364 11.3062 9.70003 11.4103 9.83246C11.5144 9.96489 11.6601 10.0584 11.8239 10.0979C13.0239 10.3869 13.9859 11.2979 14.3459 12.4699C14.3744 12.5644 14.4214 12.6524 14.484 12.7288C14.5467 12.8051 14.6238 12.8684 14.711 12.9149C14.7981 12.9613 14.8936 12.9901 14.9919 12.9996C15.0902 13.0091 15.1894 12.999 15.2839 12.9701C15.3783 12.9411 15.4661 12.8938 15.5421 12.8308C15.6182 12.7678 15.6811 12.6904 15.7272 12.603C15.7733 12.5157 15.8017 12.4201 15.8107 12.3217C15.8198 12.2234 15.8093 12.1242 15.7799 12.0299C15.5797 11.3805 15.2495 10.7786 14.8094 10.2609C14.3693 9.74311 13.8285 9.32022 13.2199 9.01794C13.6108 8.58788 13.8685 8.05351 13.9614 7.47979C14.0544 6.90607 13.9787 6.3177 13.7436 5.78619C13.5084 5.25468 13.1239 4.80292 12.6369 4.48581C12.1498 4.1687 11.5811 3.9999 10.9999 3.99994Z" fill="currentColor"/>
</svg>
