<svg width="24" height="24" viewBox="0 0 24 24" fill="none" xmlns="http://www.w3.org/2000/svg">
<path d="M22.1547 3.306C22.014 3.19253 21.8455 3.11751 21.666 3.08846C21.4866 3.05942 21.3026 3.07738 21.1324 3.14053L2.14662 10.3349C1.96353 10.4062 1.80523 10.528 1.69072 10.6858C1.57622 10.8435 1.51038 11.0305 1.50113 11.2243C1.49188 11.418 1.5396 11.6103 1.63856 11.7779C1.73752 11.9456 1.88351 12.0815 2.05899 12.1694L6.07521 14.1479L8.11984 19.5292C8.1699 19.6689 8.24955 19.7964 8.35351 19.9034C8.4487 19.9991 8.56231 20.0751 8.6877 20.127C8.81308 20.1789 8.94772 20.2057 9.08373 20.2057C9.21974 20.2057 9.35438 20.1789 9.47977 20.127C9.60516 20.0751 9.71877 19.9991 9.81396 19.9034L12.6618 17.1048L17.2184 20.7019C17.395 20.846 17.6171 20.9248 17.8464 20.925C17.9477 20.9237 18.0484 20.9092 18.1458 20.8818C18.3089 20.8263 18.4552 20.7314 18.5713 20.6057C18.6874 20.48 18.7696 20.3275 18.8103 20.1624L22.4614 4.3348C22.5138 4.15226 22.5128 3.95886 22.4586 3.77685C22.4043 3.59484 22.299 3.43163 22.1547 3.306ZM16.3202 10.5507C16.4257 10.4649 16.5125 10.359 16.5754 10.2393C16.6383 10.1196 16.676 9.98867 16.6863 9.85427C16.6965 9.71988 16.6791 9.58483 16.635 9.45725C16.5909 9.32967 16.5211 9.21218 16.4298 9.11184C16.255 8.90856 16.0055 8.7818 15.7361 8.75932C15.4698 8.74531 15.2083 8.83292 15.0058 9.00392L9.89428 13.3205C9.77798 13.4181 9.68535 13.5401 9.62321 13.6776C9.56107 13.8151 9.531 13.9646 9.5352 14.115C9.53941 14.2655 9.57778 14.4131 9.6475 14.547C9.71722 14.6809 9.81652 14.7978 9.93809 14.8889L11.0699 15.7882L9.51456 17.3206L7.87887 13.004C7.78839 12.7671 7.61128 12.572 7.38231 12.4572L5.0383 11.3924L20.0736 5.69453L17.2111 18.1335L12.1507 14.1479L16.3202 10.5507Z" fill="currentColor"/>
</svg>
