<svg width="24" height="24" viewBox="0 0 24 24" fill="none" xmlns="http://www.w3.org/2000/svg">
<path fill-rule="evenodd" clip-rule="evenodd" d="M3.5 12.0005C3.5 9.74615 4.39553 7.58414 5.98959 5.99008C7.58365 4.39602 9.74566 3.50049 12 3.50049C14.2543 3.50049 16.4163 4.39602 18.0104 5.99008C19.6045 7.58414 20.5 9.74615 20.5 12.0005C20.5 14.2548 19.6045 16.4168 18.0104 18.0109C16.4163 19.605 14.2543 20.5005 12 20.5005C9.74566 20.5005 7.58365 19.605 5.98959 18.0109C4.39553 16.4168 3.5 14.2548 3.5 12.0005ZM12 1.50049C6.201 1.50049 1.5 6.20149 1.5 12.0005C1.5 17.7995 6.201 22.5005 12 22.5005C17.799 22.5005 22.5 17.7995 22.5 12.0005C22.5 6.20149 17.799 1.50049 12 1.50049ZM11.976 7.21749C12.0072 7.08834 12.0124 6.95427 11.9912 6.82311C11.97 6.69195 11.9229 6.56633 11.8526 6.45358C11.7823 6.34084 11.6902 6.24323 11.5818 6.16646C11.4734 6.08969 11.3507 6.03529 11.221 6.00646C11.0913 5.97762 10.9572 5.97492 10.8264 5.99851C10.6957 6.0221 10.5709 6.07151 10.4595 6.14385C10.348 6.21619 10.2521 6.31001 10.1774 6.41984C10.1026 6.52966 10.0505 6.65329 10.024 6.78349L9.067 11.0905L7.684 11.5515C7.43231 11.6353 7.22422 11.8157 7.10551 12.0529C6.9868 12.2901 6.96719 12.5648 7.051 12.8165C7.13481 13.0682 7.31517 13.2763 7.5524 13.395C7.78964 13.5137 8.06431 13.5333 8.316 13.4495L8.561 13.3675L8.024 15.7835C7.99151 15.9297 7.99225 16.0813 8.02619 16.2271C8.06012 16.3729 8.12637 16.5093 8.22005 16.6261C8.31374 16.7429 8.43245 16.8372 8.56745 16.902C8.70244 16.9668 8.85026 17.0005 9 17.0005H15C15.2652 17.0005 15.5196 16.8951 15.7071 16.7076C15.8946 16.5201 16 16.2657 16 16.0005C16 15.7353 15.8946 15.4809 15.7071 15.2934C15.5196 15.1058 15.2652 15.0005 15 15.0005H10.247L10.773 12.6305L12.816 11.9495C13.0677 11.8657 13.2758 11.6853 13.3945 11.4481C13.5132 11.2109 13.5328 10.9362 13.449 10.6845C13.3652 10.4328 13.1848 10.2247 12.9476 10.106C12.7104 9.98729 12.4357 9.96768 12.184 10.0515L11.279 10.3535L11.976 7.21749Z" fill="currentColor"/>
</svg>
