
<svg width="24" height="24" viewBox="0 0 24 24" fill="none" xmlns="http://www.w3.org/2000/svg">
<path fill-rule="evenodd" clip-rule="evenodd" d="M22.5 12C22.5 17.799 17.799 22.5 12 22.5C6.201 22.5 1.5 17.799 1.5 12C1.5 6.201 6.201 1.5 12 1.5C17.799 1.5 22.5 6.201 22.5 12ZM18.102 6.082C17.3104 5.26387 16.3622 4.61359 15.3138 4.16997C14.2654 3.72636 13.1384 3.4985 12 3.5C10.7497 3.49887 9.51464 3.77412 8.38316 4.30606C7.25168 4.83801 6.25177 5.61348 5.455 6.577C6.859 5.963 8.347 5.989 8.875 5.998L9 6C9.6 6 10 6.4 10 7C10 7.6 9.6 8 9 8C8.4 8 8 8.4 8 9C8 9.6 8.6 10 9 10H10C10.55 10 11 10.45 11 11.013C10.9966 11.276 10.8897 11.527 10.7025 11.7117C10.5154 11.8965 10.263 12 10 12C7.57 12 7.679 14 8 14.642C8.579 15.8 10.61 15.457 11.81 14.642L12.4 14.2C12.6122 14.0409 12.8789 13.9725 13.1414 14.0101C13.404 14.0476 13.6409 14.1878 13.8 14.4C13.9591 14.6122 14.0275 14.8789 13.9899 15.1414C13.9524 15.404 13.8122 15.6409 13.6 15.8L13.071 16.197C10.5 18 13 20.5 16.43 18.797C17.999 17.857 18.589 16.563 18.704 15.384C18.7754 14.6135 18.6622 13.8371 18.374 13.119C18.101 12.442 17.738 12.017 17.467 11.845C17.2841 11.7292 17.1436 11.5572 17.0668 11.3548C16.99 11.1523 16.981 10.9305 17.041 10.7225C17.1011 10.5145 17.2271 10.3316 17.4 10.2013C17.573 10.071 17.7835 10.0004 18 10C18.21 10 18.51 10 18.856 10.059C18.8189 9.95269 18.7703 9.85075 18.711 9.755C18.393 9.229 17.687 8.578 16.486 7.857C16.2987 7.7444 16.1535 7.57358 16.0725 7.37064C15.9916 7.1677 15.9793 6.94382 16.0376 6.73324C16.0958 6.52266 16.2215 6.33696 16.3953 6.20455C16.5691 6.07213 16.7815 6.00029 17 6C17.325 6 17.702 6.017 18.102 6.082Z" fill="currentColor"/>
</svg>
