
<svg width="16" height="16" viewBox="0 0 16 16" fill="none" xmlns="http://www.w3.org/2000/svg">
<g clip-path="url(#clip0_213_5387)">
<path fill-rule="evenodd" clip-rule="evenodd" d="M1.18993 1.14254C0.854447 0.899595 0.385538 0.974621 0.142597 1.31011C-0.100343 1.6456 -0.0253172 2.11451 0.310171 2.35745L3.00005 4.3053V14.25C3.00005 14.5353 3.16197 14.796 3.41778 14.9224C3.67359 15.0488 3.97897 15.0191 4.20564 14.8458L8.00005 11.9442L11.7945 14.8458C12.0212 15.0191 12.3266 15.0488 12.5824 14.9224C12.8382 14.796 13.0001 14.5353 13.0001 14.25V11.5467L14.8102 12.8574C15.1457 13.1004 15.6146 13.0254 15.8576 12.6899C16.1005 12.3544 16.0255 11.8855 15.69 11.6425L12.6964 9.47478C12.6918 9.47138 12.6872 9.46804 12.6826 9.46475L4.19634 3.31959C4.19178 3.3162 4.18717 3.31287 4.18253 3.30959L1.18993 1.14254ZM4.50005 5.3915V12.7323L7.54446 10.4042C7.81338 10.1986 8.18672 10.1986 8.45564 10.4042L11.5001 12.7323V10.4605L4.50005 5.3915ZM5.86505 0.999999C5.45084 0.999999 5.11505 1.33579 5.11505 1.75C5.11505 2.16421 5.45084 2.5 5.86505 2.5H11.2501C11.3882 2.5 11.5001 2.61193 11.5001 2.75V6.37362C11.5001 6.78783 11.8359 7.12362 12.2501 7.12362C12.6643 7.12362 13.0001 6.78783 13.0001 6.37362V2.75C13.0001 1.7835 12.2166 0.999999 11.2501 0.999999H5.86505Z" fill="currentColor"/>
</g>
<defs>
<clipPath id="clip0_213_5387">
<rect width="16" height="16" fill="white"/>
</clipPath>
</defs>
</svg>
