<svg viewBox="0 0 18 18" fill="none" xmlns="http://www.w3.org/2000/svg">
<g clip-path="url(#clip0_1602_31832)">
<path d="M7.58473 14.0104C7.8824 12.1888 7.60073 10.3216 6.77784 8.66174C5.5675 6.5795 2.47103 4.81307 2.61223 2.04004C2.61223 2.04004 1.04891 3.61898 4.4177 8.10911C5.73596 9.93024 6.80093 11.9147 7.58473 14.0104Z" fill="currentColor"/>
<path d="M4.07441 0.00987219C3.36838 0.256583 3.15657 1.40131 4.07441 3.04933C4.99226 4.69736 7.10026 6.38487 7.46336 7.62829C7.82647 8.87171 8.47204 10.4112 9.1579 10.352C9.84376 10.2928 9.49069 8.50658 9.28897 7.93421C9.08724 7.36184 8.65353 6.18752 8.59301 5.85199C8.39881 4.78521 7.96478 3.77399 7.3222 2.89146C6.20264 1.33225 4.46778 -0.118417 4.07441 0.00987219Z" fill="currentColor"/>
<path d="M10.5813 14.072C10.6418 14.072 6.14338 18.1377 3.7832 18.0193C4.6852 16.8965 5.74067 15.9003 6.92 15.0588C7.99689 14.3461 9.2833 13.9994 10.5813 14.072Z" fill="currentColor"/>
<path d="M13.1126 13.5986C13.5446 14.4038 13.8345 15.2746 13.9699 16.1743C13.9564 16.7929 13.8581 17.407 13.6775 18C13.3354 17.7997 13.0431 17.5276 12.8216 17.2033C12.6 16.8791 12.4549 16.5108 12.3965 16.1249C12.4214 15.2384 12.6673 14.3711 13.1126 13.5986Z" fill="currentColor"/>
<path d="M9.71475 12.4834C10.9086 12.5335 12.0944 12.6987 13.255 12.9768C14.4754 13.3617 14.8789 13.411 16.0085 12.286C17.1382 11.161 16.9364 10.4801 16.6238 10.0854C16.3111 9.69062 15.4235 9.33536 14.9999 9.0097C14.5763 8.68404 13.1037 7.12483 9.5332 7.52944C10.1659 7.96884 10.8416 8.34571 11.5504 8.65445L10.8242 8.98998C10.8242 8.98998 11.3083 10.1544 12.8414 9.513L12.7809 9.27614C13.5921 9.87587 14.4448 10.42 15.3328 10.9045C15.3328 10.9045 14.9797 11.9505 14.2535 12.138C13.5273 12.3255 12.6297 11.7827 9.71475 12.4834Z" fill="currentColor"/>
</g>
<defs>
<clipPath id="clip0_1602_31832">
<rect width="14.625" height="18" fill="currentColor" transform="translate(2.25)"/>
</clipPath>
</defs>
</svg>
