
<svg width="24" height="24" viewBox="0 0 24 24" fill="none" xmlns="http://www.w3.org/2000/svg">
<path fill-rule="evenodd" clip-rule="evenodd" d="M4 12.0005C4 9.87876 4.84285 7.84392 6.34315 6.34363C7.84344 4.84334 9.87827 4.00049 12 4.00049C14.1217 4.00049 16.1566 4.84334 17.6569 6.34363C19.1571 7.84392 20 9.87876 20 12.0005C20 14.1222 19.1571 16.1571 17.6569 17.6573C16.1566 19.1576 14.1217 20.0005 12 20.0005C9.87827 20.0005 7.84344 19.1576 6.34315 17.6573C4.84285 16.1571 4 14.1222 4 12.0005ZM12 2.00049C6.477 2.00049 2 6.47749 2 12.0005C2 17.5235 6.477 22.0005 12 22.0005C17.523 22.0005 22 17.5235 22 12.0005C22 6.47749 17.523 2.00049 12 2.00049ZM14.033 17.2565C14.0992 17.5134 14.2647 17.7334 14.4931 17.8682C14.6062 17.935 14.7313 17.9788 14.8614 17.9972C14.9914 18.0156 15.1238 18.0083 15.251 17.9755C15.3782 17.9427 15.4977 17.8852 15.6026 17.8063C15.7076 17.7273 15.796 17.6285 15.8628 17.5154C15.9295 17.4023 15.9734 17.2772 15.9918 17.1471C16.0102 17.0171 16.0028 16.8847 15.97 16.7575C15.531 15.0015 13.717 14.0005 12 14.0005C10.215 14.0005 8.548 15.0125 8.03 16.7605C7.97087 17.015 8.01374 17.2826 8.14943 17.506C8.28512 17.7293 8.50284 17.8907 8.75601 17.9555C9.00917 18.0203 9.27765 17.9835 9.50398 17.8528C9.73031 17.7222 9.89651 17.5081 9.967 17.2565C10.227 16.3865 11.16 16.0005 12 16.0005C12.84 16.0005 13.772 16.3855 14.033 17.2565ZM10.5 10.0005C10.5 10.3983 10.342 10.7798 10.0607 11.0611C9.77936 11.3425 9.39782 11.5005 9 11.5005C8.60218 11.5005 8.22064 11.3425 7.93934 11.0611C7.65804 10.7798 7.5 10.3983 7.5 10.0005C7.5 9.60266 7.65804 9.22113 7.93934 8.93983C8.22064 8.65852 8.60218 8.50049 9 8.50049C9.39782 8.50049 9.77936 8.65852 10.0607 8.93983C10.342 9.22113 10.5 9.60266 10.5 10.0005ZM15 11.5005C15.3978 11.5005 15.7794 11.3425 16.0607 11.0611C16.342 10.7798 16.5 10.3983 16.5 10.0005C16.5 9.60266 16.342 9.22113 16.0607 8.93983C15.7794 8.65852 15.3978 8.50049 15 8.50049C14.6022 8.50049 14.2206 8.65852 13.9393 8.93983C13.658 9.22113 13.5 9.60266 13.5 10.0005C13.5 10.3983 13.658 10.7798 13.9393 11.0611C14.2206 11.3425 14.6022 11.5005 15 11.5005Z" fill="currentColor"/>
</svg>
