
<svg width="16" height="16" viewBox="0 0 16 16" fill="none" xmlns="http://www.w3.org/2000/svg">
<path fill-rule="evenodd" clip-rule="evenodd" d="M7.563 2.06898C7.69333 2.12883 7.80376 2.22479 7.88122 2.34549C7.95867 2.46619 7.99989 2.60657 8 2.74998V13.25C8.00009 13.3935 7.95903 13.5339 7.88169 13.6548C7.80436 13.7756 7.69398 13.8717 7.56367 13.9317C7.43335 13.9917 7.28856 14.0131 7.14647 13.9933C7.00437 13.9735 6.87094 13.9133 6.762 13.82L3.472 11H1.75C1.28587 11 0.840752 10.8156 0.512563 10.4874C0.184374 10.1592 0 9.71411 0 9.24998V6.74998C0 5.78398 0.784 4.99998 1.75 4.99998H3.473L6.762 2.17998C6.87096 2.08688 7.0043 2.02695 7.14626 2.00728C7.28821 1.98761 7.43283 2.00902 7.563 2.06898ZM6.5 4.37998L4.238 6.31898C4.10215 6.43563 3.92906 6.49983 3.75 6.49998H1.75C1.6837 6.49998 1.62011 6.52632 1.57322 6.5732C1.52634 6.62009 1.5 6.68368 1.5 6.74998V9.24998C1.5 9.38798 1.612 9.49998 1.75 9.49998H3.75C3.92893 9.49985 4.10201 9.56369 4.238 9.67998L6.5 11.62V4.37998ZM12.596 2.34198C12.7366 2.20153 12.9272 2.12264 13.126 2.12264C13.3248 2.12264 13.5154 2.20153 13.656 2.34198C14.3989 3.08485 14.9882 3.96679 15.3903 4.93742C15.7924 5.90805 15.9993 6.94837 15.9993 7.99898C15.9993 9.04959 15.7924 10.0899 15.3903 11.0606C14.9882 12.0312 14.3989 12.9131 13.656 13.656C13.5138 13.7885 13.3258 13.8606 13.1315 13.8572C12.9372 13.8537 12.7518 13.775 12.6144 13.6376C12.477 13.5002 12.3983 13.3148 12.3948 13.1205C12.3914 12.9262 12.4635 12.7382 12.596 12.596C13.1997 11.9924 13.6785 11.2758 14.0052 10.4871C14.332 9.69845 14.5001 8.85314 14.5001 7.99948C14.5001 7.14581 14.332 6.30051 14.0052 5.51184C13.6785 4.72317 13.1997 4.00657 12.596 3.40298C12.4555 3.26235 12.3767 3.07173 12.3767 2.87298C12.3767 2.67423 12.4555 2.48361 12.596 2.34298V2.34198ZM11.536 4.46298C11.3953 4.32228 11.2045 4.24324 11.0055 4.24324C10.8065 4.24324 10.6157 4.32228 10.475 4.46298C10.3343 4.60368 10.2553 4.7945 10.2553 4.99348C10.2553 5.19246 10.3343 5.38328 10.475 5.52398C10.8 5.84899 11.0579 6.23484 11.2338 6.65951C11.4097 7.08417 11.5003 7.53932 11.5003 7.99898C11.5003 8.45864 11.4097 8.91379 11.2338 9.33845C11.0579 9.76312 10.8 10.149 10.475 10.474C10.4013 10.5427 10.3422 10.6255 10.3012 10.7175C10.2602 10.8095 10.2382 10.9088 10.2364 11.0095C10.2346 11.1102 10.2532 11.2102 10.2909 11.3036C10.3286 11.397 10.3847 11.4818 10.456 11.553C10.5272 11.6243 10.612 11.6804 10.7054 11.7181C10.7988 11.7558 10.8988 11.7744 10.9995 11.7726C11.1002 11.7708 11.1995 11.7488 11.2915 11.7078C11.3835 11.6668 11.4663 11.6077 11.535 11.534C12.4724 10.5964 12.9989 9.3248 12.9989 7.99898C12.9989 6.67316 12.4724 5.40162 11.535 4.46398L11.536 4.46298Z" fill="currentColor"/>
</svg>
