
<svg width="24" height="24" viewBox="0 0 24 24" fill="none" xmlns="http://www.w3.org/2000/svg">
<path fill-rule="evenodd" clip-rule="evenodd" d="M9.25 2.00049C8.56 2.00049 8 2.56049 8 3.25049V6.17049C7.41493 6.3775 6.90842 6.76081 6.55024 7.26764C6.19206 7.77446 5.99982 8.37987 6 9.00049V15.0005C6 16.3065 6.835 17.4185 8 17.8305V20.7505C8 21.4405 8.56 22.0005 9.25 22.0005H14.75C15.44 22.0005 16 21.4405 16 20.7505V17.8305C16.5851 17.6235 17.0916 17.2402 17.4498 16.7333C17.8079 16.2265 18.0002 15.6211 18 15.0005V9.00049C18.0002 8.37987 17.8079 7.77446 17.4498 7.26764C17.0916 6.76081 16.5851 6.3775 16 6.17049V3.25049C16 2.56049 15.44 2.00049 14.75 2.00049H9.25ZM9 8.00049C8.73478 8.00049 8.48043 8.10585 8.29289 8.29338C8.10536 8.48092 8 8.73527 8 9.00049V15.0005C8 15.2657 8.10536 15.5201 8.29289 15.7076C8.48043 15.8951 8.73478 16.0005 9 16.0005H15C15.2652 16.0005 15.5196 15.8951 15.7071 15.7076C15.8946 15.5201 16 15.2657 16 15.0005V9.00049C16 8.73527 15.8946 8.48092 15.7071 8.29338C15.5196 8.10585 15.2652 8.00049 15 8.00049H9Z" fill="currentColor"/>
</svg>
