<svg viewBox="0 0 23 23" fill="none" xmlns="http://www.w3.org/2000/svg">
<path fill-rule="evenodd" clip-rule="evenodd" d="M2.75 10.6625V3.125C2.75 3.02555 2.78951 2.93017 2.85983 2.85983C2.93017 2.78951 3.02555 2.75 3.125 2.75H10.6625C10.7118 2.74991 10.7606 2.75954 10.8062 2.77832C10.8517 2.79711 10.8931 2.8247 10.928 2.8595L20.303 12.2345C20.3379 12.2693 20.3657 12.3107 20.3846 12.3563C20.4035 12.4018 20.4131 12.4507 20.4131 12.5C20.4131 12.5493 20.4035 12.5982 20.3846 12.6437C20.3657 12.6893 20.3379 12.7307 20.303 12.7655L12.7655 20.303C12.7307 20.3379 12.6893 20.3657 12.6437 20.3846C12.5982 20.4035 12.5493 20.4131 12.5 20.4131C12.4507 20.4131 12.4018 20.4035 12.3563 20.3846C12.3107 20.3657 12.2693 20.3379 12.2345 20.303L2.8595 10.928C2.8247 10.8931 2.79711 10.8517 2.77832 10.8062C2.75954 10.7606 2.74991 10.7118 2.75 10.6625ZM0.5 10.6625V3.125C0.5 1.676 1.676 0.5 3.125 0.5H10.6625C11.3585 0.5 12.0275 0.776 12.5195 1.2695L21.8945 10.6445C22.3863 11.1367 22.6626 11.8041 22.6626 12.5C22.6626 13.1959 22.3863 13.8633 21.8945 14.3555L14.3555 21.8945C13.8633 22.3863 13.1959 22.6626 12.5 22.6626C11.8041 22.6626 11.1367 22.3863 10.6445 21.8945L1.2695 12.5195C1.02553 12.2757 0.831995 11.9862 0.69995 11.6676C0.56792 11.3489 0.499975 11.0074 0.5 10.6625ZM8 6.5C7.60217 6.5 7.22064 6.65804 6.93933 6.93933C6.65804 7.22064 6.5 7.60217 6.5 8C6.5 8.39783 6.65804 8.77936 6.93933 9.06067C7.22064 9.34196 7.60217 9.5 8 9.5C8.39783 9.5 8.77936 9.34196 9.06067 9.06067C9.34196 8.77936 9.5 8.39783 9.5 8C9.5 7.60217 9.34196 7.22064 9.06067 6.93933C8.77936 6.65804 8.39783 6.5 8 6.5Z" fill="currentColor"/>
</svg>
