<svg fill="none" xmlns="http://www.w3.org/2000/svg">
<path fill-rule="evenodd" clip-rule="evenodd" d="M2 0.375C1.37868 0.375 0.875 0.87868 0.875 1.5C0.875 2.12132 1.37868 2.625 2 2.625L4.2272 2.625C4.81454 2.64981 5.21593 2.74776 5.4938 2.92203C5.72614 3.06774 5.98273 3.33545 6.14438 3.96569L7.63547 14.4133C7.84355 15.9736 9.18002 17.1358 10.7543 17.125H21.3104C22.8184 17.1482 24.1289 16.0894 24.4234 14.6092L26.1031 6.22088C26.1693 5.89036 26.0838 5.54757 25.8701 5.28686C25.6564 5.02615 25.3371 4.875 25 4.875H8.54696L8.36371 3.59105C8.35866 3.55565 8.35192 3.52051 8.34353 3.48575C8.06883 2.34898 7.50563 1.52787 6.68925 1.01588C5.91583 0.530829 5.0412 0.404991 4.29383 0.375854C4.27922 0.375285 4.26461 0.375 4.25 0.375H2ZM9.86553 14.1138L8.86808 7.125H23.6274L22.2166 14.1708C22.134 14.5866 21.7653 14.8833 21.3416 14.8752L21.32 14.875L10.75 14.875L10.7405 14.875C10.2984 14.8788 9.92299 14.5521 9.86553 14.1138ZM6.875 20.9998C6.875 19.2739 8.27411 17.8748 10 17.8748C11.7259 17.8748 13.125 19.2739 13.125 20.9998C13.125 22.7256 11.7259 24.1248 10 24.1248C8.27411 24.1248 6.875 22.7256 6.875 20.9998ZM10 20.1248C9.51675 20.1248 9.125 20.5165 9.125 20.9998C9.125 21.483 9.51675 21.8748 10 21.8748C10.4832 21.8748 10.875 21.483 10.875 20.9998C10.875 20.5165 10.4832 20.1248 10 20.1248ZM18.875 20.9998C18.875 19.2739 20.2741 17.8748 22 17.8748C23.7259 17.8748 25.125 19.2739 25.125 20.9998C25.125 22.7256 23.7259 24.1248 22 24.1248C20.2741 24.1248 18.875 22.7256 18.875 20.9998ZM22 20.1248C21.5168 20.1248 21.125 20.5165 21.125 20.9998C21.125 21.483 21.5168 21.8748 22 21.8748C22.4832 21.8748 22.875 21.483 22.875 20.9998C22.875 20.5165 22.4832 20.1248 22 20.1248Z" fill="currentColor"/>
</svg>
