<svg width="24" height="24" viewBox="0 0 24 24" fill="none" xmlns="http://www.w3.org/2000/svg">
<path fill-rule="evenodd" clip-rule="evenodd" d="M3 12.0005C3 9.61354 3.94821 7.32436 5.63604 5.63653C7.32387 3.9487 9.61305 3.00049 12 3.00049C14.3869 3.00049 16.6761 3.9487 18.364 5.63653C20.0518 7.32436 21 9.61354 21 12.0005C21.0016 13.1826 20.7696 14.3534 20.3172 15.4456C19.8649 16.5378 19.2011 17.5297 18.364 18.3645C18.2685 18.4567 18.1923 18.5671 18.1399 18.6891C18.0875 18.8111 18.0599 18.9423 18.0588 19.0751C18.0576 19.2079 18.0829 19.3395 18.1332 19.4624C18.1835 19.5853 18.2577 19.697 18.3516 19.7909C18.4455 19.8848 18.5571 19.959 18.68 20.0093C18.8029 20.0596 18.9346 20.0849 19.0674 20.0837C19.2002 20.0826 19.3314 20.055 19.4534 20.0026C19.5754 19.9502 19.6858 19.874 19.778 19.7785C20.8008 18.7581 21.612 17.5457 22.1649 16.2109C22.7179 14.8761 23.0016 13.4453 23 12.0005C23 5.92549 18.075 1.00049 12 1.00049C5.925 1.00049 1 5.92549 1 12.0005C1 15.0375 2.232 17.7895 4.222 19.7785C4.4106 19.9606 4.6632 20.0614 4.9254 20.0592C5.1876 20.0569 5.43841 19.9517 5.62382 19.7663C5.80923 19.5809 5.9144 19.3301 5.91667 19.0679C5.91895 18.8057 5.81816 18.5531 5.636 18.3645C4.7989 17.5298 4.13507 16.5378 3.68269 15.4456C3.23031 14.3535 2.9983 13.1826 3 12.0005ZM7 12.0005C7.00015 11.1783 7.20306 10.3688 7.59074 9.64379C7.97842 8.91874 8.53892 8.30049 9.22259 7.84378C9.90627 7.38707 10.692 7.106 11.5102 7.02546C12.3285 6.94493 13.1539 7.06742 13.9135 7.38208C14.6731 7.69673 15.3434 8.19385 15.865 8.82941C16.3866 9.46496 16.7434 10.2193 16.9039 11.0257C17.0643 11.8321 17.0234 12.6656 16.7848 13.4524C16.5462 14.2392 16.1173 14.955 15.536 15.5365C15.3538 15.7251 15.253 15.9777 15.2553 16.2399C15.2576 16.5021 15.3628 16.7529 15.5482 16.9383C15.7336 17.1237 15.9844 17.2289 16.2466 17.2312C16.5088 17.2334 16.7614 17.1326 16.95 16.9505C17.9289 15.9715 18.5955 14.7242 18.8655 13.3664C19.1356 12.0085 18.9969 10.6011 18.4671 9.32204C17.9373 8.043 17.04 6.94979 15.8889 6.18066C14.7378 5.41152 13.3844 5.00099 12 5.00099C10.6156 5.00099 9.26221 5.41152 8.11108 6.18066C6.95995 6.94979 6.06275 8.043 5.53291 9.32204C5.00308 10.6011 4.86441 12.0085 5.13445 13.3664C5.40449 14.7242 6.0711 15.9715 7.05 16.9505C7.14225 17.046 7.25259 17.1222 7.3746 17.1746C7.4966 17.227 7.62782 17.2546 7.7606 17.2557C7.89338 17.2569 8.02506 17.2316 8.14795 17.1813C8.27085 17.131 8.3825 17.0568 8.47639 16.9629C8.57029 16.869 8.64454 16.7573 8.69482 16.6344C8.7451 16.5115 8.7704 16.3799 8.76925 16.2471C8.7681 16.1143 8.74051 15.9831 8.6881 15.8611C8.63569 15.7391 8.55951 15.6287 8.464 15.5365C7.99889 15.0727 7.6301 14.5216 7.37885 13.9147C7.12759 13.3079 6.99884 12.6573 7 12.0005ZM14.5 12.0005C14.5 12.6635 14.2366 13.2994 13.7678 13.7683C13.2989 14.2371 12.663 14.5005 12 14.5005C11.337 14.5005 10.7011 14.2371 10.2322 13.7683C9.76339 13.2994 9.5 12.6635 9.5 12.0005C9.5 11.3374 9.76339 10.7016 10.2322 10.2327C10.7011 9.76388 11.337 9.50049 12 9.50049C12.663 9.50049 13.2989 9.76388 13.7678 10.2327C14.2366 10.7016 14.5 11.3374 14.5 12.0005ZM9.673 17.4945C9.65212 17.1761 9.6968 16.8568 9.80429 16.5563C9.91178 16.2559 10.0798 15.9807 10.2979 15.7478C10.516 15.5149 10.7797 15.3292 11.0724 15.2023C11.3652 15.0753 11.6809 15.0099 12 15.0099C12.3191 15.0099 12.6348 15.0753 12.9276 15.2023C13.2203 15.3292 13.484 15.5149 13.7021 15.7478C13.9202 15.9807 14.0882 16.2559 14.1957 16.5563C14.3032 16.8568 14.3479 17.1761 14.327 17.4945L14.005 22.1305C13.9692 22.6378 13.7423 23.1126 13.3703 23.4593C12.9982 23.806 12.5086 23.9988 12 23.9988C11.4914 23.9988 11.0018 23.806 10.6297 23.4593C10.2577 23.1126 10.0308 22.6378 9.995 22.1305L9.673 17.4945Z" fill="currentColor"/>
</svg>
