
<svg width="16" height="16" viewBox="0 0 16 16" fill="none" xmlns="http://www.w3.org/2000/svg">
<path fill-rule="evenodd" clip-rule="evenodd" d="M4.45547 0.733756C5.31642 -0.127194 6.7716 0.132338 7.28184 1.23784L7.8945 2.56528C8.04683 2.89533 8.25636 3.19582 8.5134 3.45286C8.91662 3.85608 9.42382 4.1395 9.97855 4.27158L12.4327 4.8559C13.7646 5.173 14.2329 6.82768 13.2648 7.79575L11.0606 10L14.7802 13.7197C15.0731 14.0126 15.0731 14.4874 14.7802 14.7803C14.4873 15.0732 14.0125 15.0732 13.7196 14.7803L9.99988 11.0607L7.79564 13.2649C6.82756 14.233 5.1729 13.7647 4.85579 12.4328L4.27146 9.97866C4.13938 9.42394 3.85596 8.91674 3.45274 8.51352C3.1957 8.25648 2.89521 8.04695 2.56515 7.89462L1.23772 7.28196C0.132216 6.77172 -0.127316 5.31654 0.733634 4.45559L4.45547 0.733756ZM5.9199 1.86643C5.84701 1.7085 5.63912 1.67142 5.51613 1.79442L1.7943 5.51625C1.6713 5.63924 1.70838 5.84713 1.86631 5.92002L3.19374 6.53268C3.68446 6.75917 4.13124 7.0707 4.51341 7.45286C5.11291 8.05237 5.53429 8.80646 5.73067 9.63123L6.315 12.0854C6.3603 12.2757 6.59668 12.3426 6.73498 12.2043L12.2042 6.73509C12.3425 6.59679 12.2756 6.36041 12.0853 6.31511L9.63112 5.73079C8.80635 5.53441 8.05224 5.11302 7.45274 4.51352C7.07057 4.13135 6.75905 3.68458 6.53256 3.19387L5.9199 1.86643Z" fill="currentColor"/>
</svg>
