<svg width="24" height="24" viewBox="0 0 24 24" fill="none" xmlns="http://www.w3.org/2000/svg">
<path fill-rule="evenodd" clip-rule="evenodd" d="M5.87601 5.56401C8.02601 4.44601 10.774 3.55401 13.171 3.19401C15.255 2.88101 17.464 4.00601 18.436 5.87601C19.554 8.02601 20.446 10.774 20.806 13.172C21.119 15.255 19.994 17.464 18.124 18.436C15.974 19.554 13.226 20.446 10.829 20.806C8.74501 21.119 6.53601 19.994 5.56401 18.124C4.44601 15.974 3.55401 13.226 3.19401 10.829C2.88101 8.74501 4.00601 6.53601 5.87601 5.56401ZM12.875 1.21601C10.259 1.60801 7.30001 2.57001 4.95301 3.78901C2.32501 5.15501 0.776006 8.19601 1.21601 11.125C1.60801 13.741 2.56901 16.7 3.78901 19.047C5.15501 21.675 8.19601 23.224 11.125 22.785C13.741 22.392 16.7 21.43 19.047 20.211C21.675 18.845 23.224 15.804 22.785 12.875C22.392 10.259 21.43 7.30001 20.211 4.95301C18.845 2.32501 15.804 0.776006 12.875 1.21601ZM8.87401 7.23301C8.83451 7.10681 8.77038 6.98969 8.68532 6.88844C8.60026 6.78719 8.49597 6.70382 8.37847 6.64315C8.26098 6.58247 8.13261 6.54571 8.00081 6.53497C7.86901 6.52424 7.73639 6.53975 7.61063 6.58062C7.48487 6.62148 7.36846 6.68688 7.26814 6.77304C7.16782 6.85919 7.08558 6.96438 7.02619 7.08253C6.9668 7.20068 6.93143 7.32943 6.92213 7.46134C6.91282 7.59325 6.92978 7.72569 6.97201 7.85101L7.59001 9.75301L5.68801 10.371C5.43846 10.4551 5.23215 10.6342 5.11388 10.8695C4.9956 11.1048 4.97491 11.3772 5.05628 11.6277C5.13766 11.8781 5.31453 12.0864 5.54851 12.2072C5.7825 12.328 6.05469 12.3517 6.30601 12.273L8.20801 11.655L9.13501 14.508L7.23301 15.126C6.98346 15.2101 6.77715 15.3892 6.65888 15.6245C6.5406 15.8598 6.51991 16.1322 6.60128 16.3827C6.68266 16.6331 6.85953 16.8414 7.09351 16.9622C7.3275 17.083 7.59969 17.1067 7.85101 17.028L9.75301 16.41L10.371 18.312C10.4551 18.5616 10.6342 18.7679 10.8695 18.8861C11.1048 19.0044 11.3772 19.0251 11.6277 18.9437C11.8781 18.8624 12.0864 18.6855 12.2072 18.4515C12.328 18.2175 12.3517 17.9453 12.273 17.694L11.655 15.792L14.508 14.865L15.126 16.767C15.2101 17.0166 15.3892 17.2229 15.6245 17.3411C15.8598 17.4594 16.1322 17.4801 16.3827 17.3987C16.6331 17.3174 16.8414 17.1405 16.9622 16.9065C17.083 16.6725 17.1067 16.4003 17.028 16.149L16.41 14.247L18.312 13.629C18.4382 13.5895 18.5553 13.5254 18.6566 13.4403C18.7578 13.3553 18.8412 13.251 18.9019 13.1335C18.9625 13.016 18.9993 12.8876 19.01 12.7558C19.0208 12.624 19.0053 12.4914 18.9644 12.3656C18.9235 12.2399 18.8581 12.1235 18.772 12.0231C18.6858 11.9228 18.5806 11.8406 18.4625 11.7812C18.3443 11.7218 18.2156 11.6864 18.0837 11.6771C17.9518 11.6678 17.8193 11.6848 17.694 11.727L15.792 12.345L14.865 9.49201L16.767 8.87401C17.0166 8.78991 17.2229 8.61078 17.3411 8.37551C17.4594 8.14023 17.4801 7.86779 17.3987 7.61734C17.3174 7.3669 17.1405 7.15866 16.9065 7.03783C16.6725 6.91701 16.4003 6.89336 16.149 6.97201L14.247 7.59001L13.629 5.68801C13.5895 5.56181 13.5254 5.44469 13.4403 5.34344C13.3553 5.24219 13.251 5.15882 13.1335 5.09815C13.016 5.03747 12.8876 5.00071 12.7558 4.98997C12.624 4.97924 12.4914 4.99476 12.3656 5.03562C12.2399 5.07648 12.1235 5.14188 12.0231 5.22804C11.9228 5.31419 11.8406 5.41938 11.7812 5.53753C11.7218 5.65568 11.6864 5.78443 11.6771 5.91634C11.6678 6.04825 11.6848 6.18069 11.727 6.30601L12.345 8.20801L9.49201 9.13501L8.87401 7.23301ZM11.037 13.89L10.11 11.037L12.963 10.11L13.89 12.963L11.037 13.89Z" fill="currentColor"/>
</svg>
