<svg width="16" height="16" viewBox="0 0 16 16" fill="none" xmlns="http://www.w3.org/2000/svg">
<path fill-rule="evenodd" clip-rule="evenodd" d="M10.5 7.74999C10.5 8.41304 10.2366 9.04892 9.76777 9.51776C9.29893 9.9866 8.66304 10.25 8 10.25C7.33696 10.25 6.70107 9.9866 6.23223 9.51776C5.76339 9.04892 5.5 8.41304 5.5 7.74999C5.5 7.08695 5.76339 6.45107 6.23223 5.98223C6.70107 5.51339 7.33696 5.24999 8 5.24999C8.66304 5.24999 9.29893 5.51339 9.76777 5.98223C10.2366 6.45107 10.5 7.08695 10.5 7.74999ZM11.93 8.49999C11.7554 9.4144 11.2674 10.2393 10.5501 10.8327C9.83272 11.426 8.93093 11.7506 8 11.7506C7.06907 11.7506 6.16728 11.426 5.44994 10.8327C4.73259 10.2393 4.2446 9.4144 4.07 8.49999H0.75C0.551088 8.49999 0.360322 8.42098 0.21967 8.28032C0.0790176 8.13967 0 7.94891 0 7.74999C0 7.55108 0.0790176 7.36032 0.21967 7.21966C0.360322 7.07901 0.551088 6.99999 0.75 6.99999H4.07C4.2446 6.08559 4.73259 5.26068 5.44994 4.66735C6.16728 4.07402 7.06907 3.74939 8 3.74939C8.93093 3.74939 9.83272 4.07402 10.5501 4.66735C11.2674 5.26068 11.7554 6.08559 11.93 6.99999H15.25C15.4489 6.99999 15.6397 7.07901 15.7803 7.21966C15.921 7.36032 16 7.55108 16 7.74999C16 7.94891 15.921 8.13967 15.7803 8.28032C15.6397 8.42098 15.4489 8.49999 15.25 8.49999H11.93Z" fill="currentColor"/>
</svg>
