<svg width="24" height="24" viewBox="0 0 24 24" fill="none" xmlns="http://www.w3.org/2000/svg">
<path fill-rule="evenodd" clip-rule="evenodd" d="M12 4.00049C10.8037 4.00107 9.62273 4.26995 8.54408 4.78733C7.46543 5.30471 6.51655 6.05742 5.76729 6.99004C5.01803 7.92267 4.48747 9.01145 4.21468 10.1762C3.94188 11.341 3.93379 12.5522 4.19101 13.7205C4.44822 14.8889 4.96419 15.9846 5.70093 16.9272C6.43766 17.8697 7.37641 18.635 8.44805 19.1668C9.5197 19.6985 10.697 19.9832 11.8932 19.9997C13.0894 20.0163 14.274 19.7644 15.36 19.2625C15.6007 19.1508 15.8759 19.1394 16.125 19.2306C16.3741 19.3218 16.5768 19.5083 16.6885 19.749C16.8002 19.9897 16.8116 20.2649 16.7204 20.514C16.6292 20.7631 16.4427 20.9658 16.202 21.0775C14.8852 21.6874 13.4512 22.0024 12 22.0005C6.477 22.0005 2 17.5235 2 12.0005C2 6.47749 6.477 2.00049 12 2.00049C17.523 2.00049 22 6.47749 22 12.0005V12.0195C21.958 14.2095 21.26 15.6845 20.233 16.5995C19.229 17.4935 18.04 17.7375 17.21 17.7375C16.018 17.7375 14.971 17.1175 14.372 16.1835C12.296 18.0185 9.302 18.4225 7.454 16.3685C5.528 14.2285 6.065 10.6555 8.12 8.37249C10.108 6.16349 13.723 5.31049 15.798 7.86649C15.888 7.62464 16.068 7.42695 16.3004 7.31476C16.5328 7.20256 16.7996 7.18455 17.045 7.26449C17.2903 7.34443 17.4953 7.51612 17.617 7.74368C17.7387 7.97123 17.7677 8.23703 17.698 8.48549C17.106 10.5615 16.408 12.6185 15.885 14.7125C15.9613 15.0059 16.1328 15.2656 16.3726 15.4511C16.6124 15.6366 16.9069 15.7373 17.21 15.7375C17.69 15.7375 18.358 15.5915 18.903 15.1065C19.423 14.6435 19.965 13.7525 20 11.9915C19.9976 9.87132 19.1537 7.8388 17.6537 6.34045C16.1536 4.84211 14.1202 4.00049 12 4.00049ZM14.353 12.9145C14.423 12.6745 14.606 12.0335 14.82 11.2865C15.053 10.4665 14.75 9.68049 14.112 8.97049C13.192 7.94949 11.22 7.91749 9.607 9.71049C7.984 11.5125 7.925 13.9015 8.941 15.0305C9.86 16.0515 11.832 16.0835 13.446 14.2905C13.819 13.8765 14.17 13.4465 14.353 12.9145Z" fill="currentColor"/>
</svg>
