<svg width="125" height="40" viewBox="0 0 125 40" fill="none" xmlns="http://www.w3.org/2000/svg">
<g clip-path="url(#clip0_253_19510)">
<path d="M8.02657 39.9979C7.70359 39.9979 7.38841 39.9938 7.06797 39.9867C6.40414 39.9782 5.74186 39.9212 5.08657 39.8162C4.47554 39.7124 3.88362 39.5193 3.33033 39.2432C2.78211 38.9695 2.28209 38.6106 1.84943 38.1802C1.4105 37.7549 1.04508 37.2616 0.767631 36.7199C0.487128 36.1746 0.293003 35.5902 0.192019 34.9869C0.0829648 34.3387 0.023962 33.6833 0.0155193 33.0262C0.00879852 32.8057 0 32.0714 0 32.0714V7.91524C0 7.91524 0.00937096 7.19223 0.0155723 6.97982C0.0236561 6.32383 0.0823159 5.66941 0.191044 5.0222C0.292214 4.41729 0.486489 3.83117 0.767143 3.28415C1.04357 2.7428 1.40697 2.24915 1.84325 1.82232C2.27904 1.39143 2.78066 1.03064 3.32981 0.753121C3.88183 0.477981 4.47263 0.286241 5.08243 0.184325C5.73987 0.0782559 6.40445 0.0209099 7.07058 0.012768L8.02709 0H116.968L117.936 0.0132804C118.596 0.0210177 119.254 0.0778521 119.906 0.1833C120.522 0.286495 121.119 0.479573 121.677 0.756185C122.777 1.31547 123.672 2.20032 124.237 3.2867C124.513 3.82995 124.704 4.41128 124.804 5.01097C124.914 5.66349 124.976 6.32306 124.989 6.98442C124.992 7.28056 124.992 7.59866 124.992 7.91524C125 8.30737 125 8.68061 125 9.05692V30.942C125 31.3219 125 31.6926 124.992 32.0663C124.992 32.4064 124.992 32.7179 124.987 33.0385C124.975 33.688 124.915 34.3358 124.806 34.9767C124.707 35.5843 124.514 36.1733 124.234 36.723C123.954 37.2588 123.591 37.7478 123.157 38.172C122.724 38.6047 122.223 38.9657 121.674 39.2412C121.117 39.5194 120.521 39.7132 119.906 39.8162C119.25 39.9217 118.588 39.9788 117.924 39.9867C117.614 39.9938 117.289 39.9979 116.973 39.9979L115.824 40L8.02657 39.9979Z" fill="black"/>
<path d="M26.8389 19.1508C26.8496 18.3161 27.072 17.4977 27.4851 16.7718C27.8983 16.0458 28.4889 15.4359 29.202 14.9987C28.749 14.3535 28.1514 13.8226 27.4566 13.448C26.7619 13.0735 25.9891 12.8656 25.1997 12.841C23.5157 12.6648 21.8832 13.8458 21.0251 13.8458C20.1504 13.8458 18.8292 12.8585 17.4064 12.8877C16.4862 12.9174 15.5893 13.1842 14.8033 13.6623C14.0172 14.1403 13.3687 14.8133 12.921 15.6156C10.9815 18.964 12.4282 23.885 14.286 26.5917C15.2155 27.917 16.3018 29.3975 17.7232 29.345C19.1142 29.2874 19.6337 28.4605 21.3127 28.4605C22.9761 28.4605 23.4635 29.345 24.9138 29.3116C26.4063 29.2874 27.3467 27.9803 28.2436 26.6424C28.9115 25.6981 29.4254 24.6543 29.7663 23.5499C28.8992 23.1842 28.1592 22.572 27.6386 21.7897C27.118 21.0074 26.8399 20.0896 26.8389 19.1508Z" fill="white"/>
<path d="M24.0996 11.061C24.9134 10.0868 25.3143 8.83458 25.2172 7.57034C23.9739 7.70056 22.8254 8.29312 22.0006 9.22995C21.5973 9.68762 21.2885 10.2201 21.0917 10.7968C20.8949 11.3736 20.814 11.9834 20.8537 12.5913C21.4756 12.5977 22.0908 12.4633 22.653 12.1982C23.2153 11.9331 23.7099 11.5443 24.0996 11.061Z" fill="white"/>
<path d="M39.1598 10.2534H39.9599C40.0976 10.2705 40.2374 10.259 40.3704 10.2195C40.5035 10.1801 40.6269 10.1136 40.7329 10.0242C40.8389 9.93488 40.9251 9.82459 40.9863 9.70033C41.0474 9.57607 41.082 9.44053 41.088 9.30225C41.088 8.75196 40.6728 8.39649 39.9687 8.39649C39.8276 8.37683 39.6839 8.38556 39.5463 8.42217C39.4086 8.45878 39.2797 8.52252 39.1671 8.60964C39.0546 8.69675 38.9607 8.80547 38.891 8.92938C38.8212 9.05329 38.7771 9.18987 38.7612 9.33106H37.8827C37.8979 9.07476 37.9657 8.82431 38.0821 8.5953C38.1985 8.36629 38.3609 8.16362 38.5593 7.99992C38.7576 7.83621 38.9876 7.71498 39.235 7.64375C39.4823 7.57253 39.7417 7.55285 39.9971 7.58594C41.1752 7.58594 42.0047 8.24365 42.0047 9.19043C42.0074 9.50761 41.901 9.81614 41.7032 10.0645C41.5054 10.3129 41.2281 10.4861 40.9176 10.5552V10.6255C41.2857 10.6418 41.6323 10.8027 41.8817 11.0731C42.131 11.3434 42.2629 11.7013 42.2485 12.0684C42.2213 12.3323 42.1415 12.5881 42.0138 12.8208C41.8862 13.0536 41.7132 13.2585 41.5051 13.4238C41.2969 13.589 41.0578 13.7111 40.8017 13.783C40.5456 13.8548 40.2777 13.875 40.0137 13.8423C39.7492 13.8783 39.4801 13.8607 39.2225 13.7908C38.9648 13.7208 38.724 13.5999 38.5143 13.4351C38.3045 13.2703 38.1302 13.0651 38.0017 12.8317C37.8732 12.5984 37.7931 12.3416 37.7662 12.0767H38.6584C38.7122 12.6475 39.2381 13.0157 40.0137 13.0157C40.7893 13.0157 41.2956 12.6021 41.2956 12.0191C41.2956 11.4278 40.8187 11.0635 39.9853 11.0635H39.1598V10.2534Z" fill="white"/>
<path d="M43.2621 12.4243C43.2621 11.6138 43.8683 11.1465 44.9416 11.0801L46.1647 11.0098V10.6211C46.1647 10.1455 45.8504 9.87696 45.2403 9.87696C44.7428 9.87696 44.3991 10.0591 44.2992 10.3775H43.4364C43.5275 9.60401 44.258 9.10792 45.2824 9.10792C46.4145 9.10792 47.053 9.66992 47.053 10.6211V13.6978H46.1941V13.0649H46.1236C45.9805 13.2919 45.7795 13.477 45.5412 13.6012C45.303 13.7254 45.0359 13.7843 44.7673 13.7719C44.5777 13.7916 44.3861 13.7714 44.2048 13.7127C44.0236 13.654 43.8567 13.5581 43.7148 13.4312C43.573 13.3042 43.4595 13.149 43.3815 12.9756C43.3035 12.8022 43.2628 12.6144 43.2621 12.4243ZM46.1647 12.0395V11.6631L45.062 11.7334C44.4401 11.7749 44.1581 11.9858 44.1581 12.3828C44.1581 12.7881 44.5106 13.0239 44.9954 13.0239C45.1375 13.0383 45.281 13.024 45.4174 12.9819C45.5538 12.9398 45.6803 12.8708 45.7894 12.7789C45.8985 12.6871 45.9879 12.5743 46.0524 12.4473C46.1169 12.3203 46.1551 12.1816 46.1647 12.0395Z" fill="white"/>
<path d="M49.418 9.94287V13.6978H48.5268V9.19482H51.5V9.94282L49.418 9.94287Z" fill="white"/>
<path d="M56.9009 11.4443C56.9009 12.875 56.1752 13.772 55.0353 13.772C54.7555 13.791 54.476 13.73 54.2298 13.596C53.9836 13.462 53.7809 13.2606 53.6457 13.0156H53.5751V15.1948H52.684V9.19483H53.5418V9.939H53.6084C53.7462 9.68544 53.9515 9.47478 54.2017 9.33028C54.452 9.18577 54.7374 9.11305 55.0265 9.12015C56.1752 9.12012 56.9009 10.0132 56.9009 11.4443ZM55.9842 11.4443C55.9842 10.4932 55.5328 9.91846 54.7777 9.91846C54.0276 9.91846 53.5585 10.5054 53.5585 11.4483C53.5585 12.3867 54.0276 12.9741 54.7738 12.9741C55.5328 12.9741 55.9842 12.3994 55.9842 11.4443Z" fill="white"/>
<path d="M58.0878 15.3106V14.5454C58.1842 14.5576 58.2814 14.5632 58.3786 14.562C58.5684 14.576 58.7568 14.5196 58.9075 14.4037C59.0583 14.2877 59.1608 14.1203 59.1953 13.9336L59.2619 13.7144L57.6275 9.19482H58.5979L59.7301 12.7715H59.8006L60.9287 9.19482H61.8738L60.1904 13.8838C59.8045 14.9795 59.3775 15.3311 58.457 15.3311C58.3825 15.3311 58.171 15.3228 58.0878 15.3106Z" fill="white"/>
<path d="M62.5681 12.4199H63.4553C63.5425 12.8169 63.9156 13.0239 64.4376 13.0239C65.031 13.0239 65.3953 12.7632 65.3953 12.3579C65.3953 11.9238 65.0682 11.7168 64.4376 11.7168H63.7619V11.0264H64.4258C64.9644 11.0264 65.2386 10.8198 65.2386 10.4434C65.2386 10.1128 64.9733 9.86038 64.4258 9.86038C63.9274 9.86038 63.5631 10.0713 63.5052 10.4268H62.6464C62.7106 10.0183 62.933 9.65131 63.2658 9.40468C63.5986 9.15804 64.0151 9.05149 64.4258 9.10794C65.4991 9.10794 66.1132 9.59183 66.1132 10.3526C66.1182 10.5644 66.0501 10.7716 65.9203 10.9394C65.7906 11.1072 65.607 11.2254 65.4002 11.2745V11.3448C65.6464 11.3764 65.8723 11.4971 66.0351 11.6838C66.1979 11.8706 66.2863 12.1105 66.2836 12.3579C66.2836 13.2139 65.553 13.7803 64.4376 13.7803C63.4514 13.7803 62.6504 13.3296 62.5681 12.4199Z" fill="white"/>
<path d="M67.5669 13.6978V9.19482H68.4503V12.292H68.5208L70.6018 9.19483H71.4851V13.6978H70.6018V10.584H70.5352L68.4503 13.6978L67.5669 13.6978Z" fill="white"/>
<path d="M76.3513 9.94287H74.9293V13.6978H74.0372V9.94287H72.6152V9.19487H76.3513V9.94287Z" fill="white"/>
<path d="M81.1518 12.4819C81.0304 12.8935 80.7679 13.2493 80.41 13.4875C80.0522 13.7256 79.6219 13.8308 79.1942 13.7847C78.8967 13.7925 78.6011 13.7357 78.3278 13.6181C78.0545 13.5006 77.8102 13.3252 77.6117 13.1041C77.4133 12.8829 77.2654 12.6214 77.1785 12.3375C77.0916 12.0537 77.0676 11.7544 77.1083 11.4604C77.0687 11.1656 77.0931 10.8656 77.1798 10.581C77.2665 10.2963 77.4136 10.0335 77.611 9.81044C77.8084 9.58736 78.0516 9.40919 78.3241 9.28799C78.5965 9.16678 78.892 9.10536 79.1903 9.1079C80.4467 9.1079 81.2057 9.9639 81.2057 11.3779V11.688H78.0171V11.7378C78.003 11.9031 78.0237 12.0695 78.0779 12.2263C78.1321 12.3831 78.2186 12.5269 78.3319 12.6484C78.4452 12.7699 78.5826 12.8664 78.7355 12.9317C78.8884 12.9971 79.0534 13.0298 79.2197 13.0278C79.4327 13.0532 79.6485 13.0149 79.8396 12.9177C80.0307 12.8205 80.1885 12.6688 80.293 12.4819L81.1518 12.4819ZM78.0171 11.0308H80.2969C80.3081 10.8797 80.2876 10.728 80.2366 10.5853C80.1855 10.4427 80.1052 10.3122 80.0006 10.2024C79.896 10.0925 79.7695 10.0057 79.6293 9.94746C79.4891 9.88923 79.3382 9.86089 79.1864 9.86426C79.0322 9.86217 78.8792 9.89092 78.7363 9.9488C78.5935 10.0067 78.4637 10.0925 78.3547 10.2013C78.2457 10.31 78.1597 10.4395 78.1017 10.5819C78.0437 10.7244 78.0149 10.877 78.0171 11.0308Z" fill="white"/>
<path d="M84.93 9.19482H86.966C87.8493 9.19482 88.3674 9.64111 88.3674 10.3398C88.3687 10.5615 88.2937 10.777 88.1548 10.9501C88.016 11.1233 87.8217 11.2436 87.6045 11.291V11.3613C87.8682 11.3779 88.1154 11.4949 88.2951 11.6881C88.4748 11.8813 88.5732 12.1359 88.5701 12.3994C88.5701 13.185 87.9776 13.6977 86.9865 13.6977H84.93V9.19482ZM85.8133 9.87695V11.0429H86.6967C87.2353 11.0429 87.4928 10.8364 87.4928 10.4556C87.4928 10.1045 87.2686 9.87694 86.7956 9.87694L85.8133 9.87695ZM85.8133 11.6963V13.0156H86.87C87.3969 13.0156 87.6789 12.7837 87.6789 12.3579C87.6789 11.9072 87.3597 11.6963 86.7584 11.6963L85.8133 11.6963Z" fill="white"/>
<path d="M45.6633 26.5997H40.9167L39.7767 29.9561H37.7662L42.2622 17.5381H44.3511L48.8471 29.9561H46.8023L45.6633 26.5997ZM41.4083 25.0508H45.1708L43.316 19.6036H43.2641L41.4083 25.0508Z" fill="white"/>
<path d="M58.5569 25.4297C58.5569 28.2432 57.0468 30.0508 54.7679 30.0508C54.1907 30.0809 53.6166 29.9483 53.1113 29.6682C52.6061 29.3881 52.1902 28.9717 51.9113 28.4668H51.8682V32.9512H50.0046V20.9024H51.8085V22.4083H51.8427C52.1345 21.9058 52.5574 21.4916 53.0665 21.2098C53.5755 20.9279 54.1517 20.7889 54.7337 20.8077C57.0379 20.8077 58.5569 22.6241 58.5569 25.4297ZM56.6413 25.4297C56.6413 23.5967 55.6914 22.3917 54.242 22.3917C52.8181 22.3917 51.8604 23.6221 51.8604 25.4297C51.8604 27.254 52.8181 28.4756 54.242 28.4756C55.6914 28.4756 56.6413 27.2794 56.6413 25.4297Z" fill="white"/>
<path d="M68.5497 25.4297C68.5497 28.2432 67.0396 30.0508 64.7607 30.0508C64.1835 30.0809 63.6094 29.9483 63.1042 29.6682C62.5989 29.3881 62.1831 28.9717 61.9041 28.4668H61.861V32.9512H59.9974V20.9024H61.8012V22.4083H61.8355C62.1273 21.9058 62.5502 21.4916 63.0593 21.2098C63.5683 20.9279 64.1445 20.789 64.7264 20.8077C67.0308 20.8077 68.5497 22.6241 68.5497 25.4297ZM66.6341 25.4297C66.6341 23.5967 65.6842 22.3917 64.2348 22.3917C62.8109 22.3917 61.8532 23.6221 61.8532 25.4297C61.8532 27.254 62.8109 28.4756 64.2348 28.4756C65.6842 28.4756 66.6341 27.2794 66.6341 25.4297Z" fill="white"/>
<path d="M75.1541 26.4961C75.2922 27.7276 76.4918 28.5361 78.1312 28.5361C79.702 28.5361 80.8321 27.7276 80.8321 26.6172C80.8321 25.6533 80.1505 25.0762 78.5366 24.6807L76.9227 24.293C74.6361 23.7422 73.5745 22.6758 73.5745 20.9453C73.5745 18.8027 75.4469 17.3311 78.1057 17.3311C80.7371 17.3311 82.541 18.8027 82.6017 20.9453H80.7204C80.6078 19.7061 79.5805 18.958 78.0793 18.958C76.578 18.958 75.5507 19.7149 75.5507 20.8164C75.5507 21.6943 76.2068 22.2109 77.8119 22.6064L79.1839 22.9424C81.7389 23.5449 82.8005 24.5684 82.8005 26.3847C82.8005 28.708 80.9447 30.1631 77.9931 30.1631C75.2314 30.1631 73.3668 28.7422 73.2464 26.4961L75.1541 26.4961Z" fill="white"/>
<path d="M86.8225 18.7598V20.9024H88.549V22.3741H86.8225V27.3653C86.8225 28.1407 87.1682 28.502 87.9272 28.502C88.1321 28.4984 88.3368 28.4841 88.5402 28.459V29.9219C88.199 29.9855 87.8521 30.0143 87.5051 30.0078C85.6669 30.0078 84.9501 29.3194 84.9501 27.5635V22.3741H83.63V20.9024H84.95V18.7598H86.8225Z" fill="white"/>
<path d="M89.5489 25.4297C89.5489 22.5811 91.2314 20.7911 93.8549 20.7911C96.4873 20.7911 98.1619 22.5811 98.1619 25.4297C98.1619 28.2862 96.4961 30.0684 93.8549 30.0684C91.2147 30.0684 89.5489 28.2862 89.5489 25.4297ZM96.263 25.4297C96.263 23.4756 95.365 22.3223 93.8549 22.3223C92.3448 22.3223 91.4478 23.4844 91.4478 25.4297C91.4478 27.3917 92.3448 28.5362 93.8549 28.5362C95.365 28.5362 96.263 27.3917 96.263 25.4297Z" fill="white"/>
<path d="M99.6984 20.9024H101.476V22.4434H101.519C101.639 21.9621 101.922 21.5368 102.32 21.2389C102.717 20.941 103.206 20.7887 103.703 20.8077C103.918 20.8069 104.132 20.8302 104.341 20.877V22.6153C104.07 22.5327 103.787 22.4947 103.504 22.503C103.233 22.492 102.963 22.5396 102.713 22.6425C102.462 22.7454 102.237 22.9011 102.052 23.099C101.868 23.2969 101.729 23.5323 101.644 23.7889C101.559 24.0456 101.531 24.3175 101.562 24.586V29.9561H99.6984L99.6984 20.9024Z" fill="white"/>
<path d="M112.934 27.2969C112.683 28.9405 111.078 30.0684 109.024 30.0684C106.383 30.0684 104.744 28.3038 104.744 25.4727C104.744 22.6329 106.392 20.7911 108.946 20.7911C111.458 20.7911 113.038 22.5118 113.038 25.2569V25.8936H106.625V26.0059C106.595 26.3391 106.637 26.6748 106.748 26.9906C106.858 27.3065 107.035 27.5952 107.266 27.8378C107.497 28.0803 107.777 28.2711 108.088 28.3974C108.398 28.5237 108.732 28.5827 109.067 28.5704C109.508 28.6115 109.95 28.5098 110.328 28.2804C110.705 28.0509 110.999 27.706 111.164 27.2969L112.934 27.2969ZM106.634 24.5948H111.173C111.19 24.2952 111.144 23.9954 111.039 23.7142C110.934 23.4329 110.772 23.1764 110.563 22.9606C110.354 22.7449 110.102 22.5745 109.824 22.4603C109.546 22.3461 109.247 22.2905 108.946 22.2969C108.642 22.2951 108.342 22.3533 108.061 22.468C107.78 22.5827 107.525 22.7518 107.31 22.9654C107.095 23.1791 106.924 23.4331 106.808 23.7127C106.692 23.9924 106.633 24.2921 106.634 24.5948Z" fill="white"/>
</g>
<defs>
<clipPath id="clip0_253_19510">
<rect width="125" height="40" rx="5" fill="white"/>
</clipPath>
</defs>
</svg>
