<svg viewBox="0 0 18 18" fill="none" xmlns="http://www.w3.org/2000/svg">
<path fill-rule="evenodd" clip-rule="evenodd" d="M6.88724 0.441257C7.49809 0.0869638 8.25191 0.086964 8.86276 0.441257L14.769 3.86688C15.3763 4.21907 15.75 4.86794 15.75 5.56992V12.1563C15.75 12.6223 15.3722 13 14.9062 13C14.4403 13 14.0625 12.6223 14.0625 12.1563V6.38668L8.71875 9.48605V16.3125V16.668C8.71875 17.5351 7.77932 18.0762 7.02931 17.6412L0.980993 14.1332C0.373767 13.7809 0 13.132 0 12.4302V5.56992C0 4.86794 0.373766 4.21907 0.980992 3.86688L6.88724 0.441257ZM8.01611 1.901L13.2246 4.92189L7.87501 8.02463L2.52546 4.92189L7.73389 1.901C7.82116 1.85039 7.92884 1.85039 8.01611 1.901ZM1.6875 12.4302V6.38668L7.03125 9.48605V15.6915L1.82764 12.6734C1.74089 12.6231 1.6875 12.5304 1.6875 12.4302Z" fill="currentColor"/>
</svg>
