<svg width="16" height="16" viewBox="0 0 16 16" fill="none" xmlns="http://www.w3.org/2000/svg">
<g clip-path="url(#clip0_213_5181)">
<path fill-rule="evenodd" clip-rule="evenodd" d="M7.08289 15.9862C8.42232 16.1388 9.41667 15.0044 9.41668 13.8032V13.3026C9.41668 11.9743 10.0634 11.1796 10.7342 10.6894C11.0624 10.4495 11.3945 10.2859 11.6527 10.1809C11.9558 10.7021 12.5203 11.0525 13.1666 11.0525H14.1666C15.1331 11.0525 15.9166 10.269 15.9166 9.30249V1.80249C15.9166 0.835992 15.1331 0.0524904 14.1666 0.0524903L13.1666 0.0524902C12.3919 0.0524901 11.7348 0.555885 11.5045 1.25342C10.98 1.17854 10.4372 1.02479 9.7793 0.838435L9.7791 0.83838C9.62754 0.79545 9.46987 0.75079 9.3049 0.704966C8.15094 0.38442 6.76406 0.0526041 4.91668 0.0526039C3.21091 0.0526038 1.94702 0.204941 1.19512 1.19182C0.842088 1.65518 0.658117 2.23381 0.52633 2.8639C0.409003 3.42487 0.318545 4.1076 0.213901 4.89742L0.213895 4.89746L0.173262 5.20347C-0.0758678 7.07183 -0.0917446 8.52141 0.361871 9.51924C0.605819 10.0559 0.983861 10.4618 1.49838 10.7194C1.99269 10.9668 2.56358 11.0526 3.16668 11.0526H4.58899L4.57392 11.1649L4.57391 11.165C4.50423 11.6832 4.41668 12.3344 4.41668 12.8026C4.41668 13.7241 4.56795 14.5212 5.07221 15.102C5.58358 15.691 6.31945 15.8992 7.08289 15.9862ZM11.4166 2.75375C10.7113 2.66528 10.0261 2.46964 9.34455 2.27505H9.34454C9.19739 2.23303 9.0504 2.19107 8.90343 2.15024C7.8074 1.84579 6.5693 1.5526 4.91668 1.5526C3.12246 1.5526 2.63636 1.77527 2.38827 2.10088C2.2413 2.29378 2.11277 2.60577 1.99456 3.17099C1.8895 3.6733 1.80701 4.29501 1.70008 5.10092L1.6601 5.40173C1.4092 7.28338 1.47069 8.3338 1.72739 8.89847C1.8386 9.1431 1.98189 9.28398 2.16976 9.37802C2.37783 9.48216 2.6904 9.5526 3.16668 9.5526H4.91705C5.6022 9.5526 6.21163 10.1296 6.12222 10.8885C6.09968 11.0799 6.07316 11.2775 6.0468 11.474C5.98125 11.9624 5.91668 12.4436 5.91668 12.8026C5.91668 13.6112 6.06104 13.953 6.20488 14.1186C6.34161 14.2761 6.6063 14.4221 7.25273 14.4958C7.55943 14.5308 7.91667 14.2588 7.91668 13.8032V13.3026C7.91668 11.3809 8.89494 10.1756 9.84915 9.47831C10.3192 9.13481 10.785 8.91143 11.1318 8.7736C11.2378 8.73148 11.3338 8.69692 11.4166 8.66906V2.75375ZM13.1666 9.55249C13.0286 9.55249 12.9166 9.44056 12.9166 9.30249V2.0526V1.80249C12.9166 1.66442 13.0286 1.55249 13.1666 1.55249H14.1666C14.3047 1.55249 14.4166 1.66442 14.4166 1.80249V9.30249C14.4166 9.44056 14.3047 9.55249 14.1666 9.55249H13.1666Z" fill="currentColor"/>
</g>
<defs>
<clipPath id="clip0_213_5181">
<rect width="16" height="16" fill="white"/>
</clipPath>
</defs>
</svg>
