<svg width="100" height="100" viewBox="0 0 100 100" fill="none" xmlns="http://www.w3.org/2000/svg">
<path d="M39.8431 78.7719C31.0902 73.3729 25 61.3597 25 47.4066C25 28.4044 36.2954 13 50.2289 13C64.1625 13 75.4579 28.4044 75.4579 47.4066C75.4579 61.2436 69.4686 73.1728 60.8327 78.6357" stroke="#E21B25" stroke-width="2" stroke-miterlimit="10"/>
<path d="M39.7715 65.5952V86.2901H60.6849V65.5952" stroke="currentColor" stroke-width="2" stroke-miterlimit="10"/>
<path d="M66.4834 51.8014C64.5565 62.6623 58.005 71.6163 50.2202 71.6163C42.2486 71.6163 35.5722 62.349 33.8008 51.1143" stroke="currentColor" stroke-width="2" stroke-miterlimit="10"/>
<path d="M53.0762 45.2318C53.3363 44.4516 54.1945 42.8131 55.5469 42.501C56.8992 42.1888 60.2717 42.3709 61.7888 42.501" stroke="currentColor" stroke-width="2"/>
<path d="M54.0215 46.5477H57.4896C58.5231 46.5477 60.8196 46.5477 62.1209 44.8257" stroke="currentColor" stroke-width="2"/>
<path d="M29.2578 51.4364C51.5577 45.9953 59.6748 26.8169 59.6748 26.8169C59.6748 26.8169 58.1047 40.7495 69.3083 56.2532" stroke="#E21B25" stroke-width="2" stroke-miterlimit="10" stroke-linejoin="round"/>
<path d="M46.0625 59.7046L54.3938 59.7046" stroke="currentColor" stroke-width="2"/>
<path d="M47.6113 54.2236L52.8445 54.2236" stroke="currentColor" stroke-width="2"/>
<path d="M47.9756 63.8369L52.4804 63.8369" stroke="currentColor" stroke-width="2"/>
<path d="M30.2207 46.1062C35.0013 44.5999 40.3221 41.0828 43.208 38.0166" stroke="#E21B25" stroke-width="2"/>
</svg>
