<svg width="24" height="24" viewBox="0 0 24 24" fill="none" xmlns="http://www.w3.org/2000/svg">
<path fill-rule="evenodd" clip-rule="evenodd" d="M11.427 1.18002C11.595 1.06256 11.795 0.999573 12 0.999573C12.205 0.999573 12.405 1.06256 12.573 1.18002L22.573 8.18002C22.7049 8.27224 22.8126 8.39495 22.887 8.53771C22.9613 8.68047 23.0001 8.83906 23 9.00002V16C23.0001 16.161 22.9613 16.3196 22.887 16.4623C22.8126 16.6051 22.7049 16.7278 22.573 16.82L12.573 23.82C12.405 23.9375 12.205 24.0005 12 24.0005C11.795 24.0005 11.595 23.9375 11.427 23.82L1.427 16.82C1.29509 16.7278 1.18739 16.6051 1.11305 16.4623C1.03871 16.3196 0.999929 16.161 1 16V9.00002C0.999929 8.83906 1.03871 8.68047 1.11305 8.53771C1.18739 8.39495 1.29509 8.27224 1.427 8.18002L11.427 1.18002ZM3 10.92V14.08L5.256 12.5L3 10.92ZM7 13.72L3.744 16L11 21.08V16.52L7 13.72ZM13 16.52V21.08L20.256 16L17 13.72L13 16.52ZM18.744 12.5L21 14.08V10.92L18.744 12.5ZM20.256 9.00002L17 11.28L13 8.48002V3.92002L20.256 9.00002ZM11 3.92002V8.48002L7 11.28L3.744 9.00002L11 3.92002ZM12 10.22L8.744 12.5L12 14.78L15.256 12.5L12 10.22Z" fill="currentColor"/>
</svg>
