<svg width="24" height="24" viewBox="0 0 24 24" fill="none" xmlns="http://www.w3.org/2000/svg">
<path fill-rule="evenodd" clip-rule="evenodd" d="M2 6.00049C2 4.93962 2.42143 3.92221 3.17157 3.17206C3.92172 2.42192 4.93913 2.00049 6 2.00049H18C19.0609 2.00049 20.0783 2.42192 20.8284 3.17206C21.5786 3.92221 22 4.93962 22 6.00049V18.0005C22 19.0614 21.5786 20.0788 20.8284 20.8289C20.0783 21.5791 19.0609 22.0005 18 22.0005H6C4.93913 22.0005 3.92172 21.5791 3.17157 20.8289C2.42143 20.0788 2 19.0614 2 18.0005V6.00049ZM6 4.00049C5.46957 4.00049 4.96086 4.2112 4.58579 4.58627C4.21071 4.96135 4 5.47006 4 6.00049V18.0005C4 18.5309 4.21071 19.0396 4.58579 19.4147C4.96086 19.7898 5.46957 20.0005 6 20.0005H18C18.5304 20.0005 19.0391 19.7898 19.4142 19.4147C19.7893 19.0396 20 18.5309 20 18.0005V6.00049C20 5.47006 19.7893 4.96135 19.4142 4.58627C19.0391 4.2112 18.5304 4.00049 18 4.00049H6ZM12 9.00049C11.2044 9.00049 10.4413 9.31656 9.87868 9.87917C9.31607 10.4418 9 11.2048 9 12.0005C9 12.7961 9.31607 13.5592 9.87868 14.1218C10.4413 14.6844 11.2044 15.0005 12 15.0005C12.7956 15.0005 13.5587 14.6844 14.1213 14.1218C14.6839 13.5592 15 12.7961 15 12.0005C15 11.2048 14.6839 10.4418 14.1213 9.87917C13.5587 9.31656 12.7956 9.00049 12 9.00049ZM7 12.0005C7 10.6744 7.52678 9.40264 8.46447 8.46495C9.40215 7.52727 10.6739 7.00049 12 7.00049C13.3261 7.00049 14.5979 7.52727 15.5355 8.46495C16.4732 9.40264 17 10.6744 17 12.0005C17 13.3266 16.4732 14.5983 15.5355 15.536C14.5979 16.4737 13.3261 17.0005 12 17.0005C10.6739 17.0005 9.40215 16.4737 8.46447 15.536C7.52678 14.5983 7 13.3266 7 12.0005ZM17.5 8.00049C17.8978 8.00049 18.2794 7.84245 18.5607 7.56115C18.842 7.27984 19 6.89831 19 6.50049C19 6.10266 18.842 5.72113 18.5607 5.43983C18.2794 5.15852 17.8978 5.00049 17.5 5.00049C17.1022 5.00049 16.7206 5.15852 16.4393 5.43983C16.158 5.72113 16 6.10266 16 6.50049C16 6.89831 16.158 7.27984 16.4393 7.56115C16.7206 7.84245 17.1022 8.00049 17.5 8.00049Z" fill="currentColor"/>
</svg>
