<svg width="24" height="24" viewBox="0 0 24 24" fill="none" xmlns="http://www.w3.org/2000/svg">
<path fill-rule="evenodd" clip-rule="evenodd" d="M14.28 3.00049C14.6998 3.0006 15.1088 3.13277 15.4493 3.3783C15.7898 3.62382 16.0444 3.97024 16.177 4.36849L16.72 6.00049H19C19.7956 6.00049 20.5587 6.31656 21.1213 6.87917C21.6839 7.44178 22 8.20484 22 9.00049V17.0005C22 17.7961 21.6839 18.5592 21.1213 19.1218C20.5587 19.6844 19.7956 20.0005 19 20.0005H5C4.20435 20.0005 3.44129 19.6844 2.87868 19.1218C2.31607 18.5592 2 17.7961 2 17.0005V9.00049C2 8.20484 2.31607 7.44178 2.87868 6.87917C3.44129 6.31656 4.20435 6.00049 5 6.00049H7.28L7.823 4.36849C7.9557 3.97008 8.21043 3.62354 8.5511 3.378C8.89176 3.13247 9.30107 3.00039 9.721 3.00049H14.279H14.28ZM14.28 5.00049H9.72L9.177 6.63249C9.0443 7.0309 8.78957 7.37744 8.4489 7.62297C8.10824 7.86851 7.69893 8.00059 7.279 8.00049H5C4.73478 8.00049 4.48043 8.10585 4.29289 8.29338C4.10536 8.48092 4 8.73527 4 9.00049V17.0005C4 17.2657 4.10536 17.5201 4.29289 17.7076C4.48043 17.8951 4.73478 18.0005 5 18.0005H19C19.2652 18.0005 19.5196 17.8951 19.7071 17.7076C19.8946 17.5201 20 17.2657 20 17.0005V9.00049C20 8.73527 19.8946 8.48092 19.7071 8.29338C19.5196 8.10585 19.2652 8.00049 19 8.00049H16.72C16.3002 8.00038 15.8912 7.8682 15.5507 7.62268C15.2102 7.37716 14.9556 7.03074 14.823 6.63249L14.28 5.00049ZM9.5 12.5005C9.5 11.8374 9.76339 11.2016 10.2322 10.7327C10.7011 10.2639 11.337 10.0005 12 10.0005C12.663 10.0005 13.2989 10.2639 13.7678 10.7327C14.2366 11.2016 14.5 11.8374 14.5 12.5005C14.5 13.1635 14.2366 13.7994 13.7678 14.2683C13.2989 14.7371 12.663 15.0005 12 15.0005C11.337 15.0005 10.7011 14.7371 10.2322 14.2683C9.76339 13.7994 9.5 13.1635 9.5 12.5005ZM12 8.00049C10.8065 8.00049 9.66193 8.47459 8.81802 9.31851C7.97411 10.1624 7.5 11.307 7.5 12.5005C7.5 13.694 7.97411 14.8386 8.81802 15.6825C9.66193 16.5264 10.8065 17.0005 12 17.0005C13.1935 17.0005 14.3381 16.5264 15.182 15.6825C16.0259 14.8386 16.5 13.694 16.5 12.5005C16.5 11.307 16.0259 10.1624 15.182 9.31851C14.3381 8.47459 13.1935 8.00049 12 8.00049Z" fill="currentColor"/>
</svg>
