<svg width="34" height="34" viewBox="0 0 34 34" fill="none" xmlns="http://www.w3.org/2000/svg">
<path d="M20.2825 10.0068H13.7719C13.5456 11.6252 12.8606 13.1536 11.7911 14.4268C10.7215 15.6999 9.75476 16.6694 8.15039 17.2304V28.8564H25.8496V17.2304C24.2452 16.6694 23.3329 15.6999 22.2634 14.4268C21.1939 13.1536 20.5089 11.6252 20.2825 10.0068Z" stroke="currentColor" stroke-miterlimit="10"/>
<path d="M14.8237 10.0065L14.8237 7.80094C14.8237 7.04277 15.0355 6.32422 15.5316 5.80469C15.9269 5.39078 16.4347 5.14063 17.007 5.14359C17.5826 5.14418 18.1265 5.41281 18.4845 5.84019C18.8083 6.2267 19.1763 6.81678 19.1763 7.80094V10.0065" stroke="currentColor" stroke-miterlimit="10"/>
<path d="M20.8326 18.4609H13.1672V24.4808H20.8326V18.4609Z" stroke="#E21B25" stroke-miterlimit="10"/>
</svg>
