<svg width="125" height="40" viewBox="0 0 125 40" fill="none" xmlns="http://www.w3.org/2000/svg">
<g clip-path="url(#clip0_253_19509)">
<rect width="125" height="40" rx="5" fill="white"/>
<path d="M120.37 39.5H4.6296C2.39527 39.5 0.5 37.5106 0.5 35V5C0.5 2.49022 2.39532 0.5 4.6296 0.5H120.37C122.605 0.5 124.5 2.48943 124.5 5V35C124.5 37.5098 122.605 39.5 120.37 39.5Z" fill="black" stroke="black"/>
<g filter="url(#filter0_ii_253_19509)">
<path d="M12.359 10.3079C12.1334 10.5468 12 10.9174 12 11.3975V28.5479C12 29.0287 12.1334 29.3986 12.359 29.6375L12.4164 29.6933L22.0238 20.0859V19.9727V19.8595L12.4164 10.2513L12.359 10.3079Z" fill="url(#paint0_linear_253_19509)"/>
<path d="M25.2259 23.2894L22.0239 20.0859V19.9727V19.8595L25.2266 16.6568L25.2988 16.6979L29.0932 18.8537C30.1765 19.4694 30.1765 20.4768 29.0932 21.0933L25.2988 23.2491L25.2259 23.2894Z" fill="url(#paint1_linear_253_19509)"/>
<g filter="url(#filter1_i_253_19509)">
<path d="M25.2987 23.2483L22.0231 19.9727L12.3591 29.6375C12.7159 30.0159 13.306 30.0624 13.9706 29.6855L25.2987 23.2483Z" fill="url(#paint2_linear_253_19509)"/>
</g>
<path d="M25.2987 16.6971L13.9706 10.2606C13.306 9.88296 12.7159 9.93027 12.3591 10.3087L22.0239 19.9735L25.2987 16.6971Z" fill="url(#paint3_linear_253_19509)"/>
</g>
<path d="M38.58 15.7031H37.9056V13.884H38.4422C38.918 13.4791 39.151 12.7869 39.1413 11.8066V9.12216H42.813V13.884H43.4275V15.7031H42.7531V14.5518H38.5868V15.7031H38.58ZM39.8464 11.8066C39.8577 12.6654 39.6831 13.3584 39.3249 13.884H42.1034V9.78995H39.8464V11.8066ZM48.9298 13.8485C48.3903 14.3978 47.7182 14.6718 46.9141 14.6718C46.1123 14.6718 45.4402 14.3978 44.9007 13.85C44.3612 13.3021 44.0914 12.6299 44.0914 11.8363C44.0914 11.0426 44.3612 10.3719 44.9007 9.82252C45.4402 9.27467 46.1116 9.00074 46.9149 9.00074C47.7137 9.00074 48.3836 9.27615 48.9268 9.82696C49.4686 10.3778 49.7391 11.0485 49.7391 11.8363C49.7391 12.6299 49.4694 13.3021 48.9298 13.85V13.8485ZM45.423 13.3947C45.8291 13.8019 46.3267 14.0047 46.9141 14.0047C47.5039 14.0047 48.0007 13.8048 48.4076 13.3976C48.8144 12.9904 49.0183 12.4722 49.0183 11.8429C49.0183 11.2136 48.8144 10.6954 48.4076 10.2882C48.0014 9.88101 47.5039 9.68112 46.9149 9.68112C46.3267 9.68112 45.8284 9.88841 45.4222 10.2956C45.0161 10.7028 44.8123 11.221 44.8123 11.8562C44.8123 12.4885 45.0146 13.0082 45.4192 13.4147L45.423 13.3947ZM53.294 14.6718C52.4847 14.6718 51.8073 14.4015 51.2603 13.8611C50.7118 13.3206 50.439 12.6447 50.439 11.8363C50.439 11.0278 50.7118 10.3526 51.2603 9.81216C51.8073 9.27171 52.4854 9 53.294 9C54.122 9 54.7956 9.29614 55.3127 9.88841L54.8204 10.3622C54.4479 9.90322 53.9376 9.67371 53.294 9.67371C52.6945 9.67371 52.1894 9.8736 51.7781 10.2734C51.3659 10.6732 51.1599 11.1988 51.1599 11.8429C51.1599 12.4944 51.3652 13.0127 51.7781 13.4124C52.1902 13.8122 52.6945 14.0121 53.294 14.0121C53.9534 14.0121 54.5154 13.753 54.9822 13.2274L55.4768 13.716C55.2295 14.0195 54.9148 14.249 54.5326 14.4267C54.1579 14.6044 53.7458 14.6932 53.2962 14.6932L53.294 14.6718ZM58.3295 14.5518H57.6229V9.78847H56.0882V9.12216H59.8649V9.78847H58.3287V14.5503L58.3295 14.5518ZM64.7123 9.12216L62.6329 13.7019C62.3482 14.349 61.921 14.6718 61.3516 14.6718C61.1867 14.6718 61.0069 14.6318 60.812 14.5511L60.9994 13.8996C61.1193 13.9662 61.2392 13.9958 61.3665 13.9958C61.5314 13.9958 61.6588 13.9662 61.7487 13.8996C61.8386 13.833 61.9211 13.7219 62.0035 13.5516L62.2058 13.1148L60.3549 9.10217H61.1867L62.543 12.219H62.573L63.8993 9.10217H64.7311L64.7123 9.12216ZM65.5119 14.5518V9.12142H69.4871V14.5503H68.7805V9.78847H66.2177V14.5503H65.5119V14.5518ZM70.7452 14.5518V9.12142H71.4511V11.4483H74.1944V9.12142H74.901V14.5503H74.1944V12.0998H71.4518V14.5503H70.7452V14.5518ZM80.6589 13.8485C80.1194 14.3978 79.4465 14.6718 78.6432 14.6718C77.8414 14.6718 77.1685 14.3978 76.629 13.85C76.082 13.3021 75.8197 12.6299 75.8197 11.8363C75.8197 11.0426 76.082 10.3719 76.629 9.82252C77.1685 9.27467 77.8354 9.00074 78.6372 9.00074C79.4315 9.00074 80.1059 9.27615 80.6454 9.82696C81.1849 10.3778 81.4547 11.0485 81.4547 11.8363C81.4547 12.6299 81.1849 13.3021 80.6454 13.85L80.6589 13.8485ZM77.152 13.3947C77.5567 13.8019 78.0542 14.0047 78.6432 14.0047C79.2314 14.0047 79.7297 13.8048 80.1359 13.3976C80.5405 12.9904 80.7428 12.4722 80.7428 11.8429C80.7428 11.2136 80.5405 10.6954 80.1284 10.2882C79.7162 9.88101 79.2217 9.68112 78.6297 9.68112C78.0377 9.68112 77.5432 9.88841 77.1385 10.2956C76.7339 10.7028 76.5241 11.221 76.5241 11.8562C76.5241 12.4885 76.7264 13.0082 77.131 13.4147L77.152 13.3947ZM84.3554 14.5518V9.12142H86.3411C86.772 9.12142 87.1444 9.26208 87.4591 9.54193C87.7738 9.82326 87.9312 10.1749 87.9312 10.5991C87.9312 10.8583 87.8637 11.0878 87.7274 11.2877C87.5925 11.4876 87.4126 11.6356 87.1863 11.7393V11.7689C87.4561 11.8651 87.6809 12.0206 87.8533 12.2427C88.0278 12.4648 88.1155 12.7239 88.1155 13.0201C88.1155 13.4643 87.9507 13.8344 87.621 14.1291C87.2898 14.423 86.9001 14.5696 86.449 14.5696H84.3546L84.3554 14.5518ZM85.0597 11.4498H86.3411C86.6086 11.4498 86.8222 11.3632 86.9833 11.1877C87.1444 11.0137 87.2246 10.8227 87.2246 10.6154C87.2246 10.4081 87.1421 10.2186 86.9848 10.0468C86.8274 9.87509 86.6251 9.78921 86.3628 9.78921H85.0515V11.4491L85.0597 11.4498ZM85.0597 13.884H86.4805C86.7517 13.884 86.9713 13.79 87.1399 13.6027C87.3092 13.4161 87.3947 13.2103 87.3947 12.9882C87.3947 12.7661 87.307 12.5633 87.1324 12.3782C86.96 12.1946 86.7307 12.1013 86.449 12.1013H85.0597V13.884Z" fill="white"/>
<path d="M61.903 22.4244C59.819 22.4244 58.1206 23.9436 58.1206 26.0382C58.1206 28.1176 59.8168 29.6499 61.8972 29.6499C63.9775 29.6499 65.6809 28.1169 65.6809 26.0375C65.6809 23.9436 63.9775 22.4237 61.8972 22.4237L61.903 22.4244ZM61.903 28.2274C60.7613 28.2274 59.7762 27.3239 59.7762 26.0382C59.7762 24.7373 60.762 23.8477 61.903 23.8477C63.0439 23.8477 64.0297 24.7373 64.0297 26.0368C64.0297 27.3225 63.0511 28.226 61.9059 28.226L61.903 28.2274ZM53.6518 22.4244C51.5679 22.4244 49.8695 23.9436 49.8695 26.0382C49.8695 28.1176 51.5679 29.6499 53.6518 29.6499C55.7358 29.6499 57.4342 28.1169 57.4342 26.0375C57.4342 23.9436 55.7358 22.4237 53.6518 22.4237V22.4244ZM53.6518 28.2274C52.5102 28.2274 51.5251 27.3239 51.5251 26.0382C51.5251 24.7373 52.5109 23.8477 53.6518 23.8477C54.7935 23.8477 55.7786 24.7373 55.7786 26.0368C55.7786 27.3225 54.7928 28.226 53.6518 28.226V28.2274ZM43.8372 23.5329V25.066H47.6616C47.5478 25.9277 47.2484 26.5574 46.7917 26.9952C46.2336 27.5289 45.3638 28.1176 43.8365 28.1176C41.4807 28.1176 39.6395 26.2968 39.6395 24.0395C39.6395 21.7823 41.4807 19.9601 43.8365 19.9601C45.1072 19.9601 46.035 20.4396 46.72 21.0512L47.8508 19.9671C46.8939 19.0914 45.6254 18.4173 43.8423 18.4173C40.6166 18.4173 37.9056 20.9331 37.9056 24.0256C37.9056 27.1182 40.6166 29.634 43.8423 29.634C45.5892 29.634 46.9012 29.0849 47.9232 28.0564C48.9815 27.0418 49.3077 25.6192 49.3077 24.4704C49.3077 24.1111 49.2787 23.7824 49.2208 23.5114H43.8423L43.8372 23.5329ZM83.9772 24.7234C83.6633 23.9172 82.7073 22.4244 80.7516 22.4244C78.8104 22.4244 77.1976 23.8887 77.1976 26.0382C77.1976 28.0626 78.7959 29.6499 80.9379 29.6499C82.6645 29.6499 83.6633 28.6374 84.0765 28.0488L82.7935 27.2287C82.3644 27.8298 81.7787 28.2267 80.9379 28.2267C80.0948 28.2267 79.4954 27.8569 79.1112 27.1321L84.149 25.1306L83.9772 24.7206V24.7234ZM78.8394 25.9277C78.7959 24.5323 79.9665 23.8206 80.8088 23.8206C81.4612 23.8206 82.0194 24.1354 82.2006 24.5865L78.83 25.9277H78.8394ZM74.7425 29.4303H76.398V18.8113H74.7425V29.4303ZM72.0315 23.2313H71.9735C71.6023 22.8074 70.8891 22.4251 69.9895 22.4251C68.1049 22.4251 66.3797 24.0117 66.3797 26.0507C66.3797 28.0759 68.1049 29.6506 69.9895 29.6506C70.8884 29.6506 71.6023 29.267 71.9735 28.8285H72.0315V29.3497C72.0315 30.7313 71.2602 31.4693 70.0185 31.4693C69.0052 31.4693 68.3767 30.7723 68.1194 30.1837L66.6784 30.7584C67.0915 31.7161 68.1911 32.8933 70.0185 32.8933C71.9597 32.8933 73.6008 31.7953 73.6008 29.1266V22.6427H72.0315V23.2264V23.2313ZM70.1323 28.2267C68.9907 28.2267 68.0346 27.3093 68.0346 26.0514C68.0346 24.7783 68.9914 23.8484 70.1323 23.8484C71.2602 23.8484 72.1453 24.7783 72.1453 26.0514C72.1453 27.3093 71.2609 28.2267 70.1323 28.2267ZM91.7332 18.812H87.7711V29.431H89.4238V25.4072H91.7325C93.5592 25.4072 95.3641 24.1354 95.3641 22.1103C95.3641 20.0852 93.5592 18.812 91.7253 18.812H91.7332ZM91.7753 23.9297H89.4246V20.2944H91.7753C93.0112 20.2944 93.7136 21.2757 93.7136 22.1152C93.7136 22.9373 93.0105 23.9339 91.7753 23.9339V23.9297ZM101.992 22.4078C100.795 22.4078 99.5552 22.9151 99.042 24.034L100.51 24.6247C100.824 24.0409 101.407 23.8463 102.021 23.8463C102.876 23.8463 103.744 24.3397 103.759 25.2154V25.3266C103.459 25.1668 102.819 24.9166 102.034 24.9166C100.453 24.9166 98.8427 25.7505 98.8427 27.3072C98.8427 28.7319 100.14 29.6423 101.593 29.6423C102.704 29.6423 103.318 29.1628 103.702 28.6068H103.759V29.4269H105.355V25.3544C105.355 23.471 103.887 22.4217 101.992 22.4217L101.992 22.4078ZM101.792 28.2315C101.251 28.2315 100.495 27.9744 100.495 27.335C100.495 26.515 101.437 26.2022 102.249 26.2022C102.975 26.2022 103.317 26.3551 103.759 26.5567C103.63 27.5435 102.747 28.2385 101.792 28.2385V28.2315ZM111.168 22.644L109.273 27.244H109.216L107.245 22.6392H105.461L108.412 29.0745L106.73 32.6536H108.455L113 22.6392H111.159L111.168 22.644ZM96.2781 29.4331H97.9308V18.8141H96.2781V29.4331Z" fill="white"/>
</g>
<defs>
<filter id="filter0_ii_253_19509" x="12" y="10" width="17.9056" height="19.9459" filterUnits="userSpaceOnUse" color-interpolation-filters="sRGB">
<feFlood flood-opacity="0" result="BackgroundImageFix"/>
<feBlend mode="normal" in="SourceGraphic" in2="BackgroundImageFix" result="shape"/>
<feColorMatrix in="SourceAlpha" type="matrix" values="0 0 0 0 0 0 0 0 0 0 0 0 0 0 0 0 0 0 127 0" result="hardAlpha"/>
<feOffset dy="-0.15"/>
<feComposite in2="hardAlpha" operator="arithmetic" k2="-1" k3="1"/>
<feColorMatrix type="matrix" values="0 0 0 0 0 0 0 0 0 0 0 0 0 0 0 0 0 0 0.12 0"/>
<feBlend mode="normal" in2="shape" result="effect1_innerShadow_253_19509"/>
<feColorMatrix in="SourceAlpha" type="matrix" values="0 0 0 0 0 0 0 0 0 0 0 0 0 0 0 0 0 0 127 0" result="hardAlpha"/>
<feOffset dy="0.15"/>
<feComposite in2="hardAlpha" operator="arithmetic" k2="-1" k3="1"/>
<feColorMatrix type="matrix" values="0 0 0 0 1 0 0 0 0 1 0 0 0 0 1 0 0 0 0.25 0"/>
<feBlend mode="normal" in2="effect1_innerShadow_253_19509" result="effect2_innerShadow_253_19509"/>
</filter>
<filter id="filter1_i_253_19509" x="12.3591" y="19.9727" width="12.9396" height="9.97318" filterUnits="userSpaceOnUse" color-interpolation-filters="sRGB">
<feFlood flood-opacity="0" result="BackgroundImageFix"/>
<feBlend mode="normal" in="SourceGraphic" in2="BackgroundImageFix" result="shape"/>
<feColorMatrix in="SourceAlpha" type="matrix" values="0 0 0 0 0 0 0 0 0 0 0 0 0 0 0 0 0 0 127 0" result="hardAlpha"/>
<feOffset dy="-0.15"/>
<feComposite in2="hardAlpha" operator="arithmetic" k2="-1" k3="1"/>
<feColorMatrix type="matrix" values="0 0 0 0 0 0 0 0 0 0 0 0 0 0 0 0 0 0 0.08 0"/>
<feBlend mode="normal" in2="shape" result="effect1_innerShadow_253_19509"/>
</filter>
<linearGradient id="paint0_linear_253_19509" x1="21.1722" y1="11.216" x2="8.15813" y2="24.2301" gradientUnits="userSpaceOnUse">
<stop stop-color="#00A0FF"/>
<stop offset="0.0066" stop-color="#00A1FF"/>
<stop offset="0.2601" stop-color="#00BEFF"/>
<stop offset="0.5122" stop-color="#00D2FF"/>
<stop offset="0.7604" stop-color="#00DFFF"/>
<stop offset="1" stop-color="#00E3FF"/>
</linearGradient>
<linearGradient id="paint1_linear_253_19509" x1="30.5034" y1="19.9727" x2="11.74" y2="19.9727" gradientUnits="userSpaceOnUse">
<stop stop-color="#FFE000"/>
<stop offset="0.4087" stop-color="#FFBD00"/>
<stop offset="0.7754" stop-color="#FFA500"/>
<stop offset="1" stop-color="#FF9C00"/>
</linearGradient>
<linearGradient id="paint2_linear_253_19509" x1="23.5199" y1="21.7516" x2="5.87118" y2="39.4003" gradientUnits="userSpaceOnUse">
<stop stop-color="#FF3A44"/>
<stop offset="1" stop-color="#C31162"/>
</linearGradient>
<linearGradient id="paint3_linear_253_19509" x1="9.92522" y1="4.59948" x2="17.8058" y2="12.4801" gradientUnits="userSpaceOnUse">
<stop stop-color="#32A071"/>
<stop offset="0.0685" stop-color="#2DA771"/>
<stop offset="0.4762" stop-color="#15CF74"/>
<stop offset="0.8009" stop-color="#06E775"/>
<stop offset="1" stop-color="#00F076"/>
</linearGradient>
<clipPath id="clip0_253_19509">
<rect width="125" height="40" rx="5" fill="white"/>
</clipPath>
</defs>
</svg>
