<svg width="16" height="16" viewBox="0 0 16 16" fill="none" xmlns="http://www.w3.org/2000/svg">
<path fill-rule="evenodd" clip-rule="evenodd" d="M10.561 1.49999C10.5573 1.50013 10.5537 1.50154 10.551 1.50399L3.28595 8.57099C3.25026 8.60578 3.22579 8.65045 3.21568 8.69925C3.20556 8.74806 3.21026 8.79877 3.22918 8.84488C3.2481 8.89099 3.28037 8.9304 3.32184 8.95804C3.36332 8.98567 3.41211 9.00028 3.46195 8.99999H6.74995C6.873 9.00001 6.99416 9.03031 7.10273 9.08822C7.2113 9.14612 7.30396 9.22985 7.37254 9.33202C7.44111 9.43419 7.4835 9.55166 7.49595 9.67408C7.5084 9.7965 7.49055 9.9201 7.44395 10.034L5.73095 14.222L12.713 7.42899C12.7486 7.39425 12.773 7.34968 12.7832 7.30097C12.7933 7.25226 12.7887 7.20163 12.7699 7.15556C12.7511 7.10949 12.719 7.07008 12.6777 7.04236C12.6364 7.01465 12.5877 6.99989 12.538 6.99999H9.24995C9.12449 7 9.00102 6.96854 8.89087 6.90848C8.78071 6.84842 8.68738 6.76169 8.61943 6.65622C8.55147 6.55075 8.51106 6.42992 8.50189 6.30479C8.49272 6.17966 8.51509 6.05423 8.56695 5.93999L10.575 1.52199L10.578 1.51599C10.5774 1.5127 10.576 1.50961 10.574 1.50699C10.5724 1.50458 10.5704 1.50254 10.568 1.50099L10.561 1.49999ZM9.50395 0.429989C9.75725 0.184104 10.0884 0.0343268 10.4403 0.00649188C10.7923 -0.0213431 11.1429 0.0745095 11.4317 0.277516C11.7205 0.480523 11.9294 0.777956 12.0224 1.11851C12.1153 1.45907 12.0865 1.82139 11.941 2.14299L10.415 5.49999H12.538C14.108 5.49999 14.884 7.40899 13.758 8.50399L6.41795 15.646C6.18475 15.8728 5.87229 15.9998 5.54695 16H5.24495C5.03988 16 4.83796 15.9495 4.657 15.8531C4.47604 15.7566 4.32159 15.6171 4.20726 15.4468C4.09294 15.2766 4.02226 15.0808 4.00146 14.8768C3.98065 14.6728 4.01035 14.4668 4.08795 14.277L5.63295 10.5H3.46195C1.89195 10.5 1.11595 8.59099 2.24195 7.49599L9.50295 0.428989L9.50395 0.429989Z" fill="currentColor"/>
</svg>
