<svg width="100" height="100" viewBox="0 0 100 100" fill="none" xmlns="http://www.w3.org/2000/svg">
<path d="M50.2609 83.7856C49.2642 83.7856 48.2675 83.5045 47.4133 82.9421C45.8471 81.9579 44.708 80.2708 44.708 78.1619C44.708 75.0688 47.2709 72.6787 50.2609 72.6787C53.2509 72.6787 55.8138 75.2094 55.8138 78.1619C55.9561 81.3955 53.3933 83.7856 50.2609 83.7856Z" stroke="currentColor" stroke-width="2" stroke-miterlimit="10"/>
<path d="M67.0312 78.7502C66.0448 78.608 65.0984 78.1876 64.333 77.5091C62.9232 76.3117 62.0564 74.3402 62.3372 72.392C62.7783 69.3305 65.6558 67.3304 68.6153 67.7568C71.5747 68.1832 73.7505 71.0535 73.3294 73.9758C73.0292 77.0576 70.1316 79.1969 67.0312 78.7502Z" stroke="currentColor" stroke-width="2" stroke-miterlimit="10"/>
<path d="M70.333 78.7998C71.0594 81.7454 73.8791 84.1403 78.1068 84.7495" stroke="currentColor" stroke-width="2" stroke-miterlimit="10" stroke-linecap="round"/>
<path d="M58.4814 77.2539L56.0127 77.5956" stroke="currentColor" stroke-width="2" stroke-miterlimit="10" stroke-linecap="round"/>
<path d="M49.4513 72.6445L46.335 53.6519" stroke="currentColor" stroke-width="2" stroke-miterlimit="10"/>
<path d="M40.0029 15L45.144 46.4233" stroke="currentColor" stroke-width="2" stroke-miterlimit="10" stroke-linecap="round"/>
<path d="M63.704 68.8957L48.2871 52.4985" stroke="currentColor" stroke-width="2" stroke-miterlimit="10"/>
<path d="M21 23.4746L43.3437 47.267" stroke="currentColor" stroke-width="2" stroke-miterlimit="10" stroke-linecap="round"/>
<path d="M45.7488 53.7709C47.7933 53.7709 49.4507 52.1343 49.4507 50.1154C49.4507 48.0966 47.7933 46.46 45.7488 46.46C43.7043 46.46 42.0469 48.0966 42.0469 50.1154C42.0469 52.1343 43.7043 53.7709 45.7488 53.7709Z" stroke="#E21B25" stroke-width="2" stroke-miterlimit="10"/>
</svg>
