
<svg width="16" height="16" viewBox="0 0 16 16" fill="none" xmlns="http://www.w3.org/2000/svg">
<path fill-rule="evenodd" clip-rule="evenodd" d="M7.99992 0.25C8.13993 0.24991 8.27717 0.289014 8.39611 0.362887C8.51505 0.43676 8.61094 0.542452 8.67292 0.668L10.5549 4.483L14.7649 5.095C14.9034 5.11511 15.0334 5.17355 15.1404 5.26372C15.2474 5.35388 15.327 5.47218 15.3703 5.60523C15.4136 5.73829 15.4188 5.8808 15.3853 6.01665C15.3518 6.1525 15.281 6.27628 15.1809 6.374L12.1349 9.344L12.8539 13.536C12.8776 13.6739 12.8623 13.8157 12.8096 13.9454C12.7569 14.0751 12.669 14.1874 12.5558 14.2697C12.4426 14.352 12.3086 14.401 12.169 14.4111C12.0294 14.4212 11.8898 14.3921 11.7659 14.327L7.99992 12.347L4.23392 14.327C4.1101 14.392 3.97058 14.4211 3.83111 14.411C3.69163 14.4009 3.55776 14.352 3.4446 14.2699C3.33144 14.1877 3.24351 14.0755 3.19073 13.946C3.13795 13.8165 3.12243 13.6749 3.14592 13.537L3.86592 9.343L0.817921 6.374C0.717487 6.27632 0.64642 6.15247 0.612772 6.01647C0.579125 5.88047 0.584242 5.73777 0.627545 5.60453C0.670848 5.47129 0.750604 5.35284 0.857776 5.26261C0.964949 5.17238 1.09525 5.11397 1.23392 5.094L5.44392 4.483L7.32692 0.668C7.3889 0.542452 7.48478 0.43676 7.60372 0.362887C7.72266 0.289014 7.8599 0.24991 7.99992 0.25Z" fill="currentColor"/>
</svg>
