<svg width="24" height="24" viewBox="0 0 24 24" fill="none" xmlns="http://www.w3.org/2000/svg">
<path fill-rule="evenodd" clip-rule="evenodd" d="M14.8491 5.65799C14.3922 5.6578 13.941 5.75904 13.5281 5.95441C13.1151 6.14977 12.7507 6.43439 12.4611 6.78771C12.1715 7.14103 11.9639 7.55424 11.8534 7.99752C11.7429 8.44079 11.7322 8.90307 11.8221 9.35099C11.853 9.50619 11.8467 9.66651 11.8036 9.81879C11.7605 9.97106 11.6819 10.1109 11.5742 10.2269C11.4665 10.3429 11.3329 10.4316 11.1842 10.4859C11.0355 10.5401 10.8761 10.5583 10.7191 10.539C8.56879 10.2749 6.54179 9.39094 4.88506 7.99499C4.91606 8.59699 5.12506 9.23699 5.57806 9.90699L6.25706 10.911L5.14206 11.386L4.92706 11.478C5.08706 11.661 5.27906 11.848 5.49406 12.033C5.78148 12.279 6.08553 12.5049 6.40406 12.709L6.41506 12.716H6.41606L7.96406 13.655L6.34406 14.465C6.26406 14.505 6.18406 14.541 6.10406 14.573C6.4524 14.8624 6.83615 15.1064 7.24606 15.299L8.63606 15.956L7.47206 16.96C6.83706 17.508 6.19806 17.917 5.36906 18.133C6.6405 18.8102 8.0595 19.163 9.50006 19.16C14.3061 19.16 18.1761 15.325 18.1761 10.626V10.106L18.6011 9.80699C19.2651 9.34099 19.7341 8.71099 20.0701 7.98999H17.9101L17.6381 7.41999C17.3876 6.89266 16.9927 6.44719 16.4992 6.1353C16.0057 5.82342 15.4339 5.65791 14.8501 5.65799H14.8491ZM3.56906 12.958C3.4747 13.0661 3.40469 13.1932 3.3638 13.3307C3.3229 13.4682 3.31208 13.6129 3.33206 13.755C3.44506 14.556 3.92406 15.246 4.45406 15.773C4.59806 15.916 4.75206 16.053 4.91406 16.184L4.83906 16.204C4.35806 16.324 3.70906 16.349 2.62806 16.244C2.42392 16.224 2.21856 16.2672 2.03981 16.3678C1.86107 16.4684 1.7176 16.6216 1.62885 16.8065C1.5401 16.9915 1.51036 17.1992 1.54367 17.4016C1.57698 17.604 1.67173 17.7913 1.81506 17.938C2.81583 18.9609 4.01135 19.773 5.33108 20.3264C6.65081 20.8798 8.06801 21.1632 9.49906 21.16C15.2121 21.16 19.8981 16.724 20.1631 11.126C21.4531 10.043 22.0981 8.57599 22.4461 7.24299C22.4848 7.09504 22.489 6.94019 22.4585 6.79034C22.4279 6.6405 22.3634 6.49965 22.2699 6.37863C22.1765 6.25762 22.0565 6.15965 21.9192 6.09228C21.7819 6.0249 21.631 5.98991 21.4781 5.98999H19.1251C18.5495 5.09631 17.7084 4.40543 16.72 4.01442C15.7315 3.62342 14.6454 3.55194 13.6142 3.81004C12.583 4.06813 11.6587 4.64283 10.9709 5.45337C10.2832 6.26391 9.86676 7.26956 9.78006 8.32899C7.93672 7.84914 6.28739 6.8098 5.05906 5.35399C4.95028 5.22537 4.81077 5.12632 4.65348 5.06602C4.49619 5.00572 4.32622 4.98614 4.15933 5.00908C3.99245 5.03202 3.83407 5.09675 3.69888 5.19726C3.5637 5.29776 3.4561 5.43079 3.38606 5.58399C2.78006 6.90599 2.66406 8.42999 3.34006 9.97999L3.10606 10.08C2.88213 10.1754 2.7007 10.3492 2.59576 10.5688C2.49083 10.7885 2.4696 11.0388 2.53606 11.273C2.72206 11.925 3.14006 12.501 3.56806 12.958H3.56906Z" fill="currentColor"/>
</svg>
