<svg width="24" height="24" viewBox="0 0 24 24" fill="none" xmlns="http://www.w3.org/2000/svg">
<path fill-rule="evenodd" clip-rule="evenodd" d="M11.5 1.38C9.054 1.38 6.917 1.977 5.27 3.316C5.12448 3.43442 4.98338 3.55817 4.847 3.68701C4.327 4.202 3.554 5.126 2.95 6.517C1.947 8.83 2 11 2 11C2.781 10.348 4.585 8.99401 6.312 8.142C7.998 7.31001 10.124 7.225 10.124 7.225H10.184C10.86 7.175 11.434 7.19801 11.826 7.267C12.561 7.39701 13.086 7.722 13.432 8.15C13.622 8.384 13.772 8.667 13.871 9H9.48C9.48 8.844 9.525 8.61 9.605 8.424C9.605 8.424 8.607 8.242 7.601 8.577C5.888 9.147 4.728 10.585 4.2 11.371C3.637 12.315 3.269 13.435 3.269 14.655C3.269 19.215 7.801 22.391 13.63 22.391C15.215 22.391 17.38 21.956 19.023 21.051C19.675 20.693 19.999 20.015 19.999 19.363V15.087C19.9992 14.9916 19.9857 14.8966 19.959 14.805C20.2995 14.6421 20.587 14.3862 20.7882 14.0668C20.9894 13.7473 21.0961 13.3775 21.096 13V10C21.096 7.26 20.073 5.064 18.296 3.57C16.54 2.095 14.142 1.38 11.499 1.38H11.5ZM6.423 11.694C6.651 11.426 6.895 11.194 7.143 11H16V9.95C16 8.796 15.665 7.73 14.988 6.892C14.307 6.051 13.332 5.502 12.174 5.298C11.05 5.099 9.281 5.183 7.492 5.673C6.702 5.889 5.883 6.19201 5.096 6.603C5.45927 5.93814 5.94675 5.34916 6.532 4.868C7.725 3.898 9.372 3.38 11.5 3.38C13.802 3.38 15.703 4.003 17.01 5.101C18.294 6.181 19.097 7.795 19.097 10V13H8.5C7.756 13 6.83 13.67 7.088 14.731C7.614 16.895 10.228 18.411 13.631 18.411C14.704 18.411 15.927 18.149 17.018 17.701C17.349 17.565 17.681 17.407 18 17.226V19.332C16.705 20.026 14.919 20.39 13.631 20.39C8.306 20.39 5.27 17.593 5.27 14.655C5.27 13.542 5.733 12.501 6.423 11.694ZM9.458 15H17.722C17.352 15.312 16.852 15.607 16.258 15.851C15.375 16.214 14.409 16.411 13.631 16.411C11.423 16.411 10.092 15.705 9.458 15Z" fill="currentColor"/>
</svg>
