
<svg width="24" height="24" viewBox="0 0 24 24" fill="none" xmlns="http://www.w3.org/2000/svg">
<path fill-rule="evenodd" clip-rule="evenodd" d="M3.50005 12.0005C3.50005 10.3193 3.99857 8.67596 4.93256 7.27814C5.86655 5.88032 7.19407 4.79086 8.74724 4.14751C10.3004 3.50417 12.0095 3.33584 13.6583 3.66381C15.3072 3.99179 16.8217 4.80133 18.0105 5.99008C19.1992 7.17883 20.0088 8.69338 20.3367 10.3422C20.6647 11.9911 20.4964 13.7001 19.853 15.2533C19.2097 16.8065 18.1202 18.134 16.7224 19.068C15.3246 20.002 13.6812 20.5005 12.0001 20.5005C10.3919 20.5033 8.81628 20.0475 7.45805 19.1865C7.33723 19.1101 7.20143 19.0604 7.05981 19.0409C6.91818 19.0214 6.77402 19.0325 6.63705 19.0735L3.75705 19.9325L4.84205 17.3955C4.90512 17.2478 4.93168 17.0871 4.9195 16.9269C4.90731 16.7668 4.85674 16.6119 4.77205 16.4755C3.93798 15.1321 3.4973 13.5817 3.50005 12.0005ZM12.0001 1.50049C6.20105 1.50049 1.50005 6.20149 1.50005 12.0005C1.50005 13.8385 1.97305 15.5685 2.80505 17.0735L1.08005 21.1075C1.00539 21.2822 0.982065 21.4746 1.01281 21.6622C1.04355 21.8497 1.12708 22.0246 1.25363 22.1663C1.38017 22.3081 1.54449 22.4109 1.72734 22.4626C1.91018 22.5143 2.10399 22.5129 2.28605 22.4585L6.78605 21.1165C8.37308 22.0259 10.1709 22.5032 12.0001 22.5005C17.799 22.5005 22.5001 17.7995 22.5001 12.0005C22.5001 6.20149 17.799 1.50049 12.0001 1.50049ZM14.2931 14.1825L12.9781 15.1085C12.2535 14.6916 11.5882 14.1794 11.0001 13.5855C10.3686 12.9549 9.82259 12.2442 9.37605 11.4715L10.2111 10.7625C10.385 10.6149 10.5033 10.4122 10.5462 10.1881C10.5892 9.96399 10.5542 9.73195 10.4471 9.53049L9.38305 7.53049C9.31225 7.39766 9.21237 7.28254 9.09087 7.19369C8.96937 7.10484 8.82938 7.04457 8.68134 7.01737C8.5333 6.99016 8.38103 6.99673 8.23588 7.03657C8.09073 7.07642 7.95645 7.14851 7.84305 7.24749L7.52705 7.52249C6.76805 8.18449 6.31905 9.27249 6.69105 10.3745C7.28956 12.1176 8.27996 13.7002 9.58605 15.0005C11.3991 16.8135 13.2411 17.5275 14.3191 17.8055C15.1871 18.0285 16.0081 17.7295 16.5871 17.2575L17.1781 16.7755C17.3027 16.6739 17.4009 16.5437 17.4645 16.3961C17.5281 16.2484 17.5552 16.0876 17.5434 15.9273C17.5316 15.7669 17.4814 15.6118 17.3969 15.475C17.3124 15.3382 17.1962 15.2238 17.0581 15.1415L15.3801 14.1415C15.2141 14.0425 15.0231 13.9937 14.83 14.0009C14.6369 14.0082 14.4501 14.0713 14.2921 14.1825H14.2931Z" fill="currentColor"/>
</svg>
