<svg width="24" height="24" viewBox="0 0 24 24" fill="none" xmlns="http://www.w3.org/2000/svg">
<path fill-rule="evenodd" clip-rule="evenodd" d="M6 1.00049C5.20435 1.00049 4.44129 1.31656 3.87868 1.87917C3.31607 2.44178 3 3.20484 3 4.00049V17.0005C3 18.3065 3.835 19.4185 5 19.8305V22.0005C5 22.2657 5.10536 22.5201 5.29289 22.7076C5.48043 22.8951 5.73478 23.0005 6 23.0005H18C18.2652 23.0005 18.5196 22.8951 18.7071 22.7076C18.8946 22.5201 19 22.2657 19 22.0005V19.8305C19.5851 19.6235 20.0916 19.2402 20.4498 18.7333C20.8079 18.2265 21.0002 17.6211 21 17.0005V4.00049C21 3.20484 20.6839 2.44178 20.1213 1.87917C19.5587 1.31656 18.7956 1.00049 18 1.00049H6ZM17 20.0005H7V21.0005H17V20.0005ZM6 18.0005H18C18.2652 18.0005 18.5196 17.8951 18.7071 17.7076C18.8946 17.5201 19 17.2657 19 17.0005V4.00049C19 3.73527 18.8946 3.48092 18.7071 3.29338C18.5196 3.10584 18.2652 3.00049 18 3.00049H6C5.73478 3.00049 5.48043 3.10584 5.29289 3.29338C5.10536 3.48092 5 3.73527 5 4.00049V17.0005C5 17.2657 5.10536 17.5201 5.29289 17.7076C5.48043 17.8951 5.73478 18.0005 6 18.0005ZM7 5.75049C7 5.55158 7.07902 5.36081 7.21967 5.22016C7.36032 5.07951 7.55109 5.00049 7.75 5.00049H16.25C16.4489 5.00049 16.6397 5.07951 16.7803 5.22016C16.921 5.36081 17 5.55158 17 5.75049V12.2505C17 12.4494 16.921 12.6402 16.7803 12.7808C16.6397 12.9215 16.4489 13.0005 16.25 13.0005H7.75C7.55109 13.0005 7.36032 12.9215 7.21967 12.7808C7.07902 12.6402 7 12.4494 7 12.2505V5.75049ZM16 16.0005C16.2652 16.0005 16.5196 15.8951 16.7071 15.7076C16.8946 15.5201 17 15.2657 17 15.0005C17 14.7353 16.8946 14.4809 16.7071 14.2934C16.5196 14.1058 16.2652 14.0005 16 14.0005C15.7348 14.0005 15.4804 14.1058 15.2929 14.2934C15.1054 14.4809 15 14.7353 15 15.0005C15 15.2657 15.1054 15.5201 15.2929 15.7076C15.4804 15.8951 15.7348 16.0005 16 16.0005Z" fill="currentColor"/>
</svg>
