<svg viewBox="0 0 24 24" fill="none" xmlns="http://www.w3.org/2000/svg">
<path fill-rule="evenodd" clip-rule="evenodd" d="M3.3749 11.3184C8.74359 8.9193 12.3236 7.33767 14.1148 6.5735C19.2292 4.39166 20.2919 4.01265 20.9846 4.00013C21.1369 3.99738 21.4776 4.03611 21.6982 4.21974C21.8845 4.3748 21.9358 4.58426 21.9603 4.73128C21.9848 4.87829 22.0154 5.21319 21.9911 5.47487C21.714 8.46165 20.5147 15.7098 19.9046 19.055C19.6465 20.4705 19.1382 20.9451 18.6461 20.9916C17.5766 21.0925 16.7645 20.2667 15.7287 19.5702C14.1078 18.4805 13.1921 17.8021 11.6188 16.7387C9.80053 15.5097 10.9792 14.8343 12.0154 13.7304C12.2866 13.4415 16.9987 9.04547 17.0899 8.64668C17.1013 8.59681 17.1119 8.41089 17.0042 8.31273C16.8965 8.21456 16.7376 8.24813 16.6229 8.27483C16.4604 8.31267 13.871 10.0681 8.85486 13.541C8.11988 14.0587 7.45416 14.3109 6.8577 14.2977C6.20015 14.2831 4.93528 13.9163 3.99498 13.6028C2.84166 13.2183 1.92503 13.015 2.00485 12.362C2.04642 12.0218 2.5031 11.674 3.3749 11.3184Z" fill="currentColor"/>
</svg>
