
<svg width="24" height="24" viewBox="0 0 24 24" fill="none" xmlns="http://www.w3.org/2000/svg">
<path fill-rule="evenodd" clip-rule="evenodd" d="M0 8.00049C0 6.93962 0.421427 5.92221 1.17157 5.17206C1.92172 4.42192 2.93913 4.00049 4 4.00049H20C21.0609 4.00049 22.0783 4.42192 22.8284 5.17206C23.5786 5.92221 24 6.93962 24 8.00049V16.0005C24 17.0614 23.5786 18.0788 22.8284 18.8289C22.0783 19.5791 21.0609 20.0005 20 20.0005H4C2.93913 20.0005 1.92172 19.5791 1.17157 18.8289C0.421427 18.0788 0 17.0614 0 16.0005V8.00049ZM4 6.00049C3.46957 6.00049 2.96086 6.2112 2.58579 6.58627C2.21071 6.96135 2 7.47006 2 8.00049V16.0005C2 16.5309 2.21071 17.0396 2.58579 17.4147C2.96086 17.7898 3.46957 18.0005 4 18.0005H20C20.5304 18.0005 21.0391 17.7898 21.4142 17.4147C21.7893 17.0396 22 16.5309 22 16.0005V8.00049C22 7.47006 21.7893 6.96135 21.4142 6.58627C21.0391 6.2112 20.5304 6.00049 20 6.00049H4ZM5.684 8.05149C5.88311 7.9852 6.09803 7.98324 6.29833 8.04588C6.49862 8.10851 6.67413 8.23257 6.8 8.40049L9 11.3335L11.2 8.40049C11.3259 8.23258 11.5015 8.10855 11.7018 8.04597C11.9022 7.98339 12.1171 7.98543 12.3162 8.0518C12.5153 8.11818 12.6885 8.24551 12.8112 8.41578C12.934 8.58604 13 8.79061 13 9.00049V15.0005C13 15.2657 12.8946 15.5201 12.7071 15.7076C12.5196 15.8951 12.2652 16.0005 12 16.0005C11.7348 16.0005 11.4804 15.8951 11.2929 15.7076C11.1054 15.5201 11 15.2657 11 15.0005V12.0005L9.8 13.6005C9.70685 13.7247 9.58607 13.8255 9.44721 13.8949C9.30836 13.9643 9.15524 14.0005 9 14.0005C8.84476 14.0005 8.69164 13.9643 8.55279 13.8949C8.41393 13.8255 8.29315 13.7247 8.2 13.6005L7 12.0005V15.0005C7 15.2657 6.89464 15.5201 6.70711 15.7076C6.51957 15.8951 6.26522 16.0005 6 16.0005C5.73478 16.0005 5.48043 15.8951 5.29289 15.7076C5.10536 15.5201 5 15.2657 5 15.0005V9.00049C4.99995 8.79052 5.06599 8.58587 5.18876 8.41554C5.31153 8.24521 5.48479 8.11784 5.684 8.05149ZM18 9.00049C18 8.73527 17.8946 8.48092 17.7071 8.29338C17.5196 8.10585 17.2652 8.00049 17 8.00049C16.7348 8.00049 16.4804 8.10585 16.2929 8.29338C16.1054 8.48092 16 8.73527 16 9.00049V12.5865L15.707 12.2935C15.5184 12.1113 15.2658 12.0105 15.0036 12.0128C14.7414 12.0151 14.4906 12.1203 14.3052 12.3057C14.1198 12.4911 14.0146 12.7419 14.0123 13.0041C14.01 13.2663 14.1108 13.5189 14.293 13.7075L16.293 15.7075C16.4805 15.895 16.7348 16.0003 17 16.0003C17.2652 16.0003 17.5195 15.895 17.707 15.7075L19.707 13.7075C19.8892 13.5189 19.99 13.2663 19.9877 13.0041C19.9854 12.7419 19.8802 12.4911 19.6948 12.3057C19.5094 12.1203 19.2586 12.0151 18.9964 12.0128C18.7342 12.0105 18.4816 12.1113 18.293 12.2935L18 12.5865V9.00049Z" fill="currentColor"/>
</svg>
