<svg width="16" height="16" viewBox="0 0 16 16" fill="none" xmlns="http://www.w3.org/2000/svg">
<g clip-path="url(#clip0_213_5609)">
<circle cx="8" cy="8" r="8" fill="currentColor"/>
<mask id="mask0_213_5609" style="mask-type:alpha" maskUnits="userSpaceOnUse" x="0" y="0" width="16" height="16">
<circle cx="8" cy="8" r="8" fill="#C4C4C4"/>
</mask>
<g mask="url(#mask0_213_5609)">
<path d="M11.3612 11.2665C10.9566 12.1874 11.0334 13.4115 11.7258 14.8818C11.7482 14.9196 11.7722 14.9552 11.7973 14.9913C11.6521 13.2835 11.5304 11.4755 11.5304 11.4755C11.5123 11.2003 11.3906 11.1992 11.3612 11.2665ZM12.1219 17.8559C12.1288 17.8827 12.1592 17.88 12.1715 17.8559C12.3717 17.4564 12.4384 16.8315 12.4016 16.2504C12.3562 15.5806 12.0343 15.33 11.7973 14.9918C11.9057 16.2657 12.0274 17.486 12.1219 17.8559ZM9.03702 11.6676C7.65981 11.603 6.63011 12.0544 5.7141 12.6711C4.10683 13.753 2.88816 15.5117 1.03907 17.0909C0.977146 17.1396 0.992087 17.1735 1.06095 17.1237C2.28335 16.309 9.07279 11.7934 9.07279 11.7934C9.08486 11.7854 9.09409 11.7737 9.09911 11.7599C9.10413 11.7461 9.10466 11.731 9.10065 11.7168C9.09663 11.7027 9.08827 11.6903 9.0768 11.6814C9.06534 11.6725 9.05139 11.6677 9.03702 11.6676ZM11.8309 10.3247C12.0081 10.5198 12.2478 10.643 12.5063 10.6718C12.7648 10.7005 13.0248 10.6329 13.2386 10.4812C13.2409 10.4795 13.2427 10.4772 13.2438 10.4745C13.2449 10.4718 13.2452 10.4689 13.2447 10.466C13.2442 10.4631 13.2429 10.4604 13.241 10.4583C13.239 10.4561 13.2365 10.4546 13.2338 10.4539L11.6126 9.95482C11.6098 9.95403 11.6068 9.95408 11.604 9.95497C11.6012 9.95587 11.5987 9.95756 11.5968 9.95986C11.5949 9.96215 11.5936 9.96496 11.5932 9.96794C11.5928 9.97092 11.5933 9.97396 11.5945 9.97671C11.6368 10.0637 11.6874 10.1462 11.7455 10.2229C11.7473 10.2253 11.7483 10.2281 11.7486 10.231C11.7488 10.234 11.7482 10.2369 11.7469 10.2395C11.7455 10.2421 11.7435 10.2442 11.741 10.2457C11.7385 10.2471 11.7356 10.2478 11.7327 10.2476C11.003 10.1929 8.03401 9.9581 7.65821 9.93074C7.6553 9.93044 7.65237 9.93101 7.64978 9.9324C7.64718 9.93378 7.64504 9.93592 7.64362 9.93854C7.6422 9.94116 7.64156 9.94416 7.64178 9.94715C7.642 9.95014 7.64308 9.953 7.64487 9.95537C7.97476 10.3991 8.73436 10.9009 9.56656 10.9567C9.94022 10.9819 11.0078 10.9119 11.8133 10.3225C11.8161 10.3208 11.8193 10.3201 11.8225 10.3205C11.8257 10.3209 11.8287 10.3224 11.8309 10.3247ZM3.36484 4.28797C3.46359 4.36622 3.56395 4.44393 3.66484 4.52163C2.78993 2.29013 2.02126 0.320193 1.95667 0.108425C1.74795 -0.359982 1.33319 -0.421269 1.17198 -0.156422C0.758286 0.5243 1.21842 1.58861 1.55418 2.19656C2.08264 3.15252 3.20844 4.16376 3.36484 4.28797ZM5.05219 4.75091C5.42585 5.06391 6.04293 5.47595 6.2068 5.71289C6.32531 5.88362 6.74061 7.47653 7.13028 7.93454C7.46338 8.32141 7.75483 8.44125 7.88187 8.47737C7.88721 8.479 7.89291 8.47889 7.89818 8.47704C7.90345 8.47519 7.90801 8.4717 7.91125 8.46706C7.91449 8.46242 7.91622 8.45685 7.91622 8.45114C7.91622 8.44544 7.91448 8.43987 7.91124 8.43523C7.51729 7.83659 7.32726 7.14547 7.12495 6.79362C7.12296 6.79023 7.12211 6.78626 7.12254 6.78232C7.12297 6.77839 7.12465 6.77471 7.12732 6.77185C7.12999 6.76899 7.1335 6.76711 7.13731 6.76649C7.14113 6.76588 7.14503 6.76657 7.14843 6.76845C7.46071 6.94684 7.91497 7.23959 8.11782 7.54986C8.12042 7.55399 8.12423 7.55719 8.1287 7.55899C8.13317 7.5608 8.13808 7.56112 8.14274 7.55991C8.14739 7.5587 8.15156 7.55602 8.15465 7.55225C8.15775 7.54849 8.15961 7.54382 8.15998 7.53891C8.20269 7.10826 8.06177 5.90387 7.68917 5.34736C7.58678 5.17652 7.52092 4.98534 7.49594 4.78648C7.39558 3.71122 6.65253 1.81242 5.09703 -0.0458857C4.26269 -1.06916 3.70914 -1.55781 3.24954 -1.6191C2.78993 -1.68039 2.33247 -1.26834 2.51983 -0.196367C2.67891 0.709256 3.50309 3.50875 5.05219 4.75091ZM6.32798 11.1138C6.34773 10.9048 6.36267 10.7981 6.36855 10.6027C6.38509 10.0708 6.33438 8.94523 6.26179 8.48557C6.12727 7.64945 5.88812 6.86859 5.4109 6.16598C4.95984 5.50058 4.29472 5.00536 3.66591 4.52163C4.72657 7.22537 5.9431 10.3138 6.25911 11.1264C6.26255 11.1337 6.26823 11.1397 6.27529 11.1434C6.28235 11.1471 6.2904 11.1483 6.29821 11.1469C6.30602 11.1455 6.31316 11.1415 6.31854 11.1355C6.32391 11.1295 6.32723 11.1219 6.32798 11.1138ZM14.3884 8.87901L14.4775 8.92498C14.6564 7.80978 13.7227 7.65218 13.261 7.39281C12.7993 7.13343 12.3002 6.55285 11.421 6.14026C10.6107 5.75722 8.8171 5.50933 8.11141 5.50878C8.10379 5.50875 8.09639 5.51146 8.09052 5.51644C8.08464 5.52142 8.08065 5.52836 8.07926 5.53605C8.07786 5.54373 8.07913 5.55167 8.08286 5.55849C8.0866 5.56531 8.09254 5.57057 8.09966 5.57335C8.84165 5.8869 9.36425 6.15941 10.0811 6.54081C10.0871 6.5439 10.0921 6.54882 10.0952 6.55488C10.0984 6.56095 10.0996 6.56787 10.0988 6.5747C10.098 6.58153 10.0952 6.58793 10.0907 6.59303C10.0861 6.59813 10.0802 6.60168 10.0737 6.60319C9.77154 6.67378 9.50196 6.84232 9.35677 6.9255C9.35282 6.92778 9.34938 6.93089 9.34668 6.93462C9.34397 6.93835 9.34205 6.94262 9.34105 6.94715C9.34004 6.95169 9.33997 6.95638 9.34084 6.96095C9.34171 6.96551 9.3435 6.96984 9.3461 6.97365C9.8468 7.71894 10.6422 7.72879 11.2256 7.44042C11.2326 7.43687 11.238 7.4309 11.2411 7.42357C11.2441 7.41625 11.2445 7.40806 11.2422 7.40047C11.2195 7.32608 11.1904 7.25392 11.1552 7.18487C11.1518 7.17858 11.1506 7.17136 11.1516 7.16429C11.1526 7.15721 11.1557 7.15064 11.1606 7.14556C11.1655 7.14047 11.1719 7.13713 11.1788 7.13603C11.1857 7.13494 11.1927 7.13613 11.1989 7.13945C12.3108 7.73262 13.2124 8.24098 13.585 8.52607C13.6301 8.55298 13.672 8.58511 13.7099 8.62183C13.8065 8.75261 13.8701 8.89872 14.0025 8.99502C14.0111 9.00084 14.018 9.00896 14.0225 9.01851C14.027 9.02806 14.0289 9.03869 14.028 9.04925C14.0271 9.05981 14.0234 9.06992 14.0173 9.07849C14.0112 9.08705 14.0029 9.09376 13.9934 9.0979L12.4582 9.74524C12.4487 9.74937 12.4404 9.7559 12.4341 9.76423C12.4278 9.77255 12.4237 9.78239 12.4222 9.7928C12.4206 9.80322 12.4217 9.81387 12.4253 9.82374C12.4289 9.83361 12.4349 9.84238 12.4427 9.84921C12.8932 10.2366 13.482 10.1606 13.7548 10.0167C13.9228 9.92429 14.0592 9.7815 14.1459 9.60742C14.2325 9.43334 14.2651 9.23627 14.2395 9.04263C14.2224 8.91568 14.3398 8.84728 14.3884 8.87901Z" fill="white"/>
</g>
</g>
<defs>
<clipPath id="clip0_213_5609">
<rect width="16" height="16" fill="white"/>
</clipPath>
</defs>
</svg>
