<svg width="16" height="16" viewBox="0 0 16 16" fill="none" xmlns="http://www.w3.org/2000/svg">
<g clip-path="url(#clip0_213_5307)">
<path fill-rule="evenodd" clip-rule="evenodd" d="M14.1835 1.14335C13.6745 0.26168 12.5232 -0.0010556 11.6821 0.572491L0.911261 7.91687C0.154685 8.43276 -0.0762502 9.44468 0.381613 10.2377L0.828804 11.0123C1.28667 11.8053 2.27849 12.1113 3.10355 11.714L14.8494 6.0584C15.7666 5.61673 16.1147 4.48833 15.6057 3.60666L14.1835 1.14335ZM12.5271 1.8118C12.6473 1.72986 12.8118 1.7674 12.8845 1.89335L14.3067 4.35666C14.3794 4.48261 14.3297 4.64381 14.1986 4.70691L12.1826 5.67763L10.6784 3.07238L12.5271 1.8118ZM9.43566 3.91981L10.8273 6.33021L5.40614 8.9405L4.4645 7.30953L9.43566 3.91981ZM3.22171 8.15696L1.75632 9.15617C1.64823 9.22987 1.61524 9.37443 1.68065 9.48772L2.12784 10.2623C2.19325 10.3756 2.33494 10.4193 2.45281 10.3625L4.05085 9.59307L3.22171 8.15696ZM9.47535 10.4628C9.2661 10.157 8.86487 10.0498 8.531 10.2106L6.72216 11.0815C6.60391 11.1385 6.50267 11.2255 6.42856 11.3338L4.38093 14.3265C4.14703 14.6683 4.23454 15.1351 4.5764 15.369C4.91825 15.6029 5.38499 15.5153 5.61889 15.1735L7.49991 12.4243V15.25C7.49991 15.6642 7.8357 16 8.24991 16C8.66412 16 8.99991 15.6642 8.99991 15.25V12.4243L10.8809 15.1735C11.1148 15.5153 11.5816 15.6029 11.9234 15.369C12.2653 15.1351 12.3528 14.6683 12.1189 14.3265L9.47535 10.4628Z" fill="currentColor"/>
</g>
<defs>
<clipPath id="clip0_213_5307">
<rect width="16" height="16" fill="white"/>
</clipPath>
</defs>
</svg>
