<svg width="16" height="16" viewBox="0 0 16 16" fill="none" xmlns="http://www.w3.org/2000/svg">
<g clip-path="url(#clip0_213_5237)">
<path fill-rule="evenodd" clip-rule="evenodd" d="M1.50007 7.99997C1.50003 6.76575 1.85137 5.55703 2.51302 4.51515C3.17466 3.47328 4.11926 2.64131 5.23636 2.11653C6.35345 1.59176 7.59687 1.39588 8.82119 1.55179C10.0456 1.70771 11.2002 2.20897 12.1501 2.99697C12.3035 3.11944 12.4988 3.17687 12.6941 3.15695C12.8894 3.13703 13.0691 3.04134 13.1946 2.89042C13.3202 2.7395 13.3815 2.54538 13.3655 2.34973C13.3495 2.15409 13.2575 1.97251 13.1091 1.84397C11.7816 0.742859 10.1338 0.100258 8.41127 0.0119596C6.68879 -0.0763387 4.9839 0.394395 3.55076 1.35399C2.11761 2.31358 1.03296 3.71064 0.458497 5.3369C-0.115964 6.96315 -0.149472 8.73152 0.362971 10.3784C0.875413 12.0253 1.90636 13.4624 3.30213 14.4756C4.69789 15.4888 6.38372 16.0238 8.10831 16.0008C9.8329 15.9778 11.5039 15.3981 12.8722 14.3481C14.2405 13.298 15.2327 11.8339 15.7011 10.174C15.7551 9.98248 15.7308 9.7774 15.6335 9.60383C15.5363 9.43027 15.3741 9.30244 15.1826 9.24847C14.9911 9.1945 14.786 9.2188 14.6125 9.31604C14.4389 9.41328 14.3111 9.57548 14.2571 9.76697C13.8317 11.2788 12.8733 12.5854 11.5592 13.4454C10.245 14.3053 8.66391 14.6603 7.10826 14.4449C5.5526 14.2294 4.12757 13.458 3.09662 12.2732C2.06568 11.0885 1.49854 9.57048 1.50007 7.99997ZM8.00007 12C8.26529 12 8.51964 11.8946 8.70718 11.7071C8.89472 11.5196 9.00007 11.2652 9.00007 11C9.00007 10.7348 8.89472 10.4804 8.70718 10.2929C8.51964 10.1054 8.26529 9.99997 8.00007 9.99997C7.73486 9.99997 7.4805 10.1054 7.29297 10.2929C7.10543 10.4804 7.00007 10.7348 7.00007 11C7.00007 11.2652 7.10543 11.5196 7.29297 11.7071C7.4805 11.8946 7.73486 12 8.00007 12ZM8.00007 3.99997C8.19899 3.99997 8.38975 4.07899 8.5304 4.21964C8.67106 4.36029 8.75007 4.55106 8.75007 4.74997V8.24997C8.75007 8.44888 8.67106 8.63965 8.5304 8.7803C8.38975 8.92095 8.19899 8.99997 8.00007 8.99997C7.80116 8.99997 7.6104 8.92095 7.46974 8.7803C7.32909 8.63965 7.25007 8.44888 7.25007 8.24997V4.74997C7.25007 4.55106 7.32909 4.36029 7.46974 4.21964C7.6104 4.07899 7.80116 3.99997 8.00007 3.99997ZM12.7801 8.27997L15.7801 5.27997C15.9126 5.13779 15.9847 4.94975 15.9813 4.75545C15.9779 4.56115 15.8991 4.37576 15.7617 4.23835C15.6243 4.10093 15.4389 4.02222 15.2446 4.01879C15.0503 4.01537 14.8623 4.08749 14.7201 4.21997L12.2501 6.68997L11.2801 5.71997C11.2115 5.64628 11.1287 5.58718 11.0367 5.54619C10.9447 5.5052 10.8453 5.48315 10.7446 5.48138C10.6439 5.4796 10.5439 5.49813 10.4505 5.53585C10.3571 5.57357 10.2723 5.62971 10.2011 5.70093C10.1299 5.77215 10.0737 5.85698 10.036 5.95037C9.99823 6.04376 9.97971 6.14379 9.98148 6.24449C9.98326 6.34519 10.0053 6.44451 10.0463 6.53651C10.0873 6.62851 10.1464 6.71131 10.2201 6.77997L11.7201 8.27997C11.8607 8.42042 12.0514 8.49931 12.2501 8.49931C12.4489 8.49931 12.6395 8.42042 12.7801 8.27997Z" fill="currentColor"/>
</g>
<defs>
<clipPath id="clip0_213_5237">
<rect width="16" height="16" fill="white"/>
</clipPath>
</defs>
</svg>
