<svg width="16" height="16" viewBox="0 0 16 16" fill="none" xmlns="http://www.w3.org/2000/svg">
<g clip-path="url(#clip0_213_5345)">
<path fill-rule="evenodd" clip-rule="evenodd" d="M1.74988 2C0.78338 2 -0.000122066 2.7835 -0.000122066 3.75V4.48577C-0.000285027 4.49479 -0.000284637 4.50381 -0.000122066 4.51282V12.25C-0.000122066 13.2165 0.783379 14 1.74988 14H14.2499C15.2164 14 15.9999 13.2165 15.9999 12.25V4.51265C16.0001 4.50376 16.0001 4.49485 15.9999 4.48594V3.75C15.9999 2.7835 15.2164 2 14.2499 2H1.74988ZM14.4999 4.07029V3.75C14.4999 3.61193 14.388 3.5 14.2499 3.5H1.74988C1.61181 3.5 1.49988 3.61193 1.49988 3.75V4.07029L7.99988 7.88063L14.4999 4.07029ZM1.49988 5.80902V12.25C1.49988 12.3881 1.61181 12.5 1.74988 12.5H14.2499C14.388 12.5 14.4999 12.3881 14.4999 12.25V5.80902L8.37917 9.39702C8.14495 9.53432 7.85481 9.53432 7.62059 9.39702L1.49988 5.80902Z" fill="currentColor"/>
</g>
<defs>
<clipPath id="clip0_213_5345">
<rect width="16" height="16" fill="white"/>
</clipPath>
</defs>
</svg>
