<svg width="24" height="24" viewBox="0 0 24 24" fill="none" xmlns="http://www.w3.org/2000/svg">
<path fill-rule="evenodd" clip-rule="evenodd" d="M6 2C4.93913 2 3.92172 2.42143 3.17157 3.17157C2.42143 3.92172 2 4.93913 2 6V18C2 19.0609 2.42143 20.0783 3.17157 20.8284C3.92172 21.5786 4.93913 22 6 22H18C19.0609 22 20.0783 21.5786 20.8284 20.8284C21.5786 20.0783 22 19.0609 22 18V6C22 4.93913 21.5786 3.92172 20.8284 3.17157C20.0783 2.42143 19.0609 2 18 2H6ZM4 6C4 5.46957 4.21071 4.96086 4.58579 4.58579C4.96086 4.21071 5.46957 4 6 4H18C18.5304 4 19.0391 4.21071 19.4142 4.58579C19.7893 4.96086 20 5.46957 20 6V18C20 18.5304 19.7893 19.0391 19.4142 19.4142C19.0391 19.7893 18.5304 20 18 20H6C5.46957 20 4.96086 19.7893 4.58579 19.4142C4.21071 19.0391 4 18.5304 4 18V6ZM12 7.5C12 7.23478 11.8946 6.98043 11.7071 6.79289C11.5196 6.60536 11.2652 6.5 11 6.5C10.7348 6.5 10.4804 6.60536 10.2929 6.79289C10.1054 6.98043 10 7.23478 10 7.5V9H9C8.73478 9 8.48043 9.10536 8.29289 9.29289C8.10536 9.48043 8 9.73478 8 10C8 10.2652 8.10536 10.5196 8.29289 10.7071C8.48043 10.8946 8.73478 11 9 11H10V13.89C10 16.335 12.442 18.027 14.73 17.167L15.346 16.937C15.5944 16.8438 15.7955 16.6557 15.9053 16.4142C16.015 16.1726 16.0242 15.8974 15.931 15.649C15.8378 15.4006 15.6497 15.1995 15.4082 15.0897C15.1666 14.98 14.8914 14.9708 14.643 15.064L14.027 15.294C13.8002 15.3791 13.5562 15.408 13.3159 15.3783C13.0755 15.3486 12.8459 15.2611 12.6467 15.1233C12.4475 14.9855 12.2847 14.8015 12.172 14.5871C12.0594 14.3727 12.0004 14.1342 12 13.892V11H14.5C14.7652 11 15.0196 10.8946 15.2071 10.7071C15.3946 10.5196 15.5 10.2652 15.5 10C15.5 9.73478 15.3946 9.48043 15.2071 9.29289C15.0196 9.10536 14.7652 9 14.5 9H12V7.5Z" fill="currentColor"/>
</svg>
