
<svg width="16" height="16" viewBox="0 0 16 16" fill="none" xmlns="http://www.w3.org/2000/svg">
<g clip-path="url(#clip0_213_5339)">
<path fill-rule="evenodd" clip-rule="evenodd" d="M8 2.74999C8.00009 2.60652 7.95903 2.46604 7.88169 2.34521C7.80436 2.22437 7.69398 2.12825 7.56367 2.06825C7.43335 2.00825 7.28856 1.98689 7.14647 2.00669C7.00437 2.0265 6.87094 2.08664 6.762 2.17999L3.472 4.99999H1.75C1.28587 4.99999 0.840752 5.18436 0.512563 5.51255C0.184374 5.84074 0 6.28586 0 6.74999V9.24999C0 10.216 0.784 11 1.75 11H3.473L6.762 13.82C6.87094 13.9133 7.00437 13.9735 7.14647 13.9933C7.28856 14.0131 7.43335 13.9917 7.56367 13.9317C7.69398 13.8717 7.80436 13.7756 7.88169 13.6548C7.95903 13.5339 8.00009 13.3935 8 13.25V2.74999ZM4.238 6.31999L6.5 4.37999V11.62L4.238 9.67999C4.10201 9.5637 3.92893 9.49986 3.75 9.49999H1.75C1.6837 9.49999 1.62011 9.47365 1.57322 9.42677C1.52634 9.37988 1.5 9.31629 1.5 9.24999V6.74999C1.5 6.68369 1.52634 6.6201 1.57322 6.57321C1.62011 6.52633 1.6837 6.49999 1.75 6.49999H3.75C3.92893 6.50012 4.10201 6.43628 4.238 6.31999ZM11.28 5.21999C11.2113 5.1463 11.1285 5.0872 11.0365 5.04621C10.9445 5.00522 10.8452 4.98318 10.7445 4.9814C10.6438 4.97962 10.5438 4.99815 10.4504 5.03587C10.357 5.07359 10.2722 5.12973 10.201 5.20095C10.1297 5.27217 10.0736 5.357 10.0359 5.45039C9.99816 5.54378 9.97963 5.64381 9.98141 5.74451C9.98318 5.84522 10.0052 5.94453 10.0462 6.03653C10.0872 6.12853 10.1463 6.21133 10.22 6.27999L11.94 7.99999L10.22 9.71999C10.1463 9.78865 10.0872 9.87145 10.0462 9.96345C10.0052 10.0555 9.98318 10.1548 9.98141 10.2555C9.97963 10.3562 9.99816 10.4562 10.0359 10.5496C10.0736 10.643 10.1297 10.7278 10.201 10.799C10.2722 10.8703 10.357 10.9264 10.4504 10.9641C10.5438 11.0018 10.6438 11.0204 10.7445 11.0186C10.8452 11.0168 10.9445 10.9948 11.0365 10.9538C11.1285 10.9128 11.2113 10.8537 11.28 10.78L13 9.05999L14.72 10.78C14.7887 10.8537 14.8715 10.9128 14.9635 10.9538C15.0555 10.9948 15.1548 11.0168 15.2555 11.0186C15.3562 11.0204 15.4562 11.0018 15.5496 10.9641C15.643 10.9264 15.7278 10.8703 15.799 10.799C15.8703 10.7278 15.9264 10.643 15.9641 10.5496C16.0018 10.4562 16.0204 10.3562 16.0186 10.2555C16.0168 10.1548 15.9948 10.0555 15.9538 9.96345C15.9128 9.87145 15.8537 9.78865 15.78 9.71999L14.06 7.99999L15.78 6.27999C15.9125 6.13782 15.9846 5.94977 15.9812 5.75547C15.9777 5.56117 15.899 5.37578 15.7616 5.23837C15.6242 5.10096 15.4388 5.02224 15.2445 5.01882C15.0502 5.01539 14.8622 5.08751 14.72 5.21999L13 6.93999L11.28 5.21999Z" fill="currentColor"/>
</g>
<defs>
<clipPath id="clip0_213_5339">
<rect width="16" height="16" fill="white"/>
</clipPath>
</defs>
</svg>
