<svg width="24" height="24" viewBox="0 0 24 24" fill="none" xmlns="http://www.w3.org/2000/svg">
<path fill-rule="evenodd" clip-rule="evenodd" d="M7.81698 2.973C7.92421 2.68723 8.11607 2.44098 8.36694 2.26712C8.61781 2.09327 8.91575 2.00008 9.22098 2H14.778C15.0834 1.99987 15.3815 2.09297 15.6326 2.26684C15.8837 2.44071 16.0757 2.68707 16.183 2.973L22.183 18.973C22.2682 19.2 22.297 19.4443 22.2672 19.6849C22.2373 19.9255 22.1495 20.1552 22.0114 20.3545C21.8733 20.5538 21.6889 20.7166 21.4741 20.829C21.2593 20.9414 21.0204 21.0001 20.778 21H17.221C16.9158 20.9999 16.6178 20.9067 16.3669 20.7329C16.1161 20.559 15.9242 20.3128 15.817 20.027L12 9.848L10.068 15H12.033C12.3384 14.9999 12.6365 15.093 12.8876 15.2668C13.1387 15.4407 13.3307 15.6871 13.438 15.973L14.563 18.973C14.6482 19.2 14.677 19.4443 14.6472 19.6849C14.6173 19.9255 14.5295 20.1552 14.3914 20.3545C14.2533 20.5538 14.0689 20.7166 13.8541 20.829C13.6393 20.9414 13.4004 21.0001 13.158 21H3.22198C2.97961 20.9999 2.74086 20.9412 2.52618 20.8287C2.31149 20.7162 2.12726 20.5533 1.98926 20.3541C1.85126 20.1549 1.76359 19.9251 1.73376 19.6846C1.70393 19.4441 1.73282 19.1999 1.81798 18.973L7.81798 2.973H7.81698ZM9.56698 4L3.94398 19H12.438L11.688 17H8.62498C8.46344 16.9999 8.30432 16.9607 8.16123 16.8858C8.01815 16.8108 7.89535 16.7023 7.80336 16.5695C7.71136 16.4367 7.6529 16.2836 7.63298 16.1233C7.61306 15.963 7.63228 15.8003 7.68898 15.649L11.064 6.649C11.1356 6.45861 11.2635 6.29459 11.4308 6.17881C11.598 6.06303 11.7966 6.001 12 6.001C12.2034 6.001 12.4019 6.06303 12.5692 6.17881C12.7364 6.29459 12.8644 6.45861 12.936 6.649L17.568 19H20.057L14.432 4H9.56798H9.56698Z" fill="currentColor"/>
</svg>
