<svg width="16" height="16" viewBox="0 0 16 16" fill="none" xmlns="http://www.w3.org/2000/svg">
<g clip-path="url(#clip0_213_5373)">
<path fill-rule="evenodd" clip-rule="evenodd" d="M8.49789 14.5C11.3304 14.5 13.4971 12.5193 13.4971 9.99999C13.4971 8.5094 12.7947 7.78768 11.5569 6.55448C10.5387 5.54005 9.27583 4.2663 8.74902 2.14556C8.46086 2.37496 8.17936 2.66028 7.9531 2.99472C7.46604 3.71466 7.24058 4.6329 7.83879 5.8293C8.31231 6.77633 8.50841 8.1129 7.56066 9.06065C6.99612 9.62519 6.03042 10.0224 4.98238 9.58338C4.51163 9.38615 4.12204 9.05719 3.79773 8.64528C3.61652 9.02491 3.50001 9.48831 3.5 10C3.49994 12.5298 5.6636 14.5 8.49789 14.5ZM10.0143 0.499786C9.99819 0.224116 9.77398 0.00214985 9.50695 0.0725069C7.79801 0.52278 4.7625 3.03089 6.49715 6.50013C6.84142 7.18865 6.78164 7.71835 6.5 7.99999C6.03859 8.4614 5.15137 8.49701 4.4261 6.72383C4.31949 6.4632 4.02626 6.31675 3.78436 6.4609C2.68278 7.11732 2.00003 8.53548 2 9.99999C1.99992 13.512 4.99789 16 8.49789 16C11.9979 16 14.9971 13.5 14.9971 9.99999C14.9971 7.86277 13.8699 6.7406 12.6862 5.56218C11.4555 4.33692 10.1637 3.05085 10.0143 0.499786Z" fill="currentColor"/>
</g>
<defs>
<clipPath id="clip0_213_5373">
<rect width="16" height="16" fill="white"/>
</clipPath>
</defs>
</svg>
