<svg width="24" height="24" viewBox="0 0 24 24" fill="none" xmlns="http://www.w3.org/2000/svg">
<path fill-rule="evenodd" clip-rule="evenodd" d="M11.9999 1C12.1782 0.999993 12.3533 1.04764 12.5069 1.13802C12.6606 1.22839 12.7873 1.3582 12.8739 1.514L22.8739 19.514C23.2379 20.17 22.7499 21 21.9999 21H15.6359C15.4655 20.9998 15.298 20.9561 15.1492 20.8729C15.0005 20.7898 14.8754 20.67 14.7859 20.525L10.3789 13.386C9.44529 11.8737 8.93153 10.1399 8.89058 8.36312C8.84963 6.58631 9.28295 4.83069 10.1459 3.277L11.1259 1.514C11.2126 1.3582 11.3393 1.22839 11.493 1.13802C11.6466 1.04764 11.8217 0.999993 11.9999 1ZM11.9999 4.06C10.5619 6.648 10.5039 9.782 12.0799 12.336L16.1949 19H20.3019L11.9999 4.06ZM9.27294 21C9.46526 21 9.65348 20.9445 9.81506 20.8402C9.97663 20.7359 10.1047 20.5872 10.1839 20.412C10.8239 18.6 10.7169 16.642 10.2409 14.8C9.80494 13.113 9.06095 11.202 7.63995 10.083C7.52481 10.0026 7.39416 9.94702 7.25634 9.91993C7.11853 9.89284 6.97657 9.89479 6.83955 9.92566C6.70253 9.95652 6.57346 10.0156 6.46057 10.0992C6.34769 10.1828 6.25347 10.289 6.18395 10.411L1.12595 19.514C0.761945 20.17 1.24995 21 1.99995 21H9.27294ZM8.30395 15.3C7.98595 14.065 7.57695 13.212 7.22795 12.649L3.69895 19H8.51995C8.65295 18.316 8.75894 17.059 8.30395 15.3Z" fill="currentColor"/>
</svg>
