<svg width="24" height="24" viewBox="0 0 24 24" fill="none" xmlns="http://www.w3.org/2000/svg">
<path fill-rule="evenodd" clip-rule="evenodd" d="M5.21996 4.37549C5.31358 4.25855 5.43228 4.16414 5.56729 4.09924C5.70229 4.03433 5.85016 4.00058 5.99996 4.00049H18C18.1498 4.00058 18.2976 4.03433 18.4326 4.09924C18.5676 4.16414 18.6863 4.25855 18.78 4.37549L22.78 9.37549C22.9289 9.5612 23.0067 9.79394 22.9993 10.0319C22.992 10.2698 22.9 10.4973 22.74 10.6735L12.74 21.6735C12.6462 21.7766 12.532 21.859 12.4046 21.9154C12.2771 21.9718 12.1393 22.0009 12 22.0009C11.8606 22.0009 11.7228 21.9718 11.5954 21.9154C11.4679 21.859 11.3537 21.7766 11.26 21.6735L1.25996 10.6735C1.09989 10.4973 1.00793 10.2698 1.0006 10.0319C0.993265 9.79394 1.07105 9.5612 1.21996 9.37549L5.21996 4.37549ZM6.47996 6.00049L4.07996 9.00049H7.51996L9.91996 6.00049H6.47996ZM12 6.60049L10.08 9.00049H13.92L12 6.60049ZM14.572 11.0005H9.42796L12 18.0745L14.572 11.0005ZM9.32596 16.5725L7.29996 11.0005H4.25996L9.32596 16.5725ZM14.674 16.5725L16.7 11.0005H19.74L14.674 16.5725ZM19.92 9.00049H16.482L14.082 6.00049H17.52L19.92 9.00049Z" fill="currentColor"/>
</svg>
