<svg viewBox="0 0 25 25" fill="none" xmlns="http://www.w3.org/2000/svg">
<path fill-rule="evenodd" clip-rule="evenodd" d="M2 0.714844C1.37868 0.714844 0.875 1.21852 0.875 1.83984C0.875 2.46116 1.37868 2.96484 2 2.96484L4.2272 2.96484C4.81454 2.98965 5.21593 3.0876 5.4938 3.26187C5.72614 3.40759 5.98273 3.6753 6.14438 4.30553L7.63547 14.7531C7.84355 16.3134 9.18002 17.4756 10.7543 17.4648H21.3104C22.8184 17.4881 24.1289 16.4293 24.4234 14.949L26.1031 6.56073C26.1693 6.2302 26.0838 5.88742 25.8701 5.62671C25.6564 5.366 25.3371 5.21484 25 5.21484H8.54696L8.36371 3.93089C8.35866 3.89549 8.35192 3.86035 8.34353 3.8256C8.06883 2.68882 7.50563 1.86772 6.68925 1.35573C5.91583 0.870673 5.0412 0.744835 4.29383 0.715698C4.27922 0.715129 4.26461 0.714844 4.25 0.714844H2ZM9.86553 14.4536L8.86808 7.46484H23.6274L22.2166 14.5107C22.134 14.9264 21.7653 15.2232 21.3416 15.215L21.32 15.2148L10.75 15.2148L10.7405 15.2149C10.2984 15.2186 9.92299 14.892 9.86553 14.4536ZM6.875 21.3396C6.875 19.6137 8.27411 18.2146 10 18.2146C11.7259 18.2146 13.125 19.6137 13.125 21.3396C13.125 23.0655 11.7259 24.4646 10 24.4646C8.27411 24.4646 6.875 23.0655 6.875 21.3396ZM10 20.4646C9.51675 20.4646 9.125 20.8563 9.125 21.3396C9.125 21.8228 9.51675 22.2146 10 22.2146C10.4832 22.2146 10.875 21.8228 10.875 21.3396C10.875 20.8563 10.4832 20.4646 10 20.4646ZM18.875 21.3396C18.875 19.6137 20.2741 18.2146 22 18.2146C23.7259 18.2146 25.125 19.6137 25.125 21.3396C25.125 23.0655 23.7259 24.4646 22 24.4646C20.2741 24.4646 18.875 23.0655 18.875 21.3396ZM22 20.4646C21.5168 20.4646 21.125 20.8564 21.125 21.3396C21.125 21.8228 21.5168 22.2146 22 22.2146C22.4832 22.2146 22.875 21.8228 22.875 21.3396C22.875 20.8564 22.4832 20.4646 22 20.4646Z" fill="currentColor"/>
</svg>
