<svg width="16" height="16" viewBox="0 0 16 16" fill="none" xmlns="http://www.w3.org/2000/svg">
<path d="M4.44992 10.468C4.44992 10.5785 4.36007 10.668 4.24923 10.668H3.6055C3.54105 10.668 3.48052 10.6372 3.44279 10.5851L1.34501 7.68959C1.23103 7.53226 0.981614 7.61262 0.981614 7.80666V10.468C0.981614 10.5785 0.891763 10.668 0.780926 10.668H0.200688C0.0898512 10.668 0 10.5785 0 10.468V5.532C0 5.42154 0.0898513 5.332 0.200689 5.332H0.907384C0.971416 5.332 1.0316 5.36245 1.06939 5.41396L3.10561 8.1896C3.22017 8.34576 3.4683 8.265 3.4683 8.07156V5.532C3.4683 5.42154 3.55816 5.332 3.66899 5.332H4.24923C4.36007 5.332 4.44992 5.42154 4.44992 5.532V10.468Z" fill="currentColor"/>
<path d="M8.85192 10.468C8.85192 10.5785 8.76206 10.668 8.65123 10.668H5.5482C5.43737 10.668 5.34751 10.5785 5.34751 10.468V5.532C5.34751 5.42154 5.43737 5.332 5.5482 5.332H8.65123C8.76206 5.332 8.85192 5.42154 8.85192 5.532V6.132C8.85192 6.24246 8.76206 6.332 8.65123 6.332H6.52982C6.41898 6.332 6.32913 6.42154 6.32913 6.532V7.26C6.32913 7.37046 6.41898 7.46 6.52982 7.46H8.60284C8.71368 7.46 8.80353 7.54954 8.80353 7.66V8.26C8.80353 8.37046 8.71368 8.46 8.60284 8.46H6.52982C6.41898 8.46 6.32913 8.54954 6.32913 8.66V9.468C6.32913 9.57846 6.41898 9.668 6.52982 9.668H8.65123C8.76206 9.668 8.85192 9.75754 8.85192 9.868V10.468Z" fill="currentColor"/>
<path d="M14.7792 10.5156C14.7571 10.6051 14.6767 10.668 14.5842 10.668L13.6833 10.668C13.5891 10.668 13.5075 10.6026 13.4873 10.5109L12.91 7.89571C12.8638 7.68614 12.5638 7.68641 12.5179 7.89606L11.9457 10.5106C11.9256 10.6025 11.844 10.668 11.7497 10.668L10.8782 10.668C10.7859 10.668 10.7055 10.6052 10.6834 10.5159L9.462 5.57988C9.4308 5.45381 9.52655 5.332 9.65685 5.33199L10.4832 5.33197C10.5782 5.33197 10.6602 5.39837 10.6796 5.49105L11.2666 8.28973C11.3107 8.49999 11.6111 8.50254 11.6588 8.29306L12.2975 5.48772C12.3182 5.39662 12.3995 5.33197 12.4932 5.33197H12.9398C13.0336 5.33197 13.1149 5.3968 13.1355 5.48805L13.7868 8.3711C13.8332 8.57643 14.1254 8.58024 14.1771 8.37618L14.9107 5.483C14.9333 5.39421 15.0134 5.332 15.1053 5.332H15.7992C15.9294 5.332 16.0251 5.45364 15.9941 5.57965L14.7792 10.5156Z" fill="currentColor"/>
</svg>
