<svg width="34" height="34" viewBox="0 0 34 34" fill="none" xmlns="http://www.w3.org/2000/svg">
<path d="M26.8777 11.9858L5.01802 16.2801C4.46195 16.3893 4.10767 16.9383 4.23729 17.49L6.95601 29.0617C7.07906 29.5854 7.59438 29.9179 8.12227 29.8142L29.982 25.52C30.5381 25.4108 30.8923 24.8617 30.7627 24.31L28.044 12.7384C27.9209 12.2147 27.4056 11.8821 26.8777 11.9858Z" stroke="black"/>
<path fill-rule="evenodd" clip-rule="evenodd" d="M19.4117 6.08C19.4117 6.65962 18.9283 7.15999 18.294 7.15999C17.6598 7.15999 17.1764 6.65962 17.1764 6.08C17.1764 5.50037 17.6598 5 18.294 5C18.9283 5 19.4117 5.50037 19.4117 6.08ZM19.9541 7.37151C19.5662 7.85189 18.9668 8.15999 18.294 8.15999C17.6433 8.15999 17.061 7.87165 16.6726 7.41794L9.67718 15.7613L8.91089 15.1188L16.2045 6.41975C16.186 6.30919 16.1764 6.1957 16.1764 6.08C16.1764 4.93125 17.1245 4 18.294 4C19.4636 4 20.4117 4.93125 20.4117 6.08C20.4117 6.18725 20.4034 6.2926 20.3875 6.39548L26.0562 11.9634L25.3554 12.6768L19.9541 7.37151Z" fill="black"/>
<path d="M20.3901 18.0868L17.5949 18.626L18.0443 20.9553M21.2888 22.7453L18.4937 23.2846L18.0443 20.9553M18.0443 20.9553L20.8395 20.416M14.0846 21.7193L13.6352 19.39L15.1991 19.0883C15.6968 18.9922 16.2004 19.223 16.4526 19.6626C16.5838 19.8912 16.6351 20.157 16.5984 20.4181C16.5278 20.9199 16.1461 21.3215 15.6485 21.4175L14.0846 21.7193ZM14.0846 21.7193L14.5789 24.2815M24.7707 17L25.7145 21.8915L25.6703 21.9L21.7876 17.8171L21.5547 17.8621L22.4984 22.7535M12.687 21.9889C12.9352 23.2753 12.1978 24.4992 11.0401 24.7226C9.88228 24.946 8.74252 24.0842 8.49433 22.7978C8.24614 21.5114 8.9835 20.2874 10.1413 20.0641C11.2991 19.8407 12.4388 20.7025 12.687 21.9889Z" stroke="#E21B25"/>
</svg>
