<svg width="34" height="34" viewBox="0 0 34 34" fill="none" xmlns="http://www.w3.org/2000/svg">
<path d="M23.7722 6.98034C23.7914 6.97645 23.8113 6.98119 23.8267 6.99332L32.1511 13.5549C32.1767 13.5751 32.1839 13.6108 32.1682 13.6394L27.056 22.9245C27.0466 22.9417 27.0301 22.9538 27.0109 22.9577L5.22901 27.3729C5.19293 27.3803 5.15774 27.3569 5.15043 27.3208L1.93827 11.4742C1.93095 11.4381 1.95428 11.4029 1.99036 11.3956L23.7722 6.98034Z" stroke="black"/>
<path d="M12.0346 20.3101L10.7957 20.5734L9.20149 19.0579L8.35427 21.0923L7.12263 21.3541L8.35769 18.4925L6.20105 16.4809L7.43269 16.2191L8.90011 17.64L9.64817 15.7482L10.8944 15.4833L9.74082 18.1909L12.0346 20.3101Z" fill="#E21B25"/>
<path d="M13.6377 19.9693L12.6393 20.1815L11.6084 15.3316L12.6432 15.1116L13.3094 18.2455L14.8951 14.6329L15.9592 14.4068L16.9901 19.2567L15.9552 19.4767L15.2643 16.2264L13.6377 19.9693Z" fill="#E21B25"/>
<path d="M20.2587 18.562L19.2166 18.7835L18.3789 14.8424L16.9578 15.1445L16.7646 14.2356L20.6417 13.4115L20.8349 14.3204L19.421 14.6209L20.2587 18.562Z" fill="#E21B25"/>
<path d="M26.5167 14.875C26.5167 15.8277 25.7444 16.6 24.7917 16.6C23.839 16.6 23.0667 15.8277 23.0667 14.875C23.0667 13.9223 23.839 13.15 24.7917 13.15C25.7444 13.15 26.5167 13.9223 26.5167 14.875Z" stroke="black" stroke-width="0.8"/>
</svg>
