<svg width="24" height="24" viewBox="0 0 24 24" fill="none" xmlns="http://www.w3.org/2000/svg">
<path fill-rule="evenodd" clip-rule="evenodd" d="M5.427 6.61L7.402 10.034C7.78717 9.13364 8.42822 8.36618 9.24559 7.82684C10.063 7.28749 11.0207 6.99999 12 7H12.002L18.876 7.002C18.088 5.91657 17.0541 5.0333 15.8589 4.42458C14.6637 3.81586 13.3413 3.49901 12 3.5C10.7423 3.4986 9.50011 3.77692 8.36328 4.3148C7.22645 4.85269 6.22347 5.63669 5.427 6.61ZM19.957 9.002L16 9C16.627 9.835 16.999 10.874 16.999 11.999C16.999 12.909 16.755 13.764 16.329 14.501V14.502L12.896 20.452C14.1877 20.3152 15.4309 19.8843 16.5302 19.1922C17.6294 18.5001 18.5554 17.5654 19.2371 16.4597C19.9188 15.354 20.3381 14.1068 20.4627 12.8138C20.5873 11.5209 20.414 10.2165 19.956 9.001L19.957 9.002ZM10.624 20.39L12.6 16.964C11.6275 17.0821 10.6417 16.9118 9.76523 16.4742C8.88872 16.0367 8.16013 15.3512 7.67 14.503L7.662 14.489L4.232 8.542C3.70357 9.72981 3.45454 11.023 3.50405 12.3221C3.55357 13.6212 3.90031 14.8916 4.51763 16.0358C5.13494 17.1799 6.00639 18.1673 7.06498 18.9219C8.12357 19.6766 9.34111 20.1785 10.624 20.389V20.39ZM9.402 13.5C9.66514 13.9562 10.0438 14.335 10.4999 14.5983C10.956 14.8617 11.4734 15.0002 12 15C12.394 15.0003 12.7843 14.9228 13.1484 14.7722C13.5125 14.6215 13.8433 14.4005 14.1219 14.1219C14.4005 13.8433 14.6215 13.5125 14.7722 13.1484C14.9228 12.7843 15.0003 12.394 15 12C15 11.2047 14.6842 10.4419 14.122 9.87939C13.5599 9.31684 12.7973 9.00053 12.002 9H12C11.4742 8.99987 10.9576 9.13793 10.502 9.40035C10.0464 9.66277 9.6677 10.0403 9.40396 10.4952C9.14022 10.95 9.00066 11.4662 8.99926 11.992C8.99786 12.5178 9.13468 13.0347 9.396 13.491L9.401 13.501L9.402 13.5ZM3.412 5.96C4.38018 4.58165 5.66608 3.45675 7.16093 2.68043C8.65577 1.90411 10.3156 1.49922 12 1.5C16.222 1.5 19.86 3.992 21.527 7.58C22.152 8.925 22.5 10.423 22.5 12C22.5 17.799 17.799 22.5 12 22.5C11.688 22.5 11.378 22.486 11.072 22.46C5.707 21.99 1.5 17.486 1.5 12C1.5 9.753 2.207 7.667 3.411 5.959L3.412 5.96Z" fill="currentColor"/>
</svg>
