<svg width="34" height="34" viewBox="0 0 34 34" fill="none" xmlns="http://www.w3.org/2000/svg">
<path d="M14.8711 4.29298C16.002 3.01351 17.998 3.01351 19.1288 4.29298L20.0209 5.30229C20.8048 6.18924 21.9539 6.6652 23.1354 6.59236L24.4799 6.50947C26.1843 6.40438 27.5956 7.81575 27.4906 9.52011L27.4077 10.8646C27.3348 12.0461 27.8108 13.1952 28.6977 13.9791L29.707 14.8712C30.9865 16.0021 30.9865 17.998 29.707 19.1289L28.6977 20.021C27.8108 20.8049 27.3348 21.954 27.4077 23.1355L27.4906 24.48C27.5956 26.1843 26.1843 27.5957 24.4799 27.4906L23.1354 27.4077C21.9539 27.3349 20.8048 27.8108 20.0209 28.6978L19.1288 29.7071C17.998 30.9866 16.002 30.9866 14.8711 29.7071L13.979 28.6978C13.1951 27.8108 12.046 27.3349 10.8645 27.4077L9.52006 27.4906C7.81569 27.5957 6.40432 26.1843 6.5094 24.48L6.5923 23.1355C6.66514 21.954 6.18918 20.8049 5.30223 20.021L4.29292 19.1289C3.01345 17.998 3.01344 16.0021 4.29292 14.8712L5.30223 13.9791C6.18918 13.1952 6.66514 12.0461 6.5923 10.8646L6.50941 9.52012C6.40432 7.81575 7.81569 6.40438 9.52005 6.50947L10.8645 6.59236C12.046 6.6652 13.1951 6.18924 13.979 5.30229L14.8711 4.29298Z" stroke="currentColor"/>
<path d="M13.1079 19.8333H12.0505L9.59602 16.5996V19.8333H8.5V14.875H9.62689L12.0119 17.9898V14.875H13.1079V19.8333Z" fill="#E21B25"/>
<path d="M17.9205 19.8333H14.2774V14.875H17.9205V15.8042H15.3734V16.8524H17.8664V17.7816H15.3734V18.9041H17.9205V19.8333Z" fill="#E21B25"/>
<path d="M24.0335 19.8333H22.868L21.965 16.4287L21.0696 19.8333H19.9041L18.4299 14.875H19.6572L20.5602 18.4581L21.5405 14.875H22.3972L23.3697 18.4581L24.2651 14.875H25.5L24.0335 19.8333Z" fill="#E21B25"/>
</svg>
