<svg width="24" height="24" viewBox="0 0 24 24" fill="none" xmlns="http://www.w3.org/2000/svg">
<path fill-rule="evenodd" clip-rule="evenodd" d="M4 12.0005C4 9.87876 4.84285 7.84392 6.34315 6.34363C7.84344 4.84334 9.87827 4.00049 12 4.00049C14.1217 4.00049 16.1566 4.84334 17.6569 6.34363C19.1571 7.84392 20 9.87876 20 12.0005C20 14.1222 19.1571 16.1571 17.6569 17.6573C16.1566 19.1576 14.1217 20.0005 12 20.0005C9.87827 20.0005 7.84344 19.1576 6.34315 17.6573C4.84285 16.1571 4 14.1222 4 12.0005ZM12 2.00049C6.477 2.00049 2 6.47749 2 12.0005C2 17.5235 6.477 22.0005 12 22.0005C17.523 22.0005 22 17.5235 22 12.0005C22 6.47749 17.523 2.00049 12 2.00049ZM9 11.5005C9.39782 11.5005 9.77936 11.3425 10.0607 11.0611C10.342 10.7798 10.5 10.3983 10.5 10.0005C10.5 9.60266 10.342 9.22113 10.0607 8.93983C9.77936 8.65852 9.39782 8.50049 9 8.50049C8.60218 8.50049 8.22064 8.65852 7.93934 8.93983C7.65804 9.22113 7.5 9.60266 7.5 10.0005C7.5 10.3983 7.65804 10.7798 7.93934 11.0611C8.22064 11.3425 8.60218 11.5005 9 11.5005ZM16.5 10.0005C16.5 10.3983 16.342 10.7798 16.0607 11.0611C15.7794 11.3425 15.3978 11.5005 15 11.5005C14.6022 11.5005 14.2206 11.3425 13.9393 11.0611C13.658 10.7798 13.5 10.3983 13.5 10.0005C13.5 9.60266 13.658 9.22113 13.9393 8.93983C14.2206 8.65852 14.6022 8.50049 15 8.50049C15.3978 8.50049 15.7794 8.65852 16.0607 8.93983C16.342 9.22113 16.5 9.60266 16.5 10.0005ZM9 17.0005C8.73478 17.0005 8.48043 16.8951 8.29289 16.7076C8.10536 16.5201 8 16.2657 8 16.0005C8 15.7353 8.10536 15.4809 8.29289 15.2934C8.48043 15.1058 8.73478 15.0005 9 15.0005H15C15.2652 15.0005 15.5196 15.1058 15.7071 15.2934C15.8946 15.4809 16 15.7353 16 16.0005C16 16.2657 15.8946 16.5201 15.7071 16.7076C15.5196 16.8951 15.2652 17.0005 15 17.0005H9Z" fill="currentColor"/>
</svg>
