<svg width="24" height="24" viewBox="0 0 24 24" fill="none" xmlns="http://www.w3.org/2000/svg">
<path fill-rule="evenodd" clip-rule="evenodd" d="M4.75002 5C4.60875 4.99988 4.46906 5.02969 4.34015 5.08747C4.21123 5.14525 4.09603 5.22969 4.00211 5.33522C3.9082 5.44075 3.83771 5.56499 3.7953 5.69974C3.75288 5.83449 3.73949 5.9767 3.75602 6.117L5.28602 19.117C5.31466 19.3601 5.43145 19.5842 5.61428 19.747C5.7971 19.9097 6.03326 19.9997 6.27802 20H17.726C17.9703 19.9998 18.2061 19.9102 18.3889 19.7481C18.5716 19.586 18.6887 19.3625 18.718 19.12L19.813 10H17.235C16.9942 10 16.7615 10.0869 16.5797 10.2447C16.3978 10.4025 16.279 10.6206 16.245 10.859L15.49 16.141C15.4561 16.3794 15.3372 16.5975 15.1554 16.7553C14.9735 16.9131 14.7408 17 14.5 17H9.50002C9.25924 17 9.02653 16.9131 8.84467 16.7553C8.6628 16.5975 8.54397 16.3794 8.51002 16.141L7.51002 9.141C7.48983 8.9992 7.50033 8.85471 7.54082 8.71731C7.58131 8.57992 7.65084 8.45283 7.74471 8.34464C7.83858 8.23645 7.9546 8.14969 8.08491 8.09023C8.21522 8.03077 8.35679 8 8.50002 8H18.5L20.046 7.994L20.256 6.112C20.2718 5.97226 20.2579 5.83076 20.2152 5.69676C20.1726 5.56275 20.1022 5.43924 20.0085 5.3343C19.9149 5.22936 19.8002 5.14535 19.6719 5.08774C19.5436 5.03014 19.4047 5.00024 19.264 5H4.74902H4.75002ZM21.644 9.195C21.854 8.918 21.992 8.584 22.033 8.217L22.244 6.335C22.2912 5.91543 22.2492 5.49063 22.1209 5.08838C21.9926 4.68614 21.7809 4.3155 21.4995 4.00071C21.2181 3.68593 20.8735 3.43408 20.4881 3.26163C20.1027 3.08919 19.6852 3.00003 19.263 3H4.74902C4.32548 2.99993 3.90672 3.08955 3.5203 3.26295C3.13388 3.43636 2.78855 3.68962 2.50705 4.00608C2.22554 4.32254 2.01423 4.69501 1.88703 5.09901C1.75983 5.503 1.71961 5.92935 1.76902 6.35L3.29902 19.35C3.38479 20.0801 3.73564 20.7533 4.28498 21.2418C4.83431 21.7303 5.5439 22.0001 6.27902 22H17.726C18.4597 21.9998 19.1679 21.7308 19.7167 21.2438C20.2655 20.7567 20.6167 20.0855 20.704 19.357L21.799 10.238C21.8422 9.88272 21.7887 9.52236 21.644 9.195ZM14.406 10H9.65302L10.367 15H13.633L14.265 10.576C14.293 10.376 14.341 10.184 14.405 10H14.406Z" fill="currentColor"/>
</svg>
