<svg width="16" height="16" viewBox="0 0 16 16" fill="none" xmlns="http://www.w3.org/2000/svg">
<path fill-rule="evenodd" clip-rule="evenodd" d="M7.77494 3.275C7.64246 3.41717 7.57033 3.60522 7.57376 3.79952C7.57719 3.99382 7.6559 4.1792 7.79331 4.31662C7.93073 4.45403 8.11611 4.53274 8.31041 4.53617C8.50471 4.5396 8.69276 4.46748 8.83494 4.335L10.0849 3.085C10.2707 2.89918 10.4913 2.75177 10.7341 2.65121C10.9769 2.55064 11.2371 2.49888 11.4999 2.49888C11.7627 2.49888 12.0229 2.55064 12.2657 2.65121C12.5085 2.75177 12.7291 2.89918 12.9149 3.085C13.1007 3.27082 13.2481 3.49142 13.3487 3.7342C13.4492 3.97699 13.501 4.23721 13.501 4.5C13.501 4.76279 13.4492 5.023 13.3487 5.26579C13.2481 5.50857 13.1007 5.72917 12.9149 5.915L10.4149 8.415C10.2291 8.60095 10.0086 8.74847 9.76582 8.84911C9.52302 8.94976 9.26277 9.00157 8.99994 9.00157C8.7371 9.00157 8.47685 8.94976 8.23405 8.84911C7.99126 8.74847 7.77068 8.60095 7.58494 8.415C7.44276 8.28252 7.25471 8.21039 7.06041 8.21382C6.86611 8.21725 6.68073 8.29596 6.54331 8.43337C6.4059 8.57079 6.32719 8.75617 6.32376 8.95047C6.32033 9.14477 6.39246 9.33282 6.52494 9.475C6.84995 9.80004 7.2358 10.0579 7.66046 10.2338C8.08512 10.4097 8.54028 10.5002 8.99994 10.5002C9.45959 10.5002 9.91475 10.4097 10.3394 10.2338C10.764 10.0579 11.1499 9.80004 11.4749 9.475L13.9749 6.975C14.6313 6.31858 15.0001 5.4283 15.0001 4.5C15.0001 3.57169 14.6313 2.68141 13.9749 2.025C13.3185 1.36858 12.4282 0.999817 11.4999 0.999817C10.5716 0.999817 9.68135 1.36858 9.02493 2.025L7.77494 3.275ZM3.08494 12.915C2.89898 12.7292 2.75146 12.5087 2.65082 12.2659C2.55017 12.0231 2.49836 11.7628 2.49836 11.5C2.49836 11.2372 2.55017 10.9769 2.65082 10.7341C2.75146 10.4913 2.89898 10.2707 3.08494 10.085L5.58494 7.585C5.77068 7.39904 5.99126 7.25152 6.23405 7.15088C6.47685 7.05023 6.7371 6.99842 6.99994 6.99842C7.26277 6.99842 7.52302 7.05023 7.76582 7.15088C8.00861 7.25152 8.22919 7.39904 8.41494 7.585C8.55711 7.71748 8.74516 7.7896 8.93946 7.78617C9.13376 7.78274 9.31914 7.70403 9.45656 7.56662C9.59397 7.4292 9.67268 7.24382 9.67611 7.04952C9.67954 6.85522 9.60742 6.66717 9.47494 6.525C9.14993 6.19995 8.76407 5.94211 8.33941 5.7662C7.91475 5.59029 7.45959 5.49974 6.99994 5.49974C6.54028 5.49974 6.08512 5.59029 5.66046 5.7662C5.2358 5.94211 4.84995 6.19995 4.52494 6.525L2.02494 9.02499C1.36852 9.68141 0.999756 10.5717 0.999756 11.5C0.999756 12.4283 1.36852 13.3186 2.02494 13.975C2.68135 14.6314 3.57163 15.0002 4.49994 15.0002C5.42824 15.0002 6.31852 14.6314 6.97494 13.975L8.22494 12.725C8.35742 12.5828 8.42954 12.3948 8.42611 12.2005C8.42268 12.0062 8.34397 11.8208 8.20656 11.6834C8.06914 11.546 7.88376 11.4672 7.68946 11.4638C7.49516 11.4604 7.30711 11.5325 7.16494 11.665L5.91494 12.915C5.72919 13.1009 5.50861 13.2485 5.26582 13.3491C5.02302 13.4498 4.76277 13.5016 4.49994 13.5016C4.2371 13.5016 3.97685 13.4498 3.73405 13.3491C3.49126 13.2485 3.27068 13.1009 3.08494 12.915Z" fill="currentColor"/>
</svg>
