<svg viewBox="0 0 22 22" fill="none" xmlns="http://www.w3.org/2000/svg">
<path fill-rule="evenodd" clip-rule="evenodd" d="M16.2501 9.5001C16.2501 10.3865 16.0755 11.2643 15.7362 12.0832C15.3971 12.9022 14.8998 13.6463 14.2731 14.2731C13.6463 14.8998 12.9022 15.397 12.0832 15.7363C11.2643 16.0755 10.3865 16.2501 9.5001 16.2501C8.61367 16.2501 7.73593 16.0755 6.91698 15.7363C6.09804 15.397 5.35392 14.8998 4.72713 14.2731C4.10032 13.6463 3.60313 12.9022 3.26391 12.0832C2.92468 11.2643 2.7501 10.3865 2.7501 9.5001C2.7501 7.70988 3.46125 5.99299 4.72713 4.72713C5.99299 3.46125 7.70988 2.7501 9.5001 2.7501C11.2903 2.7501 13.0072 3.46125 14.2731 4.72713C15.539 5.99299 16.2501 7.70988 16.2501 9.5001ZM15.0201 16.6101C13.2117 18.0141 10.9362 18.676 8.6568 18.4612C6.37744 18.2466 4.26561 17.1712 2.75122 15.4542C1.23682 13.7372 0.433722 11.5075 0.505392 9.21922C0.577077 6.9309 1.51815 4.7559 3.13702 3.13702C4.75591 1.51815 6.9309 0.577077 9.21922 0.505392C11.5075 0.433718 13.7372 1.23682 15.4542 2.75122C17.1713 4.26561 18.2466 6.37744 18.4613 8.6568C18.6761 10.9361 18.0141 13.2117 16.6101 15.0201L21.1701 19.5801C21.2807 19.6831 21.3693 19.8073 21.4308 19.9453C21.4923 20.0833 21.5253 20.2323 21.528 20.3833C21.5307 20.5344 21.5028 20.6844 21.4463 20.8245C21.3897 20.9646 21.3054 21.0918 21.1986 21.1986C21.0918 21.3055 20.9646 21.3897 20.8245 21.4462C20.6844 21.5028 20.5344 21.5307 20.3834 21.528C20.2323 21.5253 20.0832 21.4923 19.9454 21.4308C19.8074 21.3693 19.6832 21.2806 19.5801 21.1701L15.0201 16.6101Z" fill="currentColor"/>
</svg>
