
<svg width="24" height="24" viewBox="0 0 24 24" fill="none" xmlns="http://www.w3.org/2000/svg">
<path fill-rule="evenodd" clip-rule="evenodd" d="M4.00098 5.00049C4.00098 4.73527 4.10633 4.48092 4.29387 4.29338C4.48141 4.10585 4.73576 4.00049 5.00098 4.00049C13.285 4.00049 20.001 10.7165 20.001 19.0005C20.001 19.2657 19.8956 19.5201 19.7081 19.7076C19.5205 19.8951 19.2662 20.0005 19.001 20.0005C18.7358 20.0005 18.4814 19.8951 18.2939 19.7076C18.1063 19.5201 18.001 19.2657 18.001 19.0005C18.001 11.8205 12.181 6.00049 5.00098 6.00049C4.73576 6.00049 4.48141 5.89513 4.29387 5.70759C4.10633 5.52006 4.00098 5.2657 4.00098 5.00049ZM4.00098 10.0005C4.00098 9.73527 4.10633 9.48092 4.29387 9.29338C4.48141 9.10585 4.73576 9.00049 5.00098 9.00049C10.524 9.00049 15.001 13.4775 15.001 19.0005C15.001 19.2657 14.8956 19.5201 14.7081 19.7076C14.5205 19.8951 14.2662 20.0005 14.001 20.0005C13.7358 20.0005 13.4814 19.8951 13.2939 19.7076C13.1063 19.5201 13.001 19.2657 13.001 19.0005C13.001 16.8788 12.1581 14.8439 10.6578 13.3436C9.15754 11.8433 7.12271 11.0005 5.00098 11.0005C4.73576 11.0005 4.48141 10.8951 4.29387 10.7076C4.10633 10.5201 4.00098 10.2657 4.00098 10.0005ZM6.50098 20.0005C7.16402 20.0005 7.7999 19.7371 8.26874 19.2683C8.73758 18.7994 9.00098 18.1635 9.00098 17.5005C9.00098 16.8374 8.73758 16.2016 8.26874 15.7327C7.7999 15.2639 7.16402 15.0005 6.50098 15.0005C5.83794 15.0005 5.20205 15.2639 4.73321 15.7327C4.26437 16.2016 4.00098 16.8374 4.00098 17.5005C4.00098 18.1635 4.26437 18.7994 4.73321 19.2683C5.20205 19.7371 5.83794 20.0005 6.50098 20.0005Z" fill="currentColor"/>
</svg>
