<svg width="16" height="16" viewBox="0 0 16 16" fill="none" xmlns="http://www.w3.org/2000/svg">
<g clip-path="url(#clip0_213_5407)">
<path d="M1.5 8C1.5 4.41015 4.41015 1.5 8 1.5C8.87407 1.5 9.70607 1.67212 10.4653 1.98361C10.8486 2.14083 11.2867 1.95762 11.4439 1.5744C11.6011 1.19118 11.4179 0.753074 11.0347 0.595858C10.0979 0.211531 9.0727 0 8 0C3.58172 0 0 3.58172 0 8C0 12.4183 3.58172 16 8 16C12.4183 16 16 12.4183 16 8C16 6.9273 15.7885 5.90214 15.4041 4.96533C15.2469 4.58212 14.8088 4.39891 14.4256 4.55612C14.0424 4.71334 13.8592 5.15145 14.0164 5.53467C14.3279 6.29394 14.5 7.12593 14.5 8C14.5 11.5899 11.5899 14.5 8 14.5C4.41015 14.5 1.5 11.5899 1.5 8Z" fill="currentColor"/>
<path d="M14.2803 2.78033C14.5732 2.48744 14.5732 2.01256 14.2803 1.71967C13.9874 1.42678 13.5126 1.42678 13.2197 1.71967L9.15639 5.78295C8.81058 5.60221 8.41723 5.5 8 5.5C6.61929 5.5 5.5 6.61929 5.5 8C5.5 9.38071 6.61929 10.5 8 10.5C9.38071 10.5 10.5 9.38071 10.5 8C10.5 7.58277 10.3978 7.18942 10.2171 6.84361L14.2803 2.78033Z" fill="currentColor"/>
</g>
<defs>
<clipPath id="clip0_213_5407">
<rect width="16" height="16" fill="white"/>
</clipPath>
</defs>
</svg>
