<svg width="16" height="16" viewBox="0 0 16 16" fill="none" xmlns="http://www.w3.org/2000/svg">
<path fill-rule="evenodd" clip-rule="evenodd" d="M4.9999 5.7816V2.5H4.74988C4.33567 2.5 3.99988 2.16421 3.99988 1.75C3.99988 1.33579 4.33567 1 4.74988 1H5.7499H10.2499H11.2499C11.6641 1 11.9999 1.33579 11.9999 1.75C11.9999 2.16421 11.6641 2.5 11.2499 2.5H10.9999V5.7816L14.6657 11.542C15.6188 13.0399 14.5429 15 12.7674 15H3.23241C1.45696 15 0.380976 13.0399 1.33417 11.542L4.9999 5.7816ZM9.4999 2.5H6.4999V6C6.4999 6.14264 6.45923 6.28232 6.38265 6.40266L4.72979 9H11.27L9.61716 6.40266C9.54058 6.28232 9.4999 6.14264 9.4999 6V2.5ZM2.59967 12.3473L3.77525 10.5H12.2246L13.4002 12.3473C13.7179 12.8466 13.3592 13.5 12.7674 13.5H3.23241C2.64059 13.5 2.28193 12.8466 2.59967 12.3473Z" fill="currentColor"/>
</svg>
