<svg width="16" height="20" viewBox="0 0 16 20" fill="none" xmlns="http://www.w3.org/2000/svg">
<path fill-rule="evenodd" clip-rule="evenodd" d="M4.71014 4.70998C5.74278 4.23883 6.86511 3.99663 8.00014 3.99998C9.5824 3.99998 11.1291 4.46917 12.4447 5.34822C13.7603 6.22727 14.7857 7.4767 15.3912 8.93851C15.9967 10.4003 16.1551 12.0089 15.8464 13.5607C15.5377 15.1125 14.7758 16.538 13.657 17.6568C12.5382 18.7757 11.1127 19.5376 9.56087 19.8463C8.00902 20.1549 6.40049 19.9965 4.93868 19.391C3.47687 18.7855 2.22744 17.7601 1.34839 16.4445C0.469336 15.1289 0.000144588 13.5822 0.000144588 12C-0.00905967 10.4772 0.421509 8.98406 1.24014 7.69998L1.31014 7.59998C0.754262 6.48494 0.360294 5.29629 0.140145 4.06998C0.0701446 3.59998 0.200145 2.06998 0.730145 3.21998C0.876985 3.53859 1.23722 4.20263 1.69601 5.04834C2.89315 7.25509 4.76131 10.6988 5.26014 12.47C5.50014 13.41 5.24014 14.21 4.93014 13.47C4.77979 13.1111 4.40593 12.5733 3.9284 11.8865C3.42139 11.1573 2.79751 10.2599 2.20014 9.22998C2.13014 9.27998 2.13014 9.35998 2.13014 9.35998C1.74873 10.202 1.55101 11.1156 1.55014 12.04C1.56075 13.5001 2.07265 14.9122 3.00014 16.04C3.64967 15.3374 4.4544 14.7963 5.35014 14.46C5.43793 14.4336 5.53185 14.4359 5.61822 14.4666C5.70459 14.4973 5.77887 14.5549 5.83023 14.6308C5.8816 14.7067 5.90735 14.7971 5.90374 14.8887C5.90012 14.9803 5.86733 15.0683 5.81014 15.14C5.24465 15.8146 4.64029 16.4557 4.00014 17.06L4.14014 17.14C5.24955 17.9666 6.59663 18.4121 7.98014 18.41C8.23658 18.4252 8.4937 18.4252 8.75014 18.41H9.00014C8.34783 17.5174 8.03254 16.4228 8.11014 15.32C8.13015 15.01 8.58014 14.95 8.76015 15.21C9.42371 16.0787 9.82296 17.1203 9.91014 18.21C11.3956 17.7507 12.6672 16.7742 13.4943 15.4576C14.3214 14.1411 14.6492 12.5716 14.4181 11.034C14.1871 9.49646 13.4125 8.09265 12.235 7.0773C11.0575 6.06195 9.55498 5.50233 8.00014 5.49998C7.09846 5.50246 6.20802 5.70034 5.39014 6.07998H5.32014C6.43014 8.93998 6.93014 11.75 5.93014 10.94C5.61664 10.6892 5.32741 10.0404 4.84267 8.95306C4.63161 8.47962 4.38348 7.92304 4.08014 7.27998C3.63181 6.37371 3.04196 5.39052 2.48596 4.46376C1.30573 2.49653 0.278024 0.783513 1.08014 0.599977C2.26014 0.329977 3.64014 2.35998 4.71014 4.70998ZM10.3605 9.40001C11.1279 9.90952 11.8596 10.4708 12.5505 11.08C14.1505 12.07 13.1605 14.84 10.5605 14.33C9.47113 14.1688 8.37169 14.0853 7.27049 14.08C6.94049 14.06 6.89049 13.5 7.27049 13.42C8.39641 13.2367 9.54456 13.2367 10.6705 13.42C11.8905 13.54 13.0905 12.15 9.84049 10.42C9.88845 10.5023 9.91936 10.5934 9.93139 10.6879C9.94342 10.7824 9.93631 10.8783 9.91049 10.97C9.81171 11.1924 9.62968 11.3673 9.40347 11.457C9.17725 11.5467 8.92487 11.5442 8.70049 11.45C8.4655 11.3951 8.2615 11.2501 8.13243 11.0462C8.00336 10.8423 7.95957 10.5959 8.01049 10.36C8.05997 10.2253 8.14612 10.1071 8.2592 10.0188C8.37229 9.93042 8.50781 9.87543 8.65049 9.86001C8.47364 9.77962 8.29841 9.70247 8.12609 9.6266C7.86968 9.5137 7.61972 9.40364 7.38049 9.29001C7.32694 9.26242 7.28416 9.21773 7.25894 9.16303C7.23372 9.10833 7.22751 9.04677 7.24131 8.98814C7.2551 8.92951 7.28811 8.87718 7.33507 8.83946C7.38203 8.80175 7.44026 8.78082 7.50049 8.78001C8.48869 8.76518 9.46713 8.97728 10.3605 9.40001Z" fill="currentColor"/>
</svg>
