<svg width="24" height="24" viewBox="0 0 24 24" fill="none" xmlns="http://www.w3.org/2000/svg">
<path fill-rule="evenodd" clip-rule="evenodd" d="M11.072 0.72401C11.4545 0.527334 11.8895 0.457188 12.3143 0.523686C12.7392 0.590184 13.132 0.78989 13.436 1.09401L22.906 10.564C23.0945 10.7525 23.2441 10.9763 23.3461 11.2226C23.4482 11.4689 23.5007 11.7329 23.5007 11.9995C23.5007 12.2661 23.4482 12.5301 23.3461 12.7764C23.2441 13.0227 23.0945 13.2465 22.906 13.435L13.436 22.905C13.2475 23.0937 13.0236 23.2434 12.7772 23.3455C12.5308 23.4476 12.2667 23.5002 12 23.5002C11.7333 23.5002 11.4692 23.4476 11.2228 23.3455C10.9764 23.2434 10.7525 23.0937 10.564 22.905L1.09402 13.435C0.713587 13.0543 0.499878 12.5382 0.499878 12C0.499878 11.4618 0.713587 10.9457 1.09402 10.565L10.564 1.09501C10.716 0.94201 10.888 0.81901 11.072 0.72401ZM12.086 2.57301C11.6079 3.3673 11.4093 4.29874 11.5218 5.21898C11.6343 6.13922 12.0516 6.99535 12.707 7.65101L16.349 11.293C16.5365 11.4805 16.6418 11.7348 16.6418 12C16.6418 12.2652 16.5365 12.5195 16.349 12.707L13.357 15.7C14.0529 16.6683 14.4512 17.8187 14.503 19.01L21.491 12.022C21.4941 12.0193 21.4965 12.0159 21.4981 12.0121C21.4996 12.0082 21.5003 12.0041 21.5 12C21.5001 11.9959 21.4994 11.9919 21.498 11.988C21.4964 11.9842 21.494 11.9808 21.491 11.978L12.086 2.57301ZM11.914 21.427C12.3922 20.6327 12.5908 19.7013 12.4782 18.781C12.3657 17.8608 11.9485 17.0047 11.293 16.349L7.65002 12.707C7.46255 12.5195 7.35724 12.2652 7.35724 12C7.35724 11.7348 7.46255 11.4805 7.65002 11.293L10.643 8.30001C9.94716 7.33165 9.5489 6.18133 9.49702 4.99001L2.51002 11.979C2.50698 11.9818 2.50459 11.9852 2.50302 11.989C2.50137 11.9925 2.50036 11.9962 2.50002 12L2.50202 12.012L2.50902 12.022L11.914 21.427ZM12 9.77201L9.77203 12L12 14.228L14.228 12L12 9.77201Z" fill="currentColor"/>
</svg>
