<svg width="24" height="24" viewBox="0 0 24 24" fill="none" xmlns="http://www.w3.org/2000/svg">
<path fill-rule="evenodd" clip-rule="evenodd" d="M16 5.00049H8V19.0005H16V5.00049ZM6 4.00049C6 3.20484 6.31607 2.44178 6.87868 1.87917C7.44129 1.31656 8.20435 1.00049 9 1.00049H15C15.7956 1.00049 16.5587 1.31656 17.1213 1.87917C17.6839 2.44178 18 3.20484 18 4.00049V20.0005C18 20.7961 17.6839 21.5592 17.1213 22.1218C16.5587 22.6844 15.7956 23.0005 15 23.0005H9C8.20435 23.0005 7.44129 22.6844 6.87868 22.1218C6.31607 21.5592 6 20.7961 6 20.0005V4.00049Z" fill="currentColor"/>
</svg>
