
<svg width="16" height="16" viewBox="0 0 16 16" fill="none" xmlns="http://www.w3.org/2000/svg">
<g clip-path="url(#clip0_213_5478)">
<path fill-rule="evenodd" clip-rule="evenodd" d="M4.75008 2.37C4.01074 2.7968 3.3627 3.36504 2.84296 4.04228C2.32323 4.71952 1.94198 5.4925 1.72097 6.31709C1.27464 7.98241 1.50813 9.75683 2.37008 11.25C3.23203 12.7432 4.65184 13.8328 6.31717 14.2791C7.98249 14.7254 9.75691 14.492 11.2501 13.63C11.4217 13.5386 11.6221 13.5174 11.809 13.5709C11.9959 13.6244 12.1547 13.7484 12.252 13.9168C12.3493 14.0851 12.3774 14.2846 12.3304 14.4733C12.2834 14.6619 12.165 14.825 12.0001 14.928C10.4876 15.8008 8.73103 16.1548 6.99853 15.9359C5.26602 15.7169 3.65274 14.9371 2.40491 13.7155C1.15709 12.4939 0.343254 10.8975 0.0876424 9.16999C-0.16797 7.44252 0.148675 5.67886 0.989246 4.14819C1.82982 2.61753 3.14815 1.40394 4.74301 0.692668C6.33787 -0.0186079 8.12166 -0.188503 9.82211 0.208914C11.5226 0.606331 13.0463 1.54923 14.1607 2.89369C15.2751 4.23816 15.919 5.91034 15.9941 7.655C15.9981 7.68651 16.0001 7.71824 16.0001 7.75V7.854C16.0008 7.91733 16.0008 7.98067 16.0001 8.044V9.25C16.0005 9.84567 15.8074 10.4253 15.4499 10.9018C15.0925 11.3783 14.59 11.7259 14.018 11.8922C13.446 12.0586 12.8355 12.0347 12.2783 11.8242C11.7211 11.6137 11.2472 11.228 10.9281 10.725C10.2934 11.4069 9.44058 11.8459 8.5168 11.9663C7.59301 12.0866 6.6562 11.8807 5.86798 11.3842C5.07977 10.8876 4.48959 10.1315 4.19927 9.24632C3.90896 8.36113 3.93672 7.40236 4.27776 6.53544C4.6188 5.66852 5.25173 4.94783 6.06735 4.4977C6.88298 4.04758 7.83013 3.89625 8.74541 4.06984C9.66068 4.24342 10.4867 4.73103 11.0809 5.44852C11.675 6.16602 12.0002 7.06841 12.0001 8V9.25C12.0001 9.58152 12.1318 9.89946 12.3662 10.1339C12.6006 10.3683 12.9186 10.5 13.2501 10.5C13.5816 10.5 13.8996 10.3683 14.134 10.1339C14.3684 9.89946 14.5001 9.58152 14.5001 9.25V7.867C14.4771 6.73734 14.16 5.63318 13.5801 4.66344C13.0002 3.6937 12.1776 2.89187 11.1933 2.33703C10.209 1.7822 9.09704 1.49352 7.96716 1.49948C6.83728 1.50543 5.72847 1.80582 4.75008 2.371V2.37ZM10.5001 8C10.5001 7.33696 10.2367 6.70108 9.76785 6.23223C9.29901 5.76339 8.66312 5.5 8.00008 5.5C7.33704 5.5 6.70115 5.76339 6.23231 6.23223C5.76347 6.70108 5.50008 7.33696 5.50008 8C5.50008 8.66304 5.76347 9.29893 6.23231 9.76777C6.70115 10.2366 7.33704 10.5 8.00008 10.5C8.66312 10.5 9.29901 10.2366 9.76785 9.76777C10.2367 9.29893 10.5001 8.66304 10.5001 8Z" fill="currentColor"/>
</g>
<defs>
<clipPath id="clip0_213_5478">
<rect width="16" height="16" fill="white"/>
</clipPath>
</defs>
</svg>
