<svg viewBox="0 0 16 16" fill="none" xmlns="http://www.w3.org/2000/svg">
<g clip-path="url(#clip0_1446_64660)">
<path d="M6.5 1.5C6.5 2.32843 7.17157 3 8 3C8.82843 3 9.5 2.32843 9.5 1.5C9.5 0.671573 8.82843 -2.93552e-08 8 -6.55671e-08C7.17157 -1.01779e-07 6.5 0.671573 6.5 1.5Z" fill="currentColor"/>
<path d="M6.5 8C6.5 8.82843 7.17157 9.5 8 9.5C8.82843 9.5 9.5 8.82843 9.5 8C9.5 7.17157 8.82843 6.5 8 6.5C7.17157 6.5 6.5 7.17157 6.5 8Z" fill="currentColor"/>
<path d="M8 16C7.17157 16 6.5 15.3284 6.5 14.5C6.5 13.6716 7.17157 13 8 13C8.82843 13 9.5 13.6716 9.5 14.5C9.5 15.3284 8.82843 16 8 16Z" fill="currentColor"/>
</g>
<defs>
<clipPath id="clip0_1446_64660">
<rect width="16" height="16" fill="white"/>
</clipPath>
</defs>
</svg>
