<svg width="24" height="24" viewBox="0 0 24 24" fill="none" xmlns="http://www.w3.org/2000/svg">
<path fill-rule="evenodd" clip-rule="evenodd" d="M7.84499 4.77548C10.437 4.40848 13.563 4.40848 16.155 4.77548C18.51 5.10948 20.335 6.76148 20.683 8.54148C21.106 10.6965 21.106 13.3045 20.683 15.4595C20.334 17.2395 18.51 18.8915 16.155 19.2255C13.563 19.5925 10.436 19.5925 7.84499 19.2255C5.48999 18.8915 3.66599 17.2395 3.31699 15.4595C2.89399 13.3045 2.89399 10.6965 3.31699 8.54148C3.66599 6.76148 5.48999 5.10948 7.84499 4.77548ZM16.435 2.79548C13.658 2.40248 10.342 2.40248 7.56499 2.79548C4.54999 3.22248 1.89999 5.37348 1.35499 8.15748C0.881994 10.5665 0.881994 13.4345 1.35499 15.8435C1.89999 18.6275 4.54999 20.7785 7.56499 21.2055C10.342 21.5985 13.658 21.5985 16.435 21.2055C19.45 20.7785 22.1 18.6275 22.645 15.8435C23.118 13.4345 23.118 10.5665 22.645 8.15748C22.1 5.37348 19.45 3.22248 16.435 2.79548ZM10.555 7.16848C10.4044 7.068 10.2293 7.01029 10.0485 7.00151C9.86768 6.99273 9.68786 7.0332 9.52823 7.11861C9.3686 7.20402 9.23515 7.33116 9.14212 7.48647C9.04909 7.64179 8.99997 7.81944 8.99999 8.00048V16.0005C8.99997 16.1815 9.04909 16.3592 9.14212 16.5145C9.23515 16.6698 9.3686 16.7969 9.52823 16.8824C9.68786 16.9678 9.86768 17.0082 10.0485 16.9995C10.2293 16.9907 10.4044 16.933 10.555 16.8325L16.555 12.8325C16.692 12.7412 16.8042 12.6174 16.8819 12.4723C16.9596 12.3272 17.0002 12.1651 17.0002 12.0005C17.0002 11.8359 16.9596 11.6738 16.8819 11.5287C16.8042 11.3835 16.692 11.2598 16.555 11.1685L10.555 7.16848ZM14.197 12.0005L11 14.1325V9.86948L14.197 12.0005Z" fill="currentColor"/>
</svg>
