<svg width="24" height="24" viewBox="0 0 24 24" fill="none" xmlns="http://www.w3.org/2000/svg">
<path d="M2.74103 11.5847H9.48671L14.6534 14.7839C14.6534 14.7839 15.95 15.2885 15.2304 16.6111" stroke="currentColor" stroke-miterlimit="10"/>
<path d="M2.74103 16.6895H6.71349L13.1147 20.1053L20.5122 18.3911C20.5122 18.3911 20.5272 16.4729 18.5859 16.4188L14.0138 16.9215L10.6785 15.3746" stroke="currentColor" stroke-miterlimit="10"/>
<path d="M18.2718 10.6528C18.2718 11.6119 17.5148 12.3931 16.5854 12.3931C15.656 12.3931 14.899 11.6119 14.899 10.6528C14.899 9.69372 16.5854 7.21094 16.5854 7.21094C16.5854 7.21094 18.2718 9.69372 18.2718 10.6528Z" stroke="#E21B25" stroke-miterlimit="10"/>
<path d="M12.4106 3.77698L13.1676 5.20013L14.5468 5.98132L13.1676 6.75477L12.4106 8.17792L11.6536 6.75477L10.2745 5.98132L11.6536 5.20013L12.4106 3.77698Z" stroke="#E21B25" stroke-miterlimit="10"/>
</svg>
