<svg width="16" height="16" viewBox="0 0 16 16" fill="none" xmlns="http://www.w3.org/2000/svg">
<g clip-path="url(#clip0_213_5413)">
<path fill-rule="evenodd" clip-rule="evenodd" d="M3.6369 2.291C3.70697 2.20045 3.79685 2.12714 3.89964 2.0767C4.00242 2.02626 4.1154 2.00002 4.2299 2H11.7699C11.8844 2.00002 11.9974 2.02626 12.1002 2.0767C12.2029 2.12714 12.2928 2.20045 12.3629 2.291L15.8429 6.791C15.9561 6.93712 16.0114 7.11991 15.9981 7.30428C15.9848 7.48865 15.9039 7.66162 15.7709 7.79L8.5209 14.79C8.38107 14.925 8.19428 15.0005 7.9999 15.0005C7.80551 15.0005 7.61872 14.925 7.4789 14.79L0.228897 7.79C0.0958943 7.66162 0.0149855 7.48865 0.00169732 7.30428C-0.0115908 7.11991 0.0436779 6.93712 0.156897 6.791L3.6369 2.291ZM4.5979 3.5L1.7539 7.177L7.9999 13.207L14.2459 7.177L11.4019 3.5H4.5979Z" fill="currentColor"/>
</g>
<defs>
<clipPath id="clip0_213_5413">
<rect width="16" height="16" fill="white"/>
</clipPath>
</defs>
</svg>
