<svg width="16" height="16" viewBox="0 0 16 16" fill="none" xmlns="http://www.w3.org/2000/svg">
<path fill-rule="evenodd" clip-rule="evenodd" d="M1.00832 5.3059C1.00278 5.27595 0.99949 5.24545 1.00151 5.21506C1.03542 4.70513 1.63207 4.46027 1.98523 4.83168L4.3542 7.02401C4.57958 7.26105 4.945 7.26105 5.17039 7.02401L7.59228 4.17778C7.81766 3.94074 8.18308 3.94074 8.40846 4.17778L10.8624 7.02402C11.0878 7.26105 11.4532 7.26105 11.6786 7.02401L14.0148 4.83248C14.3679 4.46107 14.9646 4.70593 14.9985 5.21585C15.0005 5.24625 14.9972 5.27675 14.9917 5.30671L14 10.6752C13.7814 11.8832 12.9691 13.2084 11.7895 13C11.7895 13 9.38749 12.6093 8 12.6093C6.61251 12.6093 4.21053 13 4.21053 13C2.9405 13.1953 2.19581 11.8978 2 10.6752L1.00832 5.3059Z" stroke="currentColor" stroke-width="1.5" stroke-linecap="round" stroke-dasharray="2 4"/>
</svg>
