<svg width="100" height="100" viewBox="0 0 100 100" fill="none" xmlns="http://www.w3.org/2000/svg">
<path d="M1.27148 49.665H19.5413C21.4013 49.665 23.2244 50.1838 24.8058 51.1629L43.276 62.5996C43.276 62.5996 48.2686 65.1053 45.3594 70.4527" stroke="currentColor" stroke-width="2" stroke-miterlimit="10"/>
<path d="M1 70.3039H11.1744L37.055 84.1141L66.9633 77.1836C66.9633 77.1836 67.0239 69.4283 59.1753 69.2094L40.6901 71.242L27.205 64.9878" stroke="currentColor" stroke-width="2" stroke-miterlimit="10"/>
<path d="M57.2073 69.5637L44.3271 33.4126L78.2281 21.3342L98.4817 78.1808L64.5808 90.2592L60.4801 78.7497" stroke="currentColor" stroke-width="2"/>
<path d="M59.1506 21.7125L56.2354 13.5303" stroke="#E21B25" stroke-width="2"/>
<path d="M66.2759 10.088L41.5134 18.8112C37.9826 20.0691 36.6769 22.0144 36.6769 26.5364" stroke="#E21B25" stroke-width="2"/>
<rect x="53.4673" y="23.8906" width="12.3754" height="5.74622" transform="rotate(-19.6103 53.4673 23.8906)" stroke="currentColor" stroke-width="2"/>
<path d="M41.3505 41.5631C41.3505 44.1978 39.2709 46.3438 36.7177 46.3438C34.1646 46.3438 32.085 44.1978 32.085 41.5631C32.085 38.9284 36.7177 32.1079 36.7177 32.1079C36.7177 32.1079 41.3505 38.9284 41.3505 41.5631Z" stroke="#E21B25" stroke-width="2" stroke-miterlimit="10"/>
</svg>
