<svg width="25" height="72" viewBox="0 0 25 72" fill="none" xmlns="http://www.w3.org/2000/svg">
<path fill-rule="evenodd" clip-rule="evenodd" d="M22.5234 7.98413L13.493 17.0146L12.4947 16.0163L21.5252 6.98586L22.5234 7.98413Z" fill="#6C7996"/>
<path fill-rule="evenodd" clip-rule="evenodd" d="M3.47462 6.98536L12.5036 16.0145L11.5053 17.0128L2.47634 7.98362L3.47462 6.98536Z" fill="#6C7996"/>
<g opacity="0.6">
<path fill-rule="evenodd" clip-rule="evenodd" d="M22.5234 31.9841L13.493 41.0146L12.4947 40.0163L21.5252 30.9859L22.5234 31.9841Z" fill="#6C7996"/>
<path fill-rule="evenodd" clip-rule="evenodd" d="M3.47462 30.9854L12.5036 40.0145L11.5053 41.0128L2.47634 31.9836L3.47462 30.9854Z" fill="#6C7996"/>
</g>
<g opacity="0.3">
<path fill-rule="evenodd" clip-rule="evenodd" d="M22.5234 55.9841L13.493 65.0146L12.4947 64.0163L21.5252 54.9859L22.5234 55.9841Z" fill="#6C7996"/>
<path fill-rule="evenodd" clip-rule="evenodd" d="M3.47462 54.9854L12.5036 64.0145L11.5053 65.0128L2.47634 55.9836L3.47462 54.9854Z" fill="#6C7996"/>
</g>
</svg>
