<svg width="94" height="94" viewBox="0 0 94 94" fill="none" xmlns="http://www.w3.org/2000/svg">
<path fill-rule="evenodd" clip-rule="evenodd" d="M42.5682 7.62305V9.10032H41.0909L41.0909 25.9412L35.4773 25.9412L35.4773 27.4185H41.0909V25.9412H42.5682L42.5682 9.10032L51.4318 9.10032V25.9412H52.9088V27.4185H58.5225V25.9412L52.9091 25.9412L52.9091 9.10032L51.4318 9.10032V7.62305H42.5682ZM34 52.2367H35.1229L35.1229 53.6252L58.8184 53.6252V52.2368H59.9997L59.9997 27.4186H58.5225V33.032L42.5684 33.032V34.5093L58.5225 34.5093L58.5225 46.6228L42.5684 46.6228V48.1001L58.5225 48.1001V52.1479L35.4773 52.1479L35.4773 27.4185H34L34 52.2367ZM42.5682 34.5094H41.0909L41.0909 46.9185H42.5682L42.5682 34.5094Z" fill="#8712FC"/>
<path d="M23.0734 72.3559L29.0008 62.853L29.9511 63.4457L24.0237 72.9487L23.0734 72.3559ZM35.1506 66.6889L28.204 68.7863L29.4404 76.3273L28.2186 75.5652L27.0297 68.1293L34.0102 65.9776L35.1506 66.6889Z" fill="#112233"/>
<path d="M42.7348 79.0198L43.9459 79.2462L43.3902 82.2187L42.3679 82.0276L42.7442 80.0145L36.5318 78.8532L36.1555 80.8663L35.1332 80.6752L35.6889 77.7027L36.3023 77.8174C36.918 77.5418 37.341 76.9915 37.5712 76.1664L38.9455 71.1658L44.0255 72.1154L42.7348 79.0198ZM41.7125 78.8287L42.8238 72.8837L39.7098 72.3016L38.5935 76.3575C38.3594 77.2036 38.0151 77.7686 37.5605 78.0526L41.7125 78.8287Z" fill="#112233"/>
<path d="M53.4707 75.5506C53.4953 75.8803 53.4927 76.1319 53.4629 76.3053L47.2722 76.7683C47.4186 77.581 47.7543 78.2084 48.2794 78.6504C48.8152 79.0917 49.45 79.2849 50.1839 79.23C51.1625 79.1568 51.8704 78.6814 52.3075 77.8036L53.3446 77.7261C53.1485 78.3932 52.7685 78.9618 52.2046 79.4318C51.64 79.8912 50.9801 80.1492 50.2248 80.2057C49.5228 80.2582 48.8714 80.1304 48.2708 79.8224C47.6808 79.5135 47.1974 79.0576 46.8207 78.4547C46.4441 77.8518 46.2255 77.1461 46.165 76.3377C46.1061 75.5506 46.2181 74.8309 46.5009 74.1786C46.7936 73.515 47.214 72.9861 47.7621 72.5922C48.3094 72.1875 48.9235 71.9598 49.6043 71.9088C50.2744 71.8587 50.8938 71.9889 51.4626 72.2993C52.0411 72.5983 52.5069 73.0341 52.86 73.6067C53.213 74.1793 53.4166 74.8273 53.4707 75.5506ZM49.6771 72.8821C49.2303 72.9155 48.8189 73.064 48.4428 73.3274C48.0766 73.5794 47.7764 73.9281 47.5423 74.3735C47.3181 74.8074 47.1993 75.2923 47.1859 75.8281L52.4033 75.4379C52.2904 74.6441 51.9809 74.0094 51.4747 73.5339C50.9677 73.0477 50.3685 72.8304 49.6771 72.8821Z" fill="#112233"/>
<path d="M56.9823 79.356C56.821 79.4117 56.6392 79.4407 56.4368 79.4428L56.139 78.5808L56.3961 78.492C56.8196 78.3458 57.1003 78.0965 57.2381 77.7441C57.376 77.3918 57.3639 76.8995 57.2019 76.267L55.8911 71.0998L60.8364 69.3917L63.4482 76.9534L62.4652 77.2929L60.1721 70.6538L57.1172 71.7089L58.211 76.0031C58.4469 76.9147 58.4481 77.6535 58.2148 78.2193C57.988 78.7716 57.5772 79.1505 56.9823 79.356Z" fill="#112233"/>
<path d="M67.2937 65.5178L68.2051 64.9236L70.0494 74.2263C70.2179 75.1097 70.2407 75.7697 70.1179 76.2063C70.0099 76.646 69.7771 76.9824 69.4197 77.2154C69.2678 77.3145 69.0703 77.3923 68.8271 77.449L68.3115 76.6583C68.4984 76.6128 68.6544 76.5493 68.7794 76.4678C68.9939 76.328 69.1378 76.1386 69.2113 75.8997C69.2937 75.655 69.2941 75.3236 69.2126 74.9057L68.9802 73.7583L62.0398 68.9434L62.978 68.3317L68.7106 72.3488L67.2937 65.5178Z" fill="#112233"/>
</svg>
