<svg width="273" height="360" viewBox="0 0 273 360" fill="none" xmlns="http://www.w3.org/2000/svg">
<mask id="mask0_1338_95078" style="mask-type:alpha" maskUnits="userSpaceOnUse" x="-25" y="149" width="298" height="211">
<path d="M-24.6203 149.38L272.867 149.38L62.5299 359.317L-24.6203 149.38Z" fill="#D9D9D9"/>
</mask>
<g mask="url(#mask0_1338_95078)">
<path d="M303.58 64.4471L229.549 92.0534L228.853 92.313L228.276 91.8457L166.908 42.1447L153.846 119.938L153.723 120.67L153.029 120.935L79.221 149.129L140.19 199.316L140.763 199.788L140.646 200.521L128.205 278.416L202.236 250.809L202.932 250.55L203.509 251.017L264.877 300.718L277.939 222.924L278.062 222.193L278.756 221.928L352.564 193.734L291.595 143.546L291.022 143.075L291.139 142.342L303.58 64.4471Z" stroke="#FFA900" stroke-width="2.59524"/>
<path d="M303.41 184.631L362.534 156.785L299.054 141.184L297.222 140.734L298.297 139.187L335.551 85.5653L272.76 103.735L270.948 104.259L271.104 102.383L276.504 37.3537L231.228 84.4247L229.922 85.783L229.116 84.0801L201.217 25.0681L185.587 88.4278L185.136 90.2562L183.586 89.1832L129.862 52.0005L148.066 114.672L148.591 116.48L146.711 116.325L81.5582 110.934L128.719 156.124L130.08 157.428L128.374 158.232L69.2491 186.078L132.73 201.679L134.562 202.129L133.487 203.676L96.2329 257.298L159.024 239.128L160.836 238.604L160.68 240.48L155.279 305.509L200.556 258.438L201.862 257.08L202.667 258.783L230.567 317.795L246.197 254.435L246.648 252.607L248.198 253.68L301.922 290.862L283.718 228.191L283.192 226.383L285.072 226.538L350.225 231.929L303.065 186.739L301.704 185.434L303.41 184.631Z" stroke="#DADFEA" stroke-width="2.59524"/>
<path d="M268.822 178.987L303.427 162.688L266.272 153.557L264.44 153.107L265.515 151.56L287.32 120.175L250.568 130.81L248.756 131.334L248.912 129.457L252.073 91.3958L225.573 118.947L224.266 120.305L223.461 118.602L207.132 84.0621L197.983 121.147L197.532 122.975L195.982 121.902L164.537 100.139L175.192 136.821L175.717 138.629L173.837 138.474L135.703 135.319L163.306 161.768L164.667 163.072L162.961 163.876L128.355 180.175L165.511 189.305L167.343 189.756L166.268 191.303L144.463 222.688L181.215 212.053L183.027 211.529L182.871 213.405L179.71 251.467L206.21 223.916L207.517 222.558L208.322 224.261L224.651 258.801L233.8 221.716L234.251 219.888L235.801 220.961L267.246 242.724L256.591 206.042L256.065 204.234L257.945 204.389L296.08 207.544L268.476 181.094L267.115 179.79L268.822 178.987Z" stroke="#8712FC" stroke-width="2.59524"/>
<path d="M247.36 185.603L241.409 176.48L240.763 175.49L241.692 174.756L250.243 168L240.52 163.069L239.464 162.534L239.901 161.435L243.922 151.317L233.031 151.899L231.849 151.962L231.677 150.793L230.09 140.023L220.95 145.962L219.958 146.607L219.223 145.68L212.454 137.145L207.514 146.85L206.977 147.903L205.877 147.468L195.739 143.454L196.322 154.324L196.385 155.504L195.214 155.676L184.423 157.259L190.374 166.382L191.02 167.372L190.092 168.106L181.54 174.862L191.263 179.793L192.319 180.328L191.882 181.427L187.861 191.545L198.752 190.963L199.934 190.9L200.106 192.069L201.693 202.839L210.833 196.9L211.825 196.255L212.56 197.182L219.329 205.717L224.269 196.012L224.806 194.959L225.906 195.394L236.044 199.408L235.461 188.538L235.398 187.358L236.569 187.186L247.36 185.603Z" stroke="#E21B25" stroke-width="2.59524"/>
<path d="M227.04 176.452L225.095 172.304L224.816 171.709L225.131 171.133L227.332 167.114L223.018 165.554L222.399 165.33L222.214 164.7L220.922 160.305L216.766 162.247L216.17 162.525L215.593 162.21L211.566 160.014L210.003 164.32L209.779 164.938L209.148 165.122L204.745 166.411L206.69 170.559L206.969 171.154L206.653 171.73L204.453 175.749L208.767 177.31L209.386 177.533L209.571 178.163L210.862 182.558L215.018 180.617L215.614 180.338L216.192 180.653L220.218 182.849L221.781 178.543L222.006 177.926L222.637 177.741L227.04 176.452Z" stroke="#DADFEA" stroke-width="2.59524"/>
<path d="M129.039 277.406L182.825 211.783" stroke="#8712FC" stroke-width="2.59524"/>
<rect x="1.42173" y="1.16085" width="23.8289" height="23.8289" transform="matrix(0.0996691 0.994081 0.995978 -0.0994789 98.4012 285.311)" stroke="#8712FC" stroke-width="2.59524"/>
<path d="M344.197 122.998L264.743 152.987" stroke="#8712FC" stroke-width="2.59524"/>
<path d="M87.5859 219.864L167.04 189.875" stroke="#8712FC" stroke-width="2.59524"/>
<rect x="0.649722" y="1.71484" width="23.8289" height="23.8289" transform="matrix(-0.411673 0.910639 0.912377 0.410889 56.2686 211.896)" stroke="#8712FC" stroke-width="2.59524"/>
<path d="M351.27 193.518L267.437 179.838" stroke="#8712FC" stroke-width="2.59524"/>
<path d="M80.5117 149.346L164.344 163.026" stroke="#8712FC" stroke-width="2.59524"/>
<rect x="-0.29638" y="1.80934" width="23.8289" height="23.8289" transform="matrix(-0.812708 0.583192 0.584305 0.81116 56.5579 127.292)" stroke="#8712FC" stroke-width="2.59524"/>
<path d="M322.068 258.118L256.32 204.435" stroke="#8712FC" stroke-width="2.59524"/>
<path d="M264.416 299.492L234.37 220.189" stroke="#8712FC" stroke-width="2.59524"/>
<rect x="1.71811" y="-0.648485" width="23.8289" height="23.8289" transform="matrix(0.912377 0.410889 0.411673 -0.910639 256.431 328.159)" stroke="#8712FC" stroke-width="2.59524"/>
<path d="M193.762 306.553L207.468 222.88" stroke="#8712FC" stroke-width="2.59524"/>
<rect x="1.81279" y="0.295816" width="23.8289" height="23.8289" transform="matrix(0.584305 0.81116 0.812708 -0.583192 171.664 327.867)" stroke="#8712FC" stroke-width="2.59524"/>
<path d="M43.2683 285.121L52.9411 298.549L59.7561 283.474L43.2683 285.121Z" stroke="#DADFEA" stroke-width="2.59524"/>
<path d="M9.44204 183.741L11.092 200.198L24.5459 190.543L9.44204 183.741Z" stroke="#DADFEA" stroke-width="2.59524"/>
<path d="M123.348 356.038L138.452 362.84L136.802 346.383L123.348 356.038Z" stroke="#DADFEA" stroke-width="2.59524"/>
</g>
</svg>
