<svg width="152" height="31" viewBox="0 0 152 31" fill="none" xmlns="http://www.w3.org/2000/svg">
<path d="M2 28.23C1.37751 27.6306 0.880195 26.9135 0.536879 26.1205C0.193564 25.3274 0.0110778 24.4741 0 23.61H2.11C2.12087 24.2258 2.25475 24.8332 2.50376 25.3964C2.75277 25.9597 3.11189 26.4675 3.56 26.89C4.55179 27.7016 5.81011 28.1151 7.09 28.05C8.31641 28.1402 9.53424 27.7852 10.52 27.05C10.9131 26.7244 11.2276 26.3142 11.44 25.85C11.6501 25.3823 11.7493 24.8724 11.73 24.36C11.7647 23.5863 11.5037 22.8284 11 22.24C10.5401 21.7187 9.97862 21.2968 9.35 21C8.45 20.6 7.53 20.24 6.6 19.93C5.50587 19.5874 4.43667 19.1697 3.4 18.68C2.58962 18.2826 1.88399 17.7002 1.34 16.98C0.727074 16.1121 0.430557 15.0602 0.5 14C0.488569 13.0034 0.755219 12.0234 1.27 11.17C1.79792 10.3074 2.56118 9.61358 3.47 9.17001C4.53413 8.67646 5.69729 8.43357 6.87 8.46001C8.07044 8.42962 9.25851 8.70856 10.32 9.27001C11.2745 9.77874 12.0677 10.5442 12.61 11.48C13.1605 12.4634 13.469 13.5637 13.51 14.69H11.4C11.3757 13.5095 10.8955 12.3843 10.06 11.55C9.63166 11.1519 9.12762 10.8441 8.57787 10.6448C8.02813 10.4456 7.44392 10.3589 6.86 10.39C5.72828 10.3199 4.61141 10.6767 3.73 11.39C3.36312 11.7102 3.06976 12.1059 2.87 12.55C2.67176 13.0068 2.57945 13.5025 2.6 14C2.55657 14.7265 2.79271 15.4421 3.26 16C3.70913 16.5075 4.26145 16.9132 4.88 17.19C5.76238 17.5691 6.66355 17.9029 7.58 18.19C8.69883 18.5229 9.79176 18.9373 10.85 19.43C11.7065 19.8398 12.446 20.4589 13 21.23C13.6123 22.1441 13.9139 23.2311 13.86 24.33C13.891 25.1038 13.748 25.8747 13.4417 26.586C13.1354 27.2973 12.6735 27.9308 12.09 28.44C10.67 29.5528 8.89041 30.1045 7.09 29.99C5.22788 30.0957 3.39913 29.4633 2 28.23Z" fill="#112233"/>
<path d="M21.0002 29.6901H18.9102V8.83008H21.0002V29.6901Z" fill="#112233"/>
<path d="M36.8996 26.5301L44.7696 8.83008H46.6896V29.6901H44.5796V14.0801L37.5796 29.7001H36.1696L29.1696 14.0801V29.7001H27.0996V8.84008H29.0996L36.8996 26.5301Z" fill="#112233"/>
<path d="M64.5691 29.6901L59.5691 20.9001H54.8991V29.6901H52.7891V8.83011H60.1191C61.2866 8.81977 62.4383 9.10166 63.4691 9.65011C64.4324 10.1691 65.2401 10.9354 65.8091 11.8701C66.3784 12.7924 66.6764 13.8563 66.6691 14.9401C66.6891 16.2914 66.2082 17.6023 65.3191 18.6201C64.3935 19.6793 63.1467 20.4063 61.7691 20.6901L66.9991 29.6901H64.5691ZM54.8991 10.7701V19.0001H60.1291C61.3031 19.0485 62.4501 18.6399 63.3291 17.8601C63.7277 17.4951 64.0444 17.0497 64.2582 16.5532C64.4719 16.0567 64.5779 15.5206 64.5691 14.9801C64.5871 14.4225 64.4883 13.8673 64.2791 13.3501C64.0589 12.8419 63.7393 12.3829 63.3391 12.0001C62.9089 11.6005 62.4036 11.2904 61.8525 11.0879C61.3015 10.8853 60.7156 10.7943 60.1291 10.8201L54.8991 10.7701Z" fill="#112233"/>
<path d="M75.0001 29.0001C73.8709 28.3602 72.9533 27.4044 72.3601 26.2501C71.7357 25.0099 71.4168 23.6385 71.4301 22.2501V8.83008H73.5401V22.2101C73.4552 23.7658 73.9788 25.2935 75.0001 26.4701C76.0575 27.4834 77.4655 28.0492 78.9301 28.0492C80.3947 28.0492 81.8027 27.4834 82.8601 26.4701C83.8886 25.2966 84.4195 23.7685 84.3401 22.2101V8.83008H86.4501V22.2101C86.4505 23.6053 86.107 24.9792 85.4501 26.2101C84.8745 27.3676 83.9792 28.3359 82.8701 29.0001C81.6924 29.6727 80.3562 30.018 79.0001 30.0001C77.6007 30.0355 76.2181 29.6899 75.0001 29.0001Z" fill="#112233"/>
<path d="M93.0898 28.23C92.4691 27.6293 91.973 26.912 91.6298 26.1192C91.2866 25.3264 91.1031 24.4738 91.0898 23.61H93.1998C93.2126 24.2264 93.3483 24.8341 93.599 25.3973C93.8497 25.9606 94.2104 26.4681 94.6599 26.89C95.6507 27.7034 96.9097 28.1171 98.1898 28.05C99.4132 28.1406 100.628 27.7854 101.61 27.05C102.006 26.7274 102.321 26.3164 102.53 25.85C102.743 25.383 102.846 24.8732 102.83 24.36C102.863 23.6024 102.618 22.8589 102.14 22.27C101.67 21.7254 101.091 21.2859 100.44 20.98C99.5423 20.5761 98.6244 20.2189 97.6898 19.91C96.5984 19.5691 95.5324 19.1514 94.4998 18.66C93.6876 18.2655 92.9814 17.6827 92.4398 16.96C91.8207 16.1015 91.5137 15.0571 91.5698 14C91.5465 12.9944 91.8181 12.0039 92.3513 11.1509C92.8844 10.2979 93.6557 9.61971 94.5698 9.20003C95.6336 8.70547 96.797 8.46252 97.9698 8.49003C99.1703 8.45965 100.358 8.73859 101.42 9.30004C102.374 9.80632 103.164 10.5726 103.7 11.51C104.25 12.4934 104.559 13.5938 104.6 14.72H102.49C102.473 13.5399 101.996 12.4129 101.16 11.58C100.734 11.1826 100.231 10.8758 99.6827 10.6781C99.1344 10.4805 98.5517 10.3961 97.9698 10.43C96.8356 10.3642 95.7171 10.7204 94.8298 11.43C94.4684 11.7642 94.185 12.1739 93.9998 12.63C93.806 13.0776 93.7138 13.5626 93.7299 14.05C93.6842 14.7532 93.9016 15.4482 94.3398 16C94.7958 16.5174 95.3635 16.9243 95.9998 17.19C96.8698 17.57 97.7698 17.9 98.6698 18.19C99.7875 18.5223 100.88 18.9333 101.94 19.42C102.764 19.8464 103.471 20.4678 104 21.23C104.615 22.1432 104.92 23.2301 104.87 24.33C104.901 25.1038 104.758 25.8748 104.452 26.586C104.145 27.2973 103.683 27.9308 103.1 28.44C101.679 29.5503 99.8999 30.1017 98.0998 29.99C96.2648 30.0756 94.4683 29.4445 93.0898 28.23Z" fill="#112233"/>
<path d="M110.67 28.2301C110.047 27.631 109.549 26.914 109.206 26.1209C108.863 25.3278 108.68 24.4743 108.67 23.6101H110.78C110.791 24.2259 110.925 24.8332 111.174 25.3965C111.423 25.9598 111.782 26.4676 112.23 26.8901C113.241 27.6306 114.456 28.0405 115.709 28.0638C116.962 28.087 118.192 27.7225 119.23 27.0201C119.623 26.6945 119.938 26.2843 120.15 25.8201C120.358 25.3515 120.461 24.8428 120.45 24.3301C120.48 23.5713 120.231 22.8279 119.75 22.2401C119.263 21.705 118.666 21.282 118 21.0001C117.1 20.6001 116.18 20.2401 115.25 19.9301C114.155 19.5892 113.086 19.1715 112.05 18.6801C111.261 18.2758 110.576 17.6939 110.05 16.9801C109.449 16.1402 109.149 15.1217 109.2 14.0901C109.188 13.0935 109.455 12.1135 109.97 11.2601C110.499 10.3947 111.266 9.70021 112.18 9.26009C113.24 8.76635 114.4 8.52341 115.57 8.55009C116.77 8.51971 117.958 8.79865 119.02 9.36009C119.974 9.86638 120.764 10.6327 121.3 11.5701C121.858 12.5511 122.17 13.6524 122.21 14.7801H120.1C120.076 13.5996 119.595 12.4744 118.76 11.6401C118.331 11.243 117.827 10.9358 117.277 10.7365C116.728 10.5373 116.144 10.4501 115.56 10.4801C114.428 10.4099 113.311 10.7668 112.43 11.4801C112.063 11.8003 111.77 12.196 111.57 12.6401C111.376 13.0877 111.284 13.5726 111.3 14.0601C111.262 14.7859 111.497 15.4997 111.96 16.0601C112.409 16.5676 112.961 16.9733 113.58 17.2501C114.46 17.6201 115.35 17.9601 116.25 18.2501C117.372 18.5796 118.468 18.9907 119.53 19.4801C120.378 19.8987 121.11 20.5205 121.66 21.2901C122.276 22.2027 122.582 23.29 122.53 24.3901C122.559 25.1636 122.415 25.9339 122.109 26.6448C121.802 27.3557 121.342 27.9895 120.76 28.5001C119.339 29.611 117.559 30.1593 115.76 30.0401C114.834 30.0906 113.907 29.9566 113.033 29.6459C112.159 29.3352 111.356 28.8539 110.67 28.2301Z" fill="#112233"/>
<path d="M129.649 29.6901H127.539V8.83008H129.649V29.6901Z" fill="#112233"/>
<path d="M151.26 29.6901H149L147 24.3901H137.52L135.52 29.6901H133.35L141.35 8.83008H143.35L151.26 29.6901ZM146.26 22.4501L142.26 11.8101L138.26 22.4501H146.26Z" fill="#112233"/>
<path d="M21.1901 0L23.1301 0.83L21.0201 5.67L19.0801 4.84L21.1901 0Z" fill="#E21B25"/>
</svg>
