<svg width="264" height="53" viewBox="0 0 264 53" fill="none" xmlns="http://www.w3.org/2000/svg">
<path d="M4.191 49.096C3.11393 48.0535 2.25344 46.8065 1.65941 45.4273C1.06538 44.048 0.749636 42.564 0.730469 41.0612H4.38132C4.40014 42.1321 4.63178 43.1884 5.06263 44.168C5.49349 45.1477 6.11486 46.0308 6.89021 46.7655C8.60626 48.177 10.7835 48.8962 12.998 48.7829C15.1201 48.9399 17.2272 48.3224 18.9328 47.0438C19.613 46.4775 20.1572 45.7641 20.5247 44.9569C20.8882 44.1434 21.0599 43.2566 21.0265 42.3655C21.0864 41.0199 20.6349 39.7018 19.7634 38.6786C18.9676 37.772 17.9961 37.0382 16.9084 36.5221C15.3512 35.8264 13.7594 35.2003 12.1502 34.6612C10.2571 34.0653 8.40707 33.339 6.61336 32.4873C5.2112 31.7961 3.99026 30.7834 3.04902 29.5308C1.9885 28.0214 1.47545 26.192 1.5956 24.3482C1.57582 22.615 2.0372 20.9106 2.9279 19.4264C3.84135 17.9263 5.16198 16.7196 6.73448 15.9482C8.57571 15.0898 10.5883 14.6674 12.6174 14.7134C14.6945 14.6605 16.7501 15.1456 18.5868 16.1221C20.2383 17.0068 21.6107 18.3381 22.5491 19.9655C23.5016 21.6758 24.0354 23.5894 24.1063 25.5482H20.4555C20.4135 23.4952 19.5826 21.5382 18.1369 20.0873C17.3958 19.395 16.5236 18.8597 15.5724 18.5131C14.6213 18.1665 13.6104 18.0158 12.6001 18.0699C10.6419 17.9479 8.70942 18.5685 7.18435 19.809C6.54955 20.3659 6.04196 21.0541 5.69632 21.8264C5.35331 22.6208 5.1936 23.4829 5.22915 24.3482C5.15401 25.6116 5.56259 26.8561 6.37113 27.8264C7.14825 28.709 8.1039 29.4145 9.17415 29.896C10.7009 30.5553 12.2602 31.1358 13.8459 31.6351C15.7817 32.2141 17.6728 32.9348 19.5038 33.7916C20.9859 34.5043 22.2653 35.581 23.2239 36.9221C24.2833 38.5118 24.8051 40.4023 24.7119 42.3134C24.7655 43.6591 24.5182 44.9998 23.9882 46.2368C23.4582 47.4738 22.659 48.5757 21.6494 49.4612C19.1924 51.3965 16.1132 52.3559 12.998 52.1569C9.77608 52.3406 6.61185 51.2409 4.191 49.096Z" fill="#112233"/>
<path d="M37.0664 51.6347H33.4502V15.3564H37.0664V51.6347Z" fill="#112233"/>
<path d="M64.5767 46.1391L78.1939 15.3564H81.516V51.6347H77.8651V24.4869L65.7533 51.6521H63.3136L51.2018 24.4869V51.6521H47.6201V15.3738H51.0806L64.5767 46.1391Z" fill="#112233"/>
<path d="M112.452 51.6347L103.801 36.3477H95.7202V51.6347H92.0693V15.3564H104.752C106.772 15.3385 108.765 15.8287 110.549 16.7825C112.215 17.6852 113.613 19.0178 114.597 20.6434C115.582 22.2473 116.098 24.0977 116.085 25.9825C116.12 28.3326 115.288 30.6125 113.75 32.3825C112.148 34.2245 109.991 35.4889 107.607 35.9825L116.656 51.6347H112.452ZM95.7202 18.7303V33.0434H104.769C106.801 33.1276 108.785 32.4169 110.306 31.0608C110.996 30.426 111.544 29.6513 111.914 28.7879C112.284 27.9245 112.467 26.992 112.452 26.0521C112.483 25.0823 112.312 24.1167 111.95 23.2173C111.569 22.3335 111.016 21.5352 110.324 20.8695C109.579 20.1745 108.705 19.6352 107.752 19.2829C106.798 18.9306 105.784 18.7724 104.769 18.8173L95.7202 18.7303Z" fill="#112233"/>
<path d="M130.5 50.4347C128.547 49.3219 126.959 47.6596 125.933 45.6521C124.852 43.4953 124.301 41.1102 124.323 38.6956V15.3564H127.974V38.626C127.827 41.3316 128.733 43.9885 130.5 46.0347C132.33 47.7971 134.766 48.7809 137.3 48.7809C139.835 48.7809 142.271 47.7971 144.1 46.0347C145.88 43.9938 146.799 41.3363 146.661 38.626V15.3564H150.312V38.626C150.313 41.0525 149.718 43.4418 148.582 45.5825C147.586 47.5957 146.037 49.2796 144.118 50.4347C142.08 51.6046 139.768 52.205 137.422 52.1738C135 52.2355 132.608 51.6344 130.5 50.4347Z" fill="#112233"/>
<path d="M161.8 49.0956C160.726 48.0507 159.868 46.8033 159.274 45.4245C158.68 44.0458 158.363 42.563 158.34 41.0608H161.991C162.013 42.1328 162.248 43.1895 162.681 44.1691C163.115 45.1486 163.739 46.0312 164.517 46.7651C166.231 48.1796 168.41 48.8991 170.625 48.7825C172.741 48.9399 174.843 48.3222 176.542 47.0434C177.228 46.4823 177.773 45.7675 178.134 44.9564C178.503 44.1442 178.681 43.2575 178.653 42.3651C178.711 41.0475 178.286 39.7544 177.459 38.7303C176.646 37.7832 175.644 37.0187 174.518 36.4869C172.965 35.7843 171.377 35.1632 169.76 34.626C167.871 34.0331 166.027 33.3066 164.24 32.4521C162.835 31.7659 161.613 30.7523 160.676 29.4956C159.604 28.0024 159.073 26.186 159.17 24.3477C159.13 22.5988 159.6 20.8763 160.522 19.3928C161.445 17.9093 162.779 16.7298 164.361 15.9999C166.202 15.1398 168.215 14.7173 170.244 14.7651C172.321 14.7123 174.377 15.1974 176.213 16.1738C177.864 17.0543 179.231 18.387 180.158 20.0173C181.111 21.7276 181.645 23.6412 181.716 25.5999H178.065C178.037 23.5474 177.211 21.5875 175.764 20.139C175.026 19.4479 174.156 18.9143 173.208 18.5705C172.259 18.2268 171.251 18.08 170.244 18.139C168.282 18.0245 166.346 18.644 164.811 19.8782C164.186 20.4593 163.695 21.1719 163.375 21.9651C163.04 22.7435 162.88 23.5869 162.908 24.4347C162.829 25.6576 163.205 26.8663 163.963 27.826C164.752 28.7257 165.734 29.4334 166.835 29.8956C168.341 30.5564 169.898 31.1303 171.455 31.6347C173.389 32.2125 175.28 32.9273 177.113 33.7738C178.539 34.5153 179.763 35.596 180.678 36.9217C181.742 38.5098 182.27 40.4 182.183 42.313C182.236 43.6587 181.989 44.9994 181.459 46.2364C180.929 47.4734 180.13 48.5752 179.12 49.4608C176.661 51.3917 173.584 52.3506 170.469 52.1564C167.294 52.3052 164.185 51.2076 161.8 49.0956Z" fill="#112233"/>
<path d="M192.219 49.0957C191.141 48.0538 190.28 46.8069 189.686 45.4276C189.092 44.0482 188.777 42.5639 188.758 41.0609H192.409C192.428 42.1318 192.66 43.1881 193.09 44.1678C193.521 45.1474 194.143 46.0305 194.918 46.7653C196.668 48.0531 198.77 48.766 200.938 48.8064C203.106 48.8469 205.234 48.213 207.03 46.9914C207.71 46.425 208.254 45.7116 208.622 44.9044C208.982 44.0895 209.159 43.2047 209.141 42.3131C209.192 40.9935 208.761 39.7007 207.93 38.6783C207.087 37.7478 206.054 37.012 204.902 36.5218C203.344 35.8261 201.753 35.2001 200.143 34.6609C198.249 34.0681 196.399 33.3416 194.607 32.487C193.241 31.7839 192.056 30.7719 191.146 29.5305C190.106 28.0697 189.588 26.2985 189.675 24.5044C189.656 22.7712 190.117 21.0668 191.008 19.5827C191.923 18.0776 193.25 16.8698 194.832 16.1044C196.667 15.2457 198.674 14.8232 200.697 14.8696C202.774 14.8168 204.83 15.3019 206.667 16.2783C208.317 17.1588 209.685 18.4915 210.612 20.1218C211.576 21.8279 212.117 23.7432 212.186 25.7044H208.535C208.493 23.6514 207.662 21.6944 206.217 20.2435C205.474 19.5529 204.602 19.0186 203.651 18.6721C202.7 18.3257 201.69 18.174 200.68 18.2261C198.722 18.1042 196.789 18.7247 195.264 19.9653C194.629 20.5221 194.122 21.2103 193.776 21.9827C193.441 22.761 193.281 23.6045 193.309 24.4522C193.242 25.7145 193.65 26.9559 194.451 27.9305C195.228 28.813 196.184 29.5186 197.254 30.0001C198.777 30.6435 200.316 31.2348 201.874 31.7392C203.815 32.3123 205.712 33.0273 207.549 33.8783C209.017 34.6063 210.283 35.6877 211.234 37.0261C212.301 38.6133 212.829 40.5043 212.74 42.4174C212.79 43.7627 212.541 45.1023 212.011 46.3387C211.481 47.5751 210.684 48.6773 209.677 49.5653C207.219 51.4973 204.139 52.4508 201.026 52.2435C199.424 52.3314 197.82 52.0984 196.308 51.558C194.796 51.0176 193.406 50.1806 192.219 49.0957Z" fill="#112233"/>
<path d="M225.058 51.6347H221.407V15.3564H225.058V51.6347Z" fill="#112233"/>
<path d="M262.449 51.6347H258.539L255.079 42.4173H238.676L235.215 51.6347H231.46L245.303 15.3564H248.763L262.449 51.6347ZM253.798 39.0434L246.877 20.5391L239.956 39.0434H253.798Z" fill="#112233"/>
<path d="M37.395 0L40.7517 1.44348L37.1009 9.86087L33.7441 8.41739L37.395 0Z" fill="#E21B25"/>
</svg>
