<svg width="94" height="94" viewBox="0 0 94 94" fill="none" xmlns="http://www.w3.org/2000/svg">
<path d="M29.1534 31.8598C28.4232 32.415 27.5879 32.7351 26.6476 32.8202C25.7159 32.8988 24.7942 32.7352 23.8828 32.3294C22.9734 31.9086 22.1926 31.2694 21.5406 30.4118C20.8886 29.5542 20.4848 28.6352 20.329 27.6549C20.1753 26.6596 20.261 25.7235 20.5859 24.8467C20.9194 23.9635 21.4512 23.2442 22.1815 22.6891C22.9117 22.1339 23.747 21.8138 24.6873 21.7287C25.6275 21.6436 26.5524 21.8115 27.4618 22.2322C28.3733 22.638 29.155 23.2697 29.807 24.1274C30.459 24.985 30.8619 25.9115 31.0156 26.9068C31.1713 27.8871 31.0824 28.8189 30.749 29.7022C30.4155 30.5854 29.8837 31.3046 29.1534 31.8598ZM28.524 31.0319C29.1014 30.5929 29.517 30.0291 29.7706 29.3405C30.0263 28.637 30.0865 27.8878 29.9512 27.0929C29.8094 26.2895 29.4641 25.527 28.9154 24.8052C28.3667 24.0834 27.7275 23.5511 26.9978 23.2081C26.2616 22.8566 25.5236 22.7142 24.7837 22.7809C24.0459 22.8326 23.3883 23.078 22.8109 23.517C22.242 23.9495 21.8297 24.5175 21.574 25.2211C21.3203 25.9097 21.2644 26.6557 21.4062 27.459C21.5415 28.2539 21.8835 29.0122 22.4322 29.734C22.9809 30.4558 23.6234 30.9924 24.3596 31.3438C25.0893 31.6868 25.823 31.8324 26.5609 31.7807C27.3007 31.714 27.9551 31.4644 28.524 31.0319Z" fill="#112233"/>
<path d="M36.3079 27.7064L35.3392 28.0848L32.7837 21.5422L30.3842 22.4794L30.0291 21.5703L35.7967 19.3175L36.1518 20.2266L33.7524 21.1638L36.3079 27.7064Z" fill="#112233"/>
<path d="M45.6495 26.0603C44.967 26.0744 44.3341 25.9115 43.751 25.5715C43.1676 25.2209 42.6988 24.7345 42.3445 24.1123C42.0006 23.4793 41.8205 22.7682 41.8041 21.9791C41.7878 21.1899 41.9384 20.4773 42.256 19.8413C42.584 19.1943 43.0323 18.6889 43.6008 18.3251C44.1692 17.9505 44.7947 17.7562 45.4772 17.7421C46.0744 17.7297 46.6211 17.8571 47.1174 18.1242C47.6135 18.3806 48.0263 18.7348 48.3557 19.1868C48.6851 19.6387 48.9087 20.1302 49.0264 20.6612L47.9866 20.6827C47.7925 20.0679 47.4837 19.5836 47.0603 19.2296C46.6369 18.8756 46.1159 18.7051 45.4974 18.7179C45.0068 18.728 44.5564 18.8707 44.146 19.146C43.7356 19.4212 43.4128 19.8066 43.1777 20.3023C42.9424 20.7872 42.8311 21.339 42.8439 21.9575C42.8567 22.5761 42.9909 23.1281 43.2463 23.6135C43.5015 24.0884 43.8399 24.4548 44.2613 24.7128C44.6827 24.9708 45.1387 25.0947 45.6293 25.0845C46.2585 25.0715 46.7721 24.8848 47.17 24.5245C47.5784 24.1533 47.8668 23.6512 48.035 23.0182L49.0748 22.9967C48.9792 23.5321 48.7762 24.0324 48.4657 24.4976C48.1551 24.9522 47.752 25.3232 47.2565 25.6109C46.7717 25.8983 46.2361 26.0481 45.6495 26.0603Z" fill="#112233"/>
<path d="M49.0778 25.8912C48.9119 25.8513 48.7431 25.7777 48.5714 25.6706L48.7848 24.7839L49.0492 24.8475C49.4848 24.9524 49.8555 24.8935 50.1615 24.6709C50.4674 24.4483 50.7224 24.027 50.9265 23.4068L52.6051 18.3472L57.6919 19.5715L55.8198 27.3494L54.8086 27.106L56.4523 20.277L53.3101 19.5207L51.9189 23.728C51.6267 24.6231 51.2298 25.2462 50.7284 25.5973C50.2399 25.9405 49.6897 26.0385 49.0778 25.8912Z" fill="#112233"/>
<path d="M59.8337 29.4601C59.2351 29.1319 58.7679 28.675 58.432 28.0895C58.1013 27.4946 57.9375 26.8392 57.9407 26.1232C57.9584 25.4031 58.157 24.6969 58.5364 24.0048C58.9159 23.3126 59.4018 22.7701 59.9943 22.3772C60.6013 21.9801 61.2419 21.7657 61.9162 21.7339C62.5956 21.6928 63.2346 21.8363 63.8333 22.1644C64.4319 22.4926 64.8966 22.9541 65.2273 23.5491C65.5632 24.1346 65.7223 24.7875 65.7046 25.5076C65.7013 26.2236 65.51 26.9276 65.1306 27.6197C64.7511 28.3119 64.2579 28.8565 63.651 29.2536C63.0585 29.6465 62.4225 29.8635 61.7431 29.9047C61.0688 29.9364 60.4323 29.7882 59.8337 29.4601ZM60.3029 28.6042C60.7332 28.8401 61.1948 28.9411 61.6877 28.9073C62.1807 28.8734 62.6501 28.705 63.096 28.402C63.547 28.0897 63.9212 27.6623 64.2186 27.1198C64.516 26.5773 64.6725 26.0366 64.6881 25.4978C64.7089 24.9496 64.6009 24.4586 64.3644 24.0248C64.1278 23.591 63.7943 23.2562 63.3641 23.0203C62.9338 22.7844 62.4722 22.6834 61.9792 22.7173C61.4863 22.7511 61.0143 22.9242 60.5633 23.2365C60.1174 23.5395 59.7458 23.9622 59.4484 24.5047C59.151 25.0472 58.9919 25.5926 58.9712 26.1408C58.9556 26.6796 59.066 27.1659 59.3026 27.5997C59.5392 28.0335 59.8727 28.3684 60.3029 28.6042Z" fill="#112233"/>
<path d="M69.7642 31.4754C69.9443 31.8306 70.0239 32.2238 70.0031 32.6549C69.9824 33.0859 69.7946 33.4934 69.4398 33.8772C68.9909 34.3629 68.4608 34.6064 67.8495 34.6078C67.2381 34.6092 66.6739 34.371 66.1569 33.8932L63.572 31.504L69.002 25.629L71.3637 27.8119C71.7005 28.1232 71.937 28.4725 72.073 28.8596C72.2162 29.239 72.25 29.6188 72.1744 29.9992C72.1061 30.3718 71.9416 30.699 71.6809 30.981C71.413 31.2709 71.103 31.4491 70.7509 31.5158C70.3987 31.5825 70.0699 31.5691 69.7642 31.4754ZM69.1033 27.0517L67.4525 28.8377L68.98 30.2495C69.309 30.5536 69.6435 30.7102 69.9836 30.7195C70.3236 30.7288 70.6167 30.6002 70.8629 30.3339C71.1163 30.0597 71.2214 29.7574 71.1782 29.427C71.1422 29.0887 70.9598 28.7676 70.6308 28.4635L69.1033 27.0517ZM66.7724 33.133C67.0701 33.4081 67.4037 33.5422 67.7733 33.5352C68.1507 33.5354 68.4697 33.3946 68.7304 33.1126C68.9838 32.8384 69.0955 32.5132 69.0656 32.137C69.0436 31.768 68.8837 31.4459 68.586 31.1708L66.8118 29.5309L64.9982 31.4931L66.7724 33.133Z" fill="#112233"/>
<path fill-rule="evenodd" clip-rule="evenodd" d="M41.0865 49.3658L47.0596 40.3609L52.9484 49.3125C56.107 54.114 58.8442 59.8114 59.6666 65.1083C60.4845 70.3761 59.4025 75.1061 55.119 78.3108C52.746 80.0862 49.9864 81.1467 47.0604 81.1467C43.9915 81.1467 41.1054 79.984 38.6576 78.054C34.5119 74.7852 33.5071 70.089 34.3616 64.8967C35.2208 59.676 37.9519 54.0913 41.0865 49.3658ZM45.6329 39.0688L47.0577 40.0139L48.4896 39.0719L54.5384 48.2666C57.7733 53.1841 60.6665 59.1437 61.5472 64.8163C62.4325 70.5182 61.2906 76.0702 56.2591 79.8346C53.6116 81.8154 50.4608 83.0498 47.0604 83.0498C43.495 83.0498 40.2043 81.697 37.4792 79.5484C32.6131 75.7116 31.5586 70.2089 32.4837 64.5877C33.4041 58.995 36.2914 53.1518 39.5005 48.3138L45.6329 39.0688ZM54.9897 66.8621C54.9639 69.1141 54.0501 71.4429 52.5759 73.2029C51.1022 74.9623 49.1436 76.0715 47.0599 76.0715V77.9746C49.8461 77.9746 52.2997 76.4965 54.0349 74.4249C55.7697 72.3537 56.8615 69.6075 56.8927 66.8838L54.9897 66.8621Z" fill="#8712FC"/>
</svg>
