<svg width="199" height="60" viewBox="0 0 199 60" fill="none" xmlns="http://www.w3.org/2000/svg">
<path d="M3.89759 36.6764C3.08886 35.8976 2.44274 34.9661 1.99671 33.9357C1.55067 32.9054 1.31359 31.7967 1.29919 30.6741H4.0405C4.05463 31.4741 4.22856 32.2632 4.55208 32.995C4.87559 33.7268 5.34216 34.3866 5.92434 34.9355C7.21288 35.9899 8.84768 36.5271 10.5105 36.4425C12.1039 36.5598 13.6861 36.0985 14.9668 35.1433C15.4775 34.7203 15.8861 34.1873 16.162 33.5843C16.435 32.9766 16.5639 32.3142 16.5388 31.6485C16.5838 30.6433 16.2448 29.6586 15.5904 28.8942C14.9928 28.217 14.2634 27.6688 13.4467 27.2832C12.2774 26.7635 11.0822 26.2958 9.87391 25.893C8.45241 25.4479 7.06331 24.9053 5.71647 24.269C4.66363 23.7527 3.74687 22.9961 3.04012 22.0604C2.24381 20.9329 1.85857 19.5662 1.94879 18.1888C1.93394 16.894 2.28037 15.6208 2.94918 14.5121C3.63505 13.3914 4.62667 12.4899 5.80742 11.9137C7.18993 11.2724 8.7011 10.9569 10.2247 10.9912C11.7843 10.9517 13.3278 11.3141 14.7069 12.0436C15.947 12.7045 16.9775 13.699 17.6821 14.9148C18.3973 16.1924 18.7981 17.622 18.8514 19.0852H16.1101C16.0785 17.5516 15.4547 16.0896 14.3691 15.0057C13.8126 14.4886 13.1578 14.0887 12.4436 13.8298C11.7293 13.5708 10.9703 13.4583 10.2117 13.4987C8.74137 13.4075 7.29033 13.8711 6.14521 14.7979C5.66856 15.2139 5.28742 15.728 5.0279 16.3049C4.77034 16.8984 4.65042 17.5424 4.67711 18.1888C4.62069 19.1326 4.92748 20.0623 5.53458 20.7872C6.1181 21.4465 6.83566 21.9736 7.63929 22.3332C8.78567 22.8258 9.95648 23.2594 11.1471 23.6324C12.6007 24.0649 14.0206 24.6034 15.3955 25.2434C16.5083 25.7759 17.469 26.5801 18.1888 27.582C18.9843 28.7696 19.3761 30.1818 19.3061 31.6095C19.3463 32.6148 19.1606 33.6164 18.7627 34.5405C18.3647 35.4646 17.7646 36.2877 17.0065 36.9492C15.1617 38.3949 12.8496 39.1117 10.5105 38.963C8.09125 39.1003 5.71534 38.2787 3.89759 36.6764Z" fill="#112233"/>
<path d="M28.5826 38.5733H25.8673V11.472H28.5826V38.5733Z" fill="#112233"/>
<path d="M49.2391 34.4678L59.4638 11.472H61.9583V38.5733H59.217V18.2928L50.1226 38.5863H48.2907L39.1963 18.2928V38.5863H36.507V11.485H39.1054L49.2391 34.4678Z" fill="#112233"/>
<path d="M85.1873 38.5734L78.6913 27.1534H72.624V38.5734H69.8827V11.4721H79.4058C80.9227 11.4586 82.4189 11.8249 83.7581 12.5374C85.0097 13.2117 86.059 14.2073 86.7983 15.4216C87.5379 16.6198 87.9251 18.0021 87.9156 19.4102C87.9416 21.1658 87.3168 22.8689 86.1617 24.1912C84.9592 25.5673 83.3393 26.5118 81.5495 26.8806L88.3443 38.5734H85.1873ZM72.624 13.9925V24.6849H79.4188C80.9441 24.7478 82.4343 24.2169 83.5762 23.2038C84.0942 22.7296 84.5056 22.1509 84.7834 21.5059C85.0611 20.8609 85.1987 20.1643 85.1873 19.4621C85.2107 18.7377 85.0824 18.0163 84.8105 17.3444C84.5245 16.6842 84.1093 16.0878 83.5892 15.5905C83.0304 15.0714 82.3739 14.6685 81.6579 14.4053C80.942 14.1421 80.1809 14.0239 79.4188 14.0575L72.624 13.9925Z" fill="#112233"/>
<path d="M98.7392 37.6769C97.2723 36.8456 96.0801 35.6037 95.3094 34.1041C94.4982 32.4929 94.0839 30.7111 94.1011 28.9073V11.472H96.8424V28.8553C96.7321 30.8765 97.4124 32.8613 98.7392 34.3899C100.113 35.7064 101.942 36.4414 103.845 36.4414C105.748 36.4414 107.577 35.7064 108.951 34.3899C110.287 32.8653 110.977 30.88 110.874 28.8553V11.472H113.615V28.8553C113.616 30.668 113.169 32.4529 112.316 34.0521C111.568 35.556 110.405 36.814 108.964 37.6769C107.434 38.5508 105.698 38.9994 103.936 38.9761C102.118 39.0221 100.322 38.5731 98.7392 37.6769Z" fill="#112233"/>
<path d="M122.241 36.6764C121.435 35.8959 120.79 34.964 120.345 33.934C119.899 32.9041 119.66 31.7963 119.643 30.6741H122.384C122.401 31.475 122.577 32.2644 122.903 32.9962C123.229 33.7279 123.697 34.3873 124.281 34.9355C125.569 35.9922 127.204 36.5297 128.867 36.4426C130.457 36.5602 132.035 36.0987 133.311 35.1434C133.825 34.7242 134.235 34.1903 134.506 33.5844C134.783 32.9776 134.916 32.3152 134.896 31.6485C134.939 30.6643 134.62 29.6982 133.999 28.9332C133.389 28.2256 132.636 27.6546 131.791 27.2573C130.624 26.7324 129.432 26.2684 128.218 25.8671C126.8 25.4242 125.415 24.8815 124.073 24.2431C123.018 23.7305 122.101 22.9733 121.397 22.0345C120.593 20.919 120.194 19.5621 120.267 18.1888C120.236 16.8823 120.589 15.5955 121.282 14.4873C121.975 13.3791 122.977 12.4979 124.164 11.9527C125.546 11.3101 127.058 10.9945 128.582 11.0303C130.141 10.9908 131.685 11.3532 133.064 12.0826C134.303 12.7404 135.33 13.7359 136.026 14.9538C136.741 16.2315 137.142 17.661 137.195 19.1243H134.454C134.433 17.591 133.813 16.1269 132.726 15.0448C132.172 14.5285 131.519 14.1298 130.807 13.873C130.095 13.6162 129.338 13.5066 128.582 13.5507C127.108 13.4651 125.655 13.9279 124.502 14.8499C124.032 15.284 123.664 15.8163 123.424 16.4089C123.172 16.9904 123.052 17.6205 123.073 18.2538C123.014 19.1674 123.296 20.0703 123.865 20.7872C124.458 21.4594 125.195 21.988 126.022 22.3333C127.152 22.827 128.322 23.2557 129.491 23.6325C130.943 24.0641 132.363 24.5981 133.739 25.2305C134.81 25.7844 135.729 26.5917 136.416 27.5821C137.215 28.7685 137.611 30.1806 137.546 31.6096C137.586 32.6149 137.401 33.6165 137.003 34.5406C136.605 35.4646 136.005 36.2877 135.246 36.9493C133.4 38.3917 131.089 39.1081 128.75 38.963C126.366 39.0742 124.032 38.2542 122.241 36.6764Z" fill="#112233"/>
<path d="M145.081 36.6765C144.272 35.8982 143.626 34.9667 143.18 33.9362C142.733 32.9058 142.497 31.797 142.483 30.6742H145.224C145.238 31.4742 145.412 32.2633 145.736 32.9951C146.059 33.7269 146.526 34.3867 147.108 34.9356C148.422 35.8976 150.001 36.4302 151.629 36.4604C153.257 36.4906 154.854 36.0171 156.203 35.1045C156.713 34.6814 157.122 34.1485 157.398 33.5454C157.668 32.9366 157.801 32.2757 157.788 31.6096C157.826 30.6238 157.503 29.658 156.878 28.8943C156.246 28.1992 155.47 27.6495 154.605 27.2833C153.435 26.7636 152.24 26.2959 151.032 25.8931C149.609 25.4502 148.22 24.9076 146.874 24.2691C145.849 23.7439 144.959 22.9879 144.276 22.0605C143.495 20.9693 143.106 19.6461 143.172 18.3058C143.157 17.0111 143.503 15.7378 144.172 14.6291C144.859 13.5047 145.856 12.6025 147.043 12.0307C148.421 11.3892 149.928 11.0736 151.448 11.1083C153.007 11.0688 154.551 11.4312 155.93 12.1606C157.169 12.8184 158.196 13.814 158.892 15.0318C159.616 16.3064 160.022 17.7372 160.074 19.2023H157.333C157.301 17.6686 156.677 16.2067 155.592 15.1228C155.035 14.6069 154.38 14.2077 153.666 13.9489C152.952 13.6901 152.193 13.5768 151.435 13.6157C149.964 13.5246 148.513 13.9882 147.368 14.9149C146.891 15.3309 146.51 15.845 146.251 16.422C145.999 17.0035 145.879 17.6335 145.9 18.2668C145.85 19.2098 146.156 20.1372 146.757 20.8652C147.341 21.5245 148.058 22.0516 148.862 22.4113C150.005 22.892 151.162 23.3337 152.331 23.7105C153.788 24.1386 155.213 24.6727 156.592 25.3085C157.694 25.8524 158.645 26.6602 159.36 27.6601C160.161 28.8457 160.557 30.2583 160.49 31.6876C160.527 32.6925 160.34 33.6932 159.943 34.6169C159.545 35.5405 158.946 36.364 158.19 37.0273C156.345 38.4706 154.032 39.1829 151.694 39.028C150.491 39.0937 149.287 38.9196 148.152 38.5159C147.017 38.1122 145.973 37.487 145.081 36.6765Z" fill="#112233"/>
<path d="M169.739 38.5733H166.998V11.472H169.739V38.5733Z" fill="#112233"/>
<path d="M197.816 38.5733H194.879L192.281 31.6876H179.965L177.366 38.5733H174.547L184.94 11.472H187.539L197.816 38.5733ZM191.32 29.1671L186.123 15.3436L180.926 29.1671H191.32Z" fill="#112233"/>
<path d="M28.8293 0L31.3498 1.07834L28.6085 7.36646L26.088 6.28812L28.8293 0Z" fill="#E21B25"/>
<path d="M1.77596 59.5571V49.0212H4.45508C5.40832 49.0212 6.27628 49.247 7.05894 49.6985C7.85164 50.1501 8.47375 50.7772 8.92529 51.5799C9.38686 52.3827 9.61765 53.2857 9.61765 54.2891C9.61765 55.2926 9.38686 56.1956 8.92529 56.9984C8.47375 57.8011 7.85164 58.4282 7.05894 58.8798C6.27628 59.3313 5.40832 59.5571 4.45508 59.5571H1.77596ZM4.45508 58.5787C5.1976 58.5787 5.87993 58.3931 6.50204 58.0218C7.13419 57.6506 7.6359 57.1388 8.00717 56.4866C8.37843 55.8344 8.56406 55.1019 8.56406 54.2891C8.56406 53.4764 8.37843 52.7439 8.00717 52.0917C7.6359 51.4394 7.13419 50.9277 6.50204 50.5564C5.87993 50.1852 5.1976 49.9995 4.45508 49.9995H2.82955V58.5787H4.45508ZM14.1826 59.5571H13.129V49.0212H14.1826V59.5571ZM21.2273 59.7076C20.1737 59.7076 19.3309 59.4116 18.6987 58.8196C18.0766 58.2275 17.7404 57.4499 17.6903 56.4866H18.7439C18.794 57.199 19.0348 57.7509 19.4663 58.1423C19.9078 58.5336 20.4998 58.7293 21.2424 58.7293C21.9849 58.7293 22.5568 58.5587 22.9582 58.2175C23.3696 57.8663 23.5753 57.4098 23.5753 56.8478C23.5753 56.4164 23.4599 56.0652 23.2291 55.7943C22.9983 55.5233 22.7124 55.3076 22.3712 55.1471C22.0401 54.9865 21.5835 54.8059 21.0015 54.6052C20.3393 54.3845 19.8025 54.1737 19.3911 53.9731C18.9897 53.7724 18.6485 53.4864 18.3676 53.1151C18.0866 52.7439 17.9461 52.2572 17.9461 51.6552C17.9461 51.1234 18.0716 50.6467 18.3224 50.2253C18.5833 49.8039 18.9546 49.4727 19.4362 49.2319C19.9179 48.9911 20.4848 48.8707 21.137 48.8707C21.7993 48.8707 22.3762 49.0062 22.8679 49.2771C23.3596 49.548 23.7409 49.9243 24.0118 50.4059C24.2827 50.8775 24.4332 51.4144 24.4633 52.0164H23.4097C23.3696 51.3542 23.1438 50.8274 22.7324 50.436C22.3311 50.0447 21.7993 49.849 21.137 49.849C20.4647 49.849 19.9379 50.0196 19.5566 50.3608C19.1854 50.6919 18.9997 51.1234 18.9997 51.6552C18.9997 52.0565 19.1101 52.3877 19.3309 52.6486C19.5516 52.8994 19.8225 53.1001 20.1436 53.2506C20.4647 53.3911 20.9112 53.5566 21.4832 53.7473C22.1555 53.958 22.7023 54.1687 23.1238 54.3794C23.5452 54.5801 23.9014 54.8812 24.1924 55.2825C24.4834 55.6839 24.6289 56.2057 24.6289 56.8478C24.6289 57.7108 24.3329 58.4031 23.7409 58.9249C23.1488 59.4467 22.311 59.7076 21.2273 59.7076ZM31.1337 59.5571H30.0801V49.9995H26.8291V49.0212H34.3848V49.9995H31.1337V59.5571ZM43.3874 59.5571L40.8588 55.117H38.5409V59.5571H37.4873V49.0212H41.1598C41.7819 49.0212 42.3388 49.1617 42.8305 49.4426C43.3322 49.7136 43.7236 50.0848 44.0045 50.5564C44.2955 51.028 44.441 51.5448 44.441 52.1067C44.441 52.8191 44.2152 53.4413 43.7637 53.9731C43.3122 54.4948 42.7201 54.841 41.9876 55.0116L44.6066 59.5571H43.3874ZM38.5409 49.9995V54.1386H41.1598C41.812 54.1386 42.3439 53.948 42.7553 53.5667C43.1767 53.1754 43.3874 52.6887 43.3874 52.1067C43.3874 51.4946 43.1817 50.9929 42.7703 50.6016C42.3589 50.2002 41.8221 49.9995 41.1598 49.9995H38.5409ZM49.1885 59.5571H48.1349V49.0212H49.1885V59.5571ZM58.6715 53.8978C59.1431 54.0483 59.5846 54.3443 59.996 54.7858C60.4074 55.2173 60.6131 55.7943 60.6131 56.5167C60.6131 57.0987 60.4726 57.6205 60.1916 58.082C59.9107 58.5436 59.5193 58.9048 59.0176 59.1657C58.5159 59.4266 57.939 59.5571 57.2867 59.5571H53.3734V49.0212H57.1212C57.7232 49.0212 58.255 49.1416 58.7166 49.3824C59.1882 49.6233 59.5494 49.9544 59.8003 50.3758C60.0612 50.7872 60.1916 51.2438 60.1916 51.7455C60.1916 52.3174 60.0361 52.784 59.725 53.1452C59.424 53.4964 59.0728 53.7473 58.6715 53.8978ZM54.427 49.9995V53.5065H57.1212C57.7433 53.5065 58.235 53.3459 58.5962 53.0248C58.9574 52.7037 59.138 52.2773 59.138 51.7455C59.138 51.2237 58.9574 50.8023 58.5962 50.4812C58.235 50.1601 57.7433 49.9995 57.1212 49.9995H54.427ZM57.2867 58.5787C57.949 58.5787 58.4908 58.3831 58.9123 57.9917C59.3437 57.6004 59.5595 57.1087 59.5595 56.5167C59.5595 55.9247 59.3437 55.433 58.9123 55.0417C58.4908 54.6504 57.949 54.4547 57.2867 54.4547H54.427V58.5787H57.2867ZM67.8114 59.7076C67.0689 59.7076 66.4117 59.542 65.8397 59.2109C65.2678 58.8798 64.8263 58.4182 64.5152 57.8262C64.2041 57.2241 64.0486 56.5418 64.0486 55.7792V49.0212H65.1022V55.7792C65.1022 56.6823 65.348 57.3997 65.8397 57.9315C66.3314 58.4633 66.9886 58.7293 67.8114 58.7293C68.6242 58.7293 69.2764 58.4633 69.7681 57.9315C70.2698 57.3997 70.5206 56.6823 70.5206 55.7792V49.0212H71.5742V55.7792C71.5742 56.5418 71.4137 57.2241 71.0926 57.8262C70.7815 58.4182 70.34 58.8798 69.7681 59.2109C69.2062 59.542 68.554 59.7076 67.8114 59.7076ZM78.9037 59.5571H77.8501V49.9995H74.5991V49.0212H82.1548V49.9995H78.9037V59.5571ZM86.3109 59.5571H85.2573V49.0212H86.3109V59.5571ZM94.6951 59.7076C93.8322 59.7076 93.0245 59.4718 92.2719 59.0002C91.5294 58.5286 90.9323 57.8814 90.4808 57.0586C90.0393 56.2257 89.8185 55.3026 89.8185 54.2891C89.8185 53.2757 90.0393 52.3576 90.4808 51.5348C90.9323 50.7019 91.5294 50.0497 92.2719 49.5781C93.0245 49.1065 93.8322 48.8707 94.6951 48.8707C95.5581 48.8707 96.3658 49.1065 97.1184 49.5781C97.8709 50.0497 98.468 50.7019 98.9095 51.5348C99.361 52.3576 99.5868 53.2757 99.5868 54.2891C99.5868 55.3026 99.361 56.2257 98.9095 57.0586C98.468 57.8814 97.8709 58.5286 97.1184 59.0002C96.3658 59.4718 95.5581 59.7076 94.6951 59.7076ZM94.6951 58.7293C95.3775 58.7293 96.0096 58.5436 96.5916 58.1724C97.1836 57.7911 97.6552 57.2643 98.0064 56.592C98.3576 55.9097 98.5332 55.142 98.5332 54.2891C98.5332 53.4362 98.3576 52.6736 98.0064 52.0014C97.6552 51.319 97.1836 50.7922 96.5916 50.421C96.0096 50.0397 95.3775 49.849 94.6951 49.849C94.0228 49.849 93.3907 50.0397 92.7987 50.421C92.2167 50.7922 91.7501 51.319 91.3989 52.0014C91.0477 52.6736 90.8721 53.4362 90.8721 54.2891C90.8721 55.142 91.0477 55.9097 91.3989 56.592C91.7501 57.2643 92.2167 57.7911 92.7987 58.1724C93.3907 58.5436 94.0228 58.7293 94.6951 58.7293ZM109.751 57.6155V49.0212H110.805V59.5571H109.811L104.152 50.9628V59.5571H103.098V49.0212H104.092L109.751 57.6155ZM124.286 59.7076C123.423 59.7076 122.615 59.4718 121.863 59.0002C121.12 58.5286 120.523 57.8814 120.072 57.0586C119.63 56.2257 119.409 55.3026 119.409 54.2891C119.409 53.2757 119.63 52.3576 120.072 51.5348C120.523 50.7019 121.12 50.0497 121.863 49.5781C122.615 49.1065 123.423 48.8707 124.286 48.8707C124.988 48.8707 125.641 49.0312 126.243 49.3523C126.855 49.6734 127.372 50.1149 127.793 50.6768C128.214 51.2287 128.51 51.8508 128.681 52.5432H127.627C127.367 51.7505 126.945 51.1033 126.363 50.6016C125.791 50.0999 125.099 49.849 124.286 49.849C123.614 49.849 122.982 50.0397 122.39 50.421C121.808 50.7922 121.341 51.319 120.99 52.0014C120.639 52.6736 120.463 53.4362 120.463 54.2891C120.463 55.142 120.639 55.9097 120.99 56.592C121.341 57.2643 121.808 57.7911 122.39 58.1724C122.982 58.5436 123.614 58.7293 124.286 58.7293C125.129 58.7293 125.841 58.4784 126.423 57.9767C127.015 57.475 127.442 56.8278 127.703 56.0351H128.756C128.586 56.7274 128.285 57.3546 127.853 57.9165C127.432 58.4684 126.91 58.9048 126.288 59.2259C125.676 59.547 125.009 59.7076 124.286 59.7076ZM136.389 59.7076C135.526 59.7076 134.718 59.4718 133.966 59.0002C133.223 58.5286 132.626 57.8814 132.174 57.0586C131.733 56.2257 131.512 55.3026 131.512 54.2891C131.512 53.2757 131.733 52.3576 132.174 51.5348C132.626 50.7019 133.223 50.0497 133.966 49.5781C134.718 49.1065 135.526 48.8707 136.389 48.8707C137.252 48.8707 138.059 49.1065 138.812 49.5781C139.565 50.0497 140.162 50.7019 140.603 51.5348C141.055 52.3576 141.28 53.2757 141.28 54.2891C141.28 55.3026 141.055 56.2257 140.603 57.0586C140.162 57.8814 139.565 58.5286 138.812 59.0002C138.059 59.4718 137.252 59.7076 136.389 59.7076ZM136.389 58.7293C137.071 58.7293 137.703 58.5436 138.285 58.1724C138.877 57.7911 139.349 57.2643 139.7 56.592C140.051 55.9097 140.227 55.142 140.227 54.2891C140.227 53.4362 140.051 52.6736 139.7 52.0014C139.349 51.319 138.877 50.7922 138.285 50.421C137.703 50.0397 137.071 49.849 136.389 49.849C135.716 49.849 135.084 50.0397 134.492 50.421C133.91 50.7922 133.444 51.319 133.093 52.0014C132.741 52.6736 132.566 53.4362 132.566 54.2891C132.566 55.142 132.741 55.9097 133.093 56.592C133.444 57.2643 133.91 57.7911 134.492 58.1724C135.084 58.5436 135.716 58.7293 136.389 58.7293ZM149.699 57.9616L153.642 49.0212H154.605V59.5571H153.552V51.6702L150.045 59.5571H149.337L145.846 51.6702V59.5571H144.792V49.0212H145.77L149.699 57.9616ZM162.132 49.0212C162.754 49.0212 163.321 49.1667 163.833 49.4577C164.355 49.7487 164.766 50.145 165.067 50.6467C165.368 51.1384 165.519 51.6803 165.519 52.2723C165.519 52.8743 165.368 53.4262 165.067 53.9279C164.766 54.4196 164.355 54.8109 163.833 55.1019C163.321 55.3929 162.754 55.5384 162.132 55.5384H159.844V59.5571H158.791V49.0212H162.132ZM162.132 54.5601C162.804 54.5601 163.361 54.3443 163.803 53.9129C164.244 53.4814 164.465 52.9345 164.465 52.2723C164.465 51.8408 164.365 51.4545 164.164 51.1133C163.963 50.7621 163.682 50.4912 163.321 50.3006C162.97 50.0999 162.574 49.9995 162.132 49.9995H159.844V54.5601H162.132ZM176.16 59.5571H175.031L174.023 56.878H169.267L168.258 59.5571H167.175L171.178 49.0212H172.156L176.16 59.5571ZM173.662 55.8996L171.645 50.5263L169.628 55.8996H173.662ZM185.739 57.6155V49.0212H186.793V59.5571H185.799L180.14 50.9628V59.5571H179.086V49.0212H180.08L185.739 57.6155ZM193.693 54.3794L196.552 49.0212H197.651L194.189 55.433V59.5571H193.136V55.433L189.674 49.0212H190.818L193.693 54.3794Z" fill="#112233"/>
</svg>
