<svg width="265" height="81" viewBox="0 0 265 81" fill="none" xmlns="http://www.w3.org/2000/svg">
<path d="M5.191 49.096C4.11393 48.0535 3.25344 46.8065 2.65941 45.4273C2.06538 44.048 1.74964 42.564 1.73047 41.0612H5.38132C5.40014 42.1321 5.63178 43.1884 6.06263 44.168C6.49349 45.1477 7.11486 46.0308 7.89021 46.7655C9.60626 48.177 11.7835 48.8962 13.998 48.7829C16.1201 48.9399 18.2272 48.3224 19.9328 47.0438C20.613 46.4775 21.1572 45.7641 21.5247 44.9569C21.8882 44.1434 22.0599 43.2566 22.0265 42.3655C22.0864 41.0199 21.6349 39.7018 20.7634 38.6786C19.9676 37.772 18.9961 37.0382 17.9084 36.5221C16.3512 35.8264 14.7594 35.2003 13.1502 34.6612C11.2571 34.0653 9.40707 33.339 7.61336 32.4873C6.2112 31.7961 4.99026 30.7834 4.04902 29.5308C2.9885 28.0214 2.47545 26.192 2.5956 24.3482C2.57582 22.615 3.0372 20.9106 3.9279 19.4264C4.84135 17.9263 6.16198 16.7196 7.73448 15.9482C9.57571 15.0898 11.5883 14.6674 13.6174 14.7134C15.6945 14.6605 17.7501 15.1456 19.5868 16.1221C21.2383 17.0068 22.6107 18.3381 23.5491 19.9655C24.5016 21.6758 25.0354 23.5894 25.1063 25.5482H21.4555C21.4135 23.4952 20.5826 21.5382 19.1369 20.0873C18.3958 19.395 17.5236 18.8597 16.5724 18.5131C15.6212 18.1665 14.6104 18.0158 13.6001 18.0699C11.6419 17.9479 9.70942 18.5685 8.18435 19.809C7.54955 20.3659 7.04196 21.0541 6.69632 21.8264C6.35331 22.6208 6.1936 23.4829 6.22915 24.3482C6.15401 25.6116 6.56259 26.8561 7.37113 27.8264C8.14825 28.709 9.10389 29.4145 10.1742 29.896C11.7009 30.5553 13.2602 31.1358 14.8459 31.6351C16.7817 32.2141 18.6728 32.9348 20.5038 33.7916C21.9859 34.5043 23.2653 35.581 24.2239 36.9221C25.2833 38.5118 25.8051 40.4023 25.7119 42.3134C25.7655 43.6591 25.5182 44.9998 24.9882 46.2368C24.4582 47.4738 23.659 48.5757 22.6494 49.4612C20.1924 51.3965 17.1132 52.3559 13.998 52.1569C10.7761 52.3406 7.61185 51.2409 5.191 49.096V49.096Z" fill="#112233"/>
<path d="M38.0664 51.6347H34.4502V15.3564H38.0664V51.6347Z" fill="#112233"/>
<path d="M65.5767 46.1391L79.1939 15.3564H82.516V51.6347H78.8651V24.4869L66.7533 51.6521H64.3136L52.2018 24.4869V51.6521H48.6201V15.3738H52.0806L65.5767 46.1391Z" fill="#112233"/>
<path d="M113.452 51.6347L104.801 36.3477H96.7202V51.6347H93.0693V15.3564H105.752C107.772 15.3385 109.765 15.8287 111.549 16.7825C113.215 17.6852 114.613 19.0178 115.597 20.6434C116.582 22.2473 117.098 24.0977 117.085 25.9825C117.12 28.3326 116.288 30.6125 114.75 32.3825C113.148 34.2245 110.991 35.4889 108.607 35.9825L117.656 51.6347H113.452ZM96.7202 18.7303V33.0434H105.769C107.801 33.1276 109.785 32.4169 111.306 31.0608C111.996 30.426 112.544 29.6513 112.914 28.7879C113.284 27.9245 113.467 26.992 113.452 26.0521C113.483 25.0823 113.312 24.1167 112.95 23.2173C112.569 22.3335 112.016 21.5352 111.324 20.8695C110.579 20.1745 109.705 19.6352 108.752 19.2829C107.798 18.9306 106.784 18.7724 105.769 18.8173L96.7202 18.7303Z" fill="#112233"/>
<path d="M131.5 50.4347C129.547 49.3219 127.959 47.6596 126.933 45.6521C125.852 43.4953 125.301 41.1102 125.323 38.6956V15.3564H128.974V38.626C128.827 41.3316 129.733 43.9885 131.5 46.0347C133.33 47.7971 135.766 48.7809 138.3 48.7809C140.835 48.7809 143.271 47.7971 145.1 46.0347C146.88 43.9938 147.799 41.3363 147.661 38.626V15.3564H151.312V38.626C151.313 41.0525 150.718 43.4418 149.582 45.5825C148.586 47.5957 147.037 49.2796 145.118 50.4347C143.08 51.6046 140.768 52.205 138.422 52.1738C136 52.2355 133.608 51.6344 131.5 50.4347V50.4347Z" fill="#112233"/>
<path d="M162.8 49.0956C161.726 48.0507 160.868 46.8033 160.274 45.4245C159.68 44.0458 159.363 42.563 159.34 41.0608H162.991C163.013 42.1328 163.248 43.1895 163.681 44.1691C164.115 45.1486 164.739 46.0313 165.517 46.7651C167.231 48.1796 169.41 48.8991 171.625 48.7825C173.741 48.9399 175.843 48.3222 177.542 47.0434C178.228 46.4823 178.773 45.7675 179.134 44.9564C179.503 44.1442 179.681 43.2575 179.653 42.3651C179.711 41.0475 179.286 39.7544 178.459 38.7303C177.646 37.7832 176.644 37.0187 175.518 36.4869C173.965 35.7843 172.377 35.1632 170.76 34.626C168.871 34.0331 167.027 33.3066 165.24 32.4521C163.835 31.7659 162.613 30.7523 161.676 29.4956C160.604 28.0024 160.073 26.186 160.17 24.3477C160.13 22.5988 160.6 20.8763 161.522 19.3928C162.445 17.9093 163.779 16.7298 165.361 15.9999C167.202 15.1398 169.215 14.7173 171.244 14.7651C173.321 14.7123 175.377 15.1974 177.213 16.1738C178.864 17.0543 180.231 18.387 181.158 20.0173C182.111 21.7276 182.645 23.6412 182.716 25.5999H179.065C179.037 23.5474 178.211 21.5875 176.764 20.139C176.026 19.4479 175.156 18.9143 174.208 18.5705C173.259 18.2268 172.251 18.08 171.244 18.139C169.282 18.0245 167.346 18.644 165.811 19.8782C165.186 20.4593 164.695 21.1719 164.375 21.9651C164.04 22.7435 163.88 23.5869 163.908 24.4347C163.829 25.6576 164.205 26.8663 164.963 27.826C165.752 28.7257 166.734 29.4334 167.835 29.8956C169.341 30.5564 170.898 31.1303 172.455 31.6347C174.389 32.2125 176.28 32.9273 178.113 33.7738C179.539 34.5153 180.763 35.596 181.678 36.9217C182.742 38.5098 183.27 40.4 183.183 42.313C183.236 43.6587 182.989 44.9994 182.459 46.2364C181.929 47.4734 181.13 48.5752 180.12 49.4608C177.661 51.3917 174.584 52.3506 171.469 52.1564C168.294 52.3052 165.185 51.2076 162.8 49.0956V49.0956Z" fill="#112233"/>
<path d="M193.219 49.0957C192.141 48.0538 191.28 46.8069 190.686 45.4276C190.092 44.0482 189.777 42.5639 189.758 41.0609H193.409C193.428 42.1318 193.66 43.1881 194.09 44.1678C194.521 45.1474 195.143 46.0305 195.918 46.7653C197.668 48.0531 199.77 48.766 201.938 48.8064C204.106 48.8469 206.234 48.213 208.03 46.9914C208.71 46.425 209.254 45.7116 209.622 44.9044C209.982 44.0895 210.159 43.2047 210.141 42.3131C210.192 40.9935 209.761 39.7007 208.93 38.6783C208.087 37.7478 207.054 37.012 205.902 36.5218C204.344 35.8261 202.753 35.2001 201.143 34.6609C199.249 34.0681 197.399 33.3416 195.607 32.487C194.241 31.7839 193.056 30.7719 192.146 29.5305C191.106 28.0697 190.588 26.2985 190.675 24.5044C190.656 22.7712 191.117 21.0668 192.008 19.5827C192.923 18.0776 194.25 16.8698 195.832 16.1044C197.667 15.2457 199.674 14.8232 201.697 14.8696C203.774 14.8168 205.83 15.3019 207.667 16.2783C209.317 17.1588 210.685 18.4915 211.612 20.1218C212.576 21.8279 213.117 23.7432 213.186 25.7044H209.535C209.493 23.6514 208.662 21.6944 207.217 20.2435C206.474 19.5529 205.602 19.0186 204.651 18.6721C203.7 18.3257 202.69 18.174 201.68 18.2261C199.722 18.1042 197.789 18.7247 196.264 19.9653C195.629 20.5221 195.122 21.2103 194.776 21.9827C194.441 22.761 194.281 23.6045 194.309 24.4522C194.242 25.7145 194.65 26.9559 195.451 27.9305C196.228 28.813 197.184 29.5186 198.254 30.0001C199.777 30.6435 201.316 31.2348 202.874 31.7392C204.815 32.3123 206.712 33.0273 208.549 33.8783C210.017 34.6063 211.283 35.6877 212.234 37.0261C213.301 38.6133 213.829 40.5043 213.74 42.4174C213.79 43.7627 213.541 45.1023 213.011 46.3387C212.481 47.5751 211.684 48.6773 210.677 49.5653C208.219 51.4973 205.139 52.4508 202.026 52.2435C200.424 52.3314 198.82 52.0984 197.308 51.558C195.796 51.0176 194.406 50.1806 193.219 49.0957V49.0957Z" fill="#112233"/>
<path d="M226.058 51.6347H222.407V15.3564H226.058V51.6347Z" fill="#112233"/>
<path d="M263.449 51.6347H259.539L256.079 42.4173H239.676L236.215 51.6347H232.46L246.303 15.3564H249.763L263.449 51.6347ZM254.798 39.0434L247.877 20.5391L240.956 39.0434H254.798Z" fill="#112233"/>
<path d="M38.395 0L41.7517 1.44348L38.1009 9.86087L34.7441 8.41739L38.395 0Z" fill="#E21B25"/>
<path d="M2.36507 80.3218V66.2902H5.9331C7.20262 66.2902 8.35855 66.5909 9.4009 67.1922C10.4566 67.7936 11.2851 68.6288 11.8865 69.6979C12.5012 70.7669 12.8086 71.9697 12.8086 73.306C12.8086 74.6423 12.5012 75.845 11.8865 76.9141C11.2851 77.9832 10.4566 78.8184 9.4009 79.4197C8.35855 80.0211 7.20262 80.3218 5.9331 80.3218H2.36507ZM5.9331 79.0188C6.92199 79.0188 7.8307 78.7716 8.65923 78.2772C9.50112 77.7827 10.1693 77.1012 10.6637 76.2326C11.1582 75.364 11.4054 74.3884 11.4054 73.306C11.4054 72.2236 11.1582 71.248 10.6637 70.3794C10.1693 69.5108 9.50112 68.8293 8.65923 68.3348C7.8307 67.8404 6.92199 67.5931 5.9331 67.5931H3.76823V79.0188H5.9331ZM18.8882 80.3218H17.485V66.2902H18.8882V80.3218ZM28.2702 80.5222C26.8671 80.5222 25.7445 80.128 24.9027 79.3396C24.0741 78.5511 23.6264 77.5155 23.5596 76.2326H24.9628C25.0296 77.1814 25.3503 77.9164 25.925 78.4375C26.5129 78.9587 27.3014 79.2193 28.2903 79.2193C29.2792 79.2193 30.0409 78.9921 30.5754 78.5378C31.1233 78.07 31.3973 77.462 31.3973 76.7137C31.3973 76.139 31.2436 75.6713 30.9362 75.3105C30.6289 74.9497 30.248 74.6624 29.7937 74.4486C29.3527 74.2347 28.7446 73.9942 27.9696 73.7269C27.0876 73.4329 26.3726 73.1523 25.8247 72.885C25.2902 72.6178 24.8358 72.2369 24.4617 71.7425C24.0875 71.248 23.9004 70.5999 23.9004 69.7981C23.9004 69.0898 24.0674 68.4551 24.4015 67.8938C24.749 67.3326 25.2434 66.8916 25.8849 66.5708C26.5263 66.2501 27.2813 66.0898 28.15 66.0898C29.0319 66.0898 29.8003 66.2702 30.4551 66.631C31.1099 66.9918 31.6178 67.4929 31.9786 68.1344C32.3394 68.7624 32.5398 69.4774 32.5799 70.2792H31.1768C31.1233 69.3972 30.8226 68.6956 30.2747 68.1744C29.7402 67.6533 29.0319 67.3927 28.15 67.3927C27.2546 67.3927 26.553 67.6199 26.0452 68.0742C25.5508 68.5152 25.3036 69.0898 25.3036 69.7981C25.3036 70.3326 25.4506 70.7736 25.7445 71.1211C26.0385 71.4552 26.3994 71.7224 26.827 71.9229C27.2546 72.11 27.8493 72.3305 28.611 72.5844C29.5063 72.865 30.2346 73.1456 30.7959 73.4263C31.3572 73.6935 31.8316 74.0944 32.2191 74.629C32.6067 75.1635 32.8004 75.8584 32.8004 76.7137C32.8004 77.8629 32.4062 78.785 31.6178 79.4799C30.8293 80.1748 29.7135 80.5222 28.2702 80.5222ZM41.4635 80.3218H40.0603V67.5931H35.7306V66.2902H45.7932V67.5931H41.4635V80.3218ZM57.7829 80.3218L54.4153 74.4085H51.3284V80.3218H49.9252V66.2902H54.8162C55.6447 66.2902 56.3864 66.4773 57.0412 66.8515C57.7094 67.2123 58.2306 67.7067 58.6047 68.3348C58.9923 68.9629 59.186 69.6511 59.186 70.3995C59.186 71.3483 58.8854 72.1768 58.284 72.885C57.6827 73.5799 56.8942 74.041 55.9187 74.2682L59.4065 80.3218H57.7829ZM51.3284 67.5931V73.1055H54.8162C55.6848 73.1055 56.3931 72.8516 56.941 72.3438C57.5022 71.8227 57.7829 71.1745 57.7829 70.3995C57.7829 69.5843 57.5089 68.9161 56.961 68.3949C56.4131 67.8604 55.6982 67.5931 54.8162 67.5931H51.3284ZM65.5087 80.3218H64.1055V66.2902H65.5087V80.3218ZM78.138 72.7848C78.7661 72.9853 79.3541 73.3795 79.902 73.9675C80.4499 74.5421 80.7239 75.3105 80.7239 76.2727C80.7239 77.0477 80.5368 77.7426 80.1626 78.3574C79.7884 78.9721 79.2673 79.4532 78.5991 79.8006C77.9309 80.1481 77.1625 80.3218 76.2939 80.3218H71.0822V66.2902H76.0734C76.8752 66.2902 77.5835 66.4506 78.1982 66.7713C78.8263 67.092 79.3073 67.533 79.6414 68.0943C79.9889 68.6422 80.1626 69.2502 80.1626 69.9184C80.1626 70.6801 79.9555 71.3015 79.5412 71.7826C79.1403 72.2503 78.6726 72.5844 78.138 72.7848ZM72.4853 67.5931V72.2636H76.0734C76.9019 72.2636 77.5567 72.0498 78.0378 71.6222C78.5189 71.1946 78.7594 70.6266 78.7594 69.9184C78.7594 69.2235 78.5189 68.6622 78.0378 68.2346C77.5567 67.807 76.9019 67.5931 76.0734 67.5931H72.4853ZM76.2939 79.0188C77.1759 79.0188 77.8975 78.7583 78.4588 78.2371C79.0334 77.7159 79.3207 77.0611 79.3207 76.2727C79.3207 75.4842 79.0334 74.8294 78.4588 74.3082C77.8975 73.7871 77.1759 73.5265 76.2939 73.5265H72.4853V79.0188H76.2939ZM90.3106 80.5222C89.3217 80.5222 88.4464 80.3017 87.6847 79.8607C86.923 79.4197 86.335 78.805 85.9207 78.0166C85.5065 77.2148 85.2993 76.3061 85.2993 75.2905V66.2902H86.7025V75.2905C86.7025 76.4932 87.0299 77.4486 87.6847 78.1569C88.3395 78.8652 89.2148 79.2193 90.3106 79.2193C91.393 79.2193 92.2617 78.8652 92.9165 78.1569C93.5846 77.4486 93.9187 76.4932 93.9187 75.2905V66.2902H95.3219V75.2905C95.3219 76.3061 95.1081 77.2148 94.6804 78.0166C94.2662 78.805 93.6782 79.4197 92.9165 79.8607C92.1681 80.3017 91.2995 80.5222 90.3106 80.5222ZM105.083 80.3218H103.68V67.5931H99.3503V66.2902H109.413V67.5931H105.083V80.3218ZM114.948 80.3218H113.545V66.2902H114.948V80.3218ZM126.114 80.5222C124.965 80.5222 123.889 80.2082 122.887 79.5801C121.898 78.952 121.103 78.0901 120.501 76.9943C119.913 75.8851 119.62 74.6557 119.62 73.306C119.62 71.9563 119.913 70.7335 120.501 69.6377C121.103 68.5286 121.898 67.66 122.887 67.0319C123.889 66.4038 124.965 66.0898 126.114 66.0898C127.263 66.0898 128.339 66.4038 129.341 67.0319C130.344 67.66 131.139 68.5286 131.727 69.6377C132.328 70.7335 132.629 71.9563 132.629 73.306C132.629 74.6557 132.328 75.8851 131.727 76.9943C131.139 78.0901 130.344 78.952 129.341 79.5801C128.339 80.2082 127.263 80.5222 126.114 80.5222ZM126.114 79.2193C127.023 79.2193 127.865 78.9721 128.64 78.4776C129.428 77.9698 130.056 77.2682 130.524 76.3729C130.992 75.4642 131.226 74.4419 131.226 73.306C131.226 72.1701 130.992 71.1545 130.524 70.2591C130.056 69.3504 129.428 68.6488 128.64 68.1544C127.865 67.6466 127.023 67.3927 126.114 67.3927C125.219 67.3927 124.377 67.6466 123.588 68.1544C122.813 68.6488 122.192 69.3504 121.724 70.2591C121.257 71.1545 121.023 72.1701 121.023 73.306C121.023 74.4419 121.257 75.4642 121.724 76.3729C122.192 77.2682 122.813 77.9698 123.588 78.4776C124.377 78.9721 125.219 79.2193 126.114 79.2193ZM146.165 77.736V66.2902H147.568V80.3218H146.246L138.709 68.876V80.3218H137.305V66.2902H138.628L146.165 77.736ZM165.523 80.5222C164.374 80.5222 163.298 80.2082 162.296 79.5801C161.307 78.952 160.512 78.0901 159.91 76.9943C159.322 75.8851 159.028 74.6557 159.028 73.306C159.028 71.9563 159.322 70.7335 159.91 69.6377C160.512 68.5286 161.307 67.66 162.296 67.0319C163.298 66.4038 164.374 66.0898 165.523 66.0898C166.459 66.0898 167.327 66.3036 168.129 66.7312C168.944 67.1588 169.632 67.7468 170.194 68.4952C170.755 69.2302 171.149 70.0587 171.376 70.9808H169.973C169.626 69.9251 169.064 69.0631 168.289 68.3949C167.528 67.7268 166.606 67.3927 165.523 67.3927C164.628 67.3927 163.786 67.6466 162.997 68.1544C162.222 68.6488 161.601 69.3504 161.133 70.2591C160.666 71.1545 160.432 72.1701 160.432 73.306C160.432 74.4419 160.666 75.4642 161.133 76.3729C161.601 77.2682 162.222 77.9698 162.997 78.4776C163.786 78.9721 164.628 79.2193 165.523 79.2193C166.646 79.2193 167.594 78.8852 168.37 78.217C169.158 77.5489 169.726 76.6869 170.073 75.6312H171.476C171.249 76.5533 170.848 77.3885 170.274 78.1369C169.713 78.8718 169.018 79.4532 168.189 79.8808C167.374 80.3084 166.485 80.5222 165.523 80.5222ZM181.641 80.5222C180.492 80.5222 179.416 80.2082 178.414 79.5801C177.425 78.952 176.63 78.0901 176.029 76.9943C175.441 75.8851 175.147 74.6557 175.147 73.306C175.147 71.9563 175.441 70.7335 176.029 69.6377C176.63 68.5286 177.425 67.66 178.414 67.0319C179.416 66.4038 180.492 66.0898 181.641 66.0898C182.791 66.0898 183.866 66.4038 184.869 67.0319C185.871 67.66 186.666 68.5286 187.254 69.6377C187.855 70.7335 188.156 71.9563 188.156 73.306C188.156 74.6557 187.855 75.8851 187.254 76.9943C186.666 78.0901 185.871 78.952 184.869 79.5801C183.866 80.2082 182.791 80.5222 181.641 80.5222ZM181.641 79.2193C182.55 79.2193 183.392 78.9721 184.167 78.4776C184.956 77.9698 185.584 77.2682 186.051 76.3729C186.519 75.4642 186.753 74.4419 186.753 73.306C186.753 72.1701 186.519 71.1545 186.051 70.2591C185.584 69.3504 184.956 68.6488 184.167 68.1544C183.392 67.6466 182.55 67.3927 181.641 67.3927C180.746 67.3927 179.904 67.6466 179.116 68.1544C178.341 68.6488 177.719 69.3504 177.252 70.2591C176.784 71.1545 176.55 72.1701 176.55 73.306C176.55 74.4419 176.784 75.4642 177.252 76.3729C177.719 77.2682 178.341 77.9698 179.116 78.4776C179.904 78.9721 180.746 79.2193 181.641 79.2193ZM199.367 78.197L204.619 66.2902H205.902V80.3218H204.499V69.8181L199.828 80.3218H198.886L194.236 69.8181V80.3218H192.833V66.2902H194.136L199.367 78.197ZM215.926 66.2902C216.755 66.2902 217.51 66.484 218.191 66.8715C218.886 67.2591 219.434 67.7869 219.835 68.4551C220.236 69.1099 220.436 69.8315 220.436 70.6199C220.436 71.4218 220.236 72.1567 219.835 72.8249C219.434 73.4797 218.886 74.0009 218.191 74.3884C217.51 74.776 216.755 74.9697 215.926 74.9697H212.879V80.3218H211.476V66.2902H215.926ZM215.926 73.6668C216.822 73.6668 217.563 73.3795 218.151 72.8049C218.739 72.2302 219.033 71.5019 219.033 70.6199C219.033 70.0453 218.9 69.5308 218.632 69.0765C218.365 68.6088 217.991 68.2479 217.51 67.994C217.042 67.7268 216.514 67.5931 215.926 67.5931H212.879V73.6668H215.926ZM234.609 80.3218H233.105L231.762 76.7537H225.428L224.085 80.3218H222.642L227.974 66.2902H229.277L234.609 80.3218ZM231.281 75.4508L228.595 68.2947L225.909 75.4508H231.281ZM247.366 77.736V66.2902H248.769V80.3218H247.446L239.909 68.876V80.3218H238.506V66.2902H239.829L247.366 77.736ZM257.958 73.4263L261.767 66.2902H263.23L258.62 74.8294V80.3218H257.216V74.8294L252.606 66.2902H254.129L257.958 73.4263Z" fill="#112233"/>
</svg>
