<svg width="276" height="277" viewBox="0 0 276 277" fill="none" xmlns="http://www.w3.org/2000/svg">
<path d="M230.998 42.2716L227.751 98.2848L227.677 99.5512L228.654 100.36L271.838 136.117L229.984 173.427L229.04 174.268L229.159 175.529L234.447 231.394L178.502 228.139L177.24 228.066L176.435 229.041L140.726 272.284L103.467 230.374L102.624 229.426L101.363 229.546L45.5817 234.837L48.8288 178.824L48.9022 177.558L47.9252 176.749L4.74209 140.992L46.5959 103.682L47.5397 102.84L47.4204 101.58L42.1328 45.7149L98.0773 48.9695L99.3398 49.043L100.145 48.0678L135.854 4.82468L173.112 46.7344L173.955 47.6826L175.216 47.5629L230.998 42.2716Z" stroke="#FFA900" stroke-width="5"/>
</svg>
