<svg width="85" height="85" viewBox="0 0 85 85" fill="none" xmlns="http://www.w3.org/2000/svg">
<path d="M56.7251 4.22997L62.3548 19.5103L62.7934 20.7006L64.0122 21.052L79.6488 25.5602L72.8361 40.3433L72.3069 41.4916L72.9199 42.5998L80.8057 56.8556L65.538 62.4771L64.3512 62.9141L64.0025 64.1297L59.5134 79.7793L44.7399 72.947L43.5884 72.4144L42.48 73.0278L28.2512 80.9026L22.6215 65.6222L22.183 64.4319L20.9641 64.0805L5.32754 59.5724L12.1402 44.7893L12.6694 43.6409L12.0564 42.5328L4.17057 28.2769L19.4383 22.6554L20.6251 22.2185L20.9738 21.0028L25.4629 5.35323L40.2364 12.1855L41.3879 12.7181L42.4963 12.1047L56.7251 4.22997Z" stroke="#FFA900" stroke-width="5"/>
</svg>
