<svg width="226" height="225" viewBox="0 0 226 225" fill="none" xmlns="http://www.w3.org/2000/svg">
<path d="M113.289 4.63524L132.478 34.5199L133.711 36.4403L135.737 35.3917L167.24 19.085L168.929 54.5441L169.037 56.819L171.316 56.9245L206.777 58.5652L190.509 90.0978L189.467 92.1188L191.385 93.3471L221.303 112.5L191.438 131.653L189.522 132.881L190.57 134.902L206.924 166.435L171.467 168.075L169.189 168.181L169.087 170.456L167.494 205.915L135.947 189.608L133.918 188.559L132.69 190.48L113.583 220.365L94.3936 190.48L93.1605 188.559L91.1347 189.608L59.6316 205.915L57.9425 170.456L57.8342 168.181L55.5561 168.075L20.0947 166.435L36.3623 134.902L37.4049 132.881L35.4861 131.653L5.56847 112.5L35.434 93.3471L37.3494 92.1188L36.3013 90.0978L19.9479 58.5652L55.4048 56.9245L57.6826 56.819L57.7848 54.5441L59.3773 19.085L90.9248 35.3917L92.9535 36.4403L94.1814 34.5199L113.289 4.63524Z" stroke="#E21B25" stroke-width="5"/>
</svg>
