<svg width="522" height="522" viewBox="0 0 522 522" fill="none" xmlns="http://www.w3.org/2000/svg">
<path d="M332.512 6.20731L358.952 92.609L359.62 94.7914L361.854 94.3297L450.237 76.0621L429.98 164.072L429.469 166.291L431.634 167.009L517.358 195.423L455.826 261.458L454.276 263.122L455.791 264.823L515.886 332.31L429.568 358.671L427.392 359.336L427.855 361.565L446.214 450.04L358.243 429.666L356.021 429.151L355.308 431.314L327.013 517.066L260.959 455.419L259.29 453.861L257.588 455.378L190.225 515.432L163.784 429.03L163.116 426.848L160.882 427.309L72.4996 445.577L92.757 357.567L93.2678 355.348L91.1031 354.63L5.37867 326.216L66.9104 260.181L68.4607 258.517L66.9456 256.816L6.85073 189.329L93.1685 162.968L95.3448 162.303L94.8822 160.074L76.5231 71.5991L164.494 91.9732L166.716 92.4877L167.429 90.3251L195.724 4.57307L261.777 66.2196L263.447 67.7777L265.148 66.2608L332.512 6.20731Z" stroke="#E21B25" stroke-width="5"/>
</svg>
