<svg width="164" height="164" viewBox="0 0 164 164" fill="none" xmlns="http://www.w3.org/2000/svg">
<path d="M95.919 37.065L118.925 17.4259L113.473 47.1972L112.819 50.7658L116.391 50.1066L146.156 44.6139L126.541 67.6546L124.192 70.4142L127.613 71.6283L156.161 81.7592L127.641 91.8901L124.222 93.1043L126.579 95.8639L146.257 118.905L116.477 113.412L112.903 112.753L113.567 116.321L119.1 146.093L96.0406 126.454L93.2708 124.095L92.0598 127.519L81.9716 156.042L71.8057 127.519L70.5854 124.095L67.822 126.454L44.8163 146.093L50.2684 116.321L50.9219 112.753L47.3497 113.412L17.5853 118.905L37.2001 95.8639L39.5493 93.1043L36.128 91.8901L7.5795 81.7592L36.1004 71.6283L39.5185 70.4142L37.1617 67.6546L17.4842 44.6139L47.2636 50.1066L50.8376 50.7658L50.1743 47.1972L44.6412 17.4259L67.7004 37.065L70.4701 39.4239L71.6812 35.9998L81.7694 7.47599L91.9353 35.9998L93.1556 39.4239L95.919 37.065Z" stroke="#8712FC" stroke-width="5"/>
</svg>
