<svg width="466" height="466" viewBox="0 0 466 466" fill="none" xmlns="http://www.w3.org/2000/svg">
<path d="M344.23 153.157L444.307 149.579L368.904 215.551L366.174 217.94L369.382 219.645L457.858 266.655L359.598 286.028L356.042 286.729L357.967 289.807L411.133 374.813L316.347 342.392L312.915 341.218L313.046 344.845L316.65 445.067L250.741 369.543L248.352 366.805L246.653 370.012L199.733 458.591L180.357 360.205L179.654 356.635L176.577 358.565L91.7094 411.768L124.054 316.878L125.227 313.438L121.596 313.567L21.5187 317.145L96.9217 251.173L99.6522 248.784L96.4443 247.079L7.96754 200.07L106.228 180.696L109.784 179.995L107.859 176.917L54.693 91.9113L149.479 124.332L152.911 125.506L152.78 121.88L149.176 21.6573L215.084 97.1812L217.474 99.9195L219.173 96.7119L266.093 8.13289L285.469 106.519L286.172 110.089L289.249 108.16L374.116 54.9558L341.771 149.846L340.599 153.287L344.23 153.157Z" stroke="#8712FC" stroke-width="5"/>
</svg>
