<svg width="25" height="25" viewBox="0 0 25 25" fill="none" xmlns="http://www.w3.org/2000/svg">
<path fill-rule="evenodd" clip-rule="evenodd" d="M5.35854 17.4009L4.48295 20.5635L7.74672 19.7381L8.2589 20.0274C9.51038 20.7343 10.9559 21.1382 12.5002 21.1382C17.2709 21.1382 21.1384 17.2708 21.1384 12.5C21.1384 7.72925 17.2709 3.86179 12.5002 3.86179C7.7294 3.86179 3.86194 7.72925 3.86194 12.5C3.86194 14.0951 4.29293 15.5851 5.04389 16.8647L5.35854 17.4009ZM2.39319 22.607L3.77716 17.6081C2.89753 16.1092 2.39319 14.3635 2.39319 12.5C2.39319 6.91808 6.91823 2.39304 12.5002 2.39304C18.0821 2.39304 22.6071 6.91808 22.6071 12.5C22.6071 18.0819 18.0821 22.607 12.5002 22.607C10.6962 22.607 9.00265 22.1344 7.53654 21.3062L2.39319 22.607Z" fill="#11244D"/>
<path fill-rule="evenodd" clip-rule="evenodd" d="M9.17779 7.18744L8.39156 6.4012L6.297 8.49576L7.31343 9.51219L6.297 10.5286L14.2206 18.4523L15.2571 17.4158L16.2935 18.4523L18.368 16.3777L17.5779 15.5876L18.368 14.7975L15.0939 11.5233L13.9718 12.6454L12.1084 10.782L13.2266 9.66379L9.96403 6.4012L9.17779 7.18744ZM9.17779 7.69209L7.3577 9.51219L15.2571 17.4116L17.081 15.5876L15.0939 13.6004L13.9718 14.7225L10.0313 10.782L11.1495 9.66378L9.17779 7.69209Z" fill="#11244D"/>
</svg>
