<svg width="24" height="24" viewBox="0 0 24 24" fill="none" xmlns="http://www.w3.org/2000/svg">
<path d="M8.86609 20L5.50609 14.1H2.42609V20H1.02609V6H5.90609C6.73276 6 7.47276 6.18667 8.12609 6.56C8.79276 6.92 9.31276 7.41333 9.68609 8.04C10.0728 8.66667 10.2661 9.35333 10.2661 10.1C10.2661 11.0467 9.96609 11.8733 9.36609 12.58C8.76609 13.2733 7.97943 13.7333 7.00609 13.96L10.4861 20H8.86609ZM2.42609 7.3V12.8H5.90609C6.77276 12.8 7.47943 12.5467 8.02609 12.04C8.58609 11.52 8.86609 10.8733 8.86609 10.1C8.86609 9.28667 8.59276 8.62 8.04609 8.1C7.49943 7.56667 6.78609 7.3 5.90609 7.3H2.42609ZM18.0745 20.2C17.0879 20.2 16.2145 19.98 15.4545 19.54C14.6945 19.1 14.1079 18.4867 13.6945 17.7C13.2812 16.9 13.0745 15.9933 13.0745 14.98V6H14.4745V14.98C14.4745 16.18 14.8012 17.1333 15.4545 17.84C16.1079 18.5467 16.9812 18.9 18.0745 18.9C19.1545 18.9 20.0212 18.5467 20.6745 17.84C21.3412 17.1333 21.6745 16.18 21.6745 14.98V6H23.0745V14.98C23.0745 15.9933 22.8612 16.9 22.4345 17.7C22.0212 18.4867 21.4345 19.1 20.6745 19.54C19.9279 19.98 19.0612 20.2 18.0745 20.2Z" fill="#11244D"/>
</svg>
