<svg width="24" height="24" viewBox="0 0 24 24" fill="none" xmlns="http://www.w3.org/2000/svg">
<path fill-rule="evenodd" clip-rule="evenodd" d="M13.8879 16.7443C17.6949 16.7443 20.7811 13.6582 20.7811 9.85118C20.7811 6.0442 17.6949 2.95803 13.8879 2.95803C10.0809 2.95803 6.99477 6.0442 6.99477 9.85118C6.99477 13.6582 10.0809 16.7443 13.8879 16.7443ZM13.8879 18.1561C18.4746 18.1561 22.1928 14.4379 22.1928 9.85118C22.1928 5.2645 18.4746 1.54626 13.8879 1.54626C9.30124 1.54626 5.58301 5.2645 5.58301 9.85118C5.58301 14.4379 9.30124 18.1561 13.8879 18.1561Z" fill="#FFFFFF"/>
<path fill-rule="evenodd" clip-rule="evenodd" d="M9.71175 16.0192L8.08762 17.6433L7.08936 16.645L8.71348 15.0209L9.71175 16.0192Z" fill="#FFFFFF"/>
<path fill-rule="evenodd" clip-rule="evenodd" d="M8.62442 18.0954L3.76707 22.9527L2.7688 21.9545L7.62615 17.0971L8.62442 18.0954Z" fill="#FFFFFF"/>
</svg>
