<svg width="24" height="24" viewBox="0 0 24 24" fill="none" xmlns="http://www.w3.org/2000/svg">
<path fill-rule="evenodd" clip-rule="evenodd" d="M12 21.4588C17.2239 21.4588 21.4588 17.2239 21.4588 12C21.4588 6.77602 17.2239 2.54116 12 2.54116C6.77602 2.54116 2.54116 6.77602 2.54116 12C2.54116 17.2239 6.77602 21.4588 12 21.4588ZM12 22.8706C18.0036 22.8706 22.8706 18.0036 22.8706 12C22.8706 5.99632 18.0036 1.12939 12 1.12939C5.99632 1.12939 1.12939 5.99632 1.12939 12C1.12939 18.0036 5.99632 22.8706 12 22.8706Z" fill="#11244D"/>
<path fill-rule="evenodd" clip-rule="evenodd" d="M7.75693 5.96404H13.1648C15.0568 5.96404 16.5905 7.49776 16.5905 9.38971C16.5905 11.1502 15.2625 12.6005 13.5536 12.7936L17.4676 18.1001H15.7156L11.8177 12.8154H9.16693V18.1001H7.75693V5.96404ZM9.16693 11.4054H13.1648C14.278 11.4054 15.1805 10.5029 15.1805 9.38971C15.1805 8.27648 14.278 7.37404 13.1648 7.37404H9.16693V11.4054Z" fill="#11244D"/>
</svg>
