<svg width="24" height="24" viewBox="0 0 24 24" fill="none" xmlns="http://www.w3.org/2000/svg">
<path d="M3.76846 1.05127H16.1999V2.46127H3.76846V1.05127Z" fill="#11244D"/>
<path d="M16.1999 2.46127L17.197 1.46423L21.2258 5.49299L20.2288 6.49002L16.1999 2.46127Z" fill="#11244D"/>
<path d="M20.2263 6.49002H21.6363V7.85321H20.2263V6.49002Z" fill="#11244D"/>
<path d="M2.3584 2.46125L3.76846 2.46127L3.7684 7.83719H2.3584V2.46125Z" fill="#11244D"/>
<path d="M2.3584 19.5453H3.7684V21.5346H2.3584V19.5453Z" fill="#11244D"/>
<path d="M3.7684 21.5346L20.2263 21.5346V22.9446H3.76846L3.7684 21.5346Z" fill="#11244D"/>
<path d="M20.2263 19.5453H21.6363V21.5346L20.2263 21.5346V19.5453Z" fill="#11244D"/>
<path d="M6.21987 10.4188C6.64042 10.4188 7.02077 10.5147 7.36092 10.7064C7.70725 10.8981 7.97937 11.161 8.17728 11.4949C8.37518 11.8289 8.47413 12.2031 8.47413 12.6174C8.47413 13.0318 8.37518 13.406 8.17728 13.7399C7.97937 14.0739 7.70725 14.3367 7.36092 14.5285C7.02077 14.7202 6.64042 14.816 6.21987 14.816H5.06955V16.9126H3.74297V10.4188H6.21987ZM6.19204 13.5358C6.45798 13.5358 6.68371 13.4493 6.86925 13.2761C7.05478 13.0967 7.14755 12.8772 7.14755 12.6174C7.14755 12.3577 7.05478 12.1412 6.86925 11.9681C6.68371 11.7887 6.45798 11.699 6.19204 11.699H5.06955V13.5358H6.19204Z" fill="#11244D"/>
<path d="M11.584 17.0332C11.0893 17.0332 10.6564 16.9404 10.2853 16.7549C9.92039 16.5632 9.63281 16.3034 9.42254 15.9756C9.21845 15.6479 9.10713 15.2768 9.08858 14.8624H10.4152C10.4523 15.1531 10.5698 15.3912 10.7677 15.5767C10.9656 15.7561 11.2377 15.8458 11.584 15.8458C11.9118 15.8458 12.1592 15.7808 12.3262 15.651C12.4993 15.5211 12.5859 15.3603 12.5859 15.1686C12.5859 15.0078 12.5303 14.8717 12.4189 14.7604C12.3076 14.6491 12.1685 14.5594 12.0015 14.4914C11.8345 14.4171 11.6026 14.3306 11.3057 14.2316C10.8728 14.0894 10.5172 13.9502 10.2389 13.8141C9.96678 13.6719 9.73177 13.4709 9.53386 13.2112C9.33596 12.9452 9.237 12.602 9.237 12.1814C9.237 11.8227 9.32668 11.5011 9.50603 11.2166C9.68538 10.9322 9.94513 10.7095 10.2853 10.5487C10.6316 10.3817 11.0367 10.2982 11.5005 10.2982C11.9458 10.2982 12.3416 10.391 12.688 10.5765C13.0343 10.7621 13.3064 11.0156 13.5043 11.3372C13.7022 11.6588 13.8105 12.0175 13.829 12.4134H12.5024C12.4839 12.1412 12.3849 11.9186 12.2056 11.7454C12.0262 11.5723 11.7912 11.4857 11.5005 11.4857C11.2037 11.4857 10.9718 11.5537 10.8048 11.6898C10.644 11.8196 10.5636 11.9897 10.5636 12.2C10.5636 12.3608 10.6192 12.4968 10.7306 12.6082C10.8419 12.7195 10.9779 12.8092 11.1387 12.8772C11.3057 12.9452 11.5407 13.0287 11.8438 13.1277C12.2705 13.2637 12.623 13.3998 12.9013 13.5358C13.1796 13.6657 13.4177 13.8605 13.6157 14.1203C13.8136 14.3738 13.9125 14.7078 13.9125 15.1222C13.9125 15.4871 13.8197 15.8148 13.6342 16.1055C13.4549 16.39 13.1889 16.6157 12.8364 16.7827C12.4839 16.9497 12.0664 17.0332 11.584 17.0332Z" fill="#11244D"/>
<path d="M14.895 16.9126V10.4188H17.0473C17.6286 10.4188 18.1636 10.5642 18.6522 10.8549C19.1469 11.1455 19.5365 11.5413 19.821 12.0423C20.1117 12.537 20.257 13.0782 20.257 13.6657C20.257 14.2594 20.1117 14.8037 19.821 15.2984C19.5304 15.7932 19.1376 16.1859 18.6429 16.4766C18.1543 16.7673 17.6224 16.9126 17.0473 16.9126H14.895ZM17.0473 15.6324C17.3812 15.6324 17.6905 15.5458 17.9749 15.3726C18.2656 15.1995 18.4975 14.9645 18.6707 14.6676C18.8439 14.3646 18.9305 14.0306 18.9305 13.6657C18.9305 13.3008 18.8439 12.97 18.6707 12.6731C18.4975 12.3701 18.2656 12.132 17.9749 11.9588C17.6905 11.7856 17.3812 11.699 17.0473 11.699H16.2216V15.6324H17.0473Z" fill="#11244D"/>
</svg>
