<svg width="24" height="24" viewBox="0 0 24 24" fill="none" xmlns="http://www.w3.org/2000/svg">
<path fill-rule="evenodd" clip-rule="evenodd" d="M3.54564 3.86328H20.2135V5.26136H21.5771V9.09047H20.1671V5.27328H3.54564V3.86328ZM2.13037 16.6274V5.26136H3.54037V16.6274H2.13037ZM13.5429 18.0427H3.54564V16.6327H13.5429V18.0427Z" fill="#11244D"/>
<path d="M17.7584 8.59877H5.86719V7.18877H17.7584V8.59877Z" fill="#11244D"/>
<path d="M11.6739 12.5996H5.86719V11.1896H11.6739V12.5996Z" fill="#11244D"/>
<path fill-rule="evenodd" clip-rule="evenodd" d="M17.7585 16.614C19.2504 16.614 20.4598 15.4046 20.4598 13.9127C20.4598 12.4209 19.2504 11.2115 17.7585 11.2115C16.2667 11.2115 15.0573 12.4209 15.0573 13.9127C15.0573 15.4046 16.2667 16.614 17.7585 16.614ZM17.7585 18.024C20.0291 18.024 21.8698 16.1833 21.8698 13.9127C21.8698 11.6421 20.0291 9.80147 17.7585 9.80147C15.4879 9.80147 13.6473 11.6421 13.6473 13.9127C13.6473 16.1833 15.4879 18.024 17.7585 18.024Z" fill="#11244D"/>
<path d="M20.9269 16.5332H20.9522V22.8769L17.7687 20.7726L14.6888 22.9149V16.6477L16.0988 17.6753V20.2166L17.7485 19.0691L19.5422 20.2547V17.6183L20.9269 16.5332Z" fill="#11244D"/>
</svg>
