<svg width="24" height="24" viewBox="0 0 24 24" fill="none" xmlns="http://www.w3.org/2000/svg">
<path d="M3.76846 1.05127H16.1999V2.46127H3.76846V1.05127Z" fill="#11244D"/>
<path d="M16.1999 2.46127L17.197 1.46423L21.2258 5.49299L20.2288 6.49002L16.1999 2.46127Z" fill="#11244D"/>
<path d="M20.2263 6.49002H21.6363V7.85321H20.2263V6.49002Z" fill="#11244D"/>
<path d="M2.3584 2.46125L3.76846 2.46127L3.7684 7.83719H2.3584V2.46125Z" fill="#11244D"/>
<path d="M2.3584 19.5453H3.7684V21.5346H2.3584V19.5453Z" fill="#11244D"/>
<path d="M3.7684 21.5346L20.2263 21.5346V22.9446H3.76846L3.7684 21.5346Z" fill="#11244D"/>
<path d="M20.2263 19.5453H21.6363V21.5346L20.2263 21.5346V19.5453Z" fill="#11244D"/>
<path d="M5.22079 14.2384V15.7431H8.57959V17.0633H3.83262V10.2681H8.48251V11.5883H5.22079V12.957H8.11363V14.2384H5.22079Z" fill="#11244D"/>
<path d="M12.2073 10.2681C12.6474 10.2681 13.0454 10.3684 13.4013 10.569C13.7638 10.7696 14.0485 11.0447 14.2556 11.3941C14.4627 11.7436 14.5662 12.1351 14.5662 12.5687C14.5662 13.0024 14.4627 13.3939 14.2556 13.7434C14.0485 14.0928 13.7638 14.3679 13.4013 14.5685C13.0454 14.7691 12.6474 14.8694 12.2073 14.8694H11.0036V17.0633H9.61541V10.2681H12.2073ZM12.1782 13.5298C12.4565 13.5298 12.6927 13.4392 12.8868 13.258C13.081 13.0703 13.1781 12.8406 13.1781 12.5687C13.1781 12.2969 13.081 12.0704 12.8868 11.8892C12.6927 11.7015 12.4565 11.6077 12.1782 11.6077H11.0036V13.5298H12.1782Z" fill="#11244D"/>
<path d="M17.8205 17.1895C17.3028 17.1895 16.8498 17.0924 16.4615 16.8983C16.0797 16.6977 15.7787 16.4259 15.5587 16.0829C15.3451 15.7399 15.2286 15.3516 15.2092 14.918H16.5974C16.6362 15.2221 16.7592 15.4713 16.9663 15.6654C17.1734 15.8531 17.4581 15.947 17.8205 15.947C18.1635 15.947 18.4224 15.879 18.5971 15.7431C18.7783 15.6072 18.8689 15.4389 18.8689 15.2383C18.8689 15.0701 18.8107 14.9277 18.6942 14.8112C18.5777 14.6947 18.4321 14.6009 18.2574 14.5297C18.0826 14.452 17.8399 14.3614 17.5293 14.2579C17.0763 14.109 16.7042 13.9634 16.4129 13.821C16.1282 13.6722 15.8823 13.4618 15.6752 13.19C15.4681 12.9117 15.3645 12.5526 15.3645 12.1125C15.3645 11.7371 15.4584 11.4006 15.6461 11.1029C15.8337 10.8052 16.1055 10.5722 16.4615 10.404C16.8239 10.2292 17.2478 10.1419 17.7332 10.1419C18.1991 10.1419 18.6133 10.2389 18.9757 10.4331C19.3381 10.6272 19.6229 10.8926 19.83 11.2291C20.0371 11.5656 20.1503 11.941 20.1698 12.3552H18.7816C18.7622 12.0704 18.6586 11.8374 18.4709 11.6562C18.2833 11.475 18.0373 11.3844 17.7332 11.3844C17.4225 11.3844 17.1798 11.4556 17.0051 11.598C16.8368 11.7339 16.7527 11.9119 16.7527 12.1319C16.7527 12.3002 16.811 12.4426 16.9274 12.559C17.0439 12.6755 17.1863 12.7694 17.3546 12.8406C17.5293 12.9117 17.7752 12.9991 18.0923 13.1027C18.5389 13.245 18.9078 13.3874 19.199 13.5298C19.4902 13.6657 19.7394 13.8696 19.9465 14.1414C20.1536 14.4067 20.2571 14.7562 20.2571 15.1898C20.2571 15.5716 20.16 15.9146 19.9659 16.2188C19.7782 16.5165 19.4999 16.7527 19.131 16.9274C18.7622 17.1022 18.3253 17.1895 17.8205 17.1895Z" fill="#11244D"/>
</svg>
