<svg width="24" height="24" viewBox="0 0 24 24" fill="none" xmlns="http://www.w3.org/2000/svg">
<rect width="24" height="24" rx="4" fill="#EFC695"/>
<g clip-path="url(#clip0_2123_257049)">
<path fill-rule="evenodd" clip-rule="evenodd" d="M12.3734 16.8749C14.4978 16.8749 16.1228 15.3894 16.1228 13.4999C16.1228 12.382 15.596 11.8407 14.6677 10.9158C13.904 10.155 12.9569 9.19964 12.5618 7.60909C12.3456 7.78113 12.1345 7.99512 11.9648 8.24596C11.5995 8.78591 11.4304 9.47459 11.8791 10.3719C12.2342 11.0822 12.3813 12.0846 11.6705 12.7954C11.2471 13.2188 10.5228 13.5168 9.73679 13.1874C9.38372 13.0395 9.09153 12.7928 8.8483 12.4839C8.71239 12.7686 8.62501 13.1161 8.625 13.4999C8.62496 15.3972 10.2477 16.8749 12.3734 16.8749ZM13.5108 6.37476C13.4986 6.168 13.3305 6.00153 13.1302 6.0543C11.8485 6.392 9.57188 8.27309 10.8729 10.875C11.1311 11.3914 11.0862 11.7887 10.875 11.9999C10.5289 12.346 9.86352 12.3727 9.31957 11.0428C9.23962 10.8473 9.01969 10.7375 8.83827 10.8456C8.01208 11.3379 7.50003 12.4015 7.5 13.4999C7.49994 16.1339 9.74841 17.9999 12.3734 17.9999C14.9984 17.9999 17.2478 16.1249 17.2478 13.4999C17.2478 11.897 16.4024 11.0554 15.5147 10.1715C14.5916 9.2526 13.6228 8.28805 13.5108 6.37476Z" fill="white"/>
</g>
<defs>
<clipPath id="clip0_2123_257049">
<rect width="12" height="12" fill="white" transform="translate(6 6)"/>
</clipPath>
</defs>
</svg>
