<svg width="24" height="24" viewBox="0 0 24 24" fill="none" xmlns="http://www.w3.org/2000/svg">
<rect width="24" height="24" rx="4" fill="#98B4DF"/>
<path d="M8.89368 14.1596C8.89368 14.2562 8.81506 14.3346 8.71808 14.3346H8.15481C8.09842 14.3346 8.04545 14.3076 8.01244 14.262L6.17689 11.7284C6.07715 11.5908 5.85891 11.6611 5.85891 11.8309V14.1596C5.85891 14.2562 5.78029 14.3346 5.68331 14.3346H5.1756C5.07862 14.3346 5 14.2562 5 14.1596V9.84055C5 9.7439 5.07862 9.66555 5.1756 9.66555H5.79396C5.84999 9.66555 5.90265 9.6922 5.93572 9.73727L7.71741 12.1659C7.81765 12.3026 8.03477 12.2319 8.03477 12.0627V9.84055C8.03477 9.74391 8.11339 9.66555 8.21037 9.66555H8.71808C8.81506 9.66555 8.89368 9.7439 8.89368 9.84055V14.1596Z" fill="white"/>
<path d="M12.7454 14.1596C12.7454 14.2562 12.6668 14.3346 12.5698 14.3346H9.85468C9.7577 14.3346 9.67907 14.2562 9.67907 14.1596V9.84055C9.67907 9.7439 9.75769 9.66555 9.85468 9.66555H12.5698C12.6668 9.66555 12.7454 9.7439 12.7454 9.84055V10.3656C12.7454 10.4622 12.6668 10.5406 12.5698 10.5406H10.7136C10.6166 10.5406 10.538 10.6189 10.538 10.7156V11.3526C10.538 11.4492 10.6166 11.5276 10.7136 11.5276H12.5275C12.6245 11.5276 12.7031 11.6059 12.7031 11.7026V12.2276C12.7031 12.3242 12.6245 12.4026 12.5275 12.4026H10.7136C10.6166 12.4026 10.538 12.4809 10.538 12.5776V13.2846C10.538 13.3812 10.6166 13.4596 10.7136 13.4596H12.5698C12.6668 13.4596 12.7454 13.5379 12.7454 13.6346V14.1596Z" fill="white"/>
<path d="M17.9318 14.2012C17.9125 14.2795 17.8421 14.3346 17.7612 14.3346L16.9729 14.3345C16.8904 14.3345 16.8191 14.2774 16.8014 14.1971L16.2963 11.9088C16.2558 11.7254 15.9933 11.7257 15.9532 11.9091L15.4525 14.1968C15.4349 14.2772 15.3635 14.3345 15.2809 14.3345L14.5184 14.3346C14.4377 14.3346 14.3673 14.2796 14.3479 14.2014L13.2792 9.88245C13.252 9.77214 13.3357 9.66555 13.4497 9.66555L14.1728 9.66553C14.2559 9.66553 14.3277 9.72363 14.3447 9.80472L14.8583 12.2536C14.8969 12.4375 15.1597 12.4398 15.2014 12.2565L15.7603 9.8018C15.7785 9.7221 15.8496 9.66553 15.9316 9.66553H16.3223C16.4044 9.66553 16.4756 9.72225 16.4936 9.80209L17.0634 12.3248C17.104 12.5044 17.3597 12.5078 17.405 12.3292L18.0469 9.79768C18.0666 9.71999 18.1367 9.66555 18.2172 9.66555H18.8243C18.9382 9.66555 19.022 9.77198 18.9949 9.88225L17.9318 14.2012Z" fill="white"/>
</svg>
