<svg width="34" height="34" viewBox="0 0 34 34" fill="none" xmlns="http://www.w3.org/2000/svg">
<path d="M3.88306 16.4117H13.4394L20.759 20.9439C20.759 20.9439 22.5957 21.6588 21.5764 23.5325" stroke="currentColor" stroke-miterlimit="10"/>
<path d="M3.88306 23.6435H9.51071L18.5791 28.4825L29.0588 26.0541C29.0588 26.0541 29.0801 23.3367 26.3299 23.26L19.8528 23.9722L15.1277 21.7808" stroke="currentColor" stroke-miterlimit="10"/>
<path d="M25.8851 15.0914C25.8851 16.4501 24.8127 17.5568 23.496 17.5568C22.1794 17.5568 21.1069 16.4501 21.1069 15.0914C21.1069 13.7327 23.496 10.2155 23.496 10.2155C23.496 10.2155 25.8851 13.7327 25.8851 15.0914Z" stroke="#E21B25" stroke-miterlimit="10"/>
<path d="M17.5816 5.35071L18.6541 7.36684L20.6078 8.47352L18.6541 9.56925L17.5816 11.5854L16.5092 9.56925L14.5554 8.47352L16.5092 7.36684L17.5816 5.35071Z" stroke="#E21B25" stroke-miterlimit="10"/>
</svg>
