<svg width="100" height="100" viewBox="0 0 100 100" fill="none" xmlns="http://www.w3.org/2000/svg">
<path d="M64.059 86.6578H37.375L40.0568 57.4082H61.3772L64.059 86.6578Z" stroke="currentColor" stroke-width="2" stroke-miterlimit="10" stroke-linejoin="round"/>
<path d="M70.3612 20.6098C65.3999 16.5661 58.159 14.0051 49.9795 14.0051C42.0681 13.8703 34.9613 16.4313 30 20.3402L40.5931 50.8029H59.7681L70.3612 20.6098Z" stroke="currentColor" stroke-width="2" stroke-miterlimit="10" stroke-linejoin="round"/>
<path d="M37.375 24.3843L41.9341 42.0418" stroke="currentColor" stroke-width="2" stroke-miterlimit="10" stroke-linecap="round"/>
<path d="M44.0791 14.4097L45.6882 28.2931" stroke="currentColor" stroke-width="2" stroke-miterlimit="10" stroke-linecap="round"/>
<path d="M46.0901 32.876L47.6992 46.7594" stroke="currentColor" stroke-width="2" stroke-miterlimit="10" stroke-linecap="round"/>
<path d="M56.6339 33.8315L54.1516 50.8315" stroke="currentColor" stroke-width="2" stroke-miterlimit="10" stroke-linecap="round"/>
<path d="M58.1233 23.3315L57.1304 30.3315" stroke="currentColor" stroke-width="2" stroke-miterlimit="10" stroke-linecap="round"/>
<path d="M52.7954 17.9141L52.259 31.5279" stroke="currentColor" stroke-width="2" stroke-miterlimit="10" stroke-linecap="round"/>
<path d="M59.5002 41.0984L64.8639 21.0146" stroke="currentColor" stroke-width="2" stroke-miterlimit="10" stroke-linecap="round"/>
<path d="M60.7067 57.4079H40.5932C38.85 57.4079 37.375 55.9252 37.375 54.173C37.375 52.4207 38.85 50.938 40.5932 50.938H60.7067C62.4499 50.938 63.9249 52.4207 63.9249 54.173C64.059 55.9252 62.584 57.4079 60.7067 57.4079Z" stroke="#E21B25" stroke-width="2" stroke-miterlimit="10"/>
</svg>
