<svg width="24" height="24" viewBox="0 0 24 24" fill="none" xmlns="http://www.w3.org/2000/svg">
<path d="M11.879 20.8331C11.5654 20.8331 11.2518 20.7446 10.983 20.5676C10.4902 20.2578 10.1318 19.7267 10.1318 19.0629C10.1318 18.0893 10.9382 17.3369 11.879 17.3369C12.8198 17.3369 13.6262 18.1335 13.6262 19.0629C13.671 20.0808 12.8646 20.8331 11.879 20.8331Z" stroke="#E21B25" stroke-miterlimit="10"/>
<path d="M16.3153 18.6054C16.0174 18.5625 15.7317 18.4355 15.5006 18.2307C15.0749 17.8691 14.8132 17.2738 14.8979 16.6856C15.0311 15.7612 15.9 15.1572 16.7936 15.286C17.6872 15.4148 18.3441 16.2814 18.217 17.1638C18.1263 18.0943 17.2514 18.7403 16.3153 18.6054Z" stroke="currentColor" stroke-miterlimit="10"/>
<path d="M17.5525 18.4771C17.7718 19.3665 18.6232 20.0896 19.8998 20.2735" stroke="currentColor" stroke-miterlimit="10" stroke-linecap="round"/>
<path d="M14.502 19.0844H13.628" stroke="#E21B25" stroke-miterlimit="10" stroke-linecap="round"/>
<path d="M11.6344 17.3349L10.0325 2.82581" stroke="#E21B25" stroke-miterlimit="10" stroke-linecap="round"/>
<path d="M15.2561 15.9234L4.02057 5.97791" stroke="currentColor" stroke-miterlimit="10" stroke-linecap="round"/>
</svg>
