<svg width="24" height="24" viewBox="0 0 24 24" fill="none" xmlns="http://www.w3.org/2000/svg">
<path d="M10.6075 3.1277C11.3472 2.29077 12.6528 2.29077 13.3925 3.1277L14.0222 3.84015C14.6056 4.50019 15.4607 4.85439 16.3399 4.80018L17.289 4.74167C18.4039 4.67293 19.3271 5.59614 19.2583 6.711L19.1998 7.66005C19.1456 8.53928 19.4998 9.39439 20.1598 9.97777L20.8723 10.6075C21.7092 11.3472 21.7092 12.6528 20.8723 13.3925L20.1598 14.0222C19.4998 14.6056 19.1456 15.4607 19.1998 16.3399L19.2583 17.289C19.3271 18.4039 18.4039 19.3271 17.289 19.2583L16.34 19.1998C15.4607 19.1456 14.6056 19.4998 14.0222 20.1598L13.3925 20.8723C12.6528 21.7092 11.3472 21.7092 10.6075 20.8723L9.97777 20.1598C9.39439 19.4998 8.53928 19.1456 7.66005 19.1998L6.711 19.2583C5.59614 19.3271 4.67293 18.4039 4.74167 17.289L4.80018 16.3399C4.85439 15.4607 4.50019 14.6056 3.84015 14.0222L3.1277 13.3925C2.29077 12.6528 2.29077 11.3472 3.1277 10.6075L3.84015 9.97777C4.50019 9.39439 4.85439 8.53928 4.80018 7.66005L4.74167 6.711C4.67293 5.59614 5.59614 4.67293 6.711 4.74167L7.66005 4.80018C8.53928 4.85439 9.39439 4.50019 9.97777 3.84015L9.60313 3.50903L9.97777 3.84015L10.6075 3.1277Z" stroke="currentColor"/>
<path d="M9.25263 14H8.50622L6.77366 11.7174V14H6V10.5H6.79545L8.47898 12.6987V10.5H9.25263V14Z" fill="#E21B25"/>
<path d="M12.6497 14H10.0781V10.5H12.6497V11.1559H10.8518V11.8958H12.6116V12.5517H10.8518V13.3441H12.6497V14Z" fill="#E21B25"/>
<path d="M16.9648 14H16.1421L15.5047 11.5967L14.8727 14H14.05L13.0094 10.5H13.8756L14.5131 13.0292L15.205 10.5H15.8098L16.4963 13.0292L17.1283 10.5H18L16.9648 14Z" fill="#E21B25"/>
</svg>
