<svg width="34" height="34" viewBox="0 0 34 34" fill="none" xmlns="http://www.w3.org/2000/svg">
<path d="M16.8286 29.5135C16.3843 29.5135 15.94 29.3882 15.5592 29.1374C14.8611 28.6985 14.3533 27.9461 14.3533 27.0057C14.3533 25.6264 15.4958 24.5605 16.8286 24.5605C18.1614 24.5605 19.3038 25.6891 19.3038 27.0057C19.3673 28.4477 18.2249 29.5135 16.8286 29.5135Z" stroke="#E21B25" stroke-miterlimit="10"/>
<path d="M23.1133 26.3577C22.6913 26.2969 22.2865 26.117 21.9591 25.8268C21.3561 25.3146 20.9853 24.4713 21.1054 23.6379C21.2941 22.3283 22.525 21.4728 23.7909 21.6552C25.0568 21.8376 25.9875 23.0654 25.8074 24.3154C25.679 25.6337 24.4395 26.5488 23.1133 26.3577Z" stroke="currentColor" stroke-miterlimit="10"/>
<path d="M24.866 26.1758C25.1767 27.4358 26.3829 28.4602 28.1913 28.7208" stroke="currentColor" stroke-miterlimit="10" stroke-linecap="round"/>
<path d="M20.5446 27.0361H19.3063" stroke="#E21B25" stroke-miterlimit="10" stroke-linecap="round"/>
<path d="M16.4822 24.5578L14.2128 4.0033" stroke="#E21B25" stroke-miterlimit="10" stroke-linecap="round"/>
<path d="M21.6128 22.5582L5.69586 8.46875" stroke="currentColor" stroke-miterlimit="10" stroke-linecap="round"/>
</svg>
