<svg width="34" height="34" viewBox="0 0 34 34" fill="none" xmlns="http://www.w3.org/2000/svg">
<path d="M13.3753 27.1911C10.3083 25.2993 8.17432 21.09 8.17432 16.2009C8.17432 9.54261 12.1321 4.14502 17.0144 4.14502C21.8966 4.14502 25.8544 9.54261 25.8544 16.2009C25.8544 21.0493 23.7558 25.2292 20.7299 27.1434" stroke="#E21B25" stroke-miterlimit="10"/>
<path d="M13.3506 22.3004V29.8253H20.6785V22.3004" stroke="currentColor" stroke-miterlimit="10"/>
<path d="M22.7111 17.7408C22.0359 21.5464 19.7403 24.6838 17.0125 24.6838C14.2194 24.6838 11.88 21.4366 11.2593 17.5" stroke="currentColor" stroke-miterlimit="10"/>
<path d="M9.66699 17.6129C17.4807 15.7063 20.3249 8.98633 20.3249 8.98633C20.3249 8.98633 19.7748 13.8682 23.7004 19.3006" stroke="#E21B25" stroke-miterlimit="10" stroke-linejoin="round"/>
</svg>
