<svg width="34" height="34" viewBox="0 0 34 34" fill="none" xmlns="http://www.w3.org/2000/svg">
<path d="M7.08793 16.0667L3.41266 12.3656" stroke="#E21B25" stroke-miterlimit="10" stroke-linecap="round"/>
<path d="M8.51734 14.6276L4.84207 10.9265" stroke="#E21B25" stroke-miterlimit="10" stroke-linecap="round"/>
<path d="M9.94776 13.1896L6.27249 9.48853" stroke="#E21B25" stroke-miterlimit="10" stroke-linecap="round"/>
<path d="M11.3779 11.7511L7.70261 8.05005" stroke="#E21B25" stroke-miterlimit="10" stroke-linecap="round"/>
<path d="M12.8078 10.3129L9.13251 6.61182" stroke="#E21B25" stroke-miterlimit="10" stroke-linecap="round"/>
<path d="M14.238 8.8744L10.5628 5.17334" stroke="#E21B25" stroke-miterlimit="10" stroke-linecap="round"/>
<path d="M15.6675 7.43532L11.9922 3.73425" stroke="#E21B25" stroke-miterlimit="10" stroke-linecap="round"/>
<path d="M6.84006 16.3174L7.99661 17.4821C8.76765 18.2585 14.2432 17.9208 14.2432 17.9208L28.5358 30.7718C29.0258 31.2101 29.7968 31.1584 30.2902 30.6615C30.7836 30.1647 30.8349 29.3883 30.3997 28.8948L17.5615 14.5274C17.5615 14.5274 17.8712 8.98755 17.1516 8.26286L15.995 7.09819L6.84006 16.3174Z" stroke="currentColor" stroke-miterlimit="10"/>
</svg>
