<svg width="24" height="24" viewBox="0 0 24 24" fill="none" xmlns="http://www.w3.org/2000/svg">
<path d="M14.3171 7.0636H9.72138C9.5616 8.20596 9.07808 9.28484 8.32311 10.1836C7.56815 11.0823 6.88573 11.7666 5.75323 12.1626V20.3692H18.2468V12.1626C17.1143 11.7666 16.4703 11.0823 15.7154 10.1836C14.9604 9.28484 14.4769 8.20596 14.3171 7.0636Z" fill="white" stroke="currentColor" stroke-miterlimit="10"/>
<path d="M10.4638 7.06339L10.4638 5.50654C10.4638 4.97136 10.6133 4.46415 10.9635 4.09742C11.2425 3.80525 11.601 3.62867 12.005 3.63076C12.4112 3.63118 12.7952 3.8208 13.0479 4.12248C13.2765 4.39531 13.5362 4.81184 13.5362 5.50654V7.06339" stroke="currentColor" stroke-miterlimit="10"/>
<path d="M14.7054 13.0312H9.29456V17.2806H14.7054V13.0312Z" stroke="#E21B25" stroke-miterlimit="10"/>
</svg>
