<svg width="24" height="24" viewBox="0 0 24 24" fill="none" xmlns="http://www.w3.org/2000/svg">
<path d="M12.4124 6.21372C14.8857 6.21372 16.8907 5.71682 16.8907 5.10387C16.8907 4.49091 14.8857 3.99402 12.4124 3.99402C9.9391 3.99402 7.93408 4.49091 7.93408 5.10387C7.93408 5.71682 9.9391 6.21372 12.4124 6.21372Z" stroke="currentColor" stroke-miterlimit="10"/>
<path d="M16.8907 5.10352V19.3774C16.8907 20.1173 14.8832 20.7339 12.4124 20.7339C9.94161 20.7339 7.93408 20.1173 7.93408 19.3774V14.5681" stroke="currentColor" stroke-miterlimit="10"/>
<path d="M7.93427 5.19617C7.50188 6.89177 6.05028 7.97079 3.11621 8.27908C6.32825 13.3351 10.0344 17.3428 15.3776 20.4258C11.1154 14.6299 8.70639 9.94385 7.93427 5.19617Z" stroke="#E21B25" stroke-miterlimit="10" stroke-linejoin="round"/>
<path d="M11.5206 5.10352L13.3038 5.10352" stroke="currentColor" stroke-linecap="round"/>
</svg>
