<svg width="100" height="100" viewBox="0 0 100 100" fill="none" xmlns="http://www.w3.org/2000/svg">
<g clip-path="url(#clip0_12_2636)">
<path d="M48.8519 55.7422L59.847 44.7471" stroke="currentColor" stroke-width="2" stroke-miterlimit="10" stroke-linecap="round"/>
<path d="M53.844 60.7343L64.8391 49.7392" stroke="currentColor" stroke-width="2" stroke-miterlimit="10" stroke-linecap="round"/>
<path d="M58.6435 65.5337L69.6386 54.5386" stroke="currentColor" stroke-width="2" stroke-miterlimit="10" stroke-linecap="round"/>
<path d="M63.6343 70.5246L74.6295 59.5295" stroke="currentColor" stroke-width="2" stroke-miterlimit="10" stroke-linecap="round"/>
<path d="M68.6264 75.5167L79.6215 64.5215" stroke="currentColor" stroke-width="2" stroke-miterlimit="10" stroke-linecap="round"/>
<path d="M73.6173 80.5076L84.6124 69.5125" stroke="currentColor" stroke-width="2" stroke-miterlimit="10" stroke-linecap="round"/>
<path d="M18.3285 25.2188L29.3237 14.2237" stroke="currentColor" stroke-width="2" stroke-miterlimit="10" stroke-linecap="round"/>
<path d="M21.3996 28.2899L32.3948 17.2948" stroke="currentColor" stroke-width="2" stroke-miterlimit="10" stroke-linecap="round"/>
<path d="M24.472 31.3623L35.4671 20.3672" stroke="currentColor" stroke-width="2" stroke-miterlimit="10" stroke-linecap="round"/>
<path d="M27.5431 34.4334L38.5383 23.4383" stroke="currentColor" stroke-width="2" stroke-miterlimit="10" stroke-linecap="round"/>
<path d="M30.6142 37.5045L41.6093 26.5094" stroke="currentColor" stroke-width="2" stroke-miterlimit="10" stroke-linecap="round"/>
<path d="M33.6866 40.5769L44.6818 29.5818" stroke="currentColor" stroke-width="2" stroke-miterlimit="10" stroke-linecap="round"/>
<path d="M36.7577 43.648L47.7528 32.6529" stroke="currentColor" stroke-width="2" stroke-miterlimit="10" stroke-linecap="round"/>
<path d="M39.8301 46.7204L50.8252 35.7252" stroke="currentColor" stroke-width="2" stroke-miterlimit="10" stroke-linecap="round"/>
<path d="M42.9012 49.7915L53.8964 38.7963" stroke="currentColor" stroke-width="2" stroke-miterlimit="10" stroke-linecap="round"/>
<path d="M45.9723 52.8626L56.9674 41.8674" stroke="currentColor" stroke-width="2" stroke-miterlimit="10" stroke-linecap="round"/>
<path d="M26.0598 10.9599L13.0122 24.0075C12.2792 24.7405 12.6073 25.9482 13.3752 26.7161L73.6556 86.9964C74.6154 87.9563 75.7778 87.9458 76.3642 87.3594L89.4118 74.3118" stroke="#E21B25" stroke-width="2" stroke-miterlimit="10" stroke-linecap="round" stroke-linejoin="round"/>
</g>
<defs>
<clipPath id="clip0_12_2636">
<rect width="92.5796" height="21.3546" fill="white" transform="translate(25.1 10) rotate(45)"/>
</clipPath>
</defs>
</svg>
