<svg width="100" height="100" viewBox="0 0 100 100" fill="none" xmlns="http://www.w3.org/2000/svg">
<path d="M53.4946 26.4752C62.9381 26.4752 70.5936 24.578 70.5936 22.2376C70.5936 19.8972 62.9381 18 53.4946 18C44.051 18 36.3955 19.8972 36.3955 22.2376C36.3955 24.578 44.051 26.4752 53.4946 26.4752Z" stroke="currentColor" stroke-width="2" stroke-miterlimit="10"/>
<path d="M70.5936 22.2378V76.7381C70.5936 79.5632 62.9285 81.9174 53.4946 81.9174C44.0606 81.9174 36.3955 79.5632 36.3955 76.7381V58.3752" stroke="currentColor" stroke-width="2" stroke-miterlimit="10"/>
<path d="M36.3962 22.5908C34.7453 29.0649 29.2028 33.1848 18 34.3619C30.2642 53.6666 44.4151 68.9691 64.816 80.7402C48.5425 58.6105 39.3443 40.7184 36.3962 22.5908Z" stroke="#E21B25" stroke-width="2" stroke-miterlimit="10" stroke-linejoin="round"/>
<path d="M53.9663 22.2431C57.4728 22.2431 60.3153 21.9269 60.3153 21.5368C60.3153 21.1468 57.4728 20.8306 53.9663 20.8306C50.4598 20.8306 47.6172 21.1468 47.6172 21.5368C47.6172 21.9269 50.4598 22.2431 53.9663 22.2431Z" stroke="currentColor" stroke-width="2" stroke-miterlimit="10"/>
</svg>
