<svg width="100" height="100" viewBox="0 0 100 100" fill="none" xmlns="http://www.w3.org/2000/svg">
<path d="M62.4243 26.8623H41.1889C40.4505 32.1408 38.2163 37.126 34.7279 41.2787C31.2394 45.4314 28.0861 48.5936 22.8532 50.4233V88.3436H80.5822V50.4233C75.3493 48.5936 72.3738 45.4314 68.8853 41.2787C65.3968 37.126 63.1626 32.1408 62.4243 26.8623Z" stroke="currentColor" stroke-width="2" stroke-miterlimit="10"/>
<path d="M44.6208 26.8613L44.6208 19.6675C44.6208 17.1946 45.3116 14.8509 46.9297 13.1564C48.2188 11.8064 49.8753 10.9904 51.7421 11.0001C53.6192 11.002 55.3934 11.8782 56.5612 13.2722C57.6173 14.5329 58.8173 16.4575 58.8173 19.6675V26.8613" stroke="currentColor" stroke-width="2" stroke-miterlimit="10"/>
<path d="M49.1162 57.603H29.5143V77.2379H49.1162V57.603Z" stroke="#E21B25" stroke-width="2" stroke-miterlimit="10"/>
<path d="M74.1152 57.603H54.5134V77.2379H74.1152V57.603Z" stroke="#E21B25" stroke-width="2" stroke-miterlimit="10"/>
<path d="M80.5827 50.7168C85.3559 50.7168 90.246 50.7168 92.5612 47.7018C95.5109 43.8605 92.5612 37.998 86.2196 37.998" stroke="currentColor" stroke-width="2"/>
<path d="M22.8532 50.7168C17.1772 50.7168 12.6513 49.4879 8.60895 53.3409C5.1013 56.6843 7.383 64.4766 14.9241 64.4766" stroke="currentColor" stroke-width="2"/>
</svg>
