<svg width="100" height="100" viewBox="0 0 100 100" fill="none" xmlns="http://www.w3.org/2000/svg">
<path d="M35.5101 44.528C39.9388 44.528 43.5289 40.9378 43.5289 36.5091C43.5289 32.0804 39.9388 28.4902 35.5101 28.4902C31.0814 28.4902 27.4912 32.0804 27.4912 36.5091C27.4912 40.9378 31.0814 44.528 35.5101 44.528Z" stroke="#E21B25" stroke-width="2" stroke-miterlimit="10"/>
<path d="M37.0566 20.0032C36.8778 20.0032 36.8778 20.0032 37.0566 20.0032H36.8778C36.3414 20.0032 35.8051 20.0032 35.2688 20.0032C26.3299 19.826 19 27.091 19 35.9507C19 44.8105 26.3299 52.0755 35.2688 52.0755C35.9839 52.0755 36.5202 52.0755 37.2353 51.8983L80.3208 46.0508V25.8506L37.0566 20.0032Z" stroke="currentColor" stroke-width="2" stroke-miterlimit="10"/>
<path d="M69.9434 24.7168V47.3583" stroke="currentColor" stroke-width="2" stroke-miterlimit="10"/>
<path d="M29.3779 51.1318L35.3733 80.3771H48.2459L44.7191 63.0796L42.2504 51.4885" stroke="currentColor" stroke-width="2" stroke-miterlimit="10"/>
<path d="M45.416 50.6602L48.2462 63.396" stroke="currentColor" stroke-width="2" stroke-miterlimit="10"/>
</svg>
