<svg width="34" height="34" viewBox="0 0 34 34" fill="none" xmlns="http://www.w3.org/2000/svg">
<path d="M11.3155 15.5832C13.1411 15.5832 14.6211 14.1032 14.6211 12.2776C14.6211 10.452 13.1411 8.97205 11.3155 8.97205C9.4899 8.97205 8.00995 10.452 8.00995 12.2776C8.00995 14.1032 9.4899 15.5832 11.3155 15.5832Z" stroke="#E21B25" stroke-miterlimit="10"/>
<path d="M11.8417 5.66781C11.7701 5.66781 11.7701 5.66781 11.8417 5.66781H11.7701C11.5554 5.66781 11.3406 5.66781 11.1258 5.66781C7.5463 5.59477 4.61108 8.58956 4.61108 12.2417C4.61108 15.8939 7.5463 18.8887 11.1258 18.8887C11.4122 18.8887 11.627 18.8887 11.9133 18.8157L29.1666 16.4052V8.07826L11.8417 5.66781Z" stroke="currentColor" stroke-miterlimit="10"/>
<path d="M25.3889 7.55566V17.0001" stroke="currentColor" stroke-miterlimit="10"/>
<path d="M8.44867 18.1993L10.7897 30.2221H15.9445L14.5322 22.9602L13.7178 18.4081" stroke="currentColor" stroke-miterlimit="10"/>
</svg>
