<svg width="24" height="24" viewBox="0 0 24 24" fill="none" xmlns="http://www.w3.org/2000/svg">
<path d="M16.7642 5.0807L22.5372 9.63121L18.9919 16.0706L3.75985 19.1582L1.53217 8.16826L16.7642 5.0807ZM16.7278 5.05202L16.728 5.05216C16.7279 5.05211 16.7279 5.05207 16.7278 5.05202L16.7897 4.97349L16.7278 5.05202ZM18.9695 16.1112C18.9696 16.1111 18.9696 16.111 18.9697 16.111L18.9695 16.1112L19.0571 16.1594L18.9695 16.1112ZM22.6038 9.6837C22.6037 9.68365 22.6037 9.68359 22.6036 9.68353L22.6038 9.6837Z" stroke="black"/>
<path d="M8.49501 14.3365L7.62048 14.5224L6.49517 13.4527L5.89713 14.8887L5.02774 15.0735L5.89955 13.0535L4.37721 11.6336L5.2466 11.4488L6.28243 12.4518L6.81048 11.1164L7.69015 10.9294L6.87587 12.8406L8.49501 14.3365Z" fill="#E21B25"/>
<path d="M9.6266 14.096L8.92183 14.2458L8.19414 10.8223L8.92463 10.667L9.39485 12.8792L10.5142 10.3292L11.2653 10.1695L11.993 13.593L11.2625 13.7483L10.7748 11.454L9.6266 14.096Z" fill="#E21B25"/>
<path d="M14.3003 13.1026L13.5647 13.259L12.9733 10.477L11.9702 10.6903L11.8338 10.0487L14.5706 9.46695L14.707 10.1085L13.709 10.3207L14.3003 13.1026Z" fill="#E21B25"/>
<path d="M18.6 10.5C18.6 11.1075 18.1075 11.6 17.5 11.6C16.8925 11.6 16.4 11.1075 16.4 10.5C16.4 9.89249 16.8925 9.4 17.5 9.4C18.1075 9.4 18.6 9.89249 18.6 10.5Z" stroke="black" stroke-width="0.8"/>
</svg>
