<svg width="40" height="40" viewBox="0 0 40 40" fill="none" xmlns="http://www.w3.org/2000/svg">
<path d="M13.9469 29.3178C15.1426 30.8116 16.3556 32.6831 16.9933 33.8164C17.7697 35.2894 18.0885 36.2841 18.6673 38.0586C19.007 39.0359 19.3258 39.334 20.0016 39.334C20.7399 39.334 21.076 38.8349 21.336 38.0586C21.8732 36.3846 22.2925 35.1127 22.9476 33.8962C24.2403 31.5671 25.8762 29.4946 27.467 27.5052C27.9037 26.9472 30.6936 23.6617 31.9482 21.0554C31.9482 21.0554 33.4801 18.2065 33.4801 14.2243C33.4801 10.502 31.9656 7.91309 31.9656 7.91309L27.5848 9.08799L24.9161 16.0958L24.2576 17.0524L24.119 17.2326L23.9388 17.451L23.6407 17.8079L23.204 18.2446L20.8334 20.1751L14.9208 23.5993L13.9469 29.3178Z" fill="#34A853"/>
<path d="M7.83337 20.5771C9.28554 23.8834 12.0547 26.7704 13.947 29.3178L23.9632 17.4509C23.9632 17.4509 22.5491 19.3017 20.0018 19.3017C17.1529 19.3017 14.8447 17.0316 14.8447 14.1653C14.8447 12.1933 16.0196 10.8416 16.0196 10.8416L9.22662 12.6543L7.83337 20.5771Z" fill="#FBBC04"/>
<path d="M24.081 1.28305C27.4047 2.35745 30.2536 4.60675 31.9657 7.93391L23.9597 17.4718C23.9597 17.4718 25.1346 16.0993 25.1346 14.1481C25.1346 11.2195 22.667 9.01178 19.9983 9.01178C17.4683 9.01178 16.0161 10.8452 16.0161 10.8452V4.82856L24.081 1.28305Z" fill="#4285F4"/>
<path d="M9.66321 5.48347C11.6526 3.11287 15.1392 0.666016 19.9566 0.666016C22.2856 0.666016 24.0567 1.28293 24.0567 1.28293L16.016 10.8416H10.3217L9.66321 5.48347Z" fill="#1A73E8"/>
<path d="M7.83343 20.577C7.83343 20.577 6.5199 17.9672 6.5199 14.2069C6.5199 10.644 7.91315 7.5352 9.68417 5.50424L16.037 10.8589L7.83343 20.577Z" fill="#EA4335"/>
</svg>
