<svg width="904" height="452" viewBox="0 0 904 452" fill="none" xmlns="http://www.w3.org/2000/svg">
<g clip-path="url(#clip0_1266_124259)">
<mask id="mask0_1266_124259" style="mask-type:alpha" maskUnits="userSpaceOnUse" x="451" y="-1" width="350" height="493">
<path d="M451.379 491.898L451.379 -0.608887L800.269 347.616L451.379 491.898Z" fill="#D9D9D9"/>
</mask>
<g mask="url(#mask0_1266_124259)">
<path d="M333.03 -11.3623L378.582 101.189L379.043 102.329L378.292 103.305L304.176 199.547L424.61 216.448L425.831 216.619L426.301 217.756L472.75 329.942L547.632 234.292L548.391 233.323L549.613 233.484L670.178 249.427L624.626 136.876L624.165 135.736L624.916 134.761L699.032 38.5185L578.598 21.617L577.377 21.4458L576.907 20.3089L530.457 -91.8764L455.575 3.77325L454.817 4.74253L453.595 4.58096L333.03 -11.3623Z" stroke="#FFA900" stroke-width="4.30476"/>
<path d="M518.3 -16.1024L473.078 -105.567L451.652 -7.66982L450.984 -4.61849L448.367 -6.32999L364.385 -61.241L394.872 34.2333L395.823 37.209L392.698 37.0331L292.46 31.3896L366.691 98.8581L369.005 100.961L366.211 102.368L276.575 147.504L374.66 168.889L377.717 169.555L376.002 172.168L320.986 255.989L416.643 225.56L419.624 224.612L419.448 227.73L413.794 327.777L481.391 253.688L483.498 251.379L484.907 254.167L530.13 343.632L551.555 245.735L552.223 242.683L554.841 244.395L638.822 299.306L608.335 203.831L607.385 200.856L610.509 201.032L710.747 206.675L636.516 139.207L634.202 137.104L636.996 135.697L726.632 90.5608L628.548 69.176L625.49 68.5094L627.205 65.8968L682.221 -17.9246L586.565 12.5044L583.583 13.4528L583.759 10.3345L589.414 -89.7125L521.816 -15.6231L519.709 -13.3139L518.3 -16.1024Z" stroke="#DADFEA" stroke-width="4.30476"/>
<path d="M510.987 37.3482L484.598 -14.8584L472.095 42.269L471.428 45.3203L468.81 43.6088L419.803 11.566L437.594 67.2792L438.544 70.255L435.42 70.079L376.927 66.7858L420.244 106.157L422.557 108.259L419.763 109.666L367.457 136.005L424.694 148.484L427.751 149.15L426.036 151.763L393.932 200.676L449.752 182.92L452.733 181.971L452.557 185.09L449.257 243.471L488.703 200.237L490.81 197.928L492.22 200.716L518.609 252.923L531.111 195.796L531.779 192.744L534.397 194.456L583.403 226.499L565.613 170.785L564.663 167.81L567.787 167.985L626.28 171.279L582.963 131.908L580.649 129.805L583.443 128.398L635.749 102.06L578.513 89.5806L575.456 88.914L577.171 86.3015L609.275 37.3882L553.455 55.1447L550.474 56.0931L550.65 52.9748L553.95 -5.40677L514.504 37.8275L512.397 40.1367L510.987 37.3482Z" stroke="#8712FC" stroke-width="4.30476"/>
<path d="M522.106 70.2939L508.451 79.687L506.834 80.7994L505.575 79.295L494.943 66.592L487.823 81.541L486.98 83.3113L485.136 82.6369L469.565 76.9415L470.888 93.4409L471.045 95.3948L469.11 95.7309L452.772 98.5693L462.183 112.198L463.297 113.812L461.79 115.068L449.063 125.68L464.041 132.786L465.814 133.628L465.138 135.468L459.432 151.01L475.963 149.689L477.921 149.533L478.257 151.464L481.101 167.771L494.756 158.378L496.373 157.265L497.632 158.77L508.264 171.473L515.384 156.524L516.227 154.753L518.071 155.428L533.642 161.123L532.319 144.624L532.162 142.67L534.097 142.334L550.435 139.496L541.024 125.867L539.909 124.253L541.417 122.996L554.144 112.385L539.166 105.279L537.393 104.437L538.068 102.597L543.775 87.0552L527.244 88.3755L525.286 88.5319L524.949 86.6008L522.106 70.2939Z" stroke="#E21B25" stroke-width="4.30476"/>
<path d="M508.815 101.889L502.645 104.972L501.669 105.46L500.697 104.963L494.557 101.821L492.378 108.355L492.034 109.389L490.995 109.723L484.427 111.835L487.516 117.993L488.005 118.967L487.507 119.937L484.359 126.065L490.906 128.24L491.941 128.584L492.276 129.621L494.392 136.176L500.562 133.093L501.538 132.605L502.509 133.102L508.649 136.244L510.828 129.71L511.173 128.676L512.212 128.342L518.779 126.23L515.691 120.072L515.202 119.098L515.7 118.128L518.848 112L512.301 109.825L511.265 109.481L510.931 108.444L508.815 101.889Z" stroke="#DADFEA" stroke-width="4.30476"/>
<path d="M668.823 248.368L565.276 168.273" stroke="#8712FC" stroke-width="4.30476"/>
<rect x="1.86639" y="-2.40368" width="36.4465" height="36.4465" transform="matrix(0.993006 -0.12564 -0.125879 -0.991115 682.205 290.824)" stroke="#8712FC" stroke-width="4.30476"/>
<path d="M421.579 -76.4261L471.129 44.6133" stroke="#8712FC" stroke-width="4.30476"/>
<path d="M581.628 314.491L532.078 193.451" stroke="#8712FC" stroke-width="4.30476"/>
<rect x="2.82047" y="-1.15023" width="36.4465" height="36.4465" transform="matrix(0.922908 0.38675 0.387488 -0.92115 570.584 358.723)" stroke="#8712FC" stroke-width="4.30476"/>
<path d="M530.216 -90.1754L512.492 39.3758" stroke="#8712FC" stroke-width="4.30476"/>
<path d="M472.991 328.241L490.715 198.69" stroke="#8712FC" stroke-width="4.30476"/>
<rect x="3.01881" y="0.41142" width="36.4465" height="36.4465" transform="matrix(0.605518 0.795511 0.797029 -0.604364 439.903 361.821)" stroke="#8712FC" stroke-width="4.30476"/>
<path d="M631.186 -47.868L550.938 55.4818" stroke="#8712FC" stroke-width="4.30476"/>
<path d="M372.021 285.933L452.269 182.584" stroke="#8712FC" stroke-width="4.30476"/>
<path d="M697.435 39.1606L576.165 88.6166" stroke="#8712FC" stroke-width="4.30476"/>
<rect x="-1.15243" y="-2.8151" width="36.4465" height="36.4465" transform="matrix(0.387488 -0.92115 -0.922908 -0.38675 741.755 45.8812)" stroke="#8712FC" stroke-width="4.30476"/>
<path d="M711.211 147.591L581.413 129.901" stroke="#8712FC" stroke-width="4.30476"/>
<rect x="0.412205" y="-3.01306" width="36.4465" height="36.4465" transform="matrix(0.797029 -0.604364 -0.605518 -0.795511 744.86 176.317)" stroke="#8712FC" stroke-width="4.30476"/>
<path d="M684.34 379.755L704.271 364.642L681.192 354.971L684.34 379.755Z" stroke="#DADFEA" stroke-width="4.30476"/>
<path d="M529.248 436.019L554.08 432.877L538.938 412.984L529.248 436.019Z" stroke="#DADFEA" stroke-width="4.30476"/>
<path d="M819.195 91.4404L816.047 66.6562L796.116 81.7692L819.195 91.4404Z" stroke="#DADFEA" stroke-width="4.30476"/>
<path d="M790.468 253.63L800.158 230.596L775.327 233.737L790.468 253.63Z" stroke="#DADFEA" stroke-width="4.30476"/>
</g>
<mask id="mask1_1266_124259" style="mask-type:alpha" maskUnits="userSpaceOnUse" x="102" y="-1" width="350" height="493">
<path d="M451.594 491.898L451.594 -0.608887L102.704 347.616L451.594 491.898Z" fill="#D9D9D9"/>
</mask>
<g mask="url(#mask1_1266_124259)">
<path d="M569.944 -11.3623L524.392 101.189L523.93 102.329L524.681 103.305L598.797 199.547L478.363 216.448L477.143 216.619L476.672 217.756L430.223 329.942L355.341 234.292L354.582 233.323L353.36 233.484L232.795 249.427L278.347 136.876L278.809 135.736L278.058 134.761L203.942 38.5185L324.376 21.617L325.596 21.4458L326.067 20.3089L372.516 -91.8764L447.398 3.77325L448.157 4.74253L449.379 4.58096L569.944 -11.3623Z" stroke="#FFA900" stroke-width="4.30476"/>
<path d="M384.673 -16.1024L429.896 -105.567L451.321 -7.66982L451.989 -4.61849L454.607 -6.32999L538.588 -61.241L508.101 34.2333L507.151 37.209L510.275 37.0331L610.513 31.3896L536.282 98.8581L533.968 100.961L536.762 102.368L626.398 147.504L528.314 168.889L525.256 169.555L526.971 172.168L581.987 255.989L486.331 225.56L483.349 224.612L483.525 227.73L489.18 327.777L421.582 253.688L419.475 251.379L418.066 254.167L372.844 343.632L351.418 245.735L350.75 242.683L348.133 244.395L264.151 299.306L294.638 203.831L295.589 200.856L292.464 201.032L192.226 206.675L266.457 139.207L268.771 137.104L265.977 135.697L176.341 90.5608L274.426 69.176L277.483 68.5094L275.768 65.8968L220.752 -17.9246L316.409 12.5044L319.39 13.4528L319.214 10.3345L313.56 -89.7125L381.157 -15.6231L383.264 -13.3139L384.673 -16.1024Z" stroke="#DADFEA" stroke-width="4.30476"/>
<path d="M391.986 37.3482L418.375 -14.8584L430.878 42.269L431.546 45.3203L434.163 43.6088L483.17 11.566L465.379 67.2792L464.429 70.255L467.553 70.079L526.046 66.7858L482.73 106.157L480.416 108.259L483.21 109.666L535.516 136.005L478.28 148.484L475.223 149.15L476.937 151.763L509.041 200.676L453.222 182.92L450.24 181.971L450.417 185.09L453.716 243.471L414.27 200.237L412.163 197.928L410.754 200.716L384.365 252.923L371.862 195.796L371.194 192.744L368.577 194.456L319.57 226.499L337.36 170.785L338.311 167.81L335.186 167.985L276.693 171.279L320.01 131.908L322.324 129.805L319.53 128.398L267.224 102.06L324.46 89.5806L327.517 88.914L325.803 86.3015L293.699 37.3882L349.518 55.1447L352.5 56.0931L352.323 52.9748L349.024 -5.40677L388.47 37.8275L390.577 40.1367L391.986 37.3482Z" stroke="#8712FC" stroke-width="4.30476"/>
<path d="M380.868 70.2939L394.522 79.687L396.139 80.7994L397.398 79.295L408.03 66.592L415.15 81.541L415.993 83.3113L417.837 82.6369L433.408 76.9415L432.085 93.4409L431.929 95.3948L433.863 95.7309L450.201 98.5693L440.79 112.198L439.676 113.812L441.183 115.068L453.91 125.68L438.933 132.786L437.159 133.628L437.835 135.468L443.541 151.01L427.01 149.689L425.053 149.533L424.716 151.464L421.872 167.771L408.217 158.378L406.6 157.265L405.341 158.77L394.709 171.473L387.59 156.524L386.747 154.753L384.903 155.428L369.332 161.123L370.654 144.624L370.811 142.67L368.876 142.334L352.538 139.496L361.949 125.867L363.064 124.253L361.557 122.996L348.829 112.385L363.807 105.279L365.581 104.437L364.905 102.597L359.199 87.0552L375.729 88.3755L377.687 88.5319L378.024 86.6008L380.868 70.2939Z" stroke="#E21B25" stroke-width="4.30476"/>
<path d="M394.158 101.889L400.329 104.972L401.305 105.46L402.276 104.963L408.416 101.821L410.595 108.355L410.94 109.389L411.978 109.723L418.546 111.835L415.457 117.993L414.969 118.967L415.467 119.937L418.615 126.065L412.068 128.24L411.032 128.584L410.697 129.621L408.581 136.176L402.411 133.093L401.435 132.605L400.464 133.102L394.324 136.244L392.145 129.71L391.8 128.676L390.762 128.342L384.194 126.23L387.283 120.072L387.771 119.098L387.273 118.128L384.125 112L390.672 109.825L391.708 109.481L392.043 108.444L394.158 101.889Z" stroke="#DADFEA" stroke-width="4.30476"/>
<path d="M234.151 248.368L337.698 168.273" stroke="#8712FC" stroke-width="4.30476"/>
<rect x="-1.86639" y="-2.40368" width="36.4465" height="36.4465" transform="matrix(-0.993006 -0.12564 0.125879 -0.991115 217.061 290.355)" stroke="#8712FC" stroke-width="4.30476"/>
<path d="M481.394 -76.4261L431.844 44.6133" stroke="#8712FC" stroke-width="4.30476"/>
<path d="M321.345 314.491L370.895 193.451" stroke="#8712FC" stroke-width="4.30476"/>
<rect x="-2.82047" y="-1.15023" width="36.4465" height="36.4465" transform="matrix(-0.922908 0.38675 -0.387488 -0.92115 327.184 360.905)" stroke="#8712FC" stroke-width="4.30476"/>
<path d="M372.758 -90.1754L390.481 39.3758" stroke="#8712FC" stroke-width="4.30476"/>
<path d="M429.982 328.241L412.259 198.69" stroke="#8712FC" stroke-width="4.30476"/>
<rect x="-3.01881" y="0.41142" width="36.4465" height="36.4465" transform="matrix(-0.605518 0.795511 -0.797029 -0.604364 459.415 366.624)" stroke="#8712FC" stroke-width="4.30476"/>
<path d="M271.787 -47.868L352.035 55.4818" stroke="#8712FC" stroke-width="4.30476"/>
<path d="M530.952 285.933L450.704 182.584" stroke="#8712FC" stroke-width="4.30476"/>
<path d="M205.538 39.1606L326.808 88.6166" stroke="#8712FC" stroke-width="4.30476"/>
<rect x="1.15243" y="-2.8151" width="36.4465" height="36.4465" transform="matrix(-0.387488 -0.92115 0.922908 -0.38675 162.111 48.0043)" stroke="#8712FC" stroke-width="4.30476"/>
<path d="M191.762 147.591L321.56 129.901" stroke="#8712FC" stroke-width="4.30476"/>
<rect x="-0.412205" y="-3.01306" width="36.4465" height="36.4465" transform="matrix(-0.797029 -0.604364 0.605518 -0.795511 157.456 175.819)" stroke="#8712FC" stroke-width="4.30476"/>
<path d="M218.633 379.755L198.702 364.642L221.781 354.971L218.633 379.755Z" stroke="#DADFEA" stroke-width="4.30476"/>
<path d="M373.725 436.019L348.893 432.877L364.035 412.984L373.725 436.019Z" stroke="#DADFEA" stroke-width="4.30476"/>
<path d="M83.7784 91.4404L86.9262 66.6562L106.857 81.7692L83.7784 91.4404Z" stroke="#DADFEA" stroke-width="4.30476"/>
<path d="M112.505 253.63L102.815 230.596L127.647 233.737L112.505 253.63Z" stroke="#DADFEA" stroke-width="4.30476"/>
</g>
<mask id="mask2_1266_124259" style="mask-type:alpha" maskUnits="userSpaceOnUse" x="451" y="-1" width="494" height="349">
<path d="M944.837 -0.252054L451.39 -0.252075L800.28 347.973L944.837 -0.252054Z" fill="#D9D9D9"/>
</mask>
<g mask="url(#mask2_1266_124259)">
<path d="M440.616 -118.376L553.382 -72.9111L554.525 -72.4503L555.502 -73.2L651.927 -147.175L668.861 -26.9702L669.033 -25.7521L670.172 -25.2823L782.571 21.0783L686.739 95.8177L685.768 96.5751L685.93 97.7946L701.903 218.13L589.138 172.665L587.995 172.204L587.018 172.954L490.592 246.929L473.658 126.724L473.487 125.506L472.348 125.036L359.948 78.6755L455.78 3.93604L456.752 3.17865L456.59 1.95921L440.616 -118.376Z" stroke="#FFA900" stroke-width="4.30476"/>
<path d="M435.867 66.541L346.231 21.4049L444.315 0.0200963L447.373 -0.646447L445.658 -3.25903L390.642 -87.0805L486.298 -56.6515L489.28 -55.7031L489.104 -58.8214L483.449 -158.868L551.047 -84.779L553.154 -82.4697L554.563 -85.2582L599.785 -174.723L621.211 -76.8256L621.879 -73.7743L624.496 -75.4858L708.478 -130.397L677.991 -34.9225L677.04 -31.9467L680.165 -32.1226L780.403 -37.7661L706.172 29.7024L703.858 31.8054L706.652 33.2122L796.288 78.3482L698.203 99.733L695.146 100.4L696.861 103.012L751.877 186.834L656.22 156.405L653.239 155.456L653.415 158.575L659.069 258.621L591.472 184.532L589.365 182.223L587.956 185.011L542.734 274.476L521.308 176.579L520.64 173.527L518.022 175.239L434.041 230.15L464.528 134.676L465.478 131.7L462.354 131.876L362.116 137.519L436.347 70.0507L438.661 67.9478L435.867 66.541Z" stroke="#DADFEA" stroke-width="4.30476"/>
<path d="M489.42 59.2425L437.113 32.9037L494.35 20.4247L497.407 19.7582L495.692 17.1456L463.588 -31.7677L519.408 -14.0111L522.389 -13.0627L522.213 -16.181L518.913 -74.5626L558.359 -31.3283L560.466 -29.0191L561.876 -31.8076L588.265 -84.0142L600.767 -26.8868L601.435 -23.8355L604.053 -25.547L653.059 -57.5898L635.269 -1.8766L634.319 1.09918L637.443 0.923284L695.936 -2.36995L652.619 37.0008L650.306 39.1037L653.099 40.5105L705.406 66.8493L648.169 79.3282L645.112 79.9947L646.827 82.6073L678.931 131.521L623.111 113.764L620.13 112.816L620.306 115.934L623.606 174.316L584.16 131.081L582.053 128.772L580.643 131.561L554.254 183.767L541.752 126.64L541.084 123.588L538.466 125.3L489.46 157.343L507.25 101.63L508.2 98.6538L505.076 98.8297L446.583 102.123L489.9 62.7522L492.213 60.6493L489.42 59.2425Z" stroke="#8712FC" stroke-width="4.30476"/>
<path d="M522.428 70.3396L531.839 56.7109L532.953 55.097L531.446 53.8403L518.719 43.2288L533.697 36.1225L535.47 35.281L534.795 33.4406L529.088 17.8992L545.619 19.2195L547.577 19.3759L547.914 17.4448L550.757 1.1379L564.412 10.531L566.029 11.6434L567.288 10.1391L577.92 -2.56396L585.04 12.3851L585.883 14.1554L587.727 13.4809L603.298 7.78556L601.975 24.2849L601.818 26.2388L603.753 26.5749L620.091 29.4133L610.68 43.042L609.566 44.6559L611.073 45.9125L623.8 56.5241L608.822 63.6303L607.049 64.4719L607.725 66.3123L613.431 81.8537L596.9 80.5333L594.942 80.377L594.606 82.3081L591.762 98.615L578.107 89.2219L576.49 88.1095L575.231 89.6138L564.599 102.317L557.479 87.3678L556.636 85.5975L554.792 86.272L539.221 91.9673L540.544 75.468L540.701 73.5141L538.766 73.178L522.428 70.3396Z" stroke="#E21B25" stroke-width="4.30476"/>
<path d="M554.083 57.0741L557.172 50.9158L557.661 49.9416L557.163 48.9722L554.015 42.8437L560.562 40.6691L561.598 40.3251L561.932 39.2881L564.048 32.733L570.218 35.8159L571.194 36.3036L572.165 35.8065L578.306 32.6646L580.484 39.1991L580.829 40.2328L581.868 40.5669L588.436 42.6786L585.347 48.837L584.858 49.8111L585.356 50.7806L588.504 56.909L581.957 59.0837L580.921 59.4277L580.587 60.4646L578.471 67.0198L572.301 63.9369L571.325 63.4492L570.354 63.9462L564.213 67.0882L562.035 60.5536L561.69 59.5199L560.651 59.1859L554.083 57.0741Z" stroke="#DADFEA" stroke-width="4.30476"/>
<path d="M700.842 216.777L620.594 113.427" stroke="#8712FC" stroke-width="4.30476"/>
<rect x="-2.40827" y="1.86283" width="36.4465" height="36.4465" transform="matrix(-0.125879 0.991114 -0.993006 -0.12564 747.078 234.907)" stroke="#8712FC" stroke-width="4.30476"/>
<path d="M375.428 -29.9956L496.698 19.4604" stroke="#8712FC" stroke-width="4.30476"/>
<path d="M767.091 129.749L645.82 80.2929" stroke="#8712FC" stroke-width="4.30476"/>
<rect x="-1.15243" y="2.8151" width="36.4465" height="36.4465" transform="matrix(0.387488 0.92115 -0.922908 0.38675 816.607 120.851)" stroke="#8712FC" stroke-width="4.30476"/>
<path d="M361.652 78.4343L491.451 60.7447" stroke="#8712FC" stroke-width="4.30476"/>
<path d="M780.867 21.319L651.069 39.0085" stroke="#8712FC" stroke-width="4.30476"/>
<rect x="0.412205" y="3.01306" width="36.4465" height="36.4465" transform="matrix(0.797029 0.604364 -0.605518 0.795511 818.164 -12.2007)" stroke="#8712FC" stroke-width="4.30476"/>
<path d="M404.041 179.212L507.588 99.117" stroke="#8712FC" stroke-width="4.30476"/>
<path d="M738.479 -79.4589L634.932 0.636381" stroke="#8712FC" stroke-width="4.30476"/>
<path d="M491.235 245.335L540.786 124.296" stroke="#8712FC" stroke-width="4.30476"/>
<rect x="-2.82047" y="-1.15023" width="36.4465" height="36.4465" transform="matrix(-0.922908 0.38675 -0.387488 -0.92115 497.074 291.749)" stroke="#8712FC" stroke-width="4.30476"/>
<path d="M599.873 259.085L582.149 129.534" stroke="#8712FC" stroke-width="4.30476"/>
<rect x="-3.01881" y="0.41142" width="36.4465" height="36.4465" transform="matrix(-0.605518 0.795511 -0.797029 -0.604364 629.305 297.468)" stroke="#8712FC" stroke-width="4.30476"/>
<path d="M832.48 232.265L817.338 252.158L807.648 229.123L832.48 232.265Z" stroke="#DADFEA" stroke-width="4.30476"/>
<path d="M888.851 77.4686L885.703 102.253L865.772 87.1398L888.851 77.4686Z" stroke="#DADFEA" stroke-width="4.30476"/>
<path d="M543.615 366.863L518.783 363.721L533.925 343.828L543.615 366.863Z" stroke="#DADFEA" stroke-width="4.30476"/>
<path d="M706.114 338.191L683.036 347.862L686.183 323.078L706.114 338.191Z" stroke="#DADFEA" stroke-width="4.30476"/>
</g>
<mask id="mask3_1266_124259" style="mask-type:alpha" maskUnits="userSpaceOnUse" x="451" y="-349" width="494" height="349">
<path d="M944.837 -0.630026L451.39 -0.630005L800.28 -348.855L944.837 -0.630026Z" fill="#D9D9D9"/>
</mask>
<g mask="url(#mask3_1266_124259)">
</g>
<mask id="mask4_1266_124259" style="mask-type:alpha" maskUnits="userSpaceOnUse" x="-41" y="-1" width="494" height="349">
<path d="M-40.8371 -0.230935L452.61 -0.230957L103.72 347.994L-40.8371 -0.230935Z" fill="#D9D9D9"/>
</mask>
<g mask="url(#mask4_1266_124259)">
<path d="M463.384 -118.355L350.618 -72.8898L349.475 -72.4291L348.498 -73.1787L252.073 -147.154L235.139 -26.949L234.967 -25.7309L233.828 -25.2611L121.429 21.0995L217.261 95.839L218.232 96.5964L218.07 97.8158L202.097 218.151L314.862 172.686L316.005 172.225L316.982 172.975L413.408 246.95L430.342 126.745L430.513 125.527L431.652 125.057L544.052 78.6967L448.22 3.95728L447.248 3.19989L447.41 1.98045L463.384 -118.355Z" stroke="#FFA900" stroke-width="4.30476"/>
<path d="M468.133 66.5622L557.769 21.4261L459.684 0.0413365L456.627 -0.625207L458.342 -3.23779L513.358 -87.0593L417.701 -56.6302L414.72 -55.6818L414.896 -58.8001L420.551 -158.847L352.953 -84.7577L350.846 -82.4485L349.437 -85.237L304.215 -174.702L282.789 -76.8044L282.121 -73.753L279.504 -75.4645L195.522 -130.375L226.009 -34.9012L226.959 -31.9255L223.835 -32.1013L123.597 -37.7449L197.828 29.7237L200.142 31.8266L197.348 33.2334L107.712 78.3695L205.797 99.7543L208.854 100.421L207.139 103.033L152.123 186.855L247.78 156.426L250.761 155.477L250.585 158.596L244.93 258.643L312.528 184.553L314.635 182.244L316.044 185.033L361.266 274.498L382.692 176.6L383.36 173.549L385.977 175.26L469.959 230.171L439.472 134.697L438.522 131.721L441.646 131.897L541.884 137.54L467.653 70.0719L465.339 67.969L468.133 66.5622Z" stroke="#DADFEA" stroke-width="4.30476"/>
<path d="M414.58 59.2637L466.887 32.9249L409.65 20.446L406.593 19.7795L408.308 17.1669L440.412 -31.7465L384.592 -13.9899L381.611 -13.0414L381.787 -16.1598L385.087 -74.5414L345.641 -31.3071L343.534 -28.9978L342.124 -31.7863L315.735 -83.9929L303.233 -26.8656L302.565 -23.8142L299.947 -25.5257L250.941 -57.5686L268.731 -1.85536L269.681 1.12043L266.557 0.944524L208.064 -2.34871L251.381 37.022L253.694 39.1249L250.901 40.5318L198.594 66.8705L255.831 79.3494L258.888 80.016L257.173 82.6286L225.069 131.542L280.889 113.785L283.87 112.837L283.694 115.955L280.394 174.337L319.84 131.103L321.947 128.793L323.357 131.582L349.746 183.788L362.248 126.661L362.916 123.61L365.534 125.321L414.54 157.364L396.75 101.651L395.8 98.675L398.924 98.8509L457.417 102.144L414.1 62.7734L411.787 60.6705L414.58 59.2637Z" stroke="#8712FC" stroke-width="4.30476"/>
<path d="M381.572 70.3608L372.161 56.7321L371.047 55.1182L372.554 53.8615L385.281 43.2499L370.303 36.1437L368.53 35.3022L369.205 33.4618L374.912 17.9204L358.381 19.2407L356.423 19.3971L356.086 17.466L353.243 1.15908L339.588 10.5522L337.971 11.6645L336.712 10.1602L326.08 -2.54278L318.96 12.4062L318.117 14.1765L316.273 13.5021L300.702 7.80674L302.025 24.3061L302.182 26.26L300.247 26.5961L283.909 29.4345L293.32 43.0631L294.434 44.6771L292.927 45.9337L280.2 56.5453L295.178 63.6515L296.951 64.493L296.275 66.3335L290.569 81.8749L307.1 80.5545L309.058 80.3982L309.394 82.3292L312.238 98.6362L325.893 89.243L327.51 88.1307L328.769 89.635L339.401 102.338L346.521 87.389L347.364 85.6187L349.208 86.2931L364.779 91.9885L363.456 75.4891L363.299 73.5353L365.234 73.1991L381.572 70.3608Z" stroke="#E21B25" stroke-width="4.30476"/>
<path d="M349.917 57.0954L346.828 50.937L346.339 49.9629L346.837 48.9934L349.985 42.865L343.438 40.6903L342.402 40.3463L342.068 39.3094L339.952 32.7542L333.782 35.8371L332.806 36.3248L331.835 35.8278L325.694 32.6858L323.516 39.2204L323.171 40.2541L322.132 40.5881L315.564 42.6999L318.653 48.8582L319.142 49.8324L318.644 50.8018L315.496 56.9303L322.043 59.1049L323.079 59.4489L323.413 60.4859L325.529 67.041L331.699 63.9581L332.675 63.4704L333.646 63.9675L339.787 67.1094L341.965 60.5749L342.31 59.5412L343.349 59.2071L349.917 57.0954Z" stroke="#DADFEA" stroke-width="4.30476"/>
<path d="M203.158 216.799L283.406 113.449" stroke="#8712FC" stroke-width="4.30476"/>
<rect x="2.40827" y="1.86283" width="36.4465" height="36.4465" transform="matrix(0.125879 0.991114 0.993006 -0.12564 156.316 230.155)" stroke="#8712FC" stroke-width="4.30476"/>
<path d="M528.572 -29.9745L407.302 19.4815" stroke="#8712FC" stroke-width="4.30476"/>
<path d="M136.909 129.77L258.18 80.3142" stroke="#8712FC" stroke-width="4.30476"/>
<rect x="1.15243" y="2.8151" width="36.4465" height="36.4465" transform="matrix(-0.387488 0.92115 0.922908 0.38675 88.2863 118.749)" stroke="#8712FC" stroke-width="4.30476"/>
<path d="M542.348 78.4556L412.549 60.766" stroke="#8712FC" stroke-width="4.30476"/>
<path d="M123.133 21.3402L252.931 39.0298" stroke="#8712FC" stroke-width="4.30476"/>
<rect x="-0.412205" y="3.01306" width="36.4465" height="36.4465" transform="matrix(-0.797029 0.604364 0.605518 0.795511 85.1783 -11.6812)" stroke="#8712FC" stroke-width="4.30476"/>
<path d="M499.959 179.233L396.412 99.1382" stroke="#8712FC" stroke-width="4.30476"/>
<path d="M165.521 -79.4376L269.068 0.657621" stroke="#8712FC" stroke-width="4.30476"/>
<path d="M412.765 245.357L363.214 124.317" stroke="#8712FC" stroke-width="4.30476"/>
<rect x="2.82047" y="-1.15023" width="36.4465" height="36.4465" transform="matrix(0.922908 0.38675 0.387488 -0.92115 401.72 289.589)" stroke="#8712FC" stroke-width="4.30476"/>
<path d="M304.127 259.106L321.851 129.555" stroke="#8712FC" stroke-width="4.30476"/>
<rect x="3.01881" y="0.41142" width="36.4465" height="36.4465" transform="matrix(0.605518 0.795511 0.797029 -0.604364 271.039 292.687)" stroke="#8712FC" stroke-width="4.30476"/>
<path d="M71.5203 232.286L86.6622 252.179L96.3519 229.145L71.5203 232.286Z" stroke="#DADFEA" stroke-width="4.30476"/>
<path d="M15.1491 77.4898L18.2969 102.274L38.2278 87.1611L15.1491 77.4898Z" stroke="#DADFEA" stroke-width="4.30476"/>
<path d="M360.385 366.884L385.217 363.742L370.075 343.85L360.385 366.884Z" stroke="#DADFEA" stroke-width="4.30476"/>
<path d="M197.886 338.212L220.964 347.884L217.817 323.099L197.886 338.212Z" stroke="#DADFEA" stroke-width="4.30476"/>
</g>
<mask id="mask5_1266_124259" style="mask-type:alpha" maskUnits="userSpaceOnUse" x="-41" y="-349" width="494" height="349">
<path d="M-40.8371 -0.630026L452.61 -0.630005L103.72 -348.855L-40.8371 -0.630026Z" fill="#D9D9D9"/>
</mask>
<g mask="url(#mask5_1266_124259)">
</g>
</g>
<defs>
<clipPath id="clip0_1266_124259">
<rect y="-452" width="904" height="904" rx="452" fill="white"/>
</clipPath>
</defs>
</svg>
