<svg xmlns="http://www.w3.org/2000/svg" width="717" height="422" fill="none"><g clip-path="url(#a)"><path fill="#E4DABB" d="M1.857 129.142c3.651 5.913 7.08 11.942 10.862 17.778 3.782 5.837 7.587 11.643 11.469 17.403a1642.085 1642.085 0 0 0 23.735 34.282 1679.134 1679.134 0 0 0 24.586 33.675 1715.005 1715.005 0 0 0 25.346 33.008 1779.455 1779.455 0 0 0 29.412 36.371c.944 1.137 2.57-.499 1.627-1.628a1677.127 1677.127 0 0 1-51.674-65.093 1719.36 1719.36 0 0 1-24.61-33.445 1826.28 1826.28 0 0 1-23.812-34.014 3775.85 3775.85 0 0 1-11.714-17.256c-1.925-2.857-3.82-5.745-5.776-8.578-1.957-2.834-4.059-5.737-6.068-8.625a224.837 224.837 0 0 1-2.862-4.201c-.215-.322-.736-.03-.53.308l.009.015Z"/><path fill="#E4DABB" d="M129.76 300.684a2971.19 2971.19 0 0 0 30.31-25.236c10.042-8.478 20.06-16.98 30.102-25.45 10.042-8.471 20.183-17.042 30.217-25.62 9.988-8.54 19.977-17.072 29.919-25.666a15961.52 15961.52 0 0 0 29.795-25.803 300.453 300.453 0 0 0 3.713-3.272c1.304-1.175-.591-3.01-1.91-1.912-10.073 8.432-19.9 17.172-29.849 25.742-9.958 8.571-19.9 17.157-29.857 25.727-10.004 8.609-19.999 17.226-30.003 25.835a6354.925 6354.925 0 0 1-29.956 25.604c-10.004 8.501-20.007 17.018-29.949 25.596-1.25 1.076-2.493 2.151-3.744 3.234-.843.721.369 1.896 1.205 1.205l.007.016Z"/><path fill="#E4DABB" d="M283.264 168.109c4.763 3.74 9.198 7.895 13.662 11.972 5.899 5.384 11.691 10.867 17.452 16.397 13.387 12.84 26.612 25.857 39.822 38.89 6.383 6.297 12.758 12.602 19.163 18.876 7.081 6.943 14.522 13.77 19.999 22.118 5.923 9.039 8.293 19.476 10.081 29.997 1.948 11.473 3.804 22.97 5.715 34.451l11.668 70.162.698 4.201c.253 1.497.713 2.88 1.197 4.323.222.676 1.273.584 1.273-.169-.038-5.89-1.473-11.788-2.432-17.594l-2.946-17.786-5.814-35.081c-1.964-11.857-3.921-23.723-5.907-35.58-1.772-10.56-3.268-21.396-7.817-31.195-4.381-9.431-11.669-17.072-19.002-24.276-6.352-6.243-12.727-12.471-19.071-18.715-13.394-13.186-26.788-26.38-40.39-39.351-10.885-10.383-21.878-20.758-33.777-29.974a225.507 225.507 0 0 0-3.037-2.327c-.392-.291-.906.377-.522.676l-.015-.015ZM119.489 292.505c14.836 17.149 30.071 33.929 45.467 50.571a8606.874 8606.874 0 0 0 46.366 49.71c4.334 4.608 8.676 9.216 13.018 13.824 2.217 2.35 4.434 4.692 6.651 7.034 1.09 1.152 2.164 2.312 3.261 3.449.536.553 1.066.875 1.741 1.236s1.212.814 1.795 1.26c.284.215.667-.2.483-.484-.376-.553-.79-1.091-1.097-1.69-.245-.491-.406-.998-.728-1.444-.867-1.198-2.11-2.25-3.123-3.317-1.918-2.02-3.828-4.047-5.746-6.067-3.912-4.14-7.824-8.279-11.729-12.426a8615.789 8615.789 0 0 1-23.121-24.644c-15.473-16.55-30.793-33.246-46.274-49.788a3104.619 3104.619 0 0 0-26.343-27.846c-.399-.415-.99.199-.621.622Z"/><path fill="#E4DABB" d="M318.521 200.486c-3.138 3.026-6.39 5.937-9.566 8.932-1.611 1.513-3.191 3.064-4.787 4.6-1.381 1.329-2.808 2.642-4.058 4.101-2.279 2.673-3.652 5.906-2.041 9.293.821 1.72 2.194 3.133 3.445 4.546 1.427 1.613 2.869 3.218 4.303 4.815a1495.72 1495.72 0 0 0 9.973 10.967c.944 1.021 2.462-.507 1.527-1.529-2.739-2.987-5.47-5.982-8.186-9-2.715-3.018-5.515-5.852-7.993-8.978-1.044-1.313-1.91-2.864-1.665-4.592.223-1.575 1.197-2.98 2.209-4.155 2.486-2.888 5.378-5.483 8.055-8.194 3.238-3.287 6.344-6.705 9.589-9.984.522-.53-.276-1.328-.813-.814l.008-.008Z"/><path fill="#E4DABB" d="M293.428 270.464c3.237-3.11 6.597-6.082 9.904-9.108 3.306-3.026 6.467-6.036 9.735-9.016a992.097 992.097 0 0 1 19.976-17.748 934.282 934.282 0 0 1 11.507-9.792c1.143-.96-.499-2.595-1.642-1.643a846.006 846.006 0 0 0-39.822 35.603c-3.644 3.471-7.088 7.15-10.663 10.698-.652.645.345 1.643 1.005 1.006ZM73.33 62.651c6.091-2.98 12.12-6.013 17.974-9.454 5.853-3.44 11.484-6.965 17.138-10.598 5.654-3.632 11.376-7.364 17.099-11.005 5.723-3.64 11.254-7.326 17-10.782 6.513-3.917 13.187-7.557 19.922-11.074.1-.054.031-.223-.076-.184-6.214 2.457-12.159 5.437-18.028 8.624-5.869 3.187-11.829 6.574-17.544 10.175-11.469 7.227-22.661 14.884-34.176 22.041-6.452 4.017-12.934 8.102-19.662 11.635-.399.215-.046.806.353.607v.015ZM187.05 15.52c2.109 5.323 4.066 10.706 6.191 16.02 1.979 4.946 3.881 9.946 6.328 14.677 4.933 9.515 12.489 17.048 19.785 24.751 4.449 4.7 8.883 9.415 13.302 14.146.391.415 1.005-.207.621-.622-3.874-4.2-7.748-8.394-11.599-12.618-3.575-3.924-7.203-7.802-10.602-11.888-3.398-4.085-6.451-8.348-9.013-12.963-2.563-4.616-4.672-9.446-6.766-14.277-2.54-5.836-5.24-11.596-7.795-17.425-.115-.261-.567-.07-.46.192l.008.008Z"/><path fill="#E4DABB" d="M202.929 48.067c-5.017 4.163-11.077 6.79-17.045 9.277-3.214 1.344-6.444 2.658-9.651 4.025l-4.902 2.08c-1.634.692-3.452 1.245-4.702 2.558-.169.177-.046.476.199.476 1.818.016 3.475-.898 5.117-1.582l5.263-2.204c3.252-1.36 6.489-2.757 9.727-4.155 5.953-2.572 11.829-5.422 16.762-9.714.529-.461-.238-1.198-.76-.76h-.008ZM63.687 80.383c2.386 2.535 4.55 5.346 6.72 8.08 2.171 2.734 4.189 5.506 6.191 8.324 4.035 5.676 7.848 11.512 11.822 17.234 8.653 12.456 18.633 23.884 28.407 35.465 5.676 6.727 11.299 13.5 16.93 20.259.737.883 1.987-.384 1.258-1.26-9.988-12.08-19.861-24.252-29.833-36.34-4.764-5.768-9.406-11.627-13.701-17.756-3.997-5.706-7.802-11.542-11.791-17.256a190.618 190.618 0 0 0-6.843-9.208 97.335 97.335 0 0 0-3.805-4.531c-1.32-1.467-2.762-2.81-4.15-4.216-.775-.784-1.964.407-1.205 1.206Z"/><path fill="#E4DABB" d="M4.265 174.084c6.644-5.645 13.602-10.921 20.583-16.143a523.092 523.092 0 0 1 21.11-14.999c14.37-9.661 29.344-18.508 44.686-26.518 2.095-1.09 4.258-2.096 6.314-3.264 2.056-1.167 4.188-2.419 6.344-3.532 4.357-2.243 8.945-4.017 13.256-6.344.123-.069.038-.276-.1-.23-4.111 1.298-8.039 3.164-11.99 4.892-3.951 1.728-8.124 3.195-12.075 5.099-7.878 3.809-15.657 7.841-23.259 12.18-15.09 8.602-29.665 18.263-43.412 28.884-7.771 6.005-15.15 12.425-22.485 18.953-.698.622.315 1.613 1.02 1.022h.008ZM101.614 83.271c3.483-1.82 7.15-3.233 10.656-5.015 3.506-1.781 6.804-3.617 10.233-5.383 3.046-1.567 6.145-2.604 9.536-1.56 3.007.922 5.577 3.119 7.656 5.407 2.186 2.412 4.004 5.13 6.075 7.634 2.072 2.504 4.527 4.754 7.419 6.436 3.068 1.781 6.305 3.233 9.044 5.521 2.739 2.289 5.347 5.176 7.925 7.833l9.274 9.562c3.092 3.179 6.107 6.451 9.298 9.53 1.013.976 2.478-.507 1.542-1.543-2.731-2.995-5.646-5.845-8.477-8.748l-8.5-8.716c-2.715-2.788-5.362-5.675-8.239-8.294-2.877-2.619-5.799-4.24-9.037-5.975-3.237-1.735-5.791-3.694-8.108-6.42-2.179-2.565-4.043-5.384-6.252-7.918-4.312-4.961-10.648-8.755-17.299-6.297-1.964.722-3.774 1.758-5.593 2.78a320.437 320.437 0 0 0-5.922 3.356c-3.92 2.304-7.625 4.953-11.561 7.211-.383.223-.046.791.346.591l-.016.008Z"/><path fill="#E4DABB" d="M144.627 98.853c-3.291 4.17-7.955 7.089-12.151 10.245-4.196 3.156-8.016 6.466-10.433 11.028-2.416 4.562-2.562 9.792-.46 14.653 2.102 4.861 5.96 9.461 9.512 13.616 2.11 2.465 4.304 4.861 6.628 7.127 2.325 2.265 4.557 4.73 7.349 6.19.645.338 1.611-.407 1.097-1.099-1.626-2.188-3.82-3.916-5.761-5.821a164.08 164.08 0 0 1-5.799-5.99c-3.636-3.947-7.365-8.117-9.988-12.825-2.432-4.362-3.169-9.262-.921-13.862s5.938-7.741 9.819-10.606c2.317-1.712 4.68-3.386 6.92-5.206 2.24-1.821 4.135-3.856 5.845-6.175.699-.952-.912-2.212-1.649-1.275h-.008Z"/><path fill="#E4DABB" d="M4.979 280.931c20.797-16.657 41.026-34.067 61.347-51.292a13648.616 13648.616 0 0 0 61.087-52.061 11649.07 11649.07 0 0 0 60.519-52.253 12267.313 12267.313 0 0 0 60.166-52.66 10807.79 10807.79 0 0 0 29.949-26.487 6128.868 6128.868 0 0 0 15.051-13.386c2.509-2.235 4.987-4.492 7.48-6.743 2.493-2.25 4.741-4.707 6.873-7.341 2.133-2.634 4.641-4.593 7.012-6.781.046-.039-.023-.1-.062-.062-2.669 2.312-5.239 4.746-8.216 6.658-2.754 1.767-5.254 3.694-7.709 5.852a4156.924 4156.924 0 0 0-15.082 13.355 10643.096 10643.096 0 0 1-29.703 26.303 11653.446 11653.446 0 0 1-60.358 52.906 11570.494 11570.494 0 0 1-60.496 52.283 10318.916 10318.916 0 0 1-60.865 51.854c-20.36 17.202-40.98 34.397-61.4 51.684a825.002 825.002 0 0 0-7.419 6.344c-1.273 1.106.552 2.857 1.833 1.835l-.007-.008Z"/><path fill="#E4DABB" d="M208.752 105.942c5.945 6.604 12.297 12.84 18.695 18.999a626.629 626.629 0 0 0 19.731 18.186c6.505 5.752 13.01 11.673 20.198 16.58 4.687 3.203 9.774 5.706 14.645 8.609a77.708 77.708 0 0 1 7.656 5.215c1.534 1.182 3.007 2.449 4.48 3.709 1.856 1.582 3.805 3.033 5.684 4.592.108.093.307-.03.215-.161-1.227-1.705-2.355-3.425-3.797-4.961a63.038 63.038 0 0 0-3.913-3.809c-2.194-1.943-4.51-3.717-6.988-5.284-4.465-2.826-9.267-5.084-13.77-7.848-7.326-4.493-13.801-10.268-20.291-15.867a701.054 701.054 0 0 1-19.976-17.932c-7.349-6.85-14.453-13.946-21.717-20.881-.568-.537-1.374.277-.852.853Z"/><path fill="#E4DABB" d="M240.642 136.376c5.569-1.904 11.023-4.124 16.209-6.912 5.186-2.787 10.088-6.143 14.698-9.806a83.05 83.05 0 0 0 3.874-3.272c1.09-.975 2.463-2.304 2.801-3.771.084-.368-.223-.645-.576-.576-1.227.231-2.485 1.198-3.421 1.997-1.12.96-2.24 1.92-3.383 2.849a99.973 99.973 0 0 1-6.805 5.099c-4.733 3.241-9.735 6.044-14.851 8.617a81.245 81.245 0 0 1-9.068 3.878c-1.174.423-.683 2.304.522 1.89v.007ZM274.687 163.785c6.49-2.365 12.52-5.629 17.966-9.891 2.632-2.059 5.178-4.293 7.418-6.774 2.24-2.48 4.158-5.314 4.81-8.624.407-2.066.392-4.178.407-6.274 0-1.137.038-2.274.023-3.41 0-.484-.054-.968-.138-1.452-.108-.622-.384-1.129-.552-1.735-.162-.561-.959-.553-1.128 0-.253.844-.583 1.536-.691 2.426-.122.999-.069 2.028-.084 3.026-.023 1.767 0 3.541-.153 5.299-.3 3.241-1.803 5.998-3.905 8.433-4.135 4.761-9.336 8.731-14.698 12.011-3.13 1.912-6.421 3.624-9.804 5.022-1.166.484-.706 2.396.537 1.943h-.008ZM314.317 194.865l3.813-3.057 1.879-1.505c.161-.123.307-.253.445-.399a1.91 1.91 0 0 0 .23-.269c.062-.084.161-.323.161-.33.031-.054.246-.3.33-.43.115-.177.207-.369.307-.553.207-.369-.138-.876-.568-.745-.383.123-.736.276-1.104.43.192-.077-.169.015-.2.023a1.525 1.525 0 0 0-.429.223c-.207.13-.392.276-.583.43-.645.522-1.274 1.052-1.903 1.582l-3.812 3.164c-.422.353-.361 1.075 0 1.436.421.422 1.004.345 1.434 0ZM333.242 213.542c8.216-6.889 16.609-13.562 24.924-20.328 8.316-6.766 16.9-13.563 25.454-20.213 17.068-13.278 34.406-26.226 51.766-39.128a4893.896 4893.896 0 0 1 29.113-21.419c1.15-.837.038-2.78-1.128-1.928-17.491 12.787-35.043 25.497-52.349 38.529-17.307 13.033-34.521 26.326-51.344 40.035-9.329 7.603-18.389 15.505-27.349 23.53-.629.561.284 1.444.913.914v.008ZM498.966 169.691c-4.388 2.926-8.945 5.614-13.448 8.355-4.503 2.742-9.014 5.507-13.525 8.256a1675.667 1675.667 0 0 0-26.934 16.734c-8.921 5.66-17.674 11.358-26.282 17.387a472.433 472.433 0 0 0-6.451 4.6c-1.834 1.336-3.744 2.642-5.408 4.193-1.504 1.406-2.823 3.111-3.299 5.146-.476 2.035-.038 4.101.652 6.044.721 2.042 1.995 4.392 1.488 6.62-.552 2.449-3.39 4.077-5.201 5.529a2445.019 2445.019 0 0 0-14.859 12.026c-.867.715.36 1.897 1.219 1.221 4.427-3.455 8.822-6.942 13.218-10.436 1.964-1.559 4.219-3.018 5.907-4.885 1.412-1.559 2.01-3.455 1.734-5.544-.514-3.848-3.713-7.68-1.389-11.489 1.09-1.79 2.777-3.172 4.434-4.408a311.102 311.102 0 0 1 6.36-4.601c17.145-12.164 35.134-23.062 52.909-34.251a457.816 457.816 0 0 0 14.775-9.699c4.864-3.326 9.612-6.828 14.445-10.214.353-.246.023-.838-.345-.592v.008ZM361.419 241.227c-4.856 6.758-10.847 12.296-17.145 17.671-3.069 2.619-6.153 5.23-9.06 8.026a73.234 73.234 0 0 0-4.35 4.531 62.426 62.426 0 0 0-1.941 2.327c-.659.837-1.45 1.697-1.879 2.672-.905 2.051.905 4.116 1.956 5.745a99.47 99.47 0 0 0 4.12 5.875c2.754 3.64 5.799 6.98 8.998 10.221 3.199 3.241 6.206 6.451 7.641 10.744 1.526 4.57 1.756 9.692 1.948 14.476.437 10.875-.176 21.995 3.122 32.509.315.998 1.895.576 1.581-.438-2.931-9.323-2.823-19.199-2.9-28.868-.038-4.754-.031-9.584-.714-14.292-.682-4.708-2.546-8.302-5.531-11.742-2.984-3.441-6.252-6.244-9.174-9.554a78.85 78.85 0 0 1-8.37-11.327c-.606-.991-1.411-1.905-.667-3.034.59-.906 1.304-1.751 1.987-2.58a64.662 64.662 0 0 1 4.15-4.547c2.823-2.834 5.845-5.445 8.883-8.033 6.812-5.806 14.023-11.773 18.12-19.921.261-.522-.437-.921-.775-.453v-.008ZM356.855 373.372c1.112 7.895 2.186 15.79 3.306 23.684.552 3.909 1.097 7.826 1.634 11.735.276 2.035.552 4.062.821 6.098.253 1.927.376 3.932.813 5.828.138.592 1.082.469 1.059-.145-.07-1.943-.468-3.909-.729-5.837a1762.418 1762.418 0 0 0-2.47-17.794c-1.143-7.941-2.425-15.851-3.767-23.753-.077-.438-.721-.246-.66.184h-.007ZM418.517 395.106c-4.342 1.827-8.953 3.133-13.579 3.985-2.278.423-4.579.73-6.881.937-1.872.169-3.912.269-5.193-1.359-1.044-1.329-1.404-3.149-1.642-4.784-.36-2.435-.537-4.908-.66-7.358-.053-1.129-.107-2.265-.099-3.394 0-.561-.031-1.121.437-1.505.429-.346 1.097-.453 1.611-.599l7.119-2.128c5.477-1.635 10.962-3.24 16.447-4.853 1.205-.353.691-2.258-.521-1.889-5.47 1.666-10.932 3.333-16.409 4.976-2.639.791-5.317 1.513-7.933 2.381-.943.315-1.841.729-2.316 1.651-.522 1.014-.392 2.365-.407 3.471-.031 2.765.084 5.53.33 8.287.184 2.081.453 4.17 1.373 6.074.921 1.905 2.608 3.256 4.741 3.564 2.432.345 5.101-.185 7.495-.615 5.815-1.044 11.346-2.918 16.708-5.376.813-.376.222-1.82-.614-1.466h-.007ZM412.234 351.738c2.892.799 5.861.123 8.745-.368 2.186-.377 5.117-.561 6.851 1.121 1.342 1.298 1.718 3.356 2.132 5.099.445 1.828.913 3.733 2.156 5.199 1.373 1.621 3.444 2.051 5.477 1.951 1.788-.084 4.526-.945 6.099.253.974.745 1.112 2.166 1.35 3.28.345 1.62.713 3.233 1.074 4.846a794.299 794.299 0 0 1 2.048 9.522l2.294 10.844 1.105 5.23c.391 1.851.667 3.786 1.281 5.583.284.822 1.687.753 1.603-.215-.146-1.659-.575-3.287-.92-4.915l-1.021-4.861-2.086-9.907c-.698-3.302-1.412-6.604-2.072-9.914l-1.012-5.061c-.276-1.398-.461-2.88-1.021-4.193-.943-2.197-3.053-2.903-5.293-2.827-2.033.07-4.603.845-6.474-.261-1.634-.96-1.957-3.125-2.294-4.823-.391-1.989-.737-4.07-1.972-5.736-1.749-2.366-4.664-3.057-7.471-2.834-3.353.269-6.705 1.935-10.073 1.09-1.235-.307-1.757 1.575-.529 1.913l.023-.016ZM285.818 324.337c-3.061 3.118-6.214 6.098-9.144 9.339a231.017 231.017 0 0 0-8.477 9.953 303.944 303.944 0 0 0-15.603 21.134c-1.159 1.72-2.509 3.441-3.399 5.322-.89 1.882-.667 3.825.184 5.752 1.604 3.594 3.713 7.035 5.792 10.368 4.15 6.65 8.93 12.894 14.192 18.708a127.805 127.805 0 0 0 9.351 9.315c1.65 1.482 3.314 2.972 5.14 4.224.422.292.875.461 1.32.699.483.253.905.637 1.373.937.974.629 2.033 1.113 3.045 1.682.292.169.637-.246.369-.484-.706-.63-1.343-1.321-2.026-1.974-.682-.653-1.457-1.206-2.063-1.951-1.182-1.451-2.839-2.588-4.258-3.801a127.689 127.689 0 0 1-8.354-7.826 122.458 122.458 0 0 1-14.199-17.571 128.108 128.108 0 0 1-5.915-9.807c-.898-1.651-2.301-3.617-2.378-5.545-.077-1.927 1.657-3.801 2.662-5.299A314.173 314.173 0 0 1 268.32 347c2.923-3.702 5.937-7.334 8.975-10.936a767.089 767.089 0 0 1 4.603-5.383c1.542-1.79 3.069-3.74 4.718-5.53.491-.537-.284-1.328-.798-.799v-.015Z"/><path fill="#E4DABB" d="M274.618 338.982c9.351 10.468 18.695 20.935 28.146 31.318 4.227 4.639 9.091 9.177 11.852 14.906 2.478 5.146 3.268 10.944 3.951 16.55.391 3.226.744 6.467 1.327 9.661.545 2.995 1.089 6.459 3.023 8.901.199.254.675.046.644-.269-.268-2.826-1.273-5.552-1.741-8.355-.468-2.803-.744-5.891-1.013-8.84-.514-5.698-.974-11.588-3.099-16.949-2.378-5.99-6.805-10.49-11.108-15.136l-14.353-15.513c-5.432-5.868-11.001-11.604-16.486-17.418-.721-.76-1.833.369-1.143 1.144Z"/><path fill="#E4DABB" d="M304.536 418.951c3.253-8.079 7.38-15.928 11.868-23.385a157.715 157.715 0 0 1 15.058-20.95c2.801-3.294 5.693-6.574 8.899-9.484a31.157 31.157 0 0 1 11.331-6.551c4.265-1.382 8.991-2.312 13.501-3.333 4.795-1.083 9.589-2.143 14.407-3.103 10.725-2.127 21.564-3.74 32.503-4.039 1.604-.046 1.611-2.55 0-2.504-10.034.3-19.999 1.682-29.856 3.564-4.887.929-9.751 1.981-14.599 3.079-4.848 1.098-9.374 2.035-13.985 3.302-4.342 1.191-8.515 2.857-12.128 5.599-3.613 2.742-6.582 6.029-9.52 9.354a156.057 156.057 0 0 0-15.811 21.311c-2.608 4.224-5.024 8.555-7.172 13.032-2.148 4.478-3.99 9.101-5.731 13.77-.291.791.944 1.106 1.251.346l-.016-.008Z"/><path fill="#E4DABB" d="M385.844 349.457c-.23-1.835-.314-3.678-.59-5.514-.276-1.835-.545-3.609-.821-5.414-.537-3.525-1.227-7.057-1.642-10.598-.337-2.864-.107-5.706 2.593-7.319 1.266-.752 2.67-1.213 4.035-1.75a70.775 70.775 0 0 0 14.576-7.765c1.296-.898.061-3.033-1.243-2.127a70.164 70.164 0 0 1-9.229 5.414 64.75 64.75 0 0 1-5.086 2.22c-1.411.545-2.869 1.036-4.18 1.797-2.808 1.62-4.097 4.362-4.074 7.557.008 1.628.292 3.24.552 4.838.307 1.92.622 3.847.952 5.767l1.104 6.497c.384 2.235.936 4.408 1.373 6.62.185.929 1.796.737 1.68-.23v.007ZM341.297 295.884c10.97-8.632 21.963-17.226 32.91-25.889 1.488-1.182 2.984-2.357 4.472-3.532 1.588-1.252 3.261-2.435 4.757-3.786.828-.753-.269-2.212-1.212-1.567-2.823 1.935-5.447 4.255-8.124 6.382a1313.829 1313.829 0 0 0-8.308 6.651 1470.585 1470.585 0 0 0-16.195 13.209c-3.068 2.542-6.075 5.153-9.121 7.725-.575.484.246 1.268.813.814l.008-.007ZM351.109 308.747c5.723-4.423 11.438-8.847 17.084-13.37 5.646-4.523 11.108-8.955 16.654-13.44l4.657-3.763 2.501-2.019c.652-.53 1.472-1.045 1.396-1.982-.016-.199-.123-.368-.322-.422-.645-.2-1.159.084-1.673.476-.752.576-1.473 1.19-2.209 1.789l-4.235 3.426-8.492 6.881a4676.214 4676.214 0 0 0-16.716 13.616c-3.199 2.611-6.275 5.36-9.428 8.025-.544.461.23 1.198.775.776l.008.007ZM91.672 421.916c10.733-9.385 22.078-18.048 33.463-26.618 11.384-8.571 22.431-17.149 32.91-26.603 5.922-5.345 11.606-10.966 16.884-16.957.967-1.098-.644-2.726-1.611-1.612-9.336 10.651-19.945 20.09-30.923 29.006-10.978 8.916-22.247 17.471-33.194 26.441-6.198 5.076-12.228 10.306-17.997 15.874-.314.3.154.753.468.469Z"/><path fill="#E4DABB" d="M146.898 406.909c2.509-2.703 5.623-4.892 8.577-7.088 2.953-2.196 5.891-4.301 8.73-6.597 2.838-2.296 5.508-4.746 7.74-7.618 1.043-1.344 2.37-2.926 2.907-4.57.714-2.181-1.534-3.463-2.945-4.684a2027.55 2027.55 0 0 0-12.297-10.521c-1.128-.96-2.777.66-1.642 1.643 3.414 2.949 6.827 5.913 10.256 8.847l2.432 2.081c.43.369.859.73 1.289 1.098.368.315.706.446.644.907-.084.622-.897 1.559-1.242 2.081a28.465 28.465 0 0 1-1.565 2.15c-4.289 5.33-10.011 9.193-15.259 13.486-3.037 2.48-5.692 5.191-8.239 8.171-.36.415.231 1.021.614.614ZM181.833 395.49c.944 2.35 2.355 4.316 4.089 6.143 2.087 2.212 4.304 4.293 6.482 6.413 2.179 2.12 4.565 4.308 6.866 6.436 2.156 1.981 4.373 4.615 7.158 5.698.437.169.751-.384.567-.737-1.335-2.527-4.081-4.37-6.183-6.229-2.301-2.042-4.58-4.108-6.904-6.136-2.186-1.912-4.396-3.809-6.551-5.752-1.933-1.743-3.882-3.663-4.987-6.051-.138-.3-.667-.085-.544.23l.007-.015ZM532.305 169.921c-2.155 2.504-4.595 4.8-6.988 7.081-2.394 2.281-4.756 4.454-7.25 6.566-5.063 4.285-10.341 8.302-15.734 12.157-10.793 7.703-21.932 14.922-32.396 23.085a182.547 182.547 0 0 0-8.645 7.15 143.833 143.833 0 0 0-4.074 3.74c-1.334 1.275-2.746 2.557-3.851 4.07-.644.883.675 1.651 1.397 1.083 1.281-1.021 2.385-2.25 3.567-3.387a164.16 164.16 0 0 1 3.59-3.348 174.03 174.03 0 0 1 7.618-6.451c5.193-4.155 10.594-8.048 16.033-11.873 10.77-7.572 21.702-14.968 31.736-23.515a134.858 134.858 0 0 0 8.062-7.472c2.586-2.596 4.964-5.56 7.327-8.463.23-.285-.162-.692-.407-.407l.015-.016Z"/><path fill="#E4DABB" d="M528.025 175.389c2.454 2.565 4.909 5.123 7.372 7.68 2.24 2.327 4.603 4.577 6.651 7.088a23.016 23.016 0 0 1 2.577 3.878c.683 1.298 1.312 2.658 2.332 3.733 1.842 1.95 4.711 2.342 6.92.691.184-.138.261-.399.077-.576-.99-.937-2.187.123-3.307.084-1.496-.053-2.646-1.244-3.398-2.426-.752-1.183-1.327-2.535-2.094-3.74a28.37 28.37 0 0 0-2.547-3.379c-2.018-2.335-4.265-4.462-6.452-6.636a3315.24 3315.24 0 0 0-7.303-7.219c-.537-.529-1.35.285-.828.83v-.008ZM404.762 309.039c-.736.699-1.419 1.329-2.301 1.851-.445.261-.146.929.345.822 1.442-.323 2.792-1.052 4.142-1.651 1.435-.63 2.862-1.275 4.289-1.92a472.478 472.478 0 0 0 8.653-4.078 1998.579 1998.579 0 0 0 16.854-8.21c11.315-5.583 22.576-11.274 33.738-17.164 10.962-5.791 21.825-11.773 32.55-18.001a883.473 883.473 0 0 0 31.375-19.092 900.641 900.641 0 0 0 30.709-20.474c1.25-.876 2.493-1.759 3.712-2.673 1.159-.868.1-2.826-1.158-1.989-5.117 3.402-10.111 7.012-15.204 10.46a869.383 869.383 0 0 1-46.657 29.459 913.247 913.247 0 0 1-32.343 18.132c-11.069 5.921-22.247 11.643-33.47 17.264-11.269 5.652-22.684 11.036-33.815 16.965-1.304.691-2.662 1.298-3.805 2.227l.706.545c.545-.86 1.204-1.521 1.918-2.235.146-.146-.077-.368-.23-.23l-.008-.008Z"/><path fill="#E4DABB" d="M524.856 244.184c-2.201-2.957-4.073-6.175-5.692-9.484-.813-1.659-1.588-3.333-2.263-5.061-.575-1.49-1.726-3.641-.46-5.054 1.128-1.259 3.015-2.004 4.457-2.841l5.278-3.064 10.717-6.229c1.979-1.152 3.958-2.296 5.937-3.448l2.969-1.72c.982-.568 2.11-1.052 2.862-1.92a.788.788 0 0 0-.76-1.305c-1.013.199-1.879.829-2.762 1.343l-2.968 1.721c-1.926 1.113-3.851 2.235-5.777 3.348l-11.553 6.689-5.608 3.249c-1.542.898-3.429 1.705-4.533 3.171-1.105 1.467-.906 3.21-.346 4.846.637 1.843 1.412 3.656 2.24 5.414 1.903 4.04 4.396 7.703 7.165 11.19.491.614 1.581-.208 1.105-.853l-.008.008ZM500.661 258.476c-2.171-4.293-4.58-8.402-7.372-12.326a84.792 84.792 0 0 0-4.196-5.445c-1.473-1.751-3.199-2.557-5.485-2.089-2.148.446-4.25 1.59-6.245 2.473-2.117.937-4.211 1.92-6.282 2.949a165.285 165.285 0 0 0-22.332 13.34c-1.097.775-2.324 1.505-3.206 2.526-.729.845.168 1.936 1.158 1.498.99-.438 1.849-1.175 2.739-1.813a173.64 173.64 0 0 1 2.7-1.896 170.613 170.613 0 0 1 5.661-3.717 164.096 164.096 0 0 1 11.446-6.567 161.058 161.058 0 0 1 12.151-5.721c1.849-.776 3.951-1.797 5.593-.115 1.503 1.528 2.762 3.371 4.027 5.092 2.984 4.039 5.823 8.217 8.362 12.556.491.837 1.718.1 1.289-.753l-.008.008ZM467.276 279.526l3.214 4.454c.867 1.206 1.672 2.527 2.708 3.594 2.432 2.489 5.301.96 7.886-.414a190.985 190.985 0 0 0 9.106-5.176 191.816 191.816 0 0 0 4.296-2.665c.713-.453 1.419-.914 2.125-1.375.705-.461 1.511-.845 1.963-1.567.33-.522-.214-1.059-.744-.967-.759.138-1.403.722-2.033 1.144a191.408 191.408 0 0 1-5.784 3.702 201.757 201.757 0 0 1-7.947 4.654c-1.289.714-2.57 1.489-3.905 2.104-1.572.729-2.969.683-4.181-.638-1.028-1.121-1.872-2.442-2.777-3.663l-2.838-3.832c-.476-.637-1.565-.023-1.089.637v.008ZM498.582 262.055a429.73 429.73 0 0 0 10.211 16.204 325.043 325.043 0 0 0 5.431 7.887c1.841 2.603 3.521 5.238 5.661 7.503.514.545 1.397-.154 1.028-.799-1.58-2.749-3.651-5.245-5.508-7.818-1.856-2.572-3.628-5.114-5.431-7.672a534.23 534.23 0 0 1-10.648-15.735c-.299-.461-1.035-.046-.744.437v-.007ZM607.714 269.588a235.833 235.833 0 0 1-13.716 10.176 244.332 244.332 0 0 1-6.896 4.577 349.158 349.158 0 0 1-3.652 2.304c-1.005.622-2.309 1.091-2.708 2.281-.054.169.069.415.253.445 1.251.208 2.256-.706 3.268-1.336 1.228-.752 2.447-1.52 3.659-2.296a233.661 233.661 0 0 0 7.173-4.815 247.19 247.19 0 0 0 13.678-10.276c.752-.606-.314-1.651-1.059-1.06ZM540.26 236.98c6.429 14.047 13.21 27.985 20.982 41.348 1.112 1.905 2.232 3.809 3.352 5.714 1.12 1.904 1.971 3.863 3.59 5.237a.32.32 0 0 0 .529-.307c-.36-1.874-1.473-3.44-2.401-5.084a309.323 309.323 0 0 1-2.754-4.999c-1.841-3.403-3.674-6.797-5.523-10.191-3.69-6.789-7.242-13.647-10.763-20.528a520.422 520.422 0 0 1-5.869-11.865c-.375-.776-1.503-.1-1.15.675h.007Z"/><path fill="#E4DABB" d="M552.128 259.428c-7.602 3.679-14.882 7.933-21.894 12.649-1.066.722-.061 2.465 1.013 1.743 7.004-4.692 14.299-8.962 21.748-12.902.989-.522.123-1.974-.875-1.49h.008ZM536.762 400.842c-2.408-7.403-4.802-14.806-7.241-22.202l-3.598-10.913c-.591-1.804-1.228-3.594-1.772-5.406-.484-1.605-.806-3.287-.069-4.877 1.166-2.511 3.904-3.993 6.19-5.314a618.546 618.546 0 0 1 9.835-5.552 601.333 601.333 0 0 1 19.807-10.468 615.103 615.103 0 0 1 11.293-5.56c.498-.238 1.004-.476 1.503-.722.368-.177.898-.561 1.304-.553.737.008 1.059 1.375 1.304 1.951l2.616 5.99c.499 1.144 2.517.315 2.041-.86l-2.34-5.698c-.614-1.49-1.158-3.441-2.984-3.771-.821-.146-1.596.138-2.332.476-.951.43-1.887.891-2.823 1.344-1.78.852-3.56 1.72-5.332 2.588a612.483 612.483 0 0 0-21.548 11.136 612.993 612.993 0 0 0-10.526 5.836c-2.869 1.628-6.06 3.149-8.392 5.545-1.036 1.06-1.887 2.342-2.286 3.786-.491 1.789-.176 3.64.345 5.383 1.189 3.955 2.555 7.857 3.836 11.781a7661.186 7661.186 0 0 0 8.807 26.725c.491 1.49 2.846.853 2.355-.652l.007.007Z"/><path fill="#E4DABB" d="M498.966 293.895c11.407 12.986 15.895 30.227 23.98 45.179 1.143 2.112 2.355 4.171 3.736 6.137.66.937 1.366 1.835 2.071 2.726.706.891 1.266 1.997 2.471 1.981a.483.483 0 0 0 .452-.345c.269-1.076-.429-1.698-.997-2.565a80.7 80.7 0 0 1-1.726-2.788 180.915 180.915 0 0 1-3.145-5.437c-2.087-3.786-3.913-7.703-5.669-11.643-3.483-7.841-6.667-15.843-10.963-23.292-2.409-4.178-5.232-8.118-8.507-11.666-1.059-1.144-2.724.545-1.703 1.705v.008ZM576.569 305.238a991.61 991.61 0 0 0 4.695 6.988c1.572 2.327 3.137 4.447 4.549 6.751.445.722.498 1.275-.039 1.958-.345.445-.751.86-1.127 1.283-.859.952-1.742 1.889-2.639 2.81a88.608 88.608 0 0 1-5.631 5.261c-.805.683.361 1.835 1.158 1.16a85.048 85.048 0 0 0 6.145-5.737 72.4 72.4 0 0 0 2.839-3.103c.774-.898 1.526-1.82 1.288-3.087-.238-1.267-1.342-2.435-2.094-3.479l-2.693-3.732c-1.833-2.542-3.659-5.092-5.508-7.619-.406-.56-1.342-.046-.943.553v-.007ZM553.494 52.637c1.994 2.15 3.843 4.439 5.768 6.643 1.926 2.204 4.028 4.062 5.7 6.328 1.818 2.465.138 4.892-1.266 7.103-1.549 2.443-3.099 4.885-4.633 7.335l-4.403 7.026c-1.335 2.128-3.008 4.34-3.437 6.882-.43 2.542.637 4.63 2.04 6.581a102.7 102.7 0 0 0 4.642 5.99 95.523 95.523 0 0 0 10.647 10.867c1.864 1.62 3.798 3.225 5.823 4.646 2.025 1.421 4.127.745 5.608-1.175 1.687-2.189 3.168-4.562 4.694-6.858 1.374-2.066 2.639-4.262 4.45-5.99 1.641-1.567 3.736-2.649 6.014-1.835 2.278.814 3.705 2.864 5.086 4.63a404.963 404.963 0 0 1 3.145 4.078c.89 1.168 2.041 2.358 2.693 3.687.744 1.513-.161 2.795-1.028 4.032-.867 1.236-1.772 2.503-2.646 3.763l-5.693 8.178c-1.887 2.719-3.95 5.369-5.462 8.318-.406.798.637 1.728 1.297 1.006 2.033-2.227 3.659-4.8 5.377-7.281l5.018-7.242 2.401-3.463c.813-1.175 1.726-2.35 2.37-3.633.56-1.113.852-2.327.491-3.555-.361-1.229-1.197-2.166-1.971-3.103-1.842-2.204-3.683-4.408-5.539-6.597-1.419-1.674-3.046-3.371-5.178-4.086-4.465-1.505-8.032 2.458-10.495 5.584a358.885 358.885 0 0 0-5.278 6.896c-.69.922-1.373 2.15-2.339 2.811-.967.66-2.018-.407-2.823-.999a96.373 96.373 0 0 1-11.83-10.398 95.76 95.76 0 0 1-5.116-5.744c-1.627-1.982-3.468-3.932-4.243-6.29-.897-2.726.883-5.169 2.294-7.35l4.703-7.288a1817.05 1817.05 0 0 0 5.285-8.255c1.511-2.366 3.199-5.115 1.926-7.972-.56-1.267-1.558-2.25-2.524-3.218a1454.34 1454.34 0 0 0-3.514-3.51c-2.439-2.426-5.047-4.66-7.471-7.103-.376-.384-.944.192-.583.584v-.023ZM617.833 183.806c1.189 2.005 2.378 4.001 3.544 6.021.759 1.313 1.642 3.202 3.414 3.21.851 0 1.672-.445 2.424-.799.982-.468 1.948-.96 2.9-1.482a51.457 51.457 0 0 0 2.8-1.659c.836-.529 1.764-1.036 2.324-1.881.177-.269-.115-.607-.407-.53-.843.23-1.511.791-2.224 1.275-.714.484-1.473.96-2.225 1.413-.798.476-1.603.937-2.424 1.375-.821.437-1.703.998-2.601 1.244-1.979.545-3.053-2.012-3.927-3.356-1.09-1.675-2.148-3.372-3.215-5.061-.153-.246-.537-.023-.391.23h.008ZM658.698 150.23c1.995 3.579 4.165 7.043 6.666 10.299a79.691 79.691 0 0 0 3.698 4.477c1.289 1.444 2.6 3.11 4.396 3.779.23.084.368-.192.283-.369-.759-1.659-2.393-2.941-3.643-4.224a80.619 80.619 0 0 1-4.005-4.439c-2.57-3.072-4.933-6.328-6.965-9.776-.162-.276-.591-.031-.438.253h.008ZM649.462 184.659c3.544 5.322 7.042 10.682 10.878 15.797a284.263 284.263 0 0 0 12.059 14.998c4.189 4.861 8.124 9.462 12.642 13.701 4.043 3.794 8.93 6.704 14.668 5.859 2.992-.445 5.738-1.827 8.201-3.54 1.334-.929 2.554-1.928 3.666-3.118 1.028-1.098 2.156-2.258 2.923-3.548.115-.192-.107-.392-.291-.292-1.166.622-2.194 1.49-3.284 2.235-1.089.745-2.224 1.551-3.329 2.335-2.102 1.49-4.396 2.795-6.889 3.471-5.416 1.467-10.172-1.175-14.077-4.754-4.342-3.978-8.3-8.455-12.228-12.833a387.537 387.537 0 0 1-11.898-13.923c-4.396-5.399-8.799-10.813-12.834-16.496-.084-.123-.284-.008-.2.115l-.007-.007Z"/><path fill="#E4DABB" d="M675.529 218.488a230.189 230.189 0 0 1-24.625 18.331c-.376.246-.56.768-.307 1.175 6.153 9.769 12.78 19.269 19.623 28.569a519.259 519.259 0 0 0 10.303 13.539c2.892 3.679 6.037 7.541 10.418 9.492 2.109.937 4.303 1.137 6.543 1.528 1.864.331 4.158.814 4.749 2.888.276.968 1.68.561 1.488-.415-.775-3.909-5.8-4.032-8.899-4.615-4.787-.891-8.3-4.401-11.3-8.018-7.28-8.77-13.969-18.116-20.482-27.47-3.751-5.391-7.364-10.875-10.962-16.373l-.307 1.175a221.963 221.963 0 0 0 24.502-19.069c.506-.453-.23-1.167-.736-.737h-.008Z"/><path fill="#E4DABB" d="M633.981 303.203c9.167-7.504 18.81-14.415 28.821-20.751a281.502 281.502 0 0 1 7.541-4.608c2.539-1.497 5.071-3.064 7.733-4.324 1.342-.637 2.769-1.113 4.257-1.228 1.489-.115 3.007.046 4.496.222 2.823.331 5.63.515 8.469.308a40.197 40.197 0 0 0 9.09-1.705 41.195 41.195 0 0 0 4.319-1.628c1.412-.622 2.892-1.291 4.051-2.412.621-.607-.016-1.735-.859-1.474-1.32.407-2.471 1.09-3.713 1.689a35.45 35.45 0 0 1-3.897 1.598c-2.693.929-5.501 1.582-8.331 1.881-2.831.3-5.608.261-8.416-.023-2.992-.299-5.884-.484-8.745.622-2.616 1.014-5.04 2.565-7.457 3.978a268.915 268.915 0 0 0-7.694 4.693 253.246 253.246 0 0 0-14.752 10.045 281.783 281.783 0 0 0-15.634 12.379c-.506.43.222 1.137.721.722v.016ZM658.943 150.822c5.439 4.623 9.114 10.836 13.594 16.311a87.557 87.557 0 0 0 7.595 8.156c1.035.976 2.14 2.189 3.574 1.175 1.535-1.083 2.9-2.534 4.304-3.778 3.468-3.072 6.935-6.144 10.433-9.193.683-.591-.322-1.597-.99-.99a1338.616 1338.616 0 0 1-8.515 7.61l-4.273 3.786c-.483.43-1.626 1.851-2.37 1.567-.33-.131-.729-.637-.982-.868a87.3 87.3 0 0 1-8.086-8.655c-2.201-2.703-4.012-5.291-6.029-7.933-2.217-2.911-4.572-5.714-7.372-8.087-.614-.522-1.512.369-.89.891l.007.008ZM685.394 340.772a83.352 83.352 0 0 0 11.062-6.728 88.758 88.758 0 0 0 4.956-3.847 57.209 57.209 0 0 0 2.409-2.105c.713-.66 1.48-1.382 1.641-2.373.031-.168-.076-.414-.291-.384-1.795.239-3.283 2.197-4.595 3.318a81.115 81.115 0 0 1-5.102 4.055 88.764 88.764 0 0 1-10.824 6.789c-.844.445-.1 1.705.744 1.275ZM118.315 218.426c-4.687 3.94-9.628 7.649-14.606 11.213a220.235 220.235 0 0 1-15.404 10.06c-1.397.837-2.916 1.559-4.25 2.496-.837.584-1.88 1.797-.86 2.696.215.184.591.192.737-.093.767-1.52 2.401-2.096 3.82-2.918 1.619-.929 3.23-1.889 4.826-2.864a183.726 183.726 0 0 0 9.22-6.083 180.311 180.311 0 0 0 8.738-6.504c2.846-2.258 5.7-4.8 8.485-7.304.475-.43-.215-1.106-.698-.699h-.008ZM89.54 253.876c-2.417 1.221-4.826 2.442-7.242 3.655-1.166.584-2.324 1.183-3.498 1.751-1.074.523-2.27 1.091-3.498 1.045-1.228-.046-2.056-.822-2.862-1.621a99.574 99.574 0 0 1-2.685-2.734 124.872 124.872 0 0 1-2.746-2.964c-.836-.929-1.634-2.112-2.815-2.619-.545-.23-1.19.154-1.028.791.337 1.336 1.457 2.343 2.34 3.333.981 1.091 1.979 2.174 2.999 3.233 1.734 1.805 3.651 4.401 6.337 4.662 2.684.261 5.193-1.498 7.433-2.68 2.716-1.444 5.447-2.88 8.17-4.316 1.02-.538.123-2.051-.898-1.536h-.007ZM32.496 218.611c3.237 3.571 6.344 7.272 9.558 10.866 1.565 1.751 3.145 3.479 4.726 5.223l2.432 2.68c.813.898 1.572 1.973 2.661 2.542.96.499 1.788-.484 1.389-1.39-.468-1.068-1.442-1.866-2.24-2.696l-2.5-2.611c-1.666-1.736-3.322-3.487-5.002-5.214-3.36-3.449-6.82-6.805-10.15-10.284-.552-.583-1.411.292-.874.876v.008ZM.836 241.535a17.34 17.34 0 0 1 4.895-4.685 17.51 17.51 0 0 1 2.945-1.513c1.028-.407 2.363-.952 3.498-.837 1.29.13 1.987 1.136 2.632 2.127a130.547 130.547 0 0 0 2.163 3.218 164.662 164.662 0 0 0 4.38 5.967c3.061 3.986 6.29 7.849 9.72 11.512 2.77 2.957 6.106 7.127 10.563 7.096 2.194-.015 4.074-1.16 5.777-2.442.867-.653 1.703-1.336 2.608-1.935s1.772-.922 2.294-1.89c.138-.261.092-.675-.215-.814-1.826-.806-3.62.907-5.002 1.966-1.473 1.122-3.053 2.489-4.955 2.75-2.194.307-4.197-1.099-5.746-2.489-1.81-1.62-3.468-3.425-5.132-5.191-3.506-3.725-6.858-7.588-10.011-11.619-1.627-2.074-3.169-4.209-4.726-6.336-1.342-1.836-2.532-3.364-5.017-3.08-2.263.261-4.572 1.421-6.436 2.688a18.794 18.794 0 0 0-5.01 5.053c-.322.477.438.907.76.446l.015.008ZM3.268 174.352c2.639 3.779 5.278 7.557 7.901 11.343 1.297 1.867 2.609 3.725 3.867 5.607.629.944 1.266 1.881 1.895 2.826.567.844.99 1.758 1.979 2.119.322.123.69-.192.683-.522-.039-.998-.73-1.651-1.312-2.404-.698-.891-1.389-1.789-2.087-2.68-1.442-1.858-2.838-3.748-4.242-5.629-2.731-3.648-5.431-7.319-8.132-10.99-.245-.33-.797-.015-.56.33h.008Z"/><path fill="#E4DABB" d="M26.95 189.144c-3.76 3.018-7.71 5.782-11.461 8.8l-5.463 4.401-2.807 2.258c-.852.683-1.849 1.344-2.033 2.496-.038.245.092.453.353.468 1.05.054 1.803-.63 2.577-1.259.929-.761 1.841-1.544 2.754-2.312l5.662-4.738c3.72-3.118 7.218-6.474 10.94-9.592.367-.307-.154-.814-.523-.522ZM96.275 198.574c-6.122-.875-11.33-4.608-17.26-6.167-6.237-1.643-12.696-.576-18.642 1.644-3.475 1.298-6.804 2.949-10.057 4.731-1.442.791-.153 3.002 1.289 2.204 5.431-3.003 11.193-5.729 17.383-6.666 3.015-.453 6.122-.446 9.098.222 2.977.668 5.616 1.828 8.347 2.942 3.091 1.259 6.29 2.357 9.612 2.795.967.131 1.204-1.574.23-1.712v.007ZM115.446 184.198c-7.564 3.64-16.463 4.308-24.525 2.02a33.894 33.894 0 0 1-5.777-2.235c-1.856-.922-3.728-2.012-5.677-2.849-3.828-1.636-7.894-1.874-11.837-.477-2.163.768-4.196 1.859-6.098 3.141-1.903 1.283-3.951 2.773-5.585 4.455-1.212 1.251.56 2.864 1.856 1.858 1.627-1.259 3.107-2.672 4.787-3.863 1.68-1.19 3.399-2.235 5.278-2.995 1.88-.76 3.729-1.198 5.685-1.182 2.102.015 4.12.645 6.022 1.497 1.902.853 3.782 1.897 5.73 2.734a34.42 34.42 0 0 0 5.738 1.912 36.28 36.28 0 0 0 12.075.814 36.878 36.878 0 0 0 12.941-3.793c.699-.354.085-1.375-.606-1.045l-.007.008ZM40.252 145.047a156.924 156.924 0 0 1 6.78 7.994 152.01 152.01 0 0 1 3.177 4.14c.897 1.213 1.803 2.964 3.36 3.425.23.069.445-.123.453-.346.069-1.643-1.389-3.087-2.317-4.293a139.293 139.293 0 0 0-3.276-4.116 164.822 164.822 0 0 0-7.004-7.972c-.729-.783-1.88.384-1.166 1.168h-.008ZM161.297 273.198c9.49 14.73 22.201 26.91 35.173 38.529 1.642 1.475 3.291 2.941 4.941 4.408 1.457 1.29 2.984 2.65 4.978 2.926 4.196.592 7.234-3.456 9.751-6.167a5255.758 5255.758 0 0 1 19.945-21.441l2.47-2.642c.683-.737 1.55-1.475 1.903-2.45.69-1.882-.66-3.993-1.512-5.614-1.902-3.609-4.411-6.896-7.18-9.891s-5.777-5.653-8.899-8.218c-2.876-2.357-6.589-4.853-7.855-8.539-1.427-4.163 2.685-7.273 5.293-9.877a162.031 162.031 0 0 1 9.927-9.131 159.566 159.566 0 0 1 10.41-8.094c3.245-2.319 7.019-4.316 9.696-7.319 2.678-3.003 3.521-6.958 2.302-10.859-1.297-4.124-4.12-7.534-6.782-10.844a460.354 460.354 0 0 0-18.365-21.442 335.423 335.423 0 0 0-4.764-5.084c-1.097-1.151-2.815.584-1.741 1.744 6.237 6.72 12.351 13.547 18.235 20.581 2.815 3.364 5.768 6.705 8.254 10.322 2.156 3.141 4.242 7.104 2.9 10.99-1.205 3.509-4.787 5.598-7.687 7.572a163.493 163.493 0 0 0-10.387 7.695 158.674 158.674 0 0 0-9.643 8.409 165.584 165.584 0 0 0-4.687 4.608c-1.427 1.459-2.953 2.903-4.112 4.585-5.071 7.334 4.396 13.616 9.19 17.655 5.999 5.054 11.699 10.813 14.936 18.078.461 1.037.706 1.759-.107 2.65s-1.626 1.736-2.439 2.603l-4.941 5.269a3008.242 3008.242 0 0 1-9.643 10.244c-3.222 3.402-6.137 6.766-9.42 9.892-1.22 1.167-2.869 2.542-4.68 2.311-1.81-.23-3.421-2.081-4.748-3.263-12.573-11.167-25.262-22.517-35.288-36.118a118.538 118.538 0 0 1-3.583-5.138c-.751-1.136-2.577-.084-1.833 1.075l-.008-.015Z"/><path fill="#E4DABB" d="M220.113 259.95c5.339-5.521 10.732-10.997 16.01-16.588 1.266-1.336 2.547-2.665 3.782-4.024 1.074-1.183 2.056-2.434 2.578-3.963.521-1.528.475-3.325.153-4.961-.169-.875-.429-1.72-.713-2.565-.269-.783-.453-1.62-1.212-2.043-.453-.245-.944-.015-1.113.454-.268.76.1 1.42.346 2.135.268.783.506 1.582.675 2.396.337 1.628.314 3.34-.484 4.83-.744 1.398-1.933 2.488-3.03 3.594-1.25 1.26-2.516 2.519-3.751 3.786-4.963 5.092-9.904 10.214-14.852 15.321-1.035 1.068.599 2.696 1.627 1.628h-.016ZM281.484 327.762a32.219 32.219 0 0 0-5.217-9.907c-2.094-2.68-4.948-6.013-8.707-4.477-1.756.714-3.245 2.043-4.702 3.218a91.066 91.066 0 0 0-4.542 3.878 100.286 100.286 0 0 0-8.446 8.678c-2.339 2.704-4.349 5.952-7.18 8.179-1.32 1.037-2.846 1.705-4.549 1.667-1.972-.046-3.905-.738-5.884-.3-1.772.392-3.138 1.667-4.334 2.965-1.343 1.451-2.67 2.918-4.035 4.354a193.179 193.179 0 0 1-19.14 17.494 176.207 176.207 0 0 1-5.401 4.14c-1.826 1.344-3.997 2.503-5.416 4.277-.353.438-.046 1.221.598 1.022 1.819-.569 3.284-1.828 4.81-2.942a226.391 226.391 0 0 0 4.595-3.448 191.602 191.602 0 0 0 17.698-15.513c2.77-2.742 5.309-5.568 7.955-8.363 1.397-1.475 2.785-2.35 4.879-2.189 1.834.138 3.567.622 5.409.277 3.145-.592 5.515-3.126 7.448-5.499 2.379-2.918 4.734-5.821 7.334-8.548 2.601-2.726 5.516-5.429 8.477-7.917 1.573-1.321 3.26-3.018 5.194-3.771 2.178-.845 3.92.799 5.346 2.258a28.81 28.81 0 0 1 6.659 10.797c.246.715 1.381.415 1.143-.314l.008-.016Z"/><path fill="#F4F6F9" d="M509.468 419.074c14.307-6.382 28.66-12.633 42.829-19.337a5080.369 5080.369 0 0 0 42.33-20.26c14.077-6.819 28.092-13.762 42.085-20.742 6.804-3.395 13.593-6.835 20.306-10.414 6.712-3.579 12.98-7.319 18.887-11.888 5.907-4.57 11.184-9.638 16.432-14.838a1616.947 1616.947 0 0 1 16.761-16.373l4.227-4.078c2.256-2.173-1.212-5.644-3.429-3.432-5.6 5.567-11.192 11.135-16.854 16.642-5.254 5.114-10.548 10.221-16.201 14.89-11.507 9.508-25.109 15.567-38.311 22.287a4909.82 4909.82 0 0 1-41.709 20.996c-13.931 6.935-27.862 13.87-41.839 20.705-13.962 6.835-27.939 13.662-41.763 20.773-1.718.884-3.46 1.728-5.194 2.581-1.733.852-.207 3.225 1.45 2.488h-.007Z"/><path fill="#F4F6F9" d="M711.354 395.797c-2.102-4.685-4.104-9.392-6.337-14.023-2.232-4.631-4.441-9.17-6.842-13.663-4.435-8.271-9.29-16.48-15.742-23.353-6.452-6.874-14.499-12.411-21.848-18.432-7.349-6.021-14.292-12.426-20.176-19.844-5.899-7.442-10.54-15.805-15.281-24.007-4.741-8.202-10.126-16.673-15.918-24.56-12.067-16.442-25.438-31.932-38.387-47.675-6.636-8.064-13.287-16.112-19.838-24.237-3.184-3.948-6.398-7.872-9.467-11.912-2.516-3.31-5.063-7.096-5.001-11.419.023-1.759.498-3.564 1.649-4.923.752-.891.875-2.181 0-3.057-.782-.783-2.286-.883-3.053 0-2.977 3.418-3.621 8.072-2.524 12.388 1.166 4.569 4.181 8.332 7.035 11.965 6.589 8.386 13.34 16.649 20.114 24.89 13.21 16.073 26.719 31.932 39.507 48.343 6.176 7.918 12.052 16.082 17.291 24.66 5.056 8.271 9.566 16.88 14.944 24.951 5.362 8.049 11.722 15.237 18.895 21.703 7.172 6.474 15.081 11.958 22.523 18.094 3.774 3.11 7.287 6.481 10.387 10.275 2.93 3.579 5.484 7.457 7.886 11.412 5.27 8.701 10.202 17.64 14.928 26.649 1.189 2.258 2.493 4.446 3.644 6.727.552 1.091 2.094.131 1.611-.944v-.008ZM710.855 328.523c-1.289-3.833-2.915-7.527-5.001-10.998-2.087-3.471-4.511-6.773-7.066-9.945-5.14-6.382-10.893-12.218-16.347-18.316-12.328-13.777-22.654-29.191-33.693-43.989-11.039-14.799-22.339-29.199-34.145-43.291-11.806-14.092-23.942-27.724-36.63-40.925a687.117 687.117 0 0 0-19.486-19.484c-3.198-3.071-6.351-6.289-9.888-8.977-3.26-2.473-7.242-4.316-11.423-4.063-2.04.123-4.027.691-5.738 1.836-1.994 1.328-.115 4.577 1.887 3.233 3.115-2.097 7.104-1.536 10.265.169 3.72 2.012 6.704 5.199 9.735 8.094a689.106 689.106 0 0 1 19.132 19.061c12.466 12.918 24.448 26.303 36.001 40.035 11.53 13.7 22.646 27.754 33.44 42.046 5.515 7.303 10.916 14.691 16.309 22.079 5.393 7.388 10.932 14.937 16.969 21.941 5.331 6.19 11.154 11.919 16.685 17.932 5.393 5.868 10.28 12.057 14.077 19.092a42.41 42.41 0 0 1 2.378 5.161c.591 1.551 3.076.929 2.532-.699l.007.008ZM301.629 7.787c12.09 8.463 24.325 16.704 36.507 25.036 12.129 8.302 24.211 16.673 36.431 24.852a4734.045 4734.045 0 0 0 36.907 24.452 4953.37 4953.37 0 0 0 36.968 24.014c5.815 3.74 11.53 7.849 17.752 10.89 5.561 2.711 12.051 4.831 18.273 3.387 1.519-.353 2.984-.952 4.357-1.69 2.225-1.19.246-4.6-1.979-3.386-5.355 2.918-11.499 1.789-16.9-.392-6.175-2.504-11.76-6.39-17.337-9.984a4915.75 4915.75 0 0 1-36.485-23.73 4575.582 4575.582 0 0 1-36.27-24.06c-12.052-8.08-24.257-16.136-36.301-24.338-12.044-8.201-23.842-16.542-35.771-24.805l-4.488-3.11c-1.756-1.221-3.398 1.643-1.672 2.857l.008.007ZM364.932 5.583c2.593 1.444 5.017 3.08 7.534 4.646 2.516 1.567 5.063 3.042 7.602 4.531 4.979 2.934 9.996 5.799 15.005 8.679 10.126 5.828 20.26 11.634 30.294 17.601a1453.126 1453.126 0 0 1 29.903 18.27c4.894 3.072 9.773 6.175 14.629 9.308 4.595 2.965 9.229 5.883 13.609 9.162 4.618 3.464 8.991 7.472 12.182 12.326 1.55 2.358 2.854 4.884 3.736 7.565.882 2.68 1.189 5.429 1.519 8.225.092.775.522 1.436 1.358 1.535.698.085 1.595-.345 1.718-1.121.783-5.214-1.12-10.72-3.582-15.275-2.463-4.554-6.061-8.709-10.012-12.195-4.127-3.64-8.691-6.735-13.286-9.738a1239.528 1239.528 0 0 0-14.783-9.492 1439.28 1439.28 0 0 0-30.463-18.77c-10.118-6.066-20.275-12.103-30.601-17.816-5.814-3.218-11.637-6.397-17.544-9.439-3.015-1.55-6.053-3.04-9.098-4.523-3.046-1.482-6.206-2.734-9.244-4.27-.514-.261-.967.492-.453.776l-.023.015Z"/><path fill="#FFA900" d="M321.751 3.563c3.268 2.95 6.336 6.129 9.665 9.001 3.33 2.872 6.698 5.752 10.142 8.517 6.927 5.583 13.923 11.082 21.042 16.411 14.254 10.66 29.044 20.467 44.371 29.521 15.328 9.054 31.161 17.602 46.136 27.432 14.637 9.607 28.545 20.259 42.115 31.303 27.533 22.417 54.229 45.847 77.542 72.711 11.691 13.47 22.722 27.493 33.777 41.494 11.054 14 22.415 28.414 33.546 42.691 22.209 28.499 43.903 57.414 64.363 87.203 1.281 1.859 2.501 3.779 3.828 5.606 1.327 1.828 3.268 3.21 4.994 4.685 1.519 1.29 4.334.107 3.605-2.104-.682-2.074-1.204-4.37-2.316-6.267-1.113-1.897-2.555-3.755-3.828-5.606a1295.946 1295.946 0 0 0-7.963-11.458 1536.787 1536.787 0 0 0-15.803-22.072c-10.732-14.722-21.695-29.29-32.734-43.782-11.016-14.461-22.17-28.814-33.347-43.144-11.093-14.223-22.116-28.507-33.585-42.438-11.4-13.847-23.344-27.225-36.216-39.72-12.735-12.357-26.213-23.907-39.845-35.242-13.632-11.335-27.456-22.409-41.932-32.616-14.682-10.352-30.14-19.376-45.744-28.238-15.626-8.87-31.176-17.779-45.974-28-14.545-10.045-28.407-21.012-42.553-31.602-3.513-2.627-7.249-4.946-10.809-7.519-1.887-1.36-4.203 1.674-2.485 3.226l.008.007Z"/><path fill="#FFA900" d="M346.537 8.08c6.697 5.92 13.478 11.764 20.827 16.864 7.365 5.107 14.89 9.945 22.493 14.691 15.02 9.37 30.34 18.24 45.483 27.393 14.959 9.047 29.788 18.34 44.033 28.492 12.911 9.201 25.346 19.054 37.329 29.429 24.433 21.15 46.971 44.412 68.206 68.764 21.426 24.567 41.67 50.149 61.155 76.275 19.34 25.934 38.088 52.306 56.96 78.586 1.112 1.552 2.202 3.126 3.345 4.662 1.25 1.666 2.884 3.041 4.38 4.477 2.271 2.181 5.47-.553 4.196-3.241-.859-1.797-1.596-3.717-2.731-5.352-1.135-1.636-2.355-3.272-3.529-4.908-2.355-3.279-4.71-6.566-7.065-9.845-4.741-6.605-9.474-13.209-14.215-19.806-9.512-13.217-19.055-26.411-28.737-39.512-19.562-26.464-39.538-52.691-60.864-77.757-20.973-24.652-43.182-48.306-67.162-70.055-11.937-10.828-24.326-21.172-37.199-30.872-13.578-10.237-27.747-19.637-42.184-28.615-15.22-9.461-30.678-18.546-46.066-27.731-7.595-4.531-15.19-9.054-22.692-13.739-3.79-2.365-7.603-4.708-11.384-7.104-3.782-2.396-7.434-4.5-11.193-6.727-3.759-2.227-7.671-4.531-11.461-6.873-1.511-.937-3.299 1.29-1.925 2.503Z"/></g><defs><clipPath id="a"><path fill="#fff" d="M0 0h717v422H0z"/></clipPath></defs></svg>