<svg width="717" height="423" viewBox="0 0 717 423" fill="none" xmlns="http://www.w3.org/2000/svg">
<path d="M357.891 111.3C358.283 111.884 358.5 112.525 358.542 113.223C358.59 113.91 358.391 114.617 357.946 115.344C357.562 115.97 357.027 116.447 356.341 116.777C355.654 117.107 354.885 117.238 354.035 117.17C353.204 117.099 352.367 116.805 351.526 116.289C350.662 115.76 350.012 115.135 349.578 114.416C349.143 113.696 348.915 112.946 348.892 112.166C348.881 111.393 349.049 110.659 349.396 109.965L351.835 111.459C351.653 111.833 351.642 112.272 351.802 112.776C351.969 113.269 352.331 113.687 352.888 114.028C353.457 114.376 353.987 114.506 354.479 114.417C354.983 114.334 355.375 114.066 355.653 113.611C355.939 113.145 356 112.675 355.838 112.2C355.675 111.725 355.287 111.299 354.673 110.923L353.718 110.338L354.951 108.326L355.821 108.859C356.367 109.193 356.867 109.32 357.323 109.24C357.79 109.166 358.149 108.925 358.4 108.516C358.651 108.106 358.709 107.68 358.573 107.238C358.456 106.791 358.159 106.421 357.681 106.128C357.181 105.822 356.692 105.702 356.213 105.768C355.753 105.83 355.387 106.02 355.114 106.338L352.675 104.844C353.104 104.246 353.664 103.792 354.355 103.48C355.053 103.158 355.81 103.019 356.626 103.066C357.453 103.119 358.254 103.383 359.027 103.857C359.823 104.344 360.43 104.935 360.849 105.63C361.268 106.324 361.487 107.037 361.508 107.769C361.529 108.501 361.354 109.169 360.985 109.771C360.658 110.306 360.219 110.702 359.671 110.959C359.14 111.213 358.547 111.326 357.891 111.3ZM369.058 120.394L369.698 127.12L366.85 125.375L366.453 119.783L364.071 123.671L361.751 122.25L367.081 113.553L369.4 114.974L367.205 118.555L372.009 116.573L374.652 118.192L369.058 120.394ZM374.016 130.07C373.232 129.59 372.624 128.936 372.192 128.108C371.768 127.27 371.567 126.373 371.59 125.417C371.612 124.461 371.871 123.58 372.366 122.773C372.86 121.965 373.528 121.335 374.369 120.881C375.21 120.427 376.098 120.204 377.03 120.213C377.97 120.21 378.832 120.449 379.617 120.93C380.401 121.41 381.006 122.07 381.43 122.909C381.862 123.736 382.066 124.627 382.043 125.583C382.021 126.539 381.762 127.42 381.267 128.227C380.773 129.034 380.105 129.665 379.264 130.119C378.423 130.573 377.532 130.802 376.592 130.804C375.659 130.796 374.801 130.551 374.016 130.07ZM375.333 127.921C375.947 128.298 376.592 128.38 377.268 128.169C377.956 127.965 378.516 127.511 378.948 126.806C379.38 126.101 379.531 125.396 379.4 124.69C379.281 123.992 378.914 123.455 378.3 123.078C377.686 122.702 377.035 122.616 376.348 122.82C375.671 123.031 375.117 123.489 374.685 124.194C374.253 124.899 374.097 125.6 374.216 126.299C374.347 127.004 374.719 127.545 375.333 127.921ZM379.412 133.376C379.128 133.202 378.893 133.011 378.707 132.804L379.982 130.723L380.306 130.922C380.67 131.145 381.015 131.207 381.34 131.11C381.673 131.001 382.019 130.705 382.377 130.221L386.071 125.189L392.636 129.212L387.307 137.909L384.988 136.488L389 129.94L386.8 128.592L384.247 132.07C383.547 133.033 382.784 133.628 381.956 133.856C381.135 134.073 380.287 133.913 379.412 133.376ZM397.15 135.613C397.729 135.968 398.172 136.42 398.478 136.967C398.795 137.521 398.942 138.111 398.918 138.737C398.912 139.359 398.735 139.954 398.387 140.523C398.031 141.103 397.575 141.542 397.016 141.841C396.476 142.135 395.887 142.267 395.249 142.236C394.623 142.212 394.02 142.022 393.44 141.667L389.313 139.138L394.642 130.441L396.962 131.862L395.342 134.505L397.15 135.613ZM394.194 139.479C394.57 139.709 394.919 139.79 395.242 139.722C395.583 139.649 395.858 139.443 396.067 139.102C396.269 138.772 396.322 138.444 396.224 138.119C396.145 137.789 395.918 137.509 395.542 137.279L394.161 136.433L392.813 138.632L394.194 139.479ZM405.608 152.125L403.374 150.756L404.711 148.573L397.873 144.383L403.202 135.686L405.521 137.107L401.509 143.656L404.579 145.537L408.591 138.988L410.91 140.409L406.898 146.958L408.262 147.794L405.608 152.125ZM412.02 153.356C411.235 152.876 410.627 152.222 410.196 151.395C409.772 150.556 409.571 149.659 409.593 148.703C409.616 147.747 409.875 146.866 410.369 146.059C410.864 145.252 411.532 144.621 412.373 144.167C413.214 143.713 414.101 143.49 415.034 143.499C415.974 143.496 416.836 143.735 417.62 144.216C418.405 144.696 419.009 145.356 419.434 146.195C419.865 147.022 420.069 147.913 420.047 148.869C420.024 149.825 419.766 150.706 419.271 151.513C418.776 152.321 418.108 152.951 417.267 153.405C416.426 153.859 415.536 154.088 414.596 154.09C413.663 154.082 412.804 153.837 412.02 153.356ZM413.336 151.208C413.95 151.584 414.595 151.666 415.272 151.456C415.96 151.252 416.52 150.797 416.952 150.092C417.384 149.387 417.534 148.682 417.404 147.977C417.284 147.278 416.918 146.741 416.304 146.365C415.69 145.988 415.039 145.902 414.351 146.106C413.675 146.317 413.12 146.775 412.688 147.48C412.256 148.185 412.1 148.887 412.219 149.585C412.35 150.291 412.722 150.832 413.336 151.208Z" fill="#11244D"/>
<path d="M481.523 198.625C481.172 198.206 480.952 197.869 480.861 197.614L482.903 195.91L483.147 196.202C483.531 196.662 483.986 196.916 484.512 196.964C485.048 197.002 485.615 196.807 486.212 196.378L493.752 191.023L499.891 198.377L489.143 207.349L487.31 205.153L495.939 197.95L493.299 194.787L487.551 198.856C486.368 199.687 485.25 200.073 484.195 200.016C483.148 199.969 482.257 199.506 481.523 198.625ZM501.026 213.377C500.647 213.693 500.33 213.905 500.074 214.015L495.37 208.38C494.993 208.886 494.809 209.413 494.816 209.963C494.832 210.523 495.036 211.038 495.429 211.509C495.908 212.082 496.491 212.386 497.179 212.419L499.012 214.615C498.505 214.778 497.921 214.848 497.26 214.826C496.608 214.815 495.954 214.666 495.298 214.38C494.643 214.094 494.076 213.664 493.597 213.091C492.99 212.364 492.615 211.54 492.471 210.618C492.327 209.696 492.417 208.796 492.743 207.916C493.078 207.028 493.62 206.272 494.367 205.649C495.094 205.042 495.924 204.653 496.858 204.481C497.8 204.32 498.711 204.393 499.593 204.699C500.484 204.997 501.22 205.494 501.801 206.19C502.391 206.897 502.755 207.687 502.894 208.561C503.041 209.445 502.949 210.312 502.617 211.163C502.304 212.015 501.773 212.753 501.026 213.377ZM499.943 207.741C499.567 207.291 499.1 207.012 498.542 206.905C497.994 206.789 497.433 206.867 496.86 207.137L499.961 210.853C500.319 210.345 500.496 209.807 500.49 209.239C500.493 208.681 500.311 208.181 499.943 207.741ZM510.467 224.936C509.73 225.552 508.895 225.936 507.963 226.088C507.04 226.251 506.12 226.168 505.203 225.84C504.304 225.513 503.521 224.959 502.853 224.18L500.289 226.32L498.546 224.232L501.11 222.091C500.462 221.295 500.054 220.42 499.884 219.468C499.733 218.517 499.816 217.597 500.133 216.707C500.458 215.828 500.989 215.08 501.726 214.465C502.463 213.85 503.293 213.461 504.217 213.298C505.149 213.145 506.064 213.232 506.962 213.559C507.879 213.888 508.672 214.442 509.34 215.222L512.058 212.953L513.801 215.042L511.083 217.31C511.731 218.107 512.13 218.981 512.281 219.931C512.451 220.884 512.373 221.8 512.048 222.679C511.731 223.569 511.204 224.321 510.467 224.936ZM503.469 216.553C502.824 217.091 502.465 217.722 502.39 218.444C502.316 219.166 502.547 219.859 503.083 220.523L507.444 216.883C506.887 216.236 506.246 215.885 505.522 215.829C504.798 215.774 504.114 216.015 503.469 216.553ZM504.749 222.519C505.306 223.165 505.947 223.516 506.671 223.572C507.395 223.628 508.079 223.387 508.724 222.848C509.369 222.31 509.728 221.68 509.803 220.958C509.877 220.235 509.646 219.543 509.11 218.879L504.749 222.519ZM510.518 233.363C509.929 232.656 509.562 231.842 509.418 230.921C509.284 229.99 509.381 229.076 509.708 228.178C510.035 227.28 510.562 226.527 511.288 225.921C512.015 225.314 512.85 224.93 513.792 224.769C514.734 224.608 515.646 224.68 516.527 224.987C517.418 225.285 518.159 225.787 518.748 226.493C519.338 227.199 519.699 228.018 519.833 228.948C519.978 229.87 519.886 230.78 519.559 231.678C519.232 232.576 518.705 233.329 517.978 233.935C517.252 234.542 516.417 234.926 515.475 235.087C514.533 235.248 513.616 235.18 512.724 234.882C511.843 234.575 511.108 234.069 510.518 233.363ZM512.453 231.748C512.914 232.301 513.499 232.585 514.208 232.602C514.925 232.628 515.601 232.377 516.235 231.847C516.87 231.317 517.238 230.697 517.34 229.987C517.45 229.287 517.275 228.661 516.814 228.108C516.352 227.555 515.763 227.266 515.046 227.239C514.337 227.222 513.666 227.479 513.031 228.009C512.397 228.538 512.024 229.153 511.914 229.853C511.812 230.564 511.992 231.195 512.453 231.748ZM512.465 240.907L523.059 232.063L524.366 233.63L523.881 234.608L523.945 234.685C524.305 234.68 524.755 234.782 525.294 234.991C525.834 235.201 526.326 235.572 526.77 236.104C527.3 236.738 527.617 237.482 527.72 238.333C527.831 239.195 527.707 240.055 527.345 240.912C527.003 241.771 526.448 242.521 525.68 243.162C524.912 243.803 524.07 244.219 523.154 244.411C522.256 244.605 521.393 244.57 520.565 244.306C519.745 244.052 519.07 243.608 518.541 242.973C518.259 242.636 518.05 242.271 517.915 241.88C517.778 241.508 517.695 241.17 517.666 240.864C517.645 240.569 517.66 240.348 517.711 240.201L517.647 240.124L514.208 242.995L512.465 240.907ZM520.232 241.067C520.505 241.394 520.849 241.619 521.264 241.742C521.679 241.865 522.119 241.871 522.583 241.761C523.066 241.653 523.517 241.424 523.937 241.074C524.357 240.724 524.658 240.325 524.84 239.877C525.041 239.432 525.118 238.994 525.072 238.564C525.026 238.133 524.866 237.755 524.592 237.427C524.319 237.099 523.975 236.874 523.56 236.752C523.145 236.629 522.696 236.622 522.213 236.73C521.748 236.839 521.307 237.069 520.887 237.42C520.467 237.77 520.157 238.168 519.956 238.614C519.773 239.061 519.705 239.5 519.752 239.93C519.798 240.36 519.958 240.739 520.232 241.067ZM525.726 251.175L523.983 249.087L529.879 244.166L527.969 241.878L529.904 240.263L535.466 246.927L533.531 248.542L531.622 246.254L525.726 251.175ZM531.095 258.013C530.505 257.307 530.138 256.493 529.994 255.571C529.86 254.641 529.957 253.726 530.284 252.828C530.611 251.93 531.138 251.178 531.864 250.571C532.591 249.964 533.426 249.58 534.368 249.419C535.31 249.258 536.222 249.33 537.103 249.637C537.994 249.935 538.735 250.437 539.324 251.144C539.914 251.85 540.276 252.668 540.409 253.598C540.554 254.52 540.462 255.43 540.135 256.328C539.808 257.227 539.281 257.979 538.554 258.586C537.828 259.192 536.993 259.576 536.051 259.737C535.109 259.899 534.192 259.83 533.301 259.532C532.419 259.226 531.684 258.719 531.095 258.013ZM533.029 256.398C533.491 256.951 534.075 257.236 534.784 257.252C535.501 257.279 536.177 257.027 536.811 256.498C537.446 255.968 537.814 255.348 537.916 254.638C538.027 253.937 537.851 253.311 537.39 252.758C536.928 252.206 536.339 251.916 535.622 251.889C534.914 251.873 534.242 252.129 533.607 252.659C532.973 253.189 532.6 253.804 532.49 254.504C532.388 255.214 532.568 255.845 533.029 256.398ZM544.403 265.217C544.55 265.685 544.563 266.169 544.442 266.669C544.332 267.161 544.046 267.599 543.585 267.984C543.176 268.325 542.708 268.534 542.18 268.61C541.653 268.685 541.129 268.619 540.608 268.411C540.097 268.195 539.645 267.851 539.252 267.38L535.805 263.25L543.635 256.714L546.839 260.552C547.232 261.023 547.485 261.524 547.598 262.055C547.72 262.596 547.707 263.111 547.559 263.599C547.421 264.079 547.163 264.477 546.784 264.793C546.405 265.109 545.995 265.295 545.555 265.35C545.115 265.405 544.731 265.36 544.403 265.217ZM543.763 260.02L542.167 261.352L543.346 262.765C543.568 263.031 543.815 263.181 544.086 263.215C544.366 263.259 544.639 263.17 544.905 262.948C545.13 262.76 545.246 262.524 545.253 262.241C545.268 261.968 545.165 261.698 544.942 261.432L543.763 260.02ZM540.444 265.656C540.675 265.932 540.935 266.088 541.225 266.124C541.516 266.16 541.799 266.062 542.075 265.831C542.321 265.626 542.453 265.368 542.472 265.058C542.499 264.757 542.401 264.474 542.179 264.208L540.769 262.519L539.034 263.967L540.444 265.656ZM545.3 275.031C544.71 274.325 544.344 273.511 544.199 272.589C544.066 271.659 544.162 270.745 544.489 269.846C544.816 268.948 545.343 268.196 546.07 267.589C546.797 266.983 547.631 266.599 548.573 266.437C549.516 266.276 550.427 266.349 551.308 266.655C552.2 266.953 552.94 267.456 553.53 268.162C554.068 268.807 554.406 269.523 554.543 270.312C554.69 271.092 554.659 271.856 554.45 272.604C554.251 273.343 553.933 273.982 553.497 274.52L551.754 272.432C551.863 272.271 551.954 272.048 552.027 271.761C552.11 271.465 552.125 271.14 552.072 270.785C552.019 270.43 551.86 270.094 551.595 269.777C551.134 269.224 550.545 268.934 549.828 268.907C549.119 268.891 548.447 269.148 547.813 269.677C547.178 270.207 546.806 270.822 546.695 271.522C546.593 272.232 546.773 272.864 547.235 273.416C547.499 273.734 547.802 273.95 548.142 274.066C548.481 274.182 548.799 274.23 549.094 274.209C549.4 274.18 549.641 274.126 549.819 274.047L551.562 276.135C550.954 276.468 550.264 276.671 549.491 276.744C548.728 276.807 547.971 276.701 547.219 276.425C546.478 276.141 545.838 275.676 545.3 275.031ZM557.238 280.501L555.695 287.078L553.554 284.514L554.966 279.09L551.465 282.012L549.722 279.923L557.553 273.387L559.296 275.475L556.071 278.167L561.257 277.825L563.243 280.204L557.238 280.501ZM560.874 287.385L568.622 286.648L570.16 288.491L562.33 295.027L560.651 293.016L565.579 288.902L557.831 289.638L556.293 287.795L564.124 281.259L565.803 283.27L560.874 287.385ZM568.421 296.426L576.169 295.69L577.707 297.532L569.877 304.069L568.198 302.057L573.126 297.943L565.378 298.679L563.84 296.837L571.671 290.301L573.35 292.312L568.421 296.426ZM575.801 293.158C575.211 292.451 574.93 291.688 574.957 290.866C574.993 290.037 575.319 289.313 575.933 288.697L577.163 290.171C576.942 290.425 576.811 290.716 576.772 291.044C576.733 291.372 576.855 291.705 577.137 292.043C577.419 292.38 577.724 292.559 578.054 292.58C578.383 292.6 578.693 292.524 578.983 292.351L580.214 293.825C579.497 294.319 578.727 294.51 577.904 294.398C577.092 294.277 576.39 293.864 575.801 293.158ZM577.667 313.401L575.924 311.313L581.819 306.391L579.91 304.104L581.844 302.489L587.407 309.152L585.472 310.767L583.562 308.48L577.667 313.401ZM583.035 320.239C582.446 319.532 582.079 318.718 581.935 317.797C581.801 316.866 581.897 315.952 582.224 315.054C582.551 314.156 583.078 313.403 583.805 312.796C584.532 312.19 585.366 311.806 586.309 311.645C587.251 311.483 588.162 311.556 589.044 311.863C589.935 312.161 590.675 312.663 591.265 313.369C591.855 314.075 592.216 314.894 592.35 315.824C592.494 316.746 592.403 317.656 592.076 318.554C591.749 319.452 591.222 320.205 590.495 320.811C589.768 321.418 588.934 321.802 587.992 321.963C587.05 322.124 586.133 322.056 585.241 321.758C584.36 321.451 583.625 320.945 583.035 320.239ZM584.97 318.624C585.431 319.176 586.016 319.461 586.725 319.478C587.442 319.504 588.118 319.253 588.752 318.723C589.387 318.193 589.755 317.573 589.857 316.863C589.967 316.163 589.792 315.537 589.33 314.984C588.869 314.431 588.28 314.141 587.563 314.115C586.854 314.098 586.183 314.355 585.548 314.885C584.913 315.414 584.541 316.029 584.431 316.729C584.329 317.439 584.509 318.071 584.97 318.624ZM596.839 326.508L599.818 324.021L601.561 326.11L593.731 332.646L591.988 330.558L594.905 328.123L592.406 325.129L589.488 327.564L587.745 325.476L595.576 318.939L597.319 321.027L594.34 323.514L596.839 326.508ZM604.336 335.489L607.315 333.003L609.058 335.091L601.228 341.627L599.485 339.539L602.402 337.104L599.903 334.11L596.985 336.545L595.242 334.457L603.073 327.921L604.816 330.009L601.837 332.495L604.336 335.489ZM612.968 347.484C612.589 347.8 612.272 348.013 612.016 348.122L607.312 342.487C606.935 342.993 606.75 343.521 606.758 344.07C606.774 344.63 606.978 345.146 607.371 345.617C607.849 346.19 608.433 346.493 609.121 346.527L610.953 348.722C610.447 348.885 609.863 348.955 609.202 348.934C608.55 348.922 607.896 348.773 607.24 348.487C606.584 348.201 606.017 347.771 605.539 347.198C604.932 346.471 604.557 345.647 604.413 344.725C604.268 343.803 604.359 342.903 604.684 342.023C605.02 341.135 605.561 340.38 606.309 339.756C607.035 339.149 607.866 338.76 608.799 338.589C609.741 338.427 610.653 338.5 611.534 338.807C612.426 339.105 613.162 339.602 613.743 340.298C614.332 341.004 614.697 341.794 614.836 342.668C614.983 343.552 614.891 344.42 614.559 345.27C614.245 346.122 613.715 346.86 612.968 347.484ZM611.885 341.849C611.509 341.398 611.042 341.119 610.484 341.012C609.936 340.897 609.375 340.974 608.801 341.244L611.903 344.96C612.261 344.452 612.437 343.915 612.432 343.346C612.435 342.788 612.252 342.289 611.885 341.849ZM609.444 351.876C609.23 351.62 609.069 351.364 608.959 351.108L610.832 349.545L611.076 349.836C611.349 350.164 611.656 350.334 611.996 350.345C612.346 350.348 612.768 350.178 613.263 349.835L618.371 346.248L623.305 352.159L615.475 358.696L613.732 356.607L619.628 351.686L617.974 349.705L614.443 352.184C613.472 352.873 612.558 353.193 611.701 353.144C610.854 353.087 610.102 352.664 609.444 351.876ZM625.535 359.668C625.97 360.19 626.246 360.759 626.361 361.375C626.484 362.001 626.434 362.608 626.211 363.193C626.007 363.781 625.648 364.288 625.137 364.715C624.615 365.151 624.041 365.421 623.417 365.526C622.811 365.632 622.21 365.569 621.616 365.335C621.03 365.112 620.52 364.74 620.084 364.217L616.982 360.502L624.813 353.966L626.556 356.054L624.176 358.04L625.535 359.668ZM621.499 362.385C621.781 362.723 622.085 362.912 622.413 362.951C622.76 362.991 623.087 362.883 623.394 362.627C623.691 362.379 623.845 362.086 623.856 361.746C623.887 361.408 623.761 361.07 623.479 360.732L622.441 359.488L620.46 361.142L621.499 362.385Z" fill="#11244D"/>
<path d="M392.344 371.023C393.048 371.023 393.677 371.178 394.232 371.487C394.797 371.786 395.234 372.197 395.544 372.719C395.864 373.242 396.024 373.823 396.024 374.463C396.024 375.103 395.864 375.685 395.544 376.207C395.234 376.73 394.797 377.146 394.232 377.455C393.677 377.754 393.048 377.903 392.344 377.903H387.544V366.703H395.24V368.751H389.832V371.023H392.344ZM392.264 375.855C392.69 375.855 393.042 375.727 393.32 375.471C393.597 375.205 393.736 374.869 393.736 374.463C393.736 374.058 393.597 373.727 393.32 373.471C393.042 373.205 392.69 373.071 392.264 373.071H389.832V375.855H392.264ZM400.662 369.535C401.718 369.535 402.55 369.855 403.158 370.495C403.766 371.125 404.07 371.967 404.07 373.023V377.903H402.438L402.086 377.103H402.006C401.366 377.775 400.592 378.111 399.686 378.111C399.174 378.111 398.704 378.005 398.278 377.791C397.862 377.578 397.531 377.285 397.286 376.911C397.051 376.538 396.934 376.127 396.934 375.679C396.934 375.125 397.099 374.645 397.43 374.239C397.76 373.823 398.219 373.509 398.806 373.295C399.403 373.071 400.086 372.959 400.854 372.959H401.894V372.799C401.894 372.383 401.782 372.058 401.558 371.823C401.334 371.589 401.03 371.471 400.646 371.471C400.315 371.471 400.048 371.562 399.846 371.743C399.654 371.914 399.536 372.101 399.494 372.303H397.318C397.36 371.823 397.51 371.375 397.766 370.959C398.032 370.533 398.411 370.191 398.902 369.935C399.392 369.669 399.979 369.535 400.662 369.535ZM400.198 376.335C400.699 376.335 401.104 376.186 401.414 375.887C401.734 375.589 401.894 375.237 401.894 374.831V374.415H400.79C400.203 374.415 399.776 374.511 399.51 374.703C399.243 374.885 399.11 375.141 399.11 375.471C399.11 375.727 399.2 375.935 399.382 376.095C399.574 376.255 399.846 376.335 400.198 376.335ZM410.831 369.743H413.071L409.807 378.143C409.423 379.135 409.013 379.834 408.575 380.239C408.138 380.655 407.621 380.863 407.023 380.863C406.671 380.863 406.33 380.805 405.999 380.687V378.703C406.149 378.778 406.346 378.815 406.591 378.815C406.933 378.815 407.205 378.741 407.407 378.591C407.621 378.453 407.791 378.202 407.919 377.839L407.967 377.679L404.783 369.743H407.135L409.039 375.055L410.831 369.743ZM418.616 375.151L420.952 369.743H423.24V377.903H421.144V373.503L419.144 377.903H418.104L416.104 373.503V377.903H414.008V369.743H416.28L418.616 375.151ZM428.333 369.535C429.389 369.535 430.221 369.855 430.829 370.495C431.437 371.125 431.741 371.967 431.741 373.023V377.903H430.109L429.757 377.103H429.677C429.037 377.775 428.264 378.111 427.357 378.111C426.845 378.111 426.376 378.005 425.949 377.791C425.533 377.578 425.203 377.285 424.957 376.911C424.723 376.538 424.605 376.127 424.605 375.679C424.605 375.125 424.771 374.645 425.101 374.239C425.432 373.823 425.891 373.509 426.477 373.295C427.075 373.071 427.757 372.959 428.525 372.959H429.565V372.799C429.565 372.383 429.453 372.058 429.229 371.823C429.005 371.589 428.701 371.471 428.317 371.471C427.987 371.471 427.72 371.562 427.517 371.743C427.325 371.914 427.208 372.101 427.165 372.303H424.989C425.032 371.823 425.181 371.375 425.437 370.959C425.704 370.533 426.083 370.191 426.573 369.935C427.064 369.669 427.651 369.535 428.333 369.535ZM427.869 376.335C428.371 376.335 428.776 376.186 429.085 375.887C429.405 375.589 429.565 375.237 429.565 374.831V374.415H428.461C427.875 374.415 427.448 374.511 427.181 374.703C426.915 374.885 426.781 375.141 426.781 375.471C426.781 375.727 426.872 375.935 427.053 376.095C427.245 376.255 427.517 376.335 427.869 376.335ZM438.851 372.847V369.743H441.027V377.903H438.851V374.863H435.731V377.903H433.555V369.743H435.731V372.847H438.851ZM446.659 378.111C445.923 378.111 445.235 377.919 444.595 377.535C443.955 377.141 443.443 376.613 443.059 375.951C442.675 375.29 442.483 374.581 442.483 373.823C442.483 373.066 442.675 372.357 443.059 371.695C443.443 371.034 443.955 370.511 444.595 370.127C445.235 369.733 445.923 369.535 446.659 369.535C447.331 369.535 447.944 369.695 448.499 370.015C449.053 370.325 449.507 370.735 449.859 371.247C450.211 371.749 450.44 372.271 450.547 372.815H448.371C448.328 372.666 448.237 372.495 448.099 372.303C447.96 372.101 447.768 371.925 447.523 371.775C447.277 371.626 446.989 371.551 446.659 371.551C446.083 371.551 445.603 371.765 445.219 372.191C444.845 372.618 444.659 373.162 444.659 373.823C444.659 374.485 444.845 375.029 445.219 375.455C445.603 375.882 446.083 376.095 446.659 376.095C446.989 376.095 447.277 376.021 447.523 375.871C447.768 375.722 447.96 375.551 448.099 375.359C448.237 375.157 448.328 374.981 448.371 374.831H450.547C450.44 375.375 450.211 375.903 449.859 376.415C449.507 376.917 449.053 377.327 448.499 377.647C447.944 377.957 447.331 378.111 446.659 378.111ZM456.138 373.583L459.386 377.903H456.714L454.106 374.255V377.903H451.93V369.743H454.106V373.103L456.554 369.743H459.034L456.138 373.583ZM463.177 369.535C464.233 369.535 465.065 369.855 465.673 370.495C466.281 371.125 466.585 371.967 466.585 373.023V377.903H464.953L464.601 377.103H464.521C463.881 377.775 463.108 378.111 462.201 378.111C461.689 378.111 461.22 378.005 460.793 377.791C460.377 377.578 460.047 377.285 459.801 376.911C459.567 376.538 459.449 376.127 459.449 375.679C459.449 375.125 459.615 374.645 459.945 374.239C460.276 373.823 460.735 373.509 461.321 373.295C461.919 373.071 462.601 372.959 463.369 372.959H464.409V372.799C464.409 372.383 464.297 372.058 464.073 371.823C463.849 371.589 463.545 371.471 463.161 371.471C462.831 371.471 462.564 371.562 462.361 371.743C462.169 371.914 462.052 372.101 462.009 372.303H459.833C459.876 371.823 460.025 371.375 460.281 370.959C460.548 370.533 460.927 370.191 461.417 369.935C461.908 369.669 462.495 369.535 463.177 369.535ZM462.713 376.335C463.215 376.335 463.62 376.186 463.929 375.887C464.249 375.589 464.409 375.237 464.409 374.831V374.415H463.305C462.719 374.415 462.292 374.511 462.025 374.703C461.759 374.885 461.625 375.141 461.625 375.471C461.625 375.727 461.716 375.935 461.897 376.095C462.089 376.255 462.361 376.335 462.713 376.335ZM474.863 369.743V377.903H472.687V375.311H471.647L470.143 377.903H467.679L469.535 374.943C469.076 374.719 468.714 374.394 468.447 373.967C468.18 373.541 468.047 373.055 468.047 372.511C468.047 371.69 468.319 371.023 468.863 370.511C469.418 369.999 470.143 369.743 471.039 369.743H474.863ZM471.327 371.535C470.975 371.535 470.703 371.626 470.511 371.807C470.319 371.978 470.223 372.213 470.223 372.511C470.223 372.831 470.319 373.082 470.511 373.263C470.703 373.434 470.975 373.519 471.327 373.519H472.767V371.535H471.327Z" fill="#11244D"/>
<path d="M126.998 119.797L131.334 125.557H128.486L124.806 120.533V125.557H122.518V114.357H124.806V119.205L128.31 114.357H131.014L126.998 119.797ZM132.092 128.437V117.397H133.724L134.076 118.197H134.156C134.338 117.973 134.631 117.749 135.036 117.525C135.442 117.301 135.922 117.189 136.476 117.189C137.138 117.189 137.756 117.376 138.332 117.749C138.919 118.122 139.383 118.64 139.724 119.301C140.076 119.952 140.252 120.677 140.252 121.477C140.252 122.277 140.076 123.008 139.724 123.669C139.383 124.32 138.919 124.832 138.332 125.205C137.756 125.578 137.138 125.765 136.476 125.765C136.124 125.765 135.794 125.706 135.484 125.589C135.186 125.482 134.935 125.36 134.732 125.221C134.54 125.082 134.412 124.96 134.348 124.853H134.268V128.437H132.092ZM136.172 123.749C136.514 123.749 136.828 123.653 137.116 123.461C137.404 123.269 137.634 123.002 137.804 122.661C137.986 122.309 138.076 121.914 138.076 121.477C138.076 121.04 137.986 120.65 137.804 120.309C137.634 119.957 137.404 119.685 137.116 119.493C136.828 119.301 136.514 119.205 136.172 119.205C135.831 119.205 135.516 119.301 135.228 119.493C134.94 119.685 134.706 119.957 134.524 120.309C134.354 120.65 134.268 121.04 134.268 121.477C134.268 121.914 134.354 122.309 134.524 122.661C134.706 123.002 134.94 123.269 135.228 123.461C135.516 123.653 135.831 123.749 136.172 123.749ZM144.902 117.189C145.958 117.189 146.79 117.509 147.398 118.149C148.006 118.778 148.31 119.621 148.31 120.677V125.557H146.678L146.326 124.757H146.246C145.606 125.429 144.832 125.765 143.926 125.765C143.414 125.765 142.944 125.658 142.518 125.445C142.102 125.232 141.771 124.938 141.526 124.565C141.291 124.192 141.174 123.781 141.174 123.333C141.174 122.778 141.339 122.298 141.67 121.893C142 121.477 142.459 121.162 143.046 120.949C143.643 120.725 144.326 120.613 145.094 120.613H146.134V120.453C146.134 120.037 146.022 119.712 145.798 119.477C145.574 119.242 145.27 119.125 144.886 119.125C144.555 119.125 144.288 119.216 144.086 119.397C143.894 119.568 143.776 119.754 143.734 119.957H141.558C141.6 119.477 141.75 119.029 142.006 118.613C142.272 118.186 142.651 117.845 143.142 117.589C143.632 117.322 144.219 117.189 144.902 117.189ZM144.438 123.989C144.939 123.989 145.344 123.84 145.654 123.541C145.974 123.242 146.134 122.89 146.134 122.485V122.069H145.03C144.443 122.069 144.016 122.165 143.75 122.357C143.483 122.538 143.35 122.794 143.35 123.125C143.35 123.381 143.44 123.589 143.622 123.749C143.814 123.909 144.086 123.989 144.438 123.989ZM153.868 125.765C153.132 125.765 152.444 125.573 151.804 125.189C151.164 124.794 150.652 124.266 150.268 123.605C149.884 122.944 149.692 122.234 149.692 121.477C149.692 120.72 149.884 120.01 150.268 119.349C150.652 118.688 151.164 118.165 151.804 117.781C152.444 117.386 153.132 117.189 153.868 117.189C154.54 117.189 155.153 117.349 155.708 117.669C156.262 117.978 156.716 118.389 157.068 118.901C157.42 119.402 157.649 119.925 157.756 120.469H155.58C155.537 120.32 155.446 120.149 155.308 119.957C155.169 119.754 154.977 119.578 154.732 119.429C154.486 119.28 154.198 119.205 153.868 119.205C153.292 119.205 152.812 119.418 152.428 119.845C152.054 120.272 151.868 120.816 151.868 121.477C151.868 122.138 152.054 122.682 152.428 123.109C152.812 123.536 153.292 123.749 153.868 123.749C154.198 123.749 154.486 123.674 154.732 123.525C154.977 123.376 155.169 123.205 155.308 123.013C155.446 122.81 155.537 122.634 155.58 122.485H157.756C157.649 123.029 157.42 123.557 157.068 124.069C156.716 124.57 156.262 124.981 155.708 125.301C155.153 125.61 154.54 125.765 153.868 125.765ZM164.435 120.501V117.397H166.611V125.557H164.435V122.517H161.315V125.557H159.139V117.397H161.315V120.501H164.435ZM172.243 125.765C171.507 125.765 170.819 125.573 170.179 125.189C169.539 124.794 169.027 124.266 168.643 123.605C168.259 122.944 168.067 122.234 168.067 121.477C168.067 120.72 168.259 120.01 168.643 119.349C169.027 118.688 169.539 118.165 170.179 117.781C170.819 117.386 171.507 117.189 172.243 117.189C172.979 117.189 173.667 117.386 174.307 117.781C174.947 118.165 175.459 118.688 175.843 119.349C176.227 120.01 176.419 120.72 176.419 121.477C176.419 122.234 176.227 122.944 175.843 123.605C175.459 124.266 174.947 124.794 174.307 125.189C173.667 125.573 172.979 125.765 172.243 125.765ZM172.243 123.749C172.819 123.749 173.293 123.536 173.667 123.109C174.051 122.682 174.243 122.138 174.243 121.477C174.243 120.816 174.051 120.272 173.667 119.845C173.293 119.418 172.819 119.205 172.243 119.205C171.667 119.205 171.187 119.418 170.803 119.845C170.429 120.272 170.243 120.816 170.243 121.477C170.243 122.138 170.429 122.682 170.803 123.109C171.187 123.536 171.667 123.749 172.243 123.749ZM181.618 125.765C180.882 125.765 180.194 125.573 179.554 125.189C178.914 124.794 178.402 124.266 178.018 123.605C177.634 122.944 177.442 122.234 177.442 121.477C177.442 120.72 177.634 120.01 178.018 119.349C178.402 118.688 178.914 118.165 179.554 117.781C180.194 117.386 180.882 117.189 181.618 117.189C182.29 117.189 182.903 117.349 183.458 117.669C184.012 117.978 184.466 118.389 184.818 118.901C185.17 119.402 185.399 119.925 185.506 120.469H183.33C183.287 120.32 183.196 120.149 183.058 119.957C182.919 119.754 182.727 119.578 182.482 119.429C182.236 119.28 181.948 119.205 181.618 119.205C181.042 119.205 180.562 119.418 180.178 119.845C179.804 120.272 179.618 120.816 179.618 121.477C179.618 122.138 179.804 122.682 180.178 123.109C180.562 123.536 181.042 123.749 181.618 123.749C181.948 123.749 182.236 123.674 182.482 123.525C182.727 123.376 182.919 123.205 183.058 123.013C183.196 122.81 183.287 122.634 183.33 122.485H185.506C185.399 123.029 185.17 123.557 184.818 124.069C184.466 124.57 184.012 124.981 183.458 125.301C182.903 125.61 182.29 125.765 181.618 125.765ZM194.617 121.349C194.617 121.744 194.585 122.048 194.521 122.261H188.649C188.767 122.752 188.996 123.136 189.337 123.413C189.689 123.69 190.111 123.829 190.601 123.829C191.199 123.829 191.684 123.626 192.057 123.221H194.345C194.185 123.616 193.929 124.01 193.577 124.405C193.236 124.8 192.809 125.125 192.297 125.381C191.785 125.637 191.231 125.765 190.633 125.765C189.876 125.765 189.177 125.573 188.537 125.189C187.897 124.805 187.391 124.288 187.017 123.637C186.644 122.976 186.457 122.256 186.457 121.477C186.457 120.72 186.644 120.01 187.017 119.349C187.401 118.688 187.913 118.165 188.553 117.781C189.193 117.386 189.876 117.189 190.601 117.189C191.337 117.189 192.009 117.37 192.617 117.733C193.236 118.096 193.721 118.597 194.073 119.237C194.436 119.866 194.617 120.57 194.617 121.349ZM190.601 119.125C190.132 119.125 189.721 119.269 189.369 119.557C189.017 119.834 188.777 120.218 188.649 120.709H192.521C192.393 120.229 192.153 119.845 191.801 119.557C191.46 119.269 191.06 119.125 190.601 119.125ZM195.508 125.765C195.242 125.765 195.002 125.733 194.788 125.669V123.717H195.092C195.434 123.717 195.695 123.616 195.876 123.413C196.058 123.2 196.17 122.853 196.212 122.373L196.628 117.397H202.788V125.557H200.612V119.413H198.548L198.26 122.853C198.186 123.802 197.914 124.528 197.444 125.029C196.975 125.52 196.33 125.765 195.508 125.765ZM208.543 119.877C209.087 119.877 209.577 120 210.015 120.245C210.463 120.49 210.809 120.832 211.055 121.269C211.311 121.696 211.439 122.176 211.439 122.709C211.439 123.253 211.311 123.744 211.055 124.181C210.809 124.608 210.463 124.944 210.015 125.189C209.577 125.434 209.087 125.557 208.543 125.557H204.671V117.397H206.847V119.877H208.543ZM208.143 123.749C208.495 123.749 208.767 123.658 208.959 123.477C209.161 123.285 209.263 123.029 209.263 122.709C209.263 122.4 209.161 122.154 208.959 121.973C208.767 121.781 208.495 121.685 208.143 121.685H206.847V123.749H208.143ZM216.446 125.765C215.71 125.765 215.022 125.573 214.382 125.189C213.742 124.794 213.23 124.266 212.846 123.605C212.462 122.944 212.27 122.234 212.27 121.477C212.27 120.72 212.462 120.01 212.846 119.349C213.23 118.688 213.742 118.165 214.382 117.781C215.022 117.386 215.71 117.189 216.446 117.189C217.118 117.189 217.731 117.349 218.286 117.669C218.84 117.978 219.294 118.389 219.646 118.901C219.998 119.402 220.227 119.925 220.334 120.469H218.158C218.115 120.32 218.024 120.149 217.886 119.957C217.747 119.754 217.555 119.578 217.31 119.429C217.064 119.28 216.776 119.205 216.446 119.205C215.87 119.205 215.39 119.418 215.006 119.845C214.632 120.272 214.446 120.816 214.446 121.477C214.446 122.138 214.632 122.682 215.006 123.109C215.39 123.536 215.87 123.749 216.446 123.749C216.776 123.749 217.064 123.674 217.31 123.525C217.555 123.376 217.747 123.205 217.886 123.013C218.024 122.81 218.115 122.634 218.158 122.485H220.334C220.227 123.029 219.998 123.557 219.646 124.069C219.294 124.57 218.84 124.981 218.286 125.301C217.731 125.61 217.118 125.765 216.446 125.765ZM225.925 121.237L229.173 125.557H226.501L223.893 121.909V125.557H221.717V117.397H223.893V120.757L226.341 117.397H228.821L225.925 121.237ZM232.964 117.189C234.02 117.189 234.852 117.509 235.46 118.149C236.068 118.778 236.372 119.621 236.372 120.677V125.557H234.74L234.388 124.757H234.308C233.668 125.429 232.895 125.765 231.988 125.765C231.476 125.765 231.007 125.658 230.58 125.445C230.164 125.232 229.834 124.938 229.588 124.565C229.354 124.192 229.236 123.781 229.236 123.333C229.236 122.778 229.402 122.298 229.732 121.893C230.063 121.477 230.522 121.162 231.108 120.949C231.706 120.725 232.388 120.613 233.156 120.613H234.196V120.453C234.196 120.037 234.084 119.712 233.86 119.477C233.636 119.242 233.332 119.125 232.948 119.125C232.618 119.125 232.351 119.216 232.148 119.397C231.956 119.568 231.839 119.754 231.796 119.957H229.62C229.663 119.477 229.812 119.029 230.068 118.613C230.335 118.186 230.714 117.845 231.204 117.589C231.695 117.322 232.282 117.189 232.964 117.189ZM232.5 123.989C233.002 123.989 233.407 123.84 233.716 123.541C234.036 123.242 234.196 122.89 234.196 122.485V122.069H233.092C232.506 122.069 232.079 122.165 231.812 122.357C231.546 122.538 231.412 122.794 231.412 123.125C231.412 123.381 231.503 123.589 231.684 123.749C231.876 123.909 232.148 123.989 232.5 123.989ZM244.65 117.397V125.557H242.474V122.965H241.434L239.93 125.557H237.466L239.322 122.597C238.864 122.373 238.501 122.048 238.234 121.621C237.968 121.194 237.834 120.709 237.834 120.165C237.834 119.344 238.106 118.677 238.65 118.165C239.205 117.653 239.93 117.397 240.826 117.397H244.65ZM241.114 119.189C240.762 119.189 240.49 119.28 240.298 119.461C240.106 119.632 240.01 119.866 240.01 120.165C240.01 120.485 240.106 120.736 240.298 120.917C240.49 121.088 240.762 121.173 241.114 121.173H242.554V119.189H241.114Z" fill="#11244D"/>
<path d="M83.7048 373.166L84.571 368.885L86.8135 369.339L84.5925 380.316L82.3499 379.862L83.2669 375.33L78.7818 374.423L77.8648 378.955L75.6223 378.501L77.8433 367.524L80.0858 367.977L79.2196 372.259L83.7048 373.166ZM90.2426 381.671C89.5212 381.525 88.8849 381.201 88.3338 380.698C87.7847 380.184 87.3876 379.565 87.1424 378.84C86.8972 378.116 86.8496 377.383 86.9998 376.64C87.15 375.898 87.4789 375.241 87.9864 374.669C88.4939 374.097 89.0994 373.686 89.8028 373.437C90.5084 373.177 91.2218 373.12 91.9432 373.266C92.6646 373.412 93.2998 373.742 93.8488 374.255C94.4 374.759 94.7982 375.372 95.0434 376.097C95.2886 376.821 95.3361 377.554 95.186 378.297C95.0358 379.039 94.7069 379.696 94.1994 380.268C93.6919 380.84 93.0853 381.256 92.3798 381.516C91.6763 381.766 90.9639 381.817 90.2426 381.671ZM90.6423 379.695C91.2069 379.81 91.7144 379.695 92.165 379.351C92.626 379.009 92.922 378.513 93.0532 377.865C93.1843 377.217 93.104 376.646 92.8122 376.151C92.5309 375.659 92.108 375.356 91.5434 375.242C90.9789 375.128 90.4661 375.241 90.0051 375.583C89.5546 375.928 89.2638 376.424 89.1326 377.072C89.0015 377.72 89.0765 378.29 89.3579 378.783C89.6496 379.277 90.0778 379.581 90.6423 379.695ZM102.155 379.511C102.48 379.729 102.731 380.025 102.906 380.397C103.083 380.76 103.124 381.176 103.028 381.646C102.944 382.065 102.756 382.429 102.464 382.74C102.173 383.051 101.813 383.272 101.383 383.403C100.956 383.524 100.502 383.535 100.021 383.438L95.803 382.584L97.4211 374.586L101.342 375.38C101.823 375.477 102.231 375.663 102.567 375.938C102.914 376.215 103.163 376.543 103.315 376.921C103.469 377.29 103.507 377.668 103.429 378.055C103.35 378.441 103.188 378.762 102.94 379.017C102.693 379.271 102.431 379.436 102.155 379.511ZM99.1551 376.586L98.8251 378.217L100.268 378.509C100.54 378.564 100.769 378.534 100.955 378.419C101.152 378.307 101.278 378.115 101.333 377.843C101.38 377.613 101.334 377.408 101.196 377.227C101.069 377.049 100.87 376.933 100.598 376.878L99.1551 376.586ZM99.9029 381.765C100.185 381.822 100.426 381.789 100.625 381.666C100.824 381.543 100.952 381.341 101.009 381.058C101.06 380.807 101.013 380.58 100.869 380.377C100.736 380.176 100.533 380.048 100.261 379.993L98.5363 379.644L98.1778 381.416L99.9029 381.765ZM107.625 385.188C106.903 385.042 106.267 384.718 105.716 384.214C105.167 383.701 104.77 383.082 104.525 382.357C104.279 381.633 104.232 380.9 104.382 380.157C104.532 379.415 104.861 378.758 105.369 378.186C105.876 377.614 106.482 377.203 107.185 376.954C107.891 376.694 108.604 376.637 109.325 376.783C110.047 376.929 110.682 377.258 111.231 377.772C111.782 378.275 112.18 378.889 112.426 379.614C112.671 380.338 112.718 381.071 112.568 381.814C112.418 382.556 112.089 383.213 111.582 383.785C111.074 384.357 110.468 384.773 109.762 385.033C109.059 385.282 108.346 385.334 107.625 385.188ZM108.025 383.212C108.589 383.327 109.097 383.212 109.547 382.867C110.008 382.525 110.304 382.03 110.435 381.382C110.566 380.734 110.486 380.163 110.194 379.668C109.913 379.176 109.49 378.873 108.926 378.759C108.361 378.644 107.848 378.758 107.387 379.1C106.937 379.444 106.646 379.941 106.515 380.589C106.384 381.237 106.459 381.807 106.74 382.299C107.032 382.794 107.46 383.098 108.025 383.212ZM112.614 388.924L114.803 378.103L116.403 378.427L116.589 379.281L116.668 379.297C116.89 379.113 117.222 378.952 117.663 378.812C118.105 378.673 118.598 378.659 119.142 378.769C119.79 378.9 120.359 379.205 120.85 379.686C121.351 380.168 121.703 380.767 121.906 381.483C122.122 382.19 122.151 382.936 121.992 383.72C121.834 384.504 121.516 385.186 121.04 385.764C120.576 386.334 120.02 386.744 119.371 386.994C118.732 387.245 118.089 387.305 117.441 387.174C117.096 387.105 116.783 386.981 116.503 386.805C116.232 386.641 116.01 386.471 115.839 386.295C115.679 386.121 115.578 385.976 115.536 385.858L115.458 385.843L114.747 389.355L112.614 388.924ZM117.543 385.138C117.877 385.206 118.205 385.174 118.525 385.043C118.845 384.912 119.123 384.696 119.358 384.395C119.606 384.086 119.773 383.717 119.859 383.289C119.946 382.86 119.934 382.461 119.824 382.09C119.727 381.711 119.556 381.399 119.312 381.154C119.068 380.909 118.778 380.752 118.444 380.684C118.109 380.617 117.782 380.648 117.461 380.779C117.141 380.91 116.857 381.131 116.61 381.44C116.375 381.74 116.214 382.105 116.127 382.534C116.04 382.962 116.046 383.366 116.143 383.745C116.253 384.115 116.43 384.423 116.675 384.669C116.919 384.914 117.208 385.07 117.543 385.138ZM130.557 381.291L128.939 389.289L126.807 388.857L127.321 386.316L126.301 386.11L124.313 388.353L121.898 387.864L124.304 385.331C123.899 385.02 123.608 384.629 123.431 384.158C123.254 383.687 123.22 383.185 123.328 382.652C123.491 381.847 123.89 381.247 124.524 380.853C125.17 380.462 125.931 380.355 126.809 380.532L130.557 381.291ZM126.736 382.346C126.391 382.276 126.107 382.311 125.883 382.451C125.661 382.58 125.52 382.791 125.461 383.083C125.397 383.397 125.442 383.662 125.594 383.878C125.748 384.083 125.998 384.221 126.343 384.29L127.754 384.576L128.148 382.631L126.736 382.346ZM136.361 386.53C136.689 386.737 136.942 387.022 137.119 387.385C137.296 387.747 137.339 388.153 137.248 388.603C137.159 389.042 136.946 389.423 136.608 389.746C136.281 390.072 135.849 390.3 135.311 390.431C134.773 390.561 134.164 390.558 133.484 390.42C132.47 390.215 131.72 389.808 131.234 389.198C130.761 388.58 130.549 387.851 130.599 387.012L132.638 387.425C132.623 387.661 132.705 387.901 132.884 388.144C133.065 388.377 133.355 388.533 133.752 388.614C134.181 388.7 134.516 388.686 134.756 388.572C134.999 388.447 135.147 388.254 135.2 387.992C135.253 387.731 135.191 387.501 135.013 387.302C134.849 387.094 134.567 386.95 134.17 386.87L133.214 386.676L133.512 385.202L134.468 385.396C134.782 385.459 135.043 385.436 135.25 385.325C135.47 385.207 135.603 385.032 135.65 384.802C135.696 384.572 135.64 384.365 135.482 384.18C135.336 383.988 135.101 383.858 134.776 383.793C134.4 383.717 134.101 383.743 133.879 383.873C133.667 384.004 133.512 384.179 133.413 384.399L131.39 383.989C131.643 383.224 132.1 382.658 132.762 382.292C133.437 381.917 134.255 381.826 135.217 382.021C135.833 382.146 136.349 382.37 136.762 382.693C137.178 383.005 137.468 383.374 137.632 383.799C137.807 384.226 137.85 384.66 137.761 385.099C137.619 385.799 137.153 386.276 136.361 386.53ZM143.005 383.597C144.04 383.806 144.792 384.285 145.261 385.033C145.732 385.77 145.863 386.656 145.654 387.691L144.686 392.474L143.087 392.151L142.9 391.297L142.822 391.281C142.061 391.813 141.237 391.989 140.348 391.809C139.846 391.707 139.407 391.51 139.031 391.216C138.666 390.925 138.4 390.571 138.234 390.157C138.078 389.744 138.044 389.319 138.133 388.88C138.243 388.336 138.5 387.898 138.905 387.567C139.311 387.224 139.823 387.007 140.44 386.914C141.07 386.813 141.762 386.839 142.514 386.991L143.534 387.197L143.565 387.04C143.648 386.633 143.603 386.292 143.43 386.017C143.257 385.743 142.982 385.567 142.606 385.491C142.282 385.426 142.002 385.462 141.768 385.599C141.546 385.728 141.394 385.888 141.312 386.078L139.179 385.647C139.316 385.185 139.551 384.775 139.884 384.418C140.23 384.053 140.669 383.794 141.201 383.64C141.735 383.476 142.336 383.461 143.005 383.597ZM141.202 390.17C141.693 390.269 142.12 390.203 142.483 389.972C142.856 389.743 143.082 389.429 143.163 389.032L143.245 388.624L142.163 388.405C141.588 388.289 141.151 388.298 140.851 388.434C140.554 388.559 140.372 388.783 140.307 389.107C140.256 389.358 140.304 389.58 140.45 389.773C140.606 389.968 140.857 390.1 141.202 390.17ZM152.657 388.929L153.273 385.886L155.406 386.318L153.788 394.316L151.655 393.884L152.258 390.905L149.2 390.286L148.597 393.266L146.464 392.834L148.082 384.836L150.215 385.268L149.599 388.31L152.657 388.929ZM159.266 395.637C158.544 395.491 157.908 395.166 157.357 394.663C156.808 394.149 156.411 393.53 156.166 392.806C155.92 392.081 155.873 391.348 156.023 390.606C156.173 389.863 156.502 389.206 157.01 388.634C157.517 388.062 158.123 387.651 158.826 387.402C159.532 387.142 160.245 387.085 160.967 387.231C161.625 387.364 162.195 387.643 162.675 388.066C163.157 388.479 163.52 388.972 163.763 389.543C164.009 390.105 164.13 390.662 164.127 391.217L161.994 390.785C161.982 390.63 161.927 390.445 161.829 390.229C161.733 390.003 161.58 389.793 161.369 389.598C161.158 389.403 160.891 389.272 160.567 389.207C160.002 389.093 159.489 389.207 159.028 389.549C158.578 389.893 158.287 390.389 158.156 391.037C158.025 391.685 158.1 392.256 158.381 392.748C158.673 393.242 159.101 393.546 159.666 393.661C159.99 393.726 160.287 393.71 160.557 393.612C160.827 393.515 161.049 393.385 161.223 393.225C161.399 393.054 161.523 392.899 161.594 392.761L163.727 393.193C163.515 393.705 163.185 394.177 162.739 394.609C162.294 395.03 161.768 395.343 161.161 395.547C160.556 395.74 159.925 395.77 159.266 395.637ZM169.455 393.078L171.782 397.957L169.163 397.427L167.33 393.334L166.607 396.91L164.474 396.478L166.092 388.48L168.225 388.912L167.559 392.205L170.624 389.397L173.055 389.889L169.455 393.078ZM177.157 390.507C178.192 390.716 178.944 391.195 179.413 391.942C179.884 392.68 180.015 393.566 179.806 394.601L178.838 399.384L177.238 399.061L177.052 398.207L176.974 398.191C176.213 398.723 175.388 398.899 174.5 398.719C173.998 398.617 173.559 398.42 173.183 398.126C172.818 397.834 172.552 397.481 172.385 397.067C172.229 396.654 172.196 396.228 172.285 395.789C172.395 395.246 172.652 394.808 173.056 394.476C173.463 394.134 173.975 393.917 174.592 393.824C175.222 393.723 175.913 393.748 176.666 393.901L177.686 394.107L177.717 393.95C177.8 393.542 177.754 393.201 177.581 392.927C177.408 392.652 177.134 392.477 176.757 392.401C176.433 392.335 176.154 392.371 175.919 392.509C175.697 392.638 175.545 392.798 175.463 392.988L173.33 392.556C173.467 392.094 173.703 391.685 174.036 391.328C174.382 390.963 174.821 390.703 175.353 390.55C175.886 390.386 176.488 390.371 177.157 390.507ZM175.354 397.08C175.845 397.179 176.272 397.113 176.634 396.882C177.007 396.652 177.234 396.339 177.314 395.942L177.397 395.534L176.315 395.315C175.74 395.199 175.302 395.208 175.003 395.344C174.706 395.468 174.524 395.693 174.459 396.017C174.408 396.268 174.456 396.49 174.602 396.682C174.758 396.877 175.009 397.01 175.354 397.08ZM188.57 393.028L186.951 401.026L184.819 400.594L185.333 398.054L184.313 397.848L182.325 400.09L179.91 399.601L182.316 397.068C181.911 396.757 181.62 396.367 181.443 395.896C181.267 395.425 181.232 394.922 181.34 394.389C181.503 393.584 181.902 392.985 182.536 392.591C183.182 392.199 183.943 392.092 184.821 392.27L188.57 393.028ZM184.748 394.083C184.403 394.013 184.119 394.048 183.895 394.188C183.673 394.317 183.532 394.528 183.473 394.821C183.409 395.134 183.454 395.399 183.606 395.615C183.76 395.82 184.01 395.958 184.355 396.028L185.766 396.313L186.16 394.369L184.748 394.083ZM199.381 395.215L201.577 395.659L196.712 403.245C196.139 404.142 195.597 404.745 195.088 405.055C194.577 405.376 194.029 405.478 193.444 405.359C193.099 405.289 192.776 405.164 192.475 404.984L192.868 403.039C193 403.142 193.186 403.218 193.426 403.266C193.761 403.334 194.042 403.315 194.27 403.209C194.507 403.115 194.724 402.903 194.921 402.573L195 402.426L193.453 394.016L195.758 394.482L196.571 400.066L199.381 395.215ZM199.957 403.869C199.696 403.816 199.467 403.738 199.27 403.632L199.657 401.719L199.955 401.78C200.29 401.847 200.566 401.8 200.784 401.637C201.004 401.464 201.183 401.146 201.32 400.684L202.714 395.89L208.752 397.111L207.134 405.109L205.001 404.678L206.219 398.656L204.196 398.246L203.232 401.561C202.97 402.477 202.56 403.134 202 403.532C201.443 403.92 200.762 404.032 199.957 403.869ZM209.815 405.864C209.46 405.792 209.186 405.612 208.995 405.322C208.803 405.033 208.743 404.711 208.815 404.356C208.887 404 209.067 403.726 209.356 403.535C209.645 403.343 209.968 403.283 210.323 403.355C210.679 403.427 210.952 403.607 211.144 403.896C211.336 404.185 211.396 404.508 211.324 404.863C211.252 405.219 211.071 405.492 210.782 405.684C210.493 405.876 210.171 405.936 209.815 405.864Z" fill="#11244D"/>
<path d="M202.024 170.375L205.373 167.57L206.842 169.324L198.255 176.515L196.786 174.761L200.331 171.792L197.393 168.284L193.848 171.252L192.379 169.498L200.966 162.308L202.435 164.062L199.086 166.866L202.024 170.375ZM203.243 177.762L209.441 177.163L210.673 178.635L204.417 183.874L203.072 182.267L207.009 178.97L200.812 179.568L199.579 178.096L205.835 172.858L207.181 174.465L203.243 177.762ZM214.027 188.596L212.613 193.662L211.011 191.748L212.311 187.445L209.429 189.859L208.083 188.252L210.966 185.838L206.501 186.363L204.899 184.449L210.134 183.947L211.381 179.48L212.901 181.296L211.714 185.211L214.339 183.013L215.685 184.62L213.06 186.818L217.123 186.338L218.643 188.153L214.027 188.596ZM220.368 195.047L222.748 193.055L224.145 194.723L217.888 199.962L216.491 198.293L218.822 196.342L216.819 193.95L214.488 195.901L213.091 194.233L219.348 188.994L220.745 190.663L218.365 192.655L220.368 195.047ZM229.506 201.126L223.25 206.365L221.853 204.696L223.84 203.032L223.173 202.235L220.22 202.746L218.638 200.857L222.099 200.379C221.976 199.884 221.993 199.397 222.149 198.919C222.305 198.44 222.591 198.026 223.008 197.677C223.638 197.15 224.324 196.93 225.065 197.019C225.814 197.115 226.476 197.507 227.051 198.194L229.506 201.126ZM225.862 199.565C225.636 199.295 225.392 199.145 225.13 199.114C224.876 199.077 224.634 199.154 224.405 199.346C224.16 199.551 224.029 199.785 224.014 200.049C224.006 200.306 224.115 200.569 224.341 200.839L225.266 201.943L226.787 200.669L225.862 199.565ZM234.873 207.535L228.617 212.774L227.22 211.105L229.207 209.441L228.539 208.644L225.587 209.155L224.005 207.266L227.466 206.788C227.343 206.293 227.36 205.806 227.515 205.328C227.671 204.849 227.958 204.436 228.375 204.086C229.005 203.559 229.69 203.34 230.432 203.428C231.181 203.524 231.843 203.916 232.418 204.603L234.873 207.535ZM231.229 205.974C231.003 205.705 230.759 205.554 230.497 205.523C230.243 205.486 230.001 205.563 229.772 205.755C229.527 205.96 229.396 206.195 229.38 206.458C229.373 206.715 229.482 206.978 229.708 207.248L230.632 208.352L232.154 207.078L231.229 205.974ZM239.827 217.189L238.195 224.212L236.366 222.028L237.856 215.981L234.004 219.207L232.535 217.453L241.122 210.262L242.591 212.016L238.874 215.129L244.84 214.703L246.576 216.776L239.827 217.189ZM236.473 226.642L244.938 219.554L245.985 220.805L245.598 221.589L245.649 221.65C245.938 221.646 246.298 221.727 246.73 221.894C247.162 222.061 247.556 222.357 247.912 222.782C248.336 223.289 248.59 223.883 248.674 224.564C248.764 225.254 248.666 225.942 248.378 226.628C248.105 227.316 247.662 227.916 247.048 228.43C246.435 228.943 245.762 229.278 245.029 229.432C244.311 229.588 243.62 229.561 242.957 229.351C242.301 229.149 241.761 228.795 241.337 228.288C241.111 228.018 240.943 227.727 240.835 227.414C240.725 227.117 240.658 226.846 240.634 226.601C240.617 226.365 240.629 226.188 240.67 226.071L240.618 226.009L237.87 228.31L236.473 226.642ZM242.687 226.76C242.906 227.022 243.182 227.202 243.514 227.299C243.846 227.397 244.198 227.401 244.569 227.313C244.955 227.226 245.316 227.042 245.651 226.762C245.987 226.481 246.227 226.161 246.372 225.803C246.533 225.446 246.594 225.096 246.556 224.752C246.518 224.408 246.39 224.105 246.171 223.843C245.952 223.581 245.676 223.402 245.344 223.304C245.012 223.207 244.653 223.201 244.266 223.288C243.895 223.377 243.542 223.561 243.207 223.842C242.871 224.123 242.623 224.442 242.463 224.798C242.318 225.157 242.264 225.508 242.302 225.852C242.339 226.196 242.468 226.499 242.687 226.76ZM253.321 229.242C253.999 230.051 254.288 230.895 254.187 231.772C254.095 232.642 253.644 233.416 252.835 234.094L249.093 237.227L248.045 235.976L248.433 235.192L248.381 235.131C247.455 235.071 246.701 234.694 246.119 233.999C245.79 233.607 245.571 233.178 245.46 232.714C245.357 232.258 245.37 231.816 245.498 231.389C245.634 230.969 245.873 230.615 246.217 230.328C246.642 229.972 247.116 229.79 247.639 229.784C248.171 229.77 248.706 229.92 249.247 230.233C249.802 230.547 250.326 230.998 250.819 231.587L251.487 232.384L251.609 232.282C251.928 232.015 252.106 231.72 252.142 231.397C252.178 231.075 252.073 230.767 251.826 230.472C251.614 230.219 251.373 230.072 251.104 230.034C250.85 229.996 250.632 230.026 250.449 230.123L249.052 228.455C249.447 228.179 249.887 228.006 250.37 227.935C250.868 227.866 251.373 227.937 251.884 228.149C252.404 228.354 252.883 228.718 253.321 229.242ZM247.809 233.251C248.131 233.636 248.506 233.851 248.934 233.896C249.368 233.95 249.741 233.846 250.051 233.586L250.37 233.319L249.662 232.473C249.285 232.023 248.937 231.757 248.619 231.676C248.309 231.588 248.027 231.65 247.773 231.863C247.577 232.027 247.476 232.23 247.47 232.472C247.47 232.722 247.583 232.982 247.809 233.251ZM252.502 241.622C252.029 241.057 251.735 240.407 251.618 239.669C251.51 238.925 251.586 238.194 251.847 237.475C252.107 236.756 252.528 236.153 253.108 235.667C253.689 235.181 254.356 234.872 255.11 234.742C255.863 234.612 256.593 234.669 257.298 234.913C258.012 235.151 258.605 235.551 259.077 236.116C259.508 236.631 259.78 237.204 259.89 237.835C260.009 238.458 259.985 239.07 259.819 239.668C259.661 240.26 259.407 240.771 259.058 241.202L257.661 239.534C257.749 239.405 257.821 239.226 257.879 238.997C257.946 238.76 257.957 238.5 257.914 238.216C257.871 237.932 257.744 237.663 257.531 237.41C257.162 236.968 256.69 236.737 256.116 236.717C255.549 236.705 255.012 236.911 254.505 237.335C253.998 237.76 253.701 238.252 253.614 238.812C253.533 239.381 253.678 239.886 254.048 240.327C254.26 240.581 254.502 240.754 254.774 240.846C255.046 240.938 255.3 240.976 255.536 240.959C255.781 240.935 255.974 240.892 256.116 240.828L257.513 242.497C257.027 242.764 256.475 242.927 255.857 242.986C255.246 243.038 254.64 242.954 254.039 242.734C253.446 242.508 252.933 242.137 252.502 241.622ZM263.322 246.344L265.702 244.351L267.099 246.02L260.843 251.259L259.446 249.59L261.777 247.638L259.774 245.246L257.443 247.198L256.046 245.53L262.302 240.291L263.699 241.959L261.319 243.952L263.322 246.344ZM264.299 255.71C263.826 255.145 263.532 254.495 263.415 253.757C263.307 253.013 263.383 252.282 263.644 251.563C263.904 250.844 264.325 250.241 264.905 249.755C265.486 249.269 266.153 248.961 266.907 248.83C267.66 248.7 268.39 248.757 269.095 249.001C269.808 249.239 270.401 249.639 270.874 250.204C271.347 250.768 271.637 251.422 271.745 252.166C271.862 252.903 271.79 253.632 271.529 254.351C271.269 255.07 270.848 255.672 270.267 256.158C269.687 256.645 269.02 256.953 268.266 257.083C267.513 257.213 266.779 257.16 266.066 256.922C265.36 256.678 264.771 256.274 264.299 255.71ZM265.844 254.415C266.214 254.857 266.683 255.084 267.249 255.096C267.823 255.117 268.363 254.915 268.87 254.49C269.377 254.065 269.671 253.569 269.752 253.001C269.839 252.441 269.698 251.94 269.328 251.498C268.959 251.056 268.487 250.825 267.913 250.805C267.346 250.793 266.809 250.999 266.302 251.423C265.795 251.848 265.498 252.34 265.411 252.9C265.33 253.469 265.475 253.974 265.844 254.415ZM270.318 262.897C269.845 262.333 269.551 261.682 269.434 260.945C269.326 260.201 269.402 259.47 269.662 258.751C269.923 258.032 270.344 257.429 270.924 256.943C271.505 256.457 272.172 256.148 272.926 256.018C273.679 255.888 274.409 255.945 275.114 256.189C275.827 256.426 276.42 256.827 276.893 257.392C277.324 257.907 277.595 258.48 277.706 259.11C277.825 259.734 277.801 260.345 277.635 260.944C277.476 261.536 277.223 262.047 276.874 262.478L275.477 260.81C275.564 260.681 275.637 260.502 275.695 260.273C275.761 260.036 275.773 259.776 275.73 259.492C275.687 259.208 275.559 258.939 275.347 258.686C274.977 258.244 274.506 258.013 273.932 257.993C273.365 257.98 272.828 258.186 272.321 258.611C271.814 259.036 271.517 259.528 271.43 260.088C271.349 260.656 271.494 261.161 271.863 261.603C272.076 261.857 272.318 262.029 272.59 262.122C272.862 262.214 273.116 262.252 273.352 262.235C273.597 262.211 273.79 262.167 273.932 262.104L275.329 263.773C274.843 264.04 274.291 264.203 273.672 264.262C273.062 264.314 272.456 264.23 271.855 264.01C271.261 263.784 270.749 263.413 270.318 262.897ZM282.049 270.029C281.747 270.282 281.493 270.453 281.288 270.541L277.519 266.039C277.218 266.444 277.07 266.866 277.077 267.306C277.09 267.754 277.255 268.166 277.57 268.542C277.953 269 278.42 269.242 278.97 269.268L280.439 271.022C280.034 271.153 279.567 271.21 279.039 271.194C278.517 271.185 277.993 271.067 277.468 270.839C276.944 270.611 276.489 270.268 276.106 269.81C275.62 269.229 275.318 268.57 275.202 267.833C275.085 267.096 275.157 266.375 275.416 265.671C275.683 264.96 276.115 264.355 276.712 263.855C277.293 263.369 277.957 263.056 278.703 262.918C279.457 262.788 280.186 262.845 280.892 263.089C281.605 263.326 282.195 263.723 282.66 264.279C283.133 264.844 283.425 265.475 283.538 266.174C283.657 266.881 283.584 267.575 283.319 268.256C283.07 268.938 282.646 269.529 282.049 270.029ZM281.176 265.522C280.875 265.162 280.501 264.94 280.054 264.855C279.615 264.763 279.167 264.826 278.708 265.043L281.194 268.011C281.48 267.605 281.62 267.174 281.615 266.72C281.617 266.273 281.471 265.874 281.176 265.522ZM279.236 273.547C279.064 273.343 278.935 273.138 278.847 272.934L280.344 271.68L280.539 271.913C280.758 272.175 281.003 272.31 281.275 272.319C281.555 272.321 281.893 272.185 282.288 271.909L286.37 269.034L290.325 273.756L284.069 278.995L282.672 277.327L287.382 273.382L286.057 271.8L283.235 273.788C282.459 274.34 281.728 274.597 281.043 274.559C280.365 274.514 279.763 274.177 279.236 273.547ZM292.118 279.76C292.467 280.178 292.688 280.632 292.781 281.125C292.88 281.626 292.841 282.111 292.663 282.58C292.501 283.05 292.215 283.457 291.806 283.799C291.389 284.148 290.931 284.365 290.431 284.45C289.946 284.535 289.466 284.485 288.99 284.299C288.521 284.122 288.112 283.824 287.763 283.407L285.277 280.438L291.534 275.2L292.931 276.868L291.029 278.46L292.118 279.76ZM288.893 281.94C289.119 282.209 289.363 282.36 289.625 282.391C289.902 282.423 290.164 282.336 290.409 282.131C290.646 281.932 290.769 281.697 290.778 281.425C290.802 281.155 290.701 280.884 290.475 280.615L289.643 279.621L288.061 280.946L288.893 281.94ZM292.678 289.6C292.205 289.036 291.911 288.385 291.794 287.648C291.686 286.904 291.762 286.172 292.022 285.453C292.283 284.734 292.704 284.132 293.284 283.645C293.865 283.159 294.532 282.851 295.286 282.721C296.039 282.591 296.769 282.648 297.474 282.892C298.187 283.129 298.78 283.53 299.253 284.094C299.684 284.609 299.955 285.182 300.066 285.813C300.185 286.437 300.161 287.048 299.995 287.647C299.836 288.238 299.583 288.75 299.234 289.181L297.837 287.512C297.924 287.384 297.997 287.205 298.055 286.975C298.121 286.739 298.133 286.479 298.09 286.195C298.047 285.911 297.919 285.642 297.707 285.388C297.337 284.947 296.866 284.716 296.292 284.695C295.725 284.683 295.188 284.889 294.681 285.314C294.174 285.738 293.877 286.231 293.79 286.791C293.709 287.359 293.854 287.864 294.223 288.306C294.436 288.559 294.678 288.732 294.95 288.824C295.222 288.917 295.476 288.954 295.712 288.937C295.957 288.913 296.15 288.87 296.292 288.807L297.689 290.475C297.203 290.743 296.651 290.906 296.032 290.965C295.422 291.017 294.816 290.933 294.215 290.713C293.621 290.486 293.109 290.115 292.678 289.6ZM302.235 293.961L301.008 299.225L299.293 297.176L300.415 292.834L297.619 295.177L296.222 293.508L302.478 288.269L303.875 289.938L301.299 292.095L305.446 291.815L307.039 293.716L302.235 293.961ZM309.858 296.759C310.536 297.568 310.825 298.412 310.724 299.289C310.632 300.159 310.181 300.933 309.372 301.611L305.63 304.744L304.582 303.493L304.97 302.709L304.918 302.648C303.992 302.589 303.238 302.211 302.656 301.516C302.327 301.124 302.108 300.695 301.997 300.231C301.894 299.775 301.907 299.334 302.035 298.906C302.171 298.486 302.41 298.133 302.754 297.845C303.179 297.489 303.653 297.308 304.176 297.301C304.708 297.287 305.243 297.437 305.784 297.75C306.339 298.064 306.863 298.515 307.356 299.104L308.024 299.902L308.146 299.799C308.465 299.532 308.643 299.237 308.679 298.915C308.715 298.592 308.61 298.284 308.363 297.989C308.151 297.736 307.91 297.59 307.641 297.551C307.387 297.513 307.169 297.543 306.986 297.64L305.589 295.972C305.984 295.697 306.424 295.523 306.907 295.453C307.405 295.383 307.91 295.454 308.421 295.666C308.941 295.871 309.42 296.235 309.858 296.759ZM304.346 300.769C304.668 301.153 305.043 301.368 305.471 301.413C305.905 301.467 306.278 301.364 306.588 301.103L306.907 300.836L306.199 299.99C305.822 299.54 305.474 299.275 305.156 299.193C304.846 299.105 304.564 299.168 304.31 299.38C304.114 299.544 304.013 299.747 304.007 299.989C304.007 300.239 304.12 300.499 304.346 300.769ZM317.201 305.852L310.945 311.091L309.548 309.422L311.535 307.758L310.867 306.961L307.914 307.472L306.332 305.583L309.793 305.105C309.671 304.61 309.687 304.123 309.843 303.645C309.999 303.166 310.286 302.752 310.703 302.403C311.332 301.876 312.018 301.656 312.76 301.745C313.509 301.841 314.171 302.233 314.746 302.92L317.201 305.852ZM313.557 304.291C313.331 304.021 313.087 303.871 312.824 303.84C312.57 303.803 312.329 303.88 312.1 304.071C311.854 304.277 311.724 304.511 311.708 304.775C311.7 305.032 311.81 305.295 312.036 305.565L312.96 306.669L314.481 305.395L313.557 304.291ZM324.283 314.309L325.721 316.026L317.185 318.917C316.178 319.259 315.379 319.393 314.787 319.318C314.187 319.25 313.696 318.987 313.312 318.529C313.086 318.259 312.912 317.959 312.79 317.63L314.311 316.357C314.349 316.519 314.448 316.694 314.605 316.882C314.824 317.144 315.056 317.305 315.301 317.364C315.544 317.439 315.846 317.409 316.206 317.274L316.359 317.208L320.4 309.672L321.91 311.475L319.059 316.345L324.283 314.309ZM319.331 321.43C319.16 321.225 319.03 321.021 318.942 320.816L320.439 319.563L320.634 319.796C320.853 320.058 321.099 320.193 321.371 320.202C321.651 320.204 321.988 320.067 322.384 319.792L326.466 316.916L330.421 321.639L324.164 326.878L322.767 325.21L327.478 321.265L326.153 319.683L323.331 321.67C322.555 322.223 321.824 322.48 321.138 322.442C320.461 322.397 319.858 322.06 319.331 321.43ZM325.789 329.141C325.556 328.863 325.455 328.552 325.485 328.206C325.516 327.86 325.67 327.571 325.948 327.338C326.226 327.105 326.538 327.004 326.884 327.035C327.229 327.066 327.519 327.22 327.751 327.498C327.984 327.776 328.085 328.088 328.055 328.433C328.024 328.779 327.87 329.068 327.592 329.301C327.314 329.534 327.002 329.635 326.656 329.604C326.311 329.574 326.021 329.42 325.789 329.141Z" fill="#11244D"/>
<path d="M347.72 243.429C348.64 243.429 349.473 243.649 350.22 244.089C350.967 244.515 351.547 245.102 351.96 245.849C352.387 246.595 352.6 247.422 352.6 248.329C352.6 249.249 352.38 250.089 351.94 250.849C351.5 251.609 350.88 252.209 350.08 252.649C349.293 253.089 348.4 253.309 347.4 253.309C346.4 253.309 345.5 253.089 344.7 252.649C343.913 252.209 343.3 251.609 342.86 250.849C342.42 250.089 342.2 249.249 342.2 248.329C342.2 247.622 342.347 246.949 342.64 246.309C342.947 245.655 343.347 244.962 343.84 244.229L347.28 239.049H350.32L347.34 243.449L347.72 243.429ZM347.4 250.669C348.053 250.669 348.607 250.449 349.06 250.009C349.513 249.569 349.74 249.009 349.74 248.329C349.74 247.649 349.513 247.089 349.06 246.649C348.607 246.209 348.053 245.989 347.4 245.989C346.733 245.989 346.173 246.209 345.72 246.649C345.28 247.075 345.06 247.635 345.06 248.329C345.06 249.022 345.28 249.589 345.72 250.029C346.173 250.455 346.733 250.669 347.4 250.669ZM359.098 253.309C358.178 253.309 357.318 253.069 356.518 252.589C355.718 252.095 355.078 251.435 354.598 250.609C354.118 249.782 353.878 248.895 353.878 247.949C353.878 247.002 354.118 246.115 354.598 245.289C355.078 244.462 355.718 243.809 356.518 243.329C357.318 242.835 358.178 242.589 359.098 242.589C359.938 242.589 360.705 242.789 361.398 243.189C362.092 243.575 362.658 244.089 363.098 244.729C363.538 245.355 363.825 246.009 363.958 246.689H361.238C361.185 246.502 361.072 246.289 360.898 246.049C360.725 245.795 360.485 245.575 360.178 245.389C359.872 245.202 359.512 245.109 359.098 245.109C358.378 245.109 357.778 245.375 357.298 245.909C356.832 246.442 356.598 247.122 356.598 247.949C356.598 248.775 356.832 249.455 357.298 249.989C357.778 250.522 358.378 250.789 359.098 250.789C359.512 250.789 359.872 250.695 360.178 250.509C360.485 250.322 360.725 250.109 360.898 249.869C361.072 249.615 361.185 249.395 361.238 249.209H363.958C363.825 249.889 363.538 250.549 363.098 251.189C362.658 251.815 362.092 252.329 361.398 252.729C360.705 253.115 359.938 253.309 359.098 253.309ZM369.448 250.289H374.608V253.049H365.168V250.909L369.728 246.309C370.301 245.735 370.721 245.289 370.988 244.969C371.268 244.649 371.468 244.349 371.588 244.069C371.721 243.775 371.788 243.455 371.788 243.109C371.788 242.615 371.601 242.215 371.228 241.909C370.868 241.589 370.401 241.429 369.828 241.429C369.214 241.429 368.708 241.615 368.308 241.989C367.921 242.362 367.728 242.849 367.728 243.449H364.988C364.988 242.569 365.194 241.775 365.608 241.069C366.034 240.362 366.614 239.809 367.348 239.409C368.094 238.995 368.921 238.789 369.828 238.789C370.788 238.789 371.628 238.975 372.348 239.349C373.081 239.709 373.648 240.209 374.048 240.849C374.448 241.475 374.648 242.182 374.648 242.969C374.648 243.609 374.528 244.202 374.288 244.749C374.061 245.295 373.748 245.809 373.348 246.289C372.961 246.755 372.441 247.315 371.788 247.969L369.448 250.289Z" fill="#8712FC"/>
<path fill-rule="evenodd" clip-rule="evenodd" d="M427.52 347.457L431.409 355.58L435.33 347.463L441.694 363.265H442.4V364.557H434.515V363.265H435.39L434.193 360.337L432.563 363.664L431.429 363.109L430.3 363.665L428.656 360.332L427.458 363.265H428.333V364.557H420.448V363.265H421.154L427.52 347.457ZM422.547 363.265H426.062L428.546 357.185L431.431 363.037L434.3 357.181L436.786 363.265H440.3L435.223 350.656L432.564 356.161L431.412 355.604L430.254 356.159L427.622 350.663L422.547 363.265Z" fill="#0069FF"/>
<path fill-rule="evenodd" clip-rule="evenodd" d="M179.096 94.4565L182.986 102.58L186.906 94.4628L193.27 110.265H193.976V111.557H186.091V110.265H186.966L185.769 107.337L184.139 110.664L183.005 110.109L181.876 110.665L180.233 107.332L179.034 110.265H179.909V111.557H172.024V110.265H172.73L179.096 94.4565ZM174.123 110.265H177.638L180.122 104.185L183.007 110.037L185.876 104.181L188.362 110.265H191.877L186.799 97.6565L184.14 103.161L182.988 102.604L181.83 103.159L179.198 97.6628L174.123 110.265Z" fill="#E21B25"/>
<path fill-rule="evenodd" clip-rule="evenodd" d="M364.447 221.2C368.201 217.279 371.441 212.456 371.441 207.776C371.441 200.778 365.679 195.049 358.5 195.049C351.321 195.049 345.559 200.778 345.559 207.776C345.559 209.794 346.315 212.026 347.639 214.344C348.953 216.645 350.737 218.879 352.577 220.859C354.409 222.832 356.25 224.503 357.636 225.683C357.972 225.97 358.281 226.226 358.555 226.45C358.815 226.251 359.106 226.025 359.422 225.773C360.799 224.674 362.627 223.101 364.447 221.2ZM358.5 229.402C358.5 229.402 373.794 219.079 373.794 207.776C373.794 199.447 366.947 192.696 358.5 192.696C350.053 192.696 343.206 199.447 343.206 207.776C343.206 218.101 358.5 229.402 358.5 229.402Z" fill="#8712FC"/>
<path fill-rule="evenodd" clip-rule="evenodd" d="M353.559 208.225C353.559 210.649 355.62 212.696 358.265 212.696C360.909 212.696 362.971 210.649 362.971 208.225H365.323C365.323 212.038 362.117 215.049 358.265 215.049C354.412 215.049 351.206 212.038 351.206 208.225H353.559Z" fill="#8712FC"/>
</svg>
