<svg width="717" height="422" viewBox="0 0 717 422" fill="none" xmlns="http://www.w3.org/2000/svg">
<g clip-path="url(#clip0_1915_98413)">
<path d="M1.85652 129.142C5.50806 135.055 8.93714 141.084 12.7191 146.92C16.5011 152.757 20.306 158.563 24.1877 164.323C31.9511 175.85 39.8679 187.277 47.9228 198.605C55.9777 209.932 64.1783 221.16 72.5094 232.28C80.8404 243.401 89.2712 254.39 97.8554 265.288C106.44 276.185 115.101 286.945 123.915 297.612C125.027 298.963 126.147 300.315 127.267 301.659C128.211 302.796 129.837 301.16 128.894 300.031C120.026 289.41 111.288 278.681 102.681 267.838C94.0735 256.994 85.5736 246.004 77.2196 234.938C68.8808 223.887 60.6802 212.743 52.61 201.493C44.5397 190.242 36.6076 178.906 28.7982 167.479C24.8781 161.742 20.9734 155.983 17.0841 150.223C15.1586 147.366 13.2638 144.478 11.3076 141.645C9.3514 138.811 7.24945 135.908 5.23957 133.02C4.27298 131.63 3.31407 130.232 2.37816 128.819C2.16337 128.497 1.64172 128.789 1.84884 129.127L1.85652 129.142Z" fill="#E4DABB"/>
<path d="M129.76 300.684C139.917 292.336 150.02 283.934 160.07 275.448C170.112 266.97 180.13 258.468 190.172 249.998C200.214 241.527 210.355 232.956 220.389 224.378C230.377 215.838 240.366 207.306 250.308 198.712C260.25 190.119 270.184 181.525 280.103 172.909C281.346 171.826 282.588 170.743 283.816 169.637C285.12 168.462 283.225 166.627 281.906 167.725C271.833 176.157 262.006 184.897 252.057 193.467C242.099 202.038 232.157 210.624 222.2 219.194C212.196 227.803 202.201 236.42 192.197 245.029C182.24 253.599 172.252 262.124 162.241 270.633C152.237 279.134 142.234 287.651 132.292 296.229C131.042 297.305 129.799 298.38 128.548 299.463C127.705 300.184 128.917 301.359 129.753 300.668L129.76 300.684Z" fill="#E4DABB"/>
<path d="M283.264 168.109C288.027 171.849 292.462 176.004 296.926 180.081C302.825 185.465 308.617 190.948 314.378 196.478C327.765 209.318 340.99 222.335 354.2 235.368C360.583 241.665 366.958 247.97 373.363 254.244C380.444 261.187 387.885 268.014 393.362 276.362C399.285 285.401 401.655 295.838 403.443 306.359C405.391 317.832 407.247 329.329 409.158 340.81C413.047 364.195 416.936 387.58 420.826 410.972L421.524 415.173C421.777 416.67 422.237 418.053 422.721 419.496C422.943 420.172 423.994 420.08 423.994 419.327C423.956 413.437 422.521 407.539 421.562 401.733L418.616 383.947L412.802 348.866C410.838 337.009 408.881 325.143 406.895 313.286C405.123 302.726 403.627 291.89 399.078 282.091C394.697 272.66 387.409 265.019 380.076 257.815C373.724 251.572 367.349 245.344 361.005 239.1C347.611 225.914 334.217 212.72 320.615 199.749C309.73 189.366 298.737 178.991 286.838 169.775C285.834 168.992 284.821 168.216 283.801 167.448C283.409 167.157 282.895 167.825 283.279 168.124L283.264 168.109Z" fill="#E4DABB"/>
<path d="M119.489 292.505C134.325 309.654 149.56 326.434 164.956 343.076C180.345 359.71 195.803 376.275 211.322 392.786C215.656 397.394 219.998 402.002 224.34 406.61C226.557 408.96 228.774 411.302 230.991 413.644C232.081 414.796 233.155 415.956 234.252 417.093C234.788 417.646 235.318 417.968 235.993 418.329C236.668 418.69 237.205 419.143 237.788 419.589C238.072 419.804 238.455 419.389 238.271 419.105C237.895 418.552 237.481 418.014 237.174 417.415C236.929 416.924 236.768 416.417 236.446 415.971C235.579 414.773 234.336 413.721 233.323 412.654C231.405 410.634 229.495 408.607 227.577 406.587C223.665 402.447 219.753 398.308 215.848 394.161C208.123 385.959 200.413 377.742 192.727 369.517C177.254 352.967 161.934 336.271 146.453 319.729C137.723 310.398 128.955 301.106 120.11 291.883C119.711 291.468 119.12 292.082 119.489 292.505Z" fill="#E4DABB"/>
<path d="M318.521 200.486C315.383 203.512 312.131 206.423 308.955 209.418C307.344 210.931 305.764 212.482 304.168 214.018C302.787 215.347 301.36 216.66 300.11 218.119C297.831 220.792 296.458 224.025 298.069 227.412C298.89 229.132 300.263 230.545 301.514 231.958C302.941 233.571 304.383 235.176 305.817 236.773C309.124 240.444 312.445 244.1 315.79 247.74C316.734 248.761 318.252 247.233 317.317 246.211C314.578 243.224 311.847 240.229 309.131 237.211C306.416 234.193 303.616 231.359 301.138 228.233C300.094 226.92 299.228 225.369 299.473 223.641C299.696 222.066 300.67 220.661 301.682 219.486C304.168 216.598 307.06 214.003 309.737 211.292C312.975 208.005 316.081 204.587 319.326 201.308C319.848 200.778 319.05 199.98 318.513 200.494L318.521 200.486Z" fill="#E4DABB"/>
<path d="M293.428 270.464C296.665 267.354 300.025 264.382 303.332 261.356C306.638 258.33 309.799 255.32 313.067 252.34C319.641 246.334 326.307 240.421 333.043 234.592C336.848 231.297 340.691 228.034 344.55 224.8C345.693 223.84 344.051 222.205 342.908 223.157C329.261 234.607 315.982 246.473 303.086 258.76C299.442 262.231 295.998 265.91 292.423 269.458C291.771 270.103 292.768 271.101 293.428 270.464Z" fill="#E4DABB"/>
<path d="M73.3302 62.651C79.4212 59.6713 85.4509 56.6378 91.3041 53.1973C97.1573 49.7568 102.788 46.2318 108.442 42.5993C114.096 38.9668 119.818 35.2345 125.541 31.5943C131.264 27.9541 136.795 24.2679 142.541 20.812C149.054 16.8953 155.728 13.2552 162.463 9.73785C162.563 9.68409 162.494 9.51514 162.387 9.55353C156.173 12.011 150.228 14.9908 144.359 18.1778C138.49 21.3649 132.53 24.7517 126.815 28.3535C115.346 35.5801 104.154 43.2367 92.6389 50.3942C86.1873 54.4107 79.7051 58.4963 72.9773 62.029C72.5784 62.244 72.9313 62.8354 73.3302 62.6357V62.651Z" fill="#E4DABB"/>
<path d="M187.05 15.5207C189.159 20.8427 191.116 26.2262 193.241 31.5406C195.22 36.4863 197.122 41.4858 199.569 46.2165C204.502 55.7317 212.058 63.2654 219.354 70.9682C223.803 75.6682 228.237 80.3835 232.656 85.1142C233.047 85.5289 233.661 84.9069 233.277 84.4922C229.403 80.2914 225.529 76.0982 221.678 71.8744C218.103 67.9501 214.475 64.0718 211.076 59.9862C207.678 55.9006 204.625 51.6384 202.063 47.0229C199.5 42.4074 197.391 37.5768 195.297 32.7463C192.757 26.9097 190.057 21.1499 187.502 15.321C187.387 15.0599 186.935 15.2519 187.042 15.513L187.05 15.5207Z" fill="#E4DABB"/>
<path d="M202.929 48.0673C197.912 52.2297 191.852 54.8562 185.884 57.3444C182.67 58.6883 179.44 60.0016 176.233 61.3686L171.331 63.4498C169.697 64.1409 167.879 64.6939 166.629 66.0071C166.46 66.1837 166.583 66.4832 166.828 66.4832C168.646 66.4986 170.303 65.5847 171.945 64.9012L177.208 62.6971C180.46 61.3378 183.697 59.9401 186.935 58.5424C192.888 55.9697 198.764 53.1205 203.697 48.8276C204.226 48.3668 203.459 47.6296 202.937 48.0673H202.929Z" fill="#E4DABB"/>
<path d="M63.6874 80.3835C66.0731 82.9178 68.2364 85.7286 70.4074 88.4625C72.5784 91.1965 74.596 93.9689 76.5982 96.7873C80.6333 102.463 84.446 108.299 88.4197 114.021C97.0729 126.477 107.053 137.905 116.827 149.486C122.503 156.213 128.126 162.986 133.757 169.745C134.494 170.628 135.744 169.361 135.015 168.485C125.027 156.405 115.154 144.233 105.182 132.145C100.418 126.377 95.7765 120.518 91.4806 114.389C87.4838 108.683 83.6788 102.847 79.6897 97.1329C77.4957 93.9996 75.225 90.9201 72.8469 87.925C71.6195 86.3813 70.3614 84.8608 69.0419 83.3939C67.7225 81.9271 66.2803 80.5832 64.8918 79.1778C64.1169 78.3944 62.9279 79.5848 63.6874 80.3835Z" fill="#E4DABB"/>
<path d="M4.26531 174.084C10.9087 168.439 17.8666 163.163 24.8475 157.941C31.8284 152.719 38.8016 147.765 45.9589 142.942C60.3273 133.281 75.3017 124.434 90.6444 116.424C92.7387 115.334 94.902 114.328 96.9579 113.16C99.0138 111.993 101.146 110.741 103.302 109.628C107.659 107.385 112.247 105.611 116.558 103.284C116.681 103.215 116.596 103.008 116.458 103.054C112.347 104.352 108.419 106.218 104.468 107.946C100.517 109.674 96.3442 111.141 92.3934 113.045C84.515 116.854 76.7363 120.886 69.134 125.225C54.0445 133.827 39.469 143.488 25.722 154.109C17.9509 160.114 10.5711 166.534 3.23735 173.062C2.53926 173.684 3.55188 174.675 4.25764 174.084H4.26531Z" fill="#E4DABB"/>
<path d="M101.614 83.271C105.097 81.451 108.764 80.0379 112.27 78.2562C115.776 76.4745 119.074 74.6391 122.503 72.8727C125.549 71.3061 128.648 70.2693 132.039 71.3137C135.046 72.2353 137.616 74.4317 139.695 76.7203C141.881 79.1317 143.699 81.8503 145.77 84.3539C147.842 86.8575 150.297 89.1076 153.189 90.7895C156.257 92.5712 159.494 94.0226 162.233 96.3112C164.972 98.5997 167.58 101.487 170.158 104.144L179.432 113.706C182.524 116.885 185.539 120.157 188.73 123.236C189.743 124.212 191.208 122.729 190.272 121.693C187.541 118.698 184.626 115.848 181.795 112.945L173.295 104.229C170.58 101.441 167.933 98.5537 165.056 95.9349C162.179 93.3161 159.257 91.6957 156.019 89.9601C152.782 88.2245 150.228 86.2661 147.911 83.5398C145.732 80.9748 143.868 78.1564 141.659 75.6221C137.347 70.661 131.011 66.8672 124.36 69.3247C122.396 70.0466 120.586 71.0833 118.767 72.1047C116.781 73.2106 114.801 74.3165 112.845 75.4608C108.925 77.7647 105.22 80.4142 101.284 82.672C100.901 82.8947 101.238 83.463 101.63 83.2634L101.614 83.271Z" fill="#E4DABB"/>
<path d="M144.627 98.8532C141.336 103.023 136.672 105.942 132.476 109.098C128.28 112.254 124.46 115.564 122.043 120.126C119.627 124.688 119.481 129.918 121.583 134.779C123.685 139.64 127.543 144.24 131.095 148.395C133.205 150.86 135.399 153.256 137.723 155.522C140.048 157.787 142.28 160.252 145.072 161.712C145.717 162.05 146.683 161.305 146.169 160.613C144.543 158.425 142.349 156.697 140.408 154.792C138.467 152.888 136.488 150.845 134.609 148.802C130.973 144.855 127.244 140.685 124.621 135.977C122.189 131.615 121.452 126.715 123.7 122.115C125.948 117.515 129.638 114.374 133.519 111.509C135.836 109.797 138.199 108.123 140.439 106.303C142.679 104.482 144.574 102.447 146.284 100.128C146.983 99.1757 145.372 97.9163 144.635 98.8532H144.627Z" fill="#E4DABB"/>
<path d="M4.97874 280.931C25.7757 264.274 46.005 246.864 66.3263 229.639C86.7397 212.344 107.099 194.995 127.413 177.578C147.727 160.16 167.818 142.812 187.932 125.325C208.046 107.838 228.099 90.2826 248.098 72.6654C258.094 63.8568 268.082 55.0251 278.047 46.1781C283.072 41.7238 288.089 37.2619 293.098 32.7923C295.607 30.5575 298.085 28.2997 300.578 26.0495C303.071 23.7994 305.319 21.3419 307.451 18.7077C309.584 16.0736 312.092 14.1153 314.463 11.9266C314.509 11.8882 314.44 11.8267 314.401 11.8651C311.732 14.1767 309.162 16.6112 306.185 18.5234C303.431 20.2898 300.931 22.2174 298.476 24.3754C293.436 28.8142 288.411 33.2685 283.394 37.7304C273.506 46.516 263.61 55.2862 253.691 64.0334C233.63 81.7351 213.516 99.3754 193.333 116.939C173.226 134.433 153.066 151.866 132.837 169.222C112.615 186.579 92.3321 203.873 71.9724 221.076C51.6127 238.278 30.9922 255.473 10.5711 272.76C8.08563 274.864 5.61546 276.969 3.15297 279.104C1.87953 280.21 3.7053 281.961 4.98641 280.939L4.97874 280.931Z" fill="#E4DABB"/>
<path d="M208.752 105.942C214.697 112.546 221.049 118.782 227.447 124.941C233.845 131.1 240.473 137.206 247.178 143.127C253.683 148.879 260.188 154.8 267.376 159.707C272.063 162.91 277.15 165.413 282.021 168.316C284.675 169.898 287.237 171.649 289.677 173.531C291.211 174.713 292.684 175.98 294.157 177.24C296.013 178.822 297.962 180.273 299.841 181.832C299.949 181.925 300.148 181.802 300.056 181.671C298.829 179.966 297.701 178.246 296.259 176.71C295.008 175.381 293.704 174.114 292.346 172.901C290.152 170.958 287.836 169.184 285.358 167.617C280.893 164.791 276.091 162.533 271.588 159.769C264.262 155.276 257.787 149.501 251.297 143.902C244.523 138.058 237.865 132.068 231.321 125.97C223.972 119.12 216.868 112.024 209.604 105.089C209.036 104.552 208.23 105.366 208.752 105.942Z" fill="#E4DABB"/>
<path d="M240.642 136.376C246.211 134.472 251.665 132.252 256.851 129.464C262.037 126.677 266.939 123.321 271.549 119.658C272.877 118.605 274.165 117.515 275.423 116.386C276.513 115.411 277.886 114.082 278.224 112.615C278.308 112.247 278.001 111.97 277.648 112.039C276.421 112.27 275.163 113.237 274.227 114.036C273.107 114.996 271.987 115.956 270.844 116.885C268.65 118.682 266.379 120.379 264.039 121.984C259.306 125.225 254.304 128.028 249.188 130.601C246.234 132.083 243.227 133.366 240.12 134.479C238.946 134.902 239.437 136.783 240.642 136.369V136.376Z" fill="#E4DABB"/>
<path d="M274.687 163.785C281.177 161.42 287.207 158.156 292.653 153.894C295.285 151.835 297.831 149.601 300.071 147.12C302.311 144.64 304.229 141.806 304.881 138.496C305.288 136.43 305.273 134.318 305.288 132.222C305.288 131.085 305.326 129.948 305.311 128.812C305.311 128.328 305.257 127.844 305.173 127.36C305.065 126.738 304.789 126.231 304.621 125.625C304.459 125.064 303.662 125.072 303.493 125.625C303.24 126.469 302.91 127.161 302.802 128.051C302.68 129.05 302.733 130.079 302.718 131.077C302.695 132.844 302.718 134.618 302.565 136.376C302.265 139.617 300.762 142.374 298.66 144.809C294.525 149.57 289.324 153.54 283.962 156.82C280.832 158.732 277.541 160.444 274.158 161.842C272.992 162.326 273.452 164.238 274.695 163.785H274.687Z" fill="#E4DABB"/>
<path d="M314.317 194.865L318.13 191.808L320.009 190.303C320.17 190.18 320.316 190.05 320.454 189.904C320.539 189.819 320.615 189.735 320.684 189.635C320.746 189.551 320.845 189.312 320.845 189.305C320.876 189.251 321.091 189.005 321.175 188.875C321.29 188.698 321.382 188.506 321.482 188.322C321.689 187.953 321.344 187.446 320.914 187.577C320.531 187.7 320.178 187.853 319.81 188.007C320.002 187.93 319.641 188.022 319.61 188.03C319.449 188.076 319.319 188.161 319.181 188.253C318.974 188.383 318.789 188.529 318.598 188.683C317.953 189.205 317.324 189.735 316.695 190.265L312.883 193.429C312.461 193.782 312.522 194.504 312.883 194.865C313.304 195.287 313.887 195.21 314.317 194.865Z" fill="#E4DABB"/>
<path d="M333.242 213.542C341.458 206.653 349.851 199.98 358.166 193.214C366.482 186.448 375.066 179.651 383.62 173.001C400.688 159.723 418.026 146.775 435.386 133.873C445.059 126.692 454.771 119.565 464.499 112.454C465.649 111.617 464.537 109.674 463.371 110.526C445.88 123.313 428.328 136.023 411.022 149.055C393.715 162.088 376.501 175.381 359.678 189.09C350.349 196.693 341.289 204.595 332.329 212.62C331.7 213.181 332.613 214.064 333.242 213.534V213.542Z" fill="#E4DABB"/>
<path d="M498.966 169.691C494.578 172.617 490.021 175.305 485.518 178.046C481.015 180.788 476.504 183.553 471.993 186.302C462.964 191.793 453.981 197.376 445.059 203.036C436.138 208.696 427.385 214.394 418.777 220.423C416.614 221.936 414.466 223.472 412.326 225.023C410.492 226.359 408.582 227.665 406.918 229.216C405.414 230.622 404.095 232.327 403.619 234.362C403.143 236.397 403.581 238.463 404.271 240.406C404.992 242.448 406.266 244.798 405.759 247.026C405.207 249.475 402.369 251.103 400.558 252.555C395.595 256.548 390.631 260.549 385.699 264.581C384.832 265.296 386.059 266.478 386.918 265.802C391.345 262.347 395.74 258.86 400.136 255.366C402.1 253.807 404.355 252.348 406.043 250.481C407.455 248.922 408.053 247.026 407.777 244.937C407.263 241.089 404.064 237.257 406.388 233.448C407.478 231.658 409.165 230.276 410.822 229.04C412.917 227.473 415.049 225.952 417.182 224.439C434.327 212.275 452.316 201.377 470.091 190.188C475.077 187.055 480.002 183.814 484.866 180.489C489.73 177.163 494.478 173.661 499.311 170.275C499.664 170.029 499.334 169.437 498.966 169.683V169.691Z" fill="#E4DABB"/>
<path d="M361.419 241.227C356.563 247.985 350.572 253.523 344.274 258.898C341.205 261.517 338.121 264.128 335.214 266.924C333.703 268.375 332.245 269.88 330.864 271.455C330.197 272.215 329.552 272.991 328.923 273.782C328.264 274.619 327.473 275.479 327.044 276.454C326.139 278.505 327.949 280.57 329 282.199C330.296 284.203 331.677 286.161 333.12 288.074C335.874 291.714 338.919 295.054 342.118 298.295C345.317 301.536 348.324 304.746 349.759 309.039C351.285 313.609 351.515 318.731 351.707 323.515C352.144 334.39 351.531 345.51 354.829 356.024C355.144 357.022 356.724 356.6 356.41 355.586C353.479 346.263 353.587 336.387 353.51 326.718C353.472 321.964 353.479 317.134 352.796 312.426C352.114 307.718 350.25 304.124 347.265 300.684C344.281 297.243 341.013 294.44 338.091 291.13C334.968 287.605 332.168 283.827 329.721 279.803C329.115 278.812 328.31 277.898 329.054 276.769C329.644 275.863 330.358 275.018 331.041 274.189C332.345 272.607 333.741 271.094 335.191 269.642C338.014 266.808 341.036 264.197 344.074 261.609C350.886 255.803 358.097 249.836 362.194 241.688C362.455 241.166 361.757 240.767 361.419 241.235V241.227Z" fill="#E4DABB"/>
<path d="M356.855 373.372C357.967 381.267 359.041 389.162 360.161 397.056C360.713 400.965 361.258 404.882 361.795 408.791C362.071 410.826 362.347 412.853 362.616 414.889C362.869 416.816 362.992 418.821 363.429 420.717C363.567 421.309 364.511 421.186 364.488 420.572C364.418 418.629 364.02 416.663 363.759 414.735C363.49 412.715 363.214 410.695 362.938 408.676C362.401 404.767 361.849 400.85 361.289 396.941C360.146 389 358.864 381.09 357.522 373.188C357.445 372.75 356.801 372.942 356.862 373.372H356.855Z" fill="#E4DABB"/>
<path d="M418.517 395.106C414.175 396.933 409.564 398.239 404.938 399.091C402.66 399.514 400.359 399.821 398.057 400.028C396.185 400.197 394.145 400.297 392.864 398.669C391.82 397.34 391.46 395.52 391.222 393.885C390.862 391.45 390.685 388.977 390.562 386.527C390.509 385.398 390.455 384.262 390.463 383.133C390.463 382.572 390.432 382.012 390.9 381.628C391.329 381.282 391.997 381.175 392.511 381.029L399.63 378.901C405.107 377.266 410.592 375.661 416.077 374.048C417.282 373.695 416.768 371.79 415.556 372.159C410.086 373.825 404.624 375.492 399.147 377.135C396.508 377.926 393.83 378.648 391.214 379.516C390.271 379.831 389.373 380.245 388.898 381.167C388.376 382.181 388.506 383.532 388.491 384.638C388.46 387.403 388.575 390.168 388.821 392.925C389.005 395.006 389.274 397.095 390.194 398.999C391.115 400.904 392.802 402.255 394.935 402.563C397.367 402.908 400.036 402.378 402.43 401.948C408.245 400.904 413.776 399.03 419.138 396.572C419.951 396.196 419.36 394.752 418.524 395.106H418.517Z" fill="#E4DABB"/>
<path d="M412.234 351.738C415.126 352.537 418.095 351.861 420.979 351.37C423.165 350.993 426.096 350.809 427.83 352.491C429.172 353.789 429.548 355.847 429.962 357.59C430.407 359.418 430.875 361.323 432.118 362.789C433.491 364.41 435.562 364.84 437.595 364.74C439.383 364.656 442.121 363.795 443.694 364.993C444.668 365.738 444.806 367.159 445.044 368.273C445.389 369.893 445.757 371.506 446.118 373.119C446.824 376.29 447.499 379.462 448.166 382.641L450.46 393.485L451.565 398.715C451.956 400.566 452.232 402.501 452.846 404.298C453.13 405.12 454.533 405.051 454.449 404.083C454.303 402.424 453.874 400.796 453.529 399.168L452.508 394.307L450.422 384.4C449.724 381.098 449.01 377.796 448.35 374.486L447.338 369.425C447.062 368.027 446.877 366.545 446.317 365.232C445.374 363.035 443.264 362.329 441.024 362.405C438.991 362.475 436.421 363.25 434.55 362.144C432.916 361.184 432.593 359.019 432.256 357.321C431.865 355.332 431.519 353.251 430.284 351.585C428.535 349.219 425.62 348.528 422.813 348.751C419.46 349.02 416.108 350.686 412.74 349.841C411.505 349.534 410.983 351.416 412.211 351.754L412.234 351.738Z" fill="#E4DABB"/>
<path d="M285.818 324.337C282.757 327.455 279.604 330.435 276.674 333.676C273.743 336.916 270.936 340.234 268.197 343.629C262.697 350.448 257.488 357.49 252.594 364.763C251.435 366.483 250.085 368.204 249.195 370.085C248.305 371.967 248.528 373.91 249.379 375.837C250.983 379.431 253.092 382.872 255.171 386.205C259.321 392.855 264.101 399.099 269.363 404.913C272.317 408.176 275.439 411.287 278.714 414.228C280.364 415.71 282.028 417.2 283.854 418.452C284.276 418.744 284.729 418.913 285.174 419.151C285.657 419.404 286.079 419.788 286.547 420.088C287.521 420.717 288.58 421.201 289.592 421.77C289.884 421.939 290.229 421.524 289.961 421.286C289.255 420.656 288.618 419.965 287.935 419.312C287.253 418.659 286.478 418.106 285.872 417.361C284.69 415.91 283.033 414.773 281.614 413.56C278.714 411.079 275.922 408.461 273.26 405.734C267.99 400.328 263.249 394.445 259.061 388.163C256.943 384.984 254.972 381.712 253.146 378.356C252.248 376.705 250.845 374.739 250.768 372.811C250.691 370.884 252.425 369.01 253.43 367.512C258.117 360.485 263.08 353.628 268.32 347C271.243 343.298 274.257 339.666 277.295 336.064C278.822 334.259 280.356 332.47 281.898 330.681C283.44 328.891 284.967 326.941 286.616 325.151C287.107 324.614 286.332 323.823 285.818 324.352V324.337Z" fill="#E4DABB"/>
<path d="M274.618 338.982C283.969 349.45 293.313 359.917 302.764 370.3C306.991 374.939 311.855 379.477 314.616 385.206C317.094 390.352 317.884 396.15 318.567 401.756C318.958 404.982 319.311 408.223 319.894 411.417C320.439 414.412 320.983 417.876 322.917 420.318C323.116 420.572 323.592 420.364 323.561 420.049C323.293 417.223 322.288 414.497 321.82 411.694C321.352 408.891 321.076 405.803 320.807 402.854C320.293 397.156 319.833 391.266 317.708 385.905C315.33 379.915 310.903 375.415 306.6 370.769L292.247 355.256C286.815 349.388 281.246 343.652 275.761 337.838C275.04 337.078 273.928 338.207 274.618 338.982Z" fill="#E4DABB"/>
<path d="M304.536 418.951C307.789 410.872 311.916 403.023 316.404 395.566C320.891 388.109 325.885 381.175 331.462 374.616C334.263 371.322 337.155 368.042 340.361 365.132C343.568 362.221 347.427 359.963 351.692 358.581C355.957 357.199 360.683 356.269 365.193 355.248C369.988 354.165 374.782 353.105 379.6 352.145C390.325 350.018 401.164 348.405 412.103 348.106C413.707 348.06 413.714 345.556 412.103 345.602C402.069 345.902 392.104 347.284 382.247 349.166C377.36 350.095 372.496 351.147 367.648 352.245C362.8 353.343 358.274 354.28 353.663 355.547C349.321 356.738 345.148 358.404 341.535 361.146C337.922 363.888 334.953 367.175 332.015 370.5C326.154 377.135 320.861 384.27 316.204 391.811C313.596 396.035 311.18 400.366 309.032 404.843C306.884 409.321 305.042 413.944 303.301 418.613C303.01 419.404 304.245 419.719 304.552 418.959L304.536 418.951Z" fill="#E4DABB"/>
<path d="M385.844 349.457C385.614 347.622 385.53 345.779 385.254 343.943C384.978 342.108 384.709 340.334 384.433 338.529C383.896 335.004 383.206 331.472 382.791 327.931C382.454 325.067 382.684 322.225 385.384 320.612C386.65 319.86 388.054 319.399 389.419 318.862C390.969 318.255 392.496 317.594 393.991 316.888C397.482 315.237 400.819 313.294 403.995 311.097C405.291 310.199 404.056 308.064 402.752 308.97C399.814 311.005 396.738 312.818 393.523 314.384C391.859 315.198 390.163 315.936 388.437 316.604C387.026 317.149 385.568 317.64 384.257 318.401C381.449 320.021 380.16 322.763 380.183 325.958C380.191 327.586 380.475 329.198 380.735 330.796C381.042 332.716 381.357 334.643 381.687 336.563L382.791 343.06C383.175 345.295 383.727 347.468 384.164 349.68C384.349 350.609 385.96 350.417 385.844 349.45V349.457Z" fill="#E4DABB"/>
<path d="M341.297 295.884C352.267 287.252 363.26 278.658 374.207 269.995C375.695 268.813 377.191 267.638 378.679 266.463C380.267 265.211 381.94 264.028 383.436 262.677C384.264 261.924 383.167 260.465 382.224 261.11C379.401 263.045 376.777 265.365 374.1 267.492C371.323 269.696 368.553 271.915 365.792 274.143C360.368 278.512 354.96 282.905 349.597 287.352C346.529 289.894 343.522 292.505 340.476 295.077C339.901 295.561 340.722 296.345 341.289 295.891L341.297 295.884Z" fill="#E4DABB"/>
<path d="M351.109 308.747C356.832 304.324 362.547 299.9 368.193 295.377C373.839 290.854 379.301 286.422 384.847 281.937L389.504 278.174L392.005 276.155C392.657 275.625 393.477 275.11 393.401 274.173C393.385 273.974 393.278 273.805 393.079 273.751C392.434 273.551 391.92 273.835 391.406 274.227C390.654 274.803 389.933 275.417 389.197 276.016L384.962 279.442L376.47 286.323C370.885 290.846 365.316 295.392 359.754 299.939C356.555 302.55 353.479 305.299 350.326 307.964C349.782 308.425 350.556 309.162 351.101 308.74L351.109 308.747Z" fill="#E4DABB"/>
<path d="M91.6723 421.916C102.405 412.531 113.75 403.868 125.135 395.298C136.519 386.727 147.566 378.149 158.045 368.695C163.967 363.35 169.651 357.729 174.929 351.738C175.896 350.64 174.285 349.012 173.318 350.126C163.982 360.777 153.373 370.216 142.395 379.132C131.417 388.048 120.148 396.603 109.201 405.573C103.003 410.649 96.9732 415.879 91.2044 421.447C90.8899 421.747 91.3578 422.2 91.6723 421.916Z" fill="#E4DABB"/>
<path d="M146.898 406.909C149.407 404.206 152.521 402.017 155.475 399.821C158.428 397.625 161.366 395.52 164.205 393.224C167.043 390.928 169.713 388.478 171.945 385.606C172.988 384.262 174.315 382.68 174.852 381.036C175.566 378.855 173.318 377.573 171.907 376.352C167.826 372.827 163.721 369.325 159.61 365.831C158.482 364.871 156.833 366.491 157.968 367.474C161.382 370.423 164.795 373.387 168.224 376.321L170.656 378.402C171.086 378.771 171.515 379.132 171.945 379.5C172.313 379.815 172.651 379.946 172.589 380.407C172.505 381.029 171.692 381.966 171.347 382.488C170.856 383.225 170.342 383.947 169.782 384.638C165.493 389.968 159.771 393.831 154.523 398.124C151.486 400.604 148.831 403.315 146.284 406.295C145.924 406.71 146.515 407.316 146.898 406.909Z" fill="#E4DABB"/>
<path d="M181.833 395.49C182.777 397.84 184.188 399.806 185.922 401.633C188.009 403.845 190.226 405.926 192.404 408.046C194.583 410.166 196.969 412.354 199.27 414.482C201.426 416.463 203.643 419.097 206.428 420.18C206.865 420.349 207.179 419.796 206.995 419.443C205.66 416.916 202.914 415.073 200.812 413.214C198.511 411.172 196.232 409.106 193.908 407.078C191.722 405.166 189.512 403.269 187.357 401.326C185.424 399.583 183.475 397.663 182.37 395.275C182.232 394.975 181.703 395.19 181.826 395.505L181.833 395.49Z" fill="#E4DABB"/>
<path d="M532.305 169.921C530.15 172.425 527.71 174.721 525.317 177.002C522.923 179.283 520.561 181.456 518.067 183.568C513.004 187.853 507.726 191.87 502.333 195.725C491.54 203.428 480.401 210.647 469.937 218.81C466.992 221.106 464.1 223.479 461.292 225.96C459.911 227.181 458.553 228.425 457.218 229.7C455.884 230.975 454.472 232.257 453.367 233.77C452.723 234.653 454.042 235.421 454.764 234.853C456.045 233.832 457.149 232.603 458.331 231.466C459.512 230.33 460.709 229.216 461.921 228.118C464.391 225.891 466.946 223.748 469.539 221.667C474.732 217.512 480.133 213.619 485.572 209.794C496.342 202.222 507.274 194.826 517.308 186.279C520.093 183.906 522.785 181.402 525.37 178.807C527.956 176.211 530.334 173.247 532.697 170.344C532.927 170.059 532.535 169.652 532.29 169.937L532.305 169.921Z" fill="#E4DABB"/>
<path d="M528.025 175.389C530.479 177.954 532.934 180.512 535.397 183.069C537.637 185.396 540 187.646 542.048 190.157C543.037 191.363 543.897 192.653 544.625 194.035C545.308 195.333 545.937 196.693 546.957 197.768C548.799 199.718 551.668 200.11 553.877 198.459C554.061 198.321 554.138 198.06 553.954 197.883C552.964 196.946 551.767 198.006 550.647 197.967C549.151 197.914 548.001 196.723 547.249 195.541C546.497 194.358 545.922 193.006 545.155 191.801C544.388 190.595 543.528 189.481 542.608 188.422C540.59 186.087 538.343 183.96 536.156 181.786C533.724 179.375 531.293 176.971 528.853 174.567C528.316 174.038 527.503 174.852 528.025 175.397V175.389Z" fill="#E4DABB"/>
<path d="M404.762 309.039C404.026 309.738 403.343 310.368 402.461 310.89C402.016 311.151 402.315 311.819 402.806 311.712C404.248 311.389 405.598 310.66 406.948 310.061C408.383 309.431 409.81 308.786 411.237 308.141C414.136 306.82 417.013 305.445 419.89 304.063C425.521 301.352 431.136 298.618 436.744 295.853C448.059 290.27 459.32 284.579 470.482 278.689C481.444 272.898 492.307 266.916 503.032 260.688C513.618 254.544 524.082 248.177 534.407 241.596C544.779 234.984 555.02 228.156 565.116 221.122C566.366 220.246 567.609 219.363 568.828 218.449C569.987 217.581 568.928 215.623 567.67 216.46C562.553 219.862 557.559 223.472 552.466 226.92C547.372 230.368 542.339 233.694 537.223 237.003C526.889 243.685 516.41 250.143 505.809 256.379C495.153 262.646 484.367 268.682 473.466 274.511C462.397 280.432 451.219 286.154 439.996 291.775C428.727 297.427 417.312 302.811 406.181 308.74C404.877 309.431 403.519 310.038 402.376 310.967L403.082 311.512C403.627 310.652 404.286 309.991 405 309.277C405.146 309.131 404.923 308.909 404.77 309.047L404.762 309.039Z" fill="#E4DABB"/>
<path d="M524.856 244.184C522.655 241.227 520.783 238.009 519.164 234.7C518.351 233.041 517.576 231.367 516.901 229.639C516.326 228.149 515.175 225.998 516.441 224.585C517.569 223.326 519.456 222.581 520.898 221.744L526.176 218.68L536.893 212.451C538.872 211.299 540.851 210.155 542.83 209.003L545.799 207.283C546.781 206.715 547.909 206.231 548.661 205.363C549.182 204.764 548.676 203.904 547.901 204.058C546.888 204.257 546.022 204.887 545.139 205.401L542.171 207.122C540.245 208.235 538.32 209.357 536.394 210.47L524.841 217.159L519.233 220.408C517.691 221.306 515.804 222.113 514.7 223.579C513.595 225.046 513.794 226.789 514.354 228.425C514.991 230.268 515.766 232.081 516.594 233.839C518.497 237.879 520.99 241.542 523.759 245.029C524.25 245.643 525.34 244.821 524.864 244.176L524.856 244.184Z" fill="#E4DABB"/>
<path d="M500.661 258.476C498.49 254.183 496.081 250.074 493.289 246.15C491.962 244.284 490.566 242.456 489.093 240.705C487.62 238.954 485.894 238.148 483.608 238.616C481.46 239.062 479.358 240.206 477.363 241.089C475.246 242.026 473.152 243.009 471.081 244.038C466.831 246.142 462.665 248.431 458.607 250.896C456.329 252.278 454.089 253.715 451.887 255.204C450.828 255.919 449.785 256.64 448.749 257.378C447.652 258.153 446.425 258.883 445.543 259.904C444.814 260.749 445.711 261.84 446.701 261.402C447.691 260.964 448.55 260.227 449.44 259.589C450.33 258.952 451.235 258.315 452.14 257.693C454.004 256.418 455.891 255.174 457.801 253.976C461.53 251.633 465.342 249.445 469.247 247.409C473.213 245.336 477.271 243.424 481.398 241.688C483.247 240.912 485.349 239.891 486.991 241.573C488.494 243.101 489.753 244.944 491.018 246.665C494.002 250.704 496.841 254.882 499.38 259.221C499.871 260.058 501.098 259.321 500.669 258.468L500.661 258.476Z" fill="#E4DABB"/>
<path d="M467.276 279.526L470.49 283.98C471.357 285.186 472.162 286.507 473.198 287.574C475.63 290.063 478.499 288.534 481.084 287.16C484.168 285.524 487.198 283.788 490.19 281.984C491.632 281.116 493.067 280.225 494.486 279.319C495.199 278.866 495.905 278.405 496.611 277.944C497.316 277.483 498.122 277.099 498.574 276.377C498.904 275.855 498.36 275.318 497.83 275.41C497.071 275.548 496.427 276.132 495.797 276.554C495.168 276.976 494.593 277.353 493.987 277.744C492.675 278.597 491.348 279.434 490.013 280.256C487.397 281.868 484.751 283.42 482.066 284.91C480.777 285.624 479.496 286.399 478.161 287.014C476.589 287.743 475.192 287.697 473.98 286.376C472.952 285.255 472.108 283.934 471.203 282.713L468.365 278.881C467.889 278.244 466.8 278.858 467.276 279.518V279.526Z" fill="#E4DABB"/>
<path d="M498.582 262.055C501.866 267.53 505.264 272.929 508.793 278.259C510.557 280.916 512.383 283.543 514.224 286.146C516.065 288.749 517.745 291.384 519.885 293.649C520.399 294.194 521.282 293.495 520.913 292.85C519.333 290.101 517.262 287.605 515.405 285.032C513.549 282.46 511.777 279.918 509.974 277.36C506.33 272.184 502.786 266.931 499.326 261.625C499.027 261.164 498.291 261.579 498.582 262.062V262.055Z" fill="#E4DABB"/>
<path d="M607.714 269.588C603.265 273.144 598.693 276.539 593.998 279.764C591.727 281.331 589.426 282.851 587.102 284.341C585.89 285.117 584.67 285.885 583.45 286.645C582.445 287.267 581.141 287.736 580.742 288.926C580.688 289.095 580.811 289.341 580.995 289.371C582.246 289.579 583.251 288.665 584.263 288.035C585.491 287.283 586.71 286.515 587.922 285.739C590.339 284.18 592.732 282.575 595.095 280.924C599.775 277.66 604.331 274.227 608.773 270.648C609.525 270.042 608.459 268.997 607.714 269.588Z" fill="#E4DABB"/>
<path d="M540.26 236.98C546.689 251.027 553.47 264.965 561.242 278.328C562.354 280.233 563.474 282.137 564.594 284.042C565.714 285.946 566.565 287.905 568.184 289.279C568.43 289.487 568.775 289.287 568.713 288.972C568.353 287.098 567.24 285.532 566.312 283.888C565.384 282.245 564.463 280.563 563.558 278.889C561.717 275.486 559.884 272.092 558.035 268.698C554.345 261.909 550.793 255.051 547.272 248.17C545.262 244.245 543.314 240.283 541.403 236.305C541.028 235.529 539.9 236.205 540.253 236.98H540.26Z" fill="#E4DABB"/>
<path d="M552.128 259.428C544.526 263.107 537.246 267.361 530.234 272.077C529.168 272.799 530.173 274.542 531.247 273.82C538.251 269.128 545.546 264.858 552.995 260.918C553.984 260.396 553.118 258.944 552.12 259.428H552.128Z" fill="#E4DABB"/>
<path d="M536.762 400.842C534.354 393.439 531.96 386.036 529.521 378.64L525.923 367.727C525.332 365.923 524.695 364.133 524.151 362.321C523.667 360.716 523.345 359.034 524.082 357.444C525.248 354.933 527.986 353.451 530.272 352.13C533.533 350.248 536.816 348.398 540.107 346.578C546.643 342.968 553.248 339.474 559.914 336.11C563.658 334.221 567.425 332.362 571.207 330.55C571.705 330.312 572.211 330.074 572.71 329.828C573.078 329.651 573.608 329.267 574.014 329.275C574.751 329.283 575.073 330.65 575.318 331.226L577.934 337.216C578.433 338.36 580.451 337.531 579.975 336.356L577.635 330.658C577.021 329.168 576.477 327.217 574.651 326.887C573.83 326.741 573.055 327.025 572.319 327.363C571.368 327.793 570.432 328.254 569.496 328.707C567.716 329.559 565.936 330.427 564.164 331.295C556.907 334.866 549.727 338.575 542.616 342.431C539.087 344.343 535.581 346.286 532.09 348.267C529.221 349.895 526.03 351.416 523.698 353.812C522.662 354.872 521.811 356.154 521.412 357.598C520.921 359.387 521.236 361.238 521.757 362.981C522.946 366.936 524.312 370.838 525.593 374.762C528.508 383.678 531.454 392.587 534.4 401.487C534.891 402.977 537.246 402.34 536.755 400.835L536.762 400.842Z" fill="#E4DABB"/>
<path d="M498.966 293.895C510.373 306.881 514.861 324.122 522.946 339.074C524.089 341.186 525.301 343.245 526.682 345.211C527.342 346.148 528.048 347.046 528.753 347.937C529.459 348.828 530.019 349.934 531.224 349.918C531.423 349.918 531.623 349.772 531.676 349.573C531.945 348.497 531.247 347.875 530.679 347.008C530.081 346.094 529.513 345.157 528.953 344.22C527.879 342.423 526.82 340.618 525.808 338.783C523.721 334.997 521.895 331.08 520.139 327.14C516.656 319.299 513.472 311.297 509.176 303.848C506.767 299.67 503.944 295.73 500.669 292.182C499.61 291.038 497.945 292.727 498.966 293.887V293.895Z" fill="#E4DABB"/>
<path d="M576.569 305.238C578.118 307.572 579.691 309.899 581.264 312.226C582.836 314.553 584.401 316.673 585.813 318.977C586.258 319.699 586.311 320.252 585.774 320.935C585.429 321.38 585.023 321.795 584.647 322.218C583.788 323.17 582.905 324.107 582.008 325.028C580.213 326.864 578.326 328.615 576.377 330.289C575.572 330.972 576.738 332.124 577.535 331.449C579.676 329.636 581.732 327.724 583.68 325.712C584.654 324.706 585.606 323.669 586.519 322.609C587.293 321.711 588.045 320.789 587.807 319.522C587.569 318.255 586.465 317.087 585.713 316.043L583.02 312.311C581.187 309.769 579.361 307.219 577.512 304.692C577.106 304.132 576.17 304.646 576.569 305.245V305.238Z" fill="#E4DABB"/>
<path d="M553.494 52.6367C555.488 54.787 557.337 57.0756 559.262 59.2796C561.188 61.4837 563.29 63.3422 564.962 65.6077C566.78 68.0729 565.1 70.4997 563.696 72.7114C562.147 75.1536 560.597 77.5957 559.063 80.0456L554.66 87.0725C553.325 89.1998 551.652 91.4115 551.223 93.9535C550.793 96.4955 551.86 98.5844 553.263 100.535C554.736 102.586 556.286 104.59 557.905 106.525C561.157 110.426 564.724 114.059 568.552 117.392C570.416 119.012 572.35 120.617 574.375 122.038C576.4 123.459 578.502 122.783 579.983 120.863C581.67 118.674 583.151 116.301 584.677 114.005C586.051 111.939 587.316 109.743 589.127 108.015C590.768 106.448 592.863 105.366 595.141 106.18C597.419 106.994 598.846 109.044 600.227 110.81C601.286 112.162 602.329 113.521 603.372 114.888C604.262 116.056 605.413 117.246 606.065 118.575C606.809 120.088 605.904 121.37 605.037 122.607C604.17 123.843 603.265 125.11 602.391 126.37L596.698 134.548C594.811 137.267 592.748 139.917 591.236 142.866C590.83 143.664 591.873 144.594 592.533 143.872C594.566 141.645 596.192 139.072 597.91 136.591L602.928 129.349L605.329 125.886C606.142 124.711 607.055 123.536 607.699 122.253C608.259 121.14 608.551 119.926 608.19 118.698C607.829 117.469 606.993 116.532 606.219 115.595C604.377 113.391 602.536 111.187 600.68 108.998C599.261 107.324 597.634 105.627 595.502 104.912C591.037 103.407 587.47 107.37 585.007 110.496C583.22 112.769 581.463 115.073 579.729 117.392C579.039 118.314 578.356 119.542 577.39 120.203C576.423 120.863 575.372 119.796 574.567 119.204C570.347 116.071 566.389 112.584 562.737 108.806C560.958 106.963 559.247 105.043 557.621 103.062C555.994 101.08 554.153 99.1296 553.378 96.772C552.481 94.0457 554.261 91.6035 555.672 89.4225L560.375 82.1344C562.147 79.3851 563.904 76.6358 565.66 73.8788C567.171 71.5134 568.859 68.7641 567.586 65.9072C567.026 64.6401 566.028 63.6571 565.062 62.6894C563.896 61.5221 562.722 60.3471 561.548 59.1798C559.109 56.753 556.501 54.5182 554.077 52.0761C553.701 51.6921 553.133 52.2681 553.494 52.6597V52.6367Z" fill="#E4DABB"/>
<path d="M617.833 183.806C619.022 185.811 620.211 187.807 621.377 189.827C622.136 191.14 623.019 193.029 624.791 193.037C625.642 193.037 626.463 192.592 627.215 192.238C628.197 191.77 629.163 191.278 630.115 190.756C631.066 190.234 631.994 189.681 632.915 189.097C633.751 188.568 634.679 188.061 635.239 187.216C635.416 186.947 635.124 186.609 634.832 186.686C633.989 186.916 633.321 187.477 632.608 187.961C631.894 188.445 631.135 188.921 630.383 189.374C629.585 189.85 628.78 190.311 627.959 190.749C627.138 191.186 626.256 191.747 625.358 191.993C623.379 192.538 622.305 189.981 621.431 188.637C620.341 186.962 619.283 185.265 618.216 183.576C618.063 183.33 617.679 183.553 617.825 183.806H617.833Z" fill="#E4DABB"/>
<path d="M658.698 150.23C660.693 153.809 662.863 157.273 665.364 160.529C666.546 162.065 667.773 163.562 669.062 165.006C670.351 166.45 671.662 168.116 673.458 168.785C673.688 168.869 673.826 168.593 673.741 168.416C672.982 166.757 671.348 165.475 670.098 164.192C668.709 162.764 667.374 161.282 666.093 159.753C663.523 156.681 661.16 153.425 659.128 149.977C658.966 149.701 658.537 149.946 658.69 150.23H658.698Z" fill="#E4DABB"/>
<path d="M649.462 184.659C653.006 189.981 656.504 195.341 660.34 200.456C664.175 205.57 668.21 210.593 672.399 215.454C676.588 220.315 680.523 224.916 685.041 229.155C689.084 232.949 693.971 235.859 699.709 235.014C702.701 234.569 705.447 233.187 707.91 231.474C709.244 230.545 710.464 229.546 711.576 228.356C712.604 227.258 713.732 226.098 714.499 224.808C714.614 224.616 714.392 224.416 714.208 224.516C713.042 225.138 712.014 226.006 710.924 226.751C709.835 227.496 708.7 228.302 707.595 229.086C705.493 230.576 703.199 231.881 700.706 232.557C695.29 234.024 690.534 231.382 686.629 227.803C682.287 223.825 678.329 219.348 674.401 214.97C670.473 210.593 666.354 205.778 662.503 201.047C658.107 195.648 653.704 190.234 649.669 184.551C649.585 184.428 649.385 184.543 649.469 184.666L649.462 184.659Z" fill="#E4DABB"/>
<path d="M675.529 218.488C667.743 225.138 659.503 231.267 650.904 236.819C650.528 237.065 650.344 237.587 650.597 237.994C656.75 247.763 663.377 257.263 670.22 266.563C673.58 271.132 677.017 275.648 680.523 280.102C683.415 283.781 686.56 287.643 690.941 289.594C693.05 290.531 695.244 290.731 697.484 291.122C699.348 291.453 701.642 291.936 702.233 294.01C702.509 294.978 703.913 294.571 703.721 293.595C702.946 289.686 697.921 289.563 694.822 288.98C690.035 288.089 686.522 284.579 683.522 280.962C676.242 272.192 669.553 262.846 663.04 253.492C659.289 248.101 655.676 242.617 652.078 237.119L651.771 238.294C660.378 232.519 668.556 226.144 676.273 219.225C676.779 218.772 676.043 218.058 675.537 218.488H675.529Z" fill="#E4DABB"/>
<path d="M633.981 303.203C643.148 295.699 652.791 288.788 662.802 282.452C665.288 280.878 667.804 279.342 670.343 277.844C672.882 276.347 675.414 274.78 678.076 273.52C679.418 272.883 680.845 272.407 682.333 272.292C683.822 272.177 685.34 272.338 686.829 272.514C689.652 272.845 692.459 273.029 695.298 272.822C698.382 272.599 701.443 272.038 704.388 271.117C705.861 270.656 707.296 270.111 708.707 269.489C710.119 268.867 711.599 268.198 712.758 267.077C713.379 266.47 712.742 265.342 711.899 265.603C710.579 266.01 709.428 266.693 708.186 267.292C706.943 267.891 705.616 268.437 704.289 268.89C701.596 269.819 698.788 270.472 695.958 270.771C693.127 271.071 690.35 271.032 687.542 270.748C684.55 270.449 681.658 270.264 678.797 271.37C676.181 272.384 673.757 273.935 671.34 275.348C668.747 276.869 666.185 278.435 663.646 280.041C658.614 283.22 653.689 286.561 648.894 290.086C643.539 294.025 638.323 298.157 633.26 302.465C632.754 302.895 633.482 303.602 633.981 303.187V303.203Z" fill="#E4DABB"/>
<path d="M658.943 150.822C664.382 155.445 668.057 161.658 672.537 167.133C674.892 170.013 677.431 172.732 680.132 175.289C681.167 176.265 682.272 177.478 683.706 176.464C685.241 175.381 686.606 173.93 688.01 172.686C691.478 169.614 694.945 166.542 698.443 163.493C699.126 162.902 698.121 161.896 697.453 162.503C694.63 165.052 691.784 167.587 688.938 170.113L684.665 173.899C684.182 174.329 683.039 175.75 682.295 175.466C681.965 175.335 681.566 174.829 681.313 174.598C680.976 174.283 680.638 173.961 680.3 173.638C677.792 171.219 675.429 168.646 673.227 165.943C671.026 163.24 669.215 160.652 667.198 158.01C664.981 155.099 662.626 152.296 659.826 149.923C659.212 149.401 658.314 150.292 658.936 150.814L658.943 150.822Z" fill="#E4DABB"/>
<path d="M685.394 340.772C689.245 338.813 692.95 336.579 696.456 334.044C698.152 332.823 699.809 331.533 701.412 330.197C702.233 329.513 703.038 328.822 703.821 328.092C704.534 327.432 705.301 326.71 705.462 325.719C705.493 325.551 705.386 325.305 705.171 325.335C703.376 325.574 701.888 327.532 700.576 328.653C698.926 330.074 697.231 331.425 695.474 332.708C692.038 335.227 688.409 337.5 684.65 339.497C683.806 339.942 684.55 341.202 685.394 340.772Z" fill="#E4DABB"/>
<path d="M118.315 218.426C113.628 222.366 108.687 226.075 103.709 229.639C98.73 233.202 93.5748 236.558 88.3046 239.699C86.9084 240.536 85.3895 241.258 84.0547 242.195C83.2185 242.779 82.1752 243.992 83.1955 244.891C83.4103 245.075 83.7862 245.083 83.932 244.798C84.6991 243.278 86.3331 242.702 87.7523 241.88C89.3709 240.951 90.9819 239.991 92.5775 239.016C95.7151 237.088 98.7836 235.045 101.798 232.933C104.775 230.852 107.69 228.686 110.536 226.429C113.382 224.171 116.236 221.629 119.021 219.125C119.496 218.695 118.806 218.019 118.323 218.426H118.315Z" fill="#E4DABB"/>
<path d="M89.5397 253.876C87.1232 255.097 84.7145 256.318 82.298 257.531C81.1319 258.115 79.9736 258.714 78.7999 259.282C77.7259 259.805 76.5292 260.373 75.3017 260.327C74.0743 260.281 73.2458 259.505 72.4403 258.706C71.5275 257.815 70.6376 256.902 69.7554 255.972C68.8271 254.997 67.9066 254.014 67.009 253.008C66.1729 252.079 65.3751 250.896 64.1937 250.389C63.649 250.159 63.0046 250.543 63.1657 251.18C63.5032 252.516 64.6233 253.523 65.5055 254.513C66.4874 255.604 67.4847 256.687 68.505 257.746C70.2387 259.551 72.1565 262.147 74.8415 262.408C77.5264 262.669 80.0349 260.91 82.275 259.728C84.9906 258.284 87.7216 256.848 90.4449 255.412C91.4652 254.874 90.5677 253.361 89.5474 253.876H89.5397Z" fill="#E4DABB"/>
<path d="M32.4958 218.611C35.7331 222.182 38.8399 225.883 42.0542 229.477C43.6192 231.228 45.1995 232.956 46.7798 234.7L49.2116 237.38C50.0247 238.278 50.7842 239.353 51.8735 239.922C52.8324 240.421 53.6609 239.438 53.262 238.532C52.7941 237.464 51.8198 236.666 51.022 235.836L48.5212 233.225C46.8565 231.489 45.1995 229.738 43.5195 228.011C40.1594 224.562 36.6996 221.206 33.3703 217.727C32.818 217.144 31.9588 218.019 32.4958 218.603V218.611Z" fill="#E4DABB"/>
<path d="M0.836207 241.535C2.148 239.668 3.80501 238.071 5.73051 236.85C6.65874 236.259 7.64834 235.744 8.6763 235.337C9.70425 234.93 11.0391 234.385 12.1744 234.5C13.4632 234.63 14.1613 235.636 14.8057 236.627C15.5114 237.71 16.2325 238.785 16.969 239.845C18.3805 241.865 19.8457 243.854 21.3493 245.812C24.4102 249.798 27.6398 253.661 31.0689 257.324C33.8382 260.281 37.1753 264.451 41.6323 264.42C43.8263 264.405 45.7058 263.26 47.4088 261.978C48.2757 261.325 49.1118 260.642 50.017 260.043C50.9223 259.444 51.7891 259.121 52.3108 258.153C52.4489 257.892 52.4028 257.478 52.096 257.339C50.2702 256.533 48.4751 258.246 47.0943 259.305C45.6214 260.427 44.0411 261.794 42.1386 262.055C39.9446 262.362 37.9424 260.956 36.3928 259.566C34.5823 257.946 32.9253 256.141 31.2607 254.375C27.7549 250.65 24.4025 246.787 21.2496 242.756C19.6233 240.682 18.0813 238.547 16.5241 236.42C15.1816 234.584 13.9925 233.056 11.507 233.34C9.24397 233.601 6.93491 234.761 5.07078 236.028C3.0839 237.38 1.40388 239.092 0.0614035 241.081C-0.260792 241.558 0.498669 241.988 0.820864 241.527L0.836207 241.535Z" fill="#E4DABB"/>
<path d="M3.26804 174.352C5.90697 178.131 8.54591 181.909 11.1695 185.695C12.466 187.562 13.7777 189.42 15.0358 191.302C15.6649 192.246 16.3016 193.183 16.9307 194.128C17.4983 194.972 17.9203 195.886 18.9099 196.247C19.2321 196.37 19.6003 196.055 19.5926 195.725C19.5543 194.727 18.8638 194.074 18.2808 193.321C17.5827 192.43 16.8923 191.532 16.1942 190.641C14.752 188.783 13.3558 186.893 11.952 185.012C9.22098 181.364 6.52068 177.693 3.82037 174.022C3.57489 173.692 3.02256 174.007 3.26037 174.352H3.26804Z" fill="#E4DABB"/>
<path d="M26.9494 189.144C23.1905 192.162 19.2397 194.926 15.4885 197.944L10.0265 202.345L7.21877 204.603C6.36725 205.286 5.36998 205.947 5.18587 207.099C5.14751 207.344 5.27792 207.552 5.53875 207.567C6.58972 207.621 7.34151 206.937 8.11631 206.308C9.04454 205.547 9.95743 204.764 10.8703 203.996L16.5318 199.258C20.2523 196.14 23.7505 192.784 27.4711 189.666C27.8393 189.359 27.3176 188.852 26.9494 189.144Z" fill="#E4DABB"/>
<path d="M96.2751 198.574C90.1534 197.699 84.9446 193.966 79.0147 192.407C72.7779 190.764 66.3186 191.831 60.3733 194.051C56.8982 195.349 53.5689 197 50.3162 198.782C48.874 199.573 50.1628 201.784 51.605 200.986C57.0363 197.983 62.7975 195.257 68.9882 194.32C72.0031 193.867 75.11 193.874 78.0864 194.542C81.0629 195.21 83.7018 196.37 86.4328 197.484C89.5244 198.743 92.7233 199.841 96.045 200.279C97.0116 200.41 97.2494 198.705 96.2751 198.567V198.574Z" fill="#E4DABB"/>
<path d="M115.446 184.198C107.882 187.838 98.9831 188.506 90.9205 186.218C88.926 185.649 87.0005 184.904 85.144 183.983C83.2876 183.061 81.4158 181.971 79.4673 181.134C75.6393 179.498 71.5735 179.26 67.6304 180.657C65.4671 181.425 63.4342 182.516 61.5317 183.798C59.6292 185.081 57.581 186.571 55.947 188.253C54.7349 189.504 56.507 191.117 57.8035 190.111C59.4298 188.852 60.9103 187.439 62.5904 186.248C64.2704 185.058 65.9888 184.013 67.8682 183.253C69.7477 182.493 71.5965 182.055 73.5527 182.071C75.6546 182.086 77.6722 182.716 79.5747 183.568C81.4772 184.421 83.3566 185.465 85.3051 186.302C87.2537 187.139 89.0794 187.746 91.0433 188.214C94.9787 189.151 99.0905 189.443 103.118 189.028C107.629 188.568 112.017 187.285 116.059 185.235C116.758 184.881 116.144 183.86 115.453 184.19L115.446 184.198Z" fill="#E4DABB"/>
<path d="M40.2515 145.047C42.5989 147.635 44.8619 150.3 47.0329 153.041C48.1146 154.401 49.1732 155.783 50.2088 157.181C51.1064 158.394 52.0116 160.145 53.5689 160.606C53.799 160.675 54.0138 160.483 54.0215 160.26C54.0905 158.617 52.633 157.173 51.7048 155.967C50.6384 154.577 49.5491 153.202 48.4291 151.851C46.1814 149.117 43.8417 146.46 41.4252 143.879C40.6964 143.096 39.5457 144.263 40.2591 145.047H40.2515Z" fill="#E4DABB"/>
<path d="M161.297 273.198C170.787 287.928 183.498 300.108 196.47 311.727C198.112 313.202 199.761 314.668 201.411 316.135C202.868 317.425 204.395 318.785 206.389 319.061C210.585 319.653 213.623 315.605 216.14 312.894C222.768 305.729 229.419 298.579 236.085 291.453L238.555 288.811C239.238 288.074 240.105 287.336 240.458 286.361C241.148 284.479 239.798 282.368 238.946 280.747C237.044 277.138 234.535 273.851 231.766 270.856C228.997 267.861 225.989 265.203 222.867 262.638C219.991 260.281 216.278 257.785 215.012 254.099C213.585 249.936 217.697 246.826 220.305 244.222C223.489 241.043 226.795 237.994 230.232 235.091C233.668 232.188 237.059 229.554 240.642 226.997C243.887 224.678 247.661 222.681 250.338 219.678C253.016 216.675 253.859 212.72 252.64 208.819C251.343 204.695 248.52 201.285 245.858 197.975C239.959 190.641 233.83 183.491 227.493 176.533C225.928 174.821 224.332 173.131 222.729 171.449C221.632 170.298 219.914 172.033 220.988 173.193C227.225 179.913 233.339 186.74 239.223 193.774C242.038 197.138 244.991 200.479 247.477 204.096C249.633 207.237 251.719 211.2 250.377 215.086C249.172 218.595 245.59 220.684 242.69 222.658C239.13 225.085 235.663 227.65 232.303 230.353C228.981 233.025 225.759 235.828 222.66 238.762C221.065 240.267 219.507 241.803 217.973 243.37C216.546 244.829 215.02 246.273 213.861 247.955C208.79 255.289 218.257 261.571 223.051 265.61C229.05 270.664 234.75 276.423 237.987 283.688C238.448 284.725 238.693 285.447 237.88 286.338C237.067 287.229 236.254 288.074 235.441 288.941L230.5 294.21C227.294 297.627 224.079 301.052 220.857 304.454C217.635 307.856 214.72 311.22 211.437 314.346C210.217 315.513 208.568 316.888 206.757 316.657C204.947 316.427 203.336 314.576 202.009 313.394C189.436 302.227 176.747 290.877 166.721 277.276C165.478 275.594 164.289 273.881 163.138 272.138C162.387 271.002 160.561 272.054 161.305 273.213L161.297 273.198Z" fill="#E4DABB"/>
<path d="M220.113 259.95C225.452 254.429 230.845 248.953 236.123 243.362C237.389 242.026 238.67 240.697 239.905 239.338C240.979 238.155 241.961 236.904 242.483 235.375C243.004 233.847 242.958 232.05 242.636 230.414C242.467 229.539 242.207 228.694 241.923 227.849C241.654 227.066 241.47 226.229 240.711 225.806C240.258 225.561 239.767 225.791 239.598 226.26C239.33 227.02 239.698 227.68 239.944 228.395C240.212 229.178 240.45 229.977 240.619 230.791C240.956 232.419 240.933 234.131 240.135 235.621C239.391 237.019 238.202 238.109 237.105 239.215C235.855 240.475 234.589 241.734 233.354 243.001C228.391 248.093 223.45 253.215 218.502 258.322C217.467 259.39 219.101 261.018 220.129 259.95H220.113Z" fill="#E4DABB"/>
<path d="M281.484 327.762C280.333 324.191 278.576 320.82 276.267 317.855C274.173 315.175 271.319 311.842 267.56 313.378C265.804 314.092 264.315 315.421 262.858 316.596C261.301 317.84 259.789 319.13 258.316 320.474C255.332 323.193 252.509 326.088 249.87 329.152C247.531 331.856 245.521 335.104 242.69 337.331C241.37 338.368 239.844 339.036 238.141 338.998C236.169 338.952 234.236 338.26 232.257 338.698C230.485 339.09 229.119 340.365 227.923 341.663C226.58 343.114 225.253 344.581 223.888 346.017C221.08 348.958 218.172 351.807 215.181 354.564C211.813 357.667 208.33 360.654 204.748 363.511C202.976 364.924 201.173 366.307 199.347 367.651C197.521 368.995 195.35 370.154 193.931 371.928C193.578 372.366 193.885 373.149 194.529 372.95C196.348 372.381 197.813 371.122 199.339 370.008C200.866 368.895 202.416 367.727 203.934 366.56C207.057 364.141 210.11 361.63 213.086 359.019C216.063 356.408 218.863 353.789 221.632 351.047C224.402 348.305 226.941 345.479 229.587 342.684C230.984 341.209 232.372 340.334 234.466 340.495C236.3 340.633 238.033 341.117 239.875 340.772C243.02 340.18 245.39 337.646 247.323 335.273C249.702 332.355 252.057 329.452 254.657 326.725C257.258 323.999 260.173 321.296 263.134 318.808C264.707 317.487 266.394 315.79 268.328 315.037C270.506 314.192 272.248 315.836 273.674 317.295C276.674 320.359 278.937 324.038 280.333 328.092C280.579 328.807 281.714 328.507 281.476 327.778L281.484 327.762Z" fill="#E4DABB"/>
<path d="M509.468 419.074C523.775 412.692 538.128 406.441 552.297 399.737C566.435 393.048 580.55 386.297 594.627 379.477C608.704 372.658 622.719 365.715 636.712 358.735C643.516 355.34 650.305 351.9 657.018 348.321C663.73 344.742 669.998 341.002 675.905 336.433C681.812 331.863 687.089 326.795 692.337 321.595C697.883 316.097 703.475 310.637 709.098 305.222L713.325 301.144C715.581 298.971 712.113 295.5 709.896 297.712C704.296 303.279 698.704 308.847 693.042 314.354C687.788 319.468 682.494 324.575 676.841 329.244C665.334 338.752 651.732 344.811 638.53 351.531C624.66 358.596 610.76 365.593 596.821 372.527C582.89 379.462 568.959 386.397 554.982 393.232C541.02 400.067 527.043 406.894 513.219 414.005C511.501 414.889 509.759 415.733 508.025 416.586C506.292 417.438 507.818 419.811 509.475 419.074H509.468Z" fill="#F4F6F9"/>
<path d="M711.354 395.797C709.252 391.112 707.25 386.405 705.017 381.774C702.785 377.143 700.576 372.604 698.175 368.111C693.74 359.84 688.885 351.631 682.433 344.758C675.981 337.884 667.934 332.347 660.585 326.326C653.236 320.305 646.293 313.9 640.409 306.482C634.51 299.04 629.869 290.677 625.128 282.475C620.387 274.273 615.002 265.802 609.21 257.915C597.143 241.473 583.772 225.983 570.823 210.24C564.187 202.176 557.536 194.128 550.985 186.003C547.801 182.055 544.587 178.131 541.518 174.091C539.002 170.781 536.455 166.995 536.517 162.672C536.54 160.913 537.015 159.108 538.166 157.749C538.918 156.858 539.041 155.568 538.166 154.692C537.384 153.909 535.88 153.809 535.113 154.692C532.136 158.11 531.492 162.764 532.589 167.08C533.755 171.649 536.77 175.412 539.624 179.045C546.213 187.431 552.964 195.694 559.738 203.935C572.948 220.008 586.457 235.867 599.245 252.278C605.421 260.196 611.297 268.36 616.536 276.938C621.592 285.209 626.102 293.818 631.48 301.889C636.842 309.938 643.202 317.126 650.375 323.592C657.547 330.066 665.456 335.55 672.898 341.686C676.672 344.796 680.185 348.167 683.285 351.961C686.215 355.54 688.769 359.418 691.171 363.373C696.441 372.074 701.373 381.013 706.099 390.022C707.288 392.28 708.592 394.468 709.743 396.749C710.295 397.84 711.837 396.88 711.354 395.805V395.797Z" fill="#F4F6F9"/>
<path d="M710.855 328.523C709.566 324.69 707.94 320.996 705.854 317.525C703.767 314.054 701.343 310.752 698.788 307.58C693.648 301.198 687.895 295.362 682.441 289.264C670.113 275.487 659.787 260.073 648.748 245.275C637.709 230.476 626.409 216.076 614.603 201.984C602.797 187.892 590.661 174.26 577.973 161.059C571.605 154.439 565.115 147.934 558.487 141.575C555.289 138.504 552.136 135.286 548.599 132.598C545.339 130.125 541.357 128.282 537.176 128.535C535.136 128.658 533.149 129.226 531.438 130.371C529.444 131.699 531.323 134.948 533.325 133.604C536.44 131.507 540.429 132.068 543.59 133.773C547.31 135.785 550.294 138.972 553.325 141.867C559.83 148.095 566.205 154.454 572.457 160.928C584.923 173.846 596.905 187.231 608.458 200.963C619.988 214.663 631.104 228.717 641.898 243.009C647.413 250.312 652.814 257.7 658.207 265.088C663.6 272.476 669.139 280.025 675.176 287.029C680.507 293.219 686.33 298.948 691.861 304.961C697.254 310.829 702.141 317.018 705.938 324.053C706.843 325.727 707.641 327.432 708.316 329.214C708.907 330.765 711.392 330.143 710.848 328.515L710.855 328.523Z" fill="#F4F6F9"/>
<path d="M301.629 7.78722C313.719 16.2503 325.954 24.4906 338.136 32.8231C350.265 41.1248 362.347 49.4957 374.567 57.6746C386.834 65.8842 399.131 74.0324 411.474 82.1268C423.817 90.2212 436.084 98.1928 448.442 106.141C454.257 109.881 459.972 113.99 466.194 117.031C471.755 119.742 478.245 121.862 484.467 120.418C485.986 120.065 487.451 119.466 488.824 118.728C491.049 117.538 489.07 114.128 486.845 115.342C481.49 118.26 475.346 117.131 469.945 114.95C463.77 112.446 458.185 108.56 452.608 104.966C440.41 97.1099 428.251 89.1998 416.123 81.236C403.995 73.2721 391.905 65.2545 379.853 57.1754C367.801 49.0964 355.596 41.0404 343.552 32.8384C331.508 24.6365 319.71 16.2963 307.781 8.03297C306.285 6.99621 304.789 5.95945 303.293 4.92269C301.537 3.70161 299.895 6.56615 301.621 7.77954L301.629 7.78722Z" fill="#F4F6F9"/>
<path d="M364.932 5.58315C367.525 7.02694 369.949 8.66271 372.466 10.2294C374.982 11.796 377.529 13.2705 380.068 14.7604C385.047 17.694 390.064 20.5586 395.073 23.4385C405.199 29.2674 415.333 35.0732 425.367 41.0404C435.401 47.0075 445.374 53.0975 455.27 59.3104C460.164 62.3823 465.043 65.4849 469.899 68.6182C474.494 71.5826 479.128 74.5009 483.508 77.7801C488.126 81.2436 492.499 85.2524 495.69 90.106C497.24 92.4637 498.544 94.9903 499.426 97.6705C500.308 100.351 500.615 103.1 500.945 105.896C501.037 106.671 501.467 107.332 502.303 107.431C503.001 107.516 503.898 107.086 504.021 106.31C504.804 101.096 502.901 95.5893 500.439 91.0353C497.976 86.4812 494.378 82.3265 490.427 78.8399C486.3 75.1997 481.736 72.1048 477.141 69.102C472.239 65.8996 467.306 62.7432 462.358 59.6099C452.278 53.2281 442.129 46.9691 431.895 40.8407C421.777 34.7737 411.62 28.7375 401.294 23.0238C395.48 19.806 389.657 16.6266 383.75 13.5854C380.735 12.0341 377.697 10.5442 374.652 9.06206C371.606 7.57987 368.446 6.32808 365.408 4.79214C364.894 4.53103 364.441 5.28364 364.955 5.56779L364.932 5.58315Z" fill="#F4F6F9"/>
<path d="M321.751 3.5634C325.019 6.51241 328.087 9.69181 331.416 12.564C334.746 15.4362 338.114 18.3161 341.558 21.0808C348.485 26.664 355.481 32.1626 362.6 37.4924C376.854 48.1518 391.644 57.9588 406.971 67.0132C422.299 76.0675 438.132 84.6151 453.107 94.4451C467.744 104.052 481.652 114.704 495.222 125.748C522.755 148.165 549.451 171.595 572.764 198.459C584.455 211.929 595.486 225.952 606.541 239.953C617.595 253.953 628.956 268.367 640.087 282.644C662.296 311.143 683.99 340.058 704.45 369.847C705.731 371.706 706.951 373.626 708.278 375.453C709.605 377.281 711.546 378.663 713.272 380.138C714.791 381.428 717.606 380.245 716.877 378.034C716.195 375.96 715.673 373.664 714.561 371.767C713.448 369.87 712.006 368.012 710.733 366.161C708.101 362.329 705.447 358.512 702.77 354.703C697.569 347.299 692.298 339.942 686.967 332.631C676.235 317.909 665.272 303.341 654.233 288.849C643.217 274.388 632.063 260.035 620.886 245.705C609.793 231.482 598.77 217.198 587.301 203.267C575.901 189.42 563.957 176.042 551.085 163.547C538.35 151.19 524.872 139.64 511.24 128.305C497.608 116.97 483.784 105.896 469.308 95.6892C454.626 85.3369 439.168 76.3133 423.564 67.4509C407.938 58.5808 392.388 49.6724 377.59 39.4507C363.045 29.4056 349.183 18.439 335.037 7.84868C331.524 5.22222 327.788 2.90295 324.228 0.330244C322.341 -1.02906 320.025 2.00442 321.743 3.55572L321.751 3.5634Z" fill="#FFA900"/>
<path d="M346.537 8.0791C353.234 14.0002 360.015 19.8444 367.364 24.9437C374.729 30.0507 382.254 34.889 389.857 39.635C404.877 49.0043 420.197 57.8743 435.34 67.0285C450.299 76.0752 465.128 85.3677 479.373 95.5203C492.284 104.721 504.719 114.574 516.702 124.949C541.135 146.099 563.673 169.361 584.908 193.713C606.334 218.28 626.578 243.862 646.063 269.988C665.403 295.922 684.151 322.294 703.023 348.574C704.135 350.126 705.225 351.7 706.368 353.236C707.618 354.902 709.252 356.277 710.748 357.713C713.019 359.894 716.218 357.16 714.944 354.472C714.085 352.675 713.348 350.755 712.213 349.12C711.078 347.484 709.858 345.848 708.684 344.212C706.329 340.933 703.974 337.646 701.619 334.367C696.878 327.762 692.145 321.158 687.404 314.561C677.892 301.344 668.349 288.15 658.667 275.049C639.105 248.585 619.129 222.358 597.803 197.292C576.83 172.64 554.621 148.986 530.641 127.237C518.704 116.409 506.315 106.065 493.442 96.365C479.864 86.128 465.695 76.728 451.258 67.7504C436.038 58.289 420.58 49.2039 405.192 40.019C397.597 35.488 390.002 30.9646 382.5 26.28C378.71 23.9147 374.897 21.5723 371.116 19.1763C367.334 16.7802 363.682 14.676 359.923 12.4489C356.164 10.2217 352.252 7.91782 348.462 5.57551C346.951 4.63859 345.163 6.86571 346.537 8.0791Z" fill="#FFA900"/>
</g>
<defs>
<clipPath id="clip0_1915_98413">
<rect width="717" height="422" fill="white"/>
</clipPath>
</defs>
</svg>
