<svg width="641" height="422" viewBox="0 0 641 422" fill="none" xmlns="http://www.w3.org/2000/svg">
<path d="M352.015 406.057C351.734 403.261 351.428 400.283 351.099 397.154M255.507 188.044C275.662 203.16 318.179 236.763 327.016 250.251C335.319 262.924 345.983 348.449 351.099 397.154M255.507 188.044C221.106 218.978 158.029 273.126 113.356 304.475M255.507 188.044C266.53 179.846 289.049 159.613 290.938 144.263M71.7953 328.154C60.1678 330.945 52.61 305.287 50.2845 292.109M71.7953 328.154C80.7835 325.775 95.6192 316.922 113.356 304.475M71.7953 328.154C69.8574 327.185 63.8885 341.409 55.5168 406.057M113.356 304.475L99.1194 277.575M351.099 397.154C362.263 394.791 386.271 389.039 392.992 384.932C396.788 382.612 414.494 365.81 433.843 346.235M638.516 164.147C608.966 185.556 559.353 222.469 525.412 250.251M510.629 262.647C499.677 272.112 491.966 279.597 489.615 283.641C485.09 291.424 470.812 307.626 454.534 324.849M510.629 262.647C526.563 275.104 556.31 297.524 586.317 318.276M510.629 262.647C515.071 258.808 520.046 254.644 525.412 250.251M638.516 351.791C623.08 343.01 604.65 330.955 586.317 318.276M633.848 212.691C626.307 218.789 619.244 224.759 612.618 230.574M498.483 328.452C504.329 330.578 510.08 329.174 516.624 324.849M516.624 324.849C520.224 330.095 529.477 341.055 537.693 342.922M516.624 324.849C527.649 317.561 540.924 301.98 560.691 281.013M586.317 318.276C580.533 329.448 568.313 351.791 565.699 351.791C562.432 351.791 563.057 358.326 586.317 367.194M560.691 281.013L525.412 250.251M560.691 281.013C574.404 266.468 591.241 249.332 612.618 230.574M525.412 250.251C503.527 227.289 488.2 204.172 468.026 180.039M612.618 230.574C591.777 213.427 551.753 169.185 520.003 132.557M382.723 183.285C398.187 163.422 410.623 146.6 420.742 132.557M420.742 132.557C460.409 77.5071 464.454 65.1561 475.611 79.6604C481.224 86.9573 498.762 108.054 520.003 132.557M420.742 132.557C429.644 139.972 437.545 147.256 444.716 154.432M633.848 64.2568C631.987 59.1223 625.134 51.9339 612.618 64.2568C605.098 71.6611 586.762 85.6066 568.134 99.1139M520.003 132.557C508.473 145.266 481.936 172.553 468.026 180.039M520.003 132.557C527.542 127.788 548.008 113.707 568.134 99.1139M468.026 180.039C454.202 191.39 425.391 215.119 420.742 219.226C416.093 223.334 414.308 220.938 413.997 219.226M468.026 180.039C461.004 171.638 453.394 163.115 444.716 154.432M444.716 154.432C470.944 132.557 530.691 53.9877 537.226 59.1223C542.454 63.2299 560.009 87.4949 568.134 99.1139M2.30078 44.1854C8.3418 36.1308 22.8025 24.2209 32.511 40.6948M12.1032 53.9877L32.6412 40.918C32.5979 40.843 32.5545 40.7687 32.511 40.6948M32.511 40.6948C44.8462 32.0561 74.8379 12.9115 96.1228 5.44307M40.1098 59.5891L62.9818 48.8532M84.9202 86.1953L140 38.1174M275.048 327.292C254.78 348.7 215.46 391.744 220.324 392.656M264.787 370.615C267.447 372.515 295.949 409.758 295.949 417.358M433.843 346.235L446.819 384.932M433.843 346.235C440.716 339.281 447.796 331.978 454.534 324.849M446.819 384.932H439.979M446.819 384.932H457.84M454.534 324.849C456.016 326.93 458.752 332.916 457.84 340.213C456.7 349.333 454.04 379.487 457.84 384.932M457.84 384.932H489.615M489.615 384.932L498.483 361.494M489.615 384.932C490.536 386.945 491.285 394.937 488.095 411.702M486.342 420.018C487.027 417.034 487.607 414.266 488.095 411.702M488.095 411.702C507.308 415.107 548.726 420.55 560.691 415.078M140 149.741C160.195 134.821 199.532 102.035 200.986 97.3888M200.986 97.3888C206.296 100.556 212.176 108.978 224.964 110.977M200.986 97.3888L192.133 85.3359M152.816 85.3359L189.174 125.076M226.8 81.9538C231.557 75.0995 237.764 66.2922 244.411 57.0581M287.679 3.10772C282.411 5.55783 261.886 32.783 244.411 57.0581M240.329 2.05078C263.158 18.6796 311.015 53.3747 319.809 59.1243M281.549 85.3359L244.411 57.0581" stroke="#E4DABB" stroke-width="3" stroke-linecap="round" stroke-linejoin="round"/>
</svg>
