<svg width="714" height="419" viewBox="0 0 714 419" fill="none" xmlns="http://www.w3.org/2000/svg">
<path d="M200.871 2.81909C225.886 29.0645 285.143 87.0915 322.051 109.236C368.186 136.917 473.987 192.893 509.665 261.172C511.75 265.162 514.062 269.238 516.569 273.376M641.302 414.954C611.652 388.535 548.386 325.893 516.569 273.376M195.302 9.39928C206.885 24.0111 241.49 61.8948 287.25 96.5355C344.449 139.836 435.863 172.459 467.403 216.815C492.635 252.301 510.693 269.308 516.569 273.376M8.55713 248.469C29.0493 234.748 66.5761 209.759 90.5252 187.948C120.462 160.685 188.353 113.107 208.132 96.5355C223.955 83.2779 276.736 28.5339 301.148 2.81909M13.9712 231.626C27.6921 224.142 66.5757 202.703 75.5566 193.294C86.7828 181.533 226.842 77.8252 234.326 63.9262C240.314 52.807 269.965 22.9419 284.042 9.39928" stroke="#FFA900" stroke-width="7" stroke-linecap="round" stroke-linejoin="round"/>
<path d="M121.209 8.61694C129.788 32.6438 149.637 82.6281 160.393 90.3503C173.838 100.003 226.685 172.441 272.09 237.973C308.413 290.399 351.821 334.711 368.984 350.314M368.984 350.314C354.236 357.32 320.317 377.24 291.759 405.209M368.984 350.314C404.768 335.502 480.64 302.134 513.88 280.766M718.645 82.5683C693.368 93.3343 641.878 164.015 621.751 183.207C602.664 201.406 560.847 245.703 525.438 272.589M281.733 415.638C284.969 412.051 288.325 408.572 291.759 405.209M291.759 405.209C273.845 384.378 103.441 351.879 65.3291 356.85C34.8399 360.827 10.2792 364.03 1.80994 365.135M541.483 307.465C545.586 298.121 532.496 280.321 525.438 272.589M525.438 272.589C523.508 274.055 521.596 275.469 519.708 276.824C517.954 278.084 516.004 279.4 513.88 280.766M525.438 272.589L493.906 235.957M481.37 237.381C487.752 254.019 505.702 273.237 513.88 280.766M513.88 280.766C516.718 289.096 525.13 307.351 536.07 313.733C547.01 320.115 566.269 327.028 574.531 329.687C576.81 330.447 580.685 333.79 577.95 341.083C575.215 348.376 576.81 351.149 577.95 351.624" stroke="#FFA900" stroke-width="3" stroke-linecap="round" stroke-linejoin="round"/>
</svg>
