<svg width="717" height="422" viewBox="0 0 717 422" fill="none" xmlns="http://www.w3.org/2000/svg">
<g clip-path="url(#clip0_1920_309704)">
<path d="M428.019 36.8431C428.412 37.4276 428.629 38.0687 428.67 38.7666C428.719 39.453 428.52 40.1601 428.074 40.8877C427.691 41.513 427.156 41.9905 426.469 42.3203C425.782 42.65 425.014 42.7812 424.164 42.7138C423.332 42.6421 422.496 42.3484 421.654 41.8329C420.79 41.3035 420.141 40.6789 419.706 39.9591C419.272 39.2393 419.043 38.4894 419.021 37.7094C419.01 36.9364 419.178 36.2028 419.525 35.5085L421.964 37.0028C421.782 37.3761 421.771 37.8151 421.931 38.3196C422.098 38.8128 422.46 39.2301 423.017 39.5714C423.585 39.9198 424.116 40.0493 424.608 39.9602C425.112 39.8779 425.503 39.6095 425.782 39.1547C426.067 38.6886 426.129 38.2181 425.967 37.7432C425.804 37.2684 425.416 36.8428 424.802 36.4667L423.847 35.8815L425.08 33.8692L425.95 34.4021C426.495 34.7365 426.996 34.8635 427.452 34.7831C427.919 34.7097 428.278 34.4684 428.529 34.0591C428.78 33.6499 428.837 33.2239 428.702 32.7813C428.585 32.3343 428.288 31.9645 427.81 31.6719C427.31 31.3654 426.821 31.2454 426.342 31.3118C425.882 31.3738 425.515 31.5637 425.242 31.8813L422.804 30.387C423.232 29.7896 423.792 29.3352 424.484 29.0238C425.182 28.701 425.939 28.5628 426.755 28.6093C427.582 28.6627 428.382 28.9263 429.155 29.4C429.951 29.8876 430.559 30.4787 430.977 31.1732C431.396 31.8677 431.616 32.5809 431.637 33.3129C431.657 34.0448 431.483 34.7121 431.114 35.3146C430.786 35.849 430.348 36.2451 429.799 36.5029C429.269 36.7564 428.675 36.8698 428.019 36.8431ZM439.186 45.9374L439.827 52.663L436.979 50.918L436.582 45.3266L434.199 49.2147L431.88 47.7937L437.209 39.0965L439.528 40.5176L437.334 44.0988L442.138 42.1163L444.781 43.7359L439.186 45.9374ZM444.145 55.6136C443.36 55.133 442.752 54.479 442.321 53.6518C441.897 52.8131 441.696 51.916 441.718 50.9604C441.741 50.0047 442 49.1233 442.494 48.3161C442.989 47.5089 443.657 46.8783 444.498 46.4242C445.339 45.9701 446.226 45.7474 447.159 45.7561C448.099 45.7534 448.961 45.9924 449.746 46.4731C450.53 46.9537 451.134 47.6134 451.559 48.452C451.99 49.2792 452.195 50.1707 452.172 51.1263C452.149 52.082 451.891 52.9634 451.396 53.7706C450.902 54.5778 450.234 55.2084 449.392 55.6625C448.551 56.1166 447.661 56.345 446.721 56.3477C445.788 56.339 444.929 56.0943 444.145 55.6136ZM445.461 53.4649C446.075 53.8411 446.721 53.9237 447.397 53.7128C448.085 53.5088 448.645 53.0544 449.077 52.3495C449.509 51.6446 449.659 50.9394 449.529 50.2339C449.41 49.5353 449.043 48.998 448.429 48.6218C447.815 48.2456 447.164 48.1595 446.476 48.3635C445.8 48.5744 445.245 49.0323 444.814 49.7372C444.382 50.4421 444.225 51.1438 444.345 51.8424C444.475 52.5479 444.848 53.0887 445.461 53.4649ZM449.541 58.9198C449.256 58.7457 449.021 58.5548 448.836 58.3473L450.111 56.2668L450.435 56.4653C450.799 56.6882 451.143 56.7509 451.469 56.6533C451.801 56.5444 452.147 56.248 452.506 55.7643L456.199 50.7324L462.765 54.7553L457.436 63.4525L455.116 62.0314L459.129 55.483L456.929 54.135L454.376 57.6134C453.676 58.5765 452.912 59.1719 452.085 59.3997C451.264 59.6162 450.416 59.4562 449.541 58.9198ZM467.278 61.1566C467.858 61.5118 468.301 61.963 468.607 62.5101C468.924 63.0642 469.071 63.6544 469.046 64.2807C469.041 64.9027 468.864 65.4979 468.515 66.0663C468.16 66.6461 467.703 67.0855 467.145 67.3844C466.605 67.679 466.016 67.8107 465.378 67.7796C464.752 67.7554 464.149 67.5657 463.569 67.2105L459.442 64.6818L464.771 55.9846L467.09 57.4057L465.471 60.0489L467.278 61.1566ZM464.323 65.0222C464.698 65.2521 465.047 65.3331 465.37 65.2652C465.712 65.1929 465.987 64.9863 466.196 64.6452C466.398 64.3155 466.45 63.9878 466.353 63.6622C466.273 63.3322 466.046 63.0522 465.671 62.8224L464.29 61.976L462.942 64.1758L464.323 65.0222ZM475.737 77.6686L473.503 76.2997L474.84 74.1169L468.002 69.9268L473.331 61.2296L475.65 62.6507L471.638 69.1992L474.707 71.08L478.72 64.5316L481.039 65.9526L477.026 72.5011L478.391 73.337L475.737 77.6686ZM482.148 78.8998C481.364 78.4192 480.756 77.7652 480.325 76.938C479.9 76.0994 479.699 75.2022 479.722 74.2466C479.745 73.2909 480.003 72.4095 480.498 71.6023C480.992 70.7951 481.66 70.1645 482.501 69.7104C483.343 69.2563 484.23 69.0336 485.163 69.0423C486.102 69.0396 486.965 69.2786 487.749 69.7593C488.534 70.24 489.138 70.8996 489.562 71.7382C489.994 72.5655 490.198 73.4569 490.175 74.4125C490.153 75.3682 489.894 76.2496 489.4 77.0568C488.905 77.864 488.237 78.4946 487.396 78.9487C486.555 79.4028 485.664 79.6312 484.724 79.6339C483.791 79.6252 482.933 79.3805 482.148 78.8998ZM483.465 76.7511C484.079 77.1273 484.724 77.2099 485.401 76.999C486.089 76.795 486.648 76.3406 487.08 75.6357C487.512 74.9308 487.663 74.2256 487.532 73.5201C487.413 72.8215 487.046 72.2842 486.432 71.908C485.819 71.5318 485.168 71.4457 484.48 71.6497C483.803 71.8606 483.249 72.3185 482.817 73.0234C482.385 73.7283 482.229 74.43 482.348 75.1286C482.479 75.8341 482.851 76.375 483.465 76.7511Z" fill="#11244D"/>
<path d="M415.974 262.156C415.238 262.156 414.554 261.964 413.922 261.58C413.29 261.188 412.786 260.66 412.41 259.996C412.034 259.324 411.846 258.592 411.846 257.8C411.846 257.008 412.034 256.28 412.41 255.616C412.786 254.944 413.29 254.416 413.922 254.032C414.554 253.64 415.238 253.444 415.974 253.444C416.646 253.444 417.246 253.596 417.774 253.9C418.302 254.196 418.734 254.584 419.07 255.064C419.414 255.536 419.65 256.044 419.778 256.588H417.99C417.878 256.188 417.646 255.84 417.294 255.544C416.942 255.248 416.502 255.1 415.974 255.1C415.542 255.1 415.142 255.22 414.774 255.46C414.406 255.692 414.11 256.016 413.886 256.432C413.67 256.84 413.562 257.296 413.562 257.8C413.562 258.304 413.67 258.764 413.886 259.18C414.11 259.588 414.406 259.912 414.774 260.152C415.142 260.384 415.542 260.5 415.974 260.5C416.502 260.5 416.942 260.356 417.294 260.068C417.654 259.772 417.906 259.424 418.05 259.024H419.838C419.71 259.56 419.474 260.068 419.13 260.548C418.794 261.02 418.354 261.408 417.81 261.712C417.274 262.008 416.662 262.156 415.974 262.156ZM420.582 262.156C420.254 262.156 420.014 262.128 419.862 262.072V260.476H420.09C420.45 260.476 420.742 260.364 420.966 260.14C421.19 259.908 421.318 259.572 421.35 259.132L421.782 253.6H427.53V262H425.814V255.256H423.342L423.006 259.468C422.934 260.332 422.682 260.996 422.25 261.46C421.826 261.924 421.27 262.156 420.582 262.156ZM430.928 258.508V260.368H435.08V262H429.212V253.6H434.96V255.232H430.928V256.924H434.504V258.508H430.928ZM440.548 257.608C440.916 257.744 441.244 257.984 441.532 258.328C441.828 258.664 441.976 259.108 441.976 259.66C441.976 260.108 441.852 260.524 441.604 260.908C441.364 261.284 441.012 261.588 440.548 261.82C440.092 262.044 439.552 262.156 438.928 262.156C438.304 262.156 437.76 262.036 437.296 261.796C436.832 261.556 436.468 261.232 436.204 260.824C435.94 260.408 435.78 259.944 435.724 259.432H437.428C437.484 259.752 437.636 260.024 437.884 260.248C438.14 260.464 438.46 260.572 438.844 260.572C439.308 260.572 439.66 260.476 439.9 260.284C440.14 260.084 440.26 259.82 440.26 259.492C440.26 259.18 440.144 258.928 439.912 258.736C439.68 258.536 439.344 258.436 438.904 258.436H438.04V257.02H438.904C439.264 257.02 439.544 256.928 439.744 256.744C439.952 256.56 440.056 256.32 440.056 256.024C440.056 255.728 439.948 255.488 439.732 255.304C439.524 255.12 439.236 255.028 438.868 255.028C438.492 255.028 438.196 255.124 437.98 255.316C437.764 255.5 437.632 255.752 437.584 256.072H435.88C435.928 255.592 436.08 255.152 436.336 254.752C436.592 254.352 436.936 254.036 437.368 253.804C437.808 253.564 438.312 253.444 438.88 253.444C439.448 253.444 439.952 253.556 440.392 253.78C440.832 254.004 441.172 254.3 441.412 254.668C441.652 255.036 441.772 255.432 441.772 255.856C441.772 256.288 441.648 256.652 441.4 256.948C441.152 257.244 440.868 257.464 440.548 257.608ZM446.228 256.36C446.772 256.36 447.268 256.484 447.716 256.732C448.164 256.98 448.516 257.32 448.772 257.752C449.028 258.176 449.156 258.652 449.156 259.18C449.156 259.708 449.028 260.188 448.772 260.62C448.516 261.044 448.164 261.38 447.716 261.628C447.268 261.876 446.772 262 446.228 262H443.192V253.6H444.908V256.36H446.228ZM449.972 262V253.6H451.688V262H449.972ZM446.192 260.344C446.552 260.344 446.848 260.232 447.08 260.008C447.32 259.784 447.44 259.508 447.44 259.18C447.44 258.852 447.32 258.576 447.08 258.352C446.848 258.128 446.552 258.016 446.192 258.016H444.908V260.344H446.192ZM459.987 256.84C460.515 256.84 460.987 256.956 461.403 257.188C461.827 257.412 462.155 257.72 462.387 258.112C462.627 258.504 462.747 258.94 462.747 259.42C462.747 259.9 462.627 260.336 462.387 260.728C462.155 261.12 461.827 261.432 461.403 261.664C460.987 261.888 460.515 262 459.987 262H456.387V253.6H462.159V255.136H458.103V256.84H459.987ZM459.927 260.464C460.247 260.464 460.511 260.368 460.719 260.176C460.927 259.976 461.031 259.724 461.031 259.42C461.031 259.116 460.927 258.868 460.719 258.676C460.511 258.476 460.247 258.376 459.927 258.376H458.103V260.464H459.927ZM465.674 258.508V260.368H469.826V262H463.958V253.6H469.706V255.232H465.674V256.924H469.25V258.508H465.674ZM474.31 253.6C474.854 253.6 475.346 253.724 475.786 253.972C476.234 254.22 476.586 254.56 476.842 254.992C477.098 255.424 477.226 255.908 477.226 256.444C477.226 256.98 477.098 257.464 476.842 257.896C476.586 258.328 476.234 258.668 475.786 258.916C475.346 259.164 474.854 259.288 474.31 259.288H472.822V262H471.106V253.6H474.31ZM474.274 257.632C474.618 257.632 474.91 257.52 475.15 257.296C475.39 257.064 475.51 256.78 475.51 256.444C475.51 256.108 475.39 255.828 475.15 255.604C474.91 255.372 474.618 255.256 474.274 255.256H472.822V257.632H474.274ZM480.205 258.508V260.368H484.357V262H478.489V253.6H484.237V255.232H480.205V256.924H483.781V258.508H480.205ZM489.825 257.608C490.193 257.744 490.521 257.984 490.809 258.328C491.105 258.664 491.253 259.108 491.253 259.66C491.253 260.108 491.129 260.524 490.881 260.908C490.641 261.284 490.289 261.588 489.825 261.82C489.369 262.044 488.829 262.156 488.205 262.156C487.581 262.156 487.037 262.036 486.573 261.796C486.109 261.556 485.745 261.232 485.481 260.824C485.217 260.408 485.057 259.944 485.001 259.432H486.705C486.761 259.752 486.913 260.024 487.161 260.248C487.417 260.464 487.737 260.572 488.121 260.572C488.585 260.572 488.937 260.476 489.177 260.284C489.417 260.084 489.537 259.82 489.537 259.492C489.537 259.18 489.421 258.928 489.189 258.736C488.957 258.536 488.621 258.436 488.181 258.436H487.317V257.02H488.181C488.541 257.02 488.821 256.928 489.021 256.744C489.229 256.56 489.333 256.32 489.333 256.024C489.333 255.728 489.225 255.488 489.009 255.304C488.801 255.12 488.513 255.028 488.145 255.028C487.769 255.028 487.473 255.124 487.257 255.316C487.041 255.5 486.909 255.752 486.861 256.072H485.157C485.205 255.592 485.357 255.152 485.613 254.752C485.869 254.352 486.213 254.036 486.645 253.804C487.085 253.564 487.589 253.444 488.157 253.444C488.725 253.444 489.229 253.556 489.669 253.78C490.109 254.004 490.449 254.3 490.689 254.668C490.929 255.036 491.049 255.432 491.049 255.856C491.049 256.288 490.925 256.652 490.677 256.948C490.429 257.244 490.145 257.464 489.825 257.608ZM495.505 256.36C496.049 256.36 496.545 256.484 496.993 256.732C497.441 256.98 497.793 257.32 498.049 257.752C498.305 258.176 498.433 258.652 498.433 259.18C498.433 259.708 498.305 260.188 498.049 260.62C497.793 261.044 497.441 261.38 496.993 261.628C496.545 261.876 496.049 262 495.505 262H492.469V253.6H494.185V256.36H495.505ZM499.249 262V253.6H500.965V262H499.249ZM495.469 260.344C495.829 260.344 496.125 260.232 496.357 260.008C496.597 259.784 496.717 259.508 496.717 259.18C496.717 258.852 496.597 258.576 496.357 258.352C496.125 258.128 495.829 258.016 495.469 258.016H494.185V260.344H495.469Z" fill="#FFA900"/>
<path d="M439.281 204.554C438.545 204.554 437.861 204.362 437.229 203.978C436.597 203.586 436.093 203.058 435.717 202.394C435.341 201.722 435.153 200.99 435.153 200.198C435.153 199.406 435.341 198.678 435.717 198.014C436.093 197.342 436.597 196.814 437.229 196.43C437.861 196.038 438.545 195.842 439.281 195.842C439.953 195.842 440.553 195.994 441.081 196.298C441.609 196.594 442.041 196.982 442.377 197.462C442.721 197.934 442.957 198.442 443.085 198.986H441.297C441.185 198.586 440.953 198.238 440.601 197.942C440.249 197.646 439.809 197.498 439.281 197.498C438.849 197.498 438.449 197.618 438.081 197.858C437.713 198.09 437.417 198.414 437.193 198.83C436.977 199.238 436.869 199.694 436.869 200.198C436.869 200.702 436.977 201.162 437.193 201.578C437.417 201.986 437.713 202.31 438.081 202.55C438.449 202.782 438.849 202.898 439.281 202.898C439.809 202.898 440.249 202.754 440.601 202.466C440.961 202.17 441.213 201.822 441.357 201.422H443.145C443.017 201.958 442.781 202.466 442.437 202.946C442.101 203.418 441.661 203.806 441.117 204.11C440.581 204.406 439.969 204.554 439.281 204.554ZM451.101 204.398H449.301L448.689 202.67H445.521L444.909 204.398H443.169L446.301 195.998H447.981L451.101 204.398ZM448.125 201.086L447.105 198.134L446.085 201.086H448.125ZM457.022 199.274V195.998H458.738V204.398H457.022V200.93H453.59V204.398H451.874V195.998H453.59V199.274H457.022ZM464.101 204.554C463.365 204.554 462.681 204.362 462.049 203.978C461.417 203.586 460.913 203.058 460.537 202.394C460.161 201.722 459.973 200.99 459.973 200.198C459.973 199.406 460.161 198.678 460.537 198.014C460.913 197.342 461.417 196.814 462.049 196.43C462.681 196.038 463.365 195.842 464.101 195.842C464.773 195.842 465.373 195.994 465.901 196.298C466.429 196.594 466.861 196.982 467.197 197.462C467.541 197.934 467.777 198.442 467.905 198.986H466.117C466.005 198.586 465.773 198.238 465.421 197.942C465.069 197.646 464.629 197.498 464.101 197.498C463.669 197.498 463.269 197.618 462.901 197.858C462.533 198.09 462.237 198.414 462.013 198.83C461.797 199.238 461.689 199.694 461.689 200.198C461.689 200.702 461.797 201.162 462.013 201.578C462.237 201.986 462.533 202.31 462.901 202.55C463.269 202.782 463.669 202.898 464.101 202.898C464.629 202.898 465.069 202.754 465.421 202.466C465.781 202.17 466.033 201.822 466.177 201.422H467.965C467.837 201.958 467.601 202.466 467.257 202.946C466.921 203.418 466.481 203.806 465.937 204.11C465.401 204.406 464.789 204.554 464.101 204.554ZM475.922 204.398H474.122L473.51 202.67H470.342L469.73 204.398H467.99L471.122 195.998H472.802L475.922 204.398ZM472.946 201.086L471.926 198.134L470.906 201.086H472.946ZM479.898 195.998C480.442 195.998 480.934 196.122 481.374 196.37C481.822 196.618 482.174 196.958 482.43 197.39C482.686 197.822 482.814 198.306 482.814 198.842C482.814 199.378 482.686 199.862 482.43 200.294C482.174 200.726 481.822 201.066 481.374 201.314C480.934 201.562 480.442 201.686 479.898 201.686H478.41V204.398H476.694V195.998H479.898ZM479.862 200.03C480.206 200.03 480.498 199.918 480.738 199.694C480.978 199.462 481.098 199.178 481.098 198.842C481.098 198.506 480.978 198.226 480.738 198.002C480.498 197.77 480.206 197.654 479.862 197.654H478.41V200.03H479.862Z" fill="#FFA900"/>
<path d="M392.109 229.398L390.429 226.374H389.313V229.398H387.597V220.998H391.005C391.541 220.998 392.025 221.114 392.457 221.346C392.889 221.578 393.229 221.902 393.477 222.318C393.725 222.726 393.849 223.19 393.849 223.71C393.849 224.246 393.693 224.73 393.381 225.162C393.069 225.586 392.645 225.902 392.109 226.11L394.089 229.398H392.109ZM389.313 222.63V224.814H390.957C391.293 224.814 391.573 224.714 391.797 224.514C392.021 224.306 392.133 224.042 392.133 223.722C392.133 223.402 392.021 223.142 391.797 222.942C391.573 222.734 391.293 222.63 390.957 222.63H389.313ZM398.91 229.554C398.174 229.554 397.49 229.362 396.858 228.978C396.226 228.586 395.722 228.058 395.346 227.394C394.97 226.722 394.782 225.99 394.782 225.198C394.782 224.406 394.97 223.678 395.346 223.014C395.722 222.342 396.226 221.814 396.858 221.43C397.49 221.038 398.174 220.842 398.91 220.842C399.646 220.842 400.33 221.038 400.962 221.43C401.594 221.814 402.098 222.342 402.474 223.014C402.85 223.678 403.038 224.406 403.038 225.198C403.038 225.99 402.85 226.722 402.474 227.394C402.098 228.058 401.594 228.586 400.962 228.978C400.33 229.362 399.646 229.554 398.91 229.554ZM398.91 227.898C399.342 227.898 399.742 227.782 400.11 227.55C400.478 227.31 400.77 226.986 400.986 226.578C401.21 226.162 401.322 225.702 401.322 225.198C401.322 224.694 401.21 224.238 400.986 223.83C400.77 223.414 400.478 223.09 400.11 222.858C399.742 222.618 399.342 222.498 398.91 222.498C398.478 222.498 398.078 222.618 397.71 222.858C397.342 223.09 397.046 223.414 396.822 223.83C396.606 224.238 396.498 224.694 396.498 225.198C396.498 225.702 396.606 226.162 396.822 226.578C397.046 226.986 397.342 227.31 397.71 227.55C398.078 227.782 398.478 227.898 398.91 227.898ZM407.033 229.554C406.393 229.554 405.833 229.434 405.353 229.194C404.881 228.946 404.509 228.61 404.237 228.186C403.973 227.762 403.829 227.282 403.805 226.746H405.521C405.569 227.122 405.721 227.43 405.977 227.67C406.233 227.902 406.585 228.018 407.033 228.018C407.457 228.018 407.777 227.934 407.993 227.766C408.217 227.598 408.329 227.39 408.329 227.142C408.329 226.934 408.257 226.758 408.113 226.614C407.969 226.47 407.789 226.354 407.573 226.266C407.357 226.17 407.057 226.058 406.673 225.93C406.113 225.746 405.653 225.566 405.293 225.39C404.941 225.206 404.637 224.946 404.381 224.61C404.125 224.266 403.997 223.822 403.997 223.278C403.997 222.814 404.113 222.398 404.345 222.03C404.577 221.662 404.913 221.374 405.353 221.166C405.801 220.95 406.325 220.842 406.925 220.842C407.501 220.842 408.013 220.962 408.461 221.202C408.909 221.442 409.261 221.77 409.517 222.186C409.773 222.602 409.913 223.066 409.937 223.578H408.221C408.197 223.226 408.069 222.938 407.837 222.714C407.605 222.49 407.301 222.378 406.925 222.378C406.541 222.378 406.241 222.466 406.025 222.642C405.817 222.81 405.713 223.03 405.713 223.302C405.713 223.51 405.785 223.686 405.929 223.83C406.073 223.974 406.249 224.09 406.457 224.178C406.673 224.266 406.977 224.374 407.369 224.502C407.921 224.678 408.377 224.854 408.737 225.03C409.097 225.198 409.405 225.45 409.661 225.786C409.917 226.114 410.045 226.546 410.045 227.082C410.045 227.554 409.925 227.978 409.685 228.354C409.453 228.722 409.109 229.014 408.653 229.23C408.197 229.446 407.657 229.554 407.033 229.554ZM414.561 229.398H412.845V222.654H410.409V220.998H416.997V222.654H414.561V229.398ZM419.723 225.906V227.766H423.875V229.398H418.007V220.998H423.755V222.63H419.723V224.322H423.299V225.906H419.723ZM429.667 229.398L427.987 226.374H426.871V229.398H425.155V220.998H428.563C429.099 220.998 429.583 221.114 430.015 221.346C430.447 221.578 430.787 221.902 431.035 222.318C431.283 222.726 431.407 223.19 431.407 223.71C431.407 224.246 431.251 224.73 430.939 225.162C430.627 225.586 430.203 225.902 429.667 226.11L431.647 229.398H429.667ZM426.871 222.63V224.814H428.515C428.851 224.814 429.131 224.714 429.355 224.514C429.579 224.306 429.691 224.042 429.691 223.722C429.691 223.402 429.579 223.142 429.355 222.942C429.131 222.734 428.851 222.63 428.515 222.63H426.871Z" fill="#FFA900"/>
<path d="M208.977 231.926L211.725 225.998H213.249V234.398H211.593V229.55L209.337 234.398H208.485L206.253 229.598V234.398H204.597V225.998H206.229L208.977 231.926ZM218.617 234.554C217.881 234.554 217.197 234.362 216.565 233.978C215.933 233.586 215.429 233.058 215.053 232.394C214.677 231.722 214.489 230.99 214.489 230.198C214.489 229.406 214.677 228.678 215.053 228.014C215.429 227.342 215.933 226.814 216.565 226.43C217.197 226.038 217.881 225.842 218.617 225.842C219.353 225.842 220.037 226.038 220.669 226.43C221.301 226.814 221.805 227.342 222.181 228.014C222.557 228.678 222.745 229.406 222.745 230.198C222.745 230.99 222.557 231.722 222.181 232.394C221.805 233.058 221.301 233.586 220.669 233.978C220.037 234.362 219.353 234.554 218.617 234.554ZM218.617 232.898C219.049 232.898 219.449 232.782 219.817 232.55C220.185 232.31 220.477 231.986 220.693 231.578C220.917 231.162 221.029 230.702 221.029 230.198C221.029 229.694 220.917 229.238 220.693 228.83C220.477 228.414 220.185 228.09 219.817 227.858C219.449 227.618 219.049 227.498 218.617 227.498C218.185 227.498 217.785 227.618 217.417 227.858C217.049 228.09 216.753 228.414 216.529 228.83C216.313 229.238 216.205 229.694 216.205 230.198C216.205 230.702 216.313 231.162 216.529 231.578C216.753 231.986 217.049 232.31 217.417 232.55C217.785 232.782 218.185 232.898 218.617 232.898ZM227.664 234.554C226.928 234.554 226.244 234.362 225.612 233.978C224.98 233.586 224.476 233.058 224.1 232.394C223.724 231.722 223.536 230.99 223.536 230.198C223.536 229.406 223.724 228.678 224.1 228.014C224.476 227.342 224.98 226.814 225.612 226.43C226.244 226.038 226.928 225.842 227.664 225.842C228.4 225.842 229.084 226.038 229.716 226.43C230.348 226.814 230.852 227.342 231.228 228.014C231.604 228.678 231.792 229.406 231.792 230.198C231.792 230.99 231.604 231.722 231.228 232.394C230.852 233.058 230.348 233.586 229.716 233.978C229.084 234.362 228.4 234.554 227.664 234.554ZM227.664 232.898C228.096 232.898 228.496 232.782 228.864 232.55C229.232 232.31 229.524 231.986 229.74 231.578C229.964 231.162 230.076 230.702 230.076 230.198C230.076 229.694 229.964 229.238 229.74 228.83C229.524 228.414 229.232 228.09 228.864 227.858C228.496 227.618 228.096 227.498 227.664 227.498C227.232 227.498 226.832 227.618 226.464 227.858C226.096 228.09 225.8 228.414 225.576 228.83C225.36 229.238 225.252 229.694 225.252 230.198C225.252 230.702 225.36 231.162 225.576 231.578C225.8 231.986 226.096 232.31 226.464 232.55C226.832 232.782 227.232 232.898 227.664 232.898ZM235.787 234.554C235.147 234.554 234.587 234.434 234.107 234.194C233.635 233.946 233.263 233.61 232.991 233.186C232.727 232.762 232.583 232.282 232.559 231.746H234.275C234.323 232.122 234.475 232.43 234.731 232.67C234.987 232.902 235.339 233.018 235.787 233.018C236.211 233.018 236.531 232.934 236.747 232.766C236.971 232.598 237.083 232.39 237.083 232.142C237.083 231.934 237.011 231.758 236.867 231.614C236.723 231.47 236.543 231.354 236.327 231.266C236.111 231.17 235.811 231.058 235.427 230.93C234.867 230.746 234.407 230.566 234.047 230.39C233.695 230.206 233.391 229.946 233.135 229.61C232.879 229.266 232.751 228.822 232.751 228.278C232.751 227.814 232.867 227.398 233.099 227.03C233.331 226.662 233.667 226.374 234.107 226.166C234.555 225.95 235.079 225.842 235.679 225.842C236.255 225.842 236.767 225.962 237.215 226.202C237.663 226.442 238.015 226.77 238.271 227.186C238.527 227.602 238.667 228.066 238.691 228.578H236.975C236.951 228.226 236.823 227.938 236.591 227.714C236.359 227.49 236.055 227.378 235.679 227.378C235.295 227.378 234.995 227.466 234.779 227.642C234.571 227.81 234.467 228.03 234.467 228.302C234.467 228.51 234.539 228.686 234.683 228.83C234.827 228.974 235.003 229.09 235.211 229.178C235.427 229.266 235.731 229.374 236.123 229.502C236.675 229.678 237.131 229.854 237.491 230.03C237.851 230.198 238.159 230.45 238.415 230.786C238.671 231.114 238.799 231.546 238.799 232.082C238.799 232.554 238.679 232.978 238.439 233.354C238.207 233.722 237.863 234.014 237.407 234.23C236.951 234.446 236.411 234.554 235.787 234.554ZM241.785 230.906V232.766H245.937V234.398H240.069V225.998H245.817V227.63H241.785V229.322H245.361V230.906H241.785ZM253.925 234.554C253.189 234.554 252.505 234.362 251.873 233.978C251.241 233.586 250.737 233.058 250.361 232.394C249.985 231.722 249.797 230.99 249.797 230.198C249.797 229.406 249.985 228.678 250.361 228.014C250.737 227.342 251.241 226.814 251.873 226.43C252.505 226.038 253.189 225.842 253.925 225.842C254.597 225.842 255.197 225.994 255.725 226.298C256.253 226.594 256.685 226.982 257.021 227.462C257.365 227.934 257.601 228.442 257.729 228.986H255.941C255.829 228.586 255.597 228.238 255.245 227.942C254.893 227.646 254.453 227.498 253.925 227.498C253.493 227.498 253.093 227.618 252.725 227.858C252.357 228.09 252.061 228.414 251.837 228.83C251.621 229.238 251.513 229.694 251.513 230.198C251.513 230.702 251.621 231.162 251.837 231.578C252.061 231.986 252.357 232.31 252.725 232.55C253.093 232.782 253.493 232.898 253.925 232.898C254.453 232.898 254.893 232.754 255.245 232.466C255.605 232.17 255.857 231.822 256.001 231.422H257.789C257.661 231.958 257.425 232.466 257.081 232.946C256.745 233.418 256.305 233.806 255.761 234.11C255.225 234.406 254.613 234.554 253.925 234.554ZM262.644 234.554C261.908 234.554 261.224 234.362 260.592 233.978C259.96 233.586 259.456 233.058 259.08 232.394C258.704 231.722 258.516 230.99 258.516 230.198C258.516 229.406 258.704 228.678 259.08 228.014C259.456 227.342 259.96 226.814 260.592 226.43C261.224 226.038 261.908 225.842 262.644 225.842C263.38 225.842 264.064 226.038 264.696 226.43C265.328 226.814 265.832 227.342 266.208 228.014C266.584 228.678 266.772 229.406 266.772 230.198C266.772 230.99 266.584 231.722 266.208 232.394C265.832 233.058 265.328 233.586 264.696 233.978C264.064 234.362 263.38 234.554 262.644 234.554ZM262.644 232.898C263.076 232.898 263.476 232.782 263.844 232.55C264.212 232.31 264.504 231.986 264.72 231.578C264.944 231.162 265.056 230.702 265.056 230.198C265.056 229.694 264.944 229.238 264.72 228.83C264.504 228.414 264.212 228.09 263.844 227.858C263.476 227.618 263.076 227.498 262.644 227.498C262.212 227.498 261.812 227.618 261.444 227.858C261.076 228.09 260.78 228.414 260.556 228.83C260.34 229.238 260.232 229.694 260.232 230.198C260.232 230.702 260.34 231.162 260.556 231.578C260.78 231.986 261.076 232.31 261.444 232.55C261.812 232.782 262.212 232.898 262.644 232.898ZM273.683 225.998V227.654H269.723V229.67H273.131V231.254H269.723V234.398H268.007V225.998H273.683ZM280.55 225.998V227.654H276.59V229.67H279.998V231.254H276.59V234.398H274.874V225.998H280.55ZM283.457 230.906V232.766H287.609V234.398H281.741V225.998H287.489V227.63H283.457V229.322H287.033V230.906H283.457ZM290.606 230.906V232.766H294.758V234.398H288.89V225.998H294.638V227.63H290.606V229.322H294.182V230.906H290.606Z" fill="#FFA900"/>
<path d="M131.476 259.416H132.556V262.8H130.84V261H125.776V262.8H124.06V259.416H124.636C125.1 259.08 125.36 258.596 125.416 257.964L125.872 252.6H131.476V259.416ZM129.76 259.416V254.184H127.42L127.108 257.964C127.052 258.62 126.88 259.104 126.592 259.416H129.76ZM135.286 257.508V259.368H139.438V261H133.57V252.6H139.318V254.232H135.286V255.924H138.862V257.508H135.286ZM143.923 252.6C144.467 252.6 144.959 252.724 145.399 252.972C145.847 253.22 146.199 253.56 146.455 253.992C146.711 254.424 146.839 254.908 146.839 255.444C146.839 255.98 146.711 256.464 146.455 256.896C146.199 257.328 145.847 257.668 145.399 257.916C144.959 258.164 144.467 258.288 143.923 258.288H142.435V261H140.719V252.6H143.923ZM143.887 256.632C144.231 256.632 144.523 256.52 144.763 256.296C145.003 256.064 145.123 255.78 145.123 255.444C145.123 255.108 145.003 254.828 144.763 254.604C144.523 254.372 144.231 254.256 143.887 254.256H142.435V256.632H143.887ZM149.818 257.508V259.368H153.97V261H148.102V252.6H153.85V254.232H149.818V255.924H153.394V257.508H149.818ZM159.438 256.608C159.806 256.744 160.134 256.984 160.422 257.328C160.718 257.664 160.866 258.108 160.866 258.66C160.866 259.108 160.742 259.524 160.494 259.908C160.254 260.284 159.902 260.588 159.438 260.82C158.982 261.044 158.442 261.156 157.818 261.156C157.194 261.156 156.65 261.036 156.186 260.796C155.722 260.556 155.358 260.232 155.094 259.824C154.83 259.408 154.67 258.944 154.614 258.432H156.318C156.374 258.752 156.526 259.024 156.774 259.248C157.03 259.464 157.35 259.572 157.734 259.572C158.198 259.572 158.55 259.476 158.79 259.284C159.03 259.084 159.15 258.82 159.15 258.492C159.15 258.18 159.034 257.928 158.802 257.736C158.57 257.536 158.234 257.436 157.794 257.436H156.93V256.02H157.794C158.154 256.02 158.434 255.928 158.634 255.744C158.842 255.56 158.946 255.32 158.946 255.024C158.946 254.728 158.838 254.488 158.622 254.304C158.414 254.12 158.126 254.028 157.758 254.028C157.382 254.028 157.086 254.124 156.87 254.316C156.654 254.5 156.522 254.752 156.474 255.072H154.77C154.818 254.592 154.97 254.152 155.226 253.752C155.482 253.352 155.826 253.036 156.258 252.804C156.698 252.564 157.202 252.444 157.77 252.444C158.338 252.444 158.842 252.556 159.282 252.78C159.722 253.004 160.062 253.3 160.302 253.668C160.542 254.036 160.662 254.432 160.662 254.856C160.662 255.288 160.538 255.652 160.29 255.948C160.042 256.244 159.758 256.464 159.438 256.608ZM169.102 261H167.302L166.69 259.272H163.522L162.91 261H161.17L164.302 252.6H165.982L169.102 261ZM166.126 257.688L165.106 254.736L164.086 257.688H166.126Z" fill="#FFA900"/>
<path d="M72.044 317.6C72.588 317.6 73.08 317.724 73.52 317.972C73.968 318.22 74.32 318.56 74.576 318.992C74.832 319.424 74.96 319.908 74.96 320.444C74.96 320.98 74.832 321.464 74.576 321.896C74.32 322.328 73.968 322.668 73.52 322.916C73.08 323.164 72.588 323.288 72.044 323.288H70.556V326H68.84V317.6H72.044ZM72.008 321.632C72.352 321.632 72.644 321.52 72.884 321.296C73.124 321.064 73.244 320.78 73.244 320.444C73.244 320.108 73.124 319.828 72.884 319.604C72.644 319.372 72.352 319.256 72.008 319.256H70.556V321.632H72.008ZM79.5468 326.156C78.8828 326.156 78.2908 326.008 77.7708 325.712C77.2588 325.416 76.8628 325.012 76.5828 324.5C76.3028 323.98 76.1628 323.404 76.1628 322.772V317.6H77.8788V322.772C77.8788 323.276 78.0268 323.692 78.3228 324.02C78.6188 324.34 79.0268 324.5 79.5468 324.5C80.0668 324.5 80.4748 324.34 80.7708 324.02C81.0668 323.692 81.2148 323.276 81.2148 322.772V317.6H82.9308V322.772C82.9308 323.404 82.7908 323.98 82.5108 324.5C82.2308 325.012 81.8308 325.416 81.3108 325.712C80.7988 326.008 80.2108 326.156 79.5468 326.156ZM89.8588 323.096V317.6H91.5148V326H89.9428L86.2108 320.504V326H84.5548V317.6H86.1268L89.8588 323.096ZM96.5516 321.68L99.8036 326H97.6676L94.9076 322.232V326H93.1916V317.6H94.9076V321.236L97.5356 317.6H99.5636L96.5516 321.68ZM108.84 317.6V319.256H104.88V321.272H108.288V322.856H104.88V326H103.164V317.6H108.84ZM111.747 326H110.031V317.6H111.747V326ZM117.114 326.156C116.378 326.156 115.694 325.964 115.062 325.58C114.43 325.188 113.926 324.66 113.55 323.996C113.174 323.324 112.986 322.592 112.986 321.8C112.986 321.008 113.174 320.28 113.55 319.616C113.926 318.944 114.43 318.416 115.062 318.032C115.694 317.64 116.378 317.444 117.114 317.444C117.786 317.444 118.386 317.596 118.914 317.9C119.442 318.196 119.874 318.584 120.21 319.064C120.554 319.536 120.79 320.044 120.918 320.588H119.13C119.018 320.188 118.786 319.84 118.434 319.544C118.082 319.248 117.642 319.1 117.114 319.1C116.682 319.1 116.282 319.22 115.914 319.46C115.546 319.692 115.25 320.016 115.026 320.432C114.81 320.84 114.702 321.296 114.702 321.8C114.702 322.304 114.81 322.764 115.026 323.18C115.25 323.588 115.546 323.912 115.914 324.152C116.282 324.384 116.682 324.5 117.114 324.5C117.642 324.5 118.082 324.356 118.434 324.068C118.794 323.772 119.046 323.424 119.19 323.024H120.978C120.85 323.56 120.614 324.068 120.27 324.548C119.934 325.02 119.494 325.408 118.95 325.712C118.414 326.008 117.802 326.156 117.114 326.156ZM125.394 326H123.678V319.256H121.242V317.6H127.83V319.256H125.394V326ZM130.556 326H128.84V317.6H130.556V326ZM135.922 326.156C135.186 326.156 134.502 325.964 133.87 325.58C133.238 325.188 132.734 324.66 132.358 323.996C131.982 323.324 131.794 322.592 131.794 321.8C131.794 321.008 131.982 320.28 132.358 319.616C132.734 318.944 133.238 318.416 133.87 318.032C134.502 317.64 135.186 317.444 135.922 317.444C136.658 317.444 137.342 317.64 137.974 318.032C138.606 318.416 139.11 318.944 139.486 319.616C139.862 320.28 140.05 321.008 140.05 321.8C140.05 322.592 139.862 323.324 139.486 323.996C139.11 324.66 138.606 325.188 137.974 325.58C137.342 325.964 136.658 326.156 135.922 326.156ZM135.922 324.5C136.354 324.5 136.754 324.384 137.122 324.152C137.49 323.912 137.782 323.588 137.998 323.18C138.222 322.764 138.334 322.304 138.334 321.8C138.334 321.296 138.222 320.84 137.998 320.432C137.782 320.016 137.49 319.692 137.122 319.46C136.754 319.22 136.354 319.1 135.922 319.1C135.49 319.1 135.09 319.22 134.722 319.46C134.354 319.692 134.058 320.016 133.834 320.432C133.618 320.84 133.51 321.296 133.51 321.8C133.51 322.304 133.618 322.764 133.834 323.18C134.058 323.588 134.354 323.912 134.722 324.152C135.09 324.384 135.49 324.5 135.922 324.5ZM146.589 323.096V317.6H148.245V326H146.673L142.941 320.504V326H141.285V317.6H142.857L146.589 323.096Z" fill="#FFA900"/>
<path d="M196.88 332.536C197.248 332.672 197.576 332.912 197.864 333.256C198.152 333.6 198.296 334.048 198.296 334.6C198.296 335.04 198.18 335.444 197.948 335.812C197.716 336.18 197.388 336.472 196.964 336.688C196.548 336.896 196.076 337 195.548 337H191.84V328.6H195.404C195.9 328.6 196.34 328.7 196.724 328.9C197.116 329.1 197.42 329.372 197.636 329.716C197.852 330.052 197.96 330.428 197.96 330.844C197.96 331.292 197.852 331.66 197.636 331.948C197.42 332.236 197.168 332.432 196.88 332.536ZM193.556 330.064V331.924H195.2C195.504 331.924 195.752 331.836 195.944 331.66C196.144 331.484 196.244 331.26 196.244 330.988C196.244 330.724 196.144 330.504 195.944 330.328C195.744 330.152 195.496 330.064 195.2 330.064H193.556ZM195.356 335.536C195.716 335.536 196.008 335.436 196.232 335.236C196.464 335.028 196.58 334.76 196.58 334.432C196.58 334.112 196.464 333.852 196.232 333.652C196.008 333.444 195.716 333.34 195.356 333.34H193.556V335.536H195.356ZM205.12 337H199.504V328.6H201.22V335.344H205.12V337ZM209.282 337.156C208.546 337.156 207.862 336.964 207.23 336.58C206.598 336.188 206.094 335.66 205.718 334.996C205.342 334.324 205.154 333.592 205.154 332.8C205.154 332.008 205.342 331.28 205.718 330.616C206.094 329.944 206.598 329.416 207.23 329.032C207.862 328.64 208.546 328.444 209.282 328.444C210.018 328.444 210.702 328.64 211.334 329.032C211.966 329.416 212.47 329.944 212.846 330.616C213.222 331.28 213.41 332.008 213.41 332.8C213.41 333.592 213.222 334.324 212.846 334.996C212.47 335.66 211.966 336.188 211.334 336.58C210.702 336.964 210.018 337.156 209.282 337.156ZM209.282 335.5C209.714 335.5 210.114 335.384 210.482 335.152C210.85 334.912 211.142 334.588 211.358 334.18C211.582 333.764 211.694 333.304 211.694 332.8C211.694 332.296 211.582 331.84 211.358 331.432C211.142 331.016 210.85 330.692 210.482 330.46C210.114 330.22 209.714 330.1 209.282 330.1C208.85 330.1 208.45 330.22 208.082 330.46C207.714 330.692 207.418 331.016 207.194 331.432C206.978 331.84 206.87 332.296 206.87 332.8C206.87 333.304 206.978 333.764 207.194 334.18C207.418 334.588 207.714 334.912 208.082 335.152C208.45 335.384 208.85 335.5 209.282 335.5ZM218.329 337.156C217.593 337.156 216.909 336.964 216.277 336.58C215.645 336.188 215.141 335.66 214.765 334.996C214.389 334.324 214.201 333.592 214.201 332.8C214.201 332.008 214.389 331.28 214.765 330.616C215.141 329.944 215.645 329.416 216.277 329.032C216.909 328.64 217.593 328.444 218.329 328.444C219.065 328.444 219.749 328.64 220.381 329.032C221.013 329.416 221.517 329.944 221.893 330.616C222.269 331.28 222.457 332.008 222.457 332.8C222.457 333.592 222.269 334.324 221.893 334.996C221.517 335.66 221.013 336.188 220.381 336.58C219.749 336.964 219.065 337.156 218.329 337.156ZM218.329 335.5C218.761 335.5 219.161 335.384 219.529 335.152C219.897 334.912 220.189 334.588 220.405 334.18C220.629 333.764 220.741 333.304 220.741 332.8C220.741 332.296 220.629 331.84 220.405 331.432C220.189 331.016 219.897 330.692 219.529 330.46C219.161 330.22 218.761 330.1 218.329 330.1C217.897 330.1 217.497 330.22 217.129 330.46C216.761 330.692 216.465 331.016 216.241 331.432C216.025 331.84 215.917 332.296 215.917 332.8C215.917 333.304 216.025 333.764 216.241 334.18C216.465 334.588 216.761 334.912 217.129 335.152C217.497 335.384 217.897 335.5 218.329 335.5ZM228.072 334.528L230.82 328.6H232.344V337H230.688V332.152L228.432 337H227.58L225.348 332.2V337H223.692V328.6H225.324L228.072 334.528ZM237.724 334.48H233.692V333.04H237.724V334.48ZM244.371 334.096V328.6H246.027V337H244.455L240.723 331.504V337H239.067V328.6H240.639L244.371 334.096ZM251.399 334.48H247.367V333.04H251.399V334.48ZM257.782 332.536C258.15 332.672 258.478 332.912 258.766 333.256C259.054 333.6 259.198 334.048 259.198 334.6C259.198 335.04 259.082 335.444 258.85 335.812C258.618 336.18 258.29 336.472 257.866 336.688C257.45 336.896 256.978 337 256.45 337H252.742V328.6H256.306C256.802 328.6 257.242 328.7 257.626 328.9C258.018 329.1 258.322 329.372 258.538 329.716C258.754 330.052 258.862 330.428 258.862 330.844C258.862 331.292 258.754 331.66 258.538 331.948C258.322 332.236 258.07 332.432 257.782 332.536ZM254.458 330.064V331.924H256.102C256.406 331.924 256.654 331.836 256.846 331.66C257.046 331.484 257.146 331.26 257.146 330.988C257.146 330.724 257.046 330.504 256.846 330.328C256.646 330.152 256.398 330.064 256.102 330.064H254.458ZM256.258 335.536C256.618 335.536 256.91 335.436 257.134 335.236C257.366 335.028 257.482 334.76 257.482 334.432C257.482 334.112 257.366 333.852 257.134 333.652C256.91 333.444 256.618 333.34 256.258 333.34H254.458V335.536H256.258ZM264.918 337L263.238 333.976H262.122V337H260.406V328.6H263.814C264.35 328.6 264.834 328.716 265.266 328.948C265.698 329.18 266.038 329.504 266.286 329.92C266.534 330.328 266.658 330.792 266.658 331.312C266.658 331.848 266.502 332.332 266.19 332.764C265.878 333.188 265.454 333.504 264.918 333.712L266.898 337H264.918ZM262.122 330.232V332.416H263.766C264.102 332.416 264.382 332.316 264.606 332.116C264.83 331.908 264.942 331.644 264.942 331.324C264.942 331.004 264.83 330.744 264.606 330.544C264.382 330.336 264.102 330.232 263.766 330.232H262.122ZM269.751 333.508V335.368H273.903V337H268.035V328.6H273.783V330.232H269.751V331.924H273.327V333.508H269.751ZM282.144 334.012L283.74 328.6H285.456L282.816 337H281.424L279.936 331.864L278.448 337H277.032L274.404 328.6H276.168L277.764 334.012L279.312 328.6H280.596L282.144 334.012ZM289.684 334.48H285.652V333.04H289.684V334.48ZM296.068 332.536C296.436 332.672 296.764 332.912 297.052 333.256C297.34 333.6 297.484 334.048 297.484 334.6C297.484 335.04 297.368 335.444 297.136 335.812C296.904 336.18 296.576 336.472 296.152 336.688C295.736 336.896 295.264 337 294.736 337H291.028V328.6H294.592C295.088 328.6 295.528 328.7 295.912 328.9C296.304 329.1 296.608 329.372 296.824 329.716C297.04 330.052 297.148 330.428 297.148 330.844C297.148 331.292 297.04 331.66 296.824 331.948C296.608 332.236 296.356 332.432 296.068 332.536ZM292.744 330.064V331.924H294.388C294.692 331.924 294.94 331.836 295.132 331.66C295.332 331.484 295.432 331.26 295.432 330.988C295.432 330.724 295.332 330.504 295.132 330.328C294.932 330.152 294.684 330.064 294.388 330.064H292.744ZM294.544 335.536C294.904 335.536 295.196 335.436 295.42 335.236C295.652 335.028 295.768 334.76 295.768 334.432C295.768 334.112 295.652 333.852 295.42 333.652C295.196 333.444 294.904 333.34 294.544 333.34H292.744V335.536H294.544ZM305.712 337H303.912L303.3 335.272H300.132L299.52 337H297.78L300.912 328.6H302.592L305.712 337ZM302.736 333.688L301.716 330.736L300.696 333.688H302.736ZM309.574 337.156C308.91 337.156 308.318 337.008 307.798 336.712C307.286 336.416 306.89 336.012 306.61 335.5C306.33 334.98 306.19 334.404 306.19 333.772V328.6H307.906V333.772C307.906 334.276 308.054 334.692 308.35 335.02C308.646 335.34 309.054 335.5 309.574 335.5C310.094 335.5 310.502 335.34 310.798 335.02C311.094 334.692 311.242 334.276 311.242 333.772V328.6H312.958V333.772C312.958 334.404 312.818 334.98 312.538 335.5C312.258 336.012 311.858 336.416 311.338 336.712C310.826 337.008 310.238 337.156 309.574 337.156ZM318.962 334.528L321.71 328.6H323.234V337H321.578V332.152L319.322 337H318.47L316.238 332.2V337H314.582V328.6H316.214L318.962 334.528Z" fill="#FFA900"/>
<path d="M559.099 131.094C558.748 130.674 558.528 130.337 558.437 130.083L560.479 128.378L560.723 128.67C561.107 129.13 561.562 129.384 562.088 129.432C562.624 129.471 563.191 129.276 563.788 128.847L571.328 123.491L577.467 130.846L566.719 139.817L564.886 137.621L573.515 130.419L570.875 127.256L565.127 131.324C563.945 132.155 562.826 132.542 561.771 132.484C560.724 132.437 559.834 131.974 559.099 131.094ZM578.602 145.845C578.223 146.161 577.906 146.374 577.65 146.483L572.947 140.848C572.57 141.354 572.385 141.882 572.392 142.431C572.408 142.991 572.612 143.507 573.005 143.977C573.484 144.551 574.067 144.854 574.755 144.888L576.588 147.083C576.081 147.246 575.497 147.316 574.836 147.295C574.184 147.283 573.53 147.134 572.875 146.848C572.219 146.562 571.652 146.132 571.173 145.559C570.567 144.832 570.191 144.008 570.047 143.086C569.903 142.164 569.993 141.264 570.319 140.384C570.654 139.496 571.196 138.741 571.943 138.117C572.67 137.51 573.5 137.121 574.434 136.95C575.376 136.788 576.288 136.861 577.169 137.168C578.06 137.466 578.796 137.963 579.377 138.659C579.967 139.365 580.331 140.155 580.47 141.029C580.618 141.913 580.525 142.781 580.193 143.631C579.88 144.483 579.349 145.221 578.602 145.845ZM577.519 140.209C577.144 139.759 576.676 139.48 576.118 139.373C575.57 139.258 575.009 139.335 574.436 139.605L577.537 143.321C577.895 142.813 578.072 142.276 578.066 141.707C578.069 141.149 577.887 140.65 577.519 140.209ZM588.043 157.405C587.306 158.02 586.472 158.404 585.54 158.557C584.616 158.719 583.696 158.637 582.779 158.308C581.881 157.981 581.097 157.427 580.429 156.648L577.865 158.788L576.122 156.7L578.686 154.56C578.039 153.763 577.63 152.888 577.46 151.936C577.309 150.985 577.392 150.065 577.709 149.175C578.034 148.296 578.565 147.549 579.302 146.933C580.039 146.318 580.87 145.929 581.793 145.766C582.725 145.613 583.64 145.701 584.538 146.028C585.455 146.356 586.248 146.911 586.916 147.69L589.634 145.422L591.377 147.51L588.659 149.778C589.307 150.575 589.706 151.449 589.857 152.4C590.027 153.352 589.949 154.268 589.624 155.147C589.307 156.037 588.78 156.79 588.043 157.405ZM581.045 149.021C580.4 149.56 580.041 150.19 579.966 150.912C579.892 151.634 580.123 152.327 580.659 152.991L585.02 149.351C584.463 148.705 583.822 148.353 583.098 148.298C582.375 148.242 581.69 148.483 581.045 149.021ZM582.325 154.987C582.883 155.634 583.523 155.985 584.247 156.04C584.971 156.096 585.655 155.855 586.3 155.317C586.945 154.778 587.305 154.148 587.379 153.426C587.454 152.704 587.223 152.011 586.686 151.347L582.325 154.987ZM588.095 165.831C587.505 165.125 587.138 164.311 586.994 163.389C586.86 162.459 586.957 161.544 587.284 160.646C587.611 159.748 588.138 158.995 588.864 158.389C589.591 157.782 590.426 157.398 591.368 157.237C592.31 157.076 593.222 157.148 594.103 157.455C594.994 157.753 595.735 158.255 596.324 158.961C596.914 159.668 597.276 160.486 597.41 161.416C597.554 162.338 597.462 163.248 597.135 164.146C596.808 165.045 596.281 165.797 595.555 166.404C594.828 167.01 593.993 167.394 593.051 167.555C592.109 167.717 591.192 167.648 590.301 167.35C589.42 167.044 588.684 166.537 588.095 165.831ZM590.029 164.216C590.491 164.769 591.076 165.053 591.784 165.07C592.501 165.097 593.177 164.845 593.812 164.315C594.446 163.786 594.814 163.166 594.916 162.455C595.027 161.755 594.851 161.129 594.39 160.576C593.928 160.024 593.339 159.734 592.622 159.707C591.914 159.691 591.242 159.947 590.607 160.477C589.973 161.007 589.6 161.622 589.49 162.322C589.388 163.032 589.568 163.663 590.029 164.216ZM590.041 173.375L600.635 164.532L601.943 166.098L601.457 167.076L601.521 167.153C601.881 167.148 602.331 167.25 602.871 167.459C603.41 167.669 603.902 168.04 604.347 168.572C604.876 169.207 605.193 169.95 605.296 170.802C605.407 171.664 605.283 172.523 604.921 173.381C604.579 174.24 604.024 174.99 603.256 175.63C602.489 176.271 601.646 176.688 600.73 176.88C599.832 177.073 598.969 177.038 598.141 176.774C597.321 176.52 596.647 176.076 596.117 175.442C595.835 175.104 595.626 174.739 595.491 174.349C595.354 173.977 595.271 173.638 595.242 173.332C595.221 173.037 595.236 172.816 595.287 172.669L595.223 172.592L591.784 175.463L590.041 173.375ZM597.808 173.535C598.081 173.863 598.425 174.088 598.84 174.21C599.255 174.333 599.695 174.339 600.159 174.23C600.642 174.122 601.094 173.893 601.513 173.542C601.933 173.192 602.234 172.793 602.416 172.346C602.617 171.9 602.695 171.462 602.648 171.032C602.602 170.602 602.442 170.223 602.168 169.895C601.895 169.568 601.551 169.343 601.136 169.22C600.721 169.097 600.272 169.09 599.789 169.198C599.325 169.308 598.883 169.538 598.463 169.888C598.043 170.238 597.733 170.636 597.532 171.082C597.35 171.529 597.282 171.968 597.328 172.398C597.375 172.829 597.534 173.207 597.808 173.535ZM603.302 183.644L601.559 181.556L607.455 176.634L605.545 174.346L607.48 172.732L613.042 179.395L611.107 181.01L609.198 178.722L603.302 183.644ZM608.671 190.481C608.081 189.775 607.714 188.961 607.57 188.039C607.436 187.109 607.533 186.195 607.86 185.296C608.187 184.398 608.714 183.646 609.441 183.039C610.167 182.433 611.002 182.049 611.944 181.887C612.886 181.726 613.798 181.799 614.679 182.105C615.57 182.403 616.311 182.906 616.9 183.612C617.49 184.318 617.852 185.136 617.986 186.067C618.13 186.988 618.038 187.898 617.711 188.797C617.384 189.695 616.857 190.447 616.131 191.054C615.404 191.661 614.569 192.044 613.627 192.206C612.685 192.367 611.768 192.299 610.877 192.001C609.996 191.694 609.26 191.188 608.671 190.481ZM610.605 188.866C611.067 189.419 611.652 189.704 612.36 189.72C613.077 189.747 613.753 189.496 614.388 188.966C615.022 188.436 615.39 187.816 615.492 187.106C615.603 186.406 615.427 185.779 614.966 185.227C614.504 184.674 613.915 184.384 613.198 184.357C612.49 184.341 611.818 184.598 611.184 185.127C610.549 185.657 610.176 186.272 610.066 186.972C609.964 187.682 610.144 188.314 610.605 188.866ZM621.979 197.686C622.126 198.153 622.139 198.637 622.018 199.138C621.908 199.629 621.622 200.067 621.162 200.452C620.752 200.794 620.284 201.002 619.756 201.078C619.229 201.153 618.705 201.087 618.184 200.879C617.673 200.663 617.221 200.319 616.828 199.849L613.381 195.718L621.211 189.182L624.415 193.021C624.808 193.491 625.061 193.992 625.175 194.523C625.296 195.064 625.283 195.579 625.135 196.067C624.997 196.547 624.739 196.945 624.36 197.261C623.981 197.577 623.572 197.763 623.131 197.818C622.691 197.873 622.307 197.829 621.979 197.686ZM621.34 192.488L619.743 193.821L620.922 195.233C621.144 195.499 621.391 195.649 621.662 195.683C621.942 195.728 622.215 195.639 622.481 195.416C622.707 195.228 622.823 194.993 622.829 194.709C622.844 194.436 622.741 194.167 622.519 193.9L621.34 192.488ZM618.02 198.124C618.251 198.401 618.511 198.557 618.802 198.592C619.092 198.628 619.375 198.53 619.652 198.3C619.897 198.094 620.029 197.837 620.048 197.526C620.075 197.225 619.977 196.942 619.755 196.676L618.345 194.987L616.61 196.435L618.02 198.124ZM622.876 207.5C622.287 206.793 621.92 205.979 621.776 205.058C621.642 204.127 621.738 203.213 622.065 202.315C622.392 201.417 622.919 200.664 623.646 200.057C624.373 199.451 625.207 199.067 626.149 198.906C627.092 198.744 628.003 198.817 628.885 199.124C629.776 199.422 630.516 199.924 631.106 200.63C631.644 201.275 631.982 201.992 632.119 202.78C632.267 203.56 632.236 204.324 632.026 205.072C631.827 205.812 631.509 206.45 631.073 206.988L629.33 204.9C629.439 204.74 629.53 204.516 629.603 204.229C629.687 203.934 629.702 203.609 629.648 203.253C629.595 202.898 629.436 202.562 629.171 202.245C628.71 201.692 628.121 201.402 627.404 201.376C626.695 201.359 626.024 201.616 625.389 202.146C624.754 202.675 624.382 203.29 624.271 203.99C624.17 204.701 624.349 205.332 624.811 205.885C625.076 206.202 625.378 206.419 625.718 206.534C626.058 206.65 626.375 206.698 626.671 206.677C626.976 206.648 627.218 206.594 627.395 206.515L629.138 208.603C628.531 208.937 627.84 209.14 627.067 209.212C626.304 209.276 625.547 209.17 624.795 208.894C624.054 208.609 623.414 208.144 622.876 207.5ZM634.815 212.969L633.271 219.547L631.13 216.983L632.542 211.558L629.041 214.48L627.298 212.392L635.129 205.855L636.872 207.944L633.648 210.635L638.833 210.293L640.819 212.673L634.815 212.969ZM638.45 219.853L646.198 219.117L647.736 220.959L639.906 227.495L638.227 225.484L643.155 221.37L635.407 222.106L633.869 220.264L641.7 213.727L643.379 215.739L638.45 219.853ZM645.997 228.894L653.745 228.158L655.283 230.001L647.453 236.537L645.774 234.525L650.702 230.411L642.954 231.148L641.416 229.305L649.247 222.769L650.926 224.78L645.997 228.894ZM653.377 225.626C652.788 224.92 652.506 224.156 652.533 223.335C652.57 222.505 652.895 221.782 653.509 221.165L654.74 222.639C654.518 222.893 654.387 223.185 654.348 223.512C654.309 223.84 654.431 224.173 654.713 224.511C654.995 224.849 655.301 225.028 655.63 225.048C655.96 225.068 656.269 224.992 656.559 224.819L657.79 226.293C657.073 226.787 656.303 226.978 655.48 226.866C654.668 226.746 653.967 226.332 653.377 225.626ZM655.243 245.869L653.5 243.781L659.396 238.86L657.486 236.572L659.421 234.957L664.983 241.621L663.048 243.236L661.139 240.948L655.243 245.869ZM660.611 252.707C660.022 252.001 659.655 251.187 659.511 250.265C659.377 249.334 659.474 248.42 659.801 247.522C660.128 246.624 660.655 245.871 661.381 245.265C662.108 244.658 662.943 244.274 663.885 244.113C664.827 243.952 665.739 244.024 666.62 244.331C667.511 244.629 668.252 245.131 668.841 245.837C669.431 246.544 669.792 247.362 669.926 248.292C670.071 249.214 669.979 250.124 669.652 251.022C669.325 251.92 668.798 252.673 668.071 253.279C667.345 253.886 666.51 254.27 665.568 254.431C664.626 254.593 663.709 254.524 662.817 254.226C661.936 253.92 661.201 253.413 660.611 252.707ZM662.546 251.092C663.007 251.645 663.592 251.929 664.301 251.946C665.018 251.973 665.694 251.721 666.328 251.191C666.963 250.662 667.331 250.042 667.433 249.331C667.543 248.631 667.368 248.005 666.907 247.452C666.445 246.899 665.856 246.61 665.139 246.583C664.43 246.566 663.759 246.823 663.124 247.353C662.49 247.883 662.117 248.497 662.007 249.197C661.905 249.908 662.085 250.539 662.546 251.092ZM674.416 258.976L677.394 256.49L679.137 258.578L671.307 265.114L669.564 263.026L672.481 260.591L669.982 257.597L667.065 260.032L665.322 257.944L673.152 251.408L674.895 253.496L671.916 255.982L674.416 258.976ZM681.913 267.958L684.891 265.471L686.634 267.559L678.804 274.096L677.061 272.007L679.978 269.572L677.479 266.578L674.562 269.013L672.819 266.925L680.649 260.389L682.392 262.477L679.413 264.964L681.913 267.958ZM690.544 279.952C690.165 280.268 689.848 280.481 689.592 280.59L684.888 274.956C684.511 275.461 684.327 275.989 684.334 276.539C684.35 277.099 684.554 277.614 684.947 278.085C685.426 278.658 686.009 278.961 686.697 278.995L688.53 281.191C688.023 281.353 687.439 281.424 686.778 281.402C686.126 281.391 685.472 281.242 684.816 280.955C684.161 280.669 683.593 280.239 683.115 279.666C682.508 278.939 682.133 278.115 681.989 277.193C681.845 276.272 681.935 275.371 682.261 274.492C682.596 273.604 683.138 272.848 683.885 272.224C684.612 271.617 685.442 271.228 686.375 271.057C687.318 270.896 688.229 270.968 689.11 271.275C690.002 271.573 690.738 272.07 691.319 272.766C691.909 273.472 692.273 274.262 692.412 275.136C692.559 276.021 692.467 276.888 692.135 277.738C691.821 278.59 691.291 279.328 690.544 279.952ZM689.461 274.317C689.085 273.866 688.618 273.588 688.06 273.481C687.512 273.365 686.951 273.442 686.378 273.712L689.479 277.428C689.837 276.921 690.013 276.383 690.008 275.814C690.011 275.256 689.829 274.757 689.461 274.317ZM687.02 284.344C686.806 284.089 686.645 283.833 686.535 283.577L688.408 282.013L688.652 282.305C688.925 282.632 689.232 282.802 689.572 282.814C689.922 282.817 690.344 282.646 690.839 282.303L695.947 278.716L700.881 284.628L693.051 291.164L691.308 289.076L697.204 284.154L695.551 282.174L692.019 284.653C691.048 285.342 690.134 285.661 689.277 285.613C688.43 285.555 687.678 285.133 687.02 284.344ZM703.111 292.136C703.547 292.658 703.822 293.227 703.937 293.843C704.06 294.47 704.01 295.076 703.787 295.662C703.583 296.249 703.225 296.756 702.713 297.184C702.191 297.619 701.617 297.889 700.993 297.994C700.387 298.1 699.787 298.037 699.192 297.804C698.607 297.58 698.096 297.208 697.66 296.686L694.559 292.97L702.389 286.434L704.132 288.522L701.752 290.508L703.111 292.136ZM699.075 294.854C699.357 295.191 699.662 295.38 699.989 295.419C700.336 295.46 700.663 295.352 700.97 295.095C701.267 294.848 701.421 294.554 701.433 294.214C701.463 293.876 701.337 293.538 701.055 293.2L700.017 291.957L698.037 293.61L699.075 294.854Z" fill="#11244D"/>
<path d="M388.882 283.767C389.201 284.587 389.305 285.391 389.195 286.177C389.103 286.971 388.822 287.666 388.353 288.263C387.888 288.872 387.283 289.322 386.537 289.611C385.792 289.9 385.042 289.977 384.288 289.84C383.539 289.716 382.857 289.395 382.24 288.876C381.642 288.364 381.183 287.698 380.865 286.878L378.694 281.284L391.746 276.22L395.226 285.188L392.839 286.114L390.394 279.812L387.746 280.84L388.882 283.767ZM383.215 285.859C383.408 286.356 383.716 286.708 384.14 286.916C384.576 287.118 385.031 287.128 385.503 286.945C385.975 286.761 386.298 286.45 386.471 286.011C386.656 285.568 386.652 285.097 386.459 284.6L385.36 281.766L382.115 283.025L383.215 285.859ZM394.377 292.787C394.855 294.018 394.858 295.132 394.387 296.13C393.929 297.123 393.084 297.858 391.854 298.336L386.167 300.543L385.429 298.641L386.202 297.869L386.166 297.776C385.093 297.334 384.352 296.584 383.942 295.528C383.711 294.931 383.623 294.336 383.678 293.742C383.739 293.161 383.931 292.643 384.255 292.188C384.584 291.746 385.01 291.424 385.532 291.221C386.178 290.97 386.812 290.946 387.434 291.148C388.068 291.345 388.643 291.737 389.156 292.325C389.688 292.919 390.127 293.664 390.474 294.559L390.944 295.771L391.131 295.699C391.616 295.511 391.944 295.233 392.116 294.866C392.288 294.499 392.288 294.091 392.114 293.644C391.965 293.259 391.738 292.989 391.435 292.835C391.15 292.688 390.879 292.636 390.624 292.678L389.64 290.142C390.218 289.975 390.808 289.946 391.408 290.056C392.026 290.174 392.595 290.461 393.115 290.917C393.648 291.368 394.069 291.992 394.377 292.787ZM386.243 295.321C386.47 295.906 386.827 296.31 387.315 296.536C387.808 296.774 388.291 296.801 388.763 296.618L389.248 296.43L388.748 295.143C388.483 294.459 388.178 294.006 387.834 293.782C387.502 293.553 387.144 293.513 386.758 293.663C386.46 293.779 386.258 293.978 386.154 294.262C386.054 294.558 386.084 294.911 386.243 295.321ZM398.734 304.732L399.747 307.343L388.482 307.337C387.152 307.339 386.152 307.176 385.482 306.85C384.8 306.528 384.323 306.019 384.053 305.323C383.894 304.913 383.808 304.489 383.795 304.05L386.107 303.153C386.088 303.361 386.133 303.608 386.244 303.894C386.399 304.291 386.609 304.575 386.874 304.743C387.132 304.929 387.502 305.015 387.982 305L388.19 304.983L395.999 297.684L397.062 300.425L391.733 305.046L398.734 304.732ZM395.952 316.25L403.31 316.527L404.345 319.193L394.836 322.883L393.888 320.441L399.016 318.451L392.984 318.11L392.513 316.898L396.737 312.578L391.609 314.567L390.661 312.125L400.17 308.435L401.198 311.083L395.952 316.25ZM406.89 325.034C407.368 326.265 407.371 327.379 406.9 328.377C406.442 329.37 405.597 330.106 404.367 330.583L398.68 332.79L397.942 330.888L398.715 330.116L398.679 330.023C397.606 329.581 396.865 328.832 396.455 327.775C396.224 327.178 396.136 326.583 396.191 325.99C396.252 325.408 396.444 324.89 396.768 324.436C397.097 323.993 397.523 323.671 398.045 323.468C398.691 323.217 399.325 323.193 399.947 323.395C400.581 323.592 401.156 323.985 401.669 324.572C402.201 325.167 402.64 325.911 402.987 326.806L403.457 328.018L403.644 327.946C404.129 327.758 404.457 327.48 404.629 327.113C404.801 326.746 404.801 326.339 404.627 325.891C404.478 325.506 404.251 325.236 403.948 325.082C403.663 324.935 403.392 324.883 403.137 324.925L402.153 322.389C402.731 322.222 403.321 322.193 403.921 322.303C404.539 322.421 405.108 322.708 405.628 323.164C406.161 323.615 406.582 324.239 406.89 325.034ZM398.756 327.569C398.983 328.153 399.34 328.558 399.828 328.783C400.321 329.021 400.804 329.048 401.276 328.865L401.761 328.677L401.261 327.39C400.996 326.707 400.691 326.253 400.347 326.029C400.015 325.8 399.657 325.76 399.271 325.91C398.973 326.026 398.771 326.225 398.667 326.509C398.567 326.805 398.597 327.158 398.756 327.569ZM407.787 338.789L411.404 337.385L412.388 339.921L402.879 343.611L401.895 341.075L405.438 339.701L404.027 336.065L400.484 337.439L399.5 334.904L409.009 331.214L409.993 333.749L406.376 335.153L407.787 338.789ZM405.183 350.268C404.85 349.41 404.763 348.521 404.921 347.602C405.091 346.678 405.475 345.842 406.072 345.096C406.669 344.349 407.409 343.805 408.292 343.462C409.174 343.12 410.088 343.023 411.032 343.171C411.976 343.32 412.817 343.68 413.554 344.252C414.303 344.819 414.844 345.532 415.177 346.39C415.481 347.173 415.572 347.96 415.45 348.751C415.34 349.537 415.066 350.251 414.629 350.893C414.204 351.53 413.698 352.033 413.113 352.404L412.129 349.868C412.284 349.751 412.441 349.568 412.602 349.319C412.776 349.066 412.894 348.763 412.957 348.409C413.02 348.056 412.977 347.687 412.828 347.301C412.567 346.63 412.102 346.167 411.431 345.913C410.765 345.67 410.046 345.699 409.276 345.998C408.505 346.297 407.955 346.76 407.627 347.388C407.303 348.029 407.272 348.685 407.532 349.356C407.682 349.741 407.899 350.043 408.184 350.262C408.469 350.48 408.755 350.626 409.041 350.701C409.34 350.771 409.586 350.797 409.779 350.779L410.763 353.315C410.081 353.437 409.362 353.408 408.606 353.23C407.863 353.046 407.179 352.704 406.556 352.202C405.944 351.695 405.487 351.051 405.183 350.268ZM414.746 359.267L411.181 365.006L409.972 361.892L413.044 357.203L408.793 358.853L407.809 356.317L417.318 352.627L418.302 355.163L414.387 356.682L419.409 358.015L420.531 360.905L414.746 359.267ZM422.646 365.639C423.124 366.87 423.127 367.984 422.656 368.982C422.198 369.975 421.353 370.71 420.123 371.188L414.436 373.395L413.698 371.493L414.471 370.721L414.435 370.628C413.362 370.186 412.621 369.436 412.211 368.38C411.98 367.783 411.892 367.188 411.947 366.594C412.008 366.013 412.2 365.495 412.524 365.04C412.853 364.598 413.279 364.276 413.801 364.073C414.447 363.822 415.081 363.798 415.703 364C416.338 364.197 416.912 364.589 417.426 365.177C417.957 365.771 418.396 366.516 418.743 367.411L419.213 368.623L419.4 368.551C419.885 368.363 420.213 368.085 420.385 367.718C420.558 367.351 420.557 366.944 420.383 366.496C420.234 366.111 420.007 365.841 419.704 365.687C419.419 365.54 419.148 365.488 418.893 365.53L417.909 362.994C418.487 362.827 419.077 362.798 419.678 362.908C420.295 363.026 420.864 363.313 421.385 363.769C421.917 364.22 422.338 364.844 422.646 365.639ZM414.512 368.173C414.739 368.758 415.096 369.163 415.584 369.388C416.077 369.626 416.56 369.653 417.032 369.47L417.517 369.282L417.018 367.995C416.752 367.311 416.447 366.858 416.103 366.634C415.771 366.405 415.413 366.365 415.027 366.515C414.729 366.631 414.528 366.83 414.423 367.114C414.323 367.41 414.353 367.763 414.512 368.173ZM427.688 379.351L418.179 383.041L417.195 380.505L420.216 379.333L419.745 378.121L416.045 377.541L414.931 374.669L419.219 375.494C419.273 374.858 419.488 374.288 419.865 373.785C420.241 373.281 420.747 372.906 421.381 372.66C422.338 372.289 423.238 372.304 424.08 372.707C424.928 373.121 425.554 373.851 425.959 374.895L427.688 379.351ZM424.001 376.041C423.842 375.631 423.613 375.355 423.315 375.213C423.029 375.067 422.713 375.061 422.365 375.196C421.992 375.341 421.743 375.566 421.618 375.872C421.506 376.172 421.53 376.528 421.689 376.938L422.34 378.616L424.652 377.719L424.001 376.041ZM432.676 392.206L433.689 394.816L422.424 394.811C421.095 394.812 420.095 394.649 419.425 394.323C418.742 394.001 418.266 393.493 417.996 392.797C417.837 392.386 417.751 391.962 417.738 391.524L420.05 390.627C420.03 390.834 420.076 391.081 420.187 391.367C420.341 391.765 420.551 392.048 420.817 392.217C421.075 392.403 421.444 392.488 421.925 392.473L422.133 392.457L429.941 385.158L431.005 387.899L425.676 392.52L432.676 392.206ZM423.956 398.647C423.835 398.337 423.764 398.043 423.742 397.765L426.017 396.882L426.155 397.237C426.309 397.634 426.545 397.893 426.863 398.013C427.194 398.128 427.649 398.101 428.227 397.934L434.214 396.169L437 403.347L427.49 407.037L426.506 404.501L433.666 401.723L432.733 399.318L428.594 400.538C427.454 400.88 426.486 400.891 425.689 400.571C424.905 400.246 424.327 399.605 423.956 398.647ZM428.504 410.369C428.34 409.946 428.346 409.536 428.521 409.14C428.696 408.743 428.994 408.462 429.417 408.298C429.84 408.134 430.249 408.14 430.646 408.315C431.043 408.49 431.324 408.789 431.488 409.211C431.652 409.634 431.646 410.044 431.471 410.44C431.296 410.837 430.997 411.118 430.575 411.282C430.152 411.446 429.742 411.44 429.346 411.265C428.949 411.09 428.668 410.791 428.504 410.369Z" fill="#11244D"/>
<path d="M249.855 206.131L247.184 207.155L242.172 194.083L250.482 190.897L251.47 193.474L245.83 195.636L249.855 206.131ZM254.92 192.986C256.152 192.514 257.266 192.515 258.262 192.99C259.254 193.452 259.986 194.299 260.458 195.532L262.642 201.227L260.738 201.958L259.969 201.182L259.875 201.217C259.429 202.288 258.677 203.026 257.619 203.432C257.021 203.661 256.426 203.747 255.832 203.689C255.251 203.626 254.734 203.432 254.281 203.106C253.84 202.775 253.519 202.348 253.318 201.826C253.07 201.178 253.048 200.544 253.253 199.923C253.453 199.289 253.847 198.717 254.436 198.205C255.033 197.676 255.78 197.24 256.676 196.897L257.89 196.431L257.818 196.244C257.632 195.759 257.356 195.429 256.989 195.256C256.623 195.082 256.216 195.081 255.767 195.253C255.381 195.401 255.111 195.626 254.955 195.928C254.808 196.214 254.754 196.484 254.795 196.74L252.256 197.713C252.091 197.134 252.064 196.544 252.177 195.944C252.297 195.327 252.586 194.759 253.044 194.241C253.498 193.71 254.123 193.292 254.92 192.986ZM257.422 201.13C258.007 200.906 258.413 200.55 258.64 200.063C258.88 199.571 258.909 199.089 258.728 198.616L258.542 198.13L257.253 198.624C256.568 198.887 256.113 199.19 255.888 199.534C255.658 199.864 255.617 200.223 255.765 200.609C255.88 200.908 256.078 201.11 256.362 201.215C256.657 201.316 257.011 201.288 257.422 201.13ZM269.222 198.983C268.363 199.312 267.474 199.396 266.555 199.234C265.632 199.06 264.798 198.673 264.054 198.073C263.31 197.473 262.768 196.731 262.429 195.847C262.09 194.963 261.997 194.049 262.149 193.106C262.301 192.162 262.665 191.323 263.24 190.588C263.81 189.841 264.525 189.303 265.384 188.973C266.168 188.673 266.956 188.585 267.746 188.71C268.532 188.823 269.245 189.099 269.885 189.539C270.52 189.967 271.022 190.474 271.39 191.061L268.85 192.035C268.733 191.88 268.551 191.721 268.303 191.559C268.051 191.385 267.748 191.265 267.395 191.201C267.042 191.137 266.672 191.178 266.286 191.326C265.614 191.584 265.149 192.048 264.892 192.718C264.647 193.383 264.673 194.101 264.969 194.873C265.265 195.645 265.726 196.196 266.353 196.527C266.992 196.853 267.648 196.887 268.32 196.63C268.706 196.482 269.009 196.266 269.228 195.982C269.448 195.697 269.595 195.412 269.671 195.126C269.742 194.828 269.769 194.582 269.752 194.388L272.292 193.414C272.411 194.097 272.38 194.816 272.198 195.571C272.012 196.314 271.666 196.996 271.162 197.618C270.653 198.227 270.007 198.682 269.222 198.983ZM279.361 194.816L276.822 195.79L274.072 188.619L271.29 189.686L270.387 187.333L278.492 184.225L279.394 186.578L276.612 187.645L279.361 194.816ZM284.759 196.602L279.818 183.717L281.722 182.986L282.491 183.762L282.585 183.727C282.696 183.384 282.938 182.991 283.311 182.548C283.684 182.106 284.194 181.76 284.841 181.512C285.613 181.216 286.419 181.157 287.258 181.335C288.11 181.508 288.883 181.904 289.577 182.523C290.279 183.125 290.809 183.893 291.168 184.826C291.526 185.76 291.647 186.692 291.532 187.621C291.425 188.533 291.113 189.338 290.595 190.037C290.09 190.73 289.452 191.225 288.68 191.521C288.269 191.679 287.857 191.758 287.443 191.76C287.047 191.769 286.699 191.738 286.401 191.667C286.115 191.591 285.91 191.505 285.788 191.409L285.694 191.445L287.299 195.628L284.759 196.602ZM287.423 189.304C287.821 189.151 288.145 188.899 288.395 188.546C288.646 188.193 288.794 187.779 288.84 187.304C288.894 186.812 288.824 186.311 288.628 185.8C288.432 185.29 288.152 184.876 287.788 184.559C287.431 184.224 287.042 184.01 286.619 183.914C286.197 183.819 285.787 183.848 285.389 184.001C284.99 184.154 284.666 184.406 284.416 184.759C284.166 185.112 284.014 185.535 283.959 186.027C283.913 186.502 283.988 186.994 284.183 187.505C284.379 188.015 284.655 188.437 285.012 188.772C285.377 189.089 285.77 189.295 286.192 189.391C286.614 189.486 287.024 189.457 287.423 189.304ZM299.148 187.507C298.289 187.836 297.4 187.92 296.481 187.758C295.558 187.584 294.724 187.197 293.98 186.597C293.235 185.997 292.694 185.255 292.355 184.371C292.016 183.487 291.923 182.573 292.075 181.63C292.227 180.686 292.591 179.847 293.166 179.112C293.736 178.365 294.451 177.827 295.31 177.497C296.169 177.168 297.06 177.09 297.984 177.264C298.902 177.426 299.734 177.807 300.478 178.407C301.222 179.007 301.764 179.749 302.103 180.633C302.442 181.517 302.535 182.431 302.383 183.374C302.231 184.318 301.87 185.163 301.299 185.911C300.724 186.645 300.007 187.177 299.148 187.507ZM298.246 185.154C298.918 184.896 299.377 184.434 299.621 183.769C299.879 183.1 299.859 182.379 299.563 181.607C299.267 180.835 298.8 180.286 298.16 179.96C297.534 179.629 296.884 179.592 296.212 179.85C295.54 180.108 295.075 180.572 294.818 181.242C294.573 181.907 294.599 182.625 294.895 183.397C295.191 184.169 295.652 184.72 296.279 185.051C296.918 185.377 297.573 185.411 298.246 185.154ZM316.032 175.291C316.376 176.188 316.47 177.101 316.313 178.033C316.168 178.959 315.792 179.803 315.184 180.564C314.584 181.309 313.807 181.871 312.854 182.251L314.05 185.369L311.51 186.343L310.314 183.225C309.351 183.58 308.391 183.684 307.435 183.536C306.486 183.372 305.642 182.996 304.903 182.408C304.176 181.816 303.64 181.071 303.297 180.175C302.953 179.279 302.853 178.367 302.998 177.441C303.155 176.51 303.533 175.672 304.133 174.928C304.741 174.166 305.522 173.595 306.476 173.215L305.208 169.91L307.748 168.936L309.015 172.242C309.979 171.886 310.935 171.791 311.883 171.956C312.839 172.103 313.681 172.473 314.408 173.065C315.147 173.653 315.689 174.395 316.032 175.291ZM305.836 179.201C306.137 179.985 306.617 180.53 307.276 180.834C307.936 181.138 308.666 181.143 309.468 180.85L307.434 175.547C306.642 175.865 306.102 176.357 305.816 177.024C305.529 177.691 305.536 178.417 305.836 179.201ZM311.895 179.919C312.687 179.601 313.227 179.109 313.514 178.442C313.8 177.775 313.794 177.049 313.493 176.265C313.192 175.481 312.712 174.937 312.053 174.632C311.393 174.328 310.663 174.323 309.862 174.616L311.895 179.919ZM326.696 171.031C326.872 171.491 326.971 171.86 326.992 172.138L320.139 174.766C320.495 175.286 320.935 175.632 321.457 175.803C321.992 175.969 322.546 175.942 323.119 175.723C323.816 175.455 324.291 175.001 324.546 174.361L327.216 173.337C327.206 173.869 327.084 174.445 326.85 175.063C326.628 175.676 326.276 176.247 325.793 176.775C325.31 177.303 324.72 177.7 324.022 177.968C323.139 178.307 322.237 178.395 321.318 178.234C320.399 178.072 319.577 177.695 318.85 177.103C318.118 176.498 317.578 175.741 317.229 174.832C316.89 173.948 316.791 173.037 316.93 172.098C317.083 171.154 317.446 170.315 318.021 169.58C318.592 168.833 319.3 168.297 320.147 167.973C321.006 167.643 321.871 167.554 322.743 167.705C323.627 167.852 324.418 168.22 325.116 168.809C325.821 169.381 326.347 170.122 326.696 171.031ZM321.013 170.232C320.465 170.442 320.051 170.794 319.769 171.288C319.482 171.769 319.374 172.325 319.444 172.955L323.963 171.222C323.599 170.719 323.147 170.378 322.607 170.199C322.08 170.016 321.549 170.027 321.013 170.232ZM331.572 178.65L326.63 165.765L328.535 165.034L329.304 165.811L329.397 165.775C329.509 165.432 329.751 165.04 330.124 164.597C330.497 164.154 331.007 163.808 331.654 163.56C332.426 163.264 333.231 163.205 334.071 163.383C334.923 163.556 335.696 163.952 336.39 164.571C337.092 165.173 337.622 165.941 337.98 166.875C338.338 167.808 338.46 168.74 338.345 169.669C338.238 170.581 337.925 171.387 337.408 172.085C336.903 172.779 336.264 173.273 335.492 173.569C335.081 173.727 334.669 173.806 334.256 173.808C333.859 173.817 333.512 173.786 333.213 173.715C332.927 173.639 332.723 173.553 332.6 173.457L332.507 173.493L334.111 177.676L331.572 178.65ZM334.235 171.352C334.634 171.2 334.958 170.947 335.208 170.594C335.458 170.241 335.607 169.827 335.653 169.352C335.707 168.86 335.636 168.359 335.441 167.849C335.245 167.338 334.965 166.924 334.6 166.607C334.244 166.273 333.854 166.058 333.432 165.963C333.01 165.867 332.6 165.896 332.201 166.049C331.803 166.202 331.479 166.455 331.229 166.808C330.978 167.161 330.826 167.583 330.772 168.075C330.726 168.55 330.8 169.042 330.996 169.553C331.192 170.063 331.468 170.486 331.825 170.82C332.189 171.137 332.582 171.344 333.005 171.439C333.427 171.534 333.837 171.505 334.235 171.352ZM345.644 165.713L345.95 158.356L348.621 157.332L352.273 166.856L349.826 167.794L347.857 162.659L347.492 168.689L346.278 169.155L341.975 164.914L343.944 170.05L341.498 170.988L337.846 161.464L340.497 160.447L345.644 165.713ZM354.472 154.81C355.704 154.337 356.818 154.338 357.815 154.813C358.806 155.276 359.538 156.123 360.01 157.355L362.195 163.051L360.29 163.781L359.521 163.005L359.428 163.041C358.981 164.112 358.229 164.85 357.171 165.256C356.573 165.485 355.978 165.571 355.384 165.513C354.803 165.45 354.286 165.255 353.833 164.93C353.392 164.599 353.071 164.172 352.871 163.649C352.622 163.002 352.6 162.368 352.805 161.747C353.005 161.113 353.399 160.54 353.988 160.029C354.585 159.5 355.332 159.064 356.228 158.72L357.442 158.255L357.37 158.068C357.184 157.582 356.908 157.253 356.541 157.079C356.175 156.906 355.768 156.905 355.32 157.077C354.934 157.225 354.663 157.45 354.508 157.752C354.36 158.037 354.306 158.308 354.347 158.563L351.808 159.537C351.643 158.958 351.616 158.368 351.729 157.768C351.849 157.151 352.138 156.583 352.597 156.064C353.05 155.534 353.675 155.115 354.472 154.81ZM356.974 162.954C357.559 162.73 357.965 162.374 358.192 161.887C358.432 161.395 358.461 160.913 358.28 160.44L358.094 159.954L356.805 160.448C356.121 160.711 355.666 161.014 355.44 161.357C355.21 161.688 355.169 162.047 355.317 162.433C355.432 162.731 355.631 162.933 355.914 163.039C356.21 163.14 356.563 163.111 356.974 162.954Z" fill="#11244D"/>
<path d="M331.22 247.38C332.14 247.38 332.973 247.6 333.72 248.04C334.467 248.467 335.047 249.053 335.46 249.8C335.887 250.547 336.1 251.373 336.1 252.28C336.1 253.2 335.88 254.04 335.44 254.8C335 255.56 334.38 256.16 333.58 256.6C332.793 257.04 331.9 257.26 330.9 257.26C329.9 257.26 329 257.04 328.2 256.6C327.413 256.16 326.8 255.56 326.36 254.8C325.92 254.04 325.7 253.2 325.7 252.28C325.7 251.573 325.847 250.9 326.14 250.26C326.447 249.607 326.847 248.913 327.34 248.18L330.78 243H333.82L330.84 247.4L331.22 247.38ZM330.9 254.62C331.553 254.62 332.107 254.4 332.56 253.96C333.013 253.52 333.24 252.96 333.24 252.28C333.24 251.6 333.013 251.04 332.56 250.6C332.107 250.16 331.553 249.94 330.9 249.94C330.233 249.94 329.673 250.16 329.22 250.6C328.78 251.027 328.56 251.587 328.56 252.28C328.56 252.973 328.78 253.54 329.22 253.98C329.673 254.407 330.233 254.62 330.9 254.62ZM342.598 257.26C341.678 257.26 340.818 257.02 340.018 256.54C339.218 256.047 338.578 255.387 338.098 254.56C337.618 253.733 337.378 252.847 337.378 251.9C337.378 250.953 337.618 250.067 338.098 249.24C338.578 248.413 339.218 247.76 340.018 247.28C340.818 246.787 341.678 246.54 342.598 246.54C343.438 246.54 344.205 246.74 344.898 247.14C345.592 247.527 346.158 248.04 346.598 248.68C347.038 249.307 347.325 249.96 347.458 250.64H344.738C344.685 250.453 344.572 250.24 344.398 250C344.225 249.747 343.985 249.527 343.678 249.34C343.372 249.153 343.012 249.06 342.598 249.06C341.878 249.06 341.278 249.327 340.798 249.86C340.332 250.393 340.098 251.073 340.098 251.9C340.098 252.727 340.332 253.407 340.798 253.94C341.278 254.473 341.878 254.74 342.598 254.74C343.012 254.74 343.372 254.647 343.678 254.46C343.985 254.273 344.225 254.06 344.398 253.82C344.572 253.567 344.685 253.347 344.738 253.16H347.458C347.325 253.84 347.038 254.5 346.598 255.14C346.158 255.767 345.592 256.28 344.898 256.68C344.205 257.067 343.438 257.26 342.598 257.26ZM352.948 254.24H358.108V257H348.668V254.86L353.228 250.26C353.801 249.687 354.221 249.24 354.488 248.92C354.768 248.6 354.968 248.3 355.088 248.02C355.221 247.727 355.288 247.407 355.288 247.06C355.288 246.567 355.101 246.167 354.728 245.86C354.368 245.54 353.901 245.38 353.328 245.38C352.714 245.38 352.208 245.567 351.808 245.94C351.421 246.313 351.228 246.8 351.228 247.4H348.488C348.488 246.52 348.694 245.727 349.108 245.02C349.534 244.313 350.114 243.76 350.848 243.36C351.594 242.947 352.421 242.74 353.328 242.74C354.288 242.74 355.128 242.927 355.848 243.3C356.581 243.66 357.148 244.16 357.548 244.8C357.948 245.427 358.148 246.133 358.148 246.92C358.148 247.56 358.028 248.153 357.788 248.7C357.561 249.247 357.248 249.76 356.848 250.24C356.461 250.707 355.941 251.267 355.288 251.92L352.948 254.24Z" fill="#8712FC"/>
<path fill-rule="evenodd" clip-rule="evenodd" d="M347.948 230.151C351.702 226.231 354.941 221.407 354.941 216.727C354.941 209.729 349.179 204 342 204C334.822 204 329.059 209.729 329.059 216.727C329.059 218.746 329.815 220.977 331.139 223.295C332.453 225.597 334.238 227.83 336.077 229.81C337.909 231.783 339.75 233.454 341.136 234.634C341.472 234.921 341.781 235.177 342.055 235.401C342.315 235.203 342.606 234.976 342.922 234.724C344.299 233.626 346.127 232.053 347.948 230.151ZM342 238.353C342 238.353 357.294 228.03 357.294 216.727C357.294 208.398 350.447 201.647 342 201.647C333.553 201.647 326.706 208.398 326.706 216.727C326.706 227.052 342 238.353 342 238.353Z" fill="#8712FC"/>
<path fill-rule="evenodd" clip-rule="evenodd" d="M337.059 217.176C337.059 219.601 339.12 221.647 341.765 221.647C344.41 221.647 346.471 219.601 346.471 217.176H348.824C348.824 220.99 345.618 224 341.765 224C337.912 224 334.706 220.99 334.706 217.176H337.059Z" fill="#8712FC"/>
<rect x="166" y="323" width="20" height="20" rx="10" fill="#FFA900"/>
<path fill-rule="evenodd" clip-rule="evenodd" d="M171.755 328.02H180.97V328.843H179.346V331.786H180.97V332.609H179.346V334.358C179.346 334.778 179.005 335.119 178.584 335.119H172.516C172.096 335.119 171.755 334.778 171.755 334.358V328.02ZM178.523 328.843H172.577V334.297H178.523V328.843ZM181.924 328.972V331.694H181.101V328.972H181.924ZM170.524 336.807H181.191V337.63H170.524V336.807Z" fill="white"/>
<rect x="43.1406" y="311.723" width="20" height="20" rx="10" fill="#FFA900"/>
<path fill-rule="evenodd" clip-rule="evenodd" d="M49.6992 315.578H56.5821L57.7554 322.194C57.8761 322.874 57.3526 323.499 56.6612 323.499H49.62C48.9286 323.499 48.4051 322.874 48.5258 322.194L49.6992 315.578ZM50.3886 316.401L49.3357 322.337C49.3043 322.514 49.4403 322.677 49.62 322.677H56.6612C56.8409 322.677 56.9769 322.514 56.9456 322.337L55.8926 316.401H50.3886ZM55.5472 319.281L54.2112 320.198L50.832 319.408L51.0193 318.607L54.0451 319.314L55.0818 318.603L55.5472 319.281ZM53.5609 324.285V326.205L56.3149 327.212L56.0325 327.985L53.1504 326.931L50.297 327.985L50.0119 327.214L52.7384 326.206V324.285H53.5609Z" fill="white"/>
<rect x="99.1807" y="247" width="20" height="20" rx="10" fill="#FFA900"/>
<path fill-rule="evenodd" clip-rule="evenodd" d="M105.739 250.855H112.622L113.795 257.47C113.916 258.151 113.393 258.776 112.701 258.776H105.66C104.969 258.776 104.445 258.151 104.566 257.47L105.739 250.855ZM106.429 251.677L105.376 257.614C105.344 257.791 105.48 257.953 105.66 257.953H112.701C112.881 257.953 113.017 257.791 112.986 257.614L111.933 251.677H106.429ZM111.587 254.558L110.251 255.475L106.872 254.684L107.059 253.884L110.085 254.591L111.122 253.88L111.587 254.558ZM109.601 259.561V261.482L112.355 262.489L112.073 263.261L109.19 262.208L106.337 263.262L106.052 262.491L108.778 261.483V259.561H109.601Z" fill="white"/>
<rect x="387" y="247" width="20" height="20" rx="10" fill="#FFA900"/>
<path fill-rule="evenodd" clip-rule="evenodd" d="M393.559 250.855H400.441L401.615 257.47C401.736 258.151 401.212 258.776 400.521 258.776H393.479C392.788 258.776 392.264 258.151 392.385 257.47L393.559 250.855ZM394.248 251.677L393.195 257.614C393.164 257.791 393.3 257.953 393.479 257.953H400.521C400.7 257.953 400.836 257.791 400.805 257.614L399.752 251.677H394.248ZM399.407 254.558L398.071 255.475L394.691 254.684L394.879 253.884L397.904 254.591L398.941 253.88L399.407 254.558ZM397.42 259.561V261.482L400.174 262.489L399.892 263.261L397.01 262.208L394.156 263.262L393.871 262.491L396.598 261.483V259.561H397.42Z" fill="white"/>
<rect x="410" y="190" width="20" height="20" rx="10" fill="#FFA900"/>
<path fill-rule="evenodd" clip-rule="evenodd" d="M415.755 195.02H424.97V195.843H423.346V198.786H424.97V199.609H423.346V201.358C423.346 201.778 423.005 202.119 422.584 202.119H416.516C416.096 202.119 415.755 201.778 415.755 201.358V195.02ZM422.523 195.843H416.577V201.297H422.523V195.843ZM425.924 195.972V198.694H425.101V195.972H425.924ZM414.524 203.807H425.191V204.63H414.524V203.807Z" fill="white"/>
<rect x="362" y="215" width="20" height="20" rx="10" fill="#FFA900"/>
<path fill-rule="evenodd" clip-rule="evenodd" d="M367.755 220.02H376.97V220.843H375.346V223.786H376.97V224.609H375.346V226.358C375.346 226.778 375.005 227.119 374.584 227.119H368.516C368.096 227.119 367.755 226.778 367.755 226.358V220.02ZM374.523 220.843H368.577V226.297H374.523V220.843ZM377.924 220.972V223.694H377.101V220.972H377.924ZM366.524 228.807H377.191V229.63H366.524V228.807Z" fill="white"/>
<rect x="179" y="220" width="20" height="20" rx="10" fill="#FFA900"/>
<path fill-rule="evenodd" clip-rule="evenodd" d="M184.755 225.02H193.97V225.843H192.346V228.786H193.97V229.609H192.346V231.358C192.346 231.778 192.005 232.119 191.584 232.119H185.516C185.096 232.119 184.755 231.778 184.755 231.358V225.02ZM191.523 225.843H185.577V231.297H191.523V225.843ZM194.924 225.972V228.694H194.101V225.972H194.924ZM183.524 233.807H194.191V234.63H183.524V233.807Z" fill="white"/>
</g>
<defs>
<clipPath id="clip0_1920_309704">
<rect width="717" height="422" fill="white"/>
</clipPath>
</defs>
</svg>
