<svg width="717" height="422" viewBox="0 0 717 422" fill="none" xmlns="http://www.w3.org/2000/svg">
<g clip-path="url(#clip0_1920_307190)">
<path d="M409.455 52.1259C409.847 52.7104 410.064 53.3516 410.106 54.0494C410.154 54.7359 409.956 55.4429 409.51 56.1705C409.127 56.7958 408.592 57.2733 407.905 57.6031C407.218 57.9329 406.45 58.064 405.6 57.9967C404.768 57.9249 403.932 57.6313 403.09 57.1158C402.226 56.5863 401.577 55.9617 401.142 55.2419C400.708 54.5221 400.479 53.7722 400.457 52.9922C400.446 52.2192 400.614 51.4856 400.961 50.7914L403.399 52.2856C403.218 52.6589 403.207 53.0979 403.367 53.6025C403.533 54.0957 403.895 54.5129 404.453 54.8543C405.021 55.2026 405.551 55.3322 406.044 55.243C406.548 55.1608 406.939 54.8923 407.218 54.4376C407.503 53.9714 407.565 53.5009 407.402 53.0261C407.24 52.5512 406.852 52.1257 406.238 51.7495L405.283 51.1643L406.516 49.1521L407.385 49.685C407.931 50.0193 408.432 50.1463 408.888 50.066C409.355 49.9926 409.714 49.7512 409.965 49.342C410.215 48.9327 410.273 48.5067 410.138 48.0641C410.021 47.6171 409.723 47.2473 409.246 46.9548C408.746 46.6483 408.256 46.5282 407.778 46.5947C407.318 46.6567 406.951 46.8465 406.678 47.1641L404.24 45.6699C404.668 45.0724 405.228 44.618 405.919 44.3066C406.618 43.9838 407.375 43.8457 408.191 43.8921C409.018 43.9456 409.818 44.2091 410.591 44.6828C411.387 45.1705 411.994 45.7615 412.413 46.456C412.832 47.1505 413.052 47.8638 413.072 48.5957C413.093 49.3277 412.919 49.9949 412.55 50.5975C412.222 51.1318 411.784 51.5279 411.235 51.7858C410.704 52.0392 410.111 52.1526 409.455 52.1259ZM420.622 61.2202L421.263 67.9458L418.415 66.2008L418.018 60.6094L415.635 64.4976L413.316 63.0765L418.645 54.3793L420.964 55.8004L418.77 59.3816L423.573 57.3991L426.217 59.0188L420.622 61.2202ZM425.581 70.8965C424.796 70.4158 424.188 69.7618 423.757 68.9346C423.333 68.096 423.132 67.1989 423.154 66.2432C423.177 65.2876 423.436 64.4061 423.93 63.5989C424.425 62.7918 425.093 62.1611 425.934 61.707C426.775 61.2529 427.662 61.0302 428.595 61.0389C429.535 61.0363 430.397 61.2752 431.181 61.7559C431.966 62.2366 432.57 62.8962 432.995 63.7348C433.426 64.5621 433.63 65.4535 433.608 66.4092C433.585 67.3648 433.327 68.2462 432.832 69.0534C432.337 69.8606 431.669 70.4913 430.828 70.9453C429.987 71.3994 429.097 71.6278 428.157 71.6305C427.224 71.6218 426.365 71.3771 425.581 70.8965ZM426.897 68.7478C427.511 69.1239 428.156 69.2065 428.833 68.9956C429.521 68.7916 430.081 68.3372 430.513 67.6323C430.945 66.9275 431.095 66.2223 430.965 65.5167C430.845 64.8182 430.479 64.2808 429.865 63.9046C429.251 63.5285 428.6 63.4424 427.912 63.6463C427.235 63.8573 426.681 64.3152 426.249 65.02C425.817 65.7249 425.661 66.4266 425.78 67.1252C425.911 67.8307 426.283 68.3716 426.897 68.7478ZM430.976 74.2027C430.692 74.0285 430.457 73.8377 430.272 73.6301L431.546 71.5496L431.87 71.7482C432.234 71.9711 432.579 72.0337 432.905 71.9362C433.237 71.8272 433.583 71.5309 433.942 71.0471L437.635 66.0152L444.201 70.0382L438.871 78.7354L436.552 77.3143L440.565 70.7658L438.365 69.4179L435.811 72.8962C435.112 73.8593 434.348 74.4547 433.52 74.6826C432.7 74.899 431.852 74.7391 430.976 74.2027ZM448.714 76.4394C449.294 76.7947 449.737 77.2459 450.043 77.793C450.36 78.347 450.506 78.9372 450.482 79.5636C450.476 80.1855 450.299 80.7807 449.951 81.3491C449.596 81.9289 449.139 82.3683 448.581 82.6673C448.04 82.9618 447.451 83.0935 446.814 83.0624C446.187 83.0383 445.584 82.8486 445.005 82.4933L440.878 79.9646L446.207 71.2674L448.526 72.6885L446.906 75.3318L448.714 76.4394ZM445.759 80.3051C446.134 80.5349 446.483 80.6159 446.806 80.5481C447.148 80.4758 447.423 80.2691 447.632 79.928C447.834 79.5983 447.886 79.2707 447.789 78.9451C447.709 78.615 447.482 78.3351 447.107 78.1052L445.726 77.2588L444.378 79.4587L445.759 80.3051ZM457.172 92.9514L454.938 91.5826L456.276 89.3997L449.438 85.2096L454.767 76.5124L457.086 77.9335L453.073 84.482L456.143 86.3629L460.155 79.8144L462.475 81.2355L458.462 87.7839L459.827 88.6199L457.172 92.9514ZM463.584 94.1827C462.8 93.702 462.192 93.0481 461.76 92.2208C461.336 91.3822 461.135 90.4851 461.158 89.5294C461.18 88.5738 461.439 87.6923 461.934 86.8852C462.428 86.078 463.096 85.4473 463.937 84.9932C464.778 84.5392 465.665 84.3165 466.598 84.3251C467.538 84.3225 468.4 84.5615 469.185 85.0421C469.969 85.5228 470.574 86.1824 470.998 87.021C471.429 87.8483 471.634 88.7397 471.611 89.6954C471.589 90.651 471.33 91.5325 470.835 92.3396C470.341 93.1468 469.673 93.7775 468.832 94.2316C467.991 94.6856 467.1 94.914 466.16 94.9167C465.227 94.908 464.369 94.6633 463.584 94.1827ZM464.901 92.034C465.515 92.4101 466.16 92.4928 466.836 92.2818C467.524 92.0778 468.084 91.6234 468.516 90.9186C468.948 90.2137 469.099 89.5085 468.968 88.8029C468.849 88.1044 468.482 87.567 467.868 87.1908C467.254 86.8147 466.603 86.7286 465.916 86.9325C465.239 87.1435 464.685 87.6014 464.253 88.3063C463.821 89.0111 463.665 89.7128 463.784 90.4114C463.915 91.1169 464.287 91.6578 464.901 92.034Z" fill="#11244D"/>
<path d="M566.212 151.471C565.861 151.051 565.641 150.714 565.55 150.46L567.592 148.755L567.836 149.047C568.22 149.508 568.675 149.762 569.201 149.809C569.737 149.848 570.304 149.653 570.901 149.224L578.441 143.868L584.579 151.223L573.832 160.194L571.999 157.999L580.628 150.796L577.988 147.633L572.24 151.702C571.057 152.532 569.939 152.919 568.883 152.862C567.837 152.815 566.946 152.351 566.212 151.471ZM585.715 166.222C585.336 166.538 585.019 166.751 584.763 166.861L580.059 161.226C579.682 161.731 579.498 162.259 579.505 162.809C579.521 163.369 579.725 163.884 580.118 164.355C580.597 164.928 581.18 165.231 581.868 165.265L583.701 167.461C583.194 167.623 582.61 167.694 581.949 167.672C581.297 167.661 580.643 167.512 579.987 167.226C579.332 166.939 578.764 166.509 578.286 165.936C577.679 165.21 577.304 164.385 577.16 163.464C577.016 162.542 577.106 161.641 577.432 160.762C577.767 159.874 578.309 159.118 579.056 158.494C579.783 157.888 580.613 157.498 581.546 157.327C582.489 157.166 583.4 157.238 584.282 157.545C585.173 157.843 585.909 158.34 586.49 159.036C587.08 159.742 587.444 160.532 587.583 161.406C587.73 162.291 587.638 163.158 587.306 164.008C586.992 164.86 586.462 165.598 585.715 166.222ZM584.632 160.587C584.256 160.136 583.789 159.858 583.231 159.751C582.683 159.635 582.122 159.712 581.549 159.982L584.65 163.698C585.008 163.191 585.185 162.653 585.179 162.084C585.182 161.526 585 161.027 584.632 160.587ZM595.156 177.782C594.419 178.397 593.584 178.781 592.652 178.934C591.729 179.097 590.809 179.014 589.892 178.685C588.993 178.358 588.21 177.805 587.542 177.025L584.978 179.166L583.235 177.077L585.799 174.937C585.151 174.14 584.743 173.266 584.573 172.313C584.422 171.363 584.505 170.442 584.822 169.553C585.147 168.673 585.678 167.926 586.415 167.311C587.152 166.696 587.982 166.306 588.906 166.144C589.838 165.991 590.753 166.078 591.651 166.405C592.568 166.734 593.361 167.288 594.029 168.068L596.746 165.799L598.489 167.887L595.772 170.156C596.42 170.952 596.819 171.826 596.97 172.777C597.14 173.729 597.062 174.645 596.737 175.525C596.42 176.414 595.893 177.167 595.156 177.782ZM588.158 169.399C587.513 169.937 587.154 170.567 587.079 171.29C587.005 172.012 587.236 172.705 587.772 173.368L592.133 169.728C591.576 169.082 590.935 168.731 590.211 168.675C589.487 168.619 588.803 168.861 588.158 169.399ZM589.438 175.364C589.995 176.011 590.636 176.362 591.36 176.418C592.084 176.473 592.768 176.232 593.413 175.694C594.058 175.156 594.417 174.525 594.492 173.803C594.566 173.081 594.335 172.388 593.799 171.724L589.438 175.364ZM595.207 186.208C594.618 185.502 594.251 184.688 594.107 183.766C593.973 182.836 594.07 181.922 594.397 181.023C594.724 180.125 595.25 179.373 595.977 178.766C596.704 178.16 597.538 177.776 598.481 177.614C599.423 177.453 600.335 177.526 601.216 177.832C602.107 178.13 602.848 178.633 603.437 179.339C604.027 180.045 604.388 180.863 604.522 181.794C604.667 182.715 604.575 183.625 604.248 184.524C603.921 185.422 603.394 186.174 602.667 186.781C601.941 187.388 601.106 187.772 600.164 187.933C599.222 188.094 598.305 188.026 597.413 187.728C596.532 187.421 595.797 186.915 595.207 186.208ZM597.142 184.593C597.603 185.146 598.188 185.431 598.897 185.447C599.614 185.474 600.29 185.223 600.924 184.693C601.559 184.163 601.927 183.543 602.029 182.833C602.139 182.133 601.964 181.506 601.503 180.954C601.041 180.401 600.452 180.111 599.735 180.084C599.026 180.068 598.355 180.325 597.72 180.854C597.086 181.384 596.713 181.999 596.603 182.699C596.501 183.409 596.681 184.041 597.142 184.593ZM597.154 193.752L607.748 184.909L609.055 186.475L608.57 187.454L608.634 187.531C608.994 187.525 609.444 187.627 609.983 187.837C610.523 188.046 611.015 188.417 611.459 188.949C611.989 189.584 612.305 190.327 612.409 191.179C612.52 192.041 612.395 192.901 612.034 193.758C611.692 194.617 611.137 195.367 610.369 196.008C609.601 196.649 608.759 197.065 607.843 197.257C606.945 197.451 606.082 197.415 605.254 197.151C604.434 196.898 603.759 196.454 603.23 195.819C602.948 195.481 602.739 195.117 602.604 194.726C602.467 194.354 602.384 194.015 602.355 193.71C602.334 193.414 602.349 193.193 602.4 193.046L602.336 192.97L598.897 195.84L597.154 193.752ZM604.921 193.912C605.194 194.24 605.538 194.465 605.953 194.588C606.368 194.71 606.808 194.717 607.272 194.607C607.755 194.499 608.206 194.27 608.626 193.92C609.046 193.569 609.347 193.17 609.529 192.723C609.73 192.277 609.807 191.839 609.761 191.409C609.715 190.979 609.555 190.6 609.281 190.273C609.008 189.945 608.664 189.72 608.249 189.597C607.834 189.475 607.385 189.467 606.902 189.575C606.437 189.685 605.995 189.915 605.576 190.265C605.156 190.616 604.846 191.014 604.645 191.459C604.462 191.907 604.394 192.346 604.441 192.776C604.487 193.206 604.647 193.585 604.921 193.912ZM610.415 204.021L608.672 201.933L614.568 197.012L612.658 194.724L614.593 193.109L620.155 199.773L618.22 201.387L616.311 199.1L610.415 204.021ZM615.783 210.859C615.194 210.152 614.827 209.338 614.683 208.417C614.549 207.486 614.646 206.572 614.973 205.674C615.3 204.776 615.827 204.023 616.553 203.416C617.28 202.81 618.115 202.426 619.057 202.265C619.999 202.103 620.911 202.176 621.792 202.483C622.683 202.781 623.424 203.283 624.013 203.989C624.603 204.695 624.964 205.514 625.098 206.444C625.243 207.366 625.151 208.276 624.824 209.174C624.497 210.072 623.97 210.825 623.243 211.431C622.517 212.038 621.682 212.422 620.74 212.583C619.798 212.744 618.881 212.676 617.99 212.378C617.108 212.071 616.373 211.565 615.783 210.859ZM617.718 209.244C618.179 209.797 618.764 210.081 619.473 210.098C620.19 210.124 620.866 209.873 621.5 209.343C622.135 208.813 622.503 208.193 622.605 207.483C622.715 206.783 622.54 206.157 622.079 205.604C621.617 205.051 621.028 204.761 620.311 204.735C619.603 204.718 618.931 204.975 618.296 205.505C617.662 206.034 617.289 206.649 617.179 207.349C617.077 208.06 617.257 208.691 617.718 209.244ZM629.092 218.063C629.239 218.531 629.252 219.015 629.131 219.515C629.021 220.007 628.735 220.445 628.274 220.829C627.865 221.171 627.397 221.38 626.869 221.455C626.342 221.531 625.817 221.465 625.297 221.257C624.786 221.04 624.334 220.697 623.941 220.226L620.494 216.096L628.324 209.559L631.528 213.398C631.921 213.869 632.174 214.37 632.287 214.9C632.409 215.441 632.396 215.956 632.248 216.445C632.11 216.924 631.851 217.322 631.473 217.639C631.094 217.955 630.684 218.14 630.244 218.195C629.804 218.25 629.419 218.206 629.092 218.063ZM628.452 212.865L626.855 214.198L628.035 215.611C628.257 215.877 628.504 216.027 628.775 216.061C629.055 216.105 629.328 216.016 629.594 215.794C629.819 215.606 629.935 215.37 629.942 215.087C629.957 214.814 629.854 214.544 629.631 214.278L628.452 212.865ZM625.133 218.502C625.364 218.778 625.624 218.934 625.914 218.97C626.205 219.005 626.488 218.908 626.764 218.677C627.01 218.472 627.142 218.214 627.161 217.903C627.188 217.603 627.09 217.319 626.868 217.053L625.458 215.364L623.723 216.813L625.133 218.502ZM629.989 227.877C629.399 227.171 629.033 226.357 628.888 225.435C628.755 224.505 628.851 223.59 629.178 222.692C629.505 221.794 630.032 221.041 630.759 220.435C631.486 219.828 632.32 219.444 633.262 219.283C634.204 219.122 635.116 219.194 635.997 219.501C636.889 219.799 637.629 220.301 638.219 221.007C638.757 221.652 639.095 222.369 639.232 223.158C639.379 223.938 639.348 224.702 639.139 225.45C638.94 226.189 638.622 226.828 638.185 227.366L636.442 225.278C636.552 225.117 636.643 224.893 636.716 224.607C636.799 224.311 636.814 223.986 636.761 223.631C636.708 223.276 636.549 222.94 636.284 222.622C635.823 222.07 635.234 221.78 634.516 221.753C633.808 221.737 633.136 221.993 632.502 222.523C631.867 223.053 631.495 223.668 631.384 224.368C631.282 225.078 631.462 225.709 631.924 226.262C632.188 226.579 632.491 226.796 632.831 226.912C633.17 227.028 633.488 227.075 633.783 227.054C634.089 227.025 634.33 226.971 634.508 226.892L636.251 228.981C635.643 229.314 634.953 229.517 634.18 229.589C633.417 229.653 632.659 229.547 631.908 229.271C631.167 228.986 630.527 228.522 629.989 227.877ZM641.927 233.347L640.384 239.924L638.243 237.36L639.655 231.935L636.154 234.857L634.411 232.769L642.242 226.233L643.985 228.321L640.76 231.012L645.946 230.67L647.932 233.05L641.927 233.347ZM645.563 240.23L653.311 239.494L654.849 241.336L647.018 247.873L645.34 245.861L650.268 241.747L642.52 242.483L640.982 240.641L648.813 234.105L650.491 236.116L645.563 240.23ZM653.11 249.272L660.858 248.535L662.396 250.378L654.566 256.914L652.887 254.903L657.815 250.789L650.067 251.525L648.529 249.682L656.36 243.146L658.039 245.158L653.11 249.272ZM660.49 246.003C659.9 245.297 659.619 244.533 659.646 243.712C659.682 242.882 660.008 242.159 660.622 241.542L661.852 243.016C661.631 243.271 661.5 243.562 661.461 243.89C661.422 244.218 661.544 244.55 661.826 244.888C662.108 245.226 662.413 245.405 662.743 245.425C663.072 245.445 663.382 245.369 663.672 245.196L664.903 246.67C664.186 247.164 663.416 247.355 662.593 247.243C661.781 247.123 661.079 246.709 660.49 246.003ZM662.356 266.247L660.612 264.158L666.508 259.237L664.599 256.949L666.533 255.334L672.096 261.998L670.161 263.613L668.251 261.325L662.356 266.247ZM667.724 273.084C667.135 272.378 666.768 271.564 666.624 270.642C666.49 269.712 666.586 268.798 666.913 267.899C667.24 267.001 667.767 266.249 668.494 265.642C669.221 265.035 670.055 264.651 670.998 264.49C671.94 264.329 672.851 264.402 673.733 264.708C674.624 265.006 675.364 265.508 675.954 266.215C676.544 266.921 676.905 267.739 677.039 268.67C677.183 269.591 677.092 270.501 676.765 271.4C676.438 272.298 675.911 273.05 675.184 273.657C674.457 274.263 673.623 274.647 672.681 274.809C671.738 274.97 670.822 274.901 669.93 274.603C669.049 274.297 668.314 273.79 667.724 273.084ZM669.659 271.469C670.12 272.022 670.705 272.307 671.414 272.323C672.131 272.35 672.807 272.098 673.441 271.569C674.076 271.039 674.444 270.419 674.546 269.709C674.656 269.009 674.481 268.382 674.019 267.83C673.558 267.277 672.969 266.987 672.252 266.96C671.543 266.944 670.872 267.2 670.237 267.73C669.602 268.26 669.23 268.875 669.12 269.575C669.018 270.285 669.197 270.917 669.659 271.469ZM681.528 279.353L684.507 276.867L686.25 278.955L678.42 285.492L676.677 283.403L679.594 280.968L677.095 277.974L674.177 280.409L672.434 278.321L680.265 271.785L682.008 273.873L679.029 276.359L681.528 279.353ZM689.025 288.335L692.004 285.849L693.747 287.937L685.917 294.473L684.174 292.385L687.091 289.95L684.592 286.956L681.674 289.391L679.931 287.303L687.762 280.766L689.505 282.855L686.526 285.341L689.025 288.335ZM697.657 300.329C697.278 300.646 696.961 300.858 696.705 300.968L692.001 295.333C691.624 295.839 691.439 296.366 691.447 296.916C691.462 297.476 691.667 297.991 692.06 298.462C692.538 299.035 693.122 299.339 693.81 299.372L695.642 301.568C695.136 301.731 694.552 301.801 693.891 301.779C693.239 301.768 692.585 301.619 691.929 301.333C691.273 301.047 690.706 300.617 690.228 300.044C689.621 299.317 689.246 298.493 689.102 297.571C688.957 296.649 689.048 295.748 689.373 294.869C689.709 293.981 690.25 293.225 690.998 292.601C691.724 291.995 692.555 291.606 693.488 291.434C694.43 291.273 695.342 291.346 696.223 291.652C697.115 291.95 697.851 292.447 698.432 293.143C699.021 293.85 699.386 294.64 699.525 295.514C699.672 296.398 699.58 297.265 699.248 298.116C698.934 298.968 698.404 299.706 697.657 300.329ZM696.574 294.694C696.198 294.244 695.731 293.965 695.173 293.858C694.625 293.742 694.064 293.82 693.49 294.09L696.592 297.805C696.95 297.298 697.126 296.76 697.121 296.192C697.124 295.633 696.941 295.134 696.574 294.694ZM694.133 304.722C693.919 304.466 693.758 304.21 693.648 303.954L695.521 302.39L695.765 302.682C696.038 303.01 696.345 303.179 696.684 303.191C697.034 303.194 697.457 303.024 697.952 302.68L703.06 299.094L707.994 305.005L700.164 311.541L698.421 309.453L704.317 304.532L702.663 302.551L699.132 305.03C698.161 305.719 697.247 306.039 696.39 305.99C695.543 305.933 694.791 305.51 694.133 304.722ZM710.224 312.513C710.659 313.035 710.935 313.604 711.05 314.221C711.173 314.847 711.123 315.453 710.9 316.039C710.696 316.626 710.337 317.134 709.826 317.561C709.304 317.997 708.73 318.267 708.106 318.371C707.5 318.478 706.899 318.414 706.305 318.181C705.719 317.958 705.209 317.585 704.773 317.063L701.671 313.347L709.502 306.811L711.245 308.899L708.865 310.886L710.224 312.513ZM706.188 315.231C706.469 315.569 706.774 315.757 707.102 315.796C707.449 315.837 707.776 315.729 708.083 315.473C708.379 315.225 708.534 314.931 708.545 314.591C708.576 314.253 708.45 313.916 708.168 313.578L707.13 312.334L705.149 313.987L706.188 315.231Z" fill="#11244D"/>
<path d="M171.63 248.267L174.979 245.463L176.448 247.217L167.861 254.407L166.392 252.653L169.937 249.685L166.999 246.176L163.454 249.145L161.985 247.391L170.572 240.2L172.041 241.954L168.692 244.759L171.63 248.267ZM172.849 255.654L179.047 255.056L180.28 256.528L174.023 261.767L172.678 260.16L176.615 256.862L170.418 257.461L169.185 255.989L175.441 250.75L176.787 252.357L172.849 255.654ZM183.633 266.489L182.219 271.554L180.617 269.641L181.918 265.337L179.035 267.751L177.689 266.144L180.572 263.73L176.107 264.255L174.505 262.342L179.74 261.84L180.987 257.373L182.507 259.188L181.32 263.104L183.945 260.906L185.291 262.513L182.666 264.711L186.729 264.23L188.249 266.046L183.633 266.489ZM189.974 272.94L192.354 270.947L193.751 272.615L187.495 277.854L186.098 276.186L188.428 274.234L186.425 271.842L184.095 273.794L182.698 272.125L188.954 266.887L190.351 268.555L187.971 270.548L189.974 272.94ZM199.113 279.018L192.856 284.257L191.459 282.589L193.447 280.925L192.779 280.127L189.826 280.638L188.244 278.749L191.705 278.272C191.582 277.776 191.599 277.289 191.755 276.811C191.911 276.333 192.197 275.919 192.614 275.57C193.244 275.042 193.93 274.823 194.672 274.911C195.42 275.008 196.082 275.4 196.657 276.087L199.113 279.018ZM195.468 277.458C195.242 277.188 194.998 277.038 194.736 277.007C194.482 276.969 194.24 277.046 194.011 277.238C193.766 277.443 193.635 277.678 193.62 277.942C193.612 278.198 193.721 278.462 193.947 278.732L194.872 279.836L196.393 278.562L195.468 277.458ZM204.479 285.427L198.223 290.666L196.826 288.998L198.813 287.334L198.146 286.536L195.193 287.047L193.611 285.158L197.072 284.681C196.949 284.185 196.966 283.699 197.122 283.22C197.278 282.742 197.564 282.328 197.981 281.979C198.611 281.451 199.297 281.232 200.038 281.32C200.787 281.417 201.449 281.809 202.024 282.496L204.479 285.427ZM200.835 283.867C200.609 283.597 200.365 283.447 200.103 283.416C199.849 283.378 199.607 283.455 199.378 283.647C199.133 283.853 199.002 284.087 198.987 284.351C198.979 284.607 199.088 284.871 199.314 285.141L200.239 286.245L201.76 284.971L200.835 283.867ZM209.433 295.082L207.801 302.104L205.973 299.921L207.462 293.874L203.61 297.099L202.141 295.345L210.728 288.155L212.197 289.909L208.48 293.021L214.447 292.595L216.183 294.668L209.433 295.082ZM206.08 304.534L214.544 297.447L215.592 298.698L215.204 299.481L215.256 299.543C215.544 299.538 215.904 299.619 216.336 299.786C216.768 299.953 217.162 300.249 217.518 300.674C217.942 301.181 218.197 301.776 218.28 302.457C218.371 303.146 218.272 303.834 217.984 304.52C217.711 305.208 217.268 305.809 216.655 306.322C216.041 306.836 215.368 307.17 214.635 307.325C213.917 307.481 213.227 307.454 212.564 307.244C211.908 307.042 211.367 306.687 210.943 306.18C210.717 305.91 210.549 305.619 210.441 305.307C210.331 305.009 210.264 304.738 210.24 304.494C210.223 304.258 210.235 304.081 210.276 303.963L210.224 303.902L207.477 306.203L206.08 304.534ZM212.293 304.653C212.512 304.915 212.788 305.094 213.12 305.192C213.452 305.289 213.804 305.294 214.175 305.206C214.561 305.119 214.922 304.935 215.258 304.654C215.593 304.373 215.833 304.054 215.978 303.696C216.139 303.339 216.2 302.988 216.162 302.644C216.125 302.3 215.996 301.997 215.777 301.736C215.558 301.474 215.282 301.294 214.95 301.197C214.618 301.099 214.259 301.094 213.873 301.181C213.501 301.269 213.148 301.454 212.813 301.734C212.477 302.015 212.23 302.334 212.069 302.691C211.924 303.049 211.87 303.4 211.908 303.744C211.946 304.088 212.074 304.391 212.293 304.653ZM222.927 307.134C223.605 307.944 223.894 308.787 223.794 309.664C223.701 310.534 223.25 311.308 222.441 311.986L218.699 315.119L217.652 313.868L218.039 313.085L217.988 313.023C217.061 312.964 216.307 312.587 215.725 311.892C215.397 311.499 215.177 311.071 215.067 310.607C214.963 310.151 214.976 309.709 215.105 309.281C215.24 308.862 215.48 308.508 215.823 308.22C216.248 307.864 216.723 307.683 217.246 307.676C217.777 307.663 218.313 307.812 218.853 308.125C219.408 308.439 219.932 308.891 220.425 309.479L221.093 310.277L221.216 310.174C221.534 309.907 221.712 309.612 221.748 309.29C221.784 308.968 221.679 308.659 221.432 308.365C221.22 308.111 220.979 307.965 220.71 307.926C220.456 307.888 220.238 307.918 220.055 308.016L218.658 306.347C219.053 306.072 219.493 305.899 219.976 305.828C220.474 305.758 220.979 305.83 221.49 306.041C222.01 306.246 222.489 306.611 222.927 307.134ZM217.416 311.144C217.738 311.528 218.112 311.743 218.54 311.789C218.974 311.842 219.347 311.739 219.658 311.479L219.977 311.212L219.268 310.365C218.891 309.915 218.544 309.65 218.225 309.569C217.915 309.481 217.633 309.543 217.38 309.755C217.183 309.919 217.082 310.122 217.076 310.364C217.076 310.614 217.19 310.874 217.416 311.144ZM222.108 319.514C221.636 318.95 221.341 318.299 221.225 317.562C221.116 316.818 221.192 316.086 221.453 315.367C221.713 314.648 222.134 314.046 222.715 313.559C223.295 313.073 223.962 312.765 224.716 312.635C225.47 312.505 226.199 312.562 226.904 312.806C227.618 313.043 228.211 313.444 228.683 314.008C229.115 314.523 229.386 315.096 229.497 315.727C229.615 316.351 229.592 316.962 229.425 317.561C229.267 318.152 229.013 318.664 228.665 319.095L227.268 317.427C227.355 317.298 227.427 317.119 227.486 316.889C227.552 316.653 227.564 316.393 227.521 316.109C227.478 315.825 227.35 315.556 227.138 315.302C226.768 314.861 226.296 314.63 225.722 314.609C225.156 314.597 224.619 314.803 224.112 315.228C223.605 315.652 223.307 316.145 223.22 316.705C223.139 317.273 223.284 317.778 223.654 318.22C223.866 318.473 224.108 318.646 224.38 318.738C224.652 318.831 224.906 318.868 225.143 318.851C225.387 318.827 225.58 318.784 225.722 318.721L227.119 320.389C226.633 320.657 226.081 320.82 225.463 320.879C224.852 320.931 224.247 320.847 223.645 320.627C223.052 320.4 222.54 320.029 222.108 319.514ZM232.928 324.237L235.308 322.244L236.705 323.912L230.449 329.151L229.052 327.483L231.383 325.531L229.38 323.139L227.049 325.091L225.652 323.422L231.908 318.183L233.305 319.852L230.925 321.845L232.928 324.237ZM233.905 333.602C233.432 333.038 233.138 332.387 233.022 331.65C232.913 330.906 232.989 330.174 233.25 329.455C233.51 328.736 233.931 328.134 234.512 327.647C235.092 327.161 235.759 326.853 236.513 326.723C237.266 326.593 237.996 326.65 238.701 326.894C239.415 327.131 240.008 327.532 240.48 328.096C240.953 328.66 241.243 329.315 241.351 330.059C241.468 330.796 241.396 331.524 241.135 332.243C240.875 332.962 240.454 333.565 239.874 334.051C239.293 334.537 238.626 334.845 237.872 334.975C237.119 335.106 236.385 335.052 235.672 334.815C234.966 334.571 234.378 334.166 233.905 333.602ZM235.451 332.308C235.82 332.749 236.289 332.976 236.856 332.989C237.429 333.009 237.97 332.807 238.477 332.383C238.984 331.958 239.277 331.461 239.358 330.893C239.446 330.333 239.304 329.832 238.935 329.39C238.565 328.949 238.093 328.718 237.519 328.697C236.953 328.685 236.416 328.891 235.909 329.316C235.402 329.74 235.104 330.233 235.017 330.793C234.936 331.361 235.081 331.866 235.451 332.308ZM239.924 340.79C239.451 340.226 239.157 339.575 239.04 338.838C238.932 338.094 239.008 337.362 239.269 336.643C239.529 335.924 239.95 335.321 240.53 334.835C241.111 334.349 241.778 334.041 242.532 333.911C243.285 333.78 244.015 333.837 244.72 334.082C245.434 334.319 246.027 334.72 246.499 335.284C246.93 335.799 247.202 336.372 247.312 337.003C247.431 337.627 247.407 338.238 247.241 338.837C247.083 339.428 246.829 339.94 246.48 340.371L245.083 338.702C245.171 338.574 245.243 338.395 245.301 338.165C245.368 337.929 245.379 337.668 245.336 337.384C245.293 337.101 245.166 336.832 244.953 336.578C244.584 336.137 244.112 335.906 243.538 335.885C242.971 335.873 242.434 336.079 241.927 336.504C241.42 336.928 241.123 337.42 241.036 337.981C240.955 338.549 241.1 339.054 241.47 339.496C241.682 339.749 241.924 339.922 242.196 340.014C242.468 340.106 242.722 340.144 242.958 340.127C243.203 340.103 243.396 340.06 243.538 339.997L244.935 341.665C244.449 341.932 243.897 342.096 243.279 342.154C242.668 342.206 242.062 342.122 241.461 341.903C240.868 341.676 240.355 341.305 239.924 340.79ZM251.655 347.921C251.353 348.175 251.099 348.346 250.895 348.433L247.125 343.931C246.824 344.336 246.677 344.759 246.683 345.198C246.697 345.646 246.861 346.058 247.176 346.435C247.559 346.893 248.026 347.135 248.577 347.161L250.046 348.915C249.64 349.045 249.173 349.103 248.645 349.086C248.123 349.078 247.6 348.96 247.075 348.731C246.55 348.503 246.095 348.16 245.712 347.702C245.226 347.121 244.924 346.463 244.808 345.725C244.691 344.988 244.763 344.267 245.022 343.564C245.289 342.853 245.722 342.247 246.319 341.747C246.899 341.261 247.563 340.949 248.31 340.811C249.063 340.68 249.793 340.737 250.498 340.982C251.211 341.219 251.801 341.616 252.267 342.172C252.739 342.736 253.032 343.368 253.144 344.067C253.263 344.774 253.19 345.468 252.925 346.148C252.676 346.831 252.252 347.422 251.655 347.921ZM250.782 343.415C250.481 343.055 250.107 342.832 249.66 342.747C249.222 342.656 248.773 342.718 248.315 342.935L250.801 345.904C251.086 345.497 251.227 345.067 251.221 344.612C251.223 344.165 251.077 343.766 250.782 343.415ZM248.842 351.44C248.671 351.235 248.541 351.031 248.453 350.826L249.95 349.573L250.145 349.806C250.364 350.068 250.61 350.203 250.881 350.212C251.161 350.214 251.499 350.077 251.894 349.802L255.977 346.926L259.931 351.649L253.675 356.888L252.278 355.219L256.989 351.275L255.664 349.692L252.841 351.68C252.065 352.232 251.335 352.49 250.649 352.452C249.971 352.407 249.369 352.069 248.842 351.44ZM261.724 357.653C262.073 358.07 262.294 358.525 262.387 359.018C262.487 359.519 262.447 360.004 262.27 360.473C262.107 360.943 261.821 361.349 261.412 361.691C260.995 362.041 260.537 362.258 260.037 362.342C259.552 362.428 259.072 362.378 258.597 362.192C258.128 362.014 257.719 361.717 257.369 361.3L254.884 358.331L261.14 353.092L262.537 354.76L260.635 356.353L261.724 357.653ZM258.499 359.832C258.725 360.102 258.969 360.252 259.231 360.283C259.508 360.315 259.77 360.229 260.015 360.023C260.252 359.824 260.375 359.589 260.384 359.317C260.408 359.047 260.307 358.777 260.081 358.507L259.249 357.513L257.667 358.838L258.499 359.832ZM262.284 367.492C261.811 366.928 261.517 366.277 261.4 365.54C261.292 364.796 261.368 364.065 261.629 363.346C261.889 362.627 262.31 362.024 262.89 361.538C263.471 361.052 264.138 360.743 264.892 360.613C265.645 360.483 266.375 360.54 267.08 360.784C267.794 361.021 268.387 361.422 268.859 361.987C269.29 362.502 269.562 363.075 269.672 363.705C269.791 364.329 269.767 364.941 269.601 365.539C269.443 366.131 269.189 366.642 268.84 367.073L267.443 365.405C267.531 365.276 267.603 365.097 267.661 364.868C267.728 364.631 267.739 364.371 267.696 364.087C267.653 363.803 267.526 363.534 267.313 363.281C266.944 362.839 266.472 362.608 265.898 362.588C265.331 362.575 264.794 362.782 264.287 363.206C263.78 363.631 263.483 364.123 263.396 364.683C263.315 365.252 263.46 365.757 263.83 366.198C264.042 366.452 264.284 366.625 264.556 366.717C264.828 366.809 265.082 366.847 265.318 366.83C265.563 366.806 265.756 366.762 265.898 366.699L267.295 368.368C266.809 368.635 266.257 368.798 265.639 368.857C265.028 368.909 264.422 368.825 263.821 368.605C263.228 368.379 262.715 368.008 262.284 367.492ZM271.841 371.853L270.615 377.117L268.899 375.069L270.022 370.727L267.225 373.069L265.828 371.401L272.084 366.162L273.481 367.83L270.905 369.987L275.053 369.707L276.645 371.608L271.841 371.853ZM279.464 374.651C280.142 375.461 280.431 376.304 280.331 377.181C280.238 378.051 279.787 378.826 278.978 379.503L275.236 382.636L274.189 381.385L274.576 380.602L274.525 380.54C273.598 380.481 272.844 380.104 272.262 379.409C271.934 379.016 271.714 378.588 271.604 378.124C271.5 377.668 271.513 377.226 271.642 376.798C271.777 376.379 272.017 376.025 272.36 375.737C272.785 375.381 273.26 375.2 273.783 375.193C274.314 375.18 274.85 375.329 275.39 375.642C275.945 375.956 276.469 376.408 276.962 376.997L277.63 377.794L277.753 377.691C278.071 377.424 278.249 377.13 278.285 376.807C278.321 376.485 278.216 376.176 277.969 375.882C277.757 375.628 277.516 375.482 277.247 375.443C276.993 375.406 276.775 375.435 276.592 375.533L275.195 373.864C275.59 373.589 276.03 373.416 276.513 373.345C277.011 373.276 277.516 373.347 278.027 373.559C278.547 373.764 279.026 374.128 279.464 374.651ZM273.953 378.661C274.275 379.046 274.649 379.26 275.077 379.306C275.511 379.359 275.884 379.256 276.195 378.996L276.514 378.729L275.805 377.882C275.428 377.433 275.081 377.167 274.762 377.086C274.452 376.998 274.17 377.06 273.917 377.272C273.72 377.437 273.619 377.64 273.613 377.881C273.613 378.131 273.727 378.391 273.953 378.661ZM286.807 383.744L280.551 388.983L279.154 387.315L281.141 385.651L280.473 384.853L277.521 385.364L275.939 383.475L279.4 382.998C279.277 382.502 279.293 382.015 279.449 381.537C279.605 381.059 279.892 380.645 280.309 380.296C280.939 379.768 281.624 379.549 282.366 379.637C283.115 379.734 283.777 380.125 284.352 380.812L286.807 383.744ZM283.163 382.184C282.937 381.914 282.693 381.764 282.431 381.733C282.176 381.695 281.935 381.772 281.706 381.964C281.461 382.169 281.33 382.404 281.314 382.667C281.307 382.924 281.416 383.188 281.642 383.457L282.566 384.562L284.087 383.288L283.163 382.184ZM293.889 392.201L295.327 393.919L286.791 396.809C285.784 397.152 284.985 397.285 284.393 397.21C283.793 397.142 283.302 396.879 282.918 396.421C282.692 396.151 282.518 395.852 282.396 395.523L283.917 394.249C283.956 394.412 284.054 394.587 284.211 394.775C284.43 395.037 284.662 395.197 284.907 395.257C285.15 395.331 285.452 395.301 285.812 395.167L285.966 395.101L290.006 387.564L291.516 389.368L288.666 394.238L293.889 392.201ZM288.937 399.322C288.766 399.118 288.637 398.913 288.549 398.709L290.045 397.455L290.24 397.689C290.46 397.95 290.705 398.086 290.977 398.094C291.257 398.097 291.595 397.96 291.99 397.684L296.072 394.809L300.027 399.532L293.771 404.77L292.374 403.102L297.084 399.157L295.759 397.575L292.937 399.563C292.161 400.115 291.43 400.372 290.745 400.334C290.067 400.289 289.465 399.952 288.937 399.322ZM295.395 407.034C295.162 406.756 295.061 406.444 295.091 406.098C295.122 405.753 295.276 405.464 295.554 405.231C295.832 404.998 296.144 404.897 296.49 404.927C296.835 404.958 297.125 405.112 297.358 405.39C297.59 405.668 297.692 405.98 297.661 406.326C297.63 406.671 297.476 406.961 297.198 407.194C296.92 407.426 296.608 407.527 296.262 407.497C295.917 407.466 295.628 407.312 295.395 407.034Z" fill="#11244D"/>
<path d="M281.443 155.099C280.699 155.739 279.841 156.14 278.868 156.302C277.889 156.455 276.92 156.36 275.963 156.016C274.998 155.663 274.172 155.087 273.483 154.287C272.794 153.486 272.351 152.587 272.154 151.589C271.949 150.583 272 149.611 272.304 148.673C272.602 147.727 273.123 146.934 273.867 146.294C274.611 145.654 275.473 145.257 276.452 145.104C277.425 144.942 278.394 145.038 279.358 145.39C280.316 145.734 281.139 146.307 281.827 147.107C282.516 147.907 282.963 148.811 283.167 149.817C283.364 150.815 283.314 151.787 283.016 152.733C282.711 153.671 282.187 154.459 281.443 155.099ZM280.003 153.426C280.44 153.05 280.743 152.585 280.913 152.03C281.077 151.468 281.09 150.886 280.954 150.286C280.818 149.671 280.531 149.109 280.093 148.599C279.655 148.09 279.145 147.726 278.564 147.509C277.984 147.276 277.407 147.203 276.833 147.288C276.252 147.366 275.744 147.592 275.307 147.968C274.871 148.344 274.571 148.813 274.407 149.375C274.237 149.93 274.22 150.515 274.355 151.13C274.492 151.73 274.779 152.285 275.217 152.794C275.656 153.304 276.165 153.675 276.745 153.907C277.326 154.125 277.907 154.195 278.488 154.118C279.061 154.032 279.567 153.801 280.003 153.426ZM286.299 150.921C286.097 151.095 285.894 151.228 285.691 151.318L284.418 149.839L284.648 149.64C284.907 149.418 285.039 149.17 285.044 148.898C285.042 148.618 284.901 148.283 284.621 147.891L281.69 143.848L286.36 139.83L291.682 146.016L290.033 147.435L286.025 142.777L284.461 144.124L286.486 146.919C287.049 147.687 287.316 148.415 287.287 149.101C287.251 149.779 286.922 150.386 286.299 150.921ZM292.339 137.957C292.752 137.602 293.204 137.375 293.695 137.276C294.195 137.17 294.68 137.202 295.151 137.374C295.624 137.53 296.034 137.811 296.382 138.215C296.737 138.627 296.96 139.083 297.051 139.581C297.143 140.065 297.099 140.545 296.92 141.024C296.748 141.495 296.456 141.908 296.044 142.263L293.109 144.788L287.787 138.602L289.436 137.183L291.054 139.063L292.339 137.957ZM294.562 141.153C294.828 140.923 294.975 140.677 295.003 140.415C295.031 140.137 294.941 139.877 294.732 139.634C294.531 139.4 294.294 139.28 294.022 139.274C293.751 139.254 293.482 139.359 293.215 139.588L292.233 140.434L293.579 141.998L294.562 141.153ZM299.749 133.587L304.524 134.966L302.632 136.594L299.685 135.647L300.182 138.702L298.363 140.267L297.711 135.34L293.174 133.967L295.042 132.36L297.754 133.256L297.261 130.45L299.056 128.906L299.749 133.587ZM307.974 132.272C307.416 132.752 306.77 133.055 306.034 133.182C305.291 133.3 304.559 133.234 303.837 132.983C303.114 132.732 302.506 132.319 302.012 131.745C301.518 131.171 301.201 130.508 301.061 129.757C300.92 129.005 300.968 128.275 301.202 127.566C301.43 126.85 301.823 126.251 302.381 125.771C302.939 125.291 303.589 124.992 304.332 124.874C305.067 124.747 305.796 124.81 306.519 125.061C307.241 125.311 307.849 125.724 308.343 126.298C308.837 126.872 309.154 127.535 309.294 128.287C309.435 129.039 309.391 129.773 309.163 130.489C308.928 131.198 308.532 131.792 307.974 132.272ZM306.659 130.744C307.096 130.368 307.317 129.897 307.321 129.33C307.334 128.756 307.125 128.219 306.694 127.717C306.262 127.216 305.762 126.929 305.193 126.856C304.631 126.776 304.132 126.924 303.696 127.299C303.259 127.675 303.034 128.15 303.022 128.724C303.017 129.291 303.23 129.825 303.662 130.326C304.093 130.827 304.589 131.118 305.15 131.198C305.72 131.271 306.223 131.12 306.659 130.744ZM313.578 121.541C313.95 121.417 314.337 121.401 314.739 121.492C315.134 121.574 315.487 121.797 315.801 122.161C316.079 122.485 316.251 122.857 316.318 123.278C316.385 123.699 316.338 124.119 316.178 124.538C316.011 124.949 315.742 125.315 315.37 125.635L312.107 128.442L306.785 122.256L309.817 119.647C310.189 119.327 310.587 119.119 311.01 119.022C311.441 118.918 311.853 118.923 312.246 119.035C312.631 119.14 312.953 119.342 313.21 119.641C313.467 119.94 313.621 120.266 313.67 120.617C313.719 120.969 313.689 121.277 313.578 121.541ZM309.428 122.114L310.513 123.376L311.629 122.416C311.839 122.235 311.956 122.035 311.98 121.818C312.012 121.593 311.938 121.376 311.757 121.166C311.604 120.988 311.414 120.898 311.187 120.896C310.968 120.887 310.754 120.973 310.544 121.154L309.428 122.114ZM313.976 124.702C314.194 124.514 314.316 124.304 314.341 124.071C314.366 123.839 314.285 123.613 314.097 123.395C313.93 123.201 313.722 123.098 313.473 123.087C313.233 123.069 313.007 123.15 312.797 123.331L311.463 124.479L312.642 125.85L313.976 124.702ZM321.418 120.706C320.86 121.186 320.213 121.489 319.477 121.615C318.735 121.733 318.002 121.667 317.28 121.416C316.557 121.165 315.949 120.753 315.455 120.179C314.961 119.605 314.644 118.942 314.504 118.19C314.364 117.438 314.411 116.708 314.646 116C314.873 115.283 315.266 114.685 315.824 114.205C316.334 113.766 316.903 113.488 317.532 113.368C318.154 113.241 318.766 113.257 319.366 113.415C319.96 113.566 320.475 113.812 320.911 114.155L319.261 115.574C319.131 115.489 318.951 115.419 318.721 115.364C318.484 115.3 318.223 115.292 317.94 115.339C317.657 115.386 317.39 115.517 317.139 115.733C316.702 116.108 316.478 116.583 316.465 117.157C316.46 117.724 316.673 118.258 317.105 118.759C317.536 119.261 318.032 119.551 318.594 119.631C319.163 119.704 319.666 119.553 320.103 119.177C320.353 118.962 320.523 118.717 320.612 118.444C320.7 118.171 320.734 117.916 320.714 117.68C320.687 117.436 320.641 117.244 320.576 117.103L322.226 115.683C322.499 116.165 322.67 116.715 322.737 117.333C322.797 117.942 322.721 118.549 322.51 119.154C322.291 119.75 321.927 120.267 321.418 120.706ZM325.65 111.09L330.93 112.247L328.904 113.989L324.548 112.925L326.927 115.69L325.278 117.11L319.956 110.924L321.605 109.505L323.797 112.052L323.461 107.908L325.341 106.291L325.65 111.09ZM328.346 103.431C329.146 102.742 329.986 102.442 330.864 102.531C331.735 102.611 332.515 103.052 333.204 103.852L336.387 107.551L335.15 108.616L334.361 108.239L334.301 108.291C334.254 109.218 333.887 109.977 333.199 110.568C332.811 110.902 332.386 111.128 331.923 111.244C331.469 111.354 331.027 111.347 330.597 111.224C330.176 111.094 329.819 110.859 329.527 110.52C329.165 110.099 328.978 109.628 328.964 109.105C328.943 108.574 329.086 108.036 329.391 107.492C329.698 106.932 330.142 106.402 330.724 105.901L331.513 105.223L331.408 105.102C331.137 104.786 330.84 104.613 330.517 104.581C330.194 104.549 329.887 104.659 329.596 104.909C329.346 105.125 329.203 105.367 329.167 105.637C329.133 105.892 329.166 106.11 329.266 106.291L327.616 107.71C327.335 107.319 327.157 106.882 327.079 106.399C327.003 105.902 327.068 105.396 327.272 104.882C327.471 104.36 327.828 103.876 328.346 103.431ZM332.429 108.888C332.809 108.561 333.019 108.184 333.059 107.756C333.106 107.32 332.998 106.949 332.734 106.642L332.462 106.327L331.626 107.047C331.181 107.429 330.92 107.78 330.843 108.1C330.759 108.411 330.825 108.692 331.041 108.943C331.208 109.137 331.412 109.236 331.654 109.239C331.904 109.235 332.162 109.118 332.429 108.888ZM337.34 95.967L342.662 102.153L341.012 103.572L339.322 101.607L338.533 102.285L339.084 105.231L337.216 106.838L336.692 103.384C336.199 103.513 335.712 103.503 335.231 103.354C334.751 103.204 334.333 102.923 333.978 102.511C333.443 101.888 333.214 101.205 333.292 100.462C333.379 99.7126 333.762 99.0454 334.441 98.461L337.34 95.967ZM335.828 99.6316C335.561 99.8612 335.414 100.107 335.387 100.37C335.353 100.625 335.433 100.865 335.628 101.091C335.836 101.334 336.073 101.461 336.337 101.474C336.593 101.478 336.855 101.365 337.122 101.136L338.214 100.196L336.92 98.6924L335.828 99.6316ZM345.701 88.7726L347.399 87.3117L350.404 95.808C350.76 96.8104 350.904 97.6079 350.837 98.2004C350.777 98.8009 350.52 99.296 350.067 99.6856C349.801 99.9152 349.503 100.093 349.176 100.22L347.882 98.7161C348.044 98.6753 348.218 98.5749 348.404 98.4149C348.663 98.1923 348.82 97.9583 348.877 97.7129C348.948 97.4687 348.914 97.1673 348.774 96.8089L348.706 96.6563L341.117 92.7172L342.9 91.1832L347.807 93.9681L345.701 88.7726ZM352.888 93.6284C352.686 93.8023 352.483 93.9346 352.279 94.0252L351.006 92.5456L351.237 92.3473C351.495 92.1247 351.628 91.8774 351.633 91.6055C351.631 91.3255 351.49 90.9897 351.209 90.598L348.279 86.5547L352.949 82.5371L358.271 88.7226L356.621 90.1418L352.614 85.4845L351.049 86.8307L353.075 89.6261C353.637 90.3945 353.904 91.1217 353.875 91.8078C353.84 92.4859 353.51 93.0927 352.888 93.6284ZM360.512 87.0683C360.237 87.3048 359.927 87.4101 359.581 87.3841C359.235 87.3582 358.944 87.2077 358.707 86.9328C358.471 86.6579 358.365 86.3475 358.391 86.0015C358.417 85.6555 358.568 85.3643 358.843 85.1277C359.118 84.8912 359.428 84.7859 359.774 84.8119C360.12 84.8378 360.411 84.9883 360.648 85.2632C360.884 85.5381 360.99 85.8485 360.964 86.1945C360.938 86.5405 360.787 86.8317 360.512 87.0683Z" fill="#11244D"/>
<path d="M451.535 241.314C451.773 242.161 451.8 242.971 451.615 243.743C451.447 244.524 451.101 245.189 450.577 245.738C450.056 246.3 449.41 246.689 448.64 246.906C447.87 247.122 447.117 247.127 446.379 246.918C445.646 246.723 444.997 246.337 444.434 245.762C443.887 245.195 443.494 244.489 443.256 243.641L441.632 237.865L455.109 234.076L457.713 243.337L455.249 244.03L453.419 237.522L450.685 238.291L451.535 241.314ZM445.693 242.852C445.838 243.366 446.111 243.746 446.513 243.993C446.927 244.237 447.379 244.29 447.866 244.153C448.354 244.016 448.705 243.737 448.919 243.316C449.146 242.893 449.188 242.424 449.043 241.91L448.221 238.984L444.87 239.926L445.693 242.852ZM456.139 250.82C456.497 252.09 456.393 253.2 455.829 254.148C455.277 255.092 454.366 255.743 453.095 256.101L447.223 257.752L446.671 255.788L447.514 255.093L447.487 254.997C446.462 254.454 445.796 253.637 445.489 252.546C445.316 251.93 445.286 251.329 445.398 250.744C445.514 250.171 445.755 249.674 446.121 249.252C446.491 248.844 446.946 248.564 447.485 248.412C448.152 248.224 448.786 248.261 449.385 248.522C449.998 248.779 450.532 249.224 450.987 249.858C451.459 250.501 451.824 251.285 452.084 252.209L452.436 253.46L452.629 253.406C453.129 253.266 453.483 253.021 453.689 252.672C453.896 252.323 453.934 251.917 453.804 251.455C453.693 251.057 453.493 250.767 453.206 250.585C452.936 250.411 452.672 250.333 452.413 250.35L451.677 247.732C452.269 247.621 452.859 247.649 453.446 247.816C454.05 247.993 454.589 248.333 455.063 248.837C455.55 249.337 455.909 249.998 456.139 250.82ZM447.8 252.562C447.969 253.165 448.286 253.602 448.75 253.873C449.218 254.157 449.696 254.231 450.183 254.094L450.684 253.953L450.31 252.625C450.112 251.919 449.852 251.438 449.531 251.182C449.222 250.922 448.869 250.848 448.471 250.96C448.163 251.047 447.944 251.226 447.812 251.499C447.685 251.784 447.681 252.138 447.8 252.562ZM459.33 263.127L460.088 265.823L448.875 264.737C447.552 264.611 446.572 264.353 445.936 263.964C445.288 263.578 444.862 263.026 444.66 262.307C444.541 261.884 444.496 261.453 444.526 261.015L446.913 260.344C446.874 260.549 446.896 260.799 446.979 261.094C447.094 261.505 447.276 261.807 447.524 262.001C447.763 262.21 448.123 262.331 448.602 262.362L448.811 262.366L457.284 255.85L458.079 258.68L452.331 262.768L459.33 263.127ZM455.456 274.325L462.754 275.307L463.528 278.06L453.709 280.821L453 278.299L458.294 276.81L452.323 275.892L451.971 274.64L456.589 270.745L451.294 272.234L450.585 269.711L460.405 266.951L461.173 269.685L455.456 274.325ZM465.501 284.118C465.859 285.389 465.755 286.499 465.191 287.447C464.639 288.391 463.728 289.042 462.457 289.399L456.585 291.05L456.033 289.087L456.876 288.392L456.849 288.296C455.824 287.753 455.158 286.936 454.851 285.845C454.678 285.229 454.648 284.628 454.76 284.043C454.876 283.47 455.117 282.973 455.483 282.551C455.853 282.143 456.308 281.862 456.847 281.711C457.514 281.523 458.148 281.56 458.747 281.821C459.36 282.078 459.894 282.523 460.349 283.157C460.82 283.8 461.186 284.584 461.446 285.508L461.798 286.759L461.99 286.705C462.491 286.564 462.845 286.32 463.051 285.971C463.258 285.622 463.296 285.216 463.166 284.754C463.054 284.356 462.855 284.066 462.568 283.883C462.298 283.71 462.034 283.632 461.775 283.649L461.039 281.031C461.631 280.92 462.221 280.948 462.808 281.115C463.412 281.292 463.951 281.632 464.425 282.136C464.911 282.636 465.27 283.297 465.501 284.118ZM457.162 285.861C457.331 286.464 457.648 286.901 458.112 287.172C458.58 287.456 459.057 287.53 459.545 287.393L460.046 287.252L459.672 285.923C459.474 285.217 459.214 284.736 458.893 284.481C458.584 284.221 458.231 284.147 457.833 284.259C457.525 284.346 457.306 284.525 457.174 284.797C457.047 285.083 457.043 285.437 457.162 285.861ZM465.074 297.896L468.809 296.845L469.546 299.464L459.726 302.225L458.99 299.606L462.648 298.578L461.593 294.823L457.935 295.852L457.198 293.233L467.018 290.472L467.754 293.091L464.019 294.141L465.074 297.896ZM461.381 309.071C461.132 308.186 461.13 307.293 461.376 306.393C461.634 305.489 462.097 304.694 462.762 304.009C463.428 303.323 464.217 302.852 465.128 302.596C466.04 302.339 466.958 302.33 467.884 302.569C468.81 302.807 469.612 303.246 470.29 303.887C470.982 304.523 471.452 305.284 471.701 306.17C471.928 306.979 471.943 307.771 471.746 308.547C471.561 309.319 471.221 310.003 470.724 310.6C470.239 311.193 469.688 311.646 469.069 311.958L468.333 309.34C468.499 309.238 468.673 309.071 468.857 308.839C469.054 308.604 469.201 308.313 469.298 307.967C469.395 307.622 469.387 307.25 469.275 306.852C469.08 306.159 468.661 305.653 468.018 305.336C467.378 305.031 466.66 304.99 465.865 305.214C465.069 305.438 464.477 305.846 464.09 306.44C463.707 307.046 463.612 307.696 463.807 308.389C463.919 308.787 464.106 309.109 464.369 309.353C464.632 309.598 464.902 309.771 465.18 309.873C465.471 309.971 465.713 310.021 465.907 310.022L466.644 312.64C465.953 312.696 465.24 312.599 464.505 312.348C463.782 312.094 463.135 311.688 462.562 311.129C462.002 310.566 461.609 309.88 461.381 309.071ZM470.037 318.947L465.937 324.317L465.033 321.101L468.541 316.729L464.151 317.963L463.415 315.345L473.234 312.584L473.97 315.202L469.927 316.339L474.799 318.148L475.638 321.133L470.037 318.947ZM477.29 326.047C477.647 327.318 477.543 328.428 476.979 329.376C476.427 330.32 475.516 330.971 474.245 331.328L468.373 332.979L467.821 331.016L468.664 330.321L468.637 330.225C467.612 329.682 466.946 328.865 466.639 327.774C466.466 327.158 466.436 326.557 466.548 325.972C466.664 325.399 466.905 324.902 467.272 324.48C467.641 324.072 468.096 323.792 468.635 323.64C469.302 323.452 469.936 323.489 470.536 323.75C471.148 324.007 471.682 324.452 472.137 325.086C472.609 325.729 472.974 326.513 473.234 327.437L473.586 328.688L473.779 328.634C474.279 328.493 474.633 328.249 474.839 327.9C475.046 327.551 475.084 327.145 474.954 326.683C474.843 326.285 474.643 325.995 474.357 325.813C474.086 325.639 473.822 325.561 473.564 325.578L472.827 322.96C473.419 322.849 474.009 322.877 474.596 323.044C475.2 323.221 475.739 323.561 476.213 324.065C476.7 324.565 477.059 325.226 477.29 326.047ZM468.95 327.79C469.119 328.393 469.436 328.83 469.9 329.101C470.368 329.385 470.846 329.459 471.333 329.322L471.834 329.181L471.461 327.852C471.262 327.146 471.002 326.666 470.681 326.41C470.373 326.15 470.019 326.076 469.621 326.188C469.313 326.275 469.094 326.454 468.963 326.727C468.835 327.012 468.831 327.366 468.95 327.79ZM480.993 340.18L471.174 342.941L470.437 340.322L473.556 339.445L473.205 338.194L469.577 337.261L468.743 334.296L472.933 335.528C473.047 334.9 473.316 334.354 473.739 333.888C474.162 333.423 474.701 333.098 475.356 332.914C476.344 332.637 477.239 332.738 478.039 333.22C478.843 333.714 479.396 334.5 479.699 335.578L480.993 340.18ZM477.64 336.531C477.521 336.108 477.32 335.811 477.037 335.641C476.766 335.468 476.452 335.432 476.092 335.533C475.707 335.641 475.438 335.841 475.285 336.134C475.144 336.423 475.134 336.779 475.253 337.202L475.74 338.935L478.127 338.264L477.64 336.531ZM484.725 353.454L485.482 356.149L474.27 355.063C472.946 354.937 471.967 354.679 471.331 354.29C470.683 353.904 470.257 353.352 470.055 352.633C469.936 352.21 469.891 351.779 469.92 351.342L472.308 350.67C472.269 350.875 472.29 351.125 472.373 351.421C472.489 351.831 472.671 352.133 472.919 352.327C473.158 352.537 473.517 352.657 473.997 352.688L474.206 352.692L482.679 346.176L483.474 349.006L477.726 353.094L484.725 353.454ZM475.427 359.029C475.336 358.708 475.294 358.409 475.299 358.13L477.648 357.47L477.75 357.836C477.866 358.246 478.076 358.527 478.381 358.676C478.699 358.822 479.155 358.84 479.747 358.729L485.875 357.546L487.959 364.958L478.14 367.719L477.404 365.101L484.797 363.022L484.099 360.538L479.862 361.355C478.694 361.587 477.729 361.505 476.967 361.11C476.218 360.711 475.705 360.017 475.427 359.029ZM478.83 371.133C478.707 370.696 478.752 370.289 478.964 369.911C479.176 369.532 479.5 369.282 479.937 369.159C480.373 369.037 480.78 369.081 481.159 369.294C481.537 369.506 481.787 369.83 481.91 370.267C482.033 370.703 481.988 371.11 481.776 371.488C481.564 371.867 481.239 372.117 480.803 372.24C480.366 372.363 479.959 372.318 479.581 372.106C479.203 371.893 478.952 371.569 478.83 371.133Z" fill="#11244D"/>
<path d="M347.72 242.943C348.64 242.943 349.474 243.163 350.22 243.603C350.967 244.03 351.547 244.617 351.96 245.363C352.387 246.11 352.6 246.937 352.6 247.843C352.6 248.763 352.38 249.603 351.94 250.363C351.5 251.123 350.88 251.723 350.08 252.163C349.294 252.603 348.4 252.823 347.4 252.823C346.4 252.823 345.5 252.603 344.7 252.163C343.914 251.723 343.3 251.123 342.86 250.363C342.42 249.603 342.2 248.763 342.2 247.843C342.2 247.137 342.347 246.463 342.64 245.823C342.947 245.17 343.347 244.477 343.84 243.743L347.28 238.563H350.32L347.34 242.963L347.72 242.943ZM347.4 250.183C348.054 250.183 348.607 249.963 349.06 249.523C349.514 249.083 349.74 248.523 349.74 247.843C349.74 247.163 349.514 246.603 349.06 246.163C348.607 245.723 348.054 245.503 347.4 245.503C346.734 245.503 346.174 245.723 345.72 246.163C345.28 246.59 345.06 247.15 345.06 247.843C345.06 248.537 345.28 249.103 345.72 249.543C346.174 249.97 346.734 250.183 347.4 250.183ZM359.099 252.823C358.179 252.823 357.319 252.583 356.519 252.103C355.719 251.61 355.079 250.95 354.599 250.123C354.119 249.297 353.879 248.41 353.879 247.463C353.879 246.517 354.119 245.63 354.599 244.803C355.079 243.977 355.719 243.323 356.519 242.843C357.319 242.35 358.179 242.103 359.099 242.103C359.939 242.103 360.705 242.303 361.399 242.703C362.092 243.09 362.659 243.603 363.099 244.243C363.539 244.87 363.825 245.523 363.959 246.203H361.239C361.185 246.017 361.072 245.803 360.899 245.563C360.725 245.31 360.485 245.09 360.179 244.903C359.872 244.717 359.512 244.623 359.099 244.623C358.379 244.623 357.779 244.89 357.299 245.423C356.832 245.957 356.599 246.637 356.599 247.463C356.599 248.29 356.832 248.97 357.299 249.503C357.779 250.037 358.379 250.303 359.099 250.303C359.512 250.303 359.872 250.21 360.179 250.023C360.485 249.837 360.725 249.623 360.899 249.383C361.072 249.13 361.185 248.91 361.239 248.723H363.959C363.825 249.403 363.539 250.063 363.099 250.703C362.659 251.33 362.092 251.843 361.399 252.243C360.705 252.63 359.939 252.823 359.099 252.823ZM369.448 249.803H374.608V252.563H365.168V250.423L369.728 245.823C370.302 245.25 370.722 244.803 370.988 244.483C371.268 244.163 371.468 243.863 371.588 243.583C371.722 243.29 371.788 242.97 371.788 242.623C371.788 242.13 371.602 241.73 371.228 241.423C370.868 241.103 370.402 240.943 369.828 240.943C369.215 240.943 368.708 241.13 368.308 241.503C367.922 241.877 367.728 242.363 367.728 242.963H364.988C364.988 242.083 365.195 241.29 365.608 240.583C366.035 239.877 366.615 239.323 367.348 238.923C368.095 238.51 368.922 238.303 369.828 238.303C370.788 238.303 371.628 238.49 372.348 238.863C373.082 239.223 373.648 239.723 374.048 240.363C374.448 240.99 374.648 241.697 374.648 242.483C374.648 243.123 374.528 243.717 374.288 244.263C374.062 244.81 373.748 245.323 373.348 245.803C372.962 246.27 372.442 246.83 371.788 247.483L369.448 249.803Z" fill="#8712FC"/>
<path fill-rule="evenodd" clip-rule="evenodd" d="M364.448 220.715C368.202 216.794 371.441 211.97 371.441 207.29C371.441 200.292 365.679 194.563 358.5 194.563C351.322 194.563 345.559 200.292 345.559 207.29C345.559 209.309 346.315 211.54 347.639 213.859C348.953 216.16 350.738 218.394 352.577 220.374C354.409 222.346 356.25 224.018 357.636 225.197C357.972 225.484 358.281 225.741 358.555 225.965C358.815 225.766 359.106 225.54 359.422 225.288C360.799 224.189 362.627 222.616 364.448 220.715ZM358.5 228.916C358.5 228.916 373.794 218.593 373.794 207.29C373.794 198.962 366.947 192.21 358.5 192.21C350.053 192.21 343.206 198.962 343.206 207.29C343.206 217.615 358.5 228.916 358.5 228.916Z" fill="#8712FC"/>
<path fill-rule="evenodd" clip-rule="evenodd" d="M353.559 207.74C353.559 210.164 355.62 212.21 358.265 212.21C360.91 212.21 362.971 210.164 362.971 207.74H365.324C365.324 211.553 362.118 214.563 358.265 214.563C354.412 214.563 351.206 211.553 351.206 207.74H353.559Z" fill="#8712FC"/>
</g>
<defs>
<clipPath id="clip0_1920_307190">
<rect width="717" height="422" fill="white"/>
</clipPath>
</defs>
</svg>
