<svg width="717" height="422" viewBox="0 0 717 422" fill="none" xmlns="http://www.w3.org/2000/svg">
<g clip-path="url(#clip0_1915_97796)">
<path d="M427.015 405.572C426.734 402.776 426.428 399.798 426.099 396.668M330.507 187.559C350.662 202.674 393.179 236.277 402.016 249.765C410.319 262.439 420.983 347.964 426.099 396.668M330.507 187.559C296.106 218.492 233.029 272.64 188.356 303.99M330.507 187.559C341.53 179.361 364.049 159.128 365.938 143.778M146.795 327.669C135.168 330.459 127.61 304.801 125.285 291.624M146.795 327.669C155.783 325.289 170.619 316.437 188.356 303.99M146.795 327.669C144.857 326.7 138.888 340.924 130.517 405.572M188.356 303.99L174.119 277.09M426.099 396.668C437.263 394.306 461.271 388.554 467.992 384.446C471.788 382.127 489.494 365.325 508.843 345.749M713.516 163.661C683.966 185.07 634.353 221.984 600.412 249.765M585.629 262.162C574.677 271.627 566.966 279.112 564.615 283.156C560.09 290.938 545.812 307.141 529.534 324.363M585.629 262.162C601.563 274.619 631.31 297.039 661.317 317.791M585.629 262.162C590.071 258.323 595.046 254.158 600.412 249.765M713.516 351.305C698.08 342.525 679.65 330.469 661.317 317.791M708.848 212.206C701.307 218.303 694.244 224.274 687.618 230.088M573.483 327.967C579.329 330.092 585.08 328.689 591.624 324.363M591.624 324.363C595.224 329.61 604.477 340.57 612.693 342.437M591.624 324.363C602.649 317.076 615.924 301.495 635.691 280.528M661.317 317.791C655.533 328.962 643.313 351.305 640.699 351.305C637.432 351.305 638.057 357.84 661.317 366.709M635.691 280.528L600.412 249.765M635.691 280.528C649.404 265.983 666.241 248.846 687.618 230.088M600.412 249.765C578.527 226.803 563.2 203.687 543.026 179.553M687.618 230.088C666.777 212.941 626.753 168.7 595.003 132.072M457.723 182.799C473.187 162.936 485.623 146.115 495.742 132.072M495.742 132.072C535.409 77.0217 539.454 64.6707 550.611 79.1751C556.224 86.472 573.762 107.568 595.003 132.072M495.742 132.072C504.644 139.486 512.545 146.771 519.716 153.947M708.848 63.7714C706.987 58.6369 700.134 51.4485 687.618 63.7714C680.098 71.1758 661.762 85.1212 643.134 98.6286M595.003 132.072C583.473 144.78 556.936 172.068 543.026 179.553M595.003 132.072C602.542 127.303 623.008 113.221 643.134 98.6286M543.026 179.553C529.202 190.904 500.391 214.633 495.742 218.741C491.093 222.849 489.308 220.452 488.997 218.741M543.026 179.553C536.004 171.153 528.394 162.63 519.716 153.947M519.716 153.947C545.944 132.072 605.691 53.5024 612.226 58.6369C617.454 62.7445 635.009 87.0095 643.134 98.6286M77.3008 43.7001C83.3418 35.6454 97.8025 23.7355 107.511 40.2095M87.1032 53.5024L107.641 40.4327C107.598 40.3577 107.554 40.2833 107.511 40.2095M107.511 40.2095C119.846 31.5707 149.838 12.4261 171.123 4.95772M115.11 59.1037L137.982 48.3679M159.92 85.7099L215 37.632M350.048 326.807C329.78 348.215 290.46 391.259 295.324 392.171M339.787 370.13C342.447 372.03 370.949 409.272 370.949 416.873M508.843 345.749L521.819 384.446M508.843 345.749C515.716 338.796 522.796 331.492 529.534 324.363M521.819 384.446H514.979M521.819 384.446H532.84M529.534 324.363C531.016 326.445 533.752 332.431 532.84 339.728C531.7 348.848 529.04 379.002 532.84 384.446M532.84 384.446H564.615M564.615 384.446L573.483 361.009M564.615 384.446C565.536 386.46 566.285 394.452 563.095 411.217M561.342 419.533C562.027 416.549 562.607 413.78 563.095 411.217M563.095 411.217C582.308 414.622 623.726 420.065 635.691 414.593M215 149.256C235.195 134.336 274.532 101.55 275.986 96.9035M275.986 96.9035C281.296 100.07 287.176 108.493 299.964 110.491M275.986 96.9035L267.133 84.8506M227.816 84.8506L264.174 124.591M301.8 81.4684C306.557 74.6142 312.764 65.8069 319.411 56.5727M362.679 2.62237C357.411 5.07248 336.886 32.2977 319.411 56.5727M315.329 1.56543C338.158 18.1943 386.015 52.8894 394.809 58.639M356.549 84.8506L319.411 56.5727" stroke="#E4DABB" stroke-width="3" stroke-linecap="round" stroke-linejoin="round"/>
<path d="M203.871 2.33368C228.886 28.5791 288.143 86.606 325.051 108.751C371.185 136.431 476.987 192.408 512.665 260.687C514.749 264.677 517.061 268.753 519.569 272.891M644.302 414.469C614.652 388.05 551.386 325.408 519.569 272.891M198.302 8.91387C209.884 23.5257 244.489 61.4094 290.249 96.0501C347.449 139.351 438.862 171.973 470.402 216.33C495.634 251.816 513.693 268.823 519.569 272.891M11.5569 247.983C32.049 234.263 69.5759 209.274 93.5249 187.463C123.461 160.199 191.352 112.622 211.132 96.0501C226.955 82.7925 279.736 28.0485 304.148 2.33368M16.971 231.141C30.6918 223.656 69.5755 202.217 78.5564 192.809C89.7825 181.048 229.842 77.3398 237.326 63.4408C243.313 52.3216 272.965 22.4565 287.042 8.91387" stroke="#FFA900" stroke-width="7" stroke-linecap="round" stroke-linejoin="round"/>
<path d="M124.208 8.13153C132.788 32.1584 152.637 82.1427 163.393 89.8649C176.838 99.5176 229.685 171.956 275.09 237.488C311.413 289.913 354.82 334.226 371.984 349.829M371.984 349.829C357.236 356.835 323.317 376.754 294.758 404.724M371.984 349.829C407.768 335.016 483.64 301.649 516.88 280.28M721.645 82.0829C696.368 92.8489 644.878 163.53 624.751 182.722C605.664 200.921 563.847 245.217 528.438 272.103M284.733 415.153C287.969 411.566 291.325 408.087 294.758 404.724M294.758 404.724C276.845 383.893 106.44 351.393 68.329 356.364C37.8398 360.341 13.279 363.545 4.80981 364.649M544.483 306.98C548.586 297.635 535.496 279.835 528.438 272.103M528.438 272.103C526.507 273.569 524.596 274.983 522.708 276.339C520.953 277.598 519.004 278.915 516.88 280.28M528.438 272.103L496.906 235.471M484.37 236.896C490.752 253.534 508.702 272.751 516.88 280.28M516.88 280.28C519.718 288.61 528.13 306.866 539.07 313.248C550.01 319.629 569.269 326.543 577.531 329.202C579.81 329.962 583.685 333.304 580.95 340.598C578.215 347.891 579.81 350.664 580.95 351.139" stroke="#FFA900" stroke-width="3" stroke-linecap="round" stroke-linejoin="round"/>
<path d="M357.891 110.814C358.283 111.399 358.5 112.04 358.542 112.738C358.59 113.424 358.391 114.131 357.946 114.859C357.562 115.484 357.027 115.962 356.341 116.292C355.654 116.621 354.885 116.752 354.035 116.685C353.204 116.613 352.367 116.32 351.526 115.804C350.662 115.275 350.012 114.65 349.578 113.93C349.143 113.211 348.915 112.461 348.892 111.681C348.881 110.908 349.049 110.174 349.396 109.48L351.835 110.974C351.653 111.347 351.642 111.786 351.802 112.291C351.969 112.784 352.331 113.201 352.888 113.543C353.457 113.891 353.987 114.021 354.479 113.931C354.983 113.849 355.375 113.581 355.653 113.126C355.939 112.66 356 112.189 355.838 111.715C355.675 111.24 355.287 110.814 354.673 110.438L353.718 109.853L354.951 107.841L355.821 108.373C356.367 108.708 356.867 108.835 357.323 108.754C357.79 108.681 358.149 108.44 358.4 108.03C358.651 107.621 358.709 107.195 358.573 106.753C358.456 106.306 358.159 105.936 357.681 105.643C357.181 105.337 356.692 105.217 356.213 105.283C355.753 105.345 355.387 105.535 355.114 105.853L352.675 104.358C353.104 103.761 353.664 103.306 354.355 102.995C355.053 102.672 355.81 102.534 356.626 102.581C357.453 102.634 358.254 102.898 359.027 103.371C359.823 103.859 360.43 104.45 360.849 105.144C361.268 105.839 361.487 106.552 361.508 107.284C361.529 108.016 361.354 108.683 360.985 109.286C360.658 109.82 360.219 110.216 359.671 110.474C359.14 110.728 358.547 110.841 357.891 110.814ZM369.058 119.909L369.698 126.634L366.85 124.889L366.453 119.298L364.071 123.186L361.751 121.765L367.081 113.068L369.4 114.489L367.205 118.07L372.009 116.088L374.652 117.707L369.058 119.909ZM374.016 129.585C373.232 129.104 372.624 128.45 372.192 127.623C371.768 126.784 371.567 125.887 371.59 124.932C371.612 123.976 371.871 123.095 372.366 122.287C372.86 121.48 373.528 120.85 374.369 120.395C375.21 119.941 376.098 119.719 377.03 119.727C377.97 119.725 378.832 119.964 379.617 120.444C380.401 120.925 381.006 121.585 381.43 122.423C381.862 123.251 382.066 124.142 382.043 125.098C382.021 126.053 381.762 126.935 381.267 127.742C380.773 128.549 380.105 129.18 379.264 129.634C378.423 130.088 377.532 130.316 376.592 130.319C375.659 130.31 374.801 130.066 374.016 129.585ZM375.333 127.436C375.947 127.812 376.592 127.895 377.268 127.684C377.956 127.48 378.516 127.026 378.948 126.321C379.38 125.616 379.531 124.911 379.4 124.205C379.281 123.507 378.914 122.969 378.3 122.593C377.686 122.217 377.035 122.131 376.348 122.335C375.671 122.546 375.117 123.004 374.685 123.708C374.253 124.413 374.097 125.115 374.216 125.814C374.347 126.519 374.719 127.06 375.333 127.436ZM379.412 132.891C379.128 132.717 378.893 132.526 378.707 132.319L379.982 130.238L380.306 130.437C380.67 130.66 381.015 130.722 381.34 130.625C381.673 130.516 382.019 130.219 382.377 129.736L386.071 124.704L392.636 128.727L387.307 137.424L384.988 136.003L389 129.454L386.8 128.106L384.247 131.585C383.547 132.548 382.784 133.143 381.956 133.371C381.135 133.587 380.287 133.427 379.412 132.891ZM397.15 135.128C397.729 135.483 398.172 135.934 398.478 136.481C398.795 137.035 398.942 137.626 398.918 138.252C398.912 138.874 398.735 139.469 398.387 140.038C398.031 140.617 397.575 141.057 397.016 141.356C396.476 141.65 395.887 141.782 395.249 141.751C394.623 141.727 394.02 141.537 393.44 141.182L389.313 138.653L394.642 129.956L396.962 131.377L395.342 134.02L397.15 135.128ZM394.194 138.994C394.57 139.223 394.919 139.304 395.242 139.237C395.583 139.164 395.858 138.958 396.067 138.616C396.269 138.287 396.322 137.959 396.224 137.634C396.145 137.303 395.918 137.024 395.542 136.794L394.161 135.947L392.813 138.147L394.194 138.994ZM405.608 151.64L403.374 150.271L404.711 148.088L397.873 143.898L403.202 135.201L405.521 136.622L401.509 143.17L404.579 145.051L408.591 138.503L410.91 139.924L406.898 146.472L408.262 147.308L405.608 151.64ZM412.02 152.871C411.235 152.39 410.627 151.737 410.196 150.909C409.772 150.071 409.571 149.174 409.593 148.218C409.616 147.262 409.875 146.381 410.369 145.574C410.864 144.766 411.532 144.136 412.373 143.682C413.214 143.228 414.101 143.005 415.034 143.014C415.974 143.011 416.836 143.25 417.62 143.731C418.405 144.211 419.009 144.871 419.434 145.709C419.865 146.537 420.069 147.428 420.047 148.384C420.024 149.339 419.766 150.221 419.271 151.028C418.776 151.835 418.108 152.466 417.267 152.92C416.426 153.374 415.536 153.602 414.596 153.605C413.663 153.596 412.804 153.352 412.02 152.871ZM413.336 150.722C413.95 151.099 414.595 151.181 415.272 150.97C415.96 150.766 416.52 150.312 416.952 149.607C417.384 148.902 417.534 148.197 417.404 147.491C417.284 146.793 416.918 146.255 416.304 145.879C415.69 145.503 415.039 145.417 414.351 145.621C413.675 145.832 413.12 146.29 412.688 146.995C412.256 147.7 412.1 148.401 412.219 149.1C412.35 149.805 412.722 150.346 413.336 150.722Z" fill="#11244D"/>
<path d="M481.523 198.14C481.172 197.72 480.952 197.383 480.861 197.129L482.903 195.425L483.147 195.716C483.531 196.177 483.986 196.431 484.512 196.478C485.048 196.517 485.615 196.322 486.212 195.893L493.752 190.537L499.891 197.892L489.143 206.863L487.31 204.668L495.939 197.465L493.299 194.302L487.551 198.371C486.368 199.201 485.25 199.588 484.195 199.531C483.148 199.484 482.257 199.02 481.523 198.14ZM501.026 212.891C500.647 213.207 500.33 213.42 500.074 213.53L495.37 207.895C494.993 208.4 494.809 208.928 494.816 209.478C494.832 210.038 495.036 210.553 495.429 211.024C495.908 211.597 496.491 211.901 497.179 211.934L499.012 214.13C498.505 214.292 497.921 214.363 497.26 214.341C496.608 214.33 495.954 214.181 495.298 213.895C494.643 213.608 494.076 213.179 493.597 212.605C492.99 211.879 492.615 211.054 492.471 210.133C492.327 209.211 492.417 208.31 492.743 207.431C493.078 206.543 493.62 205.787 494.367 205.163C495.094 204.557 495.924 204.168 496.858 203.996C497.8 203.835 498.711 203.907 499.593 204.214C500.484 204.512 501.22 205.009 501.801 205.705C502.391 206.411 502.755 207.202 502.894 208.076C503.041 208.96 502.949 209.827 502.617 210.677C502.304 211.53 501.773 212.268 501.026 212.891ZM499.943 207.256C499.567 206.806 499.1 206.527 498.542 206.42C497.994 206.304 497.433 206.381 496.86 206.652L499.961 210.367C500.319 209.86 500.496 209.322 500.49 208.754C500.493 208.195 500.311 207.696 499.943 207.256ZM510.467 224.451C509.73 225.066 508.895 225.45 507.963 225.603C507.04 225.766 506.12 225.683 505.203 225.354C504.304 225.027 503.521 224.474 502.853 223.694L500.289 225.835L498.546 223.746L501.11 221.606C500.462 220.809 500.054 219.935 499.884 218.982C499.733 218.032 499.816 217.111 500.133 216.222C500.458 215.342 500.989 214.595 501.726 213.98C502.463 213.365 503.293 212.976 504.217 212.813C505.149 212.66 506.064 212.747 506.962 213.074C507.879 213.403 508.672 213.957 509.34 214.737L512.058 212.468L513.801 214.556L511.083 216.825C511.731 217.622 512.13 218.495 512.281 219.446C512.451 220.398 512.373 221.314 512.048 222.194C511.731 223.084 511.204 223.836 510.467 224.451ZM503.469 216.068C502.824 216.606 502.465 217.236 502.39 217.959C502.316 218.681 502.547 219.374 503.083 220.037L507.444 216.398C506.887 215.751 506.246 215.4 505.522 215.344C504.798 215.288 504.114 215.53 503.469 216.068ZM504.749 222.033C505.306 222.68 505.947 223.031 506.671 223.087C507.395 223.143 508.079 222.901 508.724 222.363C509.369 221.825 509.728 221.195 509.803 220.472C509.877 219.75 509.646 219.057 509.11 218.394L504.749 222.033ZM510.518 232.877C509.929 232.171 509.562 231.357 509.418 230.435C509.284 229.505 509.381 228.591 509.708 227.693C510.035 226.794 510.562 226.042 511.288 225.435C512.015 224.829 512.85 224.445 513.792 224.283C514.734 224.122 515.646 224.195 516.527 224.501C517.418 224.799 518.159 225.302 518.748 226.008C519.338 226.714 519.699 227.532 519.833 228.463C519.978 229.385 519.886 230.295 519.559 231.193C519.232 232.091 518.705 232.843 517.978 233.45C517.252 234.057 516.417 234.441 515.475 234.602C514.533 234.763 513.616 234.695 512.724 234.397C511.843 234.09 511.108 233.584 510.518 232.877ZM512.453 231.263C512.914 231.815 513.499 232.1 514.208 232.116C514.925 232.143 515.601 231.892 516.235 231.362C516.87 230.832 517.238 230.212 517.34 229.502C517.45 228.802 517.275 228.176 516.814 227.623C516.352 227.07 515.763 226.78 515.046 226.754C514.337 226.737 513.666 226.994 513.031 227.523C512.397 228.053 512.024 228.668 511.914 229.368C511.812 230.078 511.992 230.71 512.453 231.263ZM512.465 240.421L523.059 231.578L524.366 233.144L523.881 234.123L523.945 234.2C524.305 234.194 524.755 234.296 525.294 234.506C525.834 234.715 526.326 235.086 526.77 235.619C527.3 236.253 527.617 236.996 527.72 237.848C527.831 238.71 527.707 239.57 527.345 240.427C527.003 241.286 526.448 242.036 525.68 242.677C524.912 243.318 524.07 243.734 523.154 243.926C522.256 244.12 521.393 244.084 520.565 243.821C519.745 243.567 519.07 243.123 518.541 242.488C518.259 242.15 518.05 241.786 517.915 241.395C517.778 241.023 517.695 240.684 517.666 240.379C517.645 240.083 517.66 239.862 517.711 239.715L517.647 239.639L514.208 242.51L512.465 240.421ZM520.232 240.581C520.505 240.909 520.849 241.134 521.264 241.257C521.679 241.379 522.119 241.386 522.583 241.276C523.066 241.168 523.517 240.939 523.937 240.589C524.357 240.238 524.658 239.84 524.84 239.392C525.041 238.946 525.118 238.508 525.072 238.078C525.026 237.648 524.866 237.269 524.592 236.942C524.319 236.614 523.975 236.389 523.56 236.266C523.145 236.144 522.696 236.137 522.213 236.245C521.748 236.354 521.307 236.584 520.887 236.934C520.467 237.285 520.157 237.683 519.956 238.129C519.773 238.576 519.705 239.015 519.752 239.445C519.798 239.875 519.958 240.254 520.232 240.581ZM525.726 250.69L523.983 248.602L529.879 243.681L527.969 241.393L529.904 239.778L535.466 246.442L533.531 248.056L531.622 245.769L525.726 250.69ZM531.095 257.528C530.505 256.821 530.138 256.007 529.994 255.086C529.86 254.155 529.957 253.241 530.284 252.343C530.611 251.445 531.138 250.692 531.864 250.086C532.591 249.479 533.426 249.095 534.368 248.934C535.31 248.773 536.222 248.845 537.103 249.152C537.994 249.45 538.735 249.952 539.324 250.658C539.914 251.365 540.276 252.183 540.409 253.113C540.554 254.035 540.462 254.945 540.135 255.843C539.808 256.741 539.281 257.494 538.554 258.1C537.828 258.707 536.993 259.091 536.051 259.252C535.109 259.413 534.192 259.345 533.301 259.047C532.419 258.74 531.684 258.234 531.095 257.528ZM533.029 255.913C533.491 256.466 534.075 256.75 534.784 256.767C535.501 256.793 536.177 256.542 536.811 256.012C537.446 255.482 537.814 254.862 537.916 254.152C538.027 253.452 537.851 252.826 537.39 252.273C536.928 251.72 536.339 251.431 535.622 251.404C534.914 251.387 534.242 251.644 533.607 252.174C532.973 252.703 532.6 253.318 532.49 254.018C532.388 254.729 532.568 255.36 533.029 255.913ZM544.403 264.732C544.55 265.2 544.563 265.684 544.442 266.184C544.332 266.676 544.046 267.114 543.585 267.498C543.176 267.84 542.708 268.049 542.18 268.124C541.653 268.2 541.129 268.134 540.608 267.926C540.097 267.709 539.645 267.366 539.252 266.895L535.805 262.765L543.635 256.228L546.839 260.067C547.232 260.538 547.485 261.039 547.598 261.57C547.72 262.111 547.707 262.625 547.559 263.114C547.421 263.593 547.163 263.991 546.784 264.308C546.405 264.624 545.995 264.809 545.555 264.864C545.115 264.919 544.731 264.875 544.403 264.732ZM543.763 259.534L542.167 260.867L543.346 262.28C543.568 262.546 543.815 262.696 544.086 262.73C544.366 262.774 544.639 262.685 544.905 262.463C545.13 262.275 545.246 262.039 545.253 261.756C545.268 261.483 545.165 261.213 544.942 260.947L543.763 259.534ZM540.444 265.171C540.675 265.447 540.935 265.603 541.225 265.639C541.516 265.674 541.799 265.577 542.075 265.346C542.321 265.141 542.453 264.883 542.472 264.572C542.499 264.272 542.401 263.989 542.179 263.722L540.769 262.033L539.034 263.482L540.444 265.171ZM545.3 274.546C544.71 273.84 544.344 273.026 544.199 272.104C544.066 271.174 544.162 270.259 544.489 269.361C544.816 268.463 545.343 267.711 546.07 267.104C546.797 266.497 547.631 266.113 548.573 265.952C549.516 265.791 550.427 265.864 551.308 266.17C552.2 266.468 552.94 266.97 553.53 267.677C554.068 268.321 554.406 269.038 554.543 269.827C554.69 270.607 554.659 271.371 554.45 272.119C554.251 272.858 553.933 273.497 553.497 274.035L551.754 271.947C551.863 271.786 551.954 271.562 552.027 271.276C552.11 270.98 552.125 270.655 552.072 270.3C552.019 269.945 551.86 269.609 551.595 269.291C551.134 268.739 550.545 268.449 549.828 268.422C549.119 268.406 548.447 268.662 547.813 269.192C547.178 269.722 546.806 270.337 546.695 271.037C546.593 271.747 546.773 272.378 547.235 272.931C547.499 273.249 547.802 273.465 548.142 273.581C548.481 273.697 548.799 273.744 549.094 273.724C549.4 273.694 549.641 273.64 549.819 273.562L551.562 275.65C550.954 275.983 550.264 276.186 549.491 276.258C548.728 276.322 547.971 276.216 547.219 275.94C546.478 275.656 545.838 275.191 545.3 274.546ZM557.238 280.016L555.695 286.593L553.554 284.029L554.966 278.604L551.465 281.526L549.722 279.438L557.553 272.902L559.296 274.99L556.071 277.681L561.257 277.339L563.243 279.719L557.238 280.016ZM560.874 286.899L568.622 286.163L570.16 288.006L562.33 294.542L560.651 292.53L565.579 288.416L557.831 289.153L556.293 287.31L564.124 280.774L565.803 282.785L560.874 286.899ZM568.421 295.941L576.169 295.205L577.707 297.047L569.877 303.583L568.198 301.572L573.126 297.458L565.378 298.194L563.84 296.352L571.671 289.815L573.35 291.827L568.421 295.941ZM575.801 292.672C575.211 291.966 574.93 291.202 574.957 290.381C574.993 289.551 575.319 288.828 575.933 288.211L577.163 289.685C576.942 289.94 576.811 290.231 576.772 290.559C576.733 290.887 576.855 291.219 577.137 291.557C577.419 291.895 577.724 292.074 578.054 292.094C578.383 292.114 578.693 292.038 578.983 291.866L580.214 293.34C579.497 293.834 578.727 294.024 577.904 293.912C577.092 293.792 576.39 293.379 575.801 292.672ZM577.667 312.916L575.924 310.828L581.819 305.906L579.91 303.618L581.844 302.004L587.407 308.667L585.472 310.282L583.562 307.994L577.667 312.916ZM583.035 319.753C582.446 319.047 582.079 318.233 581.935 317.311C581.801 316.381 581.897 315.467 582.224 314.568C582.551 313.67 583.078 312.918 583.805 312.311C584.532 311.705 585.366 311.321 586.309 311.159C587.251 310.998 588.162 311.071 589.044 311.377C589.935 311.675 590.675 312.177 591.265 312.884C591.855 313.59 592.216 314.408 592.35 315.339C592.494 316.26 592.403 317.17 592.076 318.069C591.749 318.967 591.222 319.719 590.495 320.326C589.768 320.933 588.934 321.316 587.992 321.478C587.05 321.639 586.133 321.571 585.241 321.273C584.36 320.966 583.625 320.46 583.035 319.753ZM584.97 318.138C585.431 318.691 586.016 318.976 586.725 318.992C587.442 319.019 588.118 318.768 588.752 318.238C589.387 317.708 589.755 317.088 589.857 316.378C589.967 315.678 589.792 315.051 589.33 314.499C588.869 313.946 588.28 313.656 587.563 313.629C586.854 313.613 586.183 313.87 585.548 314.399C584.913 314.929 584.541 315.544 584.431 316.244C584.329 316.954 584.509 317.586 584.97 318.138ZM596.839 326.023L599.818 323.536L601.561 325.624L593.731 332.161L591.988 330.072L594.905 327.637L592.406 324.643L589.488 327.078L587.745 324.99L595.576 318.454L597.319 320.542L594.34 323.029L596.839 326.023ZM604.336 335.004L607.315 332.518L609.058 334.606L601.228 341.142L599.485 339.054L602.402 336.619L599.903 333.625L596.985 336.06L595.242 333.972L603.073 327.435L604.816 329.524L601.837 332.01L604.336 335.004ZM612.968 346.999C612.589 347.315 612.272 347.527 612.016 347.637L607.312 342.002C606.935 342.508 606.75 343.035 606.758 343.585C606.774 344.145 606.978 344.66 607.371 345.131C607.849 345.704 608.433 346.008 609.121 346.041L610.953 348.237C610.447 348.4 609.863 348.47 609.202 348.448C608.55 348.437 607.896 348.288 607.24 348.002C606.584 347.716 606.017 347.286 605.539 346.713C604.932 345.986 604.557 345.162 604.413 344.24C604.268 343.318 604.359 342.418 604.684 341.538C605.02 340.65 605.561 339.894 606.309 339.271C607.035 338.664 607.866 338.275 608.799 338.103C609.741 337.942 610.653 338.015 611.534 338.321C612.426 338.619 613.162 339.116 613.743 339.812C614.332 340.519 614.697 341.309 614.836 342.183C614.983 343.067 614.891 343.934 614.559 344.785C614.245 345.637 613.715 346.375 612.968 346.999ZM611.885 341.363C611.509 340.913 611.042 340.634 610.484 340.527C609.936 340.411 609.375 340.489 608.801 340.759L611.903 344.475C612.261 343.967 612.437 343.429 612.432 342.861C612.435 342.303 612.252 341.803 611.885 341.363ZM609.444 351.391C609.23 351.135 609.069 350.879 608.959 350.623L610.832 349.059L611.076 349.351C611.349 349.679 611.656 349.848 611.996 349.86C612.346 349.863 612.768 349.693 613.263 349.349L618.371 345.763L623.305 351.674L615.475 358.21L613.732 356.122L619.628 351.201L617.974 349.22L614.443 351.699C613.472 352.388 612.558 352.708 611.701 352.659C610.854 352.602 610.102 352.179 609.444 351.391ZM625.535 359.182C625.97 359.704 626.246 360.274 626.361 360.89C626.484 361.516 626.434 362.122 626.211 362.708C626.007 363.295 625.648 363.803 625.137 364.23C624.615 364.666 624.041 364.936 623.417 365.041C622.811 365.147 622.21 365.083 621.616 364.85C621.03 364.627 620.52 364.254 620.084 363.732L616.982 360.017L624.813 353.48L626.556 355.568L624.176 357.555L625.535 359.182ZM621.499 361.9C621.781 362.238 622.085 362.426 622.413 362.465C622.76 362.506 623.087 362.398 623.394 362.142C623.691 361.894 623.845 361.6 623.856 361.261C623.887 360.923 623.761 360.585 623.479 360.247L622.441 359.003L620.46 360.656L621.499 361.9Z" fill="#11244D"/>
<path d="M392.344 370.538C393.048 370.538 393.677 370.693 394.232 371.002C394.797 371.301 395.234 371.712 395.544 372.234C395.864 372.757 396.024 373.338 396.024 373.978C396.024 374.618 395.864 375.2 395.544 375.722C395.234 376.245 394.797 376.661 394.232 376.97C393.677 377.269 393.048 377.418 392.344 377.418H387.544V366.218H395.24V368.266H389.832V370.538H392.344ZM392.264 375.37C392.69 375.37 393.042 375.242 393.32 374.986C393.597 374.72 393.736 374.384 393.736 373.978C393.736 373.573 393.597 373.242 393.32 372.986C393.042 372.72 392.69 372.586 392.264 372.586H389.832V375.37H392.264ZM400.662 369.05C401.718 369.05 402.55 369.37 403.158 370.01C403.766 370.64 404.07 371.482 404.07 372.538V377.418H402.438L402.086 376.618H402.006C401.366 377.29 400.592 377.626 399.686 377.626C399.174 377.626 398.704 377.52 398.278 377.306C397.862 377.093 397.531 376.8 397.286 376.426C397.051 376.053 396.934 375.642 396.934 375.194C396.934 374.64 397.099 374.16 397.43 373.754C397.76 373.338 398.219 373.024 398.806 372.81C399.403 372.586 400.086 372.474 400.854 372.474H401.894V372.314C401.894 371.898 401.782 371.573 401.558 371.338C401.334 371.104 401.03 370.986 400.646 370.986C400.315 370.986 400.048 371.077 399.846 371.258C399.654 371.429 399.536 371.616 399.494 371.818H397.318C397.36 371.338 397.51 370.89 397.766 370.474C398.032 370.048 398.411 369.706 398.902 369.45C399.392 369.184 399.979 369.05 400.662 369.05ZM400.198 375.85C400.699 375.85 401.104 375.701 401.414 375.402C401.734 375.104 401.894 374.752 401.894 374.346V373.93H400.79C400.203 373.93 399.776 374.026 399.51 374.218C399.243 374.4 399.11 374.656 399.11 374.986C399.11 375.242 399.2 375.45 399.382 375.61C399.574 375.77 399.846 375.85 400.198 375.85ZM410.831 369.258H413.071L409.807 377.658C409.423 378.65 409.013 379.349 408.575 379.754C408.138 380.17 407.621 380.378 407.023 380.378C406.671 380.378 406.33 380.32 405.999 380.202V378.218C406.149 378.293 406.346 378.33 406.591 378.33C406.933 378.33 407.205 378.256 407.407 378.106C407.621 377.968 407.791 377.717 407.919 377.354L407.967 377.194L404.783 369.258H407.135L409.039 374.57L410.831 369.258ZM418.616 374.666L420.952 369.258H423.24V377.418H421.144V373.018L419.144 377.418H418.104L416.104 373.018V377.418H414.008V369.258H416.28L418.616 374.666ZM428.333 369.05C429.389 369.05 430.221 369.37 430.829 370.01C431.437 370.64 431.741 371.482 431.741 372.538V377.418H430.109L429.757 376.618H429.677C429.037 377.29 428.264 377.626 427.357 377.626C426.845 377.626 426.376 377.52 425.949 377.306C425.533 377.093 425.203 376.8 424.957 376.426C424.723 376.053 424.605 375.642 424.605 375.194C424.605 374.64 424.771 374.16 425.101 373.754C425.432 373.338 425.891 373.024 426.477 372.81C427.075 372.586 427.757 372.474 428.525 372.474H429.565V372.314C429.565 371.898 429.453 371.573 429.229 371.338C429.005 371.104 428.701 370.986 428.317 370.986C427.987 370.986 427.72 371.077 427.517 371.258C427.325 371.429 427.208 371.616 427.165 371.818H424.989C425.032 371.338 425.181 370.89 425.437 370.474C425.704 370.048 426.083 369.706 426.573 369.45C427.064 369.184 427.651 369.05 428.333 369.05ZM427.869 375.85C428.371 375.85 428.776 375.701 429.085 375.402C429.405 375.104 429.565 374.752 429.565 374.346V373.93H428.461C427.875 373.93 427.448 374.026 427.181 374.218C426.915 374.4 426.781 374.656 426.781 374.986C426.781 375.242 426.872 375.45 427.053 375.61C427.245 375.77 427.517 375.85 427.869 375.85ZM438.851 372.362V369.258H441.027V377.418H438.851V374.378H435.731V377.418H433.555V369.258H435.731V372.362H438.851ZM446.659 377.626C445.923 377.626 445.235 377.434 444.595 377.05C443.955 376.656 443.443 376.128 443.059 375.466C442.675 374.805 442.483 374.096 442.483 373.338C442.483 372.581 442.675 371.872 443.059 371.21C443.443 370.549 443.955 370.026 444.595 369.642C445.235 369.248 445.923 369.05 446.659 369.05C447.331 369.05 447.944 369.21 448.499 369.53C449.053 369.84 449.507 370.25 449.859 370.762C450.211 371.264 450.44 371.786 450.547 372.33H448.371C448.328 372.181 448.237 372.01 448.099 371.818C447.96 371.616 447.768 371.44 447.523 371.29C447.277 371.141 446.989 371.066 446.659 371.066C446.083 371.066 445.603 371.28 445.219 371.706C444.845 372.133 444.659 372.677 444.659 373.338C444.659 374 444.845 374.544 445.219 374.97C445.603 375.397 446.083 375.61 446.659 375.61C446.989 375.61 447.277 375.536 447.523 375.386C447.768 375.237 447.96 375.066 448.099 374.874C448.237 374.672 448.328 374.496 448.371 374.346H450.547C450.44 374.89 450.211 375.418 449.859 375.93C449.507 376.432 449.053 376.842 448.499 377.162C447.944 377.472 447.331 377.626 446.659 377.626ZM456.138 373.098L459.386 377.418H456.714L454.106 373.77V377.418H451.93V369.258H454.106V372.618L456.554 369.258H459.034L456.138 373.098ZM463.177 369.05C464.233 369.05 465.065 369.37 465.673 370.01C466.281 370.64 466.585 371.482 466.585 372.538V377.418H464.953L464.601 376.618H464.521C463.881 377.29 463.108 377.626 462.201 377.626C461.689 377.626 461.22 377.52 460.793 377.306C460.377 377.093 460.047 376.8 459.801 376.426C459.567 376.053 459.449 375.642 459.449 375.194C459.449 374.64 459.615 374.16 459.945 373.754C460.276 373.338 460.735 373.024 461.321 372.81C461.919 372.586 462.601 372.474 463.369 372.474H464.409V372.314C464.409 371.898 464.297 371.573 464.073 371.338C463.849 371.104 463.545 370.986 463.161 370.986C462.831 370.986 462.564 371.077 462.361 371.258C462.169 371.429 462.052 371.616 462.009 371.818H459.833C459.876 371.338 460.025 370.89 460.281 370.474C460.548 370.048 460.927 369.706 461.417 369.45C461.908 369.184 462.495 369.05 463.177 369.05ZM462.713 375.85C463.215 375.85 463.62 375.701 463.929 375.402C464.249 375.104 464.409 374.752 464.409 374.346V373.93H463.305C462.719 373.93 462.292 374.026 462.025 374.218C461.759 374.4 461.625 374.656 461.625 374.986C461.625 375.242 461.716 375.45 461.897 375.61C462.089 375.77 462.361 375.85 462.713 375.85ZM474.863 369.258V377.418H472.687V374.826H471.647L470.143 377.418H467.679L469.535 374.458C469.076 374.234 468.714 373.909 468.447 373.482C468.18 373.056 468.047 372.57 468.047 372.026C468.047 371.205 468.319 370.538 468.863 370.026C469.418 369.514 470.143 369.258 471.039 369.258H474.863ZM471.327 371.05C470.975 371.05 470.703 371.141 470.511 371.322C470.319 371.493 470.223 371.728 470.223 372.026C470.223 372.346 470.319 372.597 470.511 372.778C470.703 372.949 470.975 373.034 471.327 373.034H472.767V371.05H471.327Z" fill="#11244D"/>
<path d="M126.998 119.312L131.334 125.072H128.486L124.806 120.048V125.072H122.518V113.872H124.806V118.72L128.31 113.872H131.014L126.998 119.312ZM132.092 127.952V116.912H133.724L134.076 117.712H134.156C134.338 117.488 134.631 117.264 135.036 117.04C135.442 116.816 135.922 116.704 136.476 116.704C137.138 116.704 137.756 116.891 138.332 117.264C138.919 117.637 139.383 118.155 139.724 118.816C140.076 119.467 140.252 120.192 140.252 120.992C140.252 121.792 140.076 122.523 139.724 123.184C139.383 123.835 138.919 124.347 138.332 124.72C137.756 125.093 137.138 125.28 136.476 125.28C136.124 125.28 135.794 125.221 135.484 125.104C135.186 124.997 134.935 124.875 134.732 124.736C134.54 124.597 134.412 124.475 134.348 124.368H134.268V127.952H132.092ZM136.172 123.264C136.514 123.264 136.828 123.168 137.116 122.976C137.404 122.784 137.634 122.517 137.804 122.176C137.986 121.824 138.076 121.429 138.076 120.992C138.076 120.555 137.986 120.165 137.804 119.824C137.634 119.472 137.404 119.2 137.116 119.008C136.828 118.816 136.514 118.72 136.172 118.72C135.831 118.72 135.516 118.816 135.228 119.008C134.94 119.2 134.706 119.472 134.524 119.824C134.354 120.165 134.268 120.555 134.268 120.992C134.268 121.429 134.354 121.824 134.524 122.176C134.706 122.517 134.94 122.784 135.228 122.976C135.516 123.168 135.831 123.264 136.172 123.264ZM144.902 116.704C145.958 116.704 146.79 117.024 147.398 117.664C148.006 118.293 148.31 119.136 148.31 120.192V125.072H146.678L146.326 124.272H146.246C145.606 124.944 144.832 125.28 143.926 125.28C143.414 125.28 142.944 125.173 142.518 124.96C142.102 124.747 141.771 124.453 141.526 124.08C141.291 123.707 141.174 123.296 141.174 122.848C141.174 122.293 141.339 121.813 141.67 121.408C142 120.992 142.459 120.677 143.046 120.464C143.643 120.24 144.326 120.128 145.094 120.128H146.134V119.968C146.134 119.552 146.022 119.227 145.798 118.992C145.574 118.757 145.27 118.64 144.886 118.64C144.555 118.64 144.288 118.731 144.086 118.912C143.894 119.083 143.776 119.269 143.734 119.472H141.558C141.6 118.992 141.75 118.544 142.006 118.128C142.272 117.701 142.651 117.36 143.142 117.104C143.632 116.837 144.219 116.704 144.902 116.704ZM144.438 123.504C144.939 123.504 145.344 123.355 145.654 123.056C145.974 122.757 146.134 122.405 146.134 122V121.584H145.03C144.443 121.584 144.016 121.68 143.75 121.872C143.483 122.053 143.35 122.309 143.35 122.64C143.35 122.896 143.44 123.104 143.622 123.264C143.814 123.424 144.086 123.504 144.438 123.504ZM153.868 125.28C153.132 125.28 152.444 125.088 151.804 124.704C151.164 124.309 150.652 123.781 150.268 123.12C149.884 122.459 149.692 121.749 149.692 120.992C149.692 120.235 149.884 119.525 150.268 118.864C150.652 118.203 151.164 117.68 151.804 117.296C152.444 116.901 153.132 116.704 153.868 116.704C154.54 116.704 155.153 116.864 155.708 117.184C156.262 117.493 156.716 117.904 157.068 118.416C157.42 118.917 157.649 119.44 157.756 119.984H155.58C155.537 119.835 155.446 119.664 155.308 119.472C155.169 119.269 154.977 119.093 154.732 118.944C154.486 118.795 154.198 118.72 153.868 118.72C153.292 118.72 152.812 118.933 152.428 119.36C152.054 119.787 151.868 120.331 151.868 120.992C151.868 121.653 152.054 122.197 152.428 122.624C152.812 123.051 153.292 123.264 153.868 123.264C154.198 123.264 154.486 123.189 154.732 123.04C154.977 122.891 155.169 122.72 155.308 122.528C155.446 122.325 155.537 122.149 155.58 122H157.756C157.649 122.544 157.42 123.072 157.068 123.584C156.716 124.085 156.262 124.496 155.708 124.816C155.153 125.125 154.54 125.28 153.868 125.28ZM164.435 120.016V116.912H166.611V125.072H164.435V122.032H161.315V125.072H159.139V116.912H161.315V120.016H164.435ZM172.243 125.28C171.507 125.28 170.819 125.088 170.179 124.704C169.539 124.309 169.027 123.781 168.643 123.12C168.259 122.459 168.067 121.749 168.067 120.992C168.067 120.235 168.259 119.525 168.643 118.864C169.027 118.203 169.539 117.68 170.179 117.296C170.819 116.901 171.507 116.704 172.243 116.704C172.979 116.704 173.667 116.901 174.307 117.296C174.947 117.68 175.459 118.203 175.843 118.864C176.227 119.525 176.419 120.235 176.419 120.992C176.419 121.749 176.227 122.459 175.843 123.12C175.459 123.781 174.947 124.309 174.307 124.704C173.667 125.088 172.979 125.28 172.243 125.28ZM172.243 123.264C172.819 123.264 173.293 123.051 173.667 122.624C174.051 122.197 174.243 121.653 174.243 120.992C174.243 120.331 174.051 119.787 173.667 119.36C173.293 118.933 172.819 118.72 172.243 118.72C171.667 118.72 171.187 118.933 170.803 119.36C170.429 119.787 170.243 120.331 170.243 120.992C170.243 121.653 170.429 122.197 170.803 122.624C171.187 123.051 171.667 123.264 172.243 123.264ZM181.618 125.28C180.882 125.28 180.194 125.088 179.554 124.704C178.914 124.309 178.402 123.781 178.018 123.12C177.634 122.459 177.442 121.749 177.442 120.992C177.442 120.235 177.634 119.525 178.018 118.864C178.402 118.203 178.914 117.68 179.554 117.296C180.194 116.901 180.882 116.704 181.618 116.704C182.29 116.704 182.903 116.864 183.458 117.184C184.012 117.493 184.466 117.904 184.818 118.416C185.17 118.917 185.399 119.44 185.506 119.984H183.33C183.287 119.835 183.196 119.664 183.058 119.472C182.919 119.269 182.727 119.093 182.482 118.944C182.236 118.795 181.948 118.72 181.618 118.72C181.042 118.72 180.562 118.933 180.178 119.36C179.804 119.787 179.618 120.331 179.618 120.992C179.618 121.653 179.804 122.197 180.178 122.624C180.562 123.051 181.042 123.264 181.618 123.264C181.948 123.264 182.236 123.189 182.482 123.04C182.727 122.891 182.919 122.72 183.058 122.528C183.196 122.325 183.287 122.149 183.33 122H185.506C185.399 122.544 185.17 123.072 184.818 123.584C184.466 124.085 184.012 124.496 183.458 124.816C182.903 125.125 182.29 125.28 181.618 125.28ZM194.617 120.864C194.617 121.259 194.585 121.563 194.521 121.776H188.649C188.767 122.267 188.996 122.651 189.337 122.928C189.689 123.205 190.111 123.344 190.601 123.344C191.199 123.344 191.684 123.141 192.057 122.736H194.345C194.185 123.131 193.929 123.525 193.577 123.92C193.236 124.315 192.809 124.64 192.297 124.896C191.785 125.152 191.231 125.28 190.633 125.28C189.876 125.28 189.177 125.088 188.537 124.704C187.897 124.32 187.391 123.803 187.017 123.152C186.644 122.491 186.457 121.771 186.457 120.992C186.457 120.235 186.644 119.525 187.017 118.864C187.401 118.203 187.913 117.68 188.553 117.296C189.193 116.901 189.876 116.704 190.601 116.704C191.337 116.704 192.009 116.885 192.617 117.248C193.236 117.611 193.721 118.112 194.073 118.752C194.436 119.381 194.617 120.085 194.617 120.864ZM190.601 118.64C190.132 118.64 189.721 118.784 189.369 119.072C189.017 119.349 188.777 119.733 188.649 120.224H192.521C192.393 119.744 192.153 119.36 191.801 119.072C191.46 118.784 191.06 118.64 190.601 118.64ZM195.508 125.28C195.242 125.28 195.002 125.248 194.788 125.184V123.232H195.092C195.434 123.232 195.695 123.131 195.876 122.928C196.058 122.715 196.17 122.368 196.212 121.888L196.628 116.912H202.788V125.072H200.612V118.928H198.548L198.26 122.368C198.186 123.317 197.914 124.043 197.444 124.544C196.975 125.035 196.33 125.28 195.508 125.28ZM208.543 119.392C209.087 119.392 209.577 119.515 210.015 119.76C210.463 120.005 210.809 120.347 211.055 120.784C211.311 121.211 211.439 121.691 211.439 122.224C211.439 122.768 211.311 123.259 211.055 123.696C210.809 124.123 210.463 124.459 210.015 124.704C209.577 124.949 209.087 125.072 208.543 125.072H204.671V116.912H206.847V119.392H208.543ZM208.143 123.264C208.495 123.264 208.767 123.173 208.959 122.992C209.161 122.8 209.263 122.544 209.263 122.224C209.263 121.915 209.161 121.669 208.959 121.488C208.767 121.296 208.495 121.2 208.143 121.2H206.847V123.264H208.143ZM216.446 125.28C215.71 125.28 215.022 125.088 214.382 124.704C213.742 124.309 213.23 123.781 212.846 123.12C212.462 122.459 212.27 121.749 212.27 120.992C212.27 120.235 212.462 119.525 212.846 118.864C213.23 118.203 213.742 117.68 214.382 117.296C215.022 116.901 215.71 116.704 216.446 116.704C217.118 116.704 217.731 116.864 218.286 117.184C218.84 117.493 219.294 117.904 219.646 118.416C219.998 118.917 220.227 119.44 220.334 119.984H218.158C218.115 119.835 218.024 119.664 217.886 119.472C217.747 119.269 217.555 119.093 217.31 118.944C217.064 118.795 216.776 118.72 216.446 118.72C215.87 118.72 215.39 118.933 215.006 119.36C214.632 119.787 214.446 120.331 214.446 120.992C214.446 121.653 214.632 122.197 215.006 122.624C215.39 123.051 215.87 123.264 216.446 123.264C216.776 123.264 217.064 123.189 217.31 123.04C217.555 122.891 217.747 122.72 217.886 122.528C218.024 122.325 218.115 122.149 218.158 122H220.334C220.227 122.544 219.998 123.072 219.646 123.584C219.294 124.085 218.84 124.496 218.286 124.816C217.731 125.125 217.118 125.28 216.446 125.28ZM225.925 120.752L229.173 125.072H226.501L223.893 121.424V125.072H221.717V116.912H223.893V120.272L226.341 116.912H228.821L225.925 120.752ZM232.964 116.704C234.02 116.704 234.852 117.024 235.46 117.664C236.068 118.293 236.372 119.136 236.372 120.192V125.072H234.74L234.388 124.272H234.308C233.668 124.944 232.895 125.28 231.988 125.28C231.476 125.28 231.007 125.173 230.58 124.96C230.164 124.747 229.834 124.453 229.588 124.08C229.354 123.707 229.236 123.296 229.236 122.848C229.236 122.293 229.402 121.813 229.732 121.408C230.063 120.992 230.522 120.677 231.108 120.464C231.706 120.24 232.388 120.128 233.156 120.128H234.196V119.968C234.196 119.552 234.084 119.227 233.86 118.992C233.636 118.757 233.332 118.64 232.948 118.64C232.618 118.64 232.351 118.731 232.148 118.912C231.956 119.083 231.839 119.269 231.796 119.472H229.62C229.663 118.992 229.812 118.544 230.068 118.128C230.335 117.701 230.714 117.36 231.204 117.104C231.695 116.837 232.282 116.704 232.964 116.704ZM232.5 123.504C233.002 123.504 233.407 123.355 233.716 123.056C234.036 122.757 234.196 122.405 234.196 122V121.584H233.092C232.506 121.584 232.079 121.68 231.812 121.872C231.546 122.053 231.412 122.309 231.412 122.64C231.412 122.896 231.503 123.104 231.684 123.264C231.876 123.424 232.148 123.504 232.5 123.504ZM244.65 116.912V125.072H242.474V122.48H241.434L239.93 125.072H237.466L239.322 122.112C238.864 121.888 238.501 121.563 238.234 121.136C237.968 120.709 237.834 120.224 237.834 119.68C237.834 118.859 238.106 118.192 238.65 117.68C239.205 117.168 239.93 116.912 240.826 116.912H244.65ZM241.114 118.704C240.762 118.704 240.49 118.795 240.298 118.976C240.106 119.147 240.01 119.381 240.01 119.68C240.01 120 240.106 120.251 240.298 120.432C240.49 120.603 240.762 120.688 241.114 120.688H242.554V118.704H241.114Z" fill="#11244D"/>
<path d="M83.7048 372.681L84.571 368.4L86.8135 368.853L84.5925 379.831L82.3499 379.377L83.2669 374.845L78.7818 373.937L77.8648 378.47L75.6223 378.016L77.8433 367.038L80.0858 367.492L79.2196 371.773L83.7048 372.681ZM90.2426 381.186C89.5212 381.04 88.8849 380.716 88.3338 380.212C87.7847 379.699 87.3876 379.08 87.1424 378.355C86.8972 377.631 86.8496 376.897 86.9998 376.155C87.15 375.413 87.4789 374.756 87.9864 374.184C88.4939 373.612 89.0994 373.201 89.8028 372.951C90.5084 372.692 91.2218 372.635 91.9432 372.78C92.6646 372.926 93.2998 373.256 93.8488 373.77C94.4 374.273 94.7982 374.887 95.0434 375.611C95.2886 376.336 95.3361 377.069 95.186 377.811C95.0358 378.554 94.7069 379.211 94.1994 379.783C93.6919 380.355 93.0853 380.771 92.3798 381.031C91.6763 381.28 90.9639 381.332 90.2426 381.186ZM90.6423 379.21C91.2069 379.324 91.7144 379.209 92.165 378.865C92.626 378.523 92.922 378.028 93.0532 377.38C93.1843 376.732 93.104 376.16 92.8122 375.666C92.5309 375.174 92.108 374.871 91.5434 374.756C90.9789 374.642 90.4661 374.756 90.0051 375.098C89.5546 375.442 89.2638 375.939 89.1326 376.587C89.0015 377.235 89.0765 377.805 89.3579 378.297C89.6496 378.792 90.0778 379.096 90.6423 379.21ZM102.155 379.025C102.48 379.244 102.731 379.539 102.906 379.912C103.083 380.274 103.124 380.691 103.028 381.161C102.944 381.579 102.756 381.944 102.464 382.255C102.173 382.566 101.813 382.787 101.383 382.918C100.956 383.038 100.502 383.05 100.021 382.952L95.803 382.099L97.4211 374.101L101.342 374.894C101.823 374.992 102.231 375.178 102.567 375.452C102.914 375.729 103.163 376.057 103.315 376.436C103.469 376.805 103.507 377.182 103.429 377.569C103.35 377.956 103.188 378.277 102.94 378.531C102.693 378.786 102.431 378.951 102.155 379.025ZM99.1551 376.101L98.8251 377.732L100.268 378.023C100.54 378.078 100.769 378.049 100.955 377.934C101.152 377.821 101.278 377.629 101.333 377.357C101.38 377.127 101.334 376.922 101.196 376.742C101.069 376.564 100.87 376.447 100.598 376.392L99.1551 376.101ZM99.9029 381.28C100.185 381.337 100.426 381.304 100.625 381.181C100.824 381.058 100.952 380.855 101.009 380.573C101.06 380.322 101.013 380.095 100.869 379.892C100.736 379.691 100.533 379.563 100.261 379.508L98.5363 379.159L98.1778 380.931L99.9029 381.28ZM107.625 384.703C106.903 384.557 106.267 384.232 105.716 383.729C105.167 383.215 104.77 382.596 104.525 381.872C104.279 381.148 104.232 380.414 104.382 379.672C104.532 378.93 104.861 378.273 105.369 377.701C105.876 377.128 106.482 376.718 107.185 376.468C107.891 376.208 108.604 376.151 109.325 376.297C110.047 376.443 110.682 376.773 111.231 377.287C111.782 377.79 112.18 378.404 112.426 379.128C112.671 379.853 112.718 380.586 112.568 381.328C112.418 382.071 112.089 382.728 111.582 383.3C111.074 383.872 110.468 384.288 109.762 384.548C109.059 384.797 108.346 384.849 107.625 384.703ZM108.025 382.727C108.589 382.841 109.097 382.726 109.547 382.382C110.008 382.04 110.304 381.545 110.435 380.897C110.566 380.249 110.486 379.677 110.194 379.183C109.913 378.691 109.49 378.388 108.926 378.273C108.361 378.159 107.848 378.273 107.387 378.615C106.937 378.959 106.646 379.455 106.515 380.104C106.384 380.752 106.459 381.322 106.74 381.814C107.032 382.309 107.46 382.613 108.025 382.727ZM112.614 388.439L114.803 377.618L116.403 377.941L116.589 378.795L116.668 378.811C116.89 378.628 117.222 378.466 117.663 378.327C118.105 378.188 118.598 378.173 119.142 378.283C119.79 378.414 120.359 378.72 120.85 379.2C121.351 379.683 121.703 380.282 121.906 380.998C122.122 381.705 122.151 382.451 121.992 383.235C121.834 384.019 121.516 384.7 121.04 385.279C120.576 385.849 120.02 386.259 119.371 386.508C118.732 386.76 118.089 386.82 117.441 386.689C117.096 386.619 116.783 386.496 116.503 386.32C116.232 386.156 116.01 385.986 115.839 385.81C115.679 385.636 115.578 385.49 115.536 385.373L115.458 385.357L114.747 388.87L112.614 388.439ZM117.543 384.653C117.877 384.72 118.205 384.689 118.525 384.558C118.845 384.427 119.123 384.211 119.358 383.91C119.606 383.601 119.773 383.232 119.859 382.803C119.946 382.375 119.934 381.975 119.824 381.605C119.727 381.226 119.556 380.914 119.312 380.669C119.068 380.423 118.778 380.267 118.444 380.199C118.109 380.131 117.782 380.163 117.461 380.294C117.141 380.425 116.857 380.645 116.61 380.954C116.375 381.255 116.214 381.62 116.127 382.048C116.04 382.477 116.046 382.881 116.143 383.26C116.253 383.63 116.43 383.938 116.675 384.183C116.919 384.429 117.208 384.585 117.543 384.653ZM130.557 380.805L128.939 388.803L126.807 388.372L127.321 385.831L126.301 385.625L124.313 387.867L121.898 387.379L124.304 384.845C123.899 384.535 123.608 384.144 123.431 383.673C123.254 383.202 123.22 382.7 123.328 382.167C123.491 381.362 123.89 380.762 124.524 380.368C125.17 379.976 125.931 379.869 126.809 380.047L130.557 380.805ZM126.736 381.86C126.391 381.791 126.107 381.826 125.883 381.965C125.661 382.094 125.52 382.305 125.461 382.598C125.397 382.912 125.442 383.177 125.594 383.392C125.748 383.598 125.998 383.735 126.343 383.805L127.754 384.091L128.148 382.146L126.736 381.86ZM136.361 386.044C136.689 386.252 136.942 386.537 137.119 386.899C137.296 387.262 137.339 387.668 137.248 388.117C137.159 388.556 136.946 388.938 136.608 389.261C136.281 389.587 135.849 389.815 135.311 389.945C134.773 390.076 134.164 390.073 133.484 389.935C132.47 389.73 131.72 389.322 131.234 388.713C130.761 388.094 130.549 387.366 130.599 386.527L132.638 386.94C132.623 387.176 132.705 387.416 132.884 387.659C133.065 387.891 133.355 388.048 133.752 388.128C134.181 388.215 134.516 388.201 134.756 388.087C134.999 387.962 135.147 387.768 135.2 387.507C135.253 387.246 135.191 387.015 135.013 386.816C134.849 386.609 134.567 386.465 134.17 386.385L133.214 386.191L133.512 384.717L134.468 384.91C134.782 384.974 135.043 384.95 135.25 384.84C135.47 384.721 135.603 384.547 135.65 384.317C135.696 384.087 135.64 383.88 135.482 383.695C135.336 383.502 135.101 383.373 134.776 383.308C134.4 383.231 134.101 383.258 133.879 383.387C133.667 383.519 133.512 383.694 133.413 383.913L131.39 383.504C131.643 382.739 132.1 382.173 132.762 381.806C133.437 381.431 134.255 381.341 135.217 381.536C135.833 381.661 136.349 381.884 136.762 382.208C137.178 382.52 137.468 382.889 137.632 383.314C137.807 383.741 137.85 384.174 137.761 384.613C137.619 385.314 137.153 385.791 136.361 386.044ZM143.005 383.112C144.04 383.321 144.792 383.8 145.261 384.547C145.732 385.285 145.863 386.171 145.654 387.206L144.686 391.989L143.087 391.666L142.9 390.812L142.822 390.796C142.061 391.328 141.237 391.503 140.348 391.324C139.846 391.222 139.407 391.025 139.031 390.731C138.666 390.439 138.4 390.086 138.234 389.672C138.078 389.259 138.044 388.833 138.133 388.394C138.243 387.851 138.5 387.413 138.905 387.081C139.311 386.739 139.823 386.522 140.44 386.429C141.07 386.328 141.762 386.353 142.514 386.506L143.534 386.712L143.565 386.555C143.648 386.147 143.603 385.806 143.43 385.532C143.257 385.257 142.982 385.082 142.606 385.006C142.282 384.94 142.002 384.976 141.768 385.114C141.546 385.243 141.394 385.403 141.312 385.593L139.179 385.161C139.316 384.699 139.551 384.29 139.884 383.933C140.23 383.568 140.669 383.308 141.201 383.155C141.735 382.991 142.336 382.976 143.005 383.112ZM141.202 389.685C141.693 389.784 142.12 389.718 142.483 389.487C142.856 389.257 143.082 388.944 143.163 388.547L143.245 388.139L142.163 387.92C141.588 387.804 141.151 387.813 140.851 387.948C140.554 388.073 140.372 388.298 140.307 388.622C140.256 388.873 140.304 389.095 140.45 389.287C140.606 389.482 140.857 389.615 141.202 389.685ZM152.657 388.444L153.273 385.401L155.406 385.833L153.788 393.831L151.655 393.399L152.258 390.42L149.2 389.801L148.597 392.78L146.464 392.349L148.082 384.351L150.215 384.782L149.599 387.825L152.657 388.444ZM159.266 395.151C158.544 395.005 157.908 394.681 157.357 394.177C156.808 393.664 156.411 393.045 156.166 392.32C155.92 391.596 155.873 390.863 156.023 390.12C156.173 389.378 156.502 388.721 157.01 388.149C157.517 387.577 158.123 387.166 158.826 386.917C159.532 386.657 160.245 386.6 160.967 386.746C161.625 386.879 162.195 387.157 162.675 387.581C163.157 387.994 163.52 388.487 163.763 389.058C164.009 389.619 164.13 390.177 164.127 390.731L161.994 390.3C161.982 390.145 161.927 389.96 161.829 389.744C161.733 389.518 161.58 389.307 161.369 389.112C161.158 388.917 160.891 388.787 160.567 388.722C160.002 388.607 159.489 388.721 159.028 389.063C158.578 389.407 158.287 389.904 158.156 390.552C158.025 391.2 158.1 391.77 158.381 392.262C158.673 392.757 159.101 393.061 159.666 393.175C159.99 393.241 160.287 393.225 160.557 393.127C160.827 393.029 161.049 392.9 161.223 392.739C161.399 392.568 161.523 392.414 161.594 392.276L163.727 392.707C163.515 393.219 163.185 393.691 162.739 394.124C162.294 394.545 161.768 394.858 161.161 395.061C160.556 395.255 159.925 395.285 159.266 395.151ZM169.455 392.593L171.782 397.471L169.163 396.941L167.33 392.849L166.607 396.424L164.474 395.993L166.092 387.995L168.225 388.426L167.559 391.72L170.624 388.912L173.055 389.404L169.455 392.593ZM177.157 390.021C178.192 390.231 178.944 390.709 179.413 391.457C179.884 392.195 180.015 393.081 179.806 394.116L178.838 398.899L177.238 398.575L177.052 397.721L176.974 397.706C176.213 398.237 175.388 398.413 174.5 398.233C173.998 398.132 173.559 397.934 173.183 397.641C172.818 397.349 172.552 396.996 172.385 396.581C172.229 396.169 172.196 395.743 172.285 395.304C172.395 394.76 172.652 394.323 173.056 393.991C173.463 393.649 173.975 393.431 174.592 393.339C175.222 393.237 175.913 393.263 176.666 393.415L177.686 393.622L177.717 393.465C177.8 393.057 177.754 392.716 177.581 392.442C177.408 392.167 177.134 391.992 176.757 391.916C176.433 391.85 176.154 391.886 175.919 392.024C175.697 392.153 175.545 392.313 175.463 392.503L173.33 392.071C173.467 391.609 173.703 391.2 174.036 390.843C174.382 390.477 174.821 390.218 175.353 390.064C175.886 389.9 176.488 389.886 177.157 390.021ZM175.354 396.594C175.845 396.694 176.272 396.628 176.634 396.396C177.007 396.167 177.234 395.854 177.314 395.456L177.397 395.049L176.315 394.83C175.74 394.713 175.302 394.723 175.003 394.858C174.706 394.983 174.524 395.208 174.459 395.532C174.408 395.783 174.456 396.004 174.602 396.197C174.758 396.392 175.009 396.524 175.354 396.594ZM188.57 392.543L186.951 400.54L184.819 400.109L185.333 397.568L184.313 397.362L182.325 399.604L179.91 399.116L182.316 396.583C181.911 396.272 181.62 395.881 181.443 395.41C181.267 394.939 181.232 394.437 181.34 393.904C181.503 393.099 181.902 392.499 182.536 392.105C183.182 391.714 183.943 391.607 184.821 391.784L188.57 392.543ZM184.748 393.598C184.403 393.528 184.119 393.563 183.895 393.703C183.673 393.832 183.532 394.043 183.473 394.335C183.409 394.649 183.454 394.914 183.606 395.13C183.76 395.335 184.01 395.473 184.355 395.542L185.766 395.828L186.16 393.883L184.748 393.598ZM199.381 394.73L201.577 395.174L196.712 402.76C196.139 403.656 195.597 404.26 195.088 404.57C194.577 404.891 194.029 404.992 193.444 404.874C193.099 404.804 192.776 404.679 192.475 404.498L192.868 402.554C193 402.657 193.186 402.732 193.426 402.781C193.761 402.849 194.042 402.829 194.27 402.723C194.507 402.63 194.724 402.418 194.921 402.088L195 401.94L193.453 393.531L195.758 393.997L196.571 399.581L199.381 394.73ZM199.957 403.384C199.696 403.331 199.467 403.252 199.27 403.147L199.657 401.234L199.955 401.294C200.29 401.362 200.566 401.314 200.784 401.152C201.004 400.979 201.183 400.661 201.32 400.199L202.714 395.404L208.752 396.626L207.134 404.624L205.001 404.192L206.219 398.17L204.196 397.761L203.232 401.076C202.97 401.991 202.56 402.648 202 403.047C201.443 403.434 200.762 403.547 199.957 403.384ZM209.815 405.379C209.46 405.307 209.186 405.126 208.995 404.837C208.803 404.548 208.743 404.226 208.815 403.87C208.887 403.515 209.067 403.241 209.356 403.049C209.645 402.858 209.968 402.798 210.323 402.87C210.679 402.941 210.952 403.122 211.144 403.411C211.336 403.7 211.396 404.022 211.324 404.378C211.252 404.733 211.071 405.007 210.782 405.199C210.493 405.391 210.171 405.451 209.815 405.379Z" fill="#11244D"/>
<path d="M202.024 169.889L205.373 167.085L206.842 168.839L198.255 176.03L196.786 174.275L200.331 171.307L197.393 167.798L193.848 170.767L192.379 169.013L200.966 161.822L202.435 163.577L199.086 166.381L202.024 169.889ZM203.243 177.277L209.441 176.678L210.673 178.15L204.417 183.389L203.072 181.782L207.009 178.485L200.812 179.083L199.579 177.611L205.835 172.372L207.181 173.979L203.243 177.277ZM214.027 188.111L212.613 193.176L211.011 191.263L212.311 186.96L209.429 189.374L208.083 187.767L210.966 185.353L206.501 185.877L204.899 183.964L210.134 183.462L211.381 178.995L212.901 180.81L211.714 184.726L214.339 182.528L215.685 184.135L213.06 186.333L217.123 185.852L218.643 187.668L214.027 188.111ZM220.368 194.562L222.748 192.569L224.145 194.238L217.888 199.476L216.491 197.808L218.822 195.856L216.819 193.464L214.488 195.416L213.091 193.748L219.348 188.509L220.745 190.177L218.365 192.17L220.368 194.562ZM229.506 200.641L223.25 205.879L221.853 204.211L223.84 202.547L223.173 201.75L220.22 202.261L218.638 200.371L222.099 199.894C221.976 199.399 221.993 198.912 222.149 198.433C222.305 197.955 222.591 197.541 223.008 197.192C223.638 196.665 224.324 196.445 225.065 196.533C225.814 196.63 226.476 197.022 227.051 197.709L229.506 200.641ZM225.862 199.08C225.636 198.81 225.392 198.66 225.13 198.629C224.876 198.591 224.634 198.668 224.405 198.86C224.16 199.066 224.029 199.3 224.014 199.564C224.006 199.821 224.115 200.084 224.341 200.354L225.266 201.458L226.787 200.184L225.862 199.08ZM234.873 207.05L228.617 212.288L227.22 210.62L229.207 208.956L228.539 208.159L225.587 208.67L224.005 206.781L227.466 206.303C227.343 205.808 227.36 205.321 227.515 204.842C227.671 204.364 227.958 203.95 228.375 203.601C229.005 203.074 229.69 202.854 230.432 202.943C231.181 203.039 231.843 203.431 232.418 204.118L234.873 207.05ZM231.229 205.489C231.003 205.219 230.759 205.069 230.497 205.038C230.243 205 230.001 205.078 229.772 205.269C229.527 205.475 229.396 205.709 229.38 205.973C229.373 206.23 229.482 206.493 229.708 206.763L230.632 207.867L232.154 206.593L231.229 205.489ZM239.827 216.704L238.195 223.727L236.366 221.543L237.856 215.496L234.004 218.722L232.535 216.967L241.122 209.777L242.591 211.531L238.874 214.643L244.84 214.218L246.576 216.291L239.827 216.704ZM236.473 226.157L244.938 219.069L245.985 220.32L245.598 221.104L245.649 221.165C245.938 221.16 246.298 221.241 246.73 221.408C247.162 221.575 247.556 221.871 247.912 222.297C248.336 222.804 248.59 223.398 248.674 224.079C248.764 224.769 248.666 225.456 248.378 226.143C248.105 226.83 247.662 227.431 247.048 227.945C246.435 228.458 245.762 228.792 245.029 228.947C244.311 229.103 243.62 229.076 242.957 228.866C242.301 228.664 241.761 228.309 241.337 227.802C241.111 227.533 240.943 227.241 240.835 226.929C240.725 226.631 240.658 226.36 240.634 226.116C240.617 225.88 240.629 225.703 240.67 225.585L240.618 225.524L237.87 227.825L236.473 226.157ZM242.687 226.275C242.906 226.537 243.182 226.716 243.514 226.814C243.846 226.911 244.198 226.916 244.569 226.828C244.955 226.741 245.316 226.557 245.651 226.276C245.987 225.995 246.227 225.676 246.372 225.318C246.533 224.961 246.594 224.61 246.556 224.266C246.518 223.922 246.39 223.619 246.171 223.358C245.952 223.096 245.676 222.916 245.344 222.819C245.012 222.721 244.653 222.716 244.266 222.803C243.895 222.891 243.542 223.076 243.207 223.357C242.871 223.637 242.623 223.956 242.463 224.313C242.318 224.671 242.264 225.022 242.302 225.366C242.339 225.71 242.468 226.013 242.687 226.275ZM253.321 228.756C253.999 229.566 254.288 230.409 254.187 231.286C254.095 232.156 253.644 232.93 252.835 233.608L249.093 236.741L248.045 235.49L248.433 234.707L248.381 234.645C247.455 234.586 246.701 234.209 246.119 233.514C245.79 233.121 245.571 232.693 245.46 232.229C245.357 231.773 245.37 231.331 245.498 230.903C245.634 230.484 245.873 230.13 246.217 229.842C246.642 229.486 247.116 229.305 247.639 229.298C248.171 229.285 248.706 229.434 249.247 229.747C249.802 230.061 250.326 230.513 250.819 231.102L251.487 231.899L251.609 231.796C251.928 231.529 252.106 231.235 252.142 230.912C252.178 230.59 252.073 230.281 251.826 229.987C251.614 229.733 251.373 229.587 251.104 229.548C250.85 229.511 250.632 229.54 250.449 229.638L249.052 227.969C249.447 227.694 249.887 227.521 250.37 227.45C250.868 227.381 251.373 227.452 251.884 227.664C252.404 227.869 252.883 228.233 253.321 228.756ZM247.809 232.766C248.131 233.151 248.506 233.365 248.934 233.411C249.368 233.464 249.741 233.361 250.051 233.101L250.37 232.834L249.662 231.987C249.285 231.538 248.937 231.272 248.619 231.191C248.309 231.103 248.027 231.165 247.773 231.377C247.577 231.542 247.476 231.745 247.47 231.986C247.47 232.236 247.583 232.496 247.809 232.766ZM252.502 241.136C252.029 240.572 251.735 239.921 251.618 239.184C251.51 238.44 251.586 237.708 251.847 236.989C252.107 236.27 252.528 235.668 253.108 235.182C253.689 234.695 254.356 234.387 255.11 234.257C255.863 234.127 256.593 234.184 257.298 234.428C258.012 234.665 258.605 235.066 259.077 235.63C259.508 236.146 259.78 236.719 259.89 237.349C260.009 237.973 259.985 238.584 259.819 239.183C259.661 239.775 259.407 240.286 259.058 240.717L257.661 239.049C257.749 238.92 257.821 238.741 257.879 238.511C257.946 238.275 257.957 238.015 257.914 237.731C257.871 237.447 257.744 237.178 257.531 236.925C257.162 236.483 256.69 236.252 256.116 236.231C255.549 236.219 255.012 236.425 254.505 236.85C253.998 237.274 253.701 237.767 253.614 238.327C253.533 238.895 253.678 239.4 254.048 239.842C254.26 240.095 254.502 240.268 254.774 240.361C255.046 240.453 255.3 240.49 255.536 240.473C255.781 240.45 255.974 240.406 256.116 240.343L257.513 242.011C257.027 242.279 256.475 242.442 255.857 242.501C255.246 242.553 254.64 242.469 254.039 242.249C253.446 242.022 252.933 241.651 252.502 241.136ZM263.322 245.859L265.702 243.866L267.099 245.534L260.843 250.773L259.446 249.105L261.777 247.153L259.774 244.761L257.443 246.713L256.046 245.044L262.302 239.806L263.699 241.474L261.319 243.467L263.322 245.859ZM264.299 255.224C263.826 254.66 263.532 254.009 263.415 253.272C263.307 252.528 263.383 251.796 263.644 251.077C263.904 250.358 264.325 249.756 264.905 249.27C265.486 248.783 266.153 248.475 266.907 248.345C267.66 248.215 268.39 248.272 269.095 248.516C269.808 248.753 270.401 249.154 270.874 249.718C271.347 250.283 271.637 250.937 271.745 251.681C271.862 252.418 271.79 253.146 271.529 253.865C271.269 254.584 270.848 255.187 270.267 255.673C269.687 256.159 269.02 256.467 268.266 256.598C267.513 256.728 266.779 256.674 266.066 256.437C265.36 256.193 264.771 255.789 264.299 255.224ZM265.844 253.93C266.214 254.372 266.683 254.599 267.249 254.611C267.823 254.631 268.363 254.429 268.87 254.005C269.377 253.58 269.671 253.084 269.752 252.515C269.839 251.955 269.698 251.454 269.328 251.013C268.959 250.571 268.487 250.34 267.913 250.32C267.346 250.307 266.809 250.513 266.302 250.938C265.795 251.363 265.498 251.855 265.411 252.415C265.33 252.983 265.475 253.488 265.844 253.93ZM270.318 262.412C269.845 261.848 269.551 261.197 269.434 260.46C269.326 259.716 269.402 258.984 269.662 258.265C269.923 257.546 270.344 256.944 270.924 256.457C271.505 255.971 272.172 255.663 272.926 255.533C273.679 255.403 274.409 255.46 275.114 255.704C275.827 255.941 276.42 256.342 276.893 256.906C277.324 257.421 277.595 257.994 277.706 258.625C277.825 259.249 277.801 259.86 277.635 260.459C277.476 261.05 277.223 261.562 276.874 261.993L275.477 260.325C275.564 260.196 275.637 260.017 275.695 259.787C275.761 259.551 275.773 259.291 275.73 259.007C275.687 258.723 275.559 258.454 275.347 258.2C274.977 257.759 274.506 257.528 273.932 257.507C273.365 257.495 272.828 257.701 272.321 258.126C271.814 258.55 271.517 259.043 271.43 259.603C271.349 260.171 271.494 260.676 271.863 261.118C272.076 261.371 272.318 261.544 272.59 261.636C272.862 261.729 273.116 261.766 273.352 261.749C273.597 261.725 273.79 261.682 273.932 261.619L275.329 263.287C274.843 263.555 274.291 263.718 273.672 263.777C273.062 263.829 272.456 263.745 271.855 263.525C271.261 263.298 270.749 262.927 270.318 262.412ZM282.049 269.544C281.747 269.797 281.493 269.968 281.288 270.056L277.519 265.554C277.218 265.959 277.07 266.381 277.077 266.821C277.09 267.269 277.255 267.681 277.57 268.057C277.953 268.515 278.42 268.757 278.97 268.783L280.439 270.537C280.034 270.668 279.567 270.725 279.039 270.708C278.517 270.7 277.993 270.582 277.468 270.354C276.944 270.125 276.489 269.782 276.106 269.324C275.62 268.744 275.318 268.085 275.202 267.347C275.085 266.61 275.157 265.89 275.416 265.186C275.683 264.475 276.115 263.87 276.712 263.37C277.293 262.883 277.957 262.571 278.703 262.433C279.457 262.303 280.186 262.36 280.892 262.604C281.605 262.841 282.195 263.238 282.66 263.794C283.133 264.358 283.425 264.99 283.538 265.689C283.657 266.396 283.584 267.09 283.319 267.771C283.07 268.453 282.646 269.044 282.049 269.544ZM281.176 265.037C280.875 264.677 280.501 264.455 280.054 264.37C279.615 264.278 279.167 264.34 278.708 264.557L281.194 267.526C281.48 267.119 281.62 266.689 281.615 266.234C281.617 265.788 281.471 265.388 281.176 265.037ZM279.236 273.062C279.064 272.857 278.935 272.653 278.847 272.448L280.344 271.195L280.539 271.428C280.758 271.69 281.003 271.825 281.275 271.834C281.555 271.836 281.893 271.699 282.288 271.424L286.37 268.548L290.325 273.271L284.069 278.51L282.672 276.842L287.382 272.897L286.057 271.315L283.235 273.302C282.459 273.855 281.728 274.112 281.043 274.074C280.365 274.029 279.763 273.692 279.236 273.062ZM292.118 279.275C292.467 279.692 292.688 280.147 292.781 280.64C292.88 281.141 292.841 281.626 292.663 282.095C292.501 282.565 292.215 282.971 291.806 283.314C291.389 283.663 290.931 283.88 290.431 283.964C289.946 284.05 289.466 284 288.99 283.814C288.521 283.636 288.112 283.339 287.763 282.922L285.277 279.953L291.534 274.714L292.931 276.383L291.029 277.975L292.118 279.275ZM288.893 281.454C289.119 281.724 289.363 281.874 289.625 281.905C289.902 281.937 290.164 281.851 290.409 281.645C290.646 281.447 290.769 281.211 290.778 280.94C290.802 280.669 290.701 280.399 290.475 280.129L289.643 279.136L288.061 280.461L288.893 281.454ZM292.678 289.115C292.205 288.55 291.911 287.9 291.794 287.162C291.686 286.418 291.762 285.687 292.022 284.968C292.283 284.249 292.704 283.646 293.284 283.16C293.865 282.674 294.532 282.366 295.286 282.235C296.039 282.105 296.769 282.162 297.474 282.406C298.187 282.644 298.78 283.044 299.253 283.609C299.684 284.124 299.955 284.697 300.066 285.328C300.185 285.951 300.161 286.563 299.995 287.161C299.836 287.753 299.583 288.264 299.234 288.695L297.837 287.027C297.924 286.899 297.997 286.719 298.055 286.49C298.121 286.253 298.133 285.993 298.09 285.709C298.047 285.425 297.919 285.157 297.707 284.903C297.337 284.461 296.866 284.23 296.292 284.21C295.725 284.198 295.188 284.404 294.681 284.828C294.174 285.253 293.877 285.745 293.79 286.305C293.709 286.874 293.854 287.379 294.223 287.82C294.436 288.074 294.678 288.247 294.95 288.339C295.222 288.431 295.476 288.469 295.712 288.452C295.957 288.428 296.15 288.385 296.292 288.321L297.689 289.99C297.203 290.257 296.651 290.42 296.032 290.479C295.422 290.531 294.816 290.447 294.215 290.227C293.621 290.001 293.109 289.63 292.678 289.115ZM302.235 293.476L301.008 298.739L299.293 296.691L300.415 292.349L297.619 294.691L296.222 293.023L302.478 287.784L303.875 289.452L301.299 291.61L305.446 291.329L307.039 293.231L302.235 293.476ZM309.858 296.273C310.536 297.083 310.825 297.926 310.724 298.803C310.632 299.674 310.181 300.448 309.372 301.126L305.63 304.259L304.582 303.007L304.97 302.224L304.918 302.163C303.992 302.103 303.238 301.726 302.656 301.031C302.327 300.638 302.108 300.21 301.997 299.746C301.894 299.29 301.907 298.848 302.035 298.421C302.171 298.001 302.41 297.647 302.754 297.36C303.179 297.004 303.653 296.822 304.176 296.815C304.708 296.802 305.243 296.952 305.784 297.264C306.339 297.579 306.863 298.03 307.356 298.619L308.024 299.416L308.146 299.314C308.465 299.046 308.643 298.752 308.679 298.429C308.715 298.107 308.61 297.798 308.363 297.504C308.151 297.251 307.91 297.104 307.641 297.065C307.387 297.028 307.169 297.058 306.986 297.155L305.589 295.487C305.984 295.211 306.424 295.038 306.907 294.967C307.405 294.898 307.91 294.969 308.421 295.181C308.941 295.386 309.42 295.75 309.858 296.273ZM304.346 300.283C304.668 300.668 305.043 300.883 305.471 300.928C305.905 300.982 306.278 300.878 306.588 300.618L306.907 300.351L306.199 299.505C305.822 299.055 305.474 298.789 305.156 298.708C304.846 298.62 304.564 298.682 304.31 298.894C304.114 299.059 304.013 299.262 304.007 299.504C304.007 299.754 304.12 300.013 304.346 300.283ZM317.201 305.366L310.945 310.605L309.548 308.937L311.535 307.273L310.867 306.475L307.914 306.986L306.332 305.097L309.793 304.62C309.671 304.125 309.687 303.638 309.843 303.159C309.999 302.681 310.286 302.267 310.703 301.918C311.332 301.39 312.018 301.171 312.76 301.259C313.509 301.356 314.171 301.748 314.746 302.435L317.201 305.366ZM313.557 303.806C313.331 303.536 313.087 303.386 312.824 303.355C312.57 303.317 312.329 303.394 312.1 303.586C311.854 303.792 311.724 304.026 311.708 304.29C311.7 304.546 311.81 304.81 312.036 305.08L312.96 306.184L314.481 304.91L313.557 303.806ZM324.283 313.824L325.721 315.541L317.185 318.431C316.178 318.774 315.379 318.908 314.787 318.832C314.187 318.764 313.696 318.501 313.312 318.043C313.086 317.773 312.912 317.474 312.79 317.145L314.311 315.871C314.349 316.034 314.448 316.209 314.605 316.397C314.824 316.659 315.056 316.819 315.301 316.879C315.544 316.953 315.846 316.923 316.206 316.789L316.359 316.723L320.4 309.187L321.91 310.99L319.059 315.86L324.283 313.824ZM319.331 320.945C319.16 320.74 319.03 320.536 318.942 320.331L320.439 319.078L320.634 319.311C320.853 319.572 321.099 319.708 321.371 319.717C321.651 319.719 321.988 319.582 322.384 319.307L326.466 316.431L330.421 321.154L324.164 326.393L322.767 324.724L327.478 320.78L326.153 319.197L323.331 321.185C322.555 321.737 321.824 321.994 321.138 321.956C320.461 321.911 319.858 321.574 319.331 320.945ZM325.789 328.656C325.556 328.378 325.455 328.066 325.485 327.721C325.516 327.375 325.67 327.086 325.948 326.853C326.226 326.62 326.538 326.519 326.884 326.55C327.229 326.58 327.519 326.735 327.751 327.013C327.984 327.291 328.085 327.602 328.055 327.948C328.024 328.294 327.87 328.583 327.592 328.816C327.314 329.049 327.002 329.15 326.656 329.119C326.311 329.089 326.021 328.934 325.789 328.656Z" fill="#11244D"/>
<path d="M347.72 242.943C348.64 242.943 349.473 243.163 350.22 243.603C350.967 244.03 351.547 244.617 351.96 245.363C352.387 246.11 352.6 246.937 352.6 247.843C352.6 248.763 352.38 249.603 351.94 250.363C351.5 251.123 350.88 251.723 350.08 252.163C349.293 252.603 348.4 252.823 347.4 252.823C346.4 252.823 345.5 252.603 344.7 252.163C343.913 251.723 343.3 251.123 342.86 250.363C342.42 249.603 342.2 248.763 342.2 247.843C342.2 247.137 342.347 246.463 342.64 245.823C342.947 245.17 343.347 244.477 343.84 243.743L347.28 238.563H350.32L347.34 242.963L347.72 242.943ZM347.4 250.183C348.053 250.183 348.607 249.963 349.06 249.523C349.513 249.083 349.74 248.523 349.74 247.843C349.74 247.163 349.513 246.603 349.06 246.163C348.607 245.723 348.053 245.503 347.4 245.503C346.733 245.503 346.173 245.723 345.72 246.163C345.28 246.59 345.06 247.15 345.06 247.843C345.06 248.537 345.28 249.103 345.72 249.543C346.173 249.97 346.733 250.183 347.4 250.183ZM359.098 252.823C358.178 252.823 357.318 252.583 356.518 252.103C355.718 251.61 355.078 250.95 354.598 250.123C354.118 249.297 353.878 248.41 353.878 247.463C353.878 246.517 354.118 245.63 354.598 244.803C355.078 243.977 355.718 243.323 356.518 242.843C357.318 242.35 358.178 242.103 359.098 242.103C359.938 242.103 360.705 242.303 361.398 242.703C362.092 243.09 362.658 243.603 363.098 244.243C363.538 244.87 363.825 245.523 363.958 246.203H361.238C361.185 246.017 361.072 245.803 360.898 245.563C360.725 245.31 360.485 245.09 360.178 244.903C359.872 244.717 359.512 244.623 359.098 244.623C358.378 244.623 357.778 244.89 357.298 245.423C356.832 245.957 356.598 246.637 356.598 247.463C356.598 248.29 356.832 248.97 357.298 249.503C357.778 250.037 358.378 250.303 359.098 250.303C359.512 250.303 359.872 250.21 360.178 250.023C360.485 249.837 360.725 249.623 360.898 249.383C361.072 249.13 361.185 248.91 361.238 248.723H363.958C363.825 249.403 363.538 250.063 363.098 250.703C362.658 251.33 362.092 251.843 361.398 252.243C360.705 252.63 359.938 252.823 359.098 252.823ZM369.448 249.803H374.608V252.563H365.168V250.423L369.728 245.823C370.301 245.25 370.721 244.803 370.988 244.483C371.268 244.163 371.468 243.863 371.588 243.583C371.721 243.29 371.788 242.97 371.788 242.623C371.788 242.13 371.601 241.73 371.228 241.423C370.868 241.103 370.401 240.943 369.828 240.943C369.214 240.943 368.708 241.13 368.308 241.503C367.921 241.877 367.728 242.363 367.728 242.963H364.988C364.988 242.083 365.194 241.29 365.608 240.583C366.034 239.877 366.614 239.323 367.348 238.923C368.094 238.51 368.921 238.303 369.828 238.303C370.788 238.303 371.628 238.49 372.348 238.863C373.081 239.223 373.648 239.723 374.048 240.363C374.448 240.99 374.648 241.697 374.648 242.483C374.648 243.123 374.528 243.717 374.288 244.263C374.061 244.81 373.748 245.323 373.348 245.803C372.961 246.27 372.441 246.83 371.788 247.483L369.448 249.803Z" fill="#8712FC"/>
<path fill-rule="evenodd" clip-rule="evenodd" d="M427.52 346.971L431.409 355.094L435.33 346.978L441.694 362.779H442.4V364.072H434.515V362.779H435.39L434.193 359.851L432.563 363.179L431.429 362.623L430.3 363.18L428.656 359.847L427.458 362.779H428.333V364.072H420.448V362.779H421.154L427.52 346.971ZM422.547 362.779H426.062L428.546 356.7L431.431 362.552L434.3 356.696L436.786 362.779H440.3L435.223 350.171L432.564 355.675L431.412 355.119L430.254 355.673L427.622 350.177L422.547 362.779Z" fill="#0069FF"/>
<path fill-rule="evenodd" clip-rule="evenodd" d="M179.096 93.9713L182.986 102.094L186.906 93.9775L193.27 109.779H193.976V111.072H186.091V109.779H186.966L185.769 106.851L184.139 110.179L183.005 109.623L181.876 110.18L180.233 106.847L179.034 109.779H179.909V111.072H172.024V109.779H172.73L179.096 93.9713ZM174.123 109.779H177.638L180.122 103.7L183.007 109.552L185.876 103.696L188.362 109.779H191.877L186.799 97.1712L184.14 102.675L182.988 102.119L181.83 102.673L179.198 97.1775L174.123 109.779Z" fill="#E21B25"/>
<path fill-rule="evenodd" clip-rule="evenodd" d="M364.448 220.715C368.202 216.794 371.441 211.97 371.441 207.29C371.441 200.292 365.679 194.563 358.5 194.563C351.322 194.563 345.559 200.292 345.559 207.29C345.559 209.309 346.315 211.54 347.639 213.859C348.953 216.16 350.738 218.394 352.577 220.374C354.409 222.346 356.25 224.018 357.636 225.197C357.972 225.484 358.281 225.741 358.555 225.965C358.815 225.766 359.106 225.54 359.422 225.288C360.799 224.189 362.627 222.616 364.448 220.715ZM358.5 228.916C358.5 228.916 373.794 218.593 373.794 207.29C373.794 198.962 366.947 192.21 358.5 192.21C350.053 192.21 343.206 198.962 343.206 207.29C343.206 217.615 358.5 228.916 358.5 228.916Z" fill="#8712FC"/>
<path fill-rule="evenodd" clip-rule="evenodd" d="M353.559 207.74C353.559 210.164 355.62 212.21 358.265 212.21C360.91 212.21 362.971 210.164 362.971 207.74H365.324C365.324 211.553 362.118 214.563 358.265 214.563C354.412 214.563 351.206 211.553 351.206 207.74H353.559Z" fill="#8712FC"/>
</g>
<defs>
<clipPath id="clip0_1915_97796">
<rect width="717" height="422" fill="white"/>
</clipPath>
</defs>
</svg>
