<svg width="717" height="422" viewBox="0 0 717 422" fill="none" xmlns="http://www.w3.org/2000/svg">
<g clip-path="url(#clip0_1915_97796)">
<path d="M427.015 405.572C426.734 402.776 426.428 399.798 426.099 396.668M330.507 187.559C350.662 202.674 393.179 236.277 402.016 249.765C410.319 262.439 420.983 347.964 426.099 396.668M330.507 187.559C296.106 218.492 233.029 272.64 188.356 303.99M330.507 187.559C341.53 179.361 364.049 159.128 365.938 143.778M146.795 327.669C135.168 330.459 127.61 304.801 125.285 291.624M146.795 327.669C155.783 325.289 170.619 316.437 188.356 303.99M146.795 327.669C144.857 326.7 138.888 340.924 130.517 405.572M188.356 303.99L174.119 277.09M426.099 396.668C437.263 394.306 461.271 388.554 467.992 384.446C471.788 382.127 489.494 365.325 508.843 345.749M713.516 163.661C683.966 185.07 634.353 221.984 600.412 249.765M585.629 262.162C574.677 271.627 566.966 279.112 564.615 283.156C560.09 290.938 545.812 307.141 529.534 324.363M585.629 262.162C601.563 274.619 631.31 297.039 661.317 317.791M585.629 262.162C590.071 258.323 595.046 254.158 600.412 249.765M713.516 351.305C698.08 342.525 679.65 330.469 661.317 317.791M708.848 212.206C701.307 218.303 694.244 224.274 687.618 230.088M573.483 327.967C579.329 330.092 585.08 328.689 591.624 324.363M591.624 324.363C595.224 329.61 604.477 340.57 612.693 342.437M591.624 324.363C602.649 317.076 615.924 301.495 635.691 280.528M661.317 317.791C655.533 328.962 643.313 351.305 640.699 351.305C637.432 351.305 638.057 357.84 661.317 366.709M635.691 280.528L600.412 249.765M635.691 280.528C649.404 265.983 666.241 248.846 687.618 230.088M600.412 249.765C578.527 226.803 563.2 203.687 543.026 179.553M687.618 230.088C666.777 212.941 626.753 168.7 595.003 132.072M457.723 182.799C473.187 162.936 485.623 146.115 495.742 132.072M495.742 132.072C535.409 77.0217 539.454 64.6707 550.611 79.1751C556.224 86.472 573.762 107.568 595.003 132.072M495.742 132.072C504.644 139.486 512.545 146.771 519.716 153.947M708.848 63.7714C706.987 58.6369 700.134 51.4485 687.618 63.7714C680.098 71.1758 661.762 85.1212 643.134 98.6286M595.003 132.072C583.473 144.78 556.936 172.068 543.026 179.553M595.003 132.072C602.542 127.303 623.008 113.221 643.134 98.6286M543.026 179.553C529.202 190.904 500.391 214.633 495.742 218.741C491.093 222.849 489.308 220.452 488.997 218.741M543.026 179.553C536.004 171.153 528.394 162.63 519.716 153.947M519.716 153.947C545.944 132.072 605.691 53.5024 612.226 58.6369C617.454 62.7445 635.009 87.0095 643.134 98.6286M77.3008 43.7001C83.3418 35.6454 97.8025 23.7355 107.511 40.2095M87.1032 53.5024L107.641 40.4327C107.598 40.3577 107.554 40.2833 107.511 40.2095M107.511 40.2095C119.846 31.5707 149.838 12.4261 171.123 4.95772M115.11 59.1037L137.982 48.3679M159.92 85.7099L215 37.632M350.048 326.807C329.78 348.215 290.46 391.259 295.324 392.171M339.787 370.13C342.447 372.03 370.949 409.272 370.949 416.873M508.843 345.749L521.819 384.446M508.843 345.749C515.716 338.796 522.796 331.492 529.534 324.363M521.819 384.446H514.979M521.819 384.446H532.84M529.534 324.363C531.016 326.445 533.752 332.431 532.84 339.728C531.7 348.848 529.04 379.002 532.84 384.446M532.84 384.446H564.615M564.615 384.446L573.483 361.009M564.615 384.446C565.536 386.46 566.285 394.452 563.095 411.217M561.342 419.533C562.027 416.549 562.607 413.78 563.095 411.217M563.095 411.217C582.308 414.622 623.726 420.065 635.691 414.593M215 149.256C235.195 134.336 274.532 101.55 275.986 96.9035M275.986 96.9035C281.296 100.07 287.176 108.493 299.964 110.491M275.986 96.9035L267.133 84.8506M227.816 84.8506L264.174 124.591M301.8 81.4684C306.557 74.6142 312.764 65.8069 319.411 56.5727M362.679 2.62237C357.411 5.07248 336.886 32.2977 319.411 56.5727M315.329 1.56543C338.158 18.1943 386.015 52.8894 394.809 58.639M356.549 84.8506L319.411 56.5727" stroke="#E4DABB" stroke-width="3" stroke-linecap="round" stroke-linejoin="round"/>
<path d="M203.871 2.33368C228.886 28.5791 288.143 86.606 325.051 108.751C371.185 136.431 476.987 192.408 512.665 260.687C514.749 264.677 517.061 268.753 519.569 272.891M644.302 414.469C614.652 388.05 551.386 325.408 519.569 272.891M198.302 8.91387C209.884 23.5257 244.489 61.4094 290.249 96.0501C347.449 139.351 438.862 171.973 470.402 216.33C495.634 251.816 513.693 268.823 519.569 272.891M11.5569 247.983C32.049 234.263 69.5759 209.274 93.5249 187.463C123.461 160.199 191.352 112.622 211.132 96.0501C226.955 82.7925 279.736 28.0485 304.148 2.33368M16.971 231.141C30.6918 223.656 69.5755 202.217 78.5564 192.809C89.7825 181.048 229.842 77.3398 237.326 63.4408C243.313 52.3216 272.965 22.4565 287.042 8.91387" stroke="#FFA900" stroke-width="7" stroke-linecap="round" stroke-linejoin="round"/>
<path d="M124.208 8.13153C132.788 32.1584 152.637 82.1427 163.393 89.8649C176.838 99.5176 229.685 171.956 275.09 237.488C311.413 289.913 354.82 334.226 371.984 349.829M371.984 349.829C357.236 356.835 323.317 376.754 294.758 404.724M371.984 349.829C407.768 335.016 483.64 301.649 516.88 280.28M721.645 82.0829C696.368 92.8489 644.878 163.53 624.751 182.722C605.664 200.921 563.847 245.217 528.438 272.103M284.733 415.153C287.969 411.566 291.325 408.087 294.758 404.724M294.758 404.724C276.845 383.893 106.44 351.393 68.329 356.364C37.8398 360.341 13.279 363.545 4.80981 364.649M544.483 306.98C548.586 297.635 535.496 279.835 528.438 272.103M528.438 272.103C526.507 273.569 524.596 274.983 522.708 276.339C520.953 277.598 519.004 278.915 516.88 280.28M528.438 272.103L496.906 235.471M484.37 236.896C490.752 253.534 508.702 272.751 516.88 280.28M516.88 280.28C519.718 288.61 528.13 306.866 539.07 313.248C550.01 319.629 569.269 326.543 577.531 329.202C579.81 329.962 583.685 333.304 580.95 340.598C578.215 347.891 579.81 350.664 580.95 351.139" stroke="#FFA900" stroke-width="3" stroke-linecap="round" stroke-linejoin="round"/>
</g>
<defs>
<clipPath id="clip0_1915_97796">
<rect width="717" height="422" fill="white"/>
</clipPath>
</defs>
</svg>
