<svg width="40" height="40" viewBox="0 0 40 40" fill="none" xmlns="http://www.w3.org/2000/svg">
<path d="M16.3416 40L20.4954 23.7256C24.4214 17.1283 32.1946 5.77118 32.1946 13.1209C32.1946 20.2869 24.7544 28.4242 16.3416 40Z" fill="#CA0813"/>
<path fill-rule="evenodd" clip-rule="evenodd" d="M19.9999 24.3893C26.7349 24.3893 32.1946 18.9296 32.1946 12.1946C32.1946 5.45973 26.7349 0 19.9999 0C13.265 0 7.8053 5.45973 7.8053 12.1946C7.8053 18.9296 13.265 24.3893 19.9999 24.3893ZM20 17.0618C22.688 17.0618 24.8671 14.8827 24.8671 12.1947C24.8671 9.50661 22.688 7.32751 20 7.32751C17.3119 7.32751 15.1328 9.50661 15.1328 12.1947C15.1328 14.8827 17.3119 17.0618 20 17.0618Z" fill="#EC0B19"/>
</svg>
