<svg width="830" height="830" viewBox="0 0 830 830" fill="none" xmlns="http://www.w3.org/2000/svg">
<path d="M414.635 147.188L337.265 279.972L336.833 280.713L335.975 280.716L182.296 281.329L258.605 414.725L259.031 415.469L258.605 416.214L182.296 549.61L335.975 550.222L336.833 550.226L337.265 550.967L414.635 683.751L492.004 550.967L492.436 550.226L493.294 550.222L646.973 549.61L570.664 416.214L570.238 415.469L570.664 414.725L646.973 281.329L493.294 280.716L492.436 280.713L492.004 279.972L414.635 147.188Z" stroke="#FFA900" stroke-width="3"/>
<path d="M561.896 329.021L617.132 212.971L501.082 268.208L499.115 269.144L498.942 266.973L488.754 138.852L415.87 244.713L414.635 246.508L413.399 244.713L340.516 138.852L330.327 266.972L330.154 269.144L328.187 268.208L212.137 212.971L267.374 329.021L268.31 330.988L266.138 331.161L138.018 341.35L243.879 414.233L245.674 415.469L243.879 416.704L138.018 489.588L266.138 499.777L268.31 499.949L267.374 501.917L212.137 617.966L328.187 562.73L330.154 561.793L330.327 563.965L340.515 692.086L413.399 586.224L414.635 584.43L415.87 586.224L488.754 692.086L498.942 563.965L499.115 561.793L501.082 562.73L617.132 617.966L561.896 501.917L560.959 499.949L563.131 499.777L691.251 489.588L585.39 416.704L583.596 415.469L585.39 414.233L691.251 341.35L563.131 331.161L560.959 330.988L561.896 329.021Z" stroke="#DADFEA" stroke-width="3"/>
<path d="M503.531 362.718L536.362 293.741L467.386 326.572L465.418 327.509L465.246 325.337L459.19 249.186L415.87 312.107L414.635 313.901L413.399 312.107L370.079 249.186L364.024 325.337L363.851 327.509L361.884 326.572L292.907 293.741L325.738 362.718L326.675 364.685L324.503 364.858L248.352 370.913L311.273 414.233L313.067 415.469L311.273 416.704L248.352 460.024L324.503 466.08L326.674 466.252L325.738 468.22L292.907 537.196L361.884 504.365L363.851 503.429L364.024 505.601L370.079 581.751L413.399 518.831L414.635 517.036L415.87 518.831L459.19 581.751L465.246 505.601L465.418 503.429L467.386 504.365L536.362 537.196L503.531 468.22L502.595 466.252L504.767 466.08L580.917 460.024L517.997 416.704L516.202 415.469L517.997 414.233L580.917 370.913L504.767 364.858L502.595 364.685L503.531 362.718Z" stroke="#8712FC" stroke-width="3"/>
<path d="M480.544 397.808L459.075 390.978L457.772 390.563L458.065 389.227L462.884 367.219L440.876 372.038L439.54 372.331L439.125 371.028L432.295 349.559L415.645 364.736L414.634 365.657L413.624 364.736L396.974 349.559L390.143 371.028L389.729 372.331L388.393 372.038L366.385 367.219L371.204 389.227L371.496 390.563L370.193 390.978L348.724 397.808L363.902 414.458L364.823 415.469L363.902 416.479L348.724 433.129L370.193 439.96L371.496 440.374L371.204 441.71L366.385 463.718L388.393 458.899L389.729 458.607L390.143 459.91L396.974 481.379L413.624 466.201L414.634 465.28L415.645 466.201L432.295 481.379L439.125 459.91L439.54 458.607L440.876 458.899L462.884 463.718L458.065 441.71L457.772 440.374L459.075 439.96L480.544 433.129L465.367 416.479L464.446 415.469L465.367 414.458L480.544 397.808Z" stroke="#E21B25" stroke-width="3"/>
<path d="M438.83 408.985L429.827 404.666L429.142 404.337L429.002 403.59L427.159 393.775L417.738 397.087L417.021 397.339L416.394 396.91L408.151 391.273L403.831 400.276L403.503 400.961L402.756 401.102L392.941 402.944L396.253 412.365L396.505 413.082L396.076 413.709L390.439 421.952L399.442 426.272L400.127 426.601L400.267 427.347L402.11 437.162L411.531 433.85L412.248 433.598L412.875 434.027L421.118 439.665L425.438 430.661L425.766 429.976L426.513 429.836L436.328 427.993L433.016 418.572L432.764 417.855L433.193 417.228L438.83 408.985Z" stroke="#DADFEA" stroke-width="3"/>
<path d="M414.624 151.69L414.624 315.035" stroke="#8712FC" stroke-width="3"/>
<rect x="-2.12132" y="-1.78814e-07" width="47.8603" height="47.8603" transform="matrix(-0.707107 -0.707107 -0.707107 0.707107 446.977 100.742)" stroke="#8712FC" stroke-width="3"/>
<path d="M414.645 679.248L414.645 515.903" stroke="#8712FC" stroke-width="3"/>
<rect x="2.12132" width="47.8603" height="47.8603" transform="matrix(0.707107 0.707107 0.707107 -0.707107 379.292 727.196)" stroke="#8712FC" stroke-width="3"/>
<path d="M546.515 187.024L464.843 328.485" stroke="#8712FC" stroke-width="3"/>
<rect x="-1.83712" y="-1.06066" width="47.8603" height="47.8603" transform="matrix(-0.258819 -0.965926 -0.965926 0.258819 599.056 159.628)" stroke="#8712FC" stroke-width="3"/>
<path d="M282.754 643.914L364.427 502.453" stroke="#8712FC" stroke-width="3"/>
<rect x="1.83712" y="1.06066" width="47.8603" height="47.8603" transform="matrix(0.258819 0.965926 0.965926 -0.258819 227.213 668.31)" stroke="#8712FC" stroke-width="3"/>
<path d="M643.068 283.57L501.608 365.243" stroke="#8712FC" stroke-width="3"/>
<rect x="-1.06066" y="-1.83712" width="47.8603" height="47.8603" transform="matrix(0.258819 -0.965926 -0.965926 -0.258819 701.318 286.665)" stroke="#8712FC" stroke-width="3"/>
<path d="M186.201 547.368L327.662 465.695" stroke="#8712FC" stroke-width="3"/>
<rect x="1.06066" y="1.83712" width="47.8603" height="47.8603" transform="matrix(-0.258819 0.965926 0.965926 0.258819 124.951 541.274)" stroke="#8712FC" stroke-width="3"/>
<path d="M678.414 415.458L515.069 415.458" stroke="#8712FC" stroke-width="3"/>
<rect x="3.57628e-07" y="-2.12132" width="47.8603" height="47.8603" transform="matrix(0.707107 -0.707107 -0.707107 -0.707107 726.361 447.812)" stroke="#8712FC" stroke-width="3"/>
<path d="M150.855 415.48L314.2 415.48" stroke="#8712FC" stroke-width="3"/>
<rect x="-1.78814e-07" y="2.12132" width="47.8603" height="47.8603" transform="matrix(-0.707107 0.707107 0.707107 0.707107 99.9077 380.126)" stroke="#8712FC" stroke-width="3"/>
<path d="M643.079 547.35L501.618 465.678" stroke="#8712FC" stroke-width="3"/>
<rect x="1.06066" y="-1.83712" width="47.8603" height="47.8603" transform="matrix(0.965926 -0.258819 -0.258819 -0.965926 667.475 599.891)" stroke="#8712FC" stroke-width="3"/>
<path d="M186.19 283.59L327.651 365.262" stroke="#8712FC" stroke-width="3"/>
<rect x="-1.06066" y="1.83712" width="47.8603" height="47.8603" transform="matrix(-0.965926 0.258819 0.258819 0.965926 158.793 228.048)" stroke="#8712FC" stroke-width="3"/>
<path d="M546.533 643.904L464.86 502.443" stroke="#8712FC" stroke-width="3"/>
<rect x="1.83712" y="-1.06066" width="47.8603" height="47.8603" transform="matrix(0.965926 0.258819 0.258819 -0.965926 540.439 702.153)" stroke="#8712FC" stroke-width="3"/>
<path d="M282.735 187.036L364.408 328.497" stroke="#8712FC" stroke-width="3"/>
<rect x="-1.83712" y="1.06066" width="47.8603" height="47.8603" transform="matrix(-0.965926 -0.258819 -0.258819 0.965926 285.829 125.787)" stroke="#8712FC" stroke-width="3"/>
<path d="M534.799 35.2385L500.684 26.0972L509.825 60.213L534.799 35.2385Z" stroke="#DADFEA" stroke-width="3"/>
<path d="M294.469 795.7L328.585 804.841L319.444 770.725L294.469 795.7Z" stroke="#DADFEA" stroke-width="3"/>
<path d="M708.816 146.262L683.842 121.287L674.7 155.403L708.816 146.262Z" stroke="#DADFEA" stroke-width="3"/>
<path d="M120.453 684.676L145.428 709.65L154.569 675.535L120.453 684.676Z" stroke="#DADFEA" stroke-width="3"/>
<path d="M804.007 329.42L794.865 295.304L769.891 320.278L804.007 329.42Z" stroke="#DADFEA" stroke-width="3"/>
<path d="M25.2629 501.518L34.4042 535.634L59.3787 510.659L25.2629 501.518Z" stroke="#DADFEA" stroke-width="3"/>
<path d="M794.865 535.634L804.007 501.518L769.891 510.659L794.865 535.634Z" stroke="#DADFEA" stroke-width="3"/>
<path d="M34.404 295.304L25.2627 329.42L59.3785 320.279L34.404 295.304Z" stroke="#DADFEA" stroke-width="3"/>
<path d="M683.842 709.65L708.816 684.676L674.7 675.534L683.842 709.65Z" stroke="#DADFEA" stroke-width="3"/>
<path d="M145.428 121.287L120.453 146.262L154.569 155.403L145.428 121.287Z" stroke="#DADFEA" stroke-width="3"/>
<path d="M500.684 804.841L534.8 795.7L509.825 770.726L500.684 804.841Z" stroke="#DADFEA" stroke-width="3"/>
<path d="M328.586 26.0971L294.47 35.2384L319.445 60.2129L328.586 26.0971Z" stroke="#DADFEA" stroke-width="3"/>
</svg>
