<svg width="273" height="360" viewBox="0 0 273 360" fill="none" xmlns="http://www.w3.org/2000/svg">
<mask id="mask0_1338_95022" style="mask-type:alpha" maskUnits="userSpaceOnUse" x="0" y="0" width="298" height="211">
<path d="M297.62 210.62L0.132812 210.62L210.47 0.683486L297.62 210.62Z" fill="#D9D9D9"/>
</mask>
<g mask="url(#mask0_1338_95022)">
<path d="M-30.5795 295.553L43.4514 267.947L44.1474 267.687L44.7244 268.154L106.092 317.855L119.154 240.062L119.277 239.33L119.971 239.065L193.779 210.871L132.81 160.684L132.237 160.212L132.354 159.479L144.795 81.5843L70.7636 109.191L70.0676 109.45L69.4906 108.983L8.1231 59.2819L-4.93899 137.076L-5.0618 137.807L-5.75573 138.072L-79.564 166.266L-18.5951 216.454L-18.0219 216.925L-18.1389 217.658L-30.5795 295.553Z" stroke="#FFA900" stroke-width="2.59524"/>
<path d="M-30.4099 175.369L-89.5344 203.215L-26.0538 218.816L-24.222 219.266L-25.297 220.813L-62.5507 274.435L0.240185 256.265L2.05211 255.741L1.89627 257.617L-3.50444 322.646L41.7719 275.575L43.0785 274.217L43.8836 275.92L71.7829 334.932L87.4131 271.572L87.8641 269.744L89.4144 270.817L143.138 307.999L124.934 245.328L124.409 243.52L126.289 243.675L191.442 249.066L144.281 203.876L142.92 202.572L144.626 201.768L203.751 173.922L140.27 158.321L138.438 157.871L139.513 156.324L176.767 102.702L113.976 120.872L112.164 121.396L112.32 119.52L117.721 54.4908L72.4445 101.562L71.138 102.92L70.3329 101.217L42.4335 42.2052L26.8034 105.565L26.3523 107.393L24.802 106.32L-28.9218 69.1375L-10.7176 131.809L-10.1923 133.617L-12.0724 133.462L-77.2254 128.071L-30.0647 173.261L-28.7038 174.566L-30.4099 175.369Z" stroke="#DADFEA" stroke-width="2.59524"/>
<path d="M4.17842 181.013L-30.4273 197.312L6.72803 206.443L8.55987 206.893L7.48485 208.44L-14.3198 239.825L22.4318 229.19L24.2438 228.666L24.0879 230.543L20.9269 268.604L47.4273 241.053L48.7338 239.695L49.5389 241.398L65.8685 275.938L75.0168 238.853L75.4678 237.025L77.0181 238.098L108.463 259.861L97.8078 223.179L97.2825 221.371L99.1626 221.526L137.297 224.681L109.694 198.232L108.333 196.928L110.039 196.124L144.645 179.825L107.489 170.695L105.657 170.244L106.732 168.697L128.537 137.312L91.7854 147.947L89.9735 148.471L90.1293 146.595L93.2903 108.533L66.79 136.084L65.4834 137.442L64.6784 135.739L48.3488 101.199L39.2004 138.284L38.7494 140.112L37.1991 139.039L5.75441 117.276L16.4094 153.958L16.9347 155.766L15.0546 155.611L-23.0797 152.456L4.52366 178.906L5.88455 180.21L4.17842 181.013Z" stroke="#8712FC" stroke-width="2.59524"/>
<path d="M25.6404 174.397L31.5909 183.52L32.2368 184.51L31.3085 185.244L22.7569 192L32.4803 196.931L33.5358 197.466L33.0993 198.565L29.078 208.683L39.9688 208.101L41.1511 208.038L41.3233 209.207L42.9097 219.977L52.0499 214.038L53.0421 213.393L53.7769 214.32L60.5461 222.855L65.4864 213.15L66.0227 212.097L67.1233 212.532L77.2613 216.546L76.6781 205.676L76.6148 204.496L77.7861 204.324L88.5766 202.741L82.6261 193.618L81.9801 192.628L82.9084 191.894L91.46 185.138L81.7367 180.207L80.6811 179.672L81.1177 178.573L85.139 168.455L74.2481 169.037L73.0659 169.1L72.8936 167.931L71.3072 157.161L62.167 163.1L61.1748 163.745L60.44 162.818L53.6709 154.283L48.7305 163.988L48.1942 165.041L47.0937 164.606L36.9556 160.592L37.5389 171.462L37.6022 172.642L36.4308 172.814L25.6404 174.397Z" stroke="#E21B25" stroke-width="2.59524"/>
<path d="M45.96 183.548L47.9052 187.696L48.1841 188.291L47.8686 188.867L45.6683 192.886L49.9824 194.446L50.6011 194.67L50.7863 195.3L52.0777 199.695L56.2335 197.753L56.8295 197.475L57.407 197.79L61.4336 199.986L62.9967 195.68L63.2209 195.062L63.8523 194.878L68.2554 193.589L66.3102 189.441L66.0312 188.846L66.3467 188.27L68.547 184.251L64.2329 182.69L63.6142 182.467L63.429 181.837L62.1376 177.442L57.9818 179.383L57.3858 179.662L56.8084 179.347L52.7818 177.151L51.2186 181.457L50.9945 182.074L50.363 182.259L45.96 183.548Z" stroke="#DADFEA" stroke-width="2.59524"/>
<path d="M143.961 82.5938L90.1748 148.217" stroke="#8712FC" stroke-width="2.59524"/>
<rect x="-1.42173" y="-1.16085" width="23.8289" height="23.8289" transform="matrix(-0.0996691 -0.994081 -0.995978 0.0994789 172.003 72.0931)" stroke="#8712FC" stroke-width="2.59524"/>
<path d="M-71.1973 237.002L8.25689 207.013" stroke="#8712FC" stroke-width="2.59524"/>
<path d="M185.414 140.136L105.96 170.125" stroke="#8712FC" stroke-width="2.59524"/>
<rect x="-0.649722" y="-1.71484" width="23.8289" height="23.8289" transform="matrix(0.411673 -0.910639 -0.912377 -0.410889 214.137 145.511)" stroke="#8712FC" stroke-width="2.59524"/>
<path d="M-78.2695 166.482L5.56299 180.162" stroke="#8712FC" stroke-width="2.59524"/>
<path d="M192.488 210.654L108.656 196.974" stroke="#8712FC" stroke-width="2.59524"/>
<rect x="0.29638" y="-1.80934" width="23.8289" height="23.8289" transform="matrix(0.812708 -0.583192 -0.584305 -0.81116 213.846 230.119)" stroke="#8712FC" stroke-width="2.59524"/>
<path d="M-49.0684 101.882L16.6797 155.565" stroke="#8712FC" stroke-width="2.59524"/>
<path d="M8.58398 60.5078L38.6304 139.811" stroke="#8712FC" stroke-width="2.59524"/>
<rect x="-1.71811" y="0.648485" width="23.8289" height="23.8289" transform="matrix(-0.912377 -0.410889 -0.411673 0.910639 13.9676 29.2485)" stroke="#8712FC" stroke-width="2.59524"/>
<path d="M79.2383 53.4473L65.5322 137.12" stroke="#8712FC" stroke-width="2.59524"/>
<rect x="-1.81279" y="-0.295816" width="23.8289" height="23.8289" transform="matrix(-0.584305 -0.81116 -0.812708 0.583192 98.7372 29.5371)" stroke="#8712FC" stroke-width="2.59524"/>
<path d="M229.732 74.8792L220.059 61.451L213.244 76.526L229.732 74.8792Z" stroke="#DADFEA" stroke-width="2.59524"/>
<path d="M263.558 176.259L261.908 159.802L248.454 169.457L263.558 176.259Z" stroke="#DADFEA" stroke-width="2.59524"/>
<path d="M149.652 3.96245L134.548 -2.83958L136.198 13.6168L149.652 3.96245Z" stroke="#DADFEA" stroke-width="2.59524"/>
</g>
</svg>
