<svg width="360" height="274" viewBox="0 0 360 274" fill="none" xmlns="http://www.w3.org/2000/svg">
<mask id="mask0_1338_94854" style="mask-type:alpha" maskUnits="userSpaceOnUse" x="0" y="0" width="211" height="298">
<path d="M210.414 297.034L210.414 0.113281L0.0767933 210.05L210.414 297.034Z" fill="#D9D9D9"/>
</mask>
<g mask="url(#mask0_1338_94854)">
<path d="M295.507 -30.5396L267.848 43.3503L267.588 44.045L268.056 44.6208L317.852 105.872L239.91 118.909L239.177 119.031L238.912 119.724L210.664 193.392L160.381 132.539L159.908 131.967L159.174 132.083L81.1304 144.5L108.789 70.6105L109.049 69.9158L108.581 69.3399L58.7854 8.08928L136.728 -4.94793L137.46 -5.07051L137.726 -5.76312L165.974 -79.4308L216.257 -18.578L216.73 -18.0059L217.464 -18.1227L295.507 -30.5396Z" stroke="#FFA900" stroke-width="2.59524"/>
<path d="M175.095 -30.3707L202.994 -89.3827L218.625 -26.023L219.076 -24.1946L220.626 -25.2676L274.35 -62.4503L256.146 0.220974L255.62 2.02945L257.5 1.8739L322.653 -3.51652L275.493 41.6736L274.132 42.9777L275.838 43.7812L334.962 71.6274L271.482 87.2278L269.65 87.678L270.725 89.2253L307.979 142.847L245.188 124.677L243.376 124.153L243.532 126.029L248.932 191.058L203.656 143.988L202.349 142.629L201.544 144.332L173.645 203.344L158.015 139.984L157.564 138.156L156.014 139.229L102.29 176.412L120.494 113.74L121.019 111.932L119.139 112.087L53.9861 117.478L101.147 72.2877L102.508 70.9837L100.802 70.1802L41.6771 42.3339L105.158 26.7336L106.99 26.2834L105.915 24.7361L68.6608 -28.8854L131.452 -10.7159L133.264 -10.1916L133.108 -12.0681L127.707 -77.0971L172.983 -30.0261L174.29 -28.6678L175.095 -30.3707Z" stroke="#DADFEA" stroke-width="2.59524"/>
<path d="M180.75 4.1507L197.079 -30.3891L206.228 6.69545L206.679 8.5238L208.229 7.45084L239.674 -14.3123L229.019 22.3694L228.494 24.1778L230.374 24.0223L268.508 20.8672L240.905 47.3172L239.544 48.6212L241.25 49.4247L275.856 65.7232L238.7 74.8541L236.868 75.3043L237.943 76.8516L259.748 108.236L222.996 97.6018L221.184 97.0775L221.34 98.954L224.501 137.016L198.001 109.465L196.694 108.107L195.889 109.809L179.56 144.349L170.411 107.265L169.96 105.436L168.41 106.509L136.965 128.272L147.62 91.5908L148.146 89.7823L146.266 89.9379L108.131 93.0929L135.735 66.643L137.096 65.3389L135.389 64.5354L100.784 48.2369L137.939 39.106L139.771 38.6558L138.696 37.1085L116.891 5.72369L153.643 16.3584L155.455 16.8827L155.299 15.0062L152.138 -23.0555L178.638 4.49527L179.945 5.85358L180.75 4.1507Z" stroke="#8712FC" stroke-width="2.59524"/>
<path d="M174.122 25.5723L183.262 31.5115L184.254 32.1562L184.989 31.2297L191.758 22.6944L196.698 32.3992L197.234 33.4527L198.335 33.017L208.473 29.0034L207.89 39.8735L207.827 41.0535L208.998 41.2254L219.788 42.8088L213.838 51.9315L213.192 52.9219L214.12 53.6553L222.672 60.4115L212.948 65.3425L211.893 65.8778L212.329 66.9762L216.351 77.0949L205.46 76.5128L204.278 76.4496L204.105 77.6188L202.519 88.3887L193.379 82.4495L192.387 81.8048L191.652 82.7313L184.883 91.2666L179.942 81.5618L179.406 80.5083L178.305 80.944L168.167 84.9576L168.751 74.0875L168.814 72.9075L167.643 72.7356L156.852 71.1522L162.803 62.0295L163.449 61.0391L162.52 60.3057L153.969 53.5494L163.692 48.6185L164.748 48.0832L164.311 46.9848L160.29 36.8661L171.181 37.4482L172.363 37.5114L172.535 36.3422L174.122 25.5723Z" stroke="#E21B25" stroke-width="2.59524"/>
<path d="M183.29 45.8544L187.446 47.7959L188.042 48.0743L188.619 47.7594L192.646 45.5633L194.209 49.8692L194.433 50.4867L195.065 50.6715L199.468 51.9605L197.522 56.1084L197.243 56.7032L197.559 57.2796L199.759 61.2985L195.445 62.8587L194.827 63.0824L194.641 63.7126L193.35 68.1073L189.194 66.1658L188.598 65.8874L188.021 66.2023L183.994 68.3984L182.431 64.0925L182.207 63.475L181.575 63.2902L177.172 62.0012L179.117 57.8533L179.396 57.2585L179.081 56.6821L176.881 52.6632L181.195 51.103L181.813 50.8793L181.999 50.249L183.29 45.8544Z" stroke="#DADFEA" stroke-width="2.59524"/>
<path d="M82.1406 143.668L147.889 89.9843" stroke="#8712FC" stroke-width="2.59524"/>
<rect x="-1.16307" y="-1.41902" width="23.8289" height="23.8289" transform="matrix(-0.995978 -0.0994793 0.0996687 -0.994081 71.904 171.427)" stroke="#8712FC" stroke-width="2.59524"/>
<path d="M236.844 -71.0801L206.797 8.22275" stroke="#8712FC" stroke-width="2.59524"/>
<path d="M139.793 185.042L169.839 105.739" stroke="#8712FC" stroke-width="2.59524"/>
<rect x="-1.71811" y="-0.648485" width="23.8289" height="23.8289" transform="matrix(-0.912377 0.410889 -0.411673 -0.910639 144.643 215.12)" stroke="#8712FC" stroke-width="2.59524"/>
<path d="M166.191 -78.1406L179.898 5.53221" stroke="#8712FC" stroke-width="2.59524"/>
<path d="M210.447 192.102L196.741 108.429" stroke="#8712FC" stroke-width="2.59524"/>
<rect x="-1.81279" y="0.295816" width="23.8289" height="23.8289" transform="matrix(-0.584305 0.81116 -0.812708 -0.583192 230.427 216.357)" stroke="#8712FC" stroke-width="2.59524"/>
<path d="M101.467 -48.9941L155.253 16.6287" stroke="#8712FC" stroke-width="2.59524"/>
<path d="M60.0137 8.54785L139.468 38.537" stroke="#8712FC" stroke-width="2.59524"/>
<rect x="0.649723" y="-1.71484" width="23.8289" height="23.8289" transform="matrix(-0.411673 -0.910639 0.912377 -0.410889 31.8275 15.1068)" stroke="#8712FC" stroke-width="2.59524"/>
<path d="M52.9395 79.0664L136.772 65.3864" stroke="#8712FC" stroke-width="2.59524"/>
<rect x="-0.29638" y="-1.80934" width="23.8289" height="23.8289" transform="matrix(-0.812708 -0.583192 0.584305 -0.81116 31.1 98.1859)" stroke="#8712FC" stroke-width="2.59524"/>
<path d="M74.4121 229.276L60.9582 219.622L76.062 212.819L74.4121 229.276Z" stroke="#DADFEA" stroke-width="2.59524"/>
<path d="M175.987 263.037L159.5 261.39L169.172 247.962L175.987 263.037Z" stroke="#DADFEA" stroke-width="2.59524"/>
<path d="M3.36114 149.348L-3.45388 134.273L13.034 135.92L3.36114 149.348Z" stroke="#DADFEA" stroke-width="2.59524"/>
</g>
</svg>
