<svg width="273" height="360" viewBox="0 0 273 360" fill="none" xmlns="http://www.w3.org/2000/svg">
<mask id="mask0_1338_94966" style="mask-type:alpha" maskUnits="userSpaceOnUse" x="0" y="149" width="298" height="211">
<path d="M297.62 149.38L0.132812 149.38L210.47 359.317L297.62 149.38Z" fill="#D9D9D9"/>
</mask>
<g mask="url(#mask0_1338_94966)">
<path d="M-30.5795 64.4471L43.4514 92.0534L44.1474 92.313L44.7244 91.8457L106.092 42.1447L119.154 119.938L119.277 120.67L119.971 120.935L193.779 149.129L132.81 199.316L132.237 199.788L132.354 200.521L144.795 278.416L70.7636 250.809L70.0676 250.55L69.4906 251.017L8.1231 300.718L-4.93899 222.924L-5.0618 222.193L-5.75573 221.928L-79.564 193.734L-18.5951 143.546L-18.0219 143.075L-18.1389 142.342L-30.5795 64.4471Z" stroke="#FFA900" stroke-width="2.59524"/>
<path d="M-30.4099 184.631L-89.5344 156.785L-26.0538 141.184L-24.222 140.734L-25.297 139.187L-62.5507 85.5653L0.240185 103.735L2.05211 104.259L1.89627 102.383L-3.50444 37.3537L41.7719 84.4247L43.0785 85.783L43.8836 84.0801L71.7829 25.0681L87.4131 88.4278L87.8641 90.2562L89.4144 89.1832L143.138 52.0005L124.934 114.672L124.409 116.48L126.289 116.325L191.442 110.934L144.281 156.124L142.92 157.428L144.626 158.232L203.751 186.078L140.27 201.679L138.438 202.129L139.513 203.676L176.767 257.298L113.976 239.128L112.164 238.604L112.32 240.48L117.721 305.509L72.4445 258.438L71.138 257.08L70.3329 258.783L42.4335 317.795L26.8034 254.435L26.3523 252.607L24.802 253.68L-28.9218 290.862L-10.7176 228.191L-10.1923 226.383L-12.0724 226.538L-77.2254 231.929L-30.0647 186.739L-28.7038 185.434L-30.4099 184.631Z" stroke="#DADFEA" stroke-width="2.59524"/>
<path d="M4.17842 178.987L-30.4273 162.688L6.72803 153.557L8.55987 153.107L7.48485 151.56L-14.3198 120.175L22.4318 130.81L24.2438 131.334L24.0879 129.457L20.9269 91.3958L47.4273 118.947L48.7338 120.305L49.5389 118.602L65.8685 84.0621L75.0168 121.147L75.4678 122.975L77.0181 121.902L108.463 100.139L97.8078 136.821L97.2825 138.629L99.1626 138.474L137.297 135.319L109.694 161.768L108.333 163.072L110.039 163.876L144.645 180.175L107.489 189.305L105.657 189.756L106.732 191.303L128.537 222.688L91.7854 212.053L89.9735 211.529L90.1293 213.405L93.2903 251.467L66.79 223.916L65.4834 222.558L64.6784 224.261L48.3488 258.801L39.2004 221.716L38.7494 219.888L37.1991 220.961L5.75441 242.724L16.4094 206.042L16.9347 204.234L15.0546 204.389L-23.0797 207.544L4.52366 181.094L5.88455 179.79L4.17842 178.987Z" stroke="#8712FC" stroke-width="2.59524"/>
<path d="M25.6404 185.603L31.5909 176.48L32.2368 175.49L31.3085 174.756L22.7569 168L32.4803 163.069L33.5358 162.534L33.0993 161.435L29.078 151.317L39.9688 151.899L41.1511 151.962L41.3233 150.793L42.9097 140.023L52.0499 145.962L53.0421 146.607L53.7769 145.68L60.5461 137.145L65.4864 146.85L66.0227 147.903L67.1233 147.468L77.2613 143.454L76.6781 154.324L76.6148 155.504L77.7861 155.676L88.5766 157.259L82.6261 166.382L81.9801 167.372L82.9084 168.106L91.46 174.862L81.7367 179.793L80.6811 180.328L81.1177 181.427L85.139 191.545L74.2481 190.963L73.0659 190.9L72.8936 192.069L71.3072 202.839L62.167 196.9L61.1748 196.255L60.44 197.182L53.6709 205.717L48.7305 196.012L48.1942 194.959L47.0937 195.394L36.9556 199.408L37.5389 188.538L37.6022 187.358L36.4308 187.186L25.6404 185.603Z" stroke="#E21B25" stroke-width="2.59524"/>
<path d="M45.96 176.452L47.9052 172.304L48.1841 171.709L47.8686 171.133L45.6683 167.114L49.9824 165.554L50.6011 165.33L50.7863 164.7L52.0777 160.305L56.2335 162.247L56.8295 162.525L57.407 162.21L61.4336 160.014L62.9967 164.32L63.2209 164.938L63.8523 165.122L68.2554 166.411L66.3102 170.559L66.0312 171.154L66.3467 171.73L68.547 175.749L64.2329 177.31L63.6142 177.533L63.429 178.163L62.1376 182.558L57.9818 180.617L57.3858 180.338L56.8084 180.653L52.7818 182.849L51.2186 178.543L50.9945 177.926L50.363 177.741L45.96 176.452Z" stroke="#DADFEA" stroke-width="2.59524"/>
<path d="M143.961 277.406L90.1748 211.783" stroke="#8712FC" stroke-width="2.59524"/>
<rect x="-1.42173" y="1.16085" width="23.8289" height="23.8289" transform="matrix(-0.0996691 0.994081 -0.995978 -0.0994789 174.315 288.138)" stroke="#8712FC" stroke-width="2.59524"/>
<path d="M-71.1973 122.998L8.25689 152.987" stroke="#8712FC" stroke-width="2.59524"/>
<path d="M185.414 219.864L105.96 189.875" stroke="#8712FC" stroke-width="2.59524"/>
<rect x="-0.649722" y="1.71484" width="23.8289" height="23.8289" transform="matrix(0.411673 0.910639 -0.912377 0.410889 217.266 213.079)" stroke="#8712FC" stroke-width="2.59524"/>
<path d="M-78.2695 193.518L5.56299 179.838" stroke="#8712FC" stroke-width="2.59524"/>
<path d="M192.488 149.346L108.656 163.026" stroke="#8712FC" stroke-width="2.59524"/>
<rect x="0.29638" y="1.80934" width="23.8289" height="23.8289" transform="matrix(0.812708 0.583192 -0.584305 0.81116 215.96 126.946)" stroke="#8712FC" stroke-width="2.59524"/>
<path d="M-49.0684 258.118L16.6797 204.435" stroke="#8712FC" stroke-width="2.59524"/>
<path d="M8.58398 299.492L38.6304 220.189" stroke="#8712FC" stroke-width="2.59524"/>
<rect x="-1.71811" y="-0.648485" width="23.8289" height="23.8289" transform="matrix(-0.912377 0.410889 -0.411673 -0.910639 13.4337 329.57)" stroke="#8712FC" stroke-width="2.59524"/>
<path d="M79.2383 306.553L65.5322 222.88" stroke="#8712FC" stroke-width="2.59524"/>
<rect x="-1.81279" y="0.295816" width="23.8289" height="23.8289" transform="matrix(-0.584305 0.81116 -0.812708 -0.583192 99.218 330.808)" stroke="#8712FC" stroke-width="2.59524"/>
<path d="M229.732 285.121L220.059 298.549L213.244 283.474L229.732 285.121Z" stroke="#DADFEA" stroke-width="2.59524"/>
<path d="M263.558 183.741L261.908 200.198L248.454 190.543L263.558 183.741Z" stroke="#DADFEA" stroke-width="2.59524"/>
<path d="M149.652 356.038L134.548 362.84L136.198 346.383L149.652 356.038Z" stroke="#DADFEA" stroke-width="2.59524"/>
</g>
</svg>
