<svg width="360" height="274" viewBox="0 0 360 274" fill="none" xmlns="http://www.w3.org/2000/svg">
<mask id="mask0_1338_94742" style="mask-type:alpha" maskUnits="userSpaceOnUse" x="149" y="0" width="211" height="298">
<path d="M149.4 297.034L149.4 0.113281L359.738 210.05L149.4 297.034Z" fill="#D9D9D9"/>
</mask>
<g mask="url(#mask0_1338_94742)">
<path d="M64.3071 -30.5396L91.9661 43.3503L92.2262 44.045L91.758 44.6208L41.9622 105.872L119.904 118.909L120.637 119.031L120.903 119.724L149.151 193.392L199.434 132.539L199.907 131.967L200.64 132.083L278.684 144.5L251.025 70.6105L250.765 69.9158L251.233 69.3399L301.029 8.08928L223.087 -4.94793L222.354 -5.07051L222.089 -5.76312L193.841 -79.4308L143.557 -18.578L143.085 -18.0059L142.351 -18.1227L64.3071 -30.5396Z" stroke="#FFA900" stroke-width="2.59524"/>
<path d="M184.719 -30.3707L156.82 -89.3827L141.19 -26.023L140.739 -24.1946L139.189 -25.2676L85.4647 -62.4503L103.669 0.220974L104.194 2.02945L102.314 1.8739L37.1611 -3.51652L84.3219 41.6736L85.6827 42.9777L83.9766 43.7812L24.852 71.6274L88.3327 87.2278L90.1645 87.678L89.0895 89.2253L51.8358 142.847L114.627 124.677L116.439 124.153L116.283 126.029L110.882 191.058L156.158 143.988L157.465 142.629L158.27 144.332L186.169 203.344L201.8 139.984L202.251 138.156L203.801 139.229L257.525 176.412L239.321 113.74L238.795 111.932L240.675 112.087L305.828 117.478L258.668 72.2877L257.307 70.9837L259.013 70.1802L318.137 42.3339L254.657 26.7336L252.825 26.2834L253.9 24.7361L291.154 -28.8854L228.363 -10.7159L226.551 -10.1916L226.707 -12.0681L232.107 -77.0971L186.831 -30.0261L185.524 -28.6678L184.719 -30.3707Z" stroke="#DADFEA" stroke-width="2.59524"/>
<path d="M179.065 4.1507L162.735 -30.3891L153.587 6.69545L153.136 8.5238L151.585 7.45084L120.141 -14.3123L130.796 22.3694L131.321 24.1778L129.441 24.0223L91.3066 20.8672L118.91 47.3172L120.271 48.6212L118.565 49.4247L83.9589 65.7232L121.114 74.8541L122.946 75.3043L121.871 76.8516L100.066 108.236L136.818 97.6018L138.63 97.0775L138.474 98.954L135.313 137.016L161.813 109.465L163.12 108.107L163.925 109.809L180.255 144.349L189.403 107.265L189.854 105.436L191.404 106.509L222.849 128.272L212.194 91.5908L211.669 89.7823L213.549 89.9379L251.683 93.0929L224.08 66.643L222.719 65.3389L224.425 64.5354L259.031 48.2369L221.875 39.106L220.044 38.6558L221.119 37.1085L242.923 5.72369L206.172 16.3584L204.36 16.8827L204.516 15.0062L207.677 -23.0555L181.176 4.49527L179.87 5.85358L179.065 4.1507Z" stroke="#8712FC" stroke-width="2.59524"/>
<path d="M185.693 25.5723L176.553 31.5115L175.561 32.1562L174.826 31.2297L168.057 22.6944L163.116 32.3992L162.58 33.4527L161.479 33.017L151.341 29.0034L151.925 39.8735L151.988 41.0535L150.817 41.2254L140.026 42.8088L145.977 51.9315L146.623 52.9219L145.694 53.6553L137.143 60.4115L146.866 65.3425L147.922 65.8778L147.485 66.9762L143.464 77.0949L154.355 76.5128L155.537 76.4496L155.709 77.6188L157.296 88.3887L166.436 82.4495L167.428 81.8048L168.163 82.7313L174.932 91.2666L179.872 81.5618L180.408 80.5083L181.509 80.944L191.647 84.9576L191.064 74.0875L191.001 72.9075L192.172 72.7356L202.962 71.1522L197.012 62.0295L196.366 61.0391L197.294 60.3057L205.846 53.5494L196.122 48.6185L195.067 48.0832L195.503 46.9848L199.525 36.8661L188.634 37.4482L187.452 37.5114L187.279 36.3422L185.693 25.5723Z" stroke="#E21B25" stroke-width="2.59524"/>
<path d="M176.524 45.8544L172.369 47.7959L171.773 48.0743L171.195 47.7594L167.169 45.5633L165.605 49.8692L165.381 50.4867L164.75 50.6715L160.347 51.9605L162.292 56.1084L162.571 56.7032L162.255 57.2796L160.055 61.2985L164.369 62.8587L164.988 63.0824L165.173 63.7126L166.465 68.1073L170.62 66.1658L171.216 65.8874L171.794 66.2023L175.82 68.3984L177.384 64.0925L177.608 63.475L178.239 63.2902L182.642 62.0012L180.697 57.8533L180.418 57.2585L180.734 56.6821L182.934 52.6632L178.62 51.103L178.001 50.8793L177.816 50.249L176.524 45.8544Z" stroke="#DADFEA" stroke-width="2.59524"/>
<path d="M277.674 143.668L211.926 89.9843" stroke="#8712FC" stroke-width="2.59524"/>
<rect x="1.16307" y="-1.41902" width="23.8289" height="23.8289" transform="matrix(0.995978 -0.0994793 -0.0996687 -0.994081 285.594 171.658)" stroke="#8712FC" stroke-width="2.59524"/>
<path d="M122.971 -71.0801L153.017 8.22275" stroke="#8712FC" stroke-width="2.59524"/>
<path d="M220.021 185.042L189.975 105.739" stroke="#8712FC" stroke-width="2.59524"/>
<rect x="1.71811" y="-0.648485" width="23.8289" height="23.8289" transform="matrix(0.912377 0.410889 0.411673 -0.910639 212.037 213.708)" stroke="#8712FC" stroke-width="2.59524"/>
<path d="M193.623 -78.1406L179.917 5.53221" stroke="#8712FC" stroke-width="2.59524"/>
<path d="M149.367 192.102L163.073 108.429" stroke="#8712FC" stroke-width="2.59524"/>
<rect x="1.81279" y="0.295816" width="23.8289" height="23.8289" transform="matrix(0.584305 0.81116 0.812708 -0.583192 127.269 213.416)" stroke="#8712FC" stroke-width="2.59524"/>
<path d="M258.348 -48.9941L204.562 16.6287" stroke="#8712FC" stroke-width="2.59524"/>
<path d="M299.801 8.54785L220.347 38.537" stroke="#8712FC" stroke-width="2.59524"/>
<rect x="-0.649723" y="-1.71484" width="23.8289" height="23.8289" transform="matrix(0.411673 -0.910639 -0.912377 -0.410889 328.522 13.9235)" stroke="#8712FC" stroke-width="2.59524"/>
<path d="M306.875 79.0664L223.042 65.3864" stroke="#8712FC" stroke-width="2.59524"/>
<rect x="0.29638" y="-1.80934" width="23.8289" height="23.8289" transform="matrix(0.812708 -0.583192 -0.584305 -0.81116 328.233 98.5316)" stroke="#8712FC" stroke-width="2.59524"/>
<path d="M285.402 229.276L298.856 219.622L283.752 212.819L285.402 229.276Z" stroke="#DADFEA" stroke-width="2.59524"/>
<path d="M183.827 263.037L200.315 261.39L190.642 247.962L183.827 263.037Z" stroke="#DADFEA" stroke-width="2.59524"/>
<path d="M356.453 149.348L363.268 134.273L346.78 135.92L356.453 149.348Z" stroke="#DADFEA" stroke-width="2.59524"/>
</g>
</svg>
