<svg width="360" height="273" viewBox="0 0 360 273" fill="none" xmlns="http://www.w3.org/2000/svg">
<mask id="mask0_1338_94798" style="mask-type:alpha" maskUnits="userSpaceOnUse" x="149" y="-25" width="211" height="298">
<path d="M149.359 -24.3378L149.359 272.583L359.697 62.6464L149.359 -24.3378Z" fill="#D9D9D9"/>
</mask>
<g mask="url(#mask0_1338_94798)">
<path d="M64.2661 303.236L91.9251 229.346L92.1851 228.651L91.717 228.075L41.9211 166.825L119.863 153.788L120.596 153.665L120.862 152.972L149.11 79.3048L199.393 140.157L199.866 140.73L200.599 140.613L278.643 128.196L250.984 202.086L250.724 202.78L251.192 203.356L300.988 264.607L223.046 277.644L222.313 277.767L222.047 278.459L193.8 352.127L143.516 291.274L143.044 290.702L142.31 290.819L64.2661 303.236Z" stroke="#FFA900" stroke-width="2.59524"/>
<path d="M184.678 303.067L156.779 362.079L141.149 298.719L140.698 296.891L139.148 297.964L85.4237 335.147L103.628 272.475L104.153 270.667L102.273 270.822L37.1201 276.213L84.2808 231.023L85.6417 229.719L83.9356 228.915L24.811 201.069L88.2916 185.468L90.1235 185.018L89.0485 183.471L51.7948 129.849L114.586 148.019L116.398 148.543L116.242 146.667L110.841 81.6379L156.117 128.709L157.424 130.067L158.229 128.364L186.128 69.3523L201.759 132.712L202.21 134.54L203.76 133.467L257.484 96.2846L239.279 158.956L238.754 160.764L240.634 160.609L305.787 155.218L258.627 200.409L257.266 201.713L258.972 202.516L318.096 230.362L254.616 245.963L252.784 246.413L253.859 247.96L291.113 301.582L228.322 283.412L226.51 282.888L226.666 284.764L232.066 349.793L186.79 302.722L185.483 301.364L184.678 303.067Z" stroke="#DADFEA" stroke-width="2.59524"/>
<path d="M179.024 268.546L162.694 303.085L153.546 266.001L153.095 264.172L151.544 265.245L120.1 287.009L130.755 250.327L131.28 248.518L129.4 248.674L91.2655 251.829L118.869 225.379L120.23 224.075L118.524 223.272L83.9179 206.973L121.073 197.842L122.905 197.392L121.83 195.845L100.025 164.46L136.777 175.095L138.589 175.619L138.433 173.742L135.272 135.681L161.772 163.231L163.079 164.59L163.884 162.887L180.214 128.347L189.362 165.432L189.813 167.26L191.363 166.187L222.808 144.424L212.153 181.106L211.628 182.914L213.508 182.758L251.642 179.603L224.039 206.053L222.678 207.357L224.384 208.161L258.99 224.459L221.834 233.59L220.003 234.04L221.078 235.588L242.882 266.973L206.131 256.338L204.319 255.814L204.474 257.69L207.636 295.752L181.135 268.201L179.829 266.843L179.024 268.546Z" stroke="#8712FC" stroke-width="2.59524"/>
<path d="M185.652 247.124L176.512 241.185L175.52 240.54L174.785 241.467L168.016 250.002L163.075 240.297L162.539 239.244L161.438 239.679L151.3 243.693L151.884 232.823L151.947 231.643L150.776 231.471L139.985 229.887L145.936 220.765L146.582 219.774L145.653 219.041L137.102 212.285L146.825 207.354L147.881 206.819L147.444 205.72L143.423 195.601L154.314 196.183L155.496 196.247L155.668 195.078L157.254 184.308L166.395 190.247L167.387 190.892L168.122 189.965L174.891 181.43L179.831 191.135L180.367 192.188L181.468 191.752L191.606 187.739L191.023 198.609L190.96 199.789L192.131 199.961L202.921 201.544L196.971 210.667L196.325 211.657L197.253 212.391L205.805 219.147L196.081 224.078L195.026 224.613L195.462 225.712L199.484 235.83L188.593 235.248L187.411 235.185L187.238 236.354L185.652 247.124Z" stroke="#E21B25" stroke-width="2.59524"/>
<path d="M176.483 226.842L172.328 224.9L171.732 224.622L171.154 224.937L167.128 227.133L165.564 222.827L165.34 222.21L164.709 222.025L160.306 220.736L162.251 216.588L162.53 215.993L162.214 215.417L160.014 211.398L164.328 209.838L164.947 209.614L165.132 208.984L166.424 204.589L170.579 206.53L171.175 206.809L171.753 206.494L175.779 204.298L177.343 208.604L177.567 209.221L178.198 209.406L182.601 210.695L180.656 214.843L180.377 215.438L180.693 216.014L182.893 220.033L178.579 221.593L177.96 221.817L177.775 222.447L176.483 226.842Z" stroke="#DADFEA" stroke-width="2.59524"/>
<path d="M277.633 129.028L211.885 182.712" stroke="#8712FC" stroke-width="2.59524"/>
<rect x="1.16307" y="1.41902" width="23.8289" height="23.8289" transform="matrix(0.995978 0.0994792 -0.0996686 0.994081 285.836 98.2169)" stroke="#8712FC" stroke-width="2.59524"/>
<path d="M122.93 343.776L152.976 264.474" stroke="#8712FC" stroke-width="2.59524"/>
<path d="M219.98 87.6543L189.934 166.957" stroke="#8712FC" stroke-width="2.59524"/>
<rect x="1.71811" y="0.648485" width="23.8289" height="23.8289" transform="matrix(0.912377 -0.410889 0.411673 0.910639 211.462 57.8078)" stroke="#8712FC" stroke-width="2.59524"/>
<path d="M193.582 350.837L179.876 267.164" stroke="#8712FC" stroke-width="2.59524"/>
<path d="M149.326 80.5947L163.032 164.268" stroke="#8712FC" stroke-width="2.59524"/>
<rect x="1.81279" y="-0.295816" width="23.8289" height="23.8289" transform="matrix(0.584305 -0.81116 0.812708 0.583192 127.709 59.6255)" stroke="#8712FC" stroke-width="2.59524"/>
<path d="M258.307 321.69L204.521 256.068" stroke="#8712FC" stroke-width="2.59524"/>
<path d="M299.76 264.148L220.306 234.159" stroke="#8712FC" stroke-width="2.59524"/>
<rect x="-0.649722" y="1.71484" width="23.8289" height="23.8289" transform="matrix(0.411673 0.910639 -0.912377 0.410889 331.61 257.364)" stroke="#8712FC" stroke-width="2.59524"/>
<path d="M306.834 193.63L223.001 207.31" stroke="#8712FC" stroke-width="2.59524"/>
<rect x="0.29638" y="1.80934" width="23.8289" height="23.8289" transform="matrix(0.812708 0.583192 -0.584305 0.81116 330.306 171.229)" stroke="#8712FC" stroke-width="2.59524"/>
<path d="M285.361 43.4204L298.815 53.0748L283.711 59.8768L285.361 43.4204Z" stroke="#DADFEA" stroke-width="2.59524"/>
<path d="M183.786 9.65933L200.274 11.3061L190.601 24.7344L183.786 9.65933Z" stroke="#DADFEA" stroke-width="2.59524"/>
<path d="M356.412 123.347L363.227 138.423L346.739 136.776L356.412 123.347Z" stroke="#DADFEA" stroke-width="2.59524"/>
</g>
</svg>
