<svg width="277" height="360" viewBox="0 0 277 360" fill="none" xmlns="http://www.w3.org/2000/svg">
<mask id="mask0_1338_95134" style="mask-type:alpha" maskUnits="userSpaceOnUse" x="-25" y="0" width="298" height="211">
<path d="M-24.6203 210.62L272.867 210.62L62.5299 0.683486L-24.6203 210.62Z" fill="#D9D9D9"/>
</mask>
<g mask="url(#mask0_1338_95134)">
<path d="M303.58 295.553L229.549 267.947L228.853 267.687L228.276 268.154L166.908 317.855L153.846 240.062L153.723 239.33L153.029 239.065L79.221 210.871L140.19 160.684L140.763 160.212L140.646 159.479L128.205 81.5843L202.236 109.191L202.932 109.45L203.509 108.983L264.877 59.2819L277.939 137.076L278.062 137.807L278.756 138.072L352.564 166.266L291.595 216.454L291.022 216.925L291.139 217.658L303.58 295.553Z" stroke="#FFA900" stroke-width="2.59524"/>
<path d="M303.41 175.369L362.534 203.215L299.054 218.816L297.222 219.266L298.297 220.813L335.551 274.435L272.76 256.265L270.948 255.741L271.104 257.617L276.504 322.646L231.228 275.575L229.922 274.217L229.116 275.92L201.217 334.932L185.587 271.572L185.136 269.744L183.586 270.817L129.862 307.999L148.066 245.328L148.591 243.52L146.711 243.675L81.5582 249.066L128.719 203.876L130.08 202.572L128.374 201.768L69.2491 173.922L132.73 158.321L134.562 157.871L133.487 156.324L96.2329 102.702L159.024 120.872L160.836 121.396L160.68 119.52L155.279 54.4908L200.556 101.562L201.862 102.92L202.667 101.217L230.567 42.2052L246.197 105.565L246.648 107.393L248.198 106.32L301.922 69.1375L283.718 131.809L283.192 133.617L285.072 133.462L350.225 128.071L303.065 173.261L301.704 174.566L303.41 175.369Z" stroke="#DADFEA" stroke-width="2.59524"/>
<path d="M268.822 181.013L303.427 197.312L266.272 206.443L264.44 206.893L265.515 208.44L287.32 239.825L250.568 229.19L248.756 228.666L248.912 230.543L252.073 268.604L225.573 241.053L224.266 239.695L223.461 241.398L207.132 275.938L197.983 238.853L197.532 237.025L195.982 238.098L164.537 259.861L175.192 223.179L175.717 221.371L173.837 221.526L135.703 224.681L163.306 198.232L164.667 196.928L162.961 196.124L128.355 179.825L165.511 170.695L167.343 170.244L166.268 168.697L144.463 137.312L181.215 147.947L183.027 148.471L182.871 146.595L179.71 108.533L206.21 136.084L207.517 137.442L208.322 135.739L224.651 101.199L233.8 138.284L234.251 140.112L235.801 139.039L267.246 117.276L256.591 153.958L256.065 155.766L257.945 155.611L296.08 152.456L268.476 178.906L267.115 180.21L268.822 181.013Z" stroke="#8712FC" stroke-width="2.59524"/>
<path d="M247.36 174.397L241.409 183.52L240.763 184.51L241.692 185.244L250.243 192L240.52 196.931L239.464 197.466L239.901 198.565L243.922 208.683L233.031 208.101L231.849 208.038L231.677 209.207L230.09 219.977L220.95 214.038L219.958 213.393L219.223 214.32L212.454 222.855L207.514 213.15L206.977 212.097L205.877 212.532L195.739 216.546L196.322 205.676L196.385 204.496L195.214 204.324L184.423 202.741L190.374 193.618L191.02 192.628L190.092 191.894L181.54 185.138L191.263 180.207L192.319 179.672L191.882 178.573L187.861 168.455L198.752 169.037L199.934 169.1L200.106 167.931L201.693 157.161L210.833 163.1L211.825 163.745L212.56 162.818L219.329 154.283L224.269 163.988L224.806 165.041L225.906 164.606L236.044 160.592L235.461 171.462L235.398 172.642L236.569 172.814L247.36 174.397Z" stroke="#E21B25" stroke-width="2.59524"/>
<path d="M227.04 183.548L225.095 187.696L224.816 188.291L225.131 188.867L227.332 192.886L223.018 194.446L222.399 194.67L222.214 195.3L220.922 199.695L216.766 197.753L216.17 197.475L215.593 197.79L211.566 199.986L210.003 195.68L209.779 195.062L209.148 194.878L204.745 193.589L206.69 189.441L206.969 188.846L206.653 188.27L204.453 184.251L208.767 182.69L209.386 182.467L209.571 181.837L210.862 177.442L215.018 179.383L215.614 179.662L216.192 179.347L220.218 177.151L221.781 181.457L222.006 182.074L222.637 182.259L227.04 183.548Z" stroke="#DADFEA" stroke-width="2.59524"/>
<path d="M129.039 82.5938L182.825 148.217" stroke="#8712FC" stroke-width="2.59524"/>
<rect x="1.42173" y="-1.16085" width="23.8289" height="23.8289" transform="matrix(0.0996691 -0.994081 0.995978 0.0994789 100.714 74.9197)" stroke="#8712FC" stroke-width="2.59524"/>
<path d="M344.197 237.002L264.743 207.013" stroke="#8712FC" stroke-width="2.59524"/>
<path d="M87.5859 140.136L167.04 170.125" stroke="#8712FC" stroke-width="2.59524"/>
<rect x="0.649722" y="-1.71484" width="23.8289" height="23.8289" transform="matrix(-0.411673 -0.910639 0.912377 -0.410889 59.3978 146.695)" stroke="#8712FC" stroke-width="2.59524"/>
<path d="M351.27 166.482L267.437 180.162" stroke="#8712FC" stroke-width="2.59524"/>
<path d="M80.5117 210.654L164.344 196.974" stroke="#8712FC" stroke-width="2.59524"/>
<rect x="-0.29638" y="-1.80934" width="23.8289" height="23.8289" transform="matrix(-0.812708 -0.583192 0.584305 -0.81116 58.6723 229.773)" stroke="#8712FC" stroke-width="2.59524"/>
<path d="M322.068 101.882L256.32 155.565" stroke="#8712FC" stroke-width="2.59524"/>
<path d="M264.416 60.5078L234.37 139.811" stroke="#8712FC" stroke-width="2.59524"/>
<rect x="1.71811" y="0.648485" width="23.8289" height="23.8289" transform="matrix(0.912377 -0.410889 0.411673 0.910639 255.897 30.6604)" stroke="#8712FC" stroke-width="2.59524"/>
<path d="M193.762 53.4473L207.468 137.12" stroke="#8712FC" stroke-width="2.59524"/>
<rect x="1.81279" y="-0.295816" width="23.8289" height="23.8289" transform="matrix(0.584305 -0.81116 0.812708 0.583192 172.144 32.478)" stroke="#8712FC" stroke-width="2.59524"/>
<path d="M43.2683 74.8792L52.9411 61.451L59.7561 76.526L43.2683 74.8792Z" stroke="#DADFEA" stroke-width="2.59524"/>
<path d="M9.44204 176.259L11.092 159.802L24.5459 169.457L9.44204 176.259Z" stroke="#DADFEA" stroke-width="2.59524"/>
<path d="M123.348 3.96245L138.452 -2.83958L136.802 13.6168L123.348 3.96245Z" stroke="#DADFEA" stroke-width="2.59524"/>
</g>
</svg>
