<svg width="360" height="273" viewBox="0 0 360 273" fill="none" xmlns="http://www.w3.org/2000/svg">
<mask id="mask0_1338_94910" style="mask-type:alpha" maskUnits="userSpaceOnUse" x="0" y="-25" width="211" height="298">
<path d="M210.375 -24.5918L210.375 272.329L0.0377308 62.3925L210.375 -24.5918Z" fill="#D9D9D9"/>
</mask>
<g mask="url(#mask0_1338_94910)">
<path d="M295.468 302.982L267.809 229.092L267.549 228.397L268.017 227.822L317.813 166.571L239.871 153.534L239.138 153.411L238.873 152.718L210.625 79.0508L160.342 139.904L159.869 140.476L159.135 140.359L81.0913 127.942L108.75 201.832L109.01 202.527L108.542 203.102L58.7463 264.353L136.689 277.39L137.421 277.513L137.687 278.205L165.935 351.873L216.218 291.02L216.691 290.448L217.424 290.565L295.468 302.982Z" stroke="#FFA900" stroke-width="2.59524"/>
<path d="M175.056 302.813L202.955 361.825L218.586 298.465L219.037 296.637L220.587 297.71L274.311 334.893L256.106 272.221L255.581 270.413L257.461 270.568L322.614 275.959L275.454 230.769L274.093 229.465L275.799 228.661L334.923 200.815L271.443 185.215L269.611 184.764L270.686 183.217L307.94 129.596L245.149 147.765L243.337 148.289L243.493 146.413L248.893 81.3839L203.617 128.455L202.31 129.813L201.505 128.11L173.606 69.0983L157.976 132.458L157.525 134.286L155.975 133.213L102.251 96.0307L120.455 158.702L120.98 160.51L119.1 160.355L53.9471 154.965L101.108 200.155L102.469 201.459L100.763 202.262L41.638 230.108L105.119 245.709L106.95 246.159L105.875 247.706L68.6218 301.328L131.413 283.158L133.225 282.634L133.069 284.511L127.668 349.539L172.944 302.469L174.251 301.11L175.056 302.813Z" stroke="#DADFEA" stroke-width="2.59524"/>
<path d="M180.711 268.292L197.04 302.832L206.189 265.747L206.64 263.919L208.19 264.992L239.635 286.755L228.98 250.073L228.454 248.265L230.335 248.42L268.469 251.575L240.866 225.125L239.505 223.821L241.211 223.018L275.816 206.719L238.661 197.588L236.829 197.138L237.904 195.591L259.709 164.206L222.957 174.841L221.145 175.365L221.301 173.488L224.462 135.427L197.962 162.978L196.655 164.336L195.85 162.633L179.521 128.093L170.372 165.178L169.921 167.006L168.371 165.933L136.926 144.17L147.581 180.852L148.107 182.66L146.227 182.505L108.092 179.349L135.696 205.799L137.057 207.103L135.35 207.907L100.745 224.205L137.9 233.336L139.732 233.787L138.657 235.334L116.852 266.719L153.604 256.084L155.416 255.56L155.26 257.436L152.099 295.498L178.599 267.947L179.906 266.589L180.711 268.292Z" stroke="#8712FC" stroke-width="2.59524"/>
<path d="M174.082 246.87L183.223 240.931L184.215 240.286L184.95 241.213L191.719 249.748L196.659 240.043L197.195 238.99L198.296 239.425L208.434 243.439L207.851 232.569L207.787 231.389L208.959 231.217L219.749 229.634L213.799 220.511L213.153 219.521L214.081 218.787L222.633 212.031L212.909 207.1L211.854 206.565L212.29 205.466L216.312 195.347L205.421 195.93L204.239 195.993L204.066 194.824L202.48 184.054L193.34 189.993L192.348 190.638L191.613 189.711L184.844 181.176L179.903 190.881L179.367 191.934L178.266 191.498L168.128 187.485L168.712 198.355L168.775 199.535L167.603 199.707L156.813 201.29L162.764 210.413L163.41 211.403L162.481 212.137L153.93 218.893L163.653 223.824L164.709 224.359L164.272 225.458L160.251 235.576L171.141 234.994L172.324 234.931L172.496 236.1L174.082 246.87Z" stroke="#E21B25" stroke-width="2.59524"/>
<path d="M183.251 226.588L187.407 224.647L188.003 224.368L188.58 224.683L192.607 226.879L194.17 222.573L194.394 221.956L195.026 221.771L199.429 220.482L197.483 216.334L197.204 215.739L197.52 215.163L199.72 211.144L195.406 209.584L194.787 209.36L194.602 208.73L193.311 204.335L189.155 206.277L188.559 206.555L187.982 206.24L183.955 204.044L182.392 208.35L182.168 208.967L181.536 209.152L177.133 210.441L179.078 214.589L179.357 215.184L179.042 215.76L176.842 219.779L181.156 221.339L181.774 221.563L181.96 222.193L183.251 226.588Z" stroke="#DADFEA" stroke-width="2.59524"/>
<path d="M82.1016 128.774L147.85 182.458" stroke="#8712FC" stroke-width="2.59524"/>
<rect x="-1.16307" y="1.41902" width="23.8289" height="23.8289" transform="matrix(-0.995978 0.0994793 0.0996687 0.994081 71.582 98.1944)" stroke="#8712FC" stroke-width="2.59524"/>
<path d="M236.805 343.522L206.758 264.22" stroke="#8712FC" stroke-width="2.59524"/>
<path d="M139.754 87.4004L169.8 166.703" stroke="#8712FC" stroke-width="2.59524"/>
<rect x="-1.71811" y="0.648485" width="23.8289" height="23.8289" transform="matrix(-0.912377 -0.410889 -0.411673 0.910639 145.138 56.1411)" stroke="#8712FC" stroke-width="2.59524"/>
<path d="M166.152 350.583L179.858 266.91" stroke="#8712FC" stroke-width="2.59524"/>
<path d="M210.408 80.3408L196.702 164.014" stroke="#8712FC" stroke-width="2.59524"/>
<rect x="-1.81279" y="-0.295816" width="23.8289" height="23.8289" transform="matrix(-0.584305 -0.81116 -0.812708 0.583192 229.907 56.4307)" stroke="#8712FC" stroke-width="2.59524"/>
<path d="M101.428 321.437L155.214 255.814" stroke="#8712FC" stroke-width="2.59524"/>
<path d="M59.9746 263.895L139.429 233.905" stroke="#8712FC" stroke-width="2.59524"/>
<rect x="0.649723" y="1.71484" width="23.8289" height="23.8289" transform="matrix(-0.411673 0.910639 0.912377 0.410889 28.6593 255.926)" stroke="#8712FC" stroke-width="2.59524"/>
<path d="M52.9004 193.376L136.733 207.056" stroke="#8712FC" stroke-width="2.59524"/>
<rect x="-0.29638" y="1.80934" width="23.8289" height="23.8289" transform="matrix(-0.812708 0.583192 0.584305 0.81116 28.9466 171.321)" stroke="#8712FC" stroke-width="2.59524"/>
<path d="M74.373 43.1665L60.9191 52.8209L76.023 59.6229L74.373 43.1665Z" stroke="#DADFEA" stroke-width="2.59524"/>
<path d="M175.948 9.40542L159.46 11.0522L169.133 24.4805L175.948 9.40542Z" stroke="#DADFEA" stroke-width="2.59524"/>
<path d="M3.32208 123.095L-3.49294 138.17L12.9949 136.523L3.32208 123.095Z" stroke="#DADFEA" stroke-width="2.59524"/>
</g>
</svg>
