<svg width="431" height="431" viewBox="0 0 431 431" fill="none" xmlns="http://www.w3.org/2000/svg">
<path d="M215.023 353.364L175.399 285.115L175.03 284.479L174.294 284.476L95.336 284.162L134.671 215.598L135.037 214.96L134.674 214.321L95.5947 145.758L174.554 145.443L175.289 145.44L175.661 144.805L215.54 76.5561L255.164 144.805L255.533 145.44L256.269 145.443L335.227 145.758L295.892 214.321L295.525 214.96L295.889 215.598L334.968 284.162L256.009 284.476L255.274 284.479L254.902 285.115L215.023 353.364Z" stroke="#FFA900" stroke-width="2.57143"/>
<path d="M291.234 260.1L319.203 319.116L260.262 291.026L258.577 290.223L258.426 292.085L253.125 357.239L216.175 303.404L215.119 301.866L214.057 303.404L176.906 357.239L171.849 292.085L171.704 290.223L170.017 291.026L110.971 319.116L139.16 260.1L139.966 258.413L138.105 258.265L72.9848 253.084L126.868 216.019L128.408 214.96L126.872 213.901L73.1273 176.837L138.267 171.655L140.128 171.507L139.329 169.821L111.36 110.805L170.301 138.895L171.986 139.698L172.137 137.836L177.438 72.6814L214.388 126.516L215.444 128.054L216.505 126.516L253.656 72.6814L258.714 137.836L258.859 139.698L260.546 138.895L319.592 110.805L291.402 169.821L290.597 171.507L292.458 171.655L357.578 176.837L303.694 213.901L302.154 214.96L303.69 216.019L357.436 253.084L292.296 258.265L290.435 258.413L291.234 260.1Z" stroke="#DADFEA" stroke-width="2.57143"/>
<path d="M260.95 242.59L277.326 277.144L242.815 260.697L241.13 259.894L240.979 261.756L237.875 299.905L216.24 268.384L215.185 266.846L214.123 268.384L192.37 299.905L189.409 261.756L189.265 259.894L187.577 260.697L153.005 277.144L169.51 242.59L170.316 240.903L168.455 240.755L130.326 237.721L161.876 216.02L163.416 214.96L161.88 213.901L130.411 192.199L168.551 189.166L170.413 189.018L169.614 187.331L153.237 152.776L187.748 169.224L189.433 170.026L189.584 168.164L192.688 130.015L214.323 161.536L215.378 163.075L216.44 161.536L238.193 130.015L241.154 168.164L241.298 170.026L242.986 169.224L277.558 152.776L261.053 187.331L260.247 189.018L262.108 189.166L300.237 192.199L268.687 213.901L267.147 214.96L268.683 216.02L300.152 237.721L262.012 240.755L260.15 240.903L260.95 242.59Z" stroke="#8712FC" stroke-width="2.57143"/>
<path d="M248.595 223.894L238.19 227.204L237.072 227.56L237.321 228.705L239.635 239.369L228.98 237.034L227.835 236.783L227.478 237.9L224.15 248.303L216.099 240.949L215.234 240.159L214.367 240.949L206.288 248.303L202.999 237.9L202.646 236.783L201.501 237.034L190.837 239.369L193.191 228.705L193.443 227.56L192.328 227.204L181.935 223.894L189.301 215.827L190.092 214.96L189.305 214.094L181.968 206.026L192.373 202.716L193.491 202.361L193.242 201.216L190.928 190.552L201.583 192.887L202.728 193.138L203.085 192.021L206.413 181.618L214.464 188.972L215.329 189.762L216.196 188.972L224.275 181.618L227.564 192.021L227.917 193.138L229.062 192.887L239.726 190.552L237.372 201.216L237.12 202.361L238.236 202.716L248.628 206.026L241.262 214.094L240.471 214.96L241.258 215.827L248.595 223.894Z" stroke="#E21B25" stroke-width="2.57143"/>
<path d="M227.093 218.128L222.944 220.117L222.357 220.399L222.235 221.04L221.379 225.559L217.045 224.034L216.431 223.818L215.892 224.186L212.093 226.782L210.112 222.636L209.831 222.048L209.191 221.928L204.675 221.08L206.207 216.741L206.425 216.126L206.058 215.589L203.47 211.793L207.618 209.803L208.206 209.521L208.327 208.881L209.184 204.361L213.518 205.886L214.132 206.102L214.67 205.735L218.47 203.138L220.451 207.285L220.731 207.872L221.371 207.992L225.888 208.841L224.355 213.179L224.138 213.794L224.505 214.332L227.093 218.128Z" stroke="#DADFEA" stroke-width="2.57143"/>
<path d="M215.02 352.03L215.178 267.15" stroke="#8712FC" stroke-width="2.57143"/>
<rect x="-1.81793" y="-1.53269e-07" width="23.8527" height="23.8527" transform="matrix(-0.708295 0.707239 -0.705651 -0.707239 230.553 379.011)" stroke="#8712FC" stroke-width="2.57143"/>
<path d="M215.543 77.89L215.385 162.771" stroke="#8712FC" stroke-width="2.57143"/>
<rect x="1.81793" y="3.06538e-07" width="23.8527" height="23.8527" transform="matrix(0.708295 -0.707239 0.705652 0.707239 197.435 53.4807)" stroke="#8712FC" stroke-width="2.57143"/>
<path d="M283.564 333.669L241.277 260.16" stroke="#8712FC" stroke-width="2.57143"/>
<rect x="-1.57607" y="0.909307" width="23.8527" height="23.8527" transform="matrix(-0.260575 0.966107 -0.96526 -0.258868 311.457 349.242)" stroke="#8712FC" stroke-width="2.57143"/>
<path d="M146.999 96.2512L189.286 169.76" stroke="#8712FC" stroke-width="2.57143"/>
<rect x="1.57607" y="-0.909307" width="23.8527" height="23.8527" transform="matrix(0.260576 -0.966106 0.965259 0.258868 120.04 84.1941)" stroke="#8712FC" stroke-width="2.57143"/>
<path d="M333.812 283.5L260.41 241.06" stroke="#8712FC" stroke-width="2.57143"/>
<rect x="-0.911909" y="1.57497" width="23.8527" height="23.8527" transform="matrix(0.256965 0.966106 -0.966227 0.258867 366.25 282.206)" stroke="#8712FC" stroke-width="2.57143"/>
<path d="M96.7505 146.42L170.152 188.86" stroke="#8712FC" stroke-width="2.57143"/>
<rect x="0.911909" y="-1.57497" width="23.8527" height="23.8527" transform="matrix(-0.256964 -0.966107 0.966227 -0.258868 67.8248 148.66)" stroke="#8712FC" stroke-width="2.57143"/>
<path d="M352.3 214.966L267.451 214.966" stroke="#8712FC" stroke-width="2.57143"/>
<rect x="-0.00339851" y="1.81862" width="23.8527" height="23.8527" transform="matrix(0.705651 0.707239 -0.708295 0.707239 379.307 196.807)" stroke="#8712FC" stroke-width="2.57143"/>
<path d="M78.2627 214.954L163.111 214.954" stroke="#8712FC" stroke-width="2.57143"/>
<rect x="0.00339867" y="-1.81862" width="23.8527" height="23.8527" transform="matrix(-0.705651 -0.707239 0.708295 -0.707239 53.8364 230.546)" stroke="#8712FC" stroke-width="2.57143"/>
<path d="M334.074 146.429L260.513 188.87" stroke="#8712FC" stroke-width="2.57143"/>
<rect x="0.906022" y="1.57497" width="23.8527" height="23.8527" transform="matrix(0.965259 0.258868 -0.260575 0.966106 347.471 117.212)" stroke="#8712FC" stroke-width="2.57143"/>
<path d="M96.489 283.49L170.049 241.05" stroke="#8712FC" stroke-width="2.57143"/>
<rect x="-0.906022" y="-1.57497" width="23.8527" height="23.8527" transform="matrix(-0.96526 -0.258867 0.260576 -0.966106 82.1635 309.195)" stroke="#8712FC" stroke-width="2.57143"/>
<path d="M284.017 96.2561L241.455 169.765" stroke="#8712FC" stroke-width="2.57143"/>
<rect x="1.57268" y="0.909308" width="23.8527" height="23.8527" transform="matrix(0.966227 -0.258867 0.256965 0.966107 280.555 65.0947)" stroke="#8712FC" stroke-width="2.57143"/>
<path d="M146.545 333.663L189.107 260.154" stroke="#8712FC" stroke-width="2.57143"/>
<rect x="-1.57268" y="-0.909308" width="23.8527" height="23.8527" transform="matrix(-0.966227 0.258867 -0.256965 -0.966107 146.501 363.881)" stroke="#8712FC" stroke-width="2.57143"/>
<path d="M276.354 412.281L260.319 416.577L264.643 400.544L276.354 412.281Z" stroke="#DADFEA" stroke-width="2.57143"/>
<path d="M154.209 17.6391L170.244 13.3431L165.92 29.3762L154.209 17.6391Z" stroke="#DADFEA" stroke-width="2.57143"/>
<path d="M366.852 355.113L355.098 366.85L350.833 350.817L366.852 355.113Z" stroke="#DADFEA" stroke-width="2.57143"/>
<path d="M63.7104 74.8072L75.465 63.0701L79.7295 79.1033L63.7104 74.8072Z" stroke="#DADFEA" stroke-width="2.57143"/>
<path d="M416.738 260.391L412.413 276.424L400.703 264.687L416.738 260.391Z" stroke="#DADFEA" stroke-width="2.57143"/>
<path d="M13.8254 169.529L18.1498 153.496L29.8606 165.233L13.8254 169.529Z" stroke="#DADFEA" stroke-width="2.57143"/>
<path d="M412.643 153.496L416.908 169.529L400.889 165.233L412.643 153.496Z" stroke="#DADFEA" stroke-width="2.57143"/>
<path d="M17.92 276.424L13.6555 260.391L29.6747 264.687L17.92 276.424Z" stroke="#DADFEA" stroke-width="2.57143"/>
<path d="M355.666 63.0703L367.376 74.8074L351.341 79.1035L355.666 63.0703Z" stroke="#DADFEA" stroke-width="2.57143"/>
<path d="M74.8972 366.85L63.1864 355.113L79.2216 350.817L74.8972 366.85Z" stroke="#DADFEA" stroke-width="2.57143"/>
<path d="M261.072 13.3429L277.091 17.6389L265.337 29.376L261.072 13.3429Z" stroke="#DADFEA" stroke-width="2.57143"/>
<path d="M169.491 416.577L153.472 412.281L165.226 400.544L169.491 416.577Z" stroke="#DADFEA" stroke-width="2.57143"/>
</svg>
