<svg width="1146" height="1145" viewBox="0 0 1146 1145" fill="none" xmlns="http://www.w3.org/2000/svg">
<mask id="mask0_1410_160279" style="mask-type:alpha" maskUnits="userSpaceOnUse" x="571" y="572" width="407" height="573">
<path d="M977.657 976.885L571.999 572L573.091 1144.55L977.657 976.885Z" fill="#D9D9D9"/>
</mask>
<g mask="url(#mask0_1410_160279)">
<path d="M521.432 488.784L638.697 567.478L639.886 568.275L641.176 567.657L768.492 506.69L758.933 647.362L758.836 648.788L760.018 649.595L876.652 729.218L749.828 791.197L748.543 791.825L748.435 793.25L737.753 933.841L620.488 855.147L619.299 854.35L618.009 854.967L490.693 915.935L500.252 775.262L500.349 773.837L499.167 773.03L382.532 693.406L509.357 631.428L510.642 630.8L510.75 629.375L521.432 488.784Z" stroke="#FFA900" stroke-width="5"/>
<path d="M471.723 697.808L380.666 625.03L497.265 624.23L500.899 624.205L499.577 620.825L457.136 512.377L558.56 569.882L561.721 571.674L562.268 568.088L579.816 453.028L638.887 553.43L640.729 556.56L642.999 553.728L715.833 462.886L716.724 579.283L716.752 582.911L720.137 581.593L828.742 539.31L771.214 640.512L769.421 643.667L773.014 644.215L888.289 661.821L787.757 720.713L784.623 722.548L787.462 724.816L878.518 797.594L761.919 798.394L758.285 798.419L759.608 801.799L802.048 910.247L700.625 852.742L697.463 850.95L696.917 854.536L679.369 969.596L620.297 869.194L618.456 866.064L616.186 868.896L543.352 959.738L542.46 843.341L542.432 839.713L539.047 841.031L430.443 883.314L487.97 782.112L489.763 778.957L486.17 778.409L370.896 760.803L471.428 701.911L474.561 700.076L471.723 697.808Z" stroke="#DADFEA" stroke-width="5"/>
<path d="M534.335 702.345L481.2 659.877L549.24 659.41L552.875 659.385L551.552 656.005L526.786 592.721L585.971 626.277L589.132 628.07L589.679 624.483L599.919 557.341L634.39 615.93L636.231 619.059L638.501 616.228L681.003 563.218L681.523 631.14L681.551 634.768L684.936 633.45L748.311 608.776L714.742 667.832L712.949 670.986L716.541 671.535L783.809 681.809L725.144 716.174L722.011 718.01L724.849 720.278L777.984 762.747L709.944 763.214L706.31 763.239L707.633 766.619L732.398 829.903L673.213 796.346L670.052 794.554L669.505 798.14L659.265 865.283L624.795 806.694L622.953 803.564L620.683 806.396L578.182 859.406L577.661 791.484L577.634 787.856L574.249 789.174L510.873 813.848L544.443 754.792L546.236 751.637L542.643 751.089L475.376 740.815L534.04 706.449L537.173 704.614L534.335 702.345Z" stroke="#8712FC" stroke-width="5"/>
<path d="M569.191 722.867L583.153 709.633L584.806 708.066L583.394 706.276L571.472 691.166L590.197 686.679L592.415 686.148L592.088 683.894L589.327 664.864L607.798 670.326L609.985 670.972L610.831 668.858L617.97 651.007L631.238 664.954L632.809 666.606L634.601 665.198L649.728 653.308L654.238 672.004L654.772 674.218L657.029 673.894L676.09 671.152L670.633 689.587L669.987 691.77L672.105 692.616L689.994 699.756L676.032 712.991L674.379 714.558L675.791 716.347L687.712 731.457L668.987 735.944L666.77 736.476L667.097 738.729L669.858 757.76L651.387 752.298L649.199 751.651L648.354 753.765L641.214 771.617L627.946 757.669L626.375 756.018L624.584 757.426L609.457 769.315L604.947 750.619L604.413 748.405L602.156 748.73L583.094 751.472L588.551 733.037L589.198 730.854L587.079 730.008L569.191 722.867Z" stroke="#E21B25" stroke-width="5"/>
<path d="M608.346 715.376L613.333 709.117L614.121 708.127L613.788 706.906L611.679 699.187L619.64 698.284L620.9 698.141L621.529 697.043L625.504 690.1L631.778 695.082L632.77 695.87L633.993 695.538L641.725 693.439L642.635 701.387L642.779 702.645L643.88 703.273L650.838 707.247L645.852 713.506L645.063 714.496L645.397 715.717L647.506 723.437L639.544 724.339L638.284 724.482L637.656 725.581L633.68 732.524L627.406 727.541L626.414 726.753L625.191 727.085L617.46 729.185L616.549 721.236L616.405 719.979L615.305 719.35L608.346 715.376Z" stroke="#DADFEA" stroke-width="5"/>
<path d="M522.313 490.575L588.751 627.264" stroke="#8712FC" stroke-width="5"/>
<path d="M736.871 932.049L670.433 795.361" stroke="#8712FC" stroke-width="5"/>
<rect x="-3.18342" y="1.54005" width="42.3327" height="42.3327" transform="matrix(-0.327646 0.943823 -0.945723 -0.327802 784.358 963.893)" stroke="#8712FC" stroke-width="5"/>
<path d="M833.018 849.015L707.043 763.748" stroke="#8712FC" stroke-width="5"/>
<rect x="-1.98433" y="2.92325" width="42.3328" height="42.3328" transform="matrix(0.189112 0.981275 -0.982843 0.188027 891.208 851.467)" stroke="#8712FC" stroke-width="5"/>
<path d="M874.658 729.083L722.901 718.085" stroke="#8712FC" stroke-width="5"/>
<rect x="-0.253537" y="3.52317" width="42.3328" height="42.3327" transform="matrix(0.655197 0.755796 -0.756611 0.653474 925.577 700.464)" stroke="#8712FC" stroke-width="5"/>
<path d="M850.632 604.39L713.756 670.607" stroke="#8712FC" stroke-width="5"/>
<rect x="1.54519" y="3.17906" width="42.3327" height="42.3327" transform="matrix(0.945723 0.327802 -0.327646 0.943823 878.561 553.913)" stroke="#8712FC" stroke-width="5"/>
<path d="M491.806 914.278L577.125 788.588" stroke="#8712FC" stroke-width="5"/>
<path d="M767.379 508.347L682.06 634.037" stroke="#8712FC" stroke-width="5"/>
<path d="M611.979 955.937L622.881 804.453" stroke="#8712FC" stroke-width="5"/>
<rect x="-3.52952" y="-0.255806" width="42.3327" height="42.3327" transform="matrix(-0.756612 0.653474 -0.655197 -0.755796 635.734 1006.07)" stroke="#8712FC" stroke-width="5"/>
<path d="M647.207 466.688L636.306 618.172" stroke="#8712FC" stroke-width="5"/>
<path d="M882.768 981.195L860.792 1000.18L855.3 971.674L882.768 981.195Z" stroke="#DADFEA" stroke-width="5"/>
<path d="M983.928 818.775L974.412 846.188L955.382 824.236L983.928 818.775Z" stroke="#DADFEA" stroke-width="5"/>
<path d="M990.145 627.559L995.638 656.06L968.169 646.539L990.145 627.559Z" stroke="#DADFEA" stroke-width="5"/>
<path d="M713.769 1071.3L685.222 1076.76L694.739 1049.35L713.769 1071.3Z" stroke="#DADFEA" stroke-width="5"/>
</g>
<mask id="mask1_1410_160279" style="mask-type:alpha" maskUnits="userSpaceOnUse" x="-1" y="569" width="574" height="407">
<path d="M167.659 975.657L572.545 569.999L-0.000128658 571.091L167.659 975.657Z" fill="#D9D9D9"/>
</mask>
<g mask="url(#mask1_1410_160279)">
<path d="M655.761 519.432L577.067 636.697L576.27 637.886L576.887 639.176L637.855 766.492L497.182 756.933L495.757 756.836L494.95 758.018L415.326 874.653L353.348 747.828L352.72 746.543L351.295 746.435L210.704 735.753L289.398 618.488L290.195 617.299L289.577 616.009L228.61 488.693L369.282 498.252L370.708 498.349L371.515 497.167L451.138 380.532L513.117 507.357L513.745 508.642L515.17 508.75L655.761 519.432Z" stroke="#FFA900" stroke-width="5"/>
<path d="M446.737 469.723L519.514 378.666L520.315 495.265L520.34 498.899L523.72 497.577L632.168 455.136L574.663 556.56L572.871 559.721L576.457 560.268L691.517 577.816L591.115 636.887L587.985 638.729L590.817 640.999L681.659 713.833L565.262 714.724L561.634 714.752L562.952 718.137L605.235 826.742L504.033 769.214L500.878 767.421L500.33 771.014L482.724 886.289L423.832 785.757L421.997 782.623L419.728 785.462L346.951 876.518L346.151 759.919L346.126 756.285L342.746 757.608L234.298 800.048L291.803 698.625L293.595 695.463L290.009 694.917L174.949 677.369L275.351 618.297L278.48 616.456L275.649 614.186L184.807 541.352L301.204 540.46L304.831 540.432L303.514 537.047L261.231 428.443L362.433 485.97L365.587 487.763L366.136 484.17L383.742 368.896L442.633 469.428L444.469 472.561L446.737 469.723Z" stroke="#DADFEA" stroke-width="5"/>
<path d="M442.199 532.335L484.668 479.2L485.135 547.24L485.16 550.875L488.54 549.552L551.824 524.786L518.267 583.971L516.475 587.132L520.061 587.679L587.204 597.919L528.615 632.39L525.485 634.231L528.317 636.501L581.327 679.003L513.405 679.523L509.777 679.551L511.095 682.936L535.769 746.311L476.713 712.742L473.558 710.949L473.01 714.541L462.736 781.809L428.37 723.144L426.535 720.011L424.266 722.849L381.798 775.984L381.331 707.944L381.306 704.31L377.926 705.633L314.642 730.398L348.198 671.214L349.991 668.052L346.404 667.505L279.262 657.266L337.851 622.795L340.98 620.954L338.149 618.683L285.139 576.182L353.061 575.661L356.689 575.634L355.371 572.249L330.697 508.873L389.753 542.443L392.907 544.236L393.456 540.643L403.73 473.376L438.096 532.04L439.931 535.174L442.199 532.335Z" stroke="#8712FC" stroke-width="5"/>
<path d="M421.678 567.191L434.912 581.153L436.479 582.806L438.268 581.394L453.378 569.472L457.866 588.197L458.397 590.415L460.651 590.088L479.681 587.327L474.219 605.798L473.572 607.985L475.686 608.831L493.538 615.97L479.591 629.238L477.939 630.81L479.347 632.601L491.236 647.728L472.54 652.238L470.326 652.772L470.651 655.029L473.393 674.091L454.958 668.633L452.775 667.987L451.929 670.105L444.788 687.994L431.554 674.032L429.987 672.379L428.198 673.791L413.088 685.713L408.6 666.987L408.069 664.77L405.815 665.097L386.785 667.858L392.247 649.387L392.894 647.199L390.78 646.354L372.928 639.214L386.875 625.946L388.527 624.375L387.119 622.584L375.23 607.457L393.926 602.947L396.14 602.413L395.815 600.156L393.073 581.094L411.508 586.551L413.691 587.198L414.537 585.079L421.678 567.191Z" stroke="#E21B25" stroke-width="5"/>
<path d="M429.168 606.347L435.427 611.333L436.417 612.122L437.639 611.788L445.358 609.679L446.261 617.641L446.403 618.9L447.502 619.529L454.445 623.504L449.462 629.778L448.674 630.77L449.006 631.993L451.106 639.725L443.157 640.635L441.9 640.779L441.271 641.88L437.297 648.838L431.039 643.852L430.048 643.063L428.827 643.397L421.108 645.506L420.205 637.544L420.062 636.285L418.964 635.656L412.021 631.68L417.003 625.407L417.792 624.414L417.459 623.191L415.36 615.46L423.309 614.55L424.566 614.406L425.195 613.305L429.168 606.347Z" stroke="#DADFEA" stroke-width="5"/>
<path d="M653.97 520.313L517.281 586.751" stroke="#8712FC" stroke-width="5"/>
<path d="M212.496 734.871L349.184 668.433" stroke="#8712FC" stroke-width="5"/>
<rect x="-1.54005" y="-3.18342" width="42.3327" height="42.3327" transform="matrix(-0.943823 -0.327646 0.327802 -0.945723 183.751 778.429)" stroke="#8712FC" stroke-width="5"/>
<path d="M295.53 831.018L380.797 705.043" stroke="#8712FC" stroke-width="5"/>
<rect x="-2.92325" y="-1.98433" width="42.3328" height="42.3328" transform="matrix(-0.981275 0.189112 -0.188026 -0.982843 291.234 884.562)" stroke="#8712FC" stroke-width="5"/>
<path d="M415.461 872.658L426.46 720.901" stroke="#8712FC" stroke-width="5"/>
<rect x="-3.52317" y="-0.253537" width="42.3328" height="42.3327" transform="matrix(-0.755796 0.655197 -0.653474 -0.756611 439.142 922.862)" stroke="#8712FC" stroke-width="5"/>
<path d="M540.154 848.632L473.937 711.756" stroke="#8712FC" stroke-width="5"/>
<rect x="-3.17906" y="1.54519" width="42.3327" height="42.3327" transform="matrix(-0.327802 0.945723 -0.943823 -0.327646 587.541 880.493)" stroke="#8712FC" stroke-width="5"/>
<path d="M230.267 489.806L355.956 575.125" stroke="#8712FC" stroke-width="5"/>
<path d="M636.198 765.38L510.508 680.06" stroke="#8712FC" stroke-width="5"/>
<path d="M188.607 609.979L340.091 620.881" stroke="#8712FC" stroke-width="5"/>
<rect x="0.255807" y="-3.52952" width="42.3327" height="42.3327" transform="matrix(-0.653474 -0.756612 0.755796 -0.655197 143.418 634.453)" stroke="#8712FC" stroke-width="5"/>
<path d="M677.857 645.207L526.372 634.306" stroke="#8712FC" stroke-width="5"/>
<path d="M163.349 880.768L144.369 858.792L172.87 853.299L163.349 880.768Z" stroke="#DADFEA" stroke-width="5"/>
<path d="M325.77 981.928L298.357 972.412L320.309 953.382L325.77 981.928Z" stroke="#DADFEA" stroke-width="5"/>
<path d="M516.986 988.145L488.484 993.638L498.005 966.169L516.986 988.145Z" stroke="#DADFEA" stroke-width="5"/>
<path d="M73.2432 711.769L67.782 683.222L95.1954 692.739L73.2432 711.769Z" stroke="#DADFEA" stroke-width="5"/>
</g>
<mask id="mask2_1410_160279" style="mask-type:alpha" maskUnits="userSpaceOnUse" x="168" y="0" width="406" height="573">
<path d="M168.321 167.66L573.979 572.545L572.887 -6.58771e-06L168.321 167.66Z" fill="#D9D9D9"/>
</mask>
<g mask="url(#mask2_1410_160279)">
<path d="M624.546 655.761L507.28 577.067L506.092 576.27L504.802 576.888L377.486 637.855L387.045 497.183L387.142 495.757L385.96 494.95L269.325 415.327L396.15 353.348L397.435 352.72L397.543 351.295L408.225 210.704L525.49 289.398L526.678 290.195L527.969 289.578L655.285 228.61L645.726 369.283L645.629 370.708L646.811 371.515L763.445 451.139L636.621 513.117L635.335 513.745L635.227 515.17L624.546 655.761Z" stroke="#FFA900" stroke-width="5"/>
<path d="M674.255 446.738L765.311 519.515L648.712 520.315L645.078 520.34L646.401 523.72L688.841 632.168L587.418 574.663L584.257 572.871L583.71 576.457L566.162 691.517L507.09 591.115L505.249 587.985L502.979 590.817L430.145 681.659L429.253 565.262L429.226 561.635L425.84 562.952L317.236 605.235L374.763 504.033L376.556 500.878L372.963 500.33L257.689 482.724L358.221 423.832L361.354 421.997L358.516 419.729L267.46 346.951L384.059 346.151L387.693 346.126L386.37 342.746L343.93 234.298L445.353 291.803L448.514 293.595L449.061 290.009L466.609 174.949L525.681 275.351L527.522 278.481L529.792 275.649L602.626 184.807L603.518 301.204L603.545 304.832L606.93 303.514L715.535 261.231L658.008 362.433L656.215 365.588L659.808 366.136L775.082 383.742L674.55 442.634L671.417 444.469L674.255 446.738Z" stroke="#DADFEA" stroke-width="5"/>
<path d="M611.642 442.2L664.777 484.668L596.737 485.135L593.103 485.16L594.426 488.54L619.191 551.824L560.007 518.268L556.845 516.475L556.298 520.062L546.059 587.204L511.588 528.615L509.747 525.486L507.476 528.317L464.975 581.327L464.454 513.405L464.427 509.777L461.042 511.095L397.666 535.769L431.236 476.713L433.029 473.559L429.436 473.01L362.169 462.736L420.833 428.37L423.967 426.535L421.128 424.267L367.993 381.798L436.034 381.331L439.668 381.306L438.345 377.926L413.579 314.642L472.764 348.199L475.925 349.991L476.472 346.405L486.712 279.262L521.183 337.851L523.024 340.981L525.294 338.149L567.796 285.139L568.316 353.061L568.344 356.689L571.729 355.371L635.104 330.697L601.535 389.753L599.742 392.908L603.335 393.456L670.602 403.73L611.937 438.096L608.804 439.931L611.642 442.2Z" stroke="#8712FC" stroke-width="5"/>
<path d="M576.787 421.678L562.825 434.912L561.172 436.479L562.583 438.269L574.505 453.379L555.78 457.866L553.563 458.397L553.89 460.651L556.651 479.681L538.18 474.219L535.992 473.573L535.147 475.687L528.007 493.538L514.739 479.591L513.168 477.939L511.377 479.347L496.249 491.237L491.74 472.541L491.206 470.327L488.949 470.651L469.887 473.393L475.344 454.958L475.99 452.775L473.872 451.929L455.984 444.788L469.945 431.554L471.599 429.987L470.187 428.198L458.265 413.088L476.99 408.601L479.208 408.069L478.881 405.816L476.12 386.785L494.591 392.247L496.778 392.894L497.624 390.78L504.763 372.928L518.031 386.876L519.602 388.527L521.394 387.119L536.521 375.23L541.031 393.926L541.565 396.14L543.822 395.815L562.883 393.073L557.426 411.508L556.78 413.691L558.898 414.537L576.787 421.678Z" stroke="#E21B25" stroke-width="5"/>
<path d="M537.631 429.169L532.645 435.428L531.856 436.418L532.19 437.639L534.299 445.358L526.337 446.261L525.078 446.404L524.449 447.502L520.473 454.445L514.2 449.463L513.207 448.675L511.984 449.007L504.253 451.106L503.343 443.158L503.199 441.9L502.098 441.272L495.14 437.298L500.126 431.039L500.915 430.049L500.581 428.828L498.472 421.108L506.434 420.206L507.693 420.063L508.322 418.964L512.297 412.021L518.571 417.004L519.563 417.792L520.786 417.46L528.518 415.36L529.428 423.309L529.572 424.566L530.673 425.195L537.631 429.169Z" stroke="#DADFEA" stroke-width="5"/>
<path d="M623.664 653.97L557.226 517.281" stroke="#8712FC" stroke-width="5"/>
<path d="M409.107 212.496L475.545 349.185" stroke="#8712FC" stroke-width="5"/>
<rect x="3.18342" y="-1.54005" width="42.3327" height="42.3327" transform="matrix(0.327647 -0.943823 0.945723 0.327802 362.446 187.67)" stroke="#8712FC" stroke-width="5"/>
<path d="M312.959 295.53L438.934 380.797" stroke="#8712FC" stroke-width="5"/>
<rect x="1.98433" y="-2.92325" width="42.3328" height="42.3328" transform="matrix(-0.189111 -0.981275 0.982843 -0.188026 261.267 295.873)" stroke="#8712FC" stroke-width="5"/>
<path d="M271.32 415.461L423.077 426.46" stroke="#8712FC" stroke-width="5"/>
<rect x="0.253537" y="-3.52317" width="42.3328" height="42.3327" transform="matrix(-0.655197 -0.755796 0.756612 -0.653473 226.064 439.86)" stroke="#8712FC" stroke-width="5"/>
<path d="M295.345 540.154L432.221 473.938" stroke="#8712FC" stroke-width="5"/>
<rect x="-1.54519" y="-3.17906" width="42.3327" height="42.3327" transform="matrix(-0.945723 -0.327802 0.327646 -0.943823 266.577 583.618)" stroke="#8712FC" stroke-width="5"/>
<path d="M654.172 230.267L568.852 355.957" stroke="#8712FC" stroke-width="5"/>
<path d="M378.598 636.198L463.917 510.508" stroke="#8712FC" stroke-width="5"/>
<path d="M533.998 188.607L523.097 340.092" stroke="#8712FC" stroke-width="5"/>
<rect x="3.52952" y="0.255807" width="42.3327" height="42.3327" transform="matrix(0.756612 -0.653473 0.655197 0.755796 504.568 142.697)" stroke="#8712FC" stroke-width="5"/>
<path d="M498.771 677.857L509.672 526.373" stroke="#8712FC" stroke-width="5"/>
<path d="M263.21 163.35L285.185 144.37L290.678 172.871L263.21 163.35Z" stroke="#DADFEA" stroke-width="5"/>
<path d="M162.049 325.77L171.566 298.357L190.596 320.309L162.049 325.77Z" stroke="#DADFEA" stroke-width="5"/>
<path d="M155.833 516.986L150.34 488.484L177.808 498.006L155.833 516.986Z" stroke="#DADFEA" stroke-width="5"/>
<path d="M432.209 73.2435L460.755 67.7823L451.239 95.1957L432.209 73.2435Z" stroke="#DADFEA" stroke-width="5"/>
</g>
<mask id="mask3_1410_160279" style="mask-type:alpha" maskUnits="userSpaceOnUse" x="573" y="168" width="573" height="406">
<path d="M977.885 168.321L573 573.979L1145.55 572.887L977.885 168.321Z" fill="#D9D9D9"/>
</mask>
<g mask="url(#mask3_1410_160279)">
<path d="M489.784 624.546L568.478 507.28L569.275 506.092L568.657 504.802L507.69 377.486L648.362 387.045L649.788 387.142L650.595 385.96L730.218 269.325L792.197 396.15L792.825 397.435L794.25 397.543L934.841 408.225L856.147 525.49L855.35 526.678L855.967 527.969L916.935 655.285L776.262 645.726L774.837 645.629L774.03 646.811L694.406 763.445L632.428 636.621L631.8 635.336L630.375 635.227L489.784 624.546Z" stroke="#FFA900" stroke-width="5"/>
<path d="M698.808 674.255L626.03 765.311L625.23 648.712L625.205 645.078L621.825 646.401L513.377 688.841L570.882 587.418L572.674 584.257L569.088 583.71L454.028 566.162L554.43 507.09L557.56 505.249L554.728 502.979L463.886 430.145L580.283 429.253L583.911 429.225L582.593 425.84L540.31 317.236L641.512 374.763L644.667 376.556L645.215 372.963L662.821 257.689L721.713 358.221L723.548 361.354L725.816 358.516L798.594 267.459L799.394 384.058L799.419 387.693L802.799 386.37L911.247 343.929L853.742 445.353L851.95 448.514L855.536 449.061L970.596 466.609L870.194 525.681L867.064 527.522L869.896 529.792L960.738 602.626L844.341 603.518L840.713 603.545L842.031 606.93L884.314 715.535L783.112 658.008L779.957 656.215L779.409 659.807L761.803 775.082L702.911 674.55L701.076 671.417L698.808 674.255Z" stroke="#DADFEA" stroke-width="5"/>
<path d="M703.345 611.642L660.877 664.778L660.41 596.737L660.385 593.103L657.005 594.426L593.721 619.191L627.278 560.007L629.07 556.845L625.484 556.298L558.341 546.059L616.93 511.588L620.059 509.747L617.228 507.477L564.218 464.975L632.14 464.455L635.768 464.427L634.45 461.042L609.776 397.666L668.832 431.236L671.987 433.029L672.535 429.436L682.809 362.169L717.175 420.833L719.01 423.967L721.279 421.129L763.747 367.993L764.214 436.034L764.239 439.668L767.619 438.345L830.903 413.579L797.347 472.764L795.554 475.925L799.14 476.472L866.283 486.712L807.694 521.183L804.565 523.024L807.396 525.294L860.406 567.796L792.484 568.316L788.856 568.344L790.174 571.729L814.848 635.104L755.792 601.535L752.638 599.742L752.089 603.335L741.815 670.602L707.449 611.937L705.614 608.804L703.345 611.642Z" stroke="#8712FC" stroke-width="5"/>
<path d="M723.867 576.787L710.633 562.825L709.066 561.172L707.277 562.584L692.167 574.506L687.679 555.78L687.148 553.563L684.894 553.89L665.864 556.651L671.326 538.18L671.972 535.992L669.858 535.147L652.007 528.007L665.954 514.739L667.606 513.168L666.198 511.377L654.309 496.25L673.004 491.74L675.218 491.206L674.894 488.949L672.152 469.887L690.587 475.344L692.77 475.991L693.616 473.872L700.757 455.984L713.991 469.946L715.558 471.599L717.347 470.187L732.457 458.265L736.945 476.99L737.476 479.208L739.73 478.881L758.76 476.12L753.298 494.591L752.651 496.778L754.765 497.624L772.617 504.763L758.67 518.031L757.018 519.603L758.426 521.394L770.315 536.521L751.619 541.031L749.405 541.565L749.73 543.822L752.472 562.884L734.037 557.426L731.854 556.78L731.008 558.898L723.867 576.787Z" stroke="#E21B25" stroke-width="5"/>
<path d="M716.376 537.631L710.117 532.645L709.127 531.856L707.906 532.19L700.187 534.299L699.284 526.337L699.141 525.078L698.043 524.449L691.1 520.473L696.082 514.2L696.87 513.207L696.538 511.984L694.439 504.253L702.387 503.343L703.645 503.199L704.273 502.098L708.247 495.14L714.506 500.126L715.496 500.915L716.717 500.581L724.437 498.472L725.339 506.434L725.482 507.693L726.581 508.322L733.524 512.297L728.541 518.571L727.753 519.563L728.085 520.786L730.185 528.518L722.236 529.428L720.979 529.572L720.35 530.673L716.376 537.631Z" stroke="#DADFEA" stroke-width="5"/>
<path d="M491.575 623.664L628.264 557.226" stroke="#8712FC" stroke-width="5"/>
<path d="M933.049 409.107L796.361 475.545" stroke="#8712FC" stroke-width="5"/>
<rect x="1.54005" y="3.18342" width="42.3327" height="42.3327" transform="matrix(0.943823 0.327646 -0.327802 0.945723 960.974 358.518)" stroke="#8712FC" stroke-width="5"/>
<path d="M850.015 312.959L764.748 438.934" stroke="#8712FC" stroke-width="5"/>
<rect x="2.92326" y="1.98433" width="42.3328" height="42.3328" transform="matrix(0.981275 -0.189112 0.188027 0.982843 847.828 256.621)" stroke="#8712FC" stroke-width="5"/>
<path d="M730.084 271.319L719.085 423.076" stroke="#8712FC" stroke-width="5"/>
<rect x="3.52317" y="0.253536" width="42.3328" height="42.3327" transform="matrix(0.755796 -0.655197 0.653474 0.756611 700.746 225.349)" stroke="#8712FC" stroke-width="5"/>
<path d="M605.391 295.345L671.607 432.221" stroke="#8712FC" stroke-width="5"/>
<rect x="3.17906" y="-1.54519" width="42.3327" height="42.3327" transform="matrix(0.327802 -0.945723 0.943823 0.327646 558.837 270.51)" stroke="#8712FC" stroke-width="5"/>
<path d="M915.278 654.172L789.589 568.852" stroke="#8712FC" stroke-width="5"/>
<path d="M509.347 378.598L635.037 463.917" stroke="#8712FC" stroke-width="5"/>
<path d="M956.938 533.998L805.454 523.097" stroke="#8712FC" stroke-width="5"/>
<rect x="-0.255806" y="3.52952" width="42.3327" height="42.3327" transform="matrix(0.653474 0.756612 -0.755796 0.655197 1007.8 505.287)" stroke="#8712FC" stroke-width="5"/>
<path d="M467.688 498.771L619.172 509.672" stroke="#8712FC" stroke-width="5"/>
<path d="M982.195 263.21L1001.18 285.186L972.674 290.678L982.195 263.21Z" stroke="#DADFEA" stroke-width="5"/>
<path d="M819.775 162.049L847.188 171.566L825.236 190.596L819.775 162.049Z" stroke="#DADFEA" stroke-width="5"/>
<path d="M628.559 155.833L657.061 150.34L647.54 177.809L628.559 155.833Z" stroke="#DADFEA" stroke-width="5"/>
<path d="M1072.3 432.209L1077.76 460.756L1050.35 451.239L1072.3 432.209Z" stroke="#DADFEA" stroke-width="5"/>
</g>
</svg>
