<svg width="100" height="100" viewBox="0 0 100 100" fill="none" xmlns="http://www.w3.org/2000/svg">
<path d="M34.25 72.9245L36.2136 70.0823C39.567 65.2319 42.9207 60.3817 46.2747 55.5319C49.5937 50.735 52.9138 45.9359 56.2351 41.1346C61.2934 33.823 66.3511 26.5104 71.4081 19.1969C72.0599 18.2541 72.729 17.3242 73.3635 16.3695C73.5451 16.0927 73.7394 15.9922 74.0634 16.0005C75.0856 16.0217 75.0856 16.0088 75.0856 17.0244C75.0856 31.9626 75.0856 46.9008 75.0856 61.839C75.0856 62.5769 75.0048 62.4755 75.7111 62.4773C77.7528 62.4773 79.7962 62.4847 81.836 62.4727C82.1392 62.4727 82.2509 62.5345 82.25 62.8712C82.2373 66.0833 82.2373 69.2954 82.25 72.5075C82.25 72.8765 82.1293 72.9328 81.807 72.931C79.7354 72.9171 77.6638 72.9374 75.5913 72.9125C75.1555 72.907 75.0738 73.0509 75.0756 73.4568C75.0902 76.8073 75.0756 80.1568 75.092 83.5073C75.092 83.8818 75.0085 84.0036 74.6208 83.9999C72.1704 83.9827 69.7193 83.9827 67.2676 83.9999C66.8945 83.9999 66.7874 83.9077 66.7892 83.5174C66.8047 80.1522 66.7892 76.7833 66.8083 73.4208C66.8083 73.0094 66.6985 72.9153 66.3027 72.9153C55.7921 72.9276 45.2813 72.9313 34.7702 72.9264L34.25 72.9245ZM66.9154 45.7941C66.8836 43.7065 66.9263 41.618 66.8246 39.5304C66.7638 38.2112 66.7139 36.893 66.5142 35.5877C66.476 35.3405 66.4924 34.9881 66.2418 34.8958C65.9913 34.8036 65.7997 35.0978 65.6191 35.2648C64.31 36.4991 63.1335 37.8616 61.967 39.2315C57.9309 43.9731 54.0891 48.8688 50.6358 54.0688C49.4185 55.9027 48.2419 57.7588 47.4304 59.8316C46.7495 61.5696 47.089 62.3353 48.8338 62.945C50.7756 63.624 52.8064 63.695 54.8253 63.7347C57.0762 63.7697 59.3263 63.6247 61.5549 63.3011C62.8403 63.1166 64.1158 62.8869 65.3513 62.4561C66.0049 62.2282 66.2945 61.8104 66.3671 61.1102C66.604 58.8492 66.6948 56.5808 66.772 54.3114C66.8737 51.4766 66.9363 48.6354 66.9154 45.7941Z" fill="#112233"/>
<path d="M59.2975 81.0981C59.912 79.1941 60.5284 77.3131 61.1182 75.4235C61.2159 75.1132 61.3319 74.9982 61.6515 75.0011C62.8961 75.0116 62.8687 75.0011 63.0614 76.2749C63.4266 78.6645 63.8174 81.0483 64.2028 83.434C64.2941 83.9904 64.3023 83.9885 63.7645 83.9904C62.6687 83.9952 62.6815 83.9904 62.5098 82.8689C62.3044 81.5175 62.0779 80.17 61.8588 78.8206C61.8348 78.7419 61.8042 78.6656 61.7675 78.5926C61.5072 79.0638 61.4214 79.5437 61.2716 79.9938C60.8699 81.1954 60.4848 82.4031 60.1165 83.6169C60.0252 83.9109 59.8901 84 59.5988 84C58.5204 83.9943 58.525 84 58.1889 82.9379C57.7689 81.6085 57.3446 80.2805 56.9161 78.9537C56.8804 78.8435 56.8247 78.7392 56.727 78.515C56.5088 79.8281 56.3125 81.0119 56.1152 82.1947C56.034 82.6802 55.9326 83.1629 55.8751 83.6523C55.8422 83.954 55.7071 84.0172 55.4569 83.9943C55.2743 83.978 55.0916 83.9943 54.909 83.9943C54.1886 83.9943 54.1895 83.9943 54.31 83.2702C54.7355 80.6987 55.1693 78.1281 55.5783 75.5537C55.6459 75.1266 55.792 74.9858 56.2175 75.0011C57.2795 75.0385 57.2831 75.0126 57.6237 76.0766C58.0967 77.5554 58.5624 79.038 59.0372 80.5167C59.0993 80.7006 59.1222 80.9151 59.2975 81.0981Z" fill="#112233"/>
<path d="M48.2571 79.4788C48.2571 78.1301 48.2656 76.7815 48.2509 75.4338C48.2509 75.1011 48.3283 74.9963 48.5961 75.0001C49.6912 75.0163 50.7863 75.0144 51.8814 75.0001C52.1136 75.0001 52.2514 75.0392 52.2165 75.3813C52.1747 75.7998 52.3605 76.3449 52.1391 76.6118C51.9348 76.8558 51.5006 76.6738 51.1686 76.6823C50.7561 76.6928 50.3436 76.6976 49.9303 76.6823C49.7075 76.6728 49.6517 76.7777 49.6448 77.0379C49.6138 78.295 49.6076 78.2941 50.6284 78.295C51.0541 78.295 51.4797 78.3084 51.9039 78.2893C52.1306 78.2798 52.2134 78.3522 52.2212 78.6543C52.2436 79.9268 52.2521 79.9268 51.2151 79.9268C50.7894 79.9268 50.3637 79.9382 49.9396 79.9268C49.7307 79.9191 49.637 79.9859 49.6448 80.2689C49.6602 80.8074 49.661 81.3479 49.6448 81.8892C49.6355 82.2009 49.7523 82.259 49.9698 82.2552C50.6013 82.2447 51.2329 82.2657 51.8636 82.2457C52.1237 82.2371 52.2506 82.3105 52.2165 82.6613C52.1802 83.0673 52.352 83.5915 52.1484 83.8565C51.9449 84.1214 51.5146 83.9375 51.1849 83.9422C50.322 83.9556 49.4582 83.9346 48.5961 83.9556C48.3213 83.9623 48.2463 83.8603 48.2501 83.5267C48.2648 82.179 48.2556 80.8294 48.2556 79.4807L48.2571 79.4788Z" fill="#112233"/>
<path d="M20.7581 83.9916C19.6443 84.0788 18.8848 83.4776 18.339 82.4835C18.2164 82.2623 18.1908 82.0915 18.4557 81.9814C18.5193 81.948 18.5802 81.909 18.6379 81.8648C18.8933 81.7005 19.1403 81.4251 19.4042 81.4058C19.6869 81.3829 19.7448 81.8382 19.9509 82.0319C20.2063 82.265 20.4617 82.4752 20.8168 82.4541C21.1719 82.433 21.4844 82.31 21.6453 81.9263C21.7977 81.5591 21.6393 81.2773 21.4256 81.0148C20.9846 80.4714 20.426 80.0675 19.9398 79.5792C19.664 79.3159 19.4022 79.0361 19.1556 78.7411C18.4812 77.8929 18.3799 76.9052 18.8576 76.0745C19.3276 75.2576 20.3477 74.839 21.28 75.0575C21.9663 75.219 22.4721 75.666 22.9336 76.1975C23.0886 76.3747 23.0358 76.4784 22.8953 76.606C22.6466 76.8327 22.3921 77.0549 22.163 77.3036C21.9927 77.4872 21.8939 77.4349 21.7628 77.2596C21.4903 76.8924 21.1753 76.5968 20.6959 76.617C20.449 76.6271 20.2429 76.7327 20.1322 76.9622C20.0122 77.2137 20.1322 77.434 20.2949 77.6231C20.7751 78.1665 21.3277 78.6218 21.8488 79.1156C22.0617 79.3166 22.2746 79.5149 22.4746 79.7352C23.2069 80.5613 23.476 81.5279 23.04 82.5946C22.6177 83.6272 21.8113 84.0632 20.7581 83.9916Z" fill="#112233"/>
<path d="M36.2862 83.9891C34.9408 84.0901 34.0228 83.4806 33.3491 82.4747C33.1937 82.2425 33.2049 82.0837 33.4993 81.9745C33.5596 81.9475 33.6176 81.9169 33.6731 81.8827C33.9798 81.7175 34.2691 81.4513 34.5932 81.4118C34.9837 81.3632 35.0113 81.8515 35.2904 82.0305C35.5521 82.1975 35.7771 82.4095 36.1246 82.4407C36.6205 82.4857 37.0447 82.3893 37.3003 81.9717C37.5559 81.5541 37.3228 81.2154 37.0079 80.9465C36.4548 80.4729 35.8629 80.036 35.2843 79.5872C34.904 79.3051 34.5569 78.9886 34.2487 78.6427C33.5218 77.791 33.4257 76.8796 33.9706 76.0875C34.5155 75.2954 35.6452 74.8787 36.7176 75.0311C37.6377 75.1605 38.2899 75.6405 38.8941 76.2188C39.027 76.3463 39.0413 76.4436 38.8838 76.5565C38.7653 76.6428 38.6579 76.7401 38.5424 76.8319C38.2868 77.032 38.0578 77.3339 37.7634 77.4028C37.4363 77.478 37.3545 77.0209 37.0641 76.8869C36.8535 76.7896 36.6705 76.6455 36.4242 76.6254C36.0705 76.5978 35.73 76.6254 35.5327 76.9411C35.3354 77.2568 35.5532 77.5074 35.7903 77.7038C36.3649 78.1792 36.9629 78.6317 37.5487 79.0962C37.8155 79.3082 38.0885 79.5174 38.3338 79.7487C39.2304 80.5913 39.5218 81.5752 38.9707 82.65C38.4637 83.6403 37.5211 84.058 36.2862 83.9891Z" fill="#112233"/>
<path d="M28.8037 78.1482C29.2833 77.2508 29.7718 76.3582 30.2348 75.4541C30.3851 75.161 30.5709 75.0254 30.9228 75.0557C31.2499 75.0805 31.5786 75.0805 31.9057 75.0557C32.289 75.0311 32.3215 75.1449 32.1534 75.4551C31.372 76.896 30.6132 78.3483 29.8347 79.7902C29.6959 80.0402 29.6262 80.3205 29.6322 80.6041C29.644 81.5679 29.6263 82.5326 29.647 83.4964C29.6539 83.8294 29.588 84.0087 29.1949 83.9584C28.7634 83.9043 28.1834 84.1434 27.9328 83.8531C27.7205 83.6065 27.863 83.0705 27.8561 82.6617C27.8502 82.2822 27.8158 81.9028 27.863 81.5233C27.9908 80.5007 27.6546 79.6157 27.1396 78.7439C26.5086 77.6739 25.9552 76.5621 25.3527 75.476C25.1767 75.1601 25.2062 75.106 25.6043 75.0415C26.715 74.8632 27.3627 75.2568 27.7372 76.2747C27.9692 76.9084 28.3722 77.4832 28.7014 78.0827C28.7093 78.1112 28.7506 78.1197 28.8037 78.1482Z" fill="#112233"/>
<path d="M42.5266 80.2765C42.5266 79.2442 42.5175 78.2129 42.5319 77.1807C42.5365 76.8496 42.4893 76.6769 42.1834 76.7036C41.8973 76.7323 41.5062 76.8362 41.3464 76.6531C41.1531 76.4327 41.3167 75.9337 41.2794 75.5607C41.2376 75.14 41.3418 74.9883 41.7033 75.0007C42.7534 75.0331 43.805 75.0303 44.8559 75.0007C45.1838 74.9912 45.2744 75.1257 45.2447 75.5092C45.2279 75.8269 45.2279 76.1456 45.2447 76.4632C45.2508 76.6722 45.1937 76.7208 45.0256 76.7218C44.677 76.7218 44.2212 76.5138 44.0097 76.8172C43.7981 77.1205 43.9526 77.6701 43.9511 78.1127C43.945 79.9063 43.9427 81.6999 43.9511 83.4935C43.9511 83.8274 43.9108 84.0096 43.6049 83.9581C43.2594 83.8989 42.812 84.1489 42.5882 83.8493C42.3851 83.5736 42.5304 83.0288 42.5258 82.6034C42.5175 81.8258 42.5258 81.0473 42.5258 80.2698L42.5266 80.2765Z" fill="#112233"/>
</svg>
