<svg width="245" height="195" viewBox="0 0 245 195" fill="none" xmlns="http://www.w3.org/2000/svg">
<g opacity="0.5">
<ellipse cx="167.26" cy="5.67685" rx="3.43467" ry="3.43467" fill="white"/>
<ellipse cx="8.97031" cy="11.1261" rx="3.43467" ry="3.43467" fill="white"/>
<circle cx="17.5572" cy="45.4698" r="3.43467" fill="white"/>
<ellipse cx="50.1866" cy="60.9269" rx="3.43468" ry="3.43467" fill="white"/>
<circle cx="89.6852" cy="72.9464" r="3.43467" fill="white"/>
<ellipse cx="105.436" cy="103.564" rx="3.43467" ry="3.43467" fill="white"/>
<circle cx="113.728" cy="54.0558" r="3.43467" fill="white"/>
<circle cx="142.922" cy="55.7745" r="3.43467" fill="white"/>
<circle cx="166.965" cy="66.0792" r="3.43467" fill="white"/>
<ellipse cx="184.434" cy="82.0792" rx="3.43467" ry="3.43467" fill="white"/>
<ellipse cx="199.172" cy="96.6964" rx="3.43467" ry="3.43467" fill="white"/>
<ellipse cx="220.531" cy="106.185" rx="3.43467" ry="3.43467" fill="white"/>
<ellipse cx="232.519" cy="120.064" rx="3.43467" ry="3.43467" fill="white"/>
<ellipse cx="239.388" cy="134.544" rx="3.43467" ry="3.43467" fill="white"/>
<ellipse cx="232.519" cy="152.099" rx="3.43467" ry="3.43467" fill="white"/>
<ellipse cx="206.034" cy="150.864" rx="3.43467" ry="3.43467" fill="white"/>
<ellipse cx="212.783" cy="175.692" rx="3.43467" ry="3.43467" fill="white"/>
<circle cx="180.999" cy="191.067" r="3.43467" fill="white"/>
<ellipse cx="176.491" cy="173.978" rx="3.43467" ry="3.43467" fill="white"/>
<circle cx="153.434" cy="173.978" r="3.43467" fill="white"/>
<circle cx="120.161" cy="173.978" r="3.43467" fill="white"/>
<circle cx="99.5465" cy="162.341" r="3.43467" fill="white"/>
<circle cx="9.26572" cy="144.06" r="3.43467" fill="white"/>
<circle cx="3.95273" cy="123.317" r="3.43467" fill="white"/>
<ellipse cx="3.95273" cy="92.4034" rx="3.43467" ry="3.43467" fill="white"/>
</g>
</svg>
