<svg width="260" height="200" viewBox="0 0 260 200" fill="none" xmlns="http://www.w3.org/2000/svg">
<path d="M5.16406 14.0465H6.17606L8.78306 6.26953H7.77106L5.16406 14.0465Z" fill="white"/>
<path d="M9.59818 10.1635C9.59818 12.0555 10.5332 13.9585 12.6342 13.9585C14.7242 13.9585 15.6702 12.0555 15.6702 10.1635C15.6702 8.27153 14.7242 6.37953 12.6342 6.37953C10.5332 6.37953 9.59818 8.27153 9.59818 10.1635ZM14.0752 10.1635C14.0752 11.5165 13.6792 12.5725 12.6342 12.5725C11.5782 12.5725 11.1822 11.5165 11.1822 10.1635C11.1822 8.81053 11.5782 7.76553 12.6342 7.76553C13.6792 7.76553 14.0752 8.81053 14.0752 10.1635Z" fill="white"/>
<path d="M16.8595 10.1745C16.8595 12.2425 17.7945 13.9585 20.0275 13.9585C21.6995 13.9585 22.8325 12.8695 22.8325 11.4395C22.8325 9.87753 21.6555 9.07453 20.3355 9.07453C19.5325 9.07453 18.7955 9.51453 18.4545 10.0095C18.4435 9.96553 18.4435 9.91053 18.4435 9.85553C18.4435 8.68953 19.1695 7.73253 20.2805 7.73253C20.9295 7.73253 21.3475 7.94153 21.7435 8.31553L22.4475 7.13853C21.9195 6.68753 21.1715 6.37953 20.2805 6.37953C18.1135 6.37953 16.8595 7.95253 16.8595 10.1745ZM21.2485 11.5055C21.2485 12.0225 20.7975 12.5945 19.9505 12.5945C18.9165 12.5945 18.5205 11.7805 18.4545 11.0765C18.8065 10.6475 19.3345 10.3725 19.8845 10.3725C20.5995 10.3725 21.2485 10.7135 21.2485 11.5055Z" fill="white"/>
<path d="M16.1838 50.2926H17.1958L19.8028 42.5156H18.7908L16.1838 50.2926Z" fill="white"/>
<path d="M21.575 50.0726H23.291L26.019 43.8246V42.7356H20.508V44.1106H24.204L21.575 50.0726Z" fill="white"/>
<path d="M28.0091 50.0726H29.7251L32.4531 43.8246V42.7356H26.9421V44.1106H30.6381L28.0091 50.0726Z" fill="white"/>
<path d="M46.8711 65.5504H47.8831L50.4901 57.7734H49.4781L46.8711 65.5504Z" fill="white"/>
<path d="M51.6682 64.6924C52.1852 65.1544 52.9332 65.4514 53.8242 65.4514C55.9912 65.4514 57.2342 63.8784 57.2342 61.6674C57.2342 59.5884 56.2992 57.8724 54.0772 57.8724C52.4052 57.8724 51.2612 58.9614 51.2612 60.3914C51.2612 61.9534 52.4492 62.7674 53.7692 62.7674C54.5722 62.7674 55.3092 62.3164 55.6612 61.8214V61.9754C55.6612 63.0864 55.0012 64.0874 53.8242 64.0874C53.1752 64.0874 52.7572 63.8894 52.3612 63.5264L51.6682 64.6924ZM55.6502 60.7654C55.2982 61.1944 54.7592 61.4474 54.2092 61.4474C53.5052 61.4474 52.8562 61.1064 52.8562 60.3254C52.8562 59.8084 53.3072 59.2254 54.1432 59.2254C55.1882 59.2254 55.5842 60.0614 55.6502 60.7654Z" fill="white"/>
<path d="M58.4376 61.6784C58.4376 63.7464 59.3726 65.4624 61.6056 65.4624C63.2776 65.4624 64.4106 64.3734 64.4106 62.9434C64.4106 61.3814 63.2336 60.5784 61.9136 60.5784C61.1106 60.5784 60.3736 61.0184 60.0326 61.5134C60.0216 61.4694 60.0216 61.4144 60.0216 61.3594C60.0216 60.1934 60.7476 59.2364 61.8586 59.2364C62.5076 59.2364 62.9256 59.4454 63.3216 59.8194L64.0256 58.6424C63.4976 58.1914 62.7496 57.8834 61.8586 57.8834C59.6916 57.8834 58.4376 59.4564 58.4376 61.6784ZM62.8266 63.0094C62.8266 63.5264 62.3756 64.0984 61.5286 64.0984C60.4946 64.0984 60.0986 63.2844 60.0326 62.5804C60.3846 62.1514 60.9126 61.8764 61.4626 61.8764C62.1776 61.8764 62.8266 62.2174 62.8266 63.0094Z" fill="white"/>
<path d="M0.941406 98.5036H1.95341L4.56041 90.7266H3.54841L0.941406 98.5036Z" fill="white"/>
<path d="M6.33252 98.2836H8.04852L10.7765 92.0356V90.9466H5.26552V92.3216H8.96152L6.33252 98.2836Z" fill="white"/>
<path d="M11.9747 97.3156C12.6017 97.9976 13.5257 98.4156 14.8017 98.4156C16.5727 98.4156 17.7387 97.4366 17.7387 95.8856C17.7387 94.4006 16.6277 93.5096 15.3847 93.5096C14.7137 93.5096 14.1197 93.7846 13.7347 94.1256V92.2886H17.2437V90.9466H12.2057V95.1376L13.2947 95.4346C13.7347 95.0166 14.2297 94.8296 14.8347 94.8296C15.6707 94.8296 16.1547 95.2806 16.1547 95.9516C16.1547 96.5566 15.6597 97.0516 14.7907 97.0516C14.0207 97.0516 13.3387 96.7766 12.8327 96.2596L11.9747 97.3156Z" fill="white"/>
<path d="M7.00781 152.047H8.01981L10.6268 144.27H9.61481L7.00781 152.047Z" fill="white"/>
<path d="M12.3989 151.827H14.1149L16.8429 145.579V144.49H11.3319V145.865H15.0279L12.3989 151.827Z" fill="white"/>
<path d="M21.2861 151.827H22.8481V150.309H23.7941V148.934H22.8481V144.49H20.6921L17.7771 149.077V150.309H21.2861V151.827ZM21.2861 145.876V148.934H19.3061L21.2861 145.876Z" fill="white"/>
<path d="M5.50806 130.14H6.52006L9.12706 122.363H8.11506L5.50806 130.14Z" fill="white"/>
<path d="M10.8992 129.92H12.6152L15.3432 123.672V122.583H9.83217V123.958H13.5282L10.8992 129.92Z" fill="white"/>
<path d="M89.2314 78.8265H94.7534V77.4515H91.6954C93.6644 76.0655 94.6984 74.9765 94.6984 73.7225C94.6984 72.2595 93.4554 71.3795 91.8934 71.3795C90.8704 71.3795 89.7814 71.7535 89.0664 72.5785L89.9574 73.6125C90.4524 73.0955 91.0904 72.7655 91.9154 72.7655C92.5314 72.7655 93.1144 73.0845 93.1144 73.7225C93.1144 74.6245 92.2344 75.3835 89.2314 77.5945L89.2314 78.8265Z" fill="white"/>
<path d="M95.7501 79.0465H96.7621L99.3691 71.2695H98.3571L95.7501 79.0465Z" fill="white"/>
<path d="M100.184 75.1635C100.184 77.0555 101.119 78.9585 103.22 78.9585C105.31 78.9585 106.256 77.0555 106.256 75.1635C106.256 73.2715 105.31 71.3795 103.22 71.3795C101.119 71.3795 100.184 73.2715 100.184 75.1635ZM104.661 75.1635C104.661 76.5165 104.265 77.5725 103.22 77.5725C102.164 77.5725 101.768 76.5165 101.768 75.1635C101.768 73.8105 102.164 72.7655 103.22 72.7655C104.265 72.7655 104.661 73.8105 104.661 75.1635Z" fill="white"/>
<path d="M109.625 110.218H110.637L113.244 102.441H112.232L109.625 110.218Z" fill="white"/>
<path d="M114.422 109.36C114.939 109.822 115.687 110.119 116.578 110.119C118.745 110.119 119.988 108.546 119.988 106.335C119.988 104.256 119.053 102.54 116.831 102.54C115.159 102.54 114.015 103.629 114.015 105.059C114.015 106.621 115.203 107.435 116.523 107.435C117.326 107.435 118.063 106.984 118.415 106.489V106.643C118.415 107.754 117.755 108.755 116.578 108.755C115.929 108.755 115.511 108.557 115.115 108.194L114.422 109.36ZM118.404 105.433C118.052 105.862 117.513 106.115 116.963 106.115C116.259 106.115 115.61 105.774 115.61 104.993C115.61 104.476 116.061 103.893 116.897 103.893C117.942 103.893 118.338 104.729 118.404 105.433Z" fill="white"/>
<path d="M113.594 58.2854C114.133 58.9454 115.134 59.4624 116.487 59.4624C118.247 59.4624 119.38 58.5714 119.38 57.3064C119.38 56.2064 118.412 55.6234 117.664 55.5464C118.478 55.4034 119.27 54.7984 119.27 53.8744C119.27 52.6534 118.214 51.8834 116.498 51.8834C115.211 51.8834 114.287 52.3784 113.693 53.0494L114.463 54.0174C114.98 53.5224 115.629 53.2474 116.333 53.2474C117.103 53.2474 117.697 53.5444 117.697 54.1274C117.697 54.6774 117.158 54.9414 116.344 54.9414C116.069 54.9414 115.563 54.9414 115.431 54.9304V56.2944C115.541 56.2834 116.036 56.2834 116.344 56.2834C117.367 56.2834 117.818 56.5584 117.818 57.1524C117.818 57.7134 117.323 58.0984 116.432 58.0984C115.717 58.0984 114.914 57.7904 114.408 57.2624L113.594 58.2854Z" fill="white"/>
<path d="M120.27 59.5504H121.282L123.889 51.7734H122.877L120.27 59.5504Z" fill="white"/>
<path d="M124.704 55.6674C124.704 57.5594 125.639 59.4624 127.74 59.4624C129.83 59.4624 130.776 57.5594 130.776 55.6674C130.776 53.7754 129.83 51.8834 127.74 51.8834C125.639 51.8834 124.704 53.7754 124.704 55.6674ZM129.181 55.6674C129.181 57.0204 128.785 58.0764 127.74 58.0764C126.684 58.0764 126.288 57.0204 126.288 55.6674C126.288 54.3144 126.684 53.2694 127.74 53.2694C128.785 53.2694 129.181 54.3144 129.181 55.6674Z" fill="white"/>
<path d="M148.201 60.8265H149.763L149.763 59.3085H150.709V57.9335H149.763V53.4895H147.607L144.692 58.0765L144.692 59.3085H148.201V60.8265ZM148.201 54.8755L148.201 57.9335H146.221L148.201 54.8755Z" fill="white"/>
<path d="M151.42 61.0465H152.432L155.039 53.2695H154.027L151.42 61.0465Z" fill="white"/>
<path d="M155.854 57.1635C155.854 59.0555 156.789 60.9585 158.89 60.9585C160.98 60.9585 161.926 59.0555 161.926 57.1635C161.926 55.2715 160.98 53.3795 158.89 53.3795C156.789 53.3795 155.854 55.2715 155.854 57.1635ZM160.331 57.1635C160.331 58.5165 159.935 59.5725 158.89 59.5725C157.834 59.5725 157.438 58.5165 157.438 57.1635C157.438 55.8105 157.834 54.7655 158.89 54.7655C159.935 54.7655 160.331 55.8105 160.331 57.1635Z" fill="white"/>
<path d="M169.117 70.3624C169.744 71.0444 170.668 71.4624 171.944 71.4624C173.715 71.4624 174.881 70.4834 174.881 68.9324C174.881 67.4474 173.77 66.5564 172.527 66.5564C171.856 66.5564 171.262 66.8314 170.877 67.1724V65.3354H174.386V63.9934H169.348L169.348 68.1844L170.437 68.4814C170.877 68.0634 171.372 67.8764 171.977 67.8764C172.813 67.8764 173.297 68.3274 173.297 68.9984C173.297 69.6034 172.802 70.0984 171.933 70.0984C171.163 70.0984 170.481 69.8234 169.975 69.3064L169.117 70.3624Z" fill="white"/>
<path d="M175.711 71.5504H176.723L179.33 63.7734H178.318L175.711 71.5504Z" fill="white"/>
<path d="M180.145 67.6674C180.145 69.5594 181.08 71.4624 183.181 71.4624C185.271 71.4624 186.217 69.5594 186.217 67.6674C186.217 65.7754 185.271 63.8834 183.181 63.8834C181.08 63.8834 180.145 65.7754 180.145 67.6674ZM184.622 67.6674C184.622 69.0204 184.226 70.0764 183.181 70.0764C182.125 70.0764 181.729 69.0204 181.729 67.6674C181.729 66.3144 182.125 65.2694 183.181 65.2694C184.226 65.2694 184.622 66.3144 184.622 67.6674Z" fill="white"/>
<path d="M186.879 84.1042C186.879 86.1722 187.814 87.8882 190.047 87.8882C191.719 87.8882 192.852 86.7992 192.852 85.3692C192.852 83.8072 191.675 83.0042 190.355 83.0042C189.552 83.0042 188.815 83.4442 188.474 83.9392C188.463 83.8952 188.463 83.8402 188.463 83.7852C188.463 82.6192 189.189 81.6622 190.3 81.6622C190.949 81.6622 191.367 81.8712 191.763 82.2452L192.467 81.0682C191.939 80.6172 191.191 80.3092 190.3 80.3092C188.133 80.3092 186.879 81.8822 186.879 84.1042ZM191.268 85.4352C191.268 85.9522 190.817 86.5242 189.97 86.5242C188.936 86.5242 188.54 85.7102 188.474 85.0062C188.826 84.5772 189.354 84.3022 189.904 84.3022C190.619 84.3022 191.268 84.6432 191.268 85.4352Z" fill="white"/>
<path d="M193.637 87.9762H194.649L197.256 80.1992H196.244L193.637 87.9762Z" fill="white"/>
<path d="M198.071 84.0932C198.071 85.9852 199.006 87.8882 201.107 87.8882C203.197 87.8882 204.143 85.9852 204.143 84.0932C204.143 82.2012 203.197 80.3092 201.107 80.3092C199.006 80.3092 198.071 82.2012 198.071 84.0932ZM202.548 84.0932C202.548 85.4462 202.152 86.5022 201.107 86.5022C200.051 86.5022 199.655 85.4462 199.655 84.0932C199.655 82.7402 200.051 81.6952 201.107 81.6952C202.152 81.6952 202.548 82.7402 202.548 84.0932Z" fill="white"/>
<path d="M202.883 102.541H204.599L207.327 96.2934V95.2044H201.816L201.816 96.5794H205.512L202.883 102.541Z" fill="white"/>
<path d="M207.987 102.761H208.999L211.606 94.9844H210.594L207.987 102.761Z" fill="white"/>
<path d="M212.421 98.8784C212.421 100.77 213.356 102.673 215.457 102.673C217.547 102.673 218.493 100.77 218.493 98.8784C218.493 96.9864 217.547 95.0944 215.457 95.0944C213.356 95.0944 212.421 96.9864 212.421 98.8784ZM216.898 98.8784C216.898 100.231 216.502 101.287 215.457 101.287C214.401 101.287 214.005 100.231 214.005 98.8784C214.005 97.5254 214.401 96.4804 215.457 96.4804C216.502 96.4804 216.898 97.5254 216.898 98.8784Z" fill="white"/>
<path d="M223.312 109.924C223.312 111.299 224.72 111.959 226.26 111.959C227.801 111.959 229.209 111.288 229.209 109.924C229.209 109.033 228.505 108.351 227.625 108.043C228.439 107.757 229.088 107.229 229.088 106.316C229.088 104.941 227.614 104.38 226.261 104.38C224.897 104.38 223.434 104.941 223.434 106.316C223.434 107.229 224.072 107.757 224.886 108.043C224.006 108.351 223.313 109.033 223.312 109.924ZM227.493 106.558C227.493 107.13 226.712 107.383 226.261 107.449C225.81 107.383 225.018 107.13 225.018 106.558C225.018 106.041 225.535 105.722 226.261 105.722C226.976 105.722 227.493 106.041 227.493 106.558ZM227.625 109.737C227.625 110.276 227.009 110.617 226.26 110.617C225.491 110.617 224.897 110.276 224.897 109.737C224.897 109.099 225.799 108.791 226.26 108.736C226.712 108.791 227.625 109.099 227.625 109.737Z" fill="white"/>
<path d="M230.038 112.047H231.05L233.657 104.27H232.645L230.038 112.047Z" fill="white"/>
<path d="M234.473 108.164C234.473 110.056 235.408 111.959 237.509 111.959C239.599 111.959 240.545 110.056 240.545 108.164C240.545 106.272 239.599 104.38 237.509 104.38C235.408 104.38 234.473 106.272 234.473 108.164ZM238.95 108.164C238.95 109.517 238.554 110.573 237.509 110.573C236.453 110.573 236.057 109.517 236.057 108.164C236.057 106.811 236.453 105.766 237.509 105.766C238.554 105.766 238.95 106.811 238.95 108.164Z" fill="white"/>
<path d="M236.485 125.962C237.002 126.424 237.75 126.721 238.641 126.721C240.808 126.721 242.051 125.148 242.051 122.937C242.051 120.858 241.116 119.142 238.894 119.142C237.222 119.142 236.078 120.231 236.078 121.661C236.078 123.223 237.266 124.037 238.586 124.037C239.389 124.037 240.126 123.586 240.478 123.091V123.245C240.478 124.356 239.818 125.357 238.641 125.357C237.992 125.357 237.574 125.159 237.178 124.796L236.485 125.962ZM240.467 122.035C240.115 122.464 239.576 122.717 239.026 122.717C238.322 122.717 237.673 122.376 237.673 121.595C237.673 121.078 238.124 120.495 238.96 120.495C240.005 120.495 240.401 121.331 240.467 122.035Z" fill="white"/>
<path d="M242.881 126.82H243.893L246.5 119.043H245.488L242.881 126.82Z" fill="white"/>
<path d="M247.315 122.937C247.315 124.829 248.25 126.732 250.351 126.732C252.441 126.732 253.387 124.829 253.387 122.937C253.387 121.045 252.441 119.153 250.351 119.153C248.25 119.153 247.315 121.045 247.315 122.937ZM251.792 122.937C251.792 124.29 251.396 125.346 250.351 125.346C249.295 125.346 248.899 124.29 248.899 122.937C248.899 121.584 249.295 120.539 250.351 120.539C251.396 120.539 251.792 121.584 251.792 122.937Z" fill="white"/>
<path d="M238.936 141.37H240.498V134.032H239.134L236.824 136.354L237.715 137.289L238.936 136.046V141.37Z" fill="white"/>
<path d="M242.04 137.707C242.04 139.599 242.975 141.502 245.076 141.502C247.166 141.502 248.112 139.599 248.112 137.707C248.112 135.815 247.166 133.922 245.076 133.922C242.975 133.922 242.04 135.815 242.04 137.707ZM246.517 137.707C246.517 139.06 246.121 140.116 245.076 140.116C244.02 140.116 243.624 139.06 243.624 137.707C243.624 136.354 244.02 135.309 245.076 135.309C246.121 135.309 246.517 136.354 246.517 137.707Z" fill="white"/>
<path d="M248.927 141.59H249.939L252.546 133.812H251.534L248.927 141.59Z" fill="white"/>
<path d="M253.361 137.707C253.361 139.599 254.296 141.502 256.397 141.502C258.487 141.502 259.433 139.599 259.433 137.707C259.433 135.815 258.487 133.922 256.397 133.922C254.296 133.922 253.361 135.815 253.361 137.707ZM257.838 137.707C257.838 139.06 257.442 140.116 256.397 140.116C255.341 140.116 254.945 139.06 254.945 137.707C254.945 136.354 255.341 135.309 256.397 135.309C257.442 135.309 257.838 136.354 257.838 137.707Z" fill="white"/>
<path d="M232.62 159.393H234.182V152.056H232.818L230.508 154.377L231.399 155.312L232.62 154.069V159.393Z" fill="white"/>
<path d="M235.723 155.73C235.723 157.622 236.658 159.525 238.759 159.525C240.849 159.525 241.795 157.622 241.795 155.73C241.795 153.838 240.849 151.946 238.759 151.946C236.658 151.946 235.723 153.838 235.723 155.73ZM240.2 155.73C240.2 157.083 239.804 158.139 238.759 158.139C237.703 158.139 237.307 157.083 237.307 155.73C237.307 154.377 237.703 153.332 238.759 153.332C239.804 153.332 240.2 154.377 240.2 155.73Z" fill="white"/>
<path d="M242.611 159.613H243.623L246.23 151.836H245.218L242.611 159.613Z" fill="white"/>
<path d="M246.891 158.348C247.43 159.008 248.431 159.525 249.784 159.525C251.544 159.525 252.677 158.634 252.677 157.369C252.677 156.269 251.709 155.686 250.961 155.609C251.775 155.466 252.567 154.861 252.567 153.937C252.567 152.716 251.511 151.946 249.795 151.946C248.508 151.946 247.584 152.441 246.99 153.112L247.76 154.08C248.277 153.585 248.926 153.31 249.63 153.31C250.4 153.31 250.994 153.607 250.994 154.19C250.994 154.74 250.455 155.004 249.641 155.004C249.366 155.004 248.86 155.004 248.728 154.993V156.357C248.838 156.346 249.333 156.346 249.641 156.346C250.664 156.346 251.115 156.621 251.115 157.215C251.115 157.776 250.62 158.161 249.729 158.161C249.014 158.161 248.211 157.853 247.705 157.325L246.891 158.348Z" fill="white"/>
<path d="M208.348 155.963C208.348 157.338 209.756 157.998 211.296 157.998C212.836 157.998 214.244 157.327 214.244 155.963C214.244 155.072 213.54 154.39 212.66 154.082C213.474 153.796 214.123 153.268 214.123 152.355C214.123 150.98 212.649 150.419 211.296 150.419C209.932 150.419 208.469 150.98 208.469 152.355C208.469 153.268 209.107 153.796 209.921 154.082C209.041 154.39 208.348 155.072 208.348 155.963ZM212.528 152.597C212.528 153.169 211.747 153.422 211.296 153.488C210.845 153.422 210.053 153.169 210.053 152.597C210.053 152.08 210.57 151.761 211.296 151.761C212.011 151.761 212.528 152.08 212.528 152.597ZM212.66 155.776C212.66 156.315 212.044 156.656 211.296 156.656C210.526 156.656 209.932 156.315 209.932 155.776C209.932 155.138 210.834 154.83 211.296 154.775C211.747 154.83 212.66 155.138 212.66 155.776Z" fill="white"/>
<path d="M215.074 158.086H216.086L218.693 150.309H217.681L215.074 158.086Z" fill="white"/>
<path d="M219.354 156.821C219.893 157.481 220.894 157.998 222.247 157.998C224.007 157.998 225.14 157.107 225.14 155.842C225.14 154.742 224.172 154.159 223.424 154.082C224.238 153.939 225.03 153.334 225.03 152.41C225.03 151.189 223.974 150.419 222.258 150.419C220.971 150.419 220.047 150.914 219.453 151.585L220.223 152.553C220.74 152.058 221.389 151.783 222.093 151.783C222.863 151.783 223.457 152.08 223.457 152.663C223.457 153.213 222.918 153.477 222.104 153.477C221.829 153.477 221.323 153.477 221.191 153.466V154.83C221.301 154.819 221.796 154.819 222.104 154.819C223.127 154.819 223.578 155.094 223.578 155.688C223.578 156.249 223.083 156.634 222.192 156.634C221.477 156.634 220.674 156.326 220.168 155.798L219.354 156.821Z" fill="white"/>
<path d="M216.891 183.656H217.903L220.51 175.879H219.498L216.891 183.656Z" fill="white"/>
<path d="M221.171 182.391C221.71 183.051 222.711 183.568 224.064 183.568C225.824 183.568 226.957 182.677 226.957 181.412C226.957 180.312 225.989 179.729 225.241 179.652C226.055 179.509 226.847 178.904 226.847 177.98C226.847 176.759 225.791 175.989 224.075 175.989C222.788 175.989 221.864 176.484 221.27 177.155L222.04 178.123C222.557 177.628 223.206 177.353 223.91 177.353C224.68 177.353 225.274 177.65 225.274 178.233C225.274 178.783 224.735 179.047 223.921 179.047C223.646 179.047 223.14 179.047 223.008 179.036V180.4C223.118 180.389 223.613 180.389 223.921 180.389C224.944 180.389 225.395 180.664 225.395 181.258C225.395 181.819 224.9 182.204 224.009 182.204C223.294 182.204 222.491 181.896 221.985 181.368L221.171 182.391Z" fill="white"/>
<path d="M228.221 179.784C228.221 181.852 229.156 183.568 231.389 183.568C233.061 183.568 234.194 182.479 234.194 181.049C234.194 179.487 233.017 178.684 231.697 178.684C230.894 178.684 230.157 179.124 229.816 179.619C229.805 179.575 229.805 179.52 229.805 179.465C229.805 178.299 230.531 177.342 231.642 177.342C232.291 177.342 232.709 177.551 233.105 177.925L233.809 176.748C233.281 176.297 232.533 175.989 231.642 175.989C229.475 175.989 228.221 177.562 228.221 179.784ZM232.61 181.115C232.61 181.632 232.159 182.204 231.312 182.204C230.278 182.204 229.882 181.39 229.816 180.686C230.168 180.257 230.696 179.982 231.246 179.982C231.961 179.982 232.61 180.323 232.61 181.115Z" fill="white"/>
<path d="M183.285 199.468H184.297L186.904 191.691H185.892L183.285 199.468Z" fill="white"/>
<path d="M188.676 199.248H190.392L193.12 193V191.911H187.609V193.286H191.305L188.676 199.248Z" fill="white"/>
<path d="M193.999 198.203C194.538 198.863 195.539 199.38 196.892 199.38C198.652 199.38 199.785 198.489 199.785 197.224C199.785 196.124 198.817 195.541 198.069 195.464C198.883 195.321 199.675 194.716 199.675 193.792C199.675 192.571 198.619 191.801 196.903 191.801C195.616 191.801 194.692 192.296 194.098 192.967L194.868 193.935C195.385 193.44 196.034 193.165 196.738 193.165C197.508 193.165 198.102 193.462 198.102 194.045C198.102 194.595 197.563 194.859 196.749 194.859C196.474 194.859 195.968 194.859 195.836 194.848V196.212C195.946 196.201 196.441 196.201 196.749 196.201C197.772 196.201 198.223 196.476 198.223 197.07C198.223 197.631 197.728 198.016 196.837 198.016C196.122 198.016 195.319 197.708 194.813 197.18L193.999 198.203Z" fill="white"/>
<path d="M180.098 181.772H181.814L184.542 175.524V174.435H179.031L179.031 175.81H182.727L180.098 181.772Z" fill="white"/>
<path d="M185.201 181.992H186.213L188.82 174.215H187.808L185.201 181.992Z" fill="white"/>
<path d="M189.482 180.727C190.021 181.387 191.022 181.904 192.375 181.904C194.135 181.904 195.268 181.013 195.268 179.748C195.268 178.648 194.3 178.065 193.552 177.988C194.366 177.845 195.158 177.24 195.158 176.316C195.158 175.095 194.102 174.325 192.386 174.325C191.099 174.325 190.175 174.82 189.581 175.491L190.351 176.459C190.868 175.964 191.517 175.689 192.221 175.689C192.991 175.689 193.585 175.986 193.585 176.569C193.585 177.119 193.046 177.383 192.232 177.383C191.957 177.383 191.451 177.383 191.319 177.372V178.736C191.429 178.725 191.924 178.725 192.232 178.725C193.255 178.725 193.706 179 193.706 179.594C193.706 180.155 193.211 180.54 192.32 180.54C191.605 180.54 190.802 180.232 190.296 179.704L189.482 180.727Z" fill="white"/>
<path d="M154.652 178.12C154.652 180.188 155.587 181.904 157.82 181.904C159.492 181.904 160.625 180.815 160.625 179.385C160.625 177.823 159.448 177.02 158.128 177.02C157.325 177.02 156.588 177.46 156.247 177.955C156.236 177.911 156.236 177.856 156.236 177.801C156.236 176.635 156.962 175.678 158.073 175.678C158.722 175.678 159.14 175.887 159.536 176.261L160.24 175.084C159.712 174.633 158.964 174.325 158.073 174.325C155.906 174.325 154.652 175.898 154.652 178.12ZM159.041 179.451C159.041 179.968 158.59 180.54 157.743 180.54C156.709 180.54 156.313 179.726 156.247 179.022C156.599 178.593 157.127 178.318 157.677 178.318C158.392 178.318 159.041 178.659 159.041 179.451Z" fill="white"/>
<path d="M161.411 181.992H162.423L165.03 174.215H164.018L161.411 181.992Z" fill="white"/>
<path d="M165.691 180.727C166.23 181.387 167.231 181.904 168.584 181.904C170.344 181.904 171.477 181.013 171.477 179.748C171.477 178.648 170.509 178.065 169.761 177.988C170.575 177.845 171.367 177.24 171.367 176.316C171.367 175.095 170.311 174.325 168.595 174.325C167.308 174.325 166.384 174.82 165.79 175.491L166.56 176.459C167.077 175.964 167.726 175.689 168.43 175.689C169.2 175.689 169.794 175.986 169.794 176.569C169.794 177.119 169.255 177.383 168.441 177.383C168.166 177.383 167.66 177.383 167.528 177.372V178.736C167.638 178.725 168.133 178.725 168.441 178.725C169.464 178.725 169.915 179 169.915 179.594C169.915 180.155 169.42 180.54 168.529 180.54C167.814 180.54 167.011 180.232 166.505 179.704L165.691 180.727Z" fill="white"/>
<path d="M120.902 180.804C121.529 181.486 122.453 181.904 123.729 181.904C125.5 181.904 126.666 180.925 126.666 179.374C126.666 177.889 125.555 176.998 124.312 176.998C123.641 176.998 123.047 177.273 122.662 177.614V175.777H126.171V174.435H121.133L121.133 178.626L122.222 178.923C122.662 178.505 123.157 178.318 123.762 178.318C124.598 178.318 125.082 178.769 125.082 179.44C125.082 180.045 124.587 180.54 123.718 180.54C122.948 180.54 122.266 180.265 121.76 179.748L120.902 180.804Z" fill="white"/>
<path d="M127.496 181.992H128.508L131.115 174.215H130.103L127.496 181.992Z" fill="white"/>
<path d="M131.776 180.727C132.315 181.387 133.316 181.904 134.669 181.904C136.429 181.904 137.562 181.013 137.562 179.748C137.562 178.648 136.594 178.065 135.846 177.988C136.66 177.845 137.452 177.24 137.452 176.316C137.452 175.095 136.396 174.325 134.68 174.325C133.393 174.325 132.469 174.82 131.875 175.491L132.645 176.459C133.162 175.964 133.811 175.689 134.515 175.689C135.285 175.689 135.879 175.986 135.879 176.569C135.879 177.119 135.34 177.383 134.526 177.383C134.251 177.383 133.745 177.383 133.613 177.372V178.736C133.723 178.725 134.218 178.725 134.526 178.725C135.549 178.725 136 179 136 179.594C136 180.155 135.505 180.54 134.614 180.54C133.899 180.54 133.096 180.232 132.59 179.704L131.776 180.727Z" fill="white"/>
<path d="M102.743 169.772H104.305L104.305 168.254H105.251V166.879H104.305V162.435H102.149L99.2344 167.022L99.2344 168.254H102.743V169.772ZM102.743 163.821L102.743 166.879H100.763L102.743 163.821Z" fill="white"/>
<path d="M105.963 169.992H106.975L109.582 162.215H108.57L105.963 169.992Z" fill="white"/>
<path d="M110.243 168.727C110.782 169.387 111.783 169.904 113.136 169.904C114.896 169.904 116.029 169.013 116.029 167.748C116.029 166.648 115.061 166.065 114.313 165.988C115.127 165.845 115.919 165.24 115.919 164.316C115.919 163.095 114.863 162.325 113.147 162.325C111.86 162.325 110.936 162.82 110.342 163.491L111.112 164.459C111.629 163.964 112.278 163.689 112.982 163.689C113.752 163.689 114.346 163.986 114.346 164.569C114.346 165.119 113.807 165.383 112.993 165.383C112.718 165.383 112.212 165.383 112.08 165.372V166.736C112.19 166.725 112.685 166.725 112.993 166.725C114.016 166.725 114.467 167 114.467 167.594C114.467 168.155 113.972 168.54 113.081 168.54C112.366 168.54 111.563 168.232 111.057 167.704L110.243 168.727Z" fill="white"/>
<path d="M167.934 9.04653H168.946L171.553 1.26953H170.541L167.934 9.04653Z" fill="white"/>
<path d="M174.227 8.82653H175.789V1.48953H174.425L172.115 3.81053L173.006 4.74553L174.227 3.50253V8.82653Z" fill="white"/>
<path d="M177.176 7.78153C177.715 8.44153 178.716 8.95853 180.069 8.95853C181.829 8.95853 182.962 8.06753 182.962 6.80253C182.962 5.70253 181.994 5.11953 181.246 5.04253C182.06 4.89953 182.852 4.29453 182.852 3.37053C182.852 2.14953 181.796 1.37953 180.08 1.37953C178.793 1.37953 177.869 1.87453 177.275 2.54553L178.045 3.51353C178.562 3.01853 179.211 2.74353 179.915 2.74353C180.685 2.74353 181.279 3.04053 181.279 3.62353C181.279 4.17353 180.74 4.43753 179.926 4.43753C179.651 4.43753 179.145 4.43753 179.013 4.42653L179.013 5.79053C179.123 5.77953 179.618 5.77953 179.926 5.77953C180.949 5.77953 181.4 6.05453 181.4 6.64853C181.4 7.20953 180.905 7.59453 180.014 7.59453C179.299 7.59453 178.496 7.28653 177.99 6.75853L177.176 7.78153Z" fill="white"/>
</svg>
