<svg width="372" height="368" viewBox="0 0 372 368" fill="none" xmlns="http://www.w3.org/2000/svg">
<path d="M60 328.242H60.708L63.552 319.758H62.844L60 328.242Z" fill="#112233"/>
<path d="M67.7388 328.002H68.7348V325.974H69.8628V325.098H68.7348V319.998H67.3668L63.9348 325.146V325.974H67.7388V328.002ZM67.7388 320.922V325.098H64.9308L67.7388 320.922Z" fill="#112233"/>
<path d="M70.5902 326.826C71.0822 327.546 72.0782 328.146 73.4342 328.146C75.1982 328.146 76.2662 327.174 76.2662 325.842C76.2662 324.558 75.1502 323.934 74.4182 323.874C75.1742 323.742 76.1462 323.166 76.1462 322.014C76.1462 320.658 74.9702 319.878 73.4342 319.878C72.1982 319.878 71.2742 320.418 70.6982 321.114L71.2502 321.738C71.8382 321.102 72.4862 320.766 73.3622 320.766C74.3342 320.766 75.1502 321.246 75.1502 322.134C75.1502 323.058 74.2982 323.454 73.2902 323.454C72.9662 323.454 72.5942 323.454 72.4622 323.442V324.354C72.5822 324.342 72.9542 324.342 73.2902 324.342C74.4662 324.342 75.2822 324.762 75.2822 325.758C75.2822 326.682 74.5742 327.258 73.4102 327.258C72.4622 327.258 71.6462 326.826 71.1782 326.202L70.5902 326.826Z" fill="#112233"/>
<path d="M175 365.242H175.708L178.552 356.758H177.844L175 365.242Z" fill="#112233"/>
<path d="M178.899 363.826C179.391 364.546 180.387 365.146 181.743 365.146C183.507 365.146 184.575 364.174 184.575 362.842C184.575 361.558 183.459 360.934 182.727 360.874C183.483 360.742 184.455 360.166 184.455 359.014C184.455 357.658 183.279 356.878 181.743 356.878C180.507 356.878 179.583 357.418 179.007 358.114L179.559 358.738C180.147 358.102 180.795 357.766 181.671 357.766C182.643 357.766 183.459 358.246 183.459 359.134C183.459 360.058 182.607 360.454 181.599 360.454C181.275 360.454 180.903 360.454 180.771 360.442V361.354C180.891 361.342 181.263 361.342 181.599 361.342C182.775 361.342 183.591 361.762 183.591 362.758C183.591 363.682 182.883 364.258 181.719 364.258C180.771 364.258 179.955 363.826 179.487 363.202L178.899 363.826Z" fill="#112233"/>
<path d="M189.418 365.002H190.414V362.974H191.542V362.098H190.414V356.998H189.046L185.614 362.146V362.974H189.418V365.002ZM189.418 357.922V362.098H186.61L189.418 357.922Z" fill="#112233"/>
<path d="M315 307.242H315.708L318.552 298.758H317.844L315 307.242Z" fill="#112233"/>
<path d="M318.899 305.826C319.391 306.546 320.387 307.146 321.743 307.146C323.507 307.146 324.575 306.174 324.575 304.842C324.575 303.558 323.459 302.934 322.727 302.874C323.483 302.742 324.455 302.166 324.455 301.014C324.455 299.658 323.279 298.878 321.743 298.878C320.507 298.878 319.583 299.418 319.007 300.114L319.559 300.738C320.147 300.102 320.795 299.766 321.671 299.766C322.643 299.766 323.459 300.246 323.459 301.134C323.459 302.058 322.607 302.454 321.599 302.454C321.275 302.454 320.903 302.454 320.771 302.442V303.354C320.891 303.342 321.263 303.342 321.599 303.342C322.775 303.342 323.591 303.762 323.591 304.758C323.591 305.682 322.883 306.258 321.719 306.258C320.771 306.258 319.955 305.826 319.487 305.202L318.899 305.826Z" fill="#112233"/>
<path d="M20 275.242H20.708L23.552 266.758H22.844L20 275.242Z" fill="#112233"/>
<path d="M27.7388 275.002H28.7348V272.974H29.8628V272.098H28.7348V266.998H27.3668L23.9348 272.146V272.974H27.7388V275.002ZM27.7388 267.922V272.098H24.9308L27.7388 267.922Z" fill="#112233"/>
<path d="M39 62.2418H39.708L42.552 53.7578H41.844L39 62.2418Z" fill="#112233"/>
<path d="M43.1628 58.0178C43.1628 60.1898 44.0148 62.1458 46.2468 62.1458C47.9988 62.1458 49.0548 60.9218 49.0548 59.5298C49.0548 57.8258 47.8788 56.9738 46.4388 56.9738C45.4068 56.9738 44.5188 57.6698 44.1708 58.2218C44.1588 58.1138 44.1588 58.0178 44.1588 57.9098C44.1588 56.3378 44.8668 54.7658 46.4148 54.7658C47.2548 54.7658 47.7228 55.1018 48.1308 55.5818L48.6348 54.8378C48.1428 54.2738 47.4468 53.8778 46.4148 53.8778C44.1708 53.8778 43.1628 55.8458 43.1628 58.0178ZM48.0468 59.5658C48.0468 60.3338 47.4468 61.2578 46.2108 61.2578C44.8188 61.2578 44.2908 60.0338 44.1948 59.0378C44.6388 58.3298 45.4068 57.8378 46.1988 57.8378C47.2308 57.8378 48.0468 58.3898 48.0468 59.5658Z" fill="#112233"/>
<path d="M263.488 13.9137H264.196L267.04 5.42969H266.332L263.488 13.9137Z" fill="#112233"/>
<path d="M269.175 13.6737H270.171V5.66969H269.295L267.291 7.73369L267.891 8.34569L269.175 6.98969V13.6737Z" fill="#112233"/>
<path d="M349 103.242H349.708L352.552 94.7578H351.844L349 103.242Z" fill="#112233"/>
<path d="M353.199 103.002H358.695V102.114H354.771C357.003 100.35 358.659 98.8618 358.659 97.2298C358.659 95.6338 357.303 94.8778 355.971 94.8778C354.843 94.8778 353.799 95.3338 353.187 96.1378L353.799 96.7738C354.267 96.1738 355.011 95.7658 355.971 95.7658C356.799 95.7658 357.639 96.2098 357.639 97.2298C357.639 98.6098 356.079 99.9418 353.199 102.21V103.002Z" fill="#112233"/>
<path d="M98 15.2418H98.708L101.552 6.75781H100.844L98 15.2418Z" fill="#112233"/>
<path d="M102.175 12.9738C102.175 14.3418 103.459 15.1458 105.043 15.1458C106.615 15.1458 107.911 14.3298 107.911 12.9738C107.911 11.9058 106.999 11.1738 106.003 10.8738C106.927 10.6098 107.791 10.0098 107.791 8.95381C107.791 7.51381 106.363 6.87781 105.043 6.87781C103.711 6.87781 102.307 7.51381 102.307 8.95381C102.307 10.0098 103.159 10.6098 104.083 10.8738C103.087 11.1738 102.175 11.9058 102.175 12.9738ZM106.783 9.08581C106.783 10.0578 105.535 10.3818 105.043 10.4658C104.563 10.3818 103.303 10.0578 103.303 9.08581C103.303 8.25781 104.071 7.76581 105.043 7.76581C106.003 7.76581 106.783 8.25781 106.783 9.08581ZM106.903 12.8658C106.903 13.7298 106.027 14.2578 105.043 14.2578C104.047 14.2578 103.171 13.7298 103.171 12.8658C103.171 11.8218 104.551 11.3778 105.043 11.3178C105.535 11.3778 106.903 11.8218 106.903 12.8658Z" fill="#112233"/>
</svg>
