<svg width="331" height="332" viewBox="0 0 331 332" fill="none" xmlns="http://www.w3.org/2000/svg">
<path d="M64.9102 261.047H65.9222L68.5292 253.27H67.5172L64.9102 261.047Z" fill="white"/>
<path d="M72.7543 260.827H74.3163V259.309H75.2623V257.934H74.3163V253.49H72.1603L69.2453 258.077V259.309H72.7543L72.7543 260.827ZM72.7543 254.876V257.934H70.7743L72.7543 254.876Z" fill="white"/>
<path d="M76.1938 259.782C76.7328 260.442 77.7337 260.959 79.0868 260.959C80.8468 260.959 81.9797 260.068 81.9797 258.803C81.9797 257.703 81.0118 257.12 80.2638 257.043C81.0778 256.9 81.8698 256.295 81.8698 255.371C81.8698 254.15 80.8138 253.38 79.0978 253.38C77.8108 253.38 76.8868 253.875 76.2928 254.546L77.0627 255.514C77.5797 255.019 78.2288 254.744 78.9328 254.744C79.7028 254.744 80.2968 255.041 80.2968 255.624C80.2968 256.174 79.7578 256.438 78.9438 256.438C78.6688 256.438 78.1628 256.438 78.0308 256.427V257.791C78.1408 257.78 78.6358 257.78 78.9438 257.78C79.9668 257.78 80.4178 258.055 80.4178 258.649C80.4178 259.21 79.9228 259.595 79.0318 259.595C78.3168 259.595 77.5138 259.287 77.0078 258.759L76.1938 259.782Z" fill="white"/>
<path d="M24.8594 227.047H25.8714L28.4784 219.27H27.4664L24.8594 227.047Z" fill="white"/>
<path d="M32.7035 226.827H34.2655V225.309H35.2115V223.934H34.2655V219.49H32.1095L29.1945 224.077V225.309H32.7035L32.7035 226.827ZM32.7035 220.876V223.934H30.7235L32.7035 220.876Z" fill="white"/>
<path d="M46.6875 217.218H47.6995L50.3065 209.441H49.2945L46.6875 217.218Z" fill="white"/>
<path d="M54.5316 216.998H56.0936V215.48H57.0396V214.105H56.0936V209.661H53.9376L51.0226 214.248V215.48H54.5316L54.5316 216.998ZM54.5316 211.047V214.105H52.5516L54.5316 211.047Z" fill="white"/>
<path d="M61.5351 216.998H63.0971V215.48H64.0431V214.105H63.0971V209.661H60.9411L58.0261 214.248V215.48H61.5351V216.998ZM61.5351 211.047V214.105H59.5551L61.5351 211.047Z" fill="white"/>
<path d="M63.8555 208.047H64.8675L67.4745 200.27H66.4625L63.8555 208.047Z" fill="white"/>
<path d="M71.6996 207.827H73.2616V206.309H74.2076V204.934H73.2616V200.49H71.1056L68.1906 205.077V206.309H71.6996L71.6996 207.827ZM71.6996 201.876V204.934H69.7196L71.6996 201.876Z" fill="white"/>
<path d="M78.7031 207.827H80.2651V206.309H81.2111V204.934H80.2651V200.49H78.1091L75.1941 205.077V206.309H78.7031V207.827ZM78.7031 201.876V204.934H76.7231L78.7031 201.876Z" fill="white"/>
<path d="M85.7065 207.827H87.2685V206.309H88.2145V204.934H87.2685V200.49H85.1125L82.1975 205.077V206.309H85.7065V207.827ZM85.7065 201.876V204.934H83.7265L85.7065 201.876Z" fill="white"/>
<path d="M55.1641 124.047H56.1761L58.7831 116.27H57.7711L55.1641 124.047Z" fill="white"/>
<path d="M59.7632 122.859C60.3902 123.541 61.3142 123.959 62.5902 123.959C64.3612 123.959 65.5272 122.98 65.5272 121.429C65.5272 119.944 64.4162 119.053 63.1732 119.053C62.5022 119.053 61.9082 119.328 61.5232 119.669V117.832H65.0322V116.49H59.9942V120.681L61.0832 120.978C61.5232 120.56 62.0182 120.373 62.6232 120.373C63.4592 120.373 63.9432 120.824 63.9432 121.495C63.9432 122.1 63.4482 122.595 62.5792 122.595C61.8092 122.595 61.1272 122.32 60.6212 121.803L59.7632 122.859Z" fill="white"/>
<path d="M66.8956 122.859C67.5226 123.541 68.4466 123.959 69.7226 123.959C71.4936 123.959 72.6596 122.98 72.6596 121.429C72.6596 119.944 71.5486 119.053 70.3056 119.053C69.6346 119.053 69.0406 119.328 68.6556 119.669V117.832H72.1646V116.49H67.1266V120.681L68.2156 120.978C68.6556 120.56 69.1506 120.373 69.7556 120.373C70.5916 120.373 71.0756 120.824 71.0756 121.495C71.0756 122.1 70.5806 122.595 69.7116 122.595C68.9416 122.595 68.2596 122.32 67.7536 121.803L66.8956 122.859Z" fill="white"/>
<path d="M73.8629 120.175C73.8629 122.243 74.7979 123.959 77.0309 123.959C78.7029 123.959 79.8359 122.87 79.8359 121.44C79.8359 119.878 78.6589 119.075 77.3389 119.075C76.5359 119.075 75.7989 119.515 75.4579 120.01C75.4469 119.966 75.4469 119.911 75.4469 119.856C75.4469 118.69 76.1729 117.733 77.2839 117.733C77.9329 117.733 78.3509 117.942 78.7469 118.316L79.4509 117.139C78.9229 116.688 78.1749 116.38 77.2839 116.38C75.1169 116.38 73.8629 117.953 73.8629 120.175ZM78.2519 121.506C78.2519 122.023 77.8009 122.595 76.9539 122.595C75.9199 122.595 75.5239 121.781 75.4579 121.077C75.8099 120.648 76.3379 120.373 76.8879 120.373C77.6029 120.373 78.2519 120.714 78.2519 121.506Z" fill="white"/>
<path d="M50.793 139.047H51.805L54.412 131.27H53.4L50.793 139.047Z" fill="white"/>
<path d="M58.6371 138.827H60.1991V137.309H61.1451V135.934H60.1991V131.49H58.0431L55.1281 136.077V137.309H58.6371L58.6371 138.827ZM58.6371 132.876V135.934H56.6571L58.6371 132.876Z" fill="white"/>
<path d="M65.6406 138.827H67.2026V137.309H68.1486V135.934H67.2026V131.49H65.0466L62.1316 136.077V137.309H65.6406V138.827ZM65.6406 132.876V135.934H63.6606L65.6406 132.876Z" fill="white"/>
<path d="M69.234 135.175C69.234 137.243 70.169 138.959 72.402 138.959C74.074 138.959 75.207 137.87 75.207 136.44C75.207 134.878 74.03 134.075 72.71 134.075C71.907 134.075 71.17 134.515 70.829 135.01C70.818 134.966 70.818 134.911 70.818 134.856C70.818 133.69 71.544 132.733 72.655 132.733C73.304 132.733 73.722 132.942 74.118 133.316L74.822 132.139C74.294 131.688 73.546 131.38 72.655 131.38C70.488 131.38 69.234 132.953 69.234 135.175ZM73.623 136.506C73.623 137.023 73.172 137.595 72.325 137.595C71.291 137.595 70.895 136.781 70.829 136.077C71.181 135.648 71.709 135.373 72.259 135.373C72.974 135.373 73.623 135.714 73.623 136.506Z" fill="white"/>
<path d="M18.793 185.047H19.805L22.412 177.27H21.4L18.793 185.047Z" fill="white"/>
<path d="M26.6371 184.827H28.1991V183.309H29.1451V181.934H28.1991V177.49H26.0431L23.1281 182.077V183.309H26.6371L26.6371 184.827ZM26.6371 178.876V181.934H24.6571L26.6371 178.876Z" fill="white"/>
<path d="M30.3956 183.859C31.0226 184.541 31.9466 184.959 33.2226 184.959C34.9936 184.959 36.1596 183.98 36.1596 182.429C36.1596 180.944 35.0486 180.053 33.8056 180.053C33.1346 180.053 32.5406 180.328 32.1556 180.669V178.832H35.6646V177.49H30.6266V181.681L31.7156 181.978C32.1556 181.56 32.6506 181.373 33.2556 181.373C34.0916 181.373 34.5756 181.824 34.5756 182.495C34.5756 183.1 34.0806 183.595 33.2116 183.595C32.4416 183.595 31.7596 183.32 31.2536 182.803L30.3956 183.859Z" fill="white"/>
<path d="M24.7305 103.047H25.7425L28.3495 95.2695H27.3375L24.7305 103.047Z" fill="white"/>
<path d="M29.1646 99.1745C29.1646 101.243 30.0996 102.959 32.3326 102.959C34.0046 102.959 35.1376 101.87 35.1376 100.44C35.1376 98.8775 33.9606 98.0745 32.6406 98.0745C31.8376 98.0745 31.1006 98.5145 30.7596 99.0095C30.7486 98.9655 30.7486 98.9105 30.7486 98.8555C30.7486 97.6895 31.4746 96.7325 32.5856 96.7325C33.2346 96.7325 33.6526 96.9415 34.0486 97.3155L34.7526 96.1385C34.2246 95.6875 33.4766 95.3795 32.5856 95.3795C30.4186 95.3795 29.1646 96.9525 29.1646 99.1745ZM33.5536 100.506C33.5536 101.023 33.1026 101.595 32.2556 101.595C31.2216 101.595 30.8256 100.781 30.7596 100.077C31.1116 99.6475 31.6396 99.3725 32.1896 99.3725C32.9046 99.3725 33.5536 99.7135 33.5536 100.506Z" fill="white"/>
<path d="M36.462 101.859C37.089 102.541 38.013 102.959 39.289 102.959C41.06 102.959 42.226 101.98 42.226 100.429C42.226 98.9435 41.115 98.0525 39.872 98.0525C39.201 98.0525 38.607 98.3275 38.222 98.6685V96.8315H41.731V95.4895H36.693V99.6805L37.782 99.9775C38.222 99.5595 38.717 99.3725 39.322 99.3725C40.158 99.3725 40.642 99.8235 40.642 100.495C40.642 101.1 40.147 101.595 39.278 101.595C38.508 101.595 37.826 101.32 37.32 100.803L36.462 101.859Z" fill="white"/>
<path d="M36.8125 53.0465H37.8245L40.4315 45.2695H39.4195L36.8125 53.0465Z" fill="white"/>
<path d="M41.2466 49.1745C41.2466 51.2425 42.1816 52.9585 44.4146 52.9585C46.0866 52.9585 47.2196 51.8695 47.2196 50.4395C47.2196 48.8775 46.0426 48.0745 44.7226 48.0745C43.9196 48.0745 43.1826 48.5145 42.8416 49.0095C42.8306 48.9655 42.8306 48.9105 42.8306 48.8555C42.8306 47.6895 43.5566 46.7325 44.6676 46.7325C45.3166 46.7325 45.7346 46.9415 46.1306 47.3155L46.8346 46.1385C46.3066 45.6875 45.5586 45.3795 44.6676 45.3795C42.5006 45.3795 41.2466 46.9525 41.2466 49.1745ZM45.6356 50.5055C45.6356 51.0225 45.1846 51.5945 44.3376 51.5945C43.3036 51.5945 42.9076 50.7805 42.8416 50.0765C43.1936 49.6475 43.7216 49.3725 44.2716 49.3725C44.9866 49.3725 45.6356 49.7135 45.6356 50.5055Z" fill="white"/>
<path d="M50.238 52.8265H51.8V45.4895H50.436L48.126 47.8105L49.017 48.7455L50.238 47.5025V52.8265Z" fill="white"/>
<path d="M57.7383 53.0465H58.7503L61.3573 45.2695H60.3453L57.7383 53.0465Z" fill="white"/>
<path d="M62.1834 50.9235C62.1834 52.2985 63.5914 52.9585 65.1314 52.9585C66.6714 52.9585 68.0794 52.2875 68.0794 50.9235C68.0794 50.0325 67.3754 49.3505 66.4954 49.0425C67.3094 48.7565 67.9584 48.2285 67.9584 47.3155C67.9584 45.9405 66.4844 45.3795 65.1314 45.3795C63.7674 45.3795 62.3044 45.9405 62.3044 47.3155C62.3044 48.2285 62.9424 48.7565 63.7564 49.0425C62.8764 49.3505 62.1834 50.0325 62.1834 50.9235ZM66.3634 47.5575C66.3634 48.1295 65.5824 48.3825 65.1314 48.4485C64.6804 48.3825 63.8884 48.1295 63.8884 47.5575C63.8884 47.0405 64.4054 46.7215 65.1314 46.7215C65.8464 46.7215 66.3634 47.0405 66.3634 47.5575ZM66.4954 50.7365C66.4954 51.2755 65.8794 51.6165 65.1314 51.6165C64.3614 51.6165 63.7674 51.2755 63.7674 50.7365C63.7674 50.0985 64.6694 49.7905 65.1314 49.7355C65.5824 49.7905 66.4954 50.0985 66.4954 50.7365Z" fill="white"/>
<path d="M69.2833 49.1745C69.2833 51.2425 70.2183 52.9585 72.4513 52.9585C74.1233 52.9585 75.2563 51.8695 75.2563 50.4395C75.2563 48.8775 74.0793 48.0745 72.7593 48.0745C71.9563 48.0745 71.2193 48.5145 70.8783 49.0095C70.8673 48.9655 70.8673 48.9105 70.8673 48.8555C70.8673 47.6895 71.5933 46.7325 72.7043 46.7325C73.3533 46.7325 73.7713 46.9415 74.1673 47.3155L74.8713 46.1385C74.3433 45.6875 73.5953 45.3795 72.7043 45.3795C70.5373 45.3795 69.2833 46.9525 69.2833 49.1745ZM73.6723 50.5055C73.6723 51.0225 73.2213 51.5945 72.3743 51.5945C71.3403 51.5945 70.9443 50.7805 70.8783 50.0765C71.2303 49.6475 71.7583 49.3725 72.3083 49.3725C73.0233 49.3725 73.6723 49.7135 73.6723 50.5055Z" fill="white"/>
<path d="M103.812 9.04653H104.825L107.432 1.26953H106.42L103.812 9.04653Z" fill="white"/>
<path d="M110.106 8.82653H111.668V1.48953H110.304L107.994 3.81053L108.885 4.74553L110.106 3.50253V8.82653Z" fill="white"/>
<path d="M113.209 5.17453C113.209 7.24253 114.144 8.95853 116.377 8.95853C118.049 8.95853 119.182 7.86953 119.182 6.43953C119.182 4.87753 118.005 4.07453 116.685 4.07453C115.882 4.07453 115.145 4.51453 114.804 5.00953C114.793 4.96553 114.793 4.91053 114.793 4.85553C114.793 3.68953 115.519 2.73253 116.63 2.73253C117.279 2.73253 117.697 2.94153 118.093 3.31553L118.797 2.13853C118.269 1.68753 117.521 1.37953 116.63 1.37953C114.463 1.37953 113.209 2.95253 113.209 5.17453ZM117.598 6.50553C117.598 7.02253 117.147 7.59453 116.3 7.59453C115.266 7.59453 114.87 6.78053 114.804 6.07653C115.156 5.64753 115.684 5.37253 116.234 5.37253C116.949 5.37253 117.598 5.71353 117.598 6.50553Z" fill="white"/>
<path d="M160.824 17.0465H161.836L164.443 9.26953H163.431L160.824 17.0465Z" fill="white"/>
<path d="M167.117 16.8265H168.679V9.48953H167.315L165.005 11.8105L165.896 12.7455L167.117 11.5025V16.8265Z" fill="white"/>
<path d="M170.232 14.9235C170.232 16.2985 171.64 16.9585 173.18 16.9585C174.72 16.9585 176.128 16.2875 176.128 14.9235C176.128 14.0325 175.424 13.3505 174.544 13.0425C175.358 12.7565 176.007 12.2285 176.007 11.3155C176.007 9.94053 174.533 9.37953 173.18 9.37953C171.816 9.37953 170.353 9.94053 170.353 11.3155C170.353 12.2285 170.991 12.7565 171.805 13.0425C170.925 13.3505 170.232 14.0325 170.232 14.9235ZM174.412 11.5575C174.412 12.1295 173.631 12.3825 173.18 12.4485C172.729 12.3825 171.937 12.1295 171.937 11.5575C171.937 11.0405 172.454 10.7215 173.18 10.7215C173.895 10.7215 174.412 11.0405 174.412 11.5575ZM174.544 14.7365C174.544 15.2755 173.928 15.6165 173.18 15.6165C172.41 15.6165 171.816 15.2755 171.816 14.7365C171.816 14.0985 172.718 13.7905 173.18 13.7355C173.631 13.7905 174.544 14.0985 174.544 14.7365Z" fill="white"/>
<path d="M145.812 63.0465H146.825L149.432 55.2695H148.42L145.812 63.0465Z" fill="white"/>
<path d="M150.61 62.1885C151.127 62.6505 151.875 62.9475 152.766 62.9475C154.933 62.9475 156.176 61.3745 156.176 59.1635C156.176 57.0845 155.241 55.3685 153.019 55.3685C151.347 55.3685 150.203 56.4575 150.203 57.8875C150.203 59.4495 151.391 60.2635 152.711 60.2635C153.514 60.2635 154.251 59.8125 154.603 59.3175V59.4715C154.603 60.5825 153.943 61.5835 152.766 61.5835C152.117 61.5835 151.699 61.3855 151.303 61.0225L150.61 62.1885ZM154.592 58.2615C154.24 58.6905 153.701 58.9435 153.151 58.9435C152.447 58.9435 151.798 58.6025 151.798 57.8215C151.798 57.3045 152.249 56.7215 153.085 56.7215C154.13 56.7215 154.526 57.5575 154.592 58.2615Z" fill="white"/>
<path d="M159.238 62.8265H160.8V55.4895H159.436L157.126 57.8105L158.017 58.7455L159.238 57.5025V62.8265Z" fill="white"/>
<path d="M199.812 75.0465H200.825L203.432 67.2695H202.42L199.812 75.0465Z" fill="white"/>
<path d="M206.106 74.8265H207.668V67.4895H206.304L203.994 69.8105L204.885 70.7455L206.106 69.5025V74.8265Z" fill="white"/>
<path d="M209.572 74.1885C210.089 74.6505 210.837 74.9475 211.728 74.9475C213.895 74.9475 215.138 73.3745 215.138 71.1635C215.138 69.0845 214.203 67.3685 211.981 67.3685C210.309 67.3685 209.165 68.4575 209.165 69.8875C209.165 71.4495 210.353 72.2635 211.673 72.2635C212.476 72.2635 213.213 71.8125 213.565 71.3175V71.4715C213.565 72.5825 212.905 73.5835 211.728 73.5835C211.079 73.5835 210.661 73.3855 210.265 73.0225L209.572 74.1885ZM213.554 70.2615C213.202 70.6905 212.663 70.9435 212.113 70.9435C211.409 70.9435 210.76 70.6025 210.76 69.8215C210.76 69.3045 211.211 68.7215 212.047 68.7215C213.092 68.7215 213.488 69.5575 213.554 70.2615Z" fill="white"/>
<path d="M291.789 104.047H292.801L295.408 96.2695H294.396L291.789 104.047Z" fill="white"/>
<path d="M296.366 103.827H301.888V102.452H298.83C300.799 101.066 301.833 99.9765 301.833 98.7225C301.833 97.2595 300.59 96.3795 299.028 96.3795C298.005 96.3795 296.916 96.7535 296.201 97.5785L297.092 98.6125C297.587 98.0955 298.225 97.7655 299.05 97.7655C299.666 97.7655 300.249 98.0845 300.249 98.7225C300.249 99.6245 299.369 100.384 296.366 102.595V103.827Z" fill="white"/>
<path d="M303.27 101.924C303.27 103.299 304.678 103.959 306.218 103.959C307.758 103.959 309.166 103.288 309.166 101.924C309.166 101.033 308.462 100.351 307.582 100.043C308.396 99.7565 309.045 99.2285 309.045 98.3155C309.045 96.9405 307.571 96.3795 306.218 96.3795C304.854 96.3795 303.391 96.9405 303.391 98.3155C303.391 99.2285 304.029 99.7565 304.843 100.043C303.963 100.351 303.27 101.033 303.27 101.924ZM307.45 98.5575C307.45 99.1295 306.669 99.3825 306.218 99.4485C305.767 99.3825 304.975 99.1295 304.975 98.5575C304.975 98.0405 305.492 97.7215 306.218 97.7215C306.933 97.7215 307.45 98.0405 307.45 98.5575ZM307.582 101.737C307.582 102.276 306.966 102.617 306.218 102.617C305.448 102.617 304.854 102.276 304.854 101.737C304.854 101.099 305.756 100.791 306.218 100.736C306.669 100.791 307.582 101.099 307.582 101.737Z" fill="white"/>
<path d="M36.7969 68.0465H37.8089L40.4159 60.2695H39.4039L36.7969 68.0465Z" fill="white"/>
<path d="M41.231 64.1745C41.231 66.2425 42.166 67.9585 44.399 67.9585C46.071 67.9585 47.204 66.8695 47.204 65.4395C47.204 63.8775 46.027 63.0745 44.707 63.0745C43.904 63.0745 43.167 63.5145 42.826 64.0095C42.815 63.9655 42.815 63.9105 42.815 63.8555C42.815 62.6895 43.541 61.7325 44.652 61.7325C45.301 61.7325 45.719 61.9415 46.115 62.3155L46.819 61.1385C46.291 60.6875 45.543 60.3795 44.652 60.3795C42.485 60.3795 41.231 61.9525 41.231 64.1745ZM45.62 65.5055C45.62 66.0225 45.169 66.5945 44.322 66.5945C43.288 66.5945 42.892 65.7805 42.826 65.0765C43.178 64.6475 43.706 64.3725 44.256 64.3725C44.971 64.3725 45.62 64.7135 45.62 65.5055Z" fill="white"/>
<path d="M54.7305 87.0465H55.7425L58.3495 79.2695H57.3375L54.7305 87.0465Z" fill="white"/>
<path d="M59.1646 83.1745C59.1646 85.2425 60.0996 86.9585 62.3326 86.9585C64.0046 86.9585 65.1376 85.8695 65.1376 84.4395C65.1376 82.8775 63.9606 82.0745 62.6406 82.0745C61.8376 82.0745 61.1006 82.5145 60.7596 83.0095C60.7486 82.9655 60.7486 82.9105 60.7486 82.8555C60.7486 81.6895 61.4746 80.7325 62.5856 80.7325C63.2346 80.7325 63.6526 80.9415 64.0486 81.3155L64.7526 80.1385C64.2246 79.6875 63.4766 79.3795 62.5856 79.3795C60.4186 79.3795 59.1646 80.9525 59.1646 83.1745ZM63.5536 84.5055C63.5536 85.0225 63.1026 85.5945 62.2556 85.5945C61.2216 85.5945 60.8256 84.7805 60.7596 84.0765C61.1116 83.6475 61.6396 83.3725 62.1896 83.3725C62.9046 83.3725 63.5536 83.7135 63.5536 84.5055Z" fill="white"/>
<path d="M66.297 83.1745C66.297 85.2425 67.232 86.9585 69.465 86.9585C71.137 86.9585 72.27 85.8695 72.27 84.4395C72.27 82.8775 71.093 82.0745 69.773 82.0745C68.97 82.0745 68.233 82.5145 67.892 83.0095C67.881 82.9655 67.881 82.9105 67.881 82.8555C67.881 81.6895 68.607 80.7325 69.718 80.7325C70.367 80.7325 70.785 80.9415 71.181 81.3155L71.885 80.1385C71.357 79.6875 70.609 79.3795 69.718 79.3795C67.551 79.3795 66.297 80.9525 66.297 83.1745ZM70.686 84.5055C70.686 85.0225 70.235 85.5945 69.388 85.5945C68.354 85.5945 67.958 84.7805 67.892 84.0765C68.244 83.6475 68.772 83.3725 69.322 83.3725C70.037 83.3725 70.686 83.7135 70.686 84.5055Z" fill="white"/>
<path d="M18.7305 114.047H19.7425L22.3495 106.27H21.3375L18.7305 114.047Z" fill="white"/>
<path d="M23.3296 112.859C23.9566 113.541 24.8806 113.959 26.1566 113.959C27.9276 113.959 29.0936 112.98 29.0936 111.429C29.0936 109.944 27.9826 109.053 26.7396 109.053C26.0686 109.053 25.4746 109.328 25.0896 109.669V107.832H28.5986V106.49H23.5606V110.681L24.6496 110.978C25.0896 110.56 25.5846 110.373 26.1896 110.373C27.0256 110.373 27.5096 110.824 27.5096 111.495C27.5096 112.1 27.0146 112.595 26.1456 112.595C25.3756 112.595 24.6936 112.32 24.1876 111.803L23.3296 112.859Z" fill="white"/>
<path d="M30.297 110.175C30.297 112.243 31.232 113.959 33.465 113.959C35.137 113.959 36.27 112.87 36.27 111.44C36.27 109.878 35.093 109.075 33.773 109.075C32.97 109.075 32.233 109.515 31.892 110.01C31.881 109.966 31.881 109.911 31.881 109.856C31.881 108.69 32.607 107.733 33.718 107.733C34.367 107.733 34.785 107.942 35.181 108.316L35.885 107.139C35.357 106.688 34.609 106.38 33.718 106.38C31.551 106.38 30.297 107.953 30.297 110.175ZM34.686 111.506C34.686 112.023 34.235 112.595 33.388 112.595C32.354 112.595 31.958 111.781 31.892 111.077C32.244 110.648 32.772 110.373 33.322 110.373C34.037 110.373 34.686 110.714 34.686 111.506Z" fill="white"/>
<path d="M10.793 125.047H11.805L14.412 117.27H13.4L10.793 125.047Z" fill="white"/>
<path d="M18.6371 124.827H20.1991V123.309H21.1451V121.934H20.1991V117.49H18.0431L15.1281 122.077V123.309H18.6371L18.6371 124.827ZM18.6371 118.876V121.934H16.6571L18.6371 118.876Z" fill="white"/>
<path d="M22.2306 121.175C22.2306 123.243 23.1656 124.959 25.3986 124.959C27.0706 124.959 28.2036 123.87 28.2036 122.44C28.2036 120.878 27.0266 120.075 25.7066 120.075C24.9036 120.075 24.1666 120.515 23.8256 121.01C23.8146 120.966 23.8146 120.911 23.8146 120.856C23.8146 119.69 24.5406 118.733 25.6516 118.733C26.3006 118.733 26.7186 118.942 27.1146 119.316L27.8186 118.139C27.2906 117.688 26.5426 117.38 25.6516 117.38C23.4846 117.38 22.2306 118.953 22.2306 121.175ZM26.6196 122.506C26.6196 123.023 26.1686 123.595 25.3216 123.595C24.2876 123.595 23.8916 122.781 23.8256 122.077C24.1776 121.648 24.7056 121.373 25.2556 121.373C25.9706 121.373 26.6196 121.714 26.6196 122.506Z" fill="white"/>
<path d="M19.7969 137.047H20.8089L23.4159 129.27H22.4039L19.7969 137.047Z" fill="white"/>
<path d="M24.396 135.859C25.023 136.541 25.947 136.959 27.223 136.959C28.994 136.959 30.16 135.98 30.16 134.429C30.16 132.944 29.049 132.053 27.806 132.053C27.135 132.053 26.541 132.328 26.156 132.669V130.832H29.665V129.49H24.627V133.681L25.716 133.978C26.156 133.56 26.651 133.373 27.256 133.373C28.092 133.373 28.576 133.824 28.576 134.495C28.576 135.1 28.081 135.595 27.212 135.595C26.442 135.595 25.76 135.32 25.254 134.803L24.396 135.859Z" fill="white"/>
<path d="M83.9104 233.047H84.9224L87.5294 225.27H86.5174L83.9104 233.047Z" fill="white"/>
<path d="M91.7545 232.827H93.3165V231.309H94.2625V229.934H93.3165L93.3165 225.49H91.1605L88.2455 230.077V231.309H91.7545L91.7545 232.827ZM91.7545 226.876V229.934H89.7745L91.7545 226.876Z" fill="white"/>
<path d="M98.758 232.827H100.32V231.309H101.266V229.934H100.32L100.32 225.49H98.164L95.249 230.077V231.309H98.758V232.827ZM98.758 226.876V229.934H96.778L98.758 226.876Z" fill="white"/>
<path d="M102.197 231.782C102.736 232.442 103.737 232.959 105.09 232.959C106.85 232.959 107.983 232.068 107.983 230.803C107.983 229.703 107.015 229.12 106.267 229.043C107.081 228.9 107.873 228.295 107.873 227.371C107.873 226.15 106.817 225.38 105.101 225.38C103.814 225.38 102.89 225.875 102.296 226.546L103.066 227.514C103.583 227.019 104.232 226.744 104.936 226.744C105.706 226.744 106.3 227.041 106.3 227.624C106.3 228.174 105.761 228.438 104.947 228.438C104.672 228.438 104.166 228.438 104.034 228.427V229.791C104.144 229.78 104.639 229.78 104.947 229.78C105.97 229.78 106.421 230.055 106.421 230.649C106.421 231.21 105.926 231.595 105.035 231.595C104.32 231.595 103.517 231.287 103.011 230.759L102.197 231.782Z" fill="white"/>
<path d="M123.91 251.047H124.922L127.529 243.27H126.517L123.91 251.047Z" fill="white"/>
<path d="M128.191 249.782C128.73 250.442 129.731 250.959 131.084 250.959C132.844 250.959 133.977 250.068 133.977 248.803C133.977 247.703 133.009 247.12 132.261 247.043C133.075 246.9 133.867 246.295 133.867 245.371C133.867 244.15 132.811 243.38 131.095 243.38C129.808 243.38 128.884 243.875 128.29 244.546L129.06 245.514C129.577 245.019 130.226 244.744 130.93 244.744C131.7 244.744 132.294 245.041 132.294 245.624C132.294 246.174 131.755 246.438 130.941 246.438C130.666 246.438 130.16 246.438 130.028 246.427V247.791C130.138 247.78 130.633 247.78 130.941 247.78C131.964 247.78 132.415 248.055 132.415 248.649C132.415 249.21 131.92 249.595 131.029 249.595C130.314 249.595 129.511 249.287 129.005 248.759L128.191 249.782Z" fill="white"/>
<path d="M138.651 250.827H140.213V249.309H141.159V247.934H140.213L140.213 243.49H138.057L135.142 248.077V249.309H138.651V250.827ZM138.651 244.876V247.934H136.671L138.651 244.876Z" fill="white"/>
<path d="M145.654 250.827H147.216V249.309H148.162V247.934H147.216V243.49H145.06L142.145 248.077V249.309H145.654V250.827ZM145.654 244.876V247.934H143.674L145.654 244.876Z" fill="white"/>
<path d="M151.91 286.047H152.922L155.529 278.27H154.517L151.91 286.047Z" fill="white"/>
<path d="M156.19 284.782C156.729 285.442 157.73 285.959 159.083 285.959C160.843 285.959 161.976 285.068 161.976 283.803C161.976 282.703 161.008 282.12 160.26 282.043C161.074 281.9 161.866 281.295 161.866 280.371C161.866 279.15 160.81 278.38 159.094 278.38C157.807 278.38 156.883 278.875 156.289 279.546L157.059 280.514C157.576 280.019 158.225 279.744 158.929 279.744C159.699 279.744 160.293 280.041 160.293 280.624C160.293 281.174 159.754 281.438 158.94 281.438C158.665 281.438 158.159 281.438 158.027 281.427V282.791C158.137 282.78 158.632 282.78 158.94 282.78C159.963 282.78 160.414 283.055 160.414 283.649C160.414 284.21 159.919 284.595 159.028 284.595C158.313 284.595 157.51 284.287 157.004 283.759L156.19 284.782Z" fill="white"/>
<path d="M166.65 285.827H168.212V284.309H169.158V282.934H168.212L168.212 278.49H166.056L163.141 283.077V284.309H166.65V285.827ZM166.65 279.876V282.934H164.67L166.65 279.876Z" fill="white"/>
<path d="M223.5 22.0481H224.512L227.119 14.2711H226.107L223.5 22.0481ZM229.793 21.8281H231.355V14.4911H229.991L227.681 16.8121L228.572 17.7471L229.793 16.5041V21.8281Z" fill="white"/>
</svg>
